<?xml version="1.0" encoding="utf-8"?>
<!-- Generator: Adobe Illustrator 21.0.2, SVG Export Plug-In . SVG Version: 6.00 Build 0)  -->
<svg version="1.1" id="图层_1" xmlns="http://www.w3.org/2000/svg" xmlns:xlink="http://www.w3.org/1999/xlink" x="0px" y="0px"
	 viewBox="0 0 1024 1024" style="enable-background:new 0 0 1024 1024;" xml:space="preserve">
<style type="text/css">
	.st0{fill:#FFFFFF;}
	.st1{fill:#3EA505;}
</style>
<circle class="st0" cx="514.8" cy="513.3" r="491.2"/>
<g>
	<g>
		<path class="st1" d="M959.9,511.6c0,246.8-200.8,447.6-447.6,447.6S64.7,758.4,64.7,511.6S265.5,64.1,512.3,64.1
			S959.9,264.8,959.9,511.6 M1023.8,511.6c0-282.5-229-511.5-511.5-511.5S0.8,229.1,0.8,511.6s229,511.5,511.5,511.5
			S1023.8,794.1,1023.8,511.6L1023.8,511.6z"/>
	</g>
	<polygon class="st1" points="543.8,831.3 543.8,345.8 702.2,504.3 747.5,459.1 511.8,223.3 276.1,459.1 321.4,504.3 479.8,345.8 
		479.8,831.3 	"/>
</g>
</svg>
