<?xml version="1.0" encoding="utf-8"?>
<!-- Generator: Adobe Illustrator 21.0.2, SVG Export Plug-In . SVG Version: 6.00 Build 0)  -->
<svg version="1.1" id="图层_1" xmlns="http://www.w3.org/2000/svg" xmlns:xlink="http://www.w3.org/1999/xlink" x="0px" y="0px"
	 viewBox="0 0 1024 1024" style="enable-background:new 0 0 1024 1024;" xml:space="preserve">
<style type="text/css">
	.st0{fill:#FA4C47;}
</style>
<g>
	<path class="st0" d="M528,809.2c-22.2,0-37,7.1-51.8,21.3S454,858.9,454,880.2s7.4,35.5,22.2,49.7c14.8,14.2,29.6,21.3,51.8,21.3
		c22.2,0,37-7.1,51.8-21.3s22.2-28.4,22.2-49.7s-7.4-35.5-22.2-49.7S550.2,809.2,528,809.2L528,809.2z"/>
	<path class="st0" d="M444.5,167.3l23,530.4c1.3,29.8,25.9,53.4,55.7,53.4c30,0,54.8-23.4,56.5-53.3l30.7-530.5
		c2.7-45.5-32-84.5-77.5-87.1c-1.6-0.1-3.2-0.1-4.8-0.1c-46.2,0-83.6,37.5-83.6,83.7C444.4,164.9,444.5,166.1,444.5,167.3
		L444.5,167.3z"/>
</g>
</svg>
