<?xml version="1.0" encoding="utf-8"?>
<!-- Generator: Adobe Illustrator 21.0.2, SVG Export Plug-In . SVG Version: 6.00 Build 0)  -->
<svg version="1.1" id="图层_1" xmlns="http://www.w3.org/2000/svg" xmlns:xlink="http://www.w3.org/1999/xlink" x="0px" y="0px"
	 viewBox="0 0 1024 1024" style="enable-background:new 0 0 1024 1024;" xml:space="preserve">
<style type="text/css">
	.st0{fill:none;stroke:#383838;stroke-width:60;stroke-linecap:round;stroke-linejoin:round;stroke-miterlimit:10;}
	.st1{fill:none;stroke:#383838;stroke-width:60.5729;stroke-linecap:round;stroke-linejoin:round;stroke-miterlimit:10;}
</style>
<path class="st0" d="M896,398c29.8,0,54-24.2,54-54v0c0-29.8-24.2-54-54-54H724V116c0-29.8-24.2-54-54-54h0c-29.8,0-54,24.2-54,54
	v144H410V116c0-29.8-24.2-54-54-54h0c-29.8,0-54,24.2-54,54v174H126c-29.8,0-54,24.2-54,54v0c0,29.8,24.2,54,54,54h138v206H126
	c-29.8,0-54,24.2-54,54v0c0,29.8,24.2,54,54,54h176v174c0,29.8,24.2,54,54,54h0c29.8,0,54-24.2,54-54V742h206v144
	c0,29.8,24.2,54,54,54h0c29.8,0,54-24.2,54-54V712h172c29.8,0,54-24.2,54-54v0c0-29.8-24.2-54-54-54H780V398H896z"/>
<circle class="st1" cx="515" cy="497" r="147"/>
</svg>
