<?xml version="1.0" encoding="utf-8"?>
<!-- Generator: Adobe Illustrator 21.0.2, SVG Export Plug-In . SVG Version: 6.00 Build 0)  -->
<svg version="1.1" id="图层_1" xmlns="http://www.w3.org/2000/svg" xmlns:xlink="http://www.w3.org/1999/xlink" x="0px" y="0px"
	 viewBox="0 0 1024 1024" style="enable-background:new 0 0 1024 1024;" xml:space="preserve">
<style type="text/css">
	.st0{fill:#EB344B;}
</style>
<path class="st0" d="M866.6,400.1c-2.8-5.6-11.6-18.8-33.3-20.5c-0.7,0-1.3-0.1-2-0.1l-223.4-1.4l57.5-283.8
	c0.2-0.8,0.3-1.6,0.4-2.4c2-17.8-1.6-31.9-10.7-41.9c-7.6-8.4-18.5-13-30.6-13c-13.9,0-25.9,6.1-29.3,7.9c-3,1.7-5.7,3.8-7.9,6.5
	L157.5,556.7c-0.7,0.8-1.3,1.6-1.9,2.5c-6.6,9.7-10.9,25.2-3.2,39.5c4,7.3,14.2,19.5,38.2,19.5c1.1,0,2.3,0,3.6-0.1l197.8-0.1
	L281.6,935.6c-0.6,1.8-1.1,3.7-1.3,5.6c-0.6,4.5-1.6,20.1,9.9,32.8c7.5,8.3,18.3,12.9,30.4,12.9c7.4,0,15.3-1.7,24-5.1
	c3.9-1.5,7.4-3.9,10.3-6.9l504.2-530.1c1.1-1.1,2-2.3,2.9-3.6C865.4,436.3,875.8,418.5,866.6,400.1L866.6,400.1z"/>
</svg>
