<?xml version="1.0" encoding="utf-8"?>
<!-- Generator: Adobe Illustrator 21.0.2, SVG Export Plug-In . SVG Version: 6.00 Build 0)  -->
<svg version="1.1" id="图层_1" xmlns="http://www.w3.org/2000/svg" xmlns:xlink="http://www.w3.org/1999/xlink" x="0px" y="0px"
	 viewBox="0 0 1024 1024" style="enable-background:new 0 0 1024 1024;" xml:space="preserve">
<style type="text/css">
	.st0{fill:#EC0C06;}
	.st1{fill:#FFA300;}
</style>
<rect class="st0" width="1024" height="1024"/>
<path class="st1" d="M715.5,291.8c20,44.1,23.7,118.2-16.6,154.2c-68.6-259.8-238.4-313.2-238.4-313.2
	c20,134.2-73,280.6-162.3,390.3c-3.3-53.4-6.7-90.8-34.9-141.6c-6.1,96.8-80.8,176.4-100.8,273.5c-27,131.9,20.4,228.3,201.6,330.3
	c-57.1-118.2-26.7-186.1,17.1-249.8c28.9-42.1,49.4-89.4,60.5-139.2c0,0,37.4,48.9,22.6,125.3c66.6-74.1,78.7-191.6,68.9-236.8
	c150.5,104.9,214.6,332.1,127.9,500.4C1121.8,725.1,775.6,335.9,715.5,291.8L715.5,291.8z"/>
</svg>
