<?xml version="1.0" encoding="utf-8"?>
<!-- Generator: Adobe Illustrator 21.0.2, SVG Export Plug-In . SVG Version: 6.00 Build 0)  -->
<svg version="1.1" id="图层_1" xmlns="http://www.w3.org/2000/svg" xmlns:xlink="http://www.w3.org/1999/xlink" x="0px" y="0px"
	 viewBox="0 0 1024 1024" style="enable-background:new 0 0 1024 1024;" xml:space="preserve">
<style type="text/css">
	.st0{fill:#0199FF;}
	.st1{fill:#33FFFF;}
</style>
<rect class="st0" width="1024" height="1024"/>
<path class="st1" d="M512.3,986.3h-80.9c-28.8,0.5-55.3-15.9-67.7-42c-4.9-9.4-7-19.9-6.4-30.4c0.4-40.1-33.1-171-54.3-205
	c-8.1-12.5-17.5-24-28.2-34.4c-21.4-23.8-40.4-49.7-56.7-77.3c-15.1-23.9-27.7-49.2-37.8-75.6c-8.9-25-13.7-51.3-14.4-77.9
	c-0.9-28.6,1.9-57.2,8.1-85.1c9.1-41.5,26.6-80.7,51.6-115.1c34.9-50.2,81.8-90.9,136.5-118.3c23.6-11.4,48.5-19.9,74.1-25.3
	c30.6-6.4,61.9-8.9,93.2-7.6c43.5,1.5,86.4,11.4,126.1,29.3c25.4,11.8,49.2,26.8,70.7,44.6c32.4,26.4,60.3,57.9,82.4,93.4
	c20.3,32.3,34.6,67.9,42.2,105.3c6.6,30.2,8.8,61.2,6.4,92.1c-2.3,26.5-8.7,52.4-18.9,76.9c-15,38.2-35.3,74.1-60.3,106.6
	c-10.7,13.9-22.1,27.1-34.2,39.7c-13.1,14-23.7,30.3-31.2,48c-23.5,49-38.4,170.4-39.5,182c-0.5,8.5-1.7,17-3.6,25.3
	c-5.5,17.4-17.6,31.9-33.6,40.5c-12,7-25.7,10.5-39.5,10.2L512.3,986.3z"/>
</svg>
