<?xml version="1.0" encoding="utf-8"?>
<!-- Generator: Adobe Illustrator 21.0.2, SVG Export Plug-In . SVG Version: 6.00 Build 0)  -->
<svg version="1.1" id="图层_1" xmlns="http://www.w3.org/2000/svg" xmlns:xlink="http://www.w3.org/1999/xlink" x="0px" y="0px"
	 viewBox="0 0 1024 1024" style="enable-background:new 0 0 1024 1024;" xml:space="preserve">
<style type="text/css">
	.st0{fill:#0486FD;}
	.st1{fill:#FFFFFF;}
</style>
<path class="st0" d="M895.9,948H134.1C94.3,948,62,915.7,62,875.9V142.1C62,102.3,94.3,70,134.1,70H896c39.8,0,72.1,32.3,72.1,72.1
	V876C968,915.7,935.7,948,895.9,948z"/>
<g>
	<path class="st1" d="M305,675.7c56.8,41,117.9,61.5,183.5,61.5c87.8,0,131.7-28.8,131.7-86.3c0-24.5-9.6-44.8-28.8-60.7
		c-19.2-15.9-58.1-34.8-116.8-56.7c-70.6-28.4-116.4-56.5-137.5-84.3c-21.1-27.8-31.6-61.5-31.6-101c0-56.4,23.9-101.5,71.6-135.5
		S483.7,162,553.5,162c54.1,0,104.3,9.4,150.7,28.2v108.7c-47.6-30.7-101.5-46-161.7-46c-36.1,0-65.4,7.9-88,23.6
		c-22.6,15.7-33.9,36.4-33.9,62.1c0,25.3,8.1,45.1,24.4,59.2c16.3,14.2,52.4,32.4,108.4,54.7c71,26.5,118.9,53.9,143.8,82.3
		c24.9,28.4,37.4,63.5,37.4,105.3c0,58.3-23.9,104.2-71.6,137.8s-109.6,50.3-185.5,50.3c-66,0-123.5-12.5-172.6-37.4V675.7z"/>
</g>
</svg>
