<?xml version="1.0" encoding="utf-8"?>
<!-- Generator: Adobe Illustrator 21.0.2, SVG Export Plug-In . SVG Version: 6.00 Build 0)  -->
<svg version="1.1" id="图层_1" xmlns="http://www.w3.org/2000/svg" xmlns:xlink="http://www.w3.org/1999/xlink" x="0px" y="0px"
	 viewBox="0 0 1024 1024" style="enable-background:new 0 0 1024 1024;" xml:space="preserve">
<style type="text/css">
	.st0{fill:#666666;}
	.st1{fill:#F8F8F8;}
</style>
<rect x="1.1" y="-0.4" class="st0" width="1023" height="1024.4"/>
<g>
	<path class="st1" d="M167.6,535.6c-7.7,0-15.4-2.9-21.2-8.8c-11.7-11.7-11.7-30.7,0-42.4L489,141.8c60-59.9,157.5-60,217.4,0
		l109.4,109.4c11.7,11.7,11.7,30.7,0,42.4c-11.7,11.7-30.7,11.7-42.4,0L664,184.2c-36.6-36.6-96-36.6-132.6,0L188.8,526.8
		C183,532.7,175.3,535.6,167.6,535.6z"/>
</g>
<g>
	<path class="st1" d="M430.5,934.5c-39.4,0-78.7-15-108.7-45L212.4,780.2c-11.7-11.7-11.7-30.7,0-42.4c11.7-11.7,30.7-11.7,42.4,0
		l109.4,109.4c36.6,36.6,96,36.6,132.6,0l342.6-342.6c11.7-11.7,30.7-11.7,42.4,0c11.7,11.7,11.7,30.7,0,42.4L539.2,889.5
		C509.3,919.5,469.9,934.5,430.5,934.5z"/>
</g>
</svg>
