<?xml version="1.0" encoding="utf-8"?>
<!-- Generator: Adobe Illustrator 21.0.2, SVG Export Plug-In . SVG Version: 6.00 Build 0)  -->
<svg version="1.1" id="图层_1" xmlns="http://www.w3.org/2000/svg" xmlns:xlink="http://www.w3.org/1999/xlink" x="0px" y="0px"
	 viewBox="0 0 1024 1024" style="enable-background:new 0 0 1024 1024;" xml:space="preserve">
<style type="text/css">
	.st0{fill:#333333;}
	.st1{fill:#FFFFFF;}
</style>
<path class="st0" d="M895.8,949H134c-39.8,0-72.1-32.3-72.1-72.1V143.1C61.9,103.3,94.2,71,134,71h761.9c39.8,0,72.1,32.3,72.1,72.1
	V877C967.9,916.7,935.6,949,895.8,949z"/>
<path class="st1" d="M432.2,777h179.2c0.1,50.9-39.1,93.3-89.8,97.1C471,870.1,432,827.8,432.2,777L432.2,777z M754.1,675.6
	c-28.6,0-28.6-128.2-28.6-128.2V459c4.4-103.1-55.6-198-150.5-238.4c8.3-4.4,8.3-8.7,8.3-8.7c0.3-34.7-26.5-63.7-61.2-66
	c-34.7,2.3-61.5,31.3-61.2,66v8.7c-93.1,42.5-152.4,136-151,238.4v88.4c0,0,0,128.2-28.6,128.2c-17.4,0-31.8,13.7-32.5,31.1
	c-1.1,16.1,11,30,27.1,31.1c0,0,0.1,0,0.1,0h478.3c17-2.1,29.1-17.7,27-34.7c-1.8-14.1-12.9-25.2-27-27L754.1,675.6z"/>
</svg>
