<?xml version="1.0" encoding="utf-8"?>
<!-- Generator: Adobe Illustrator 21.0.2, SVG Export Plug-In . SVG Version: 6.00 Build 0)  -->
<svg version="1.1" id="图层_1" xmlns="http://www.w3.org/2000/svg" xmlns:xlink="http://www.w3.org/1999/xlink" x="0px" y="0px"
	 viewBox="0 0 1024 1024" style="enable-background:new 0 0 1024 1024;" xml:space="preserve">
<style type="text/css">
	.st0{fill:#FF0000;}
</style>
<path class="st0" d="M519.2,900.6c-222.5,0-402.8-180.3-402.8-402.8C116.4,275.4,296.7,95,519.2,95C741.7,95,922,275.4,922,497.8
	C922,720.3,741.7,900.6,519.2,900.6z M191.9,497.8c0,180.8,146.5,327.3,327.3,327.3c76.8,0,147.2-26.6,203-70.9L262.8,294.8
	C218.5,350.6,191.9,421.1,191.9,497.8z M519.2,170.5c-76.8,0-147.2,26.6-203,70.9l459.4,459.4c44.2-55.8,70.9-126.3,70.9-203
	C846.5,317,700,170.5,519.2,170.5z"/>
</svg>
