<?xml version="1.0" encoding="utf-8"?>
<!-- Generator: Adobe Illustrator 21.0.2, SVG Export Plug-In . SVG Version: 6.00 Build 0)  -->
<svg version="1.1" id="图层_1" xmlns="http://www.w3.org/2000/svg" xmlns:xlink="http://www.w3.org/1999/xlink" x="0px" y="0px"
	 viewBox="0 0 1024 1024" style="enable-background:new 0 0 1024 1024;" xml:space="preserve">
<style type="text/css">
	.st0{fill:#FA4C47;}
	.st1{fill:#F8F8F8;}
</style>
<rect x="1.1" y="-0.4" class="st0" width="1023" height="1024.4"/>
<path class="st1" d="M824.1,878.9L141.8,196.6c-11.4-11.4-11.4-30,0-41.4l11.9-11.9c11.4-11.4,30-11.4,41.4,0l682.2,682.2
	c11.4,11.4,11.4,30,0,41.4l-11.9,11.9C854,890.3,835.5,890.3,824.1,878.9z"/>
<path class="st1" d="M141.8,825.6l682.2-682.2c11.4-11.4,30-11.4,41.4,0l11.9,11.9c11.4,11.4,11.4,30,0,41.4L195.1,878.9
	c-11.4,11.4-30,11.4-41.4,0l-11.9-11.9C130.4,855.5,130.4,837,141.8,825.6z"/>
</svg>
