<?xml version="1.0" encoding="utf-8"?>
<!-- Generator: Adobe Illustrator 21.0.2, SVG Export Plug-In . SVG Version: 6.00 Build 0)  -->
<svg version="1.1" id="图层_1" xmlns="http://www.w3.org/2000/svg" xmlns:xlink="http://www.w3.org/1999/xlink" x="0px" y="0px"
	 viewBox="0 0 1024 1024" style="enable-background:new 0 0 1024 1024;" xml:space="preserve">
<style type="text/css">
	.st0{fill:#0486FD;}
	.st1{fill:#FFFFFF;}
</style>
<g>
	<path class="st0" d="M895.9,948H134.1C94.3,948,62,915.7,62,875.9V142.1C62,102.3,94.3,70,134.1,70H896c39.8,0,72.1,32.3,72.1,72.1
		V876C968,915.7,935.7,948,895.9,948z"/>
	<g>
		<path class="st1" d="M807.6,838.1h-93.8l-67-179.9H373.1l-63.2,179.9h-93.8l250.3-657.3h90.8L807.6,838.1z M620.4,583.9
			l-99.3-273.3c-3.1-8.8-6.5-24-10.2-45.8h-2.1c-3.1,19.8-6.6,35.1-10.6,45.8l-98.4,273.3H620.4z"/>
	</g>
</g>
</svg>
