<?xml version="1.0" encoding="utf-8"?>
<!-- Generator: Adobe Illustrator 21.0.2, SVG Export Plug-In . SVG Version: 6.00 Build 0)  -->
<svg version="1.1" id="图层_1" xmlns="http://www.w3.org/2000/svg" xmlns:xlink="http://www.w3.org/1999/xlink" x="0px" y="0px"
	 viewBox="0 0 1024 1024" style="enable-background:new 0 0 1024 1024;" xml:space="preserve">
<style type="text/css">
	.st0{fill:#0486FD;}
	.st1{fill:#FFFFFF;}
</style>
<g>
	<path class="st0" d="M895.9,948H134.1C94.3,948,62,915.7,62,875.9V142.1C62,102.3,94.3,70,134.1,70h761.9
		c39.8,0,72.1,32.3,72.1,72.1v733.9C968,915.7,935.7,948,895.9,948z"/>
	<g>
		<path class="st1" d="M757.2,782.5c-63.1,35.9-134.4,53.9-213.9,53.9c-91.4,0-165.1-28.9-221-86.7c-55.9-57.8-83.9-135-83.9-231.6
			c0-97.7,30.9-177.9,92.6-240.8c61.8-62.9,140.9-94.3,237.5-94.3c68.3,0,126.1,10.9,173.5,32.7v88.2
			C691.5,271.9,631.3,256,561.3,256c-68.8,0-125.6,23.5-170.2,70.6c-44.6,47.1-66.9,109.1-66.9,186.1c0,79.2,20.5,140.8,61.6,184.9
			c41.1,44.1,96.6,66.1,166.5,66.1c48.2,0,89.1-9.2,122.8-27.8v-171H538.1v-72.2h219.2V782.5z"/>
	</g>
</g>
</svg>
