<?xml version="1.0" encoding="utf-8"?>
<!-- Generator: Adobe Illustrator 21.0.2, SVG Export Plug-In . SVG Version: 6.00 Build 0)  -->
<svg version="1.1" id="图层_1" xmlns="http://www.w3.org/2000/svg" xmlns:xlink="http://www.w3.org/1999/xlink" x="0px" y="0px"
	 viewBox="0 0 1024 1024" style="enable-background:new 0 0 1024 1024;" xml:space="preserve">
<style type="text/css">
	.st0{fill:#0486FD;}
	.st1{fill:#FFFFFF;}
</style>
<g>
	<path class="st0" d="M895.9,948H134.1C94.3,948,62,915.7,62,875.9V142.1C62,102.3,94.3,70,134.1,70H896c39.8,0,72.1,32.3,72.1,72.1
		V876C968,915.7,935.7,948,895.9,948z"/>
	<g>
		<path class="st1" d="M756.9,796.7V392.6c0-33.3,2-73.4,5.9-120.1h-2c-6.8,29.4-12.9,49.9-18.1,61.5L541.4,796.7h-43.7L296.8,337.4
			c-4.7-10.5-10.8-32.2-18.1-65h-2.4c2.6,28.4,3.9,69.6,3.9,123.7v400.6H205V186.5h106.8l180,418.4c13.7,32,22.7,57,27.2,74.8h2.8
			c13.7-37.6,23.2-63,28.8-76.4l183.2-416.8h101.6v610.2H756.9z"/>
	</g>
</g>
</svg>
