<?xml version="1.0" encoding="utf-8"?>
<!-- Generator: Adobe Illustrator 18.0.0, SVG Export Plug-In . SVG Version: 6.00 Build 0)  -->
<!DOCTYPE svg PUBLIC "-//W3C//DTD SVG 1.1//EN" "http://www.w3.org/Graphics/SVG/1.1/DTD/svg11.dtd">
<svg version="1.1" id="图层_1" xmlns="http://www.w3.org/2000/svg" xmlns:xlink="http://www.w3.org/1999/xlink" x="0px" y="0px"
	 width="36px" height="36px" viewBox="0 0 36 36" enable-background="new 0 0 36 36" xml:space="preserve">
<path fill="#FFFFFF" stroke="#C6C6C6" stroke-miterlimit="10" d="M0.5,33.363V2.636c0-1.203,0.975-2.178,2.178-2.178h30.644
	c1.203,0,2.178,0.975,2.178,2.178v30.728c0,1.203-0.975,2.177-2.177,2.177H2.678C1.475,35.541,0.5,34.566,0.5,33.363z"/>
<linearGradient id="SVGID_1_" gradientUnits="userSpaceOnUse" x1="18.0833" y1="33.8746" x2="18.0833" y2="1.9579">
	<stop  offset="0" style="stop-color:#F1E821"/>
	<stop  offset="1" style="stop-color:#D6B900"/>
</linearGradient>
<path fill="url(#SVGID_1_)" d="M32.75,33.875H3.417c-0.736,0-1.333-0.597-1.333-1.333V3.291c0-0.736,0.597-1.333,1.333-1.333H32.75
	c0.736,0,1.333,0.597,1.333,1.333v29.25C34.083,33.278,33.486,33.875,32.75,33.875z"/>
<g>
	<path fill="#A37C00" d="M13.235,30.867H8.032v-0.99h2.033v-6.891L7.979,23.59v-1.055l3.229-0.938v8.279h2.027V30.867z"/>
	<path fill="#A37C00" d="M14.495,26.508c0-1.602,0.266-2.813,0.797-3.636s1.301-1.233,2.309-1.233c1.922,0,2.883,1.551,2.883,4.652
		c0,1.531-0.271,2.702-0.812,3.513s-1.3,1.216-2.276,1.216c-0.922,0-1.636-0.385-2.142-1.154S14.495,27.977,14.495,26.508z
		 M15.667,26.455c0,2.41,0.611,3.615,1.834,3.615c1.203,0,1.805-1.225,1.805-3.674c0-2.535-0.59-3.803-1.77-3.803
		C16.29,22.594,15.667,23.881,15.667,26.455z"/>
	<path fill="#A37C00" d="M29.032,30.246c-0.906,0.516-1.93,0.773-3.07,0.773c-1.313,0-2.37-0.415-3.173-1.245
		s-1.204-1.938-1.204-3.325c0-1.402,0.443-2.555,1.33-3.457s2.023-1.354,3.41-1.354c0.98,0,1.811,0.156,2.49,0.469v1.266
		c-0.727-0.457-1.592-0.686-2.596-0.686c-0.988,0-1.803,0.338-2.443,1.014s-0.961,1.566-0.961,2.672
		c0,1.137,0.295,2.021,0.885,2.654s1.387,0.949,2.391,0.949c0.691,0,1.279-0.133,1.764-0.398v-2.455h-1.969v-1.037h3.146V30.246z"/>
</g>
<g>
	<g>
		<polygon fill="#A37C00" points="10.74,11.107 8.555,8.834 10.74,6.561 		"/>
		<polygon fill="#A37C00" points="25.26,11.107 27.445,8.834 25.26,6.561 		"/>
		<rect x="10.19" y="8.324" fill="#A37C00" width="15.75" height="1.02"/>
	</g>
	<path fill="#A37C00" d="M18.184,5.147c2.033,0,3.688,1.654,3.688,3.687s-1.654,3.688-3.688,3.688s-3.688-1.654-3.688-3.688
		S16.151,5.147,18.184,5.147 M18.184,3.647c-2.865,0-5.188,2.323-5.188,5.188s2.323,5.188,5.188,5.188s5.188-2.323,5.188-5.188
		S21.049,3.647,18.184,3.647L18.184,3.647z"/>
	<rect x="17.184" y="13.916" fill="#A37C00" width="2" height="3.667"/>
	<rect x="15.736" y="15.583" fill="#A37C00" width="4.896" height="1"/>
</g>
</svg>
