<?xml version="1.0" encoding="utf-8"?>
<!-- Generator: Adobe Illustrator 18.0.0, SVG Export Plug-In . SVG Version: 6.00 Build 0)  -->
<!DOCTYPE svg PUBLIC "-//W3C//DTD SVG 1.1//EN" "http://www.w3.org/Graphics/SVG/1.1/DTD/svg11.dtd">
<svg version="1.1" id="图层_1" xmlns="http://www.w3.org/2000/svg" xmlns:xlink="http://www.w3.org/1999/xlink" x="0px" y="0px"
	 width="36px" height="36px" viewBox="0 0 36 36" enable-background="new 0 0 36 36" xml:space="preserve">
<g>
	<path fill="#FFFFFF" stroke="#C6C6C6" stroke-width="0.9976" stroke-miterlimit="10" d="M0.541,33.327V2.673
		c0-1.2,0.973-2.173,2.173-2.173h30.572c1.2,0,2.173,0.973,2.173,2.173v30.655c0,1.2-0.973,2.172-2.172,2.172H2.714
		C1.514,35.5,0.541,34.527,0.541,33.327z"/>
	<linearGradient id="SVGID_1_" gradientUnits="userSpaceOnUse" x1="18.0831" y1="33.8373" x2="18.0831" y2="1.9963">
		<stop  offset="0" style="stop-color:#00AEF9"/>
		<stop  offset="1" style="stop-color:#0092E1"/>
	</linearGradient>
	<path fill="url(#SVGID_1_)" d="M32.715,33.837H3.451c-0.735,0-1.33-0.596-1.33-1.33V3.327c0-0.735,0.596-1.33,1.33-1.33h29.264
		c0.735,0,1.33,0.596,1.33,1.33v29.181C34.045,33.242,33.45,33.837,32.715,33.837z"/>
	<g opacity="0.9">
		<g>
			<polygon fill="#FFFFFF" points="10.757,11.124 8.578,8.856 10.757,6.589 			"/>
			<polygon fill="#FFFFFF" points="25.243,11.124 27.422,8.856 25.243,6.589 			"/>
			<rect x="10.209" y="8.348" fill="#FFFFFF" width="15.713" height="1.017"/>
		</g>
		<path fill="#FFFFFF" d="M18.184,5.178c2.028,0,3.679,1.65,3.679,3.679s-1.65,3.679-3.679,3.679s-3.679-1.65-3.679-3.679
			S16.155,5.178,18.184,5.178 M18.184,3.681c-2.858,0-5.175,2.317-5.175,5.175s2.317,5.175,5.175,5.175s5.175-2.317,5.175-5.175
			S21.042,3.681,18.184,3.681L18.184,3.681z"/>
		<rect x="17.186" y="13.926" fill="#FFFFFF" width="1.995" height="3.658"/>
		<rect x="15.742" y="15.589" fill="#FFFFFF" width="4.884" height="0.998"/>
	</g>
	<g>
		<path fill="#FFFFFF" d="M6.921,30.837H6.052v-6.705c-0.21,0.242-0.483,0.483-0.823,0.725s-0.645,0.424-0.916,0.544v-1.018
			c0.486-0.276,0.911-0.612,1.274-1.005c0.364-0.394,0.623-0.776,0.774-1.146h0.559V30.837z"/>
		<path fill="#FFFFFF" d="M13.715,29.826v1.011h-4.68c-0.005-0.253,0.029-0.497,0.103-0.731c0.12-0.386,0.31-0.765,0.571-1.139
			c0.264-0.375,0.642-0.807,1.138-1.298c0.769-0.764,1.289-1.37,1.56-1.815c0.271-0.447,0.405-0.868,0.405-1.266
			c0-0.417-0.122-0.769-0.369-1.055c-0.247-0.287-0.569-0.43-0.964-0.43c-0.417,0-0.752,0.151-1.003,0.455s-0.378,0.725-0.381,1.263
			l-0.894-0.111c0.061-0.807,0.291-1.422,0.688-1.844c0.4-0.424,0.938-0.635,1.609-0.635c0.679,0,1.218,0.228,1.614,0.684
			c0.396,0.457,0.593,1.022,0.593,1.696c0,0.343-0.059,0.68-0.173,1.012c-0.117,0.331-0.308,0.68-0.576,1.046
			c-0.271,0.366-0.718,0.869-1.34,1.508c-0.522,0.53-0.857,0.89-1.006,1.079c-0.146,0.189-0.271,0.378-0.366,0.57H13.715z"/>
		<path fill="#FFFFFF" d="M15.986,26.19c-0.361-0.16-0.627-0.388-0.803-0.684c-0.173-0.297-0.259-0.651-0.259-1.064
			c0-0.623,0.183-1.147,0.554-1.572s0.862-0.637,1.477-0.637c0.62,0,1.116,0.217,1.494,0.652c0.376,0.435,0.564,0.963,0.564,1.587
			c0,0.398-0.085,0.743-0.259,1.038c-0.171,0.294-0.435,0.521-0.784,0.681c0.435,0.172,0.764,0.448,0.991,0.83
			s0.342,0.837,0.342,1.368c0,0.732-0.215,1.348-0.642,1.847c-0.43,0.498-0.994,0.748-1.692,0.748s-1.262-0.25-1.689-0.752
			c-0.427-0.5-0.642-1.124-0.642-1.873c0-0.558,0.117-1.024,0.349-1.4C15.222,26.583,15.554,26.326,15.986,26.19z M15.532,28.364
			c0,0.3,0.059,0.591,0.176,0.872s0.293,0.498,0.525,0.652s0.481,0.231,0.747,0.231c0.415,0,0.759-0.161,1.03-0.485
			c0.269-0.323,0.405-0.735,0.405-1.234c0-0.507-0.139-0.925-0.417-1.256c-0.278-0.332-0.627-0.497-1.047-0.497
			c-0.408,0-0.747,0.164-1.016,0.491S15.532,27.873,15.532,28.364z M15.813,24.407c0,0.405,0.107,0.736,0.322,0.994
			c0.215,0.256,0.496,0.386,0.84,0.386c0.334,0,0.61-0.128,0.825-0.383c0.212-0.255,0.32-0.568,0.32-0.939
			c0-0.386-0.11-0.709-0.33-0.973c-0.222-0.262-0.496-0.394-0.825-0.394c-0.332,0-0.605,0.128-0.825,0.386
			C15.92,23.741,15.813,24.049,15.813,24.407z"/>
		<path fill="#FFFFFF" d="M20.148,26.611c0-1.013,0.085-1.829,0.259-2.446c0.171-0.618,0.427-1.094,0.767-1.429
			s0.767-0.503,1.282-0.503c0.381,0,0.713,0.093,1.001,0.278c0.286,0.184,0.522,0.452,0.71,0.801
			c0.186,0.348,0.332,0.773,0.439,1.274c0.105,0.5,0.159,1.176,0.159,2.025c0,1.005-0.085,1.816-0.256,2.434
			s-0.425,1.095-0.767,1.432c-0.339,0.338-0.767,0.507-1.287,0.507c-0.681,0-1.218-0.297-1.606-0.889
			C20.38,29.382,20.148,28.22,20.148,26.611z M21.042,26.611c0,1.406,0.134,2.343,0.408,2.809c0.271,0.465,0.608,0.698,1.006,0.698
			c0.4,0,0.735-0.234,1.008-0.702c0.271-0.468,0.408-1.403,0.408-2.805c0-1.411-0.137-2.349-0.408-2.811
			c-0.273-0.464-0.61-0.696-1.018-0.696c-0.398,0-0.718,0.204-0.955,0.613C21.191,24.239,21.042,25.203,21.042,26.611z"/>
		<path fill="#FFFFFF" d="M29.313,27.476V26.47l3-0.006v3.18c-0.461,0.444-0.938,0.779-1.426,1.002
			c-0.488,0.225-0.991,0.337-1.506,0.337c-0.696,0-1.328-0.181-1.895-0.541c-0.569-0.36-0.999-0.881-1.289-1.564
			c-0.288-0.682-0.435-1.444-0.435-2.286c0-0.834,0.144-1.611,0.432-2.335c0.288-0.723,0.703-1.26,1.245-1.61
			c0.54-0.35,1.162-0.526,1.868-0.526c0.513,0,0.974,0.1,1.389,0.302c0.413,0.2,0.737,0.48,0.972,0.839
			c0.237,0.359,0.415,0.826,0.537,1.403l-0.845,0.281c-0.107-0.436-0.239-0.779-0.396-1.029c-0.159-0.249-0.383-0.449-0.676-0.599
			c-0.293-0.149-0.618-0.225-0.977-0.225c-0.427,0-0.798,0.079-1.111,0.237s-0.564,0.365-0.754,0.623
			c-0.193,0.258-0.342,0.54-0.447,0.847c-0.181,0.531-0.271,1.105-0.271,1.725c0,0.764,0.107,1.403,0.325,1.918
			c0.217,0.514,0.535,0.896,0.95,1.145c0.415,0.25,0.857,0.375,1.323,0.375c0.405,0,0.801-0.095,1.189-0.284
			c0.386-0.188,0.679-0.391,0.879-0.604v-1.595H29.313z"/>
	</g>
</g>
</svg>
