<?xml version="1.0" encoding="utf-8"?>
<!-- Generator: Adobe Illustrator 18.0.0, SVG Export Plug-In . SVG Version: 6.00 Build 0)  -->
<!DOCTYPE svg PUBLIC "-//W3C//DTD SVG 1.1//EN" "http://www.w3.org/Graphics/SVG/1.1/DTD/svg11.dtd">
<svg version="1.1" id="图层_1" xmlns="http://www.w3.org/2000/svg" xmlns:xlink="http://www.w3.org/1999/xlink" x="0px" y="0px"
	 width="36px" height="36px" viewBox="0 0 36 36" enable-background="new 0 0 36 36" xml:space="preserve">
<g>
	<path fill="#FFFFFF" stroke="#C6C6C6" stroke-width="0.9976" stroke-miterlimit="10" d="M0.541,33.327V2.673
		c0-1.2,0.973-2.173,2.173-2.173h30.572c1.2,0,2.173,0.973,2.173,2.173v30.655c0,1.2-0.973,2.172-2.172,2.172H2.714
		C1.514,35.5,0.541,34.527,0.541,33.327z"/>
	<linearGradient id="SVGID_1_" gradientUnits="userSpaceOnUse" x1="18.0831" y1="33.8373" x2="18.0831" y2="1.9963">
		<stop  offset="0" style="stop-color:#76797A"/>
		<stop  offset="1" style="stop-color:#5F6263"/>
	</linearGradient>
	<path fill="url(#SVGID_1_)" d="M32.715,33.837H3.451c-0.735,0-1.33-0.596-1.33-1.33V3.327c0-0.735,0.596-1.33,1.33-1.33h29.264
		c0.735,0,1.33,0.596,1.33,1.33v29.181C34.045,33.242,33.45,33.837,32.715,33.837z"/>
	<g>
		<g>
			<polygon fill="#D5D6D6" points="10.757,11.124 8.578,8.856 10.757,6.589 			"/>
			<polygon fill="#D5D6D6" points="25.243,11.124 27.422,8.856 25.243,6.589 			"/>
			<rect x="10.209" y="8.348" fill="#D5D6D6" width="15.713" height="1.017"/>
		</g>
		<path fill="#D5D6D6" d="M18.184,5.178c2.028,0,3.679,1.65,3.679,3.679s-1.65,3.679-3.679,3.679s-3.679-1.65-3.679-3.679
			S16.155,5.178,18.184,5.178 M18.184,3.681c-2.858,0-5.175,2.317-5.175,5.175s2.317,5.175,5.175,5.175s5.175-2.317,5.175-5.175
			S21.042,3.681,18.184,3.681L18.184,3.681z"/>
		<rect x="17.186" y="13.926" fill="#D5D6D6" width="1.995" height="3.658"/>
		<rect x="15.742" y="15.589" fill="#D5D6D6" width="4.884" height="0.998"/>
	</g>
	<g>
		<path fill="#D5D6D6" d="M6.921,31.257H6.052v-6.704c-0.209,0.239-0.483,0.483-0.823,0.723C4.89,25.52,4.584,25.7,4.313,25.822
			v-1.021c0.486-0.273,0.912-0.61,1.276-1.003s0.621-0.776,0.773-1.145h0.559V31.257z"/>
		<path fill="#D5D6D6" d="M13.717,30.246v1.011h-4.68c-0.006-0.254,0.028-0.498,0.101-0.732c0.12-0.386,0.31-0.764,0.573-1.138
			c0.262-0.376,0.642-0.806,1.138-1.299c0.769-0.762,1.289-1.367,1.56-1.814c0.27-0.447,0.405-0.867,0.405-1.267
			c0-0.415-0.123-0.767-0.37-1.055c-0.247-0.286-0.568-0.43-0.963-0.43c-0.419,0-0.753,0.151-1.005,0.457s-0.378,0.725-0.381,1.262
			l-0.894-0.11c0.061-0.808,0.291-1.423,0.69-1.843c0.399-0.425,0.936-0.635,1.609-0.635c0.679,0,1.217,0.227,1.613,0.684
			c0.397,0.454,0.594,1.021,0.594,1.694c0,0.342-0.059,0.679-0.175,1.011s-0.308,0.681-0.576,1.047
			c-0.27,0.366-0.717,0.869-1.34,1.506c-0.521,0.532-0.857,0.891-1.005,1.079c-0.148,0.19-0.271,0.381-0.367,0.571H13.717z"/>
		<path fill="#D5D6D6" d="M15.986,26.608c-0.36-0.159-0.627-0.386-0.802-0.684c-0.173-0.295-0.26-0.649-0.26-1.064
			c0-0.62,0.184-1.147,0.555-1.572c0.37-0.425,0.862-0.635,1.477-0.635c0.619,0,1.116,0.215,1.493,0.649
			c0.376,0.435,0.564,0.964,0.564,1.587c0,0.4-0.085,0.745-0.258,1.04c-0.172,0.293-0.435,0.52-0.785,0.679
			c0.435,0.173,0.765,0.449,0.992,0.83c0.227,0.383,0.341,0.84,0.341,1.37c0,0.732-0.215,1.348-0.642,1.848
			c-0.428,0.498-0.992,0.747-1.691,0.747s-1.262-0.249-1.691-0.752c-0.427-0.5-0.642-1.123-0.642-1.873
			c0-0.559,0.117-1.023,0.35-1.399S15.555,26.745,15.986,26.608z M15.532,28.784c0,0.3,0.059,0.591,0.177,0.872
			c0.117,0.281,0.292,0.498,0.524,0.652s0.481,0.232,0.748,0.232c0.415,0,0.758-0.161,1.029-0.486
			c0.27-0.325,0.405-0.735,0.405-1.233c0-0.508-0.139-0.928-0.417-1.257c-0.278-0.332-0.627-0.496-1.046-0.496
			c-0.409,0-0.747,0.161-1.016,0.488C15.666,27.883,15.532,28.293,15.532,28.784z M15.813,24.826c0,0.405,0.107,0.737,0.323,0.996
			c0.215,0.254,0.496,0.386,0.84,0.386c0.334,0,0.609-0.129,0.824-0.386c0.214-0.254,0.321-0.566,0.321-0.938
			c0-0.386-0.111-0.708-0.331-0.972c-0.221-0.264-0.496-0.396-0.824-0.396c-0.332,0-0.607,0.127-0.825,0.386
			C15.921,24.162,15.813,24.47,15.813,24.826z"/>
		<path fill="#D5D6D6" d="M20.148,27.031c0-1.013,0.087-1.829,0.259-2.446s0.428-1.094,0.768-1.428
			c0.339-0.337,0.767-0.503,1.282-0.503c0.38,0,0.713,0.093,1,0.278c0.287,0.183,0.524,0.449,0.71,0.801
			c0.187,0.347,0.333,0.771,0.439,1.274c0.106,0.498,0.159,1.174,0.159,2.024c0,1.003-0.085,1.816-0.255,2.434
			c-0.171,0.618-0.426,1.094-0.767,1.431c-0.339,0.339-0.768,0.508-1.287,0.508c-0.682,0-1.218-0.298-1.608-0.889
			C20.382,29.802,20.148,28.64,20.148,27.031z M21.042,27.031c0,1.406,0.135,2.341,0.408,2.81c0.272,0.464,0.608,0.698,1.007,0.698
			s0.735-0.234,1.007-0.703s0.408-1.401,0.408-2.805c0-1.411-0.135-2.349-0.408-2.81c-0.272-0.464-0.61-0.698-1.017-0.698
			c-0.399,0-0.718,0.205-0.956,0.615C21.192,24.66,21.042,25.622,21.042,27.031z"/>
		<path fill="#D5D6D6" d="M29.315,27.897v-1.006l2.999-0.007v3.181c-0.461,0.444-0.936,0.776-1.426,1.001
			c-0.488,0.225-0.991,0.337-1.506,0.337c-0.695,0-1.327-0.181-1.895-0.542c-0.569-0.359-0.997-0.879-1.288-1.563
			c-0.289-0.684-0.435-1.445-0.435-2.285c0-0.835,0.144-1.611,0.432-2.336c0.288-0.723,0.703-1.26,1.244-1.609
			c0.541-0.352,1.163-0.527,1.869-0.527c0.511,0,0.974,0.1,1.388,0.303c0.414,0.2,0.739,0.479,0.973,0.837
			c0.236,0.359,0.414,0.828,0.536,1.404l-0.845,0.278c-0.106-0.435-0.238-0.776-0.396-1.028c-0.157-0.249-0.383-0.449-0.676-0.598
			c-0.293-0.151-0.618-0.225-0.975-0.225c-0.428,0-0.798,0.078-1.111,0.234c-0.313,0.159-0.564,0.366-0.756,0.625
			c-0.192,0.256-0.341,0.537-0.447,0.845c-0.181,0.532-0.271,1.106-0.271,1.726c0,0.764,0.109,1.404,0.326,1.917
			c0.217,0.515,0.535,0.898,0.95,1.147s0.856,0.374,1.323,0.374c0.405,0,0.801-0.095,1.188-0.286
			c0.386-0.186,0.679-0.391,0.879-0.603v-1.594H29.315z"/>
	</g>
</g>
</svg>
