<?xml version="1.0" encoding="utf-8"?>
<!-- Generator: Adobe Illustrator 18.0.0, SVG Export Plug-In . SVG Version: 6.00 Build 0)  -->
<!DOCTYPE svg PUBLIC "-//W3C//DTD SVG 1.1//EN" "http://www.w3.org/Graphics/SVG/1.1/DTD/svg11.dtd">
<svg version="1.1" id="图层_1" xmlns="http://www.w3.org/2000/svg" xmlns:xlink="http://www.w3.org/1999/xlink" x="0px" y="0px"
	 width="36px" height="36px" viewBox="0 0 36 36" enable-background="new 0 0 36 36" xml:space="preserve">
<g>
	<path fill="#FFFFFF" stroke="#C6C6C6" stroke-width="0.9976" stroke-miterlimit="10" d="M0.541,33.327V2.673
		c0-1.2,0.973-2.173,2.173-2.173h30.572c1.2,0,2.173,0.973,2.173,2.173v30.655c0,1.2-0.973,2.172-2.172,2.172H2.714
		C1.514,35.5,0.541,34.527,0.541,33.327z"/>
	<linearGradient id="SVGID_1_" gradientUnits="userSpaceOnUse" x1="18.0831" y1="33.8373" x2="18.0831" y2="1.9963">
		<stop  offset="0" style="stop-color:#00AEF9"/>
		<stop  offset="1" style="stop-color:#0092E1"/>
	</linearGradient>
	<path fill="url(#SVGID_1_)" d="M32.715,33.837H3.451c-0.735,0-1.33-0.596-1.33-1.33V3.327c0-0.735,0.596-1.33,1.33-1.33h29.264
		c0.735,0,1.33,0.596,1.33,1.33v29.181C34.045,33.242,33.45,33.837,32.715,33.837z"/>
	<g>
		<path fill="#FFFFFF" d="M13.248,30.836H8.058v-0.988h2.028v-6.874l-2.081,0.602v-1.052l3.221-0.935v8.26h2.022V30.836z"/>
		<path fill="#FFFFFF" d="M15.007,29.444c0.608,0.398,1.241,0.596,1.9,0.596c0.623,0,1.126-0.174,1.508-0.523
			c0.382-0.348,0.573-0.811,0.573-1.388c0-0.581-0.195-1.031-0.582-1.351c-0.388-0.319-0.95-0.479-1.686-0.479
			c-0.355,0-0.833,0.027-1.433,0.082v-4.6h4.455v1.011h-3.39v2.561c0.339-0.019,0.594-0.029,0.765-0.029
			c0.955,0,1.699,0.242,2.233,0.725c0.535,0.483,0.801,1.15,0.801,1.999c0,0.877-0.287,1.587-0.859,2.128
			c-0.573,0.542-1.364,0.812-2.374,0.812c-0.846,0-1.483-0.125-1.911-0.374V29.444z"/>
		<path fill="#FFFFFF" d="M22.028,29.444c0.608,0.398,1.241,0.596,1.9,0.596c0.623,0,1.126-0.174,1.508-0.523
			c0.382-0.348,0.573-0.811,0.573-1.388c0-0.581-0.195-1.031-0.582-1.351c-0.388-0.319-0.95-0.479-1.686-0.479
			c-0.355,0-0.833,0.027-1.433,0.082v-4.6h4.455v1.011h-3.39v2.561c0.339-0.019,0.594-0.029,0.765-0.029
			c0.955,0,1.699,0.242,2.233,0.725c0.535,0.483,0.801,1.15,0.801,1.999c0,0.877-0.287,1.587-0.859,2.128
			c-0.573,0.542-1.364,0.812-2.374,0.812c-0.846,0-1.483-0.125-1.911-0.374V29.444z"/>
	</g>
	<g opacity="0.9">
		<g>
			<polygon fill="#FFFFFF" points="10.757,11.124 8.578,8.856 10.757,6.589 			"/>
			<polygon fill="#FFFFFF" points="25.243,11.124 27.422,8.856 25.243,6.589 			"/>
			<rect x="10.209" y="8.348" fill="#FFFFFF" width="15.713" height="1.017"/>
		</g>
		<path fill="#FFFFFF" d="M18.184,5.178c2.028,0,3.679,1.65,3.679,3.679s-1.65,3.679-3.679,3.679s-3.679-1.65-3.679-3.679
			S16.155,5.178,18.184,5.178 M18.184,3.681c-2.858,0-5.175,2.317-5.175,5.175s2.317,5.175,5.175,5.175s5.175-2.317,5.175-5.175
			S21.042,3.681,18.184,3.681L18.184,3.681z"/>
		<rect x="17.186" y="13.926" fill="#FFFFFF" width="1.995" height="3.658"/>
		<rect x="15.742" y="15.589" fill="#FFFFFF" width="4.884" height="0.998"/>
	</g>
</g>
</svg>
