<?xml version="1.0" encoding="utf-8"?>
<!-- Generator: Adobe Illustrator 18.0.0, SVG Export Plug-In . SVG Version: 6.00 Build 0)  -->
<!DOCTYPE svg PUBLIC "-//W3C//DTD SVG 1.1//EN" "http://www.w3.org/Graphics/SVG/1.1/DTD/svg11.dtd">
<svg version="1.1" id="图层_1" xmlns="http://www.w3.org/2000/svg" xmlns:xlink="http://www.w3.org/1999/xlink" x="0px" y="0px"
	 width="36px" height="36px" viewBox="0 0 36 36" enable-background="new 0 0 36 36" xml:space="preserve">
<g>
	<path fill="#FFFFFF" stroke="#C6C6C6" stroke-width="0.9976" stroke-miterlimit="10" d="M0.541,33.327V2.673
		c0-1.2,0.973-2.173,2.173-2.173h30.572c1.2,0,2.173,0.973,2.173,2.173v30.655c0,1.2-0.973,2.172-2.172,2.172H2.714
		C1.514,35.5,0.541,34.527,0.541,33.327z"/>
	<linearGradient id="SVGID_1_" gradientUnits="userSpaceOnUse" x1="18.0831" y1="33.8373" x2="18.0831" y2="1.9963">
		<stop  offset="0" style="stop-color:#F1E821"/>
		<stop  offset="1" style="stop-color:#D6B900"/>
	</linearGradient>
	<path fill="url(#SVGID_1_)" d="M32.715,33.837H3.451c-0.735,0-1.33-0.596-1.33-1.33V3.327c0-0.735,0.596-1.33,1.33-1.33h29.264
		c0.735,0,1.33,0.596,1.33,1.33v29.181C34.045,33.242,33.45,33.837,32.715,33.837z"/>
	<g>
		<path fill="#A37C00" d="M13.247,30.835H8.056v-0.987h2.028v-6.875l-2.081,0.602v-1.052l3.221-0.935v8.26h2.023V30.835z"/>
		<path fill="#A37C00" d="M15.006,29.444c0.608,0.397,1.241,0.596,1.899,0.596c0.624,0,1.127-0.175,1.508-0.523
			c0.382-0.349,0.573-0.812,0.573-1.389c0-0.58-0.194-1.03-0.582-1.35c-0.388-0.319-0.95-0.479-1.687-0.479
			c-0.355,0-0.832,0.028-1.432,0.083v-4.601h4.454v1.011h-3.39v2.561c0.339-0.02,0.594-0.029,0.766-0.029
			c0.955,0,1.699,0.242,2.233,0.725c0.534,0.483,0.8,1.149,0.8,1.999c0,0.877-0.286,1.587-0.859,2.128
			c-0.573,0.542-1.364,0.813-2.373,0.813c-0.845,0-1.483-0.124-1.911-0.374V29.444z"/>
		<path fill="#A37C00" d="M22.027,29.444c0.608,0.397,1.241,0.596,1.899,0.596c0.624,0,1.127-0.175,1.508-0.523
			c0.382-0.349,0.573-0.812,0.573-1.389c0-0.58-0.194-1.03-0.582-1.35c-0.388-0.319-0.95-0.479-1.687-0.479
			c-0.355,0-0.832,0.028-1.432,0.083v-4.601h4.454v1.011h-3.39v2.561c0.339-0.02,0.594-0.029,0.766-0.029
			c0.955,0,1.699,0.242,2.233,0.725c0.534,0.483,0.8,1.149,0.8,1.999c0,0.877-0.286,1.587-0.859,2.128
			c-0.573,0.542-1.364,0.813-2.373,0.813c-0.845,0-1.483-0.124-1.911-0.374V29.444z"/>
	</g>
	<g>
		<g>
			<polygon fill="#A37C00" points="10.757,11.124 8.578,8.856 10.757,6.589 			"/>
			<polygon fill="#A37C00" points="25.243,11.124 27.422,8.856 25.243,6.589 			"/>
			<rect x="10.209" y="8.348" fill="#A37C00" width="15.713" height="1.017"/>
		</g>
		<path fill="#A37C00" d="M18.184,5.178c2.028,0,3.679,1.65,3.679,3.679s-1.65,3.679-3.679,3.679s-3.679-1.65-3.679-3.679
			S16.155,5.178,18.184,5.178 M18.184,3.681c-2.858,0-5.175,2.317-5.175,5.175s2.317,5.175,5.175,5.175s5.175-2.317,5.175-5.175
			S21.042,3.681,18.184,3.681L18.184,3.681z"/>
		<rect x="17.186" y="13.926" fill="#A37C00" width="1.995" height="3.658"/>
		<rect x="15.742" y="15.589" fill="#A37C00" width="4.884" height="0.998"/>
	</g>
</g>
</svg>
