<?xml version="1.0" encoding="utf-8"?>
<!-- Generator: Adobe Illustrator 18.0.0, SVG Export Plug-In . SVG Version: 6.00 Build 0)  -->
<!DOCTYPE svg PUBLIC "-//W3C//DTD SVG 1.1//EN" "http://www.w3.org/Graphics/SVG/1.1/DTD/svg11.dtd">
<svg version="1.1" id="图层_1" xmlns="http://www.w3.org/2000/svg" xmlns:xlink="http://www.w3.org/1999/xlink" x="0px" y="0px"
	 width="42px" height="42px" viewBox="0 0 42 42" enable-background="new 0 0 42 42" xml:space="preserve">
<g>
	<path fill="none" stroke="#C6C6C6" stroke-width="1.1401" stroke-miterlimit="10" d="M1.047,38.517V3.483
		C1.047,2.112,2.159,1,3.531,1h34.939c1.371,0,2.483,1.112,2.483,2.483v35.034c0,1.371-1.111,2.483-2.483,2.483H3.531
		C2.159,41,1.047,39.888,1.047,38.517z"/>
	<linearGradient id="SVGID_1_" gradientUnits="userSpaceOnUse" x1="21.095" y1="39.0998" x2="21.095" y2="2.7101">
		<stop  offset="0" style="stop-color:#2CA539"/>
		<stop  offset="1" style="stop-color:#009117"/>
	</linearGradient>
	<path fill="url(#SVGID_1_)" d="M37.817,39.1H4.373c-0.84,0-1.52-0.681-1.52-1.52V4.23c0-0.84,0.681-1.52,1.52-1.52h33.444
		c0.84,0,1.52,0.681,1.52,1.52V37.58C39.337,38.419,38.657,39.1,37.817,39.1z"/>
	<g>
		<path fill="#FFFFFF" d="M5.438,28.177v-0.975c0.383-0.134,0.71-0.299,0.983-0.494c0.271-0.197,0.497-0.428,0.675-0.696h0.995
			v9.661H6.614v-7.495H5.438z"/>
		<path fill="#FFFFFF" d="M14.11,33.233c0,0.842-0.195,1.494-0.587,1.954c-0.392,0.461-0.945,0.692-1.658,0.692
			c-0.721,0-1.271-0.229-1.649-0.688s-0.568-1.124-0.568-1.997v-4.951c0-0.762,0.201-1.357,0.604-1.79s0.958-0.648,1.666-0.648
			c0.669,0,1.2,0.223,1.597,0.671c0.397,0.447,0.594,1.05,0.594,1.807v0.3h-1.462v-0.627c0-0.227-0.072-0.411-0.214-0.554
			c-0.143-0.143-0.327-0.214-0.555-0.214c-0.222,0-0.406,0.07-0.551,0.21c-0.145,0.14-0.217,0.322-0.217,0.544v2.378
			c0.187-0.195,0.399-0.347,0.635-0.454c0.236-0.106,0.481-0.16,0.735-0.16c0.516,0,0.918,0.164,1.202,0.491
			c0.286,0.327,0.427,0.79,0.427,1.387V33.233z M11.111,31.61v1.997c0,0.272,0.073,0.49,0.221,0.654
			c0.146,0.165,0.338,0.248,0.574,0.248c0.227,0,0.408-0.081,0.542-0.24c0.133-0.161,0.2-0.381,0.2-0.662V31.73
			c0-0.236-0.059-0.42-0.173-0.551C12.359,31.048,12.2,30.982,12,30.982c-0.165,0-0.323,0.055-0.477,0.164
			C11.369,31.255,11.232,31.409,11.111,31.61z"/>
		<path fill="#FFFFFF" d="M15.16,28.242c0-0.762,0.199-1.357,0.598-1.79c0.398-0.432,0.951-0.648,1.659-0.648
			c0.673,0,1.206,0.222,1.6,0.668s0.592,1.049,0.592,1.81v4.95c0,0.847-0.194,1.499-0.582,1.958
			c-0.387,0.459-0.938,0.688-1.649,0.688c-0.721,0-1.272-0.229-1.65-0.688s-0.568-1.124-0.568-1.997V28.242z M16.543,33.607
			c0,0.272,0.074,0.49,0.226,0.654s0.352,0.248,0.603,0.248c0.237,0,0.425-0.081,0.564-0.24c0.14-0.161,0.212-0.381,0.216-0.662
			v-5.652c0-0.227-0.073-0.411-0.222-0.554s-0.344-0.214-0.586-0.214c-0.232,0-0.424,0.071-0.575,0.214s-0.226,0.322-0.226,0.541
			V33.607z"/>
	</g>
	<g>
		<g>
			<path fill="#FFFFFF" d="M21.468,27.89l2.555,2.555l2.568-2.555l0.652,0.652l-2.556,2.566l2.556,2.55l-0.652,0.663l-2.568-2.567
				l-2.555,2.567l-0.646-0.663l2.55-2.55l-2.55-2.566L21.468,27.89z"/>
		</g>
	</g>
	<g>
		<path fill="#FFFFFF" d="M27.597,27.594v-0.975c0.383-0.134,0.71-0.299,0.981-0.494c0.271-0.197,0.496-0.428,0.674-0.696h0.996
			v9.661h-1.477v-7.495H27.597z"/>
		<path fill="#FFFFFF" d="M31.764,27.66c0-0.762,0.198-1.357,0.598-1.79c0.398-0.432,0.952-0.648,1.66-0.648
			c0.671,0,1.206,0.222,1.599,0.668c0.396,0.446,0.591,1.049,0.591,1.81v4.95c0,0.847-0.193,1.499-0.581,1.958
			s-0.938,0.688-1.65,0.688c-0.72,0-1.272-0.229-1.65-0.688s-0.566-1.124-0.566-1.997V27.66z M33.146,33.025
			c0,0.272,0.076,0.49,0.227,0.654s0.352,0.248,0.603,0.248c0.237,0,0.425-0.081,0.564-0.24c0.139-0.161,0.212-0.381,0.217-0.662
			v-5.652c0-0.227-0.076-0.411-0.225-0.554s-0.342-0.214-0.583-0.214c-0.234,0-0.425,0.071-0.576,0.214s-0.227,0.322-0.227,0.541
			V33.025z"/>
	</g>
	<g>
		<polygon fill="#FFFFFF" points="29.98,5.295 33.472,8.179 33.472,16.228 29.98,19.112 		"/>
		<polygon fill="#FFFFFF" points="12.02,19.112 8.528,16.228 8.528,8.179 12.02,5.295 		"/>
		<g>
			<polygon fill="#FFFFFF" points="16.713,19.016 14.222,16.425 16.713,13.834 			"/>
			<polygon fill="#FFFFFF" points="25.287,19.016 27.778,16.425 25.287,13.834 			"/>
			<rect x="16.086" y="15.345" fill="#FFFFFF" width="10.167" height="2.16"/>
		</g>
		<g>
			<polygon fill="#FFFFFF" points="16.713,11.052 14.222,8.461 16.713,5.87 			"/>
			<polygon fill="#FFFFFF" points="25.287,11.052 27.778,8.461 25.287,5.87 			"/>
			<rect x="16.086" y="7.381" fill="#FFFFFF" width="10.167" height="2.16"/>
		</g>
	</g>
</g>
</svg>
