<?xml version="1.0" encoding="utf-8"?>
<!-- Generator: Adobe Illustrator 18.0.0, SVG Export Plug-In . SVG Version: 6.00 Build 0)  -->
<!DOCTYPE svg PUBLIC "-//W3C//DTD SVG 1.1//EN" "http://www.w3.org/Graphics/SVG/1.1/DTD/svg11.dtd">
<svg version="1.1" id="图层_1" xmlns="http://www.w3.org/2000/svg" xmlns:xlink="http://www.w3.org/1999/xlink" x="0px" y="0px"
	 width="42px" height="42px" viewBox="0 0 42 42" enable-background="new 0 0 42 42" xml:space="preserve">
<g>
	<path fill="none" stroke="#C6C6C6" stroke-width="1.1401" stroke-miterlimit="10" d="M1.047,38.517V3.483
		C1.047,2.112,2.159,1,3.531,1h34.939c1.371,0,2.483,1.112,2.483,2.483v35.034c0,1.371-1.111,2.483-2.483,2.483H3.531
		C2.159,41,1.047,39.888,1.047,38.517z"/>
	<linearGradient id="SVGID_1_" gradientUnits="userSpaceOnUse" x1="21.095" y1="39.0998" x2="21.095" y2="2.7101">
		<stop  offset="0" style="stop-color:#F1E821"/>
		<stop  offset="1" style="stop-color:#D6B900"/>
	</linearGradient>
	<path fill="url(#SVGID_1_)" d="M37.817,39.1H4.373c-0.84,0-1.52-0.681-1.52-1.52V4.23c0-0.84,0.681-1.52,1.52-1.52h33.444
		c0.84,0,1.52,0.681,1.52,1.52V37.58C39.337,38.419,38.657,39.1,37.817,39.1z"/>
	<g>
		<polygon fill="#A37C00" points="29.98,5.295 33.472,8.179 33.472,16.228 29.98,19.112 		"/>
		<polygon fill="#A37C00" points="12.02,19.112 8.528,16.228 8.528,8.179 12.02,5.295 		"/>
		<g>
			<polygon fill="#A37C00" points="16.713,19.016 14.222,16.425 16.713,13.834 			"/>
			<polygon fill="#A37C00" points="25.287,19.016 27.778,16.425 25.287,13.834 			"/>
			<rect x="16.086" y="15.345" fill="#A37C00" width="10.167" height="2.16"/>
		</g>
		<g>
			<polygon fill="#A37C00" points="16.713,11.052 14.222,8.461 16.713,5.87 			"/>
			<polygon fill="#A37C00" points="25.287,11.052 27.778,8.461 25.287,5.87 			"/>
			<rect x="16.086" y="7.381" fill="#A37C00" width="10.167" height="2.16"/>
		</g>
	</g>
	<g>
		<path fill="#A37C00" d="M4.479,28.175v-0.977c0.383-0.132,0.71-0.298,0.983-0.493c0.271-0.195,0.497-0.427,0.675-0.696h0.995
			v9.661H5.655v-7.495H4.479z"/>
		<path fill="#A37C00" d="M13.151,33.231c0,0.842-0.195,1.494-0.587,1.956c-0.392,0.459-0.945,0.691-1.658,0.691
			c-0.721,0-1.271-0.229-1.649-0.688s-0.568-1.125-0.568-1.997v-4.951c0-0.762,0.201-1.357,0.604-1.79s0.958-0.649,1.666-0.649
			c0.669,0,1.2,0.225,1.597,0.671c0.397,0.449,0.594,1.05,0.594,1.809v0.3h-1.462v-0.627c0-0.229-0.072-0.413-0.214-0.557
			c-0.143-0.142-0.327-0.212-0.555-0.212c-0.222,0-0.406,0.071-0.551,0.21c-0.145,0.139-0.217,0.322-0.217,0.544v2.378
			c0.187-0.195,0.399-0.347,0.635-0.454s0.481-0.161,0.735-0.161c0.516,0,0.918,0.164,1.202,0.493
			c0.286,0.327,0.427,0.789,0.427,1.384V33.231z M10.152,31.608v1.997c0,0.273,0.073,0.491,0.221,0.657
			c0.146,0.164,0.338,0.247,0.574,0.247c0.227,0,0.408-0.081,0.542-0.242c0.133-0.159,0.2-0.381,0.2-0.662V31.73
			c0-0.237-0.059-0.42-0.173-0.552c-0.116-0.132-0.275-0.198-0.475-0.198c-0.165,0-0.323,0.054-0.477,0.164
			S10.272,31.408,10.152,31.608z"/>
		<path fill="#A37C00" d="M14.201,28.241c0-0.762,0.199-1.357,0.598-1.79c0.398-0.432,0.951-0.649,1.659-0.649
			c0.673,0,1.206,0.225,1.6,0.669s0.592,1.05,0.592,1.812v4.949c0,0.847-0.194,1.499-0.582,1.958
			c-0.387,0.459-0.938,0.688-1.649,0.688c-0.721,0-1.272-0.229-1.65-0.688s-0.568-1.125-0.568-1.997V28.241z M15.584,33.605
			c0,0.273,0.074,0.491,0.226,0.657c0.151,0.164,0.352,0.247,0.603,0.247c0.237,0,0.425-0.081,0.564-0.242
			c0.14-0.159,0.212-0.381,0.216-0.662v-5.649c0-0.229-0.073-0.413-0.222-0.557c-0.149-0.142-0.344-0.212-0.586-0.212
			c-0.232,0-0.424,0.071-0.575,0.212c-0.151,0.144-0.226,0.325-0.226,0.542V33.605z"/>
	</g>
	<g>
		<g>
			<path fill="#A37C00" d="M20.509,27.89l2.555,2.556l2.567-2.556l0.651,0.652l-2.555,2.566l2.555,2.549l-0.651,0.664l-2.567-2.566
				l-2.555,2.566l-0.646-0.664l2.55-2.549l-2.55-2.566L20.509,27.89z"/>
		</g>
	</g>
	<g>
		<path fill="#A37C00" d="M26.635,27.594v-0.977c0.383-0.132,0.71-0.298,0.983-0.493c0.271-0.195,0.497-0.427,0.675-0.696h0.995
			v9.661H27.81v-7.495H26.635z"/>
		<path fill="#A37C00" d="M30.805,27.66c0-0.762,0.199-1.357,0.598-1.79c0.398-0.432,0.951-0.649,1.659-0.649
			c0.673,0,1.206,0.225,1.6,0.669s0.592,1.05,0.592,1.812v4.949c0,0.847-0.194,1.499-0.582,1.958
			c-0.387,0.459-0.938,0.688-1.649,0.688c-0.721,0-1.272-0.229-1.65-0.688s-0.568-1.125-0.568-1.997V27.66z M32.188,33.024
			c0,0.273,0.074,0.491,0.226,0.657c0.151,0.164,0.352,0.247,0.603,0.247c0.237,0,0.425-0.081,0.564-0.242
			c0.14-0.159,0.212-0.381,0.216-0.662v-5.649c0-0.229-0.073-0.413-0.222-0.557c-0.149-0.142-0.344-0.212-0.586-0.212
			c-0.232,0-0.424,0.071-0.575,0.212c-0.151,0.144-0.226,0.325-0.226,0.542V33.024z"/>
	</g>
</g>
</svg>
