<?xml version="1.0" encoding="utf-8"?>
<!-- Generator: Adobe Illustrator 18.0.0, SVG Export Plug-In . SVG Version: 6.00 Build 0)  -->
<!DOCTYPE svg PUBLIC "-//W3C//DTD SVG 1.1//EN" "http://www.w3.org/Graphics/SVG/1.1/DTD/svg11.dtd">
<svg version="1.1" id="图层_1" xmlns="http://www.w3.org/2000/svg" xmlns:xlink="http://www.w3.org/1999/xlink" x="0px" y="0px"
	 width="42px" height="42px" viewBox="0 0 42 42" enable-background="new 0 0 42 42" xml:space="preserve">
<g>
	<path fill="none" stroke="#C6C6C6" stroke-width="1.1401" stroke-miterlimit="10" d="M1.047,38.517V3.483
		C1.047,2.112,2.159,1,3.531,1h34.939c1.371,0,2.483,1.112,2.483,2.483v35.034c0,1.371-1.111,2.483-2.483,2.483H3.531
		C2.159,41,1.047,39.888,1.047,38.517z"/>
	<linearGradient id="SVGID_1_" gradientUnits="userSpaceOnUse" x1="21.095" y1="39.0998" x2="21.095" y2="2.7101">
		<stop  offset="0" style="stop-color:#FF7F01"/>
		<stop  offset="1" style="stop-color:#F05800"/>
	</linearGradient>
	<path fill="url(#SVGID_1_)" d="M37.817,39.1H4.373c-0.84,0-1.52-0.681-1.52-1.52V4.23c0-0.84,0.681-1.52,1.52-1.52h33.444
		c0.84,0,1.52,0.681,1.52,1.52V37.58C39.337,38.419,38.657,39.1,37.817,39.1z"/>
	<g>
		<polygon fill="#FFFFFF" points="29.98,5.295 33.472,8.179 33.472,16.228 29.98,19.112 		"/>
		<polygon fill="#FFFFFF" points="12.02,19.112 8.528,16.228 8.528,8.179 12.02,5.295 		"/>
		<g>
			<polygon fill="#FFFFFF" points="16.713,19.016 14.222,16.425 16.713,13.834 			"/>
			<polygon fill="#FFFFFF" points="25.287,19.016 27.778,16.425 25.287,13.834 			"/>
			<rect x="16.086" y="15.345" fill="#FFFFFF" width="10.167" height="2.16"/>
		</g>
		<g>
			<polygon fill="#FFFFFF" points="16.713,11.052 14.222,8.461 16.713,5.87 			"/>
			<polygon fill="#FFFFFF" points="25.287,11.052 27.778,8.461 25.287,5.87 			"/>
			<rect x="16.086" y="7.381" fill="#FFFFFF" width="10.167" height="2.16"/>
		</g>
	</g>
	<g>
		<path fill="#FFFFFF" d="M4.515,28.158v-0.972c0.382-0.134,0.709-0.298,0.98-0.493C5.767,26.496,5.991,26.266,6.168,26h0.994v9.636
			H5.689v-7.478H4.515z"/>
		<path fill="#FFFFFF" d="M13.167,33.205c0,0.84-0.195,1.489-0.586,1.948s-0.942,0.691-1.653,0.691c-0.72,0-1.268-0.229-1.647-0.688
			c-0.377-0.457-0.566-1.121-0.566-1.992v-4.939c0-0.759,0.201-1.355,0.603-1.785c0.403-0.432,0.957-0.647,1.664-0.647
			c0.667,0,1.198,0.222,1.593,0.669c0.394,0.447,0.592,1.047,0.592,1.804v0.3h-1.459v-0.627c0-0.227-0.071-0.41-0.214-0.554
			c-0.142-0.142-0.326-0.212-0.553-0.212c-0.222,0-0.405,0.071-0.549,0.21c-0.145,0.139-0.217,0.322-0.217,0.544v2.371
			c0.187-0.195,0.398-0.347,0.634-0.452c0.236-0.107,0.48-0.161,0.732-0.161c0.515,0,0.916,0.164,1.2,0.491s0.426,0.786,0.426,1.382
			V33.205z M10.175,31.583v1.992c0,0.271,0.073,0.491,0.22,0.654s0.338,0.247,0.574,0.247c0.226,0,0.406-0.081,0.54-0.239
			c0.133-0.161,0.2-0.381,0.2-0.662v-1.873c0-0.234-0.059-0.417-0.173-0.549c-0.116-0.129-0.273-0.195-0.474-0.195
			c-0.164,0-0.323,0.054-0.476,0.164C10.431,31.229,10.294,31.383,10.175,31.583z"/>
		<path fill="#FFFFFF" d="M14.214,28.224c0-0.759,0.198-1.355,0.596-1.785c0.398-0.432,0.95-0.647,1.656-0.647
			c0.671,0,1.202,0.222,1.597,0.667c0.393,0.444,0.59,1.047,0.59,1.807v4.939c0,0.842-0.194,1.494-0.58,1.951
			c-0.387,0.459-0.935,0.688-1.647,0.688c-0.719,0-1.268-0.229-1.646-0.688c-0.378-0.457-0.566-1.121-0.566-1.992V28.224z
			 M15.593,33.576c0,0.271,0.074,0.491,0.226,0.654c0.15,0.164,0.352,0.247,0.602,0.247c0.236,0,0.424-0.081,0.563-0.239
			c0.139-0.161,0.211-0.381,0.216-0.662v-5.637c0-0.227-0.074-0.41-0.223-0.554c-0.148-0.142-0.343-0.212-0.583-0.212
			c-0.232,0-0.424,0.071-0.574,0.212c-0.151,0.144-0.226,0.322-0.226,0.542V33.576z"/>
	</g>
	<g>
		<g>
			<path fill="#FFFFFF" d="M20.521,27.873l2.549,2.551l2.559-2.551l0.652,0.652l-2.549,2.559l2.549,2.544l-0.652,0.662l-2.559-2.561
				l-2.549,2.561l-0.645-0.662l2.544-2.544l-2.544-2.559L20.521,27.873z"/>
		</g>
	</g>
	<g>
		<path fill="#FFFFFF" d="M26.627,27.58v-0.972c0.381-0.134,0.708-0.298,0.979-0.493c0.271-0.198,0.496-0.427,0.674-0.693h0.991
			v9.636h-1.472V27.58H26.627z"/>
		<path fill="#FFFFFF" d="M30.785,27.646c0-0.759,0.2-1.355,0.598-1.785c0.396-0.432,0.95-0.647,1.655-0.647
			c0.671,0,1.204,0.222,1.597,0.667s0.588,1.047,0.588,1.807v4.939c0,0.842-0.193,1.494-0.579,1.951
			c-0.386,0.459-0.935,0.688-1.646,0.688c-0.72,0-1.27-0.229-1.648-0.688c-0.376-0.457-0.566-1.121-0.566-1.992V27.646z
			 M32.164,32.997c0,0.271,0.076,0.491,0.227,0.654s0.352,0.247,0.601,0.247c0.237,0,0.425-0.081,0.564-0.239
			c0.139-0.161,0.21-0.381,0.215-0.662V27.36c0-0.227-0.073-0.41-0.222-0.554c-0.149-0.142-0.342-0.212-0.583-0.212
			c-0.232,0-0.422,0.071-0.574,0.212c-0.151,0.144-0.227,0.322-0.227,0.542V32.997z"/>
	</g>
</g>
</svg>
