<?xml version="1.0" encoding="utf-8"?>
<!-- Generator: Adobe Illustrator 18.0.0, SVG Export Plug-In . SVG Version: 6.00 Build 0)  -->
<!DOCTYPE svg PUBLIC "-//W3C//DTD SVG 1.1//EN" "http://www.w3.org/Graphics/SVG/1.1/DTD/svg11.dtd">
<svg version="1.1" id="图层_1" xmlns="http://www.w3.org/2000/svg" xmlns:xlink="http://www.w3.org/1999/xlink" x="0px" y="0px"
	 width="36px" height="36px" viewBox="0 0 36 36" enable-background="new 0 0 36 36" xml:space="preserve">
<g>
	<g>
		<path fill="#FFFFFF" stroke="#C6C6C6" stroke-width="1.0261" stroke-miterlimit="10" d="M0,34.11V2.58
			c0-1.234,1.001-2.235,2.235-2.235H33.68c1.234,0,2.235,1.001,2.235,2.235v31.531c0,1.234-1,2.234-2.234,2.234H2.235
			C1.001,36.345,0,35.344,0,34.11z"/>
		<path fill="#CDCDCD" d="M33.093,34.635h-30.1c-0.756,0-1.368-0.613-1.368-1.368V3.252c0-0.756,0.613-1.368,1.368-1.368h30.1
			c0.756,0,1.368,0.613,1.368,1.368v30.014C34.461,34.022,33.848,34.635,33.093,34.635z"/>
		<g>
			<polygon fill="#FFFFFF" points="26.04,4.211 29.182,6.806 29.182,14.05 26.04,16.645 			"/>
			<polygon fill="#FFFFFF" points="9.875,16.645 6.732,14.05 6.732,6.806 9.875,4.211 			"/>
			<g>
				<polygon fill="#FFFFFF" points="14.099,16.56 11.857,14.228 14.099,11.895 				"/>
				<polygon fill="#FFFFFF" points="21.816,16.56 24.057,14.228 21.816,11.895 				"/>
				<rect x="13.535" y="13.255" fill="#FFFFFF" width="9.15" height="1.944"/>
			</g>
			<g>
				<polygon fill="#FFFFFF" points="14.099,9.392 11.857,7.06 14.099,4.728 				"/>
				<polygon fill="#FFFFFF" points="21.816,9.392 24.057,7.06 21.816,4.728 				"/>
				<rect x="13.535" y="6.088" fill="#FFFFFF" width="9.15" height="1.944"/>
			</g>
		</g>
		<g>
			<path fill="#FFFFFF" d="M4.337,24.802v-0.878c0.345-0.121,0.639-0.269,0.884-0.444c0.245-0.177,0.447-0.385,0.608-0.625h0.895
				v8.694H5.395v-6.746H4.337z"/>
			<path fill="#FFFFFF" d="M12.141,29.354c0,0.758-0.177,1.343-0.53,1.759c-0.353,0.414-0.849,0.622-1.49,0.622
				c-0.649,0-1.145-0.206-1.485-0.619s-0.511-1.012-0.511-1.798v-4.455c0-0.686,0.181-1.223,0.544-1.611
				c0.363-0.389,0.864-0.584,1.5-0.584c0.601,0,1.08,0.202,1.438,0.604c0.357,0.403,0.535,0.945,0.535,1.627v0.27h-1.317v-0.565
				c0-0.205-0.064-0.37-0.192-0.498c-0.128-0.128-0.295-0.193-0.5-0.193c-0.2,0-0.365,0.064-0.496,0.19
				c-0.129,0.127-0.195,0.29-0.195,0.491v2.14c0.168-0.176,0.358-0.313,0.571-0.408c0.212-0.097,0.432-0.144,0.66-0.144
				c0.466,0,0.826,0.147,1.082,0.442c0.257,0.294,0.385,0.711,0.385,1.247V29.354z M9.442,27.894v1.797
				c0,0.245,0.065,0.442,0.198,0.59c0.132,0.148,0.304,0.222,0.517,0.222c0.203,0,0.367-0.073,0.486-0.217
				c0.121-0.144,0.181-0.343,0.181-0.595v-1.689c0-0.212-0.051-0.378-0.156-0.496s-0.247-0.178-0.427-0.178
				c-0.149,0-0.293,0.05-0.431,0.148S9.55,27.713,9.442,27.894z"/>
		</g>
		<g>
			<g>
				<path fill="#FFFFFF" d="M14.265,24.545l2.3,2.3l2.309-2.3l0.586,0.586l-2.299,2.31l2.299,2.294l-0.586,0.596l-2.309-2.309
					l-2.3,2.309l-0.581-0.596l2.295-2.294l-2.295-2.31L14.265,24.545z"/>
			</g>
		</g>
		<g>
			<path fill="#FFFFFF" d="M19.882,31.025v-1.257c0.922-1.271,1.608-2.35,2.059-3.241c0.451-0.89,0.677-1.607,0.677-2.152
				c0-0.325-0.054-0.58-0.162-0.767c-0.109-0.186-0.255-0.279-0.439-0.279c-0.245,0-0.421,0.089-0.529,0.27
				c-0.109,0.181-0.167,0.491-0.175,0.932l-0.013,0.325h-1.305v-0.162c0-0.806,0.177-1.43,0.532-1.873
				c0.354-0.443,0.855-0.664,1.5-0.664c0.556,0,1.002,0.187,1.335,0.563c0.333,0.374,0.498,0.883,0.498,1.523
				c0,0.63-0.17,1.328-0.507,2.096c-0.339,0.768-1.016,1.911-2.03,3.43h2.43v1.257H19.882z"/>
			<path fill="#FFFFFF" d="M25.071,31.025V29.66h1.281v1.365H25.071z"/>
			<path fill="#FFFFFF" d="M27.53,28.602h1.197v0.439c0,0.329,0.058,0.575,0.175,0.74c0.117,0.164,0.29,0.246,0.524,0.246
				c0.196,0,0.348-0.074,0.457-0.222c0.108-0.148,0.162-0.36,0.162-0.638v-2.219c0-0.249-0.045-0.429-0.136-0.544
				s-0.234-0.172-0.429-0.172c-0.173,0-0.321,0.06-0.448,0.181c-0.127,0.121-0.223,0.295-0.291,0.524l-1.101-0.049l0.151-4.556
				h3.277l0.048,1.256h-2.266l-0.108,2.045c0.192-0.188,0.389-0.33,0.591-0.424c0.203-0.094,0.407-0.142,0.61-0.142
				c0.422,0,0.747,0.159,0.978,0.476c0.23,0.316,0.345,0.77,0.345,1.359v2.206c0,0.65-0.172,1.163-0.517,1.539
				c-0.344,0.377-0.814,0.565-1.406,0.565c-0.594,0-1.043-0.198-1.35-0.598c-0.308-0.399-0.461-0.983-0.461-1.753V28.602z"/>
		</g>
	</g>
</g>
</svg>
