<?xml version="1.0" encoding="utf-8"?>
<!-- Generator: Adobe Illustrator 18.0.0, SVG Export Plug-In . SVG Version: 6.00 Build 0)  -->
<!DOCTYPE svg PUBLIC "-//W3C//DTD SVG 1.1//EN" "http://www.w3.org/Graphics/SVG/1.1/DTD/svg11.dtd">
<svg version="1.1" id="图层_1" xmlns="http://www.w3.org/2000/svg" xmlns:xlink="http://www.w3.org/1999/xlink" x="0px" y="0px"
	 width="36px" height="36px" viewBox="0 0 36 36" enable-background="new 0 0 36 36" xml:space="preserve">
<g>
	<g>
		<path fill="#FFFFFF" stroke="#C6C6C6" stroke-width="1.0261" stroke-miterlimit="10" d="M-0.017,34.125V2.565
			c0-1.235,1.001-2.237,2.237-2.237h31.474c1.235,0,2.237,1.001,2.237,2.237v31.56c0,1.235-1.001,2.236-2.236,2.236H2.22
			C0.985,36.362-0.017,35.36-0.017,34.125z"/>
		<linearGradient id="SVGID_1_" gradientUnits="userSpaceOnUse" x1="18.0429" y1="34.6499" x2="18.0429" y2="1.8689">
			<stop  offset="0" style="stop-color:#FF7F01"/>
			<stop  offset="1" style="stop-color:#F05800"/>
		</linearGradient>
		<path fill="url(#SVGID_1_)" d="M33.107,34.65H2.979c-0.756,0-1.369-0.613-1.369-1.369V3.238c0-0.756,0.613-1.369,1.369-1.369
			h30.128c0.756,0,1.369,0.613,1.369,1.369V33.28C34.476,34.037,33.863,34.65,33.107,34.65z"/>
		<g>
			<polygon fill="#FFFFFF" points="26.047,4.197 29.193,6.795 29.193,14.046 26.047,16.644 			"/>
			<polygon fill="#FFFFFF" points="9.867,16.644 6.722,14.046 6.722,6.795 9.867,4.197 			"/>
			<g>
				<polygon fill="#FFFFFF" points="14.095,16.558 11.852,14.224 14.095,11.889 				"/>
				<polygon fill="#FFFFFF" points="21.819,16.558 24.063,14.224 21.819,11.889 				"/>
				<rect x="13.531" y="13.251" fill="#FFFFFF" width="9.158" height="1.946"/>
			</g>
			<g>
				<polygon fill="#FFFFFF" points="14.095,9.384 11.852,7.05 14.095,4.715 				"/>
				<polygon fill="#FFFFFF" points="21.819,9.384 24.063,7.05 21.819,4.715 				"/>
				<rect x="13.531" y="6.077" fill="#FFFFFF" width="9.158" height="1.946"/>
			</g>
		</g>
		<g>
			<path fill="#FFFFFF" d="M4.357,24.792v-0.875c0.345-0.12,0.638-0.268,0.883-0.444c0.244-0.178,0.446-0.386,0.607-0.624H6.74
				v8.681H5.413v-6.738H4.357z"/>
			<path fill="#FFFFFF" d="M12.15,29.338c0,0.757-0.177,1.342-0.529,1.755c-0.352,0.414-0.848,0.622-1.488,0.622
				c-0.648,0-1.143-0.206-1.483-0.619c-0.34-0.411-0.51-1.011-0.51-1.795v-4.448c0-0.685,0.181-1.221,0.543-1.607
				c0.362-0.389,0.863-0.584,1.498-0.584c0.601,0,1.078,0.203,1.436,0.604c0.356,0.401,0.534,0.943,0.534,1.625v0.268h-1.315v-0.564
				c0-0.203-0.064-0.369-0.192-0.496s-0.295-0.193-0.499-0.193c-0.199,0-0.365,0.063-0.495,0.188
				c-0.129,0.128-0.194,0.291-0.194,0.491v2.136c0.168-0.176,0.357-0.313,0.57-0.409c0.212-0.095,0.431-0.143,0.659-0.143
				c0.465,0,0.825,0.145,1.081,0.441c0.257,0.293,0.385,0.71,0.385,1.244V29.338z M9.454,27.879v1.795
				c0,0.243,0.065,0.441,0.198,0.589c0.132,0.148,0.303,0.221,0.517,0.221c0.203,0,0.366-0.073,0.485-0.216
				c0.12-0.145,0.181-0.344,0.181-0.594v-1.688c0-0.211-0.051-0.376-0.155-0.494s-0.247-0.178-0.426-0.178
				c-0.149,0-0.292,0.05-0.43,0.148S9.562,27.698,9.454,27.879z"/>
		</g>
		<g>
			<g>
				<path fill="#FFFFFF" d="M14.269,24.536l2.297,2.297l2.306-2.297l0.586,0.587l-2.296,2.307l2.296,2.289l-0.586,0.597
					l-2.306-2.307l-2.297,2.307l-0.58-0.597l2.292-2.289l-2.292-2.307L14.269,24.536z"/>
			</g>
		</g>
		<g>
			<path fill="#FFFFFF" d="M19.879,31.008v-1.256c0.919-1.269,1.606-2.347,2.055-3.235c0.451-0.89,0.677-1.605,0.677-2.149
				c0-0.326-0.055-0.579-0.163-0.767c-0.108-0.186-0.253-0.278-0.439-0.278c-0.243,0-0.419,0.09-0.527,0.271
				c-0.11,0.181-0.168,0.489-0.176,0.93l-0.013,0.323h-1.301v-0.16c0-0.805,0.177-1.429,0.532-1.871
				c0.354-0.444,0.853-0.664,1.497-0.664c0.557,0,1.001,0.188,1.334,0.562c0.331,0.374,0.496,0.883,0.496,1.522
				c0,0.629-0.168,1.326-0.507,2.091c-0.339,0.767-1.013,1.908-2.026,3.425h2.425v1.256H19.879z"/>
			<path fill="#FFFFFF" d="M25.061,31.008v-1.364h1.279v1.364H25.061z"/>
			<path fill="#FFFFFF" d="M27.516,28.588h1.194v0.439c0,0.328,0.058,0.574,0.176,0.737C29,29.93,29.173,30.01,29.407,30.01
				c0.196,0,0.349-0.073,0.456-0.221c0.108-0.148,0.163-0.361,0.163-0.637v-2.217c0-0.248-0.045-0.429-0.135-0.542
				c-0.09-0.115-0.233-0.173-0.429-0.173c-0.173,0-0.321,0.06-0.449,0.181c-0.125,0.12-0.223,0.296-0.291,0.524l-1.098-0.05
				l0.15-4.549h3.272l0.048,1.254H28.83l-0.108,2.041c0.193-0.188,0.389-0.328,0.592-0.424c0.203-0.093,0.406-0.14,0.609-0.14
				c0.421,0,0.745,0.158,0.975,0.474c0.231,0.316,0.346,0.77,0.346,1.357v2.204c0,0.649-0.173,1.161-0.517,1.537
				c-0.344,0.376-0.812,0.564-1.404,0.564c-0.594,0-1.043-0.198-1.349-0.597s-0.459-0.983-0.459-1.75V28.588z"/>
		</g>
	</g>
</g>
</svg>
