<?xml version="1.0" encoding="utf-8"?>
<!-- Generator: Adobe Illustrator 18.0.0, SVG Export Plug-In . SVG Version: 6.00 Build 0)  -->
<!DOCTYPE svg PUBLIC "-//W3C//DTD SVG 1.1//EN" "http://www.w3.org/Graphics/SVG/1.1/DTD/svg11.dtd">
<svg version="1.1" id="图层_1" xmlns="http://www.w3.org/2000/svg" xmlns:xlink="http://www.w3.org/1999/xlink" x="0px" y="0px"
	 width="36px" height="36px" viewBox="0 0 36 36" enable-background="new 0 0 36 36" xml:space="preserve">
<g>
	<path fill="#FFFFFF" stroke="#C6C6C6" stroke-width="0.9976" stroke-miterlimit="10" d="M0.541,33.327V2.673
		c0-1.2,0.973-2.173,2.173-2.173h30.572c1.2,0,2.173,0.973,2.173,2.173v30.655c0,1.2-0.973,2.172-2.172,2.172H2.714
		C1.514,35.5,0.541,34.527,0.541,33.327z"/>
	<linearGradient id="SVGID_1_" gradientUnits="userSpaceOnUse" x1="18.0831" y1="33.8373" x2="18.0831" y2="1.9963">
		<stop  offset="0" style="stop-color:#00AEF9"/>
		<stop  offset="1" style="stop-color:#0092E1"/>
	</linearGradient>
	<path fill="url(#SVGID_1_)" d="M32.715,33.837H3.451c-0.735,0-1.33-0.596-1.33-1.33V3.327c0-0.735,0.596-1.33,1.33-1.33h29.264
		c0.735,0,1.33,0.596,1.33,1.33v29.181C34.045,33.242,33.45,33.837,32.715,33.837z"/>
	<g opacity="0.9">
		<g>
			<polygon fill="#FFFFFF" points="10.757,11.124 8.578,8.856 10.757,6.589 			"/>
			<polygon fill="#FFFFFF" points="25.243,11.124 27.422,8.856 25.243,6.589 			"/>
			<rect x="10.209" y="8.348" fill="#FFFFFF" width="15.713" height="1.017"/>
		</g>
		<path fill="#FFFFFF" d="M18.184,5.178c2.028,0,3.679,1.65,3.679,3.679s-1.65,3.679-3.679,3.679s-3.679-1.65-3.679-3.679
			S16.155,5.178,18.184,5.178 M18.184,3.681c-2.858,0-5.175,2.317-5.175,5.175s2.317,5.175,5.175,5.175s5.175-2.317,5.175-5.175
			S21.042,3.681,18.184,3.681L18.184,3.681z"/>
		<rect x="17.186" y="13.926" fill="#FFFFFF" width="1.995" height="3.658"/>
		<rect x="15.742" y="15.589" fill="#FFFFFF" width="4.884" height="0.998"/>
	</g>
	<g>
		<path fill="#FFFFFF" d="M12.341,29.826v1.011h-4.68c-0.005-0.253,0.029-0.497,0.103-0.731c0.12-0.386,0.31-0.765,0.571-1.139
			c0.264-0.375,0.642-0.807,1.138-1.298c0.769-0.764,1.289-1.37,1.56-1.815c0.271-0.447,0.405-0.868,0.405-1.266
			c0-0.417-0.122-0.769-0.369-1.055c-0.247-0.287-0.569-0.43-0.964-0.43c-0.417,0-0.752,0.151-1.003,0.455s-0.378,0.725-0.381,1.263
			l-0.894-0.111c0.061-0.807,0.291-1.422,0.688-1.844c0.4-0.424,0.938-0.635,1.609-0.635c0.679,0,1.218,0.228,1.614,0.684
			c0.396,0.457,0.593,1.022,0.593,1.696c0,0.343-0.059,0.68-0.173,1.012c-0.117,0.331-0.308,0.68-0.576,1.046
			c-0.271,0.366-0.718,0.869-1.34,1.508c-0.522,0.53-0.857,0.89-1.006,1.079c-0.146,0.189-0.271,0.378-0.366,0.57H12.341z"/>
		<path fill="#FFFFFF" d="M13.762,30.837v-1.199h0.989v1.199H13.762z"/>
		<path fill="#FFFFFF" d="M16.02,28.592l0.913-0.093c0.068,0.537,0.225,0.941,0.471,1.212s0.544,0.406,0.891,0.406
			c0.417,0,0.771-0.19,1.062-0.573s0.435-0.889,0.435-1.52c0-0.601-0.139-1.074-0.417-1.421s-0.642-0.52-1.094-0.52
			c-0.281,0-0.532,0.077-0.757,0.231c-0.227,0.154-0.403,0.354-0.532,0.599l-0.815-0.129l0.686-4.401h3.521v1.005h-2.827
			l-0.381,2.303c0.425-0.359,0.872-0.538,1.338-0.538c0.618,0,1.14,0.26,1.565,0.778c0.425,0.519,0.637,1.185,0.637,2
			c0,0.775-0.188,1.445-0.559,2.01c-0.454,0.695-1.074,1.041-1.86,1.041c-0.645,0-1.169-0.219-1.577-0.656
			C16.311,29.892,16.079,29.313,16.02,28.592z"/>
		<path fill="#FFFFFF" d="M25.188,27.476V26.47l2.998-0.006v3.18c-0.461,0.444-0.935,0.779-1.426,1.002
			c-0.488,0.225-0.991,0.337-1.506,0.337c-0.693,0-1.326-0.181-1.895-0.541s-0.996-0.881-1.287-1.564s-0.435-1.444-0.435-2.286
			c0-0.834,0.144-1.611,0.432-2.335c0.288-0.723,0.703-1.26,1.243-1.61c0.542-0.35,1.165-0.526,1.87-0.526
			c0.51,0,0.974,0.1,1.387,0.302c0.415,0.2,0.74,0.48,0.974,0.839s0.413,0.826,0.535,1.403l-0.845,0.281
			c-0.105-0.436-0.237-0.779-0.396-1.029c-0.156-0.249-0.383-0.449-0.676-0.599c-0.293-0.149-0.618-0.225-0.974-0.225
			c-0.43,0-0.798,0.079-1.111,0.237s-0.564,0.365-0.757,0.623c-0.19,0.258-0.339,0.54-0.447,0.847
			c-0.181,0.531-0.271,1.105-0.271,1.725c0,0.764,0.11,1.403,0.327,1.918c0.217,0.514,0.535,0.896,0.95,1.145
			c0.415,0.25,0.854,0.375,1.323,0.375c0.405,0,0.801-0.095,1.187-0.284c0.386-0.188,0.679-0.391,0.879-0.604v-1.595H25.188z"/>
	</g>
</g>
</svg>
