<?xml version="1.0" encoding="utf-8"?>
<!-- Generator: Adobe Illustrator 18.0.0, SVG Export Plug-In . SVG Version: 6.00 Build 0)  -->
<!DOCTYPE svg PUBLIC "-//W3C//DTD SVG 1.1//EN" "http://www.w3.org/Graphics/SVG/1.1/DTD/svg11.dtd">
<svg version="1.1" id="图层_1" xmlns="http://www.w3.org/2000/svg" xmlns:xlink="http://www.w3.org/1999/xlink" x="0px" y="0px"
	 width="42px" height="42px" viewBox="0 0 42 42" enable-background="new 0 0 42 42" xml:space="preserve">
<g>
	<path fill="none" stroke="#C6C6C6" stroke-width="1.1401" stroke-miterlimit="10" d="M1.047,38.517V3.483
		C1.047,2.112,2.159,1,3.531,1h34.939c1.371,0,2.483,1.112,2.483,2.483v35.034c0,1.371-1.111,2.483-2.483,2.483H3.531
		C2.159,41,1.047,39.888,1.047,38.517z"/>
	<linearGradient id="SVGID_1_" gradientUnits="userSpaceOnUse" x1="21.095" y1="39.0998" x2="21.095" y2="2.7101">
		<stop  offset="0" style="stop-color:#FF1F30"/>
		<stop  offset="1" style="stop-color:#C3020F"/>
	</linearGradient>
	<path fill="url(#SVGID_1_)" d="M37.817,39.1H4.373c-0.84,0-1.52-0.681-1.52-1.52V4.23c0-0.84,0.681-1.52,1.52-1.52h33.444
		c0.84,0,1.52,0.681,1.52,1.52V37.58C39.337,38.419,38.657,39.1,37.817,39.1z"/>
	<g>
		<polygon fill="#FFFFFF" points="29.98,5.295 33.472,8.179 33.472,16.228 29.98,19.112 		"/>
		<polygon fill="#FFFFFF" points="12.02,19.112 8.528,16.228 8.528,8.179 12.02,5.295 		"/>
		<g>
			<polygon fill="#FFFFFF" points="16.713,19.016 14.222,16.425 16.713,13.834 			"/>
			<polygon fill="#FFFFFF" points="25.287,19.016 27.778,16.425 25.287,13.834 			"/>
			<rect x="16.086" y="15.345" fill="#FFFFFF" width="10.167" height="2.16"/>
		</g>
		<g>
			<polygon fill="#FFFFFF" points="16.713,11.052 14.222,8.461 16.713,5.87 			"/>
			<polygon fill="#FFFFFF" points="25.287,11.052 27.778,8.461 25.287,5.87 			"/>
			<rect x="16.086" y="7.381" fill="#FFFFFF" width="10.167" height="2.16"/>
		</g>
	</g>
	<g>
		<g>
			<path fill="#FFFFFF" d="M7.182,32.879h1.41v0.402c0,0.419,0.056,0.725,0.17,0.922s0.291,0.294,0.531,0.294
				c0.276,0,0.479-0.109,0.605-0.325s0.19-0.569,0.19-1.058c0-0.673-0.092-1.136-0.275-1.393c-0.182-0.256-0.503-0.385-0.962-0.385
				H8.665v-1.356c0.027,0,0.066-0.002,0.117-0.006c0.051-0.005,0.088-0.007,0.11-0.007c0.374,0,0.643-0.115,0.808-0.344
				c0.165-0.228,0.248-0.61,0.248-1.145c0-0.441-0.05-0.762-0.15-0.962c-0.101-0.2-0.26-0.3-0.479-0.3
				c-0.244,0-0.422,0.082-0.535,0.247c-0.111,0.165-0.166,0.435-0.166,0.808c0,0.094,0,0.166,0.002,0.217s0.006,0.101,0.011,0.15
				h-1.41v-0.079c0-0.861,0.184-1.53,0.554-2.008c0.37-0.479,0.884-0.718,1.543-0.718c0.646,0,1.132,0.228,1.456,0.685
				c0.326,0.457,0.488,1.141,0.488,2.054c0,0.565-0.067,1.011-0.2,1.335c-0.134,0.325-0.345,0.573-0.635,0.742
				c0.365,0.177,0.624,0.437,0.778,0.778s0.231,0.844,0.231,1.506c0,0.953-0.176,1.681-0.527,2.181
				c-0.353,0.5-0.864,0.752-1.537,0.752c-0.695,0-1.234-0.239-1.616-0.719c-0.383-0.479-0.575-1.152-0.575-2.02V32.879z"/>
			<path fill="#FFFFFF" d="M12.299,35.672v-1.396c1.024-1.411,1.787-2.612,2.288-3.601c0.502-0.989,0.752-1.786,0.752-2.391
				c0-0.36-0.06-0.645-0.181-0.852c-0.12-0.206-0.283-0.31-0.487-0.31c-0.272,0-0.468,0.1-0.588,0.3
				c-0.12,0.2-0.184,0.546-0.194,1.035l-0.013,0.361h-1.449v-0.181c0-0.895,0.197-1.588,0.591-2.081
				c0.394-0.492,0.95-0.737,1.667-0.737c0.619,0,1.113,0.208,1.483,0.624c0.369,0.417,0.554,0.981,0.554,1.694
				c0,0.699-0.188,1.475-0.565,2.328c-0.376,0.853-1.128,2.123-2.255,3.811h2.699v1.396H12.299z"/>
		</g>
		<g>
			<g>
				<path fill="#FFFFFF" d="M18.894,27.89l2.555,2.555l2.567-2.555l0.651,0.652l-2.555,2.566l2.555,2.55l-0.651,0.663l-2.567-2.567
					l-2.555,2.567l-0.646-0.663l2.55-2.55l-2.55-2.566L18.894,27.89z"/>
			</g>
		</g>
		<g>
			<path fill="#FFFFFF" d="M26.389,27.594v-0.975c0.383-0.134,0.71-0.299,0.983-0.494c0.271-0.197,0.497-0.428,0.675-0.696h0.995
				v9.661h-1.477v-7.495H26.389z"/>
			<path fill="#FFFFFF" d="M30.559,27.66c0-0.762,0.199-1.357,0.598-1.79c0.398-0.432,0.951-0.648,1.659-0.648
				c0.673,0,1.206,0.222,1.6,0.668s0.592,1.049,0.592,1.81v4.95c0,0.847-0.194,1.499-0.582,1.958
				c-0.387,0.459-0.938,0.688-1.649,0.688c-0.721,0-1.272-0.229-1.65-0.688s-0.568-1.124-0.568-1.997V27.66z M31.942,33.025
				c0,0.272,0.074,0.49,0.226,0.654s0.352,0.248,0.603,0.248c0.237,0,0.425-0.081,0.564-0.24c0.14-0.161,0.212-0.381,0.216-0.662
				v-5.652c0-0.227-0.073-0.411-0.222-0.554s-0.344-0.214-0.586-0.214c-0.232,0-0.424,0.071-0.575,0.214s-0.226,0.322-0.226,0.541
				V33.025z"/>
		</g>
	</g>
</g>
</svg>
