<?xml version="1.0" encoding="utf-8"?>
<!-- Generator: Adobe Illustrator 18.0.0, SVG Export Plug-In . SVG Version: 6.00 Build 0)  -->
<!DOCTYPE svg PUBLIC "-//W3C//DTD SVG 1.1//EN" "http://www.w3.org/Graphics/SVG/1.1/DTD/svg11.dtd">
<svg version="1.1" id="图层_1" xmlns="http://www.w3.org/2000/svg" xmlns:xlink="http://www.w3.org/1999/xlink" x="0px" y="0px"
	 width="36px" height="36px" viewBox="0 0 36 36" enable-background="new 0 0 36 36" xml:space="preserve">
<g>
	<path fill="#FFFFFF" stroke="#C6C6C6" stroke-width="1.0261" stroke-miterlimit="10" d="M0,34.11V2.58
		c0-1.234,1.001-2.235,2.235-2.235H33.68c1.234,0,2.235,1.001,2.235,2.235v31.531c0,1.234-1,2.234-2.234,2.234H2.235
		C1.001,36.345,0,35.344,0,34.11z"/>
	<linearGradient id="SVGID_1_" gradientUnits="userSpaceOnUse" x1="18.0428" y1="34.6348" x2="18.0428" y2="1.8841">
		<stop  offset="0" style="stop-color:#2CA539"/>
		<stop  offset="1" style="stop-color:#009117"/>
	</linearGradient>
	<path fill="url(#SVGID_1_)" d="M33.093,34.635h-30.1c-0.756,0-1.368-0.613-1.368-1.368V3.252c0-0.756,0.613-1.368,1.368-1.368h30.1
		c0.756,0,1.368,0.613,1.368,1.368v30.014C34.461,34.022,33.848,34.635,33.093,34.635z"/>
	<g>
		<path fill="#FFFFFF" d="M4.74,29.035h1.268v0.362c0,0.377,0.051,0.653,0.153,0.83c0.103,0.176,0.262,0.264,0.478,0.264
			c0.249,0,0.431-0.097,0.545-0.291s0.171-0.512,0.171-0.953c0-0.605-0.082-1.023-0.246-1.253c-0.164-0.231-0.453-0.347-0.866-0.347
			H6.075v-1.22c0.024,0,0.059-0.001,0.105-0.006c0.045-0.004,0.079-0.005,0.099-0.005c0.336,0,0.579-0.104,0.727-0.31
			s0.222-0.55,0.222-1.031c0-0.397-0.044-0.686-0.134-0.866c-0.09-0.181-0.234-0.27-0.431-0.27c-0.22,0-0.38,0.074-0.481,0.222
			c-0.1,0.148-0.149,0.39-0.149,0.727c0,0.084,0,0.149,0.003,0.196c0.001,0.046,0.005,0.09,0.009,0.136H4.776v-0.073
			c0-0.773,0.166-1.376,0.498-1.807s0.796-0.647,1.389-0.647c0.581,0,1.018,0.206,1.311,0.616c0.293,0.411,0.439,1.027,0.439,1.849
			c0,0.509-0.06,0.909-0.181,1.202c-0.121,0.293-0.31,0.516-0.571,0.668c0.329,0.161,0.562,0.394,0.701,0.701
			c0.138,0.306,0.207,0.758,0.207,1.356c0,0.858-0.158,1.512-0.475,1.962c-0.316,0.451-0.777,0.677-1.382,0.677
			c-0.625,0-1.111-0.216-1.455-0.647c-0.345-0.431-0.517-1.037-0.517-1.818V29.035z"/>
		<path fill="#FFFFFF" d="M9.345,31.549v-1.257c0.922-1.271,1.608-2.35,2.059-3.241c0.451-0.89,0.677-1.607,0.677-2.152
			c0-0.325-0.054-0.58-0.162-0.767c-0.109-0.186-0.255-0.279-0.439-0.279c-0.245,0-0.421,0.089-0.529,0.27
			c-0.109,0.181-0.167,0.491-0.175,0.932l-0.013,0.325H9.46v-0.162c0-0.806,0.177-1.43,0.532-1.873
			c0.354-0.443,0.855-0.664,1.5-0.664c0.556,0,1.002,0.187,1.335,0.563c0.333,0.374,0.498,0.883,0.498,1.523
			c0,0.63-0.17,1.328-0.507,2.096c-0.339,0.768-1.016,1.911-2.03,3.43h2.43v1.257H9.345z"/>
	</g>
	<g>
		<g>
			<path fill="#FFFFFF" d="M14.263,24.545l2.3,2.3l2.309-2.3l0.586,0.586l-2.299,2.31l2.299,2.294l-0.586,0.596l-2.309-2.309
				l-2.3,2.309l-0.581-0.596l2.295-2.294l-2.295-2.31L14.263,24.545z"/>
		</g>
	</g>
	<g>
		<path fill="#FFFFFF" d="M19.882,31.025v-1.257c0.92-1.271,1.608-2.35,2.058-3.241c0.452-0.89,0.678-1.607,0.678-2.152
			c0-0.325-0.055-0.58-0.163-0.767c-0.108-0.186-0.254-0.279-0.439-0.279c-0.244,0-0.419,0.089-0.527,0.27
			c-0.11,0.181-0.168,0.491-0.176,0.932L21.3,24.856h-1.303v-0.162c0-0.806,0.177-1.43,0.532-1.873
			c0.354-0.443,0.854-0.664,1.499-0.664c0.557,0,1.002,0.187,1.336,0.563c0.331,0.374,0.497,0.883,0.497,1.523
			c0,0.63-0.168,1.328-0.507,2.096c-0.339,0.768-1.015,1.911-2.029,3.43h2.428v1.257H19.882z"/>
		<path fill="#FFFFFF" d="M25.071,31.025V29.66h1.281v1.365H25.071z"/>
		<path fill="#FFFFFF" d="M27.53,28.602h1.195v0.439c0,0.329,0.058,0.575,0.176,0.74c0.116,0.164,0.289,0.246,0.522,0.246
			c0.196,0,0.349-0.074,0.457-0.222c0.108-0.148,0.163-0.36,0.163-0.638v-2.219c0-0.249-0.045-0.429-0.136-0.544
			s-0.234-0.172-0.429-0.172c-0.173,0-0.321,0.06-0.449,0.181c-0.126,0.121-0.223,0.295-0.291,0.524l-1.1-0.049l0.151-4.556h3.277
			l0.048,1.256h-2.268l-0.108,2.045c0.193-0.188,0.389-0.33,0.593-0.424c0.203-0.094,0.407-0.142,0.61-0.142
			c0.422,0,0.746,0.159,0.977,0.476c0.231,0.316,0.347,0.77,0.347,1.359v2.206c0,0.65-0.173,1.163-0.517,1.539
			c-0.344,0.377-0.814,0.565-1.406,0.565c-0.595,0-1.045-0.198-1.351-0.598c-0.306-0.399-0.46-0.983-0.46-1.753V28.602z"/>
	</g>
	<g>
		<polygon fill="#FFFFFF" points="26.04,4.211 29.182,6.806 29.182,14.05 26.04,16.645 		"/>
		<polygon fill="#FFFFFF" points="9.875,16.645 6.732,14.05 6.732,6.806 9.875,4.211 		"/>
		<g>
			<polygon fill="#FFFFFF" points="14.099,16.56 11.857,14.228 14.099,11.895 			"/>
			<polygon fill="#FFFFFF" points="21.816,16.56 24.057,14.228 21.816,11.895 			"/>
			<rect x="13.535" y="13.255" fill="#FFFFFF" width="9.15" height="1.944"/>
		</g>
		<g>
			<polygon fill="#FFFFFF" points="14.099,9.392 11.857,7.06 14.099,4.728 			"/>
			<polygon fill="#FFFFFF" points="21.816,9.392 24.057,7.06 21.816,4.728 			"/>
			<rect x="13.535" y="6.088" fill="#FFFFFF" width="9.15" height="1.944"/>
		</g>
	</g>
</g>
</svg>
