<?xml version="1.0" encoding="utf-8"?>
<!-- Generator: Adobe Illustrator 18.0.0, SVG Export Plug-In . SVG Version: 6.00 Build 0)  -->
<!DOCTYPE svg PUBLIC "-//W3C//DTD SVG 1.1//EN" "http://www.w3.org/Graphics/SVG/1.1/DTD/svg11.dtd">
<svg version="1.1" id="图层_1" xmlns="http://www.w3.org/2000/svg" xmlns:xlink="http://www.w3.org/1999/xlink" x="0px" y="0px"
	 width="36px" height="36px" viewBox="0 0 36 36" enable-background="new 0 0 36 36" xml:space="preserve">
<g>
	<path fill="#FFFFFF" stroke="#C6C6C6" stroke-width="1.0261" stroke-miterlimit="10" d="M-0.017,34.125V2.565
		c0-1.235,1.001-2.237,2.237-2.237h31.474c1.235,0,2.237,1.001,2.237,2.237v31.56c0,1.235-1.001,2.236-2.236,2.236H2.22
		C0.985,36.362-0.017,35.36-0.017,34.125z"/>
	<linearGradient id="SVGID_1_" gradientUnits="userSpaceOnUse" x1="18.0429" y1="34.6499" x2="18.0429" y2="1.8689">
		<stop  offset="0" style="stop-color:#FF7F01"/>
		<stop  offset="1" style="stop-color:#F05800"/>
	</linearGradient>
	<path fill="url(#SVGID_1_)" d="M33.107,34.65H2.979c-0.756,0-1.369-0.613-1.369-1.369V3.238c0-0.756,0.613-1.369,1.369-1.369
		h30.128c0.756,0,1.369,0.613,1.369,1.369V33.28C34.476,34.037,33.863,34.65,33.107,34.65z"/>
	<g>
		<polygon fill="#FFFFFF" points="26.047,4.197 29.193,6.795 29.193,14.046 26.047,16.644 		"/>
		<polygon fill="#FFFFFF" points="9.867,16.644 6.722,14.046 6.722,6.795 9.867,4.197 		"/>
		<g>
			<polygon fill="#FFFFFF" points="14.095,16.558 11.852,14.224 14.095,11.889 			"/>
			<polygon fill="#FFFFFF" points="21.819,16.558 24.063,14.224 21.819,11.889 			"/>
			<rect x="13.531" y="13.251" fill="#FFFFFF" width="9.158" height="1.946"/>
		</g>
		<g>
			<polygon fill="#FFFFFF" points="14.095,9.384 11.852,7.05 14.095,4.715 			"/>
			<polygon fill="#FFFFFF" points="21.819,9.384 24.063,7.05 21.819,4.715 			"/>
			<rect x="13.531" y="6.077" fill="#FFFFFF" width="9.158" height="1.946"/>
		</g>
	</g>
	<g>
		<path fill="#FFFFFF" d="M4.759,29.02h1.266v0.361c0,0.376,0.051,0.652,0.153,0.827c0.103,0.176,0.262,0.263,0.478,0.263
			c0.248,0,0.43-0.095,0.544-0.291c0.114-0.193,0.171-0.512,0.171-0.95c0-0.604-0.081-1.023-0.246-1.251
			c-0.164-0.231-0.453-0.346-0.865-0.346H6.092v-1.219c0.024,0,0.059-0.003,0.105-0.008c0.045-0.003,0.079-0.005,0.099-0.005
			c0.336,0,0.578-0.103,0.726-0.308c0.148-0.206,0.222-0.549,0.222-1.031c0-0.396-0.044-0.685-0.134-0.865
			c-0.09-0.181-0.233-0.268-0.43-0.268c-0.219,0-0.38,0.073-0.48,0.221c-0.1,0.148-0.149,0.391-0.149,0.727
			c0,0.083,0,0.148,0.003,0.196c0.001,0.045,0.005,0.09,0.009,0.135H4.795v-0.073c0-0.772,0.165-1.374,0.498-1.805
			c0.332-0.429,0.795-0.644,1.387-0.644c0.58,0,1.017,0.206,1.309,0.614c0.292,0.411,0.439,1.026,0.439,1.848
			c0,0.507-0.06,0.908-0.181,1.199c-0.12,0.293-0.31,0.517-0.57,0.667c0.328,0.16,0.562,0.394,0.7,0.7s0.207,0.757,0.207,1.354
			c0,0.858-0.158,1.51-0.474,1.961c-0.316,0.449-0.776,0.675-1.38,0.675c-0.624,0-1.11-0.216-1.453-0.644
			c-0.345-0.431-0.517-1.036-0.517-1.815V29.02z"/>
		<path fill="#FFFFFF" d="M9.358,31.53v-1.256c0.92-1.269,1.606-2.347,2.056-3.235c0.45-0.89,0.676-1.605,0.676-2.149
			c0-0.326-0.054-0.579-0.162-0.767c-0.109-0.186-0.255-0.278-0.439-0.278c-0.244,0-0.42,0.09-0.528,0.271
			c-0.109,0.181-0.167,0.489-0.174,0.93l-0.013,0.323H9.472v-0.16c0-0.805,0.177-1.429,0.532-1.871
			c0.354-0.444,0.854-0.664,1.498-0.664c0.555,0,1.001,0.188,1.333,0.562s0.498,0.883,0.498,1.522c0,0.629-0.169,1.326-0.507,2.091
			c-0.339,0.767-1.014,1.908-2.027,3.425h2.426v1.256H9.358z"/>
	</g>
	<g>
		<g>
			<path fill="#FFFFFF" d="M14.269,24.536l2.297,2.297l2.306-2.297l0.586,0.587l-2.296,2.307l2.296,2.289l-0.586,0.597l-2.306-2.307
				l-2.297,2.307l-0.58-0.597l2.292-2.289l-2.292-2.307L14.269,24.536z"/>
		</g>
	</g>
	<g>
		<path fill="#FFFFFF" d="M19.879,31.008v-1.256c0.919-1.269,1.606-2.347,2.055-3.235c0.451-0.89,0.677-1.605,0.677-2.149
			c0-0.326-0.055-0.579-0.163-0.767c-0.108-0.186-0.253-0.278-0.439-0.278c-0.243,0-0.419,0.09-0.527,0.271
			c-0.11,0.181-0.168,0.489-0.176,0.93l-0.013,0.323h-1.301v-0.16c0-0.805,0.177-1.429,0.532-1.871
			c0.354-0.444,0.853-0.664,1.497-0.664c0.557,0,1.001,0.188,1.334,0.562c0.331,0.374,0.496,0.883,0.496,1.522
			c0,0.629-0.168,1.326-0.507,2.091c-0.339,0.767-1.013,1.908-2.026,3.425h2.425v1.256H19.879z"/>
		<path fill="#FFFFFF" d="M25.061,31.008v-1.364h1.279v1.364H25.061z"/>
		<path fill="#FFFFFF" d="M27.516,28.588h1.194v0.439c0,0.328,0.058,0.574,0.176,0.737C29,29.93,29.173,30.01,29.407,30.01
			c0.196,0,0.349-0.073,0.456-0.221c0.108-0.148,0.163-0.361,0.163-0.637v-2.217c0-0.248-0.045-0.429-0.135-0.542
			c-0.09-0.115-0.233-0.173-0.429-0.173c-0.173,0-0.321,0.06-0.449,0.181c-0.125,0.12-0.223,0.296-0.291,0.524l-1.098-0.05
			l0.15-4.549h3.272l0.048,1.254H28.83l-0.108,2.041c0.193-0.188,0.389-0.328,0.592-0.424c0.203-0.093,0.406-0.14,0.609-0.14
			c0.421,0,0.745,0.158,0.975,0.474c0.231,0.316,0.346,0.77,0.346,1.357v2.204c0,0.649-0.173,1.161-0.517,1.537
			c-0.344,0.376-0.812,0.564-1.404,0.564c-0.594,0-1.043-0.198-1.349-0.597s-0.459-0.983-0.459-1.75V28.588z"/>
	</g>
</g>
</svg>
