<?xml version="1.0" encoding="utf-8"?>
<!-- Generator: Adobe Illustrator 18.0.0, SVG Export Plug-In . SVG Version: 6.00 Build 0)  -->
<!DOCTYPE svg PUBLIC "-//W3C//DTD SVG 1.1//EN" "http://www.w3.org/Graphics/SVG/1.1/DTD/svg11.dtd">
<svg version="1.1" id="图层_1" xmlns="http://www.w3.org/2000/svg" xmlns:xlink="http://www.w3.org/1999/xlink" x="0px" y="0px"
	 width="36px" height="36px" viewBox="0 0 36 36" enable-background="new 0 0 36 36" xml:space="preserve">
<g>
	<path fill="#FFFFFF" stroke="#C6C6C6" stroke-width="1.0261" stroke-miterlimit="10" d="M0,34.11V2.58
		c0-1.234,1.001-2.235,2.235-2.235H33.68c1.234,0,2.235,1.001,2.235,2.235v31.531c0,1.234-1,2.234-2.234,2.234H2.235
		C1.001,36.345,0,35.344,0,34.11z"/>
	<linearGradient id="SVGID_1_" gradientUnits="userSpaceOnUse" x1="18.0428" y1="34.6348" x2="18.0428" y2="1.8841">
		<stop  offset="0" style="stop-color:#76797A"/>
		<stop  offset="1" style="stop-color:#5F6263"/>
	</linearGradient>
	<path fill="url(#SVGID_1_)" d="M33.093,34.635h-30.1c-0.756,0-1.368-0.613-1.368-1.368V3.252c0-0.756,0.613-1.368,1.368-1.368h30.1
		c0.756,0,1.368,0.613,1.368,1.368v30.014C34.461,34.022,33.848,34.635,33.093,34.635z"/>
	<g>
		<polygon fill="#D5D6D6" points="26.04,4.211 29.182,6.806 29.182,14.05 26.04,16.645 		"/>
		<polygon fill="#D5D6D6" points="9.875,16.645 6.732,14.05 6.732,6.806 9.875,4.211 		"/>
		<g>
			<polygon fill="#D5D6D6" points="14.099,16.56 11.857,14.228 14.099,11.895 			"/>
			<polygon fill="#D5D6D6" points="21.816,16.56 24.057,14.228 21.816,11.895 			"/>
			<rect x="13.535" y="13.255" fill="#D5D6D6" width="9.15" height="1.944"/>
		</g>
		<g>
			<polygon fill="#D5D6D6" points="14.099,9.392 11.857,7.06 14.099,4.728 			"/>
			<polygon fill="#D5D6D6" points="21.816,9.392 24.057,7.06 21.816,4.728 			"/>
			<rect x="13.535" y="6.088" fill="#D5D6D6" width="9.15" height="1.944"/>
		</g>
	</g>
	<g>
		<path fill="#FFFFFF" d="M4.74,29.035h1.268v0.362c0,0.377,0.051,0.653,0.153,0.829c0.103,0.176,0.262,0.264,0.478,0.264
			c0.249,0,0.431-0.095,0.545-0.291c0.114-0.193,0.171-0.512,0.171-0.952c0-0.605-0.082-1.025-0.246-1.253
			c-0.164-0.231-0.453-0.347-0.866-0.347H6.075v-1.22c0.024,0,0.059-0.003,0.105-0.008c0.045-0.003,0.079-0.005,0.099-0.005
			c0.336,0,0.579-0.103,0.727-0.309s0.222-0.55,0.222-1.032c0-0.397-0.044-0.686-0.134-0.866c-0.09-0.181-0.234-0.269-0.431-0.269
			c-0.22,0-0.38,0.073-0.481,0.221c-0.1,0.148-0.149,0.392-0.149,0.728c0,0.083,0,0.148,0.003,0.196
			c0.001,0.045,0.005,0.09,0.009,0.136H4.776v-0.073c0-0.773,0.166-1.376,0.498-1.808c0.333-0.429,0.796-0.645,1.389-0.645
			c0.581,0,1.018,0.206,1.311,0.615c0.293,0.412,0.439,1.027,0.439,1.851c0,0.507-0.06,0.909-0.181,1.2
			c-0.121,0.294-0.31,0.517-0.571,0.668c0.329,0.161,0.562,0.394,0.701,0.701c0.138,0.306,0.207,0.758,0.207,1.356
			c0,0.859-0.158,1.512-0.475,1.964c-0.316,0.449-0.777,0.676-1.382,0.676c-0.625,0-1.111-0.216-1.455-0.645
			c-0.345-0.432-0.517-1.037-0.517-1.818V29.035z"/>
		<path fill="#FFFFFF" d="M9.345,31.549v-1.258c0.922-1.271,1.608-2.35,2.059-3.239c0.451-0.891,0.677-1.607,0.677-2.152
			c0-0.326-0.054-0.58-0.162-0.768c-0.109-0.186-0.255-0.279-0.439-0.279c-0.245,0-0.421,0.09-0.529,0.271
			c-0.109,0.181-0.167,0.49-0.175,0.932l-0.013,0.324H9.46v-0.161c0-0.806,0.177-1.431,0.532-1.873
			c0.354-0.444,0.855-0.665,1.5-0.665c0.556,0,1.002,0.188,1.335,0.563c0.333,0.374,0.498,0.884,0.498,1.524
			c0,0.63-0.17,1.328-0.507,2.094c-0.339,0.768-1.016,1.911-2.03,3.43h2.43v1.258H9.345z"/>
	</g>
	<g>
		<g>
			<path fill="#FFFFFF" d="M14.265,24.545l2.3,2.3l2.309-2.3l0.586,0.588l-2.299,2.31l2.299,2.293l-0.586,0.598l-2.309-2.31
				l-2.3,2.31l-0.581-0.598l2.295-2.293l-2.295-2.31L14.265,24.545z"/>
		</g>
	</g>
	<g>
		<path fill="#FFFFFF" d="M19.882,31.026v-1.258c0.922-1.271,1.608-2.35,2.059-3.239c0.451-0.891,0.677-1.607,0.677-2.152
			c0-0.326-0.054-0.58-0.162-0.768c-0.109-0.186-0.255-0.279-0.439-0.279c-0.245,0-0.421,0.09-0.529,0.271
			c-0.109,0.181-0.167,0.49-0.175,0.932l-0.013,0.324h-1.305v-0.161c0-0.806,0.177-1.431,0.532-1.873
			c0.354-0.444,0.855-0.665,1.5-0.665c0.556,0,1.002,0.188,1.335,0.563s0.498,0.884,0.498,1.524c0,0.63-0.17,1.328-0.507,2.094
			c-0.339,0.768-1.016,1.911-2.03,3.43h2.43v1.258H19.882z"/>
		<path fill="#FFFFFF" d="M25.071,31.026V29.66h1.281v1.366H25.071z"/>
		<path fill="#FFFFFF" d="M27.53,28.603h1.197v0.439c0,0.329,0.058,0.575,0.175,0.738c0.117,0.166,0.29,0.246,0.524,0.246
			c0.196,0,0.348-0.073,0.457-0.221c0.108-0.148,0.162-0.362,0.162-0.638v-2.22c0-0.249-0.045-0.429-0.136-0.542
			c-0.09-0.116-0.234-0.173-0.429-0.173c-0.173,0-0.321,0.06-0.448,0.181c-0.127,0.121-0.223,0.296-0.291,0.525l-1.101-0.05
			l0.151-4.555h3.277l0.048,1.256h-2.266l-0.108,2.044c0.192-0.188,0.389-0.329,0.591-0.424c0.203-0.093,0.407-0.141,0.61-0.141
			c0.422,0,0.747,0.158,0.978,0.475c0.23,0.316,0.345,0.771,0.345,1.359v2.207c0,0.65-0.172,1.163-0.517,1.539
			c-0.344,0.377-0.814,0.565-1.406,0.565c-0.594,0-1.043-0.198-1.35-0.598c-0.308-0.399-0.461-0.984-0.461-1.753V28.603z"/>
	</g>
</g>
</svg>
