<?xml version="1.0" encoding="utf-8"?>
<!-- Generator: Adobe Illustrator 18.0.0, SVG Export Plug-In . SVG Version: 6.00 Build 0)  -->
<!DOCTYPE svg PUBLIC "-//W3C//DTD SVG 1.1//EN" "http://www.w3.org/Graphics/SVG/1.1/DTD/svg11.dtd">
<svg version="1.1" id="图层_1" xmlns="http://www.w3.org/2000/svg" xmlns:xlink="http://www.w3.org/1999/xlink" x="0px" y="0px"
	 width="36px" height="36px" viewBox="0 0 36 36" enable-background="new 0 0 36 36" xml:space="preserve">
<g>
	<path fill="#FFFFFF" stroke="#C6C6C6" stroke-width="1.0261" stroke-miterlimit="10" d="M0,34.11V2.58
		c0-1.234,1.001-2.235,2.235-2.235H33.68c1.234,0,2.235,1.001,2.235,2.235v31.531c0,1.234-1,2.234-2.234,2.234H2.235
		C1.001,36.345,0,35.344,0,34.11z"/>
	<linearGradient id="SVGID_1_" gradientUnits="userSpaceOnUse" x1="18.0428" y1="34.6348" x2="18.0428" y2="1.8841">
		<stop  offset="0" style="stop-color:#00AEF9"/>
		<stop  offset="1" style="stop-color:#0092E1"/>
	</linearGradient>
	<path fill="url(#SVGID_1_)" d="M33.093,34.635h-30.1c-0.756,0-1.368-0.613-1.368-1.368V3.252c0-0.756,0.613-1.368,1.368-1.368h30.1
		c0.756,0,1.368,0.613,1.368,1.368v30.014C34.461,34.022,33.848,34.635,33.093,34.635z"/>
	<g>
		<path fill="#FFFFFF" d="M4.739,29.035h1.268v0.362c0,0.377,0.053,0.653,0.153,0.83c0.103,0.176,0.264,0.264,0.48,0.264
			c0.249,0,0.429-0.097,0.545-0.291c0.113-0.195,0.171-0.512,0.171-0.953c0-0.605-0.083-1.023-0.246-1.253
			c-0.166-0.231-0.455-0.347-0.866-0.347H6.075v-1.22c0.023,0,0.058-0.001,0.105-0.006c0.045-0.004,0.078-0.005,0.098-0.005
			c0.336,0,0.58-0.104,0.728-0.31s0.221-0.55,0.221-1.031c0-0.397-0.043-0.686-0.133-0.866c-0.09-0.181-0.234-0.27-0.432-0.27
			c-0.218,0-0.379,0.074-0.48,0.222c-0.1,0.148-0.151,0.39-0.151,0.727c0,0.084,0,0.149,0.003,0.196
			c0.003,0.046,0.005,0.09,0.01,0.136H4.776v-0.073c0-0.773,0.166-1.376,0.497-1.807c0.334-0.431,0.796-0.647,1.389-0.647
			c0.583,0,1.02,0.206,1.311,0.616c0.294,0.411,0.439,1.027,0.439,1.849c0,0.509-0.06,0.909-0.181,1.202
			c-0.121,0.293-0.309,0.516-0.57,0.668c0.329,0.161,0.563,0.394,0.701,0.701c0.138,0.306,0.206,0.758,0.206,1.356
			c0,0.858-0.158,1.512-0.475,1.962c-0.316,0.451-0.776,0.677-1.381,0.677c-0.625,0-1.112-0.216-1.456-0.647
			s-0.517-1.037-0.517-1.818V29.035z"/>
		<path fill="#FFFFFF" d="M9.344,31.549v-1.257c0.922-1.271,1.61-2.35,2.059-3.241c0.452-0.89,0.678-1.607,0.678-2.152
			c0-0.325-0.055-0.58-0.163-0.767c-0.108-0.186-0.254-0.279-0.439-0.279c-0.244,0-0.419,0.089-0.527,0.27
			c-0.11,0.181-0.168,0.491-0.176,0.932l-0.013,0.325H9.46v-0.162c0-0.806,0.176-1.43,0.532-1.873
			c0.354-0.443,0.854-0.664,1.499-0.664c0.557,0,1.002,0.187,1.336,0.563c0.331,0.374,0.497,0.883,0.497,1.523
			c0,0.63-0.168,1.328-0.507,2.096c-0.339,0.768-1.015,1.911-2.029,3.43h2.428v1.257H9.344z"/>
	</g>
	<g>
		<g>
			<path fill="#FFFFFF" d="M14.263,24.545l2.3,2.3l2.308-2.3l0.588,0.586l-2.3,2.31l2.3,2.294l-0.588,0.596l-2.308-2.309l-2.3,2.309
				l-0.583-0.596l2.295-2.294l-2.295-2.31L14.263,24.545z"/>
		</g>
	</g>
	<g>
		<path fill="#FFFFFF" d="M19.881,31.025v-1.257c0.922-1.271,1.61-2.35,2.059-3.241c0.452-0.89,0.678-1.607,0.678-2.152
			c0-0.325-0.055-0.58-0.163-0.767c-0.108-0.186-0.254-0.279-0.439-0.279c-0.244,0-0.419,0.089-0.527,0.27
			c-0.11,0.181-0.168,0.491-0.176,0.932L21.3,24.856h-1.303v-0.162c0-0.806,0.176-1.43,0.532-1.873
			c0.354-0.443,0.854-0.664,1.499-0.664c0.557,0,1.002,0.187,1.336,0.563c0.331,0.374,0.497,0.883,0.497,1.523
			c0,0.63-0.168,1.328-0.507,2.096c-0.339,0.768-1.015,1.911-2.029,3.43h2.428v1.257H19.881z"/>
		<path fill="#FFFFFF" d="M25.071,31.025V29.66h1.281v1.365H25.071z"/>
		<path fill="#FFFFFF" d="M27.53,28.602h1.195v0.439c0,0.329,0.058,0.575,0.176,0.74c0.116,0.164,0.289,0.246,0.522,0.246
			c0.196,0,0.349-0.074,0.457-0.222c0.108-0.148,0.163-0.36,0.163-0.638v-2.219c0-0.249-0.045-0.429-0.136-0.544
			c-0.09-0.114-0.234-0.172-0.429-0.172c-0.173,0-0.321,0.06-0.449,0.181c-0.126,0.121-0.223,0.295-0.291,0.524l-1.1-0.049
			l0.151-4.556h3.277l0.048,1.256h-2.268l-0.108,2.045c0.193-0.188,0.389-0.33,0.593-0.424c0.203-0.094,0.407-0.142,0.61-0.142
			c0.422,0,0.746,0.159,0.977,0.476c0.231,0.316,0.347,0.77,0.347,1.359v2.206c0,0.65-0.173,1.163-0.517,1.539
			c-0.344,0.377-0.814,0.565-1.406,0.565c-0.595,0-1.045-0.198-1.351-0.598s-0.46-0.983-0.46-1.753V28.602z"/>
	</g>
	<g>
		<polygon fill="#FFFFFF" points="26.04,4.211 29.182,6.806 29.182,14.05 26.04,16.645 		"/>
		<polygon fill="#FFFFFF" points="9.875,16.645 6.732,14.05 6.732,6.806 9.875,4.211 		"/>
		<g>
			<polygon fill="#FFFFFF" points="14.099,16.56 11.857,14.228 14.099,11.895 			"/>
			<polygon fill="#FFFFFF" points="21.816,16.56 24.057,14.228 21.816,11.895 			"/>
			<rect x="13.535" y="13.255" fill="#FFFFFF" width="9.15" height="1.944"/>
		</g>
		<g>
			<polygon fill="#FFFFFF" points="14.099,9.392 11.857,7.06 14.099,4.728 			"/>
			<polygon fill="#FFFFFF" points="21.816,9.392 24.057,7.06 21.816,4.728 			"/>
			<rect x="13.535" y="6.088" fill="#FFFFFF" width="9.15" height="1.944"/>
		</g>
	</g>
</g>
</svg>
