<?xml version="1.0" encoding="utf-8"?>
<!-- Generator: Adobe Illustrator 18.0.0, SVG Export Plug-In . SVG Version: 6.00 Build 0)  -->
<!DOCTYPE svg PUBLIC "-//W3C//DTD SVG 1.1//EN" "http://www.w3.org/Graphics/SVG/1.1/DTD/svg11.dtd">
<svg version="1.1" id="图层_1" xmlns="http://www.w3.org/2000/svg" xmlns:xlink="http://www.w3.org/1999/xlink" x="0px" y="0px"
	 width="36px" height="36px" viewBox="0 0 36 36" enable-background="new 0 0 36 36" xml:space="preserve">
<g>
	<path fill="#FFFFFF" stroke="#C6C6C6" stroke-width="1.0261" stroke-miterlimit="10" d="M0,34.11V2.58
		c0-1.234,1.001-2.235,2.235-2.235H33.68c1.234,0,2.235,1.001,2.235,2.235v31.531c0,1.234-1,2.234-2.234,2.234H2.235
		C1.001,36.345,0,35.344,0,34.11z"/>
	<linearGradient id="SVGID_1_" gradientUnits="userSpaceOnUse" x1="18.0428" y1="34.6348" x2="18.0428" y2="1.8841">
		<stop  offset="0" style="stop-color:#FF1F30"/>
		<stop  offset="1" style="stop-color:#C3020F"/>
	</linearGradient>
	<path fill="url(#SVGID_1_)" d="M33.093,34.635h-30.1c-0.756,0-1.368-0.613-1.368-1.368V3.252c0-0.756,0.613-1.368,1.368-1.368h30.1
		c0.756,0,1.368,0.613,1.368,1.368v30.014C34.461,34.022,33.848,34.635,33.093,34.635z"/>
	<g>
		<path fill="#FFFFFF" d="M13.376,29.13h-1.19v2.417h-1.143V29.13H6.702v-0.764l4.118-6.133h1.365v5.965h1.19V29.13z M11.043,28.199
			v-3.902c0-0.276,0.008-0.596,0.024-0.956h-0.024c-0.056,0.152-0.175,0.391-0.354,0.716l-2.772,4.143H11.043z"/>
		<path fill="#FFFFFF" d="M14.362,27.074c0-1.643,0.272-2.887,0.818-3.73c0.545-0.844,1.334-1.266,2.368-1.266
			c1.973,0,2.959,1.592,2.959,4.774c0,1.571-0.278,2.772-0.833,3.604c-0.556,0.831-1.334,1.247-2.336,1.247
			c-0.946,0-1.679-0.395-2.197-1.185C14.621,29.73,14.362,28.581,14.362,27.074z M15.565,27.02c0,2.473,0.627,3.71,1.882,3.71
			c1.234,0,1.852-1.257,1.852-3.771c0-2.601-0.605-3.901-1.815-3.901C16.203,23.058,15.565,24.378,15.565,27.02z"/>
		<path fill="#FFFFFF" d="M29.28,30.909c-0.93,0.529-1.98,0.794-3.15,0.794c-1.347,0-2.433-0.426-3.256-1.277
			c-0.824-0.852-1.235-1.989-1.235-3.412c0-1.439,0.454-2.622,1.364-3.548s2.076-1.389,3.5-1.389c1.006,0,1.857,0.16,2.555,0.481
			v1.298c-0.745-0.469-1.633-0.703-2.663-0.703c-1.015,0-1.851,0.347-2.508,1.04s-0.985,1.607-0.985,2.742
			c0,1.166,0.302,2.074,0.907,2.724s1.423,0.974,2.453,0.974c0.71,0,1.313-0.136,1.81-0.408v-2.52h-2.02v-1.064h3.229V30.909z"/>
	</g>
	<g opacity="0.9">
		<g>
			<polygon fill="#FFFFFF" points="10.507,11.272 8.266,8.94 10.507,6.608 			"/>
			<polygon fill="#FFFFFF" points="25.407,11.272 27.649,8.94 25.407,6.608 			"/>
			<rect x="9.943" y="8.417" fill="#FFFFFF" width="16.162" height="1.046"/>
		</g>
		<path fill="#FFFFFF" d="M18.146,5.156c2.086,0,3.784,1.697,3.784,3.784s-1.697,3.784-3.784,3.784s-3.784-1.697-3.784-3.784
			S16.06,5.156,18.146,5.156 M18.146,3.617c-2.94,0-5.323,2.383-5.323,5.323s2.383,5.323,5.323,5.323s5.323-2.383,5.323-5.323
			S21.086,3.617,18.146,3.617L18.146,3.617z"/>
		<rect x="17.12" y="14.155" fill="#FFFFFF" width="2.052" height="3.762"/>
		<rect x="15.634" y="15.865" fill="#FFFFFF" width="5.024" height="1.026"/>
	</g>
</g>
</svg>
