<?xml version="1.0" encoding="utf-8"?>
<!-- Generator: Adobe Illustrator 18.0.0, SVG Export Plug-In . SVG Version: 6.00 Build 0)  -->
<!DOCTYPE svg PUBLIC "-//W3C//DTD SVG 1.1//EN" "http://www.w3.org/Graphics/SVG/1.1/DTD/svg11.dtd">
<svg version="1.1" id="图层_1" xmlns="http://www.w3.org/2000/svg" xmlns:xlink="http://www.w3.org/1999/xlink" x="0px" y="0px"
	 width="36px" height="36px" viewBox="0 0 36 36" enable-background="new 0 0 36 36" xml:space="preserve">
<g>
	<path fill="#FFFFFF" stroke="#C6C6C6" stroke-width="1.0261" stroke-miterlimit="10" d="M0,34.11V2.58
		c0-1.234,1.001-2.235,2.235-2.235H33.68c1.234,0,2.235,1.001,2.235,2.235v31.531c0,1.234-1,2.234-2.234,2.234H2.235
		C1.001,36.345,0,35.344,0,34.11z"/>
	<linearGradient id="SVGID_1_" gradientUnits="userSpaceOnUse" x1="18.0428" y1="34.6348" x2="18.0428" y2="1.8841">
		<stop  offset="0" style="stop-color:#76797A"/>
		<stop  offset="1" style="stop-color:#5F6263"/>
	</linearGradient>
	<path fill="url(#SVGID_1_)" d="M33.093,34.635h-30.1c-0.756,0-1.368-0.613-1.368-1.368V3.252c0-0.756,0.613-1.368,1.368-1.368h30.1
		c0.756,0,1.368,0.613,1.368,1.368v30.014C34.461,34.022,33.848,34.635,33.093,34.635z"/>
	<g>
		<path fill="#D5D6D6" d="M13.375,29.132h-1.19v2.417h-1.143v-2.417H6.701v-0.764l4.118-6.133h1.365V28.2h1.19V29.132z M11.042,28.2
			v-3.902c0-0.276,0.008-0.596,0.024-0.956h-0.024c-0.056,0.152-0.174,0.391-0.354,0.716L7.915,28.2H11.042z"/>
		<path fill="#D5D6D6" d="M14.361,27.075c0-1.643,0.272-2.887,0.817-3.73s1.335-1.266,2.369-1.266c1.972,0,2.958,1.592,2.958,4.774
			c0,1.571-0.278,2.772-0.833,3.604c-0.555,0.831-1.334,1.247-2.336,1.247c-0.946,0-1.679-0.395-2.198-1.185
			C14.62,29.732,14.361,28.583,14.361,27.075z M15.563,27.022c0,2.473,0.627,3.71,1.882,3.71c1.235,0,1.852-1.257,1.852-3.771
			c0-2.601-0.605-3.901-1.816-3.901C16.203,23.06,15.563,24.38,15.563,27.022z"/>
		<path fill="#D5D6D6" d="M29.278,30.911c-0.93,0.529-1.98,0.794-3.15,0.794c-1.347,0-2.432-0.426-3.256-1.277
			s-1.236-1.989-1.236-3.412c0-1.439,0.455-2.622,1.365-3.548c0.91-0.926,2.076-1.389,3.499-1.389c1.006,0,1.858,0.16,2.555,0.481
			v1.298c-0.746-0.469-1.633-0.703-2.664-0.703c-1.014,0-1.85,0.347-2.507,1.04c-0.658,0.693-0.986,1.607-0.986,2.742
			c0,1.166,0.303,2.074,0.908,2.724c0.605,0.649,1.423,0.974,2.453,0.974c0.709,0,1.313-0.136,1.81-0.408v-2.52h-2.02v-1.064h3.229
			V30.911z"/>
	</g>
	<g>
		<g>
			<polygon fill="#D5D6D6" points="10.507,11.272 8.266,8.94 10.507,6.608 			"/>
			<polygon fill="#D5D6D6" points="25.407,11.272 27.649,8.94 25.407,6.608 			"/>
			<rect x="9.943" y="8.417" fill="#D5D6D6" width="16.162" height="1.046"/>
		</g>
		<path fill="#D5D6D6" d="M18.146,5.156c2.086,0,3.784,1.697,3.784,3.784s-1.697,3.784-3.784,3.784s-3.784-1.697-3.784-3.784
			S16.06,5.156,18.146,5.156 M18.146,3.617c-2.94,0-5.323,2.383-5.323,5.323s2.383,5.323,5.323,5.323s5.323-2.383,5.323-5.323
			S21.086,3.617,18.146,3.617L18.146,3.617z"/>
		<rect x="17.12" y="14.155" fill="#D5D6D6" width="2.052" height="3.762"/>
		<rect x="15.634" y="15.865" fill="#D5D6D6" width="5.024" height="1.026"/>
	</g>
</g>
</svg>
