<?xml version="1.0" encoding="utf-8"?>
<!-- Generator: Adobe Illustrator 18.0.0, SVG Export Plug-In . SVG Version: 6.00 Build 0)  -->
<!DOCTYPE svg PUBLIC "-//W3C//DTD SVG 1.1//EN" "http://www.w3.org/Graphics/SVG/1.1/DTD/svg11.dtd">
<svg version="1.1" id="图层_1" xmlns="http://www.w3.org/2000/svg" xmlns:xlink="http://www.w3.org/1999/xlink" x="0px" y="0px"
	 width="42px" height="42px" viewBox="0 0 42 42" enable-background="new 0 0 42 42" xml:space="preserve">
<g>
	<path fill="#FFFFFF" d="M3.711,40.332c-1.165,0-2.113-0.948-2.113-2.113V3.642c0-1.165,0.948-2.113,2.113-2.113h34.578
		c1.165,0,2.112,0.948,2.112,2.113v34.578c0,1.165-0.947,2.113-2.112,2.113H3.711z"/>
	<path fill="#AFAFAF" d="M38.289,2.057c0.874,0,1.585,0.711,1.585,1.585v34.577c0,0.874-0.711,1.585-1.585,1.585H3.711
		c-0.874,0-1.585-0.711-1.585-1.585V3.642c0-0.874,0.711-1.585,1.585-1.585H38.289 M38.289,1.001H3.711
		c-1.459,0-2.641,1.182-2.641,2.641v34.577c0,1.459,1.182,2.641,2.641,2.641h34.577c1.459,0,2.641-1.182,2.641-2.641V3.642
		C40.93,2.183,39.747,1.001,38.289,1.001L38.289,1.001z"/>
</g>
<g>
	<linearGradient id="SVGID_1_" gradientUnits="userSpaceOnUse" x1="20.9994" y1="38.5829" x2="20.9994" y2="3.2776">
		<stop  offset="0" style="stop-color:#2CA539"/>
		<stop  offset="1" style="stop-color:#009117"/>
	</linearGradient>
	<path fill="url(#SVGID_1_)" d="M3.711,38.583c-0.2,0-0.364-0.164-0.364-0.364V3.642c0-0.2,0.164-0.364,0.364-0.364h34.578
		c0.2,0,0.363,0.164,0.363,0.364v34.577c0,0.2-0.163,0.364-0.363,0.364H3.711z"/>
</g>
<g>
	<g>
		<g>
			<polygon fill="#F5F5F5" points="8.859,9.513 11.989,6.927 11.989,12.099 			"/>
			<path fill="#F5F5F5" d="M20.481,15.813c-1.594-1.882-2.614-3.184-3.12-3.978c-0.685-1.077-1.214-1.272-1.393-1.284l-4.741,0.028
				V8.382h4.41c0.599-0.087,2.105-0.037,3.578,2.274c0.306,0.481,1.065,1.521,2.942,3.739L20.481,15.813z"/>
		</g>
		<g>
			<polygon fill="#F5F5F5" points="33.14,19.699 30.01,22.285 30.01,17.113 			"/>
			<path fill="#F5F5F5" d="M21.518,13.399c1.594,1.882,2.614,3.184,3.12,3.978c0.685,1.077,1.214,1.272,1.393,1.284l4.741-0.028
				v2.197h-4.41c-0.599,0.087-2.105,0.037-3.578-2.274c-0.306-0.481-1.065-1.521-2.942-3.739L21.518,13.399z"/>
		</g>
	</g>
	<g>
		<g>
			<polygon fill="#F5F5F5" points="33.14,9.513 30.01,6.927 30.01,12.099 			"/>
			<path fill="#F5F5F5" d="M21.518,15.813c1.594-1.882,2.614-3.184,3.12-3.978c0.685-1.077,1.214-1.272,1.393-1.284l4.741,0.028
				V8.382h-4.41c-0.599-0.087-2.105-0.037-3.578,2.274c-0.306,0.481-1.065,1.521-2.942,3.739L21.518,15.813z"/>
		</g>
		<g>
			<polygon fill="#F5F5F5" points="8.859,19.699 11.989,22.285 11.989,17.113 			"/>
			<path fill="#F5F5F5" d="M20.481,13.399c-1.594,1.882-2.614,3.184-3.12,3.978c-0.685,1.077-1.214,1.272-1.393,1.284l-4.741-0.028
				v2.197h4.41c0.599,0.087,2.105,0.037,3.578-2.274c0.306-0.481,1.065-1.521,2.942-3.739L20.481,13.399z"/>
		</g>
	</g>
</g>
<g>
	<path fill="#FFFFFF" d="M7.28,35.404v-7.926h4.96v0.936H8.253v2.455h3.451v0.935H8.253v3.601H7.28z"/>
	<path fill="#FFFFFF" d="M13.143,33.312l0.903-0.13c0.104,0.552,0.28,0.949,0.529,1.192s0.552,0.365,0.91,0.365
		c0.425,0,0.783-0.159,1.076-0.476C16.854,33.946,17,33.553,17,33.084c0-0.447-0.135-0.815-0.406-1.105
		c-0.271-0.29-0.615-0.435-1.033-0.435c-0.17,0-0.383,0.036-0.637,0.108l0.1-0.854c0.061,0.007,0.109,0.011,0.146,0.011
		c0.385,0,0.73-0.108,1.038-0.325c0.308-0.216,0.461-0.549,0.461-1c0-0.357-0.112-0.652-0.336-0.887
		c-0.224-0.234-0.513-0.351-0.868-0.351c-0.351,0-0.644,0.119-0.877,0.356c-0.234,0.238-0.385,0.595-0.452,1.071L13.233,29.5
		c0.11-0.652,0.361-1.158,0.752-1.516c0.391-0.359,0.878-0.538,1.459-0.538c0.401,0,0.771,0.093,1.108,0.278s0.596,0.439,0.775,0.76
		s0.269,0.661,0.269,1.021c0,0.343-0.085,0.654-0.256,0.936s-0.423,0.504-0.757,0.67c0.435,0.108,0.772,0.333,1.013,0.673
		c0.241,0.341,0.361,0.767,0.361,1.279c0,0.692-0.234,1.278-0.702,1.76c-0.468,0.481-1.06,0.722-1.775,0.722
		c-0.646,0-1.181-0.207-1.607-0.622S13.204,33.971,13.143,33.312z"/>
	<path fill="#FFFFFF" d="M18.851,31.495c0-0.937,0.089-1.691,0.269-2.263c0.179-0.571,0.444-1.012,0.797-1.322
		c0.353-0.31,0.796-0.465,1.332-0.465c0.395,0,0.741,0.085,1.038,0.257c0.298,0.171,0.544,0.418,0.737,0.741
		c0.193,0.322,0.346,0.715,0.457,1.178c0.109,0.463,0.164,1.088,0.164,1.874c0,0.93-0.088,1.681-0.266,2.251
		c-0.176,0.571-0.441,1.013-0.795,1.325c-0.352,0.312-0.798,0.468-1.336,0.468c-0.709,0-1.266-0.274-1.67-0.822
		C19.093,34.058,18.851,32.984,18.851,31.495z M19.778,31.495c0,1.301,0.142,2.167,0.424,2.598c0.283,0.431,0.631,0.646,1.046,0.646
		s0.764-0.216,1.046-0.649c0.282-0.432,0.423-1.297,0.423-2.595c0-1.305-0.141-2.171-0.423-2.601
		c-0.282-0.429-0.635-0.643-1.056-0.643c-0.415,0-0.746,0.189-0.993,0.567C19.934,29.302,19.778,30.194,19.778,31.495z"/>
	<path fill="#FFFFFF" d="M24.563,31.495c0-0.937,0.089-1.691,0.268-2.263s0.445-1.012,0.798-1.322s0.797-0.465,1.331-0.465
		c0.395,0,0.741,0.085,1.039,0.257c0.297,0.171,0.543,0.418,0.737,0.741c0.193,0.322,0.346,0.715,0.456,1.178
		c0.11,0.463,0.165,1.088,0.165,1.874c0,0.93-0.088,1.681-0.266,2.251c-0.177,0.571-0.442,1.013-0.795,1.325
		c-0.353,0.312-0.798,0.468-1.337,0.468c-0.708,0-1.266-0.274-1.67-0.822C24.806,34.058,24.563,32.984,24.563,31.495z
		 M25.491,31.495c0,1.301,0.141,2.167,0.424,2.598c0.282,0.431,0.631,0.646,1.045,0.646c0.415,0,0.764-0.216,1.046-0.649
		c0.283-0.432,0.424-1.297,0.424-2.595c0-1.305-0.141-2.171-0.424-2.601c-0.282-0.429-0.634-0.643-1.056-0.643
		c-0.414,0-0.745,0.189-0.993,0.567C25.646,29.302,25.491,30.194,25.491,31.495z"/>
	<path fill="#FFFFFF" d="M30.276,31.495c0-0.937,0.089-1.691,0.268-2.263s0.445-1.012,0.798-1.322s0.797-0.465,1.331-0.465
		c0.395,0,0.741,0.085,1.039,0.257c0.297,0.171,0.543,0.418,0.737,0.741c0.193,0.322,0.346,0.715,0.456,1.178
		c0.11,0.463,0.165,1.088,0.165,1.874c0,0.93-0.088,1.681-0.266,2.251c-0.177,0.571-0.442,1.013-0.795,1.325
		c-0.353,0.312-0.798,0.468-1.337,0.468c-0.708,0-1.266-0.274-1.67-0.822C30.519,34.058,30.276,32.984,30.276,31.495z
		 M31.204,31.495c0,1.301,0.141,2.167,0.424,2.598c0.282,0.431,0.631,0.646,1.045,0.646c0.415,0,0.764-0.216,1.046-0.649
		c0.283-0.432,0.424-1.297,0.424-2.595c0-1.305-0.141-2.171-0.424-2.601c-0.282-0.429-0.634-0.643-1.056-0.643
		c-0.414,0-0.745,0.189-0.993,0.567C31.359,29.302,31.204,30.194,31.204,31.495z"/>
</g>
</svg>
