<?xml version="1.0" encoding="utf-8"?>
<!-- Generator: Adobe Illustrator 18.0.0, SVG Export Plug-In . SVG Version: 6.00 Build 0)  -->
<!DOCTYPE svg PUBLIC "-//W3C//DTD SVG 1.1//EN" "http://www.w3.org/Graphics/SVG/1.1/DTD/svg11.dtd">
<svg version="1.1" id="图层_1" xmlns="http://www.w3.org/2000/svg" xmlns:xlink="http://www.w3.org/1999/xlink" x="0px" y="0px"
	 width="42px" height="42px" viewBox="0 0 42 42" enable-background="new 0 0 42 42" xml:space="preserve">
<g>
	<path fill="#FFFFFF" d="M3.681,40.401c-1.167,0-2.116-0.949-2.116-2.116V3.646c0-1.167,0.949-2.116,2.116-2.116h34.639
		c1.167,0,2.116,0.949,2.116,2.116v34.639c0,1.167-0.949,2.116-2.116,2.116H3.681z"/>
	<path fill="#AFAFAF" d="M38.319,2.059c0.875,0,1.587,0.712,1.587,1.587v34.639c0,0.875-0.712,1.587-1.587,1.587H3.681
		c-0.875,0-1.587-0.712-1.587-1.587V3.647c0-0.875,0.712-1.587,1.587-1.587H38.319 M38.319,1.001H3.681
		c-1.461,0-2.646,1.185-2.646,2.646v34.639c0,1.461,1.185,2.646,2.646,2.646h34.639c1.461,0,2.646-1.185,2.646-2.646V3.647
		C40.965,2.186,39.78,1.001,38.319,1.001L38.319,1.001z"/>
</g>
<g>
	<linearGradient id="SVGID_1_" gradientUnits="userSpaceOnUse" x1="20.9994" y1="38.6497" x2="20.9994" y2="3.282">
		<stop  offset="0" style="stop-color:#FF7F01"/>
		<stop  offset="1" style="stop-color:#F05800"/>
	</linearGradient>
	<path fill="url(#SVGID_1_)" d="M3.68,38.65c-0.201,0-0.365-0.164-0.365-0.365V3.647c0-0.201,0.164-0.365,0.365-0.365H38.32
		c0.201,0,0.363,0.164,0.363,0.365v34.638c0,0.201-0.163,0.365-0.363,0.365H3.68z"/>
</g>
<g>
	<g>
		<g>
			<polygon fill="#F5F5F5" points="8.837,9.529 11.973,6.938 11.973,12.119 			"/>
			<path fill="#F5F5F5" d="M20.48,15.839c-1.596-1.885-2.619-3.19-3.125-3.985c-0.686-1.079-1.216-1.274-1.395-1.286l-4.749,0.028
				V8.395h4.418c0.6-0.087,2.109-0.037,3.584,2.278c0.307,0.482,1.067,1.524,2.947,3.745L20.48,15.839z"/>
		</g>
		<g>
			<polygon fill="#F5F5F5" points="33.161,19.732 30.026,22.323 30.026,17.142 			"/>
			<path fill="#F5F5F5" d="M21.519,13.422c1.596,1.885,2.619,3.19,3.125,3.985c0.686,1.079,1.216,1.274,1.395,1.286l4.749-0.028
				v2.201h-4.418c-0.6,0.087-2.109,0.037-3.584-2.278c-0.307-0.482-1.067-1.524-2.947-3.745L21.519,13.422z"/>
		</g>
	</g>
	<g>
		<g>
			<polygon fill="#F5F5F5" points="33.161,9.529 30.026,6.938 30.026,12.119 			"/>
			<path fill="#F5F5F5" d="M21.519,15.839c1.596-1.885,2.619-3.19,3.125-3.985c0.686-1.079,1.216-1.274,1.395-1.286l4.749,0.028
				V8.395h-4.418c-0.6-0.087-2.109-0.037-3.584,2.278c-0.307,0.482-1.067,1.524-2.947,3.745L21.519,15.839z"/>
		</g>
		<g>
			<polygon fill="#F5F5F5" points="8.837,19.732 11.973,22.323 11.973,17.142 			"/>
			<path fill="#F5F5F5" d="M20.48,13.422c-1.596,1.885-2.619,3.19-3.125,3.985c-0.686,1.079-1.216,1.274-1.395,1.286l-4.749-0.028
				v2.201h4.418c0.6,0.087,2.109,0.037,3.584-2.278c0.307-0.482,1.067-1.524,2.947-3.745L20.48,13.422z"/>
		</g>
	</g>
</g>
<g>
	<path fill="#FFFFFF" d="M7.255,35.397v-7.939h4.969v0.937H8.23v2.459h3.457v0.937H8.23v3.607H7.255z"/>
	<path fill="#FFFFFF" d="M13.129,33.302l0.904-0.13c0.104,0.552,0.281,0.95,0.53,1.194c0.25,0.243,0.553,0.365,0.912,0.365
		c0.425,0,0.785-0.159,1.078-0.477c0.293-0.317,0.44-0.711,0.44-1.181c0-0.448-0.136-0.817-0.407-1.107
		c-0.271-0.291-0.616-0.437-1.035-0.437c-0.171,0-0.384,0.036-0.638,0.108l0.101-0.855c0.06,0.007,0.108,0.011,0.146,0.011
		c0.385,0,0.732-0.108,1.04-0.325s0.462-0.55,0.462-1.002c0-0.357-0.112-0.653-0.337-0.888c-0.224-0.235-0.514-0.353-0.869-0.353
		c-0.352,0-0.645,0.119-0.879,0.357s-0.385,0.596-0.452,1.072l-0.904-0.173c0.111-0.653,0.362-1.16,0.754-1.52
		c0.392-0.359,0.879-0.538,1.462-0.538c0.402,0,0.772,0.093,1.11,0.278c0.338,0.187,0.597,0.439,0.776,0.761
		s0.269,0.663,0.269,1.023c0,0.344-0.085,0.656-0.256,0.938c-0.171,0.281-0.424,0.506-0.759,0.672
		c0.435,0.108,0.773,0.333,1.015,0.674s0.362,0.769,0.362,1.281c0,0.693-0.234,1.28-0.703,1.763
		c-0.469,0.481-1.062,0.723-1.779,0.723c-0.646,0-1.183-0.207-1.61-0.623C13.433,34.5,13.189,33.962,13.129,33.302z"/>
	<path fill="#FFFFFF" d="M18.847,31.481c0-0.938,0.089-1.694,0.269-2.267s0.445-1.014,0.799-1.324
		c0.354-0.31,0.798-0.465,1.334-0.465c0.396,0,0.742,0.085,1.04,0.257s0.544,0.419,0.739,0.742c0.193,0.323,0.346,0.717,0.457,1.181
		c0.109,0.464,0.166,1.089,0.166,1.876c0,0.932-0.09,1.684-0.268,2.256s-0.441,1.015-0.795,1.327s-0.8,0.469-1.34,0.469
		c-0.71,0-1.268-0.274-1.673-0.823C19.089,34.049,18.847,32.973,18.847,31.481z M19.776,31.481c0,1.304,0.142,2.171,0.425,2.603
		c0.283,0.432,0.632,0.647,1.047,0.647c0.416,0,0.765-0.217,1.048-0.65c0.282-0.433,0.425-1.3,0.425-2.6
		c0-1.307-0.143-2.175-0.425-2.604c-0.283-0.43-0.636-0.645-1.058-0.645c-0.416,0-0.747,0.189-0.995,0.568
		C19.932,29.285,19.776,30.179,19.776,31.481z"/>
	<path fill="#FFFFFF" d="M24.569,31.481c0-0.938,0.09-1.694,0.27-2.267c0.179-0.572,0.445-1.014,0.799-1.324
		c0.353-0.31,0.798-0.465,1.334-0.465c0.395,0,0.741,0.085,1.04,0.257c0.298,0.172,0.544,0.419,0.738,0.742s0.347,0.717,0.457,1.181
		s0.166,1.089,0.166,1.876c0,0.932-0.089,1.684-0.267,2.256s-0.442,1.015-0.796,1.327s-0.8,0.469-1.339,0.469
		c-0.711,0-1.269-0.274-1.674-0.823C24.813,34.049,24.569,32.973,24.569,31.481z M25.499,31.481c0,1.304,0.142,2.171,0.425,2.603
		s0.632,0.647,1.048,0.647c0.415,0,0.764-0.217,1.047-0.65c0.283-0.433,0.425-1.3,0.425-2.6c0-1.307-0.142-2.175-0.425-2.604
		s-0.636-0.645-1.058-0.645c-0.415,0-0.747,0.189-0.994,0.568C25.655,29.285,25.499,30.179,25.499,31.481z"/>
	<path fill="#FFFFFF" d="M30.292,31.481c0-0.938,0.09-1.694,0.27-2.267c0.179-0.572,0.445-1.014,0.799-1.324
		c0.353-0.31,0.798-0.465,1.334-0.465c0.395,0,0.741,0.085,1.04,0.257c0.298,0.172,0.544,0.419,0.738,0.742s0.347,0.717,0.457,1.181
		s0.166,1.089,0.166,1.876c0,0.932-0.089,1.684-0.267,2.256s-0.442,1.015-0.796,1.327s-0.8,0.469-1.339,0.469
		c-0.711,0-1.269-0.274-1.674-0.823C30.535,34.049,30.292,32.973,30.292,31.481z M31.222,31.481c0,1.304,0.142,2.171,0.425,2.603
		s0.632,0.647,1.048,0.647c0.415,0,0.764-0.217,1.047-0.65c0.283-0.433,0.425-1.3,0.425-2.6c0-1.307-0.142-2.175-0.425-2.604
		s-0.636-0.645-1.058-0.645c-0.415,0-0.747,0.189-0.994,0.568C31.378,29.285,31.222,30.179,31.222,31.481z"/>
</g>
</svg>
