<?xml version="1.0" encoding="utf-8"?>
<!-- Generator: Adobe Illustrator 18.0.0, SVG Export Plug-In . SVG Version: 6.00 Build 0)  -->
<!DOCTYPE svg PUBLIC "-//W3C//DTD SVG 1.1//EN" "http://www.w3.org/Graphics/SVG/1.1/DTD/svg11.dtd">
<svg version="1.1" id="图层_1" xmlns="http://www.w3.org/2000/svg" xmlns:xlink="http://www.w3.org/1999/xlink" x="0px" y="0px"
	 width="42px" height="42px" viewBox="0 0 42 42" enable-background="new 0 0 42 42" xml:space="preserve">
<g>
	<path fill="#FFFFFF" d="M3.711,40.333c-1.165,0-2.113-0.948-2.113-2.113V3.641c0-1.165,0.948-2.113,2.113-2.113h34.578
		c1.165,0,2.113,0.948,2.113,2.113V38.22c0,1.165-0.948,2.113-2.113,2.113H3.711z"/>
	<path fill="#AFAFAF" d="M38.289,2.056c0.874,0,1.585,0.711,1.585,1.585V38.22c0,0.874-0.711,1.585-1.585,1.585H3.711
		c-0.874,0-1.585-0.711-1.585-1.585V3.641c0-0.874,0.711-1.585,1.585-1.585H38.289 M38.289,1H3.711C2.252,1,1.07,2.182,1.07,3.641
		V38.22c0,1.459,1.182,2.641,2.641,2.641h34.579c1.459,0,2.641-1.182,2.641-2.641V3.641C40.93,2.182,39.748,1,38.289,1L38.289,1z"/>
</g>
<g>
	<linearGradient id="SVGID_1_" gradientUnits="userSpaceOnUse" x1="20.9994" y1="38.5835" x2="20.9994" y2="3.2771">
		<stop  offset="0" style="stop-color:#00AEF9"/>
		<stop  offset="1" style="stop-color:#0092E1"/>
	</linearGradient>
	<path fill="url(#SVGID_1_)" d="M3.71,38.583c-0.2,0-0.364-0.164-0.364-0.364V3.641c0-0.2,0.164-0.364,0.364-0.364H38.29
		c0.2,0,0.363,0.164,0.363,0.364v34.578c0,0.2-0.163,0.364-0.363,0.364H3.71z"/>
</g>
<g>
	<g>
		<g>
			<polygon fill="#F5F5F5" points="8.858,9.513 11.988,6.927 11.988,12.099 			"/>
			<path fill="#F5F5F5" d="M20.481,15.813c-1.594-1.882-2.614-3.184-3.12-3.978c-0.685-1.077-1.214-1.272-1.393-1.284l-4.741,0.028
				V8.381h4.41c0.599-0.087,2.105-0.037,3.578,2.274c0.306,0.481,1.065,1.522,2.942,3.739L20.481,15.813z"/>
		</g>
		<g>
			<polygon fill="#F5F5F5" points="33.14,19.699 30.01,22.285 30.01,17.113 			"/>
			<path fill="#F5F5F5" d="M21.518,13.399c1.594,1.882,2.614,3.184,3.12,3.978c0.685,1.077,1.214,1.272,1.393,1.284l4.741-0.028
				v2.197h-4.41c-0.599,0.087-2.105,0.037-3.578-2.274c-0.306-0.481-1.065-1.522-2.942-3.739L21.518,13.399z"/>
		</g>
	</g>
	<g>
		<g>
			<polygon fill="#F5F5F5" points="33.14,9.513 30.01,6.927 30.01,12.099 			"/>
			<path fill="#F5F5F5" d="M21.518,15.813c1.594-1.882,2.614-3.184,3.12-3.978c0.685-1.077,1.214-1.272,1.393-1.284l4.741,0.028
				V8.381h-4.41c-0.599-0.087-2.105-0.037-3.578,2.274c-0.306,0.481-1.065,1.522-2.942,3.739L21.518,15.813z"/>
		</g>
		<g>
			<polygon fill="#F5F5F5" points="8.858,19.699 11.988,22.285 11.988,17.113 			"/>
			<path fill="#F5F5F5" d="M20.481,13.399c-1.594,1.882-2.614,3.184-3.12,3.978c-0.685,1.077-1.214,1.272-1.393,1.284l-4.741-0.028
				v2.197h4.41c0.599,0.087,2.105,0.037,3.578-2.274c0.306-0.481,1.065-1.522,2.942-3.739L20.481,13.399z"/>
		</g>
	</g>
</g>
<g>
	<path fill="#FFFFFF" d="M7.28,35.405v-7.926h4.96v0.935H8.253v2.455h3.451v0.936H8.253v3.601H7.28z"/>
	<path fill="#FFFFFF" d="M13.144,33.313l0.902-0.13c0.104,0.552,0.28,0.949,0.529,1.192c0.249,0.243,0.553,0.365,0.91,0.365
		c0.425,0,0.783-0.159,1.076-0.476C16.854,33.947,17,33.554,17,33.085c0-0.447-0.135-0.815-0.406-1.105
		c-0.271-0.291-0.615-0.436-1.033-0.436c-0.17,0-0.383,0.036-0.637,0.108l0.101-0.854c0.06,0.007,0.108,0.011,0.146,0.011
		c0.384,0,0.73-0.108,1.038-0.324s0.461-0.55,0.461-1c0-0.357-0.111-0.652-0.336-0.887c-0.224-0.234-0.513-0.352-0.867-0.352
		c-0.352,0-0.645,0.119-0.878,0.357c-0.234,0.238-0.385,0.595-0.451,1.07l-0.903-0.173c0.11-0.652,0.361-1.158,0.753-1.517
		c0.391-0.358,0.877-0.538,1.459-0.538c0.401,0,0.771,0.093,1.108,0.279c0.338,0.186,0.596,0.438,0.775,0.759
		c0.179,0.321,0.268,0.662,0.268,1.022c0,0.342-0.085,0.654-0.255,0.935c-0.171,0.281-0.424,0.505-0.758,0.67
		c0.435,0.108,0.772,0.333,1.013,0.673c0.241,0.341,0.361,0.767,0.361,1.279c0,0.692-0.233,1.278-0.702,1.76
		c-0.468,0.481-1.06,0.722-1.775,0.722c-0.646,0-1.181-0.208-1.607-0.622C13.446,34.509,13.203,33.972,13.144,33.313z"/>
	<path fill="#FFFFFF" d="M18.852,31.496c0-0.938,0.089-1.691,0.268-2.263s0.445-1.012,0.798-1.322s0.797-0.465,1.332-0.465
		c0.395,0,0.74,0.086,1.038,0.257c0.297,0.171,0.543,0.418,0.737,0.741c0.193,0.323,0.346,0.716,0.456,1.179
		c0.11,0.463,0.166,1.087,0.166,1.874c0,0.93-0.089,1.68-0.267,2.251c-0.177,0.571-0.441,1.013-0.795,1.325
		c-0.353,0.312-0.798,0.468-1.336,0.468c-0.709,0-1.266-0.274-1.671-0.822C19.094,34.059,18.852,32.984,18.852,31.496z
		 M19.779,31.496c0,1.301,0.141,2.167,0.424,2.598c0.282,0.431,0.631,0.646,1.046,0.646c0.414,0,0.763-0.216,1.045-0.649
		c0.283-0.432,0.424-1.297,0.424-2.595c0-1.305-0.141-2.172-0.424-2.601c-0.282-0.429-0.634-0.644-1.056-0.644
		c-0.414,0-0.745,0.189-0.993,0.568C19.935,29.303,19.779,30.195,19.779,31.496z"/>
	<path fill="#FFFFFF" d="M24.564,31.496c0-0.938,0.089-1.691,0.268-2.263s0.445-1.012,0.798-1.322s0.797-0.465,1.332-0.465
		c0.395,0,0.74,0.086,1.038,0.257c0.297,0.171,0.543,0.418,0.737,0.741c0.193,0.323,0.346,0.716,0.456,1.179
		c0.11,0.463,0.166,1.087,0.166,1.874c0,0.93-0.089,1.68-0.267,2.251c-0.177,0.571-0.441,1.013-0.795,1.325
		c-0.353,0.312-0.798,0.468-1.336,0.468c-0.709,0-1.266-0.274-1.671-0.822C24.807,34.059,24.564,32.984,24.564,31.496z
		 M25.492,31.496c0,1.301,0.141,2.167,0.424,2.598c0.282,0.431,0.631,0.646,1.046,0.646c0.414,0,0.763-0.216,1.045-0.649
		c0.283-0.432,0.424-1.297,0.424-2.595c0-1.305-0.141-2.172-0.424-2.601c-0.282-0.429-0.634-0.644-1.056-0.644
		c-0.414,0-0.745,0.189-0.993,0.568C25.647,29.303,25.492,30.195,25.492,31.496z"/>
	<path fill="#FFFFFF" d="M30.277,31.496c0-0.938,0.089-1.691,0.268-2.263s0.445-1.012,0.798-1.322s0.797-0.465,1.332-0.465
		c0.395,0,0.74,0.086,1.038,0.257c0.297,0.171,0.543,0.418,0.737,0.741c0.193,0.323,0.346,0.716,0.456,1.179
		c0.11,0.463,0.166,1.087,0.166,1.874c0,0.93-0.089,1.68-0.267,2.251c-0.177,0.571-0.441,1.013-0.795,1.325
		c-0.353,0.312-0.798,0.468-1.336,0.468c-0.709,0-1.266-0.274-1.671-0.822C30.52,34.059,30.277,32.984,30.277,31.496z
		 M31.205,31.496c0,1.301,0.141,2.167,0.424,2.598c0.282,0.431,0.631,0.646,1.046,0.646c0.414,0,0.763-0.216,1.045-0.649
		c0.283-0.432,0.424-1.297,0.424-2.595c0-1.305-0.141-2.172-0.424-2.601c-0.282-0.429-0.634-0.644-1.056-0.644
		c-0.414,0-0.745,0.189-0.993,0.568C31.36,29.303,31.205,30.195,31.205,31.496z"/>
</g>
</svg>
