<?xml version="1.0" encoding="utf-8"?>
<!-- Generator: Adobe Illustrator 18.0.0, SVG Export Plug-In . SVG Version: 6.00 Build 0)  -->
<!DOCTYPE svg PUBLIC "-//W3C//DTD SVG 1.1//EN" "http://www.w3.org/Graphics/SVG/1.1/DTD/svg11.dtd">
<svg version="1.1" id="图层_1" xmlns="http://www.w3.org/2000/svg" xmlns:xlink="http://www.w3.org/1999/xlink" x="0px" y="0px"
	 width="36px" height="36px" viewBox="0 0 36 36" enable-background="new 0 0 36 36" xml:space="preserve">
<g>
	<path fill="#FFFFFF" stroke="#C6C6C6" stroke-width="0.9976" stroke-miterlimit="10" d="M0.541,33.327V2.673
		c0-1.2,0.973-2.173,2.173-2.173h30.572c1.2,0,2.173,0.973,2.173,2.173v30.655c0,1.2-0.973,2.172-2.172,2.172H2.714
		C1.514,35.5,0.541,34.527,0.541,33.327z"/>
	<linearGradient id="SVGID_1_" gradientUnits="userSpaceOnUse" x1="18.0831" y1="33.8373" x2="18.0831" y2="1.9963">
		<stop  offset="0" style="stop-color:#2CA539"/>
		<stop  offset="1" style="stop-color:#009117"/>
	</linearGradient>
	<path fill="url(#SVGID_1_)" d="M32.715,33.837H3.451c-0.735,0-1.33-0.596-1.33-1.33V3.327c0-0.735,0.596-1.33,1.33-1.33h29.264
		c0.735,0,1.33,0.596,1.33,1.33v29.181C34.045,33.242,33.45,33.837,32.715,33.837z"/>
	<g>
		<path fill="#FFFFFF" d="M12.901,22.945c-0.471-0.242-0.965-0.363-1.479-0.363c-0.783,0-1.413,0.341-1.888,1.023
			c-0.476,0.682-0.717,1.614-0.725,2.794h0.029c0.429-0.83,1.113-1.245,2.052-1.245c0.783,0,1.409,0.255,1.877,0.766
			c0.468,0.511,0.702,1.189,0.702,2.034c0,0.885-0.27,1.612-0.81,2.18c-0.54,0.569-1.229,0.854-2.066,0.854
			c-0.92,0-1.642-0.359-2.166-1.079c-0.524-0.719-0.786-1.739-0.786-3.06c0-1.598,0.344-2.867,1.032-3.808
			c0.688-0.941,1.593-1.412,2.715-1.412c0.643,0,1.148,0.088,1.514,0.263V22.945z M8.879,27.872c0,0.596,0.159,1.107,0.477,1.531
			c0.318,0.425,0.74,0.637,1.266,0.637c0.499,0,0.904-0.183,1.216-0.549c0.312-0.366,0.468-0.838,0.468-1.415
			c0-0.623-0.147-1.108-0.441-1.455c-0.294-0.347-0.713-0.52-1.254-0.52c-0.514,0-0.931,0.175-1.251,0.526
			C9.039,26.978,8.879,27.393,8.879,27.872z"/>
		<path fill="#FFFFFF" d="M20.097,30.836H14.59v-0.994l2.63-2.625c0.725-0.725,1.21-1.299,1.455-1.721
			c0.246-0.423,0.369-0.86,0.369-1.313c0-0.514-0.145-0.909-0.433-1.183c-0.289-0.275-0.705-0.412-1.251-0.412
			c-0.807,0-1.577,0.343-2.309,1.029v-1.164c0.713-0.549,1.543-0.824,2.49-0.824c0.814,0,1.457,0.22,1.929,0.661
			c0.472,0.44,0.707,1.033,0.707,1.777c0,0.561-0.152,1.112-0.453,1.651c-0.303,0.54-0.874,1.227-1.716,2.061l-2.064,2.017v0.023
			h4.151V30.836z"/>
		<path fill="#FFFFFF" d="M27.117,30.836h-5.506v-0.994l2.63-2.625c0.725-0.725,1.211-1.299,1.455-1.721
			c0.246-0.423,0.368-0.86,0.368-1.313c0-0.514-0.144-0.909-0.433-1.183c-0.288-0.275-0.704-0.412-1.25-0.412
			c-0.807,0-1.576,0.343-2.309,1.029v-1.164c0.713-0.549,1.543-0.824,2.49-0.824c0.815,0,1.457,0.22,1.929,0.661
			c0.471,0.44,0.707,1.033,0.707,1.777c0,0.561-0.152,1.112-0.454,1.651c-0.302,0.54-0.873,1.227-1.716,2.061l-2.063,2.017v0.023
			h4.15V30.836z"/>
	</g>
	<g opacity="0.9">
		<g>
			<polygon fill="#FFFFFF" points="10.757,11.124 8.578,8.856 10.757,6.589 			"/>
			<polygon fill="#FFFFFF" points="25.243,11.124 27.422,8.856 25.243,6.589 			"/>
			<rect x="10.209" y="8.348" fill="#FFFFFF" width="15.713" height="1.017"/>
		</g>
		<path fill="#FFFFFF" d="M18.184,5.178c2.028,0,3.679,1.65,3.679,3.679s-1.65,3.679-3.679,3.679s-3.679-1.65-3.679-3.679
			S16.155,5.178,18.184,5.178 M18.184,3.681c-2.858,0-5.175,2.317-5.175,5.175s2.317,5.175,5.175,5.175s5.175-2.317,5.175-5.175
			S21.042,3.681,18.184,3.681L18.184,3.681z"/>
		<rect x="17.186" y="13.926" fill="#FFFFFF" width="1.995" height="3.658"/>
		<rect x="15.742" y="15.589" fill="#FFFFFF" width="4.884" height="0.998"/>
	</g>
</g>
</svg>
