<?xml version="1.0" encoding="utf-8"?>
<!-- Generator: Adobe Illustrator 18.0.0, SVG Export Plug-In . SVG Version: 6.00 Build 0)  -->
<!DOCTYPE svg PUBLIC "-//W3C//DTD SVG 1.1//EN" "http://www.w3.org/Graphics/SVG/1.1/DTD/svg11.dtd">
<svg version="1.1" id="图层_1" xmlns="http://www.w3.org/2000/svg" xmlns:xlink="http://www.w3.org/1999/xlink" x="0px" y="0px"
	 width="42px" height="42px" viewBox="0 0 42 42" enable-background="new 0 0 42 42" xml:space="preserve">
<path fill="none" stroke="#C6C6C6" stroke-width="1.1401" stroke-miterlimit="10" d="M1.047,38.517V3.483
	C1.047,2.112,2.159,1,3.531,1h34.939c1.371,0,2.483,1.112,2.483,2.483v35.034c0,1.371-1.111,2.483-2.483,2.483H3.531
	C2.159,41,1.047,39.888,1.047,38.517z"/>
<linearGradient id="SVGID_1_" gradientUnits="userSpaceOnUse" x1="21.095" y1="39.0998" x2="21.095" y2="2.7101">
	<stop  offset="0" style="stop-color:#FF7F01"/>
	<stop  offset="1" style="stop-color:#F05800"/>
</linearGradient>
<path fill="url(#SVGID_1_)" d="M37.817,39.1H4.373c-0.84,0-1.52-0.681-1.52-1.52V4.23c0-0.84,0.681-1.52,1.52-1.52h33.444
	c0.84,0,1.52,0.681,1.52,1.52V37.58C39.337,38.419,38.657,39.1,37.817,39.1z"/>
<g>
	<polygon fill="#FFFFFF" points="29.98,5.295 33.472,8.179 33.472,16.228 29.98,19.112 	"/>
	<polygon fill="#FFFFFF" points="12.02,19.112 8.528,16.228 8.528,8.179 12.02,5.295 	"/>
	<g>
		<polygon fill="#FFFFFF" points="16.713,19.016 14.222,16.425 16.713,13.834 		"/>
		<polygon fill="#FFFFFF" points="25.287,19.016 27.778,16.425 25.287,13.834 		"/>
		<rect x="16.086" y="15.345" fill="#FFFFFF" width="10.167" height="2.16"/>
	</g>
	<g>
		<polygon fill="#FFFFFF" points="16.713,11.052 14.222,8.461 16.713,5.87 		"/>
		<polygon fill="#FFFFFF" points="25.287,11.052 27.778,8.461 25.287,5.87 		"/>
		<rect x="16.086" y="7.381" fill="#FFFFFF" width="10.167" height="2.16"/>
	</g>
</g>
<g>
	<path fill="#FFFFFF" d="M7.321,30.504c-0.275-0.195-0.479-0.471-0.609-0.828c-0.132-0.354-0.197-0.808-0.197-1.357
		c0-0.818,0.171-1.44,0.513-1.87s0.84-0.645,1.493-0.645c0.64,0,1.13,0.215,1.47,0.645s0.51,1.047,0.51,1.855
		c0,0.564-0.063,1.023-0.19,1.372c-0.127,0.352-0.327,0.632-0.603,0.84c0.306,0.161,0.54,0.457,0.699,0.889
		c0.16,0.43,0.24,0.977,0.24,1.638c0,0.906-0.183,1.599-0.547,2.08c-0.364,0.479-0.891,0.72-1.58,0.72
		c-0.715,0-1.254-0.247-1.616-0.737s-0.543-1.221-0.543-2.19c0-0.608,0.079-1.111,0.237-1.506S6.997,30.714,7.321,30.504z
		 M8.547,34.477c0.253,0,0.436-0.117,0.547-0.354c0.111-0.234,0.166-0.637,0.166-1.206c0-0.596-0.055-1.011-0.164-1.25
		C8.988,31.43,8.805,31.31,8.547,31.31c-0.289,0-0.493,0.107-0.613,0.317c-0.121,0.21-0.181,0.588-0.181,1.13
		c0,0.647,0.06,1.096,0.181,1.345C8.054,34.352,8.258,34.477,8.547,34.477z M8.534,29.777c0.231,0,0.396-0.103,0.493-0.308
		c0.098-0.208,0.146-0.566,0.146-1.077c0-0.542-0.049-0.916-0.146-1.118c-0.098-0.2-0.271-0.303-0.52-0.303
		c-0.244,0-0.416,0.1-0.516,0.3c-0.1,0.2-0.15,0.566-0.15,1.099c0,0.54,0.051,0.908,0.154,1.108
		C8.096,29.677,8.276,29.777,8.534,29.777z"/>
	<path fill="#FFFFFF" d="M11.606,28.224c0-0.759,0.198-1.355,0.596-1.785c0.398-0.432,0.95-0.647,1.656-0.647
		c0.671,0,1.202,0.222,1.597,0.667c0.393,0.444,0.59,1.047,0.59,1.807v4.939c0,0.842-0.194,1.494-0.58,1.951
		c-0.387,0.459-0.935,0.688-1.647,0.688c-0.719,0-1.268-0.229-1.646-0.688c-0.378-0.457-0.566-1.121-0.566-1.992V28.224z
		 M12.986,33.576c0,0.271,0.074,0.491,0.226,0.654c0.15,0.164,0.352,0.247,0.602,0.247c0.236,0,0.424-0.081,0.563-0.239
		c0.139-0.161,0.211-0.381,0.216-0.662v-5.637c0-0.227-0.074-0.41-0.223-0.554c-0.148-0.142-0.343-0.212-0.583-0.212
		c-0.232,0-0.424,0.071-0.574,0.212c-0.151,0.144-0.226,0.322-0.226,0.542V33.576z"/>
</g>
<path fill="#FFFFFF" d="M18.537,27.873l2.549,2.551l2.56-2.551l0.652,0.652l-2.551,2.559l2.551,2.544l-0.652,0.662l-2.56-2.561
	l-2.549,2.561l-0.645-0.662l2.544-2.544l-2.544-2.559L18.537,27.873z"/>
<g>
	<path fill="#FFFFFF" d="M25.917,32.711v-1.272l2.473-6.018h1.394v6.018h0.898v1.272h-0.898v2.346H28.39v-2.346H25.917z
		 M28.39,31.439v-3.521l-1.199,3.521H28.39z"/>
	<path fill="#FFFFFF" d="M31.581,27.646c0-0.759,0.2-1.355,0.598-1.785c0.396-0.432,0.95-0.647,1.655-0.647
		c0.671,0,1.204,0.222,1.597,0.667s0.588,1.047,0.588,1.807v4.939c0,0.842-0.193,1.494-0.579,1.951
		c-0.386,0.459-0.935,0.688-1.646,0.688c-0.72,0-1.27-0.229-1.648-0.688c-0.376-0.457-0.566-1.121-0.566-1.992V27.646z
		 M32.96,32.997c0,0.271,0.076,0.491,0.227,0.654s0.352,0.247,0.601,0.247c0.237,0,0.425-0.081,0.564-0.239
		c0.139-0.161,0.21-0.381,0.215-0.662V27.36c0-0.227-0.073-0.41-0.222-0.554c-0.149-0.142-0.342-0.212-0.583-0.212
		c-0.232,0-0.422,0.071-0.574,0.212c-0.151,0.144-0.227,0.322-0.227,0.542V32.997z"/>
</g>
</svg>
