<?xml version="1.0" encoding="utf-8"?>
<!-- Generator: Adobe Illustrator 18.0.0, SVG Export Plug-In . SVG Version: 6.00 Build 0)  -->
<!DOCTYPE svg PUBLIC "-//W3C//DTD SVG 1.1//EN" "http://www.w3.org/Graphics/SVG/1.1/DTD/svg11.dtd">
<svg version="1.1" id="图层_1" xmlns="http://www.w3.org/2000/svg" xmlns:xlink="http://www.w3.org/1999/xlink" x="0px" y="0px"
	 width="42px" height="42px" viewBox="0 0 42 42" enable-background="new 0 0 42 42" xml:space="preserve">
<path fill="none" stroke="#C6C6C6" stroke-width="1.1401" stroke-miterlimit="10" d="M1.047,38.517V3.483
	C1.047,2.112,2.159,1,3.531,1h34.939c1.371,0,2.483,1.112,2.483,2.483v35.034c0,1.371-1.111,2.483-2.483,2.483H3.531
	C2.159,41,1.047,39.888,1.047,38.517z"/>
<linearGradient id="SVGID_1_" gradientUnits="userSpaceOnUse" x1="21.095" y1="39.0998" x2="21.095" y2="2.7101">
	<stop  offset="0" style="stop-color:#2CA539"/>
	<stop  offset="1" style="stop-color:#009117"/>
</linearGradient>
<path fill="url(#SVGID_1_)" d="M37.817,39.1H4.373c-0.84,0-1.52-0.681-1.52-1.52V4.23c0-0.84,0.681-1.52,1.52-1.52h33.444
	c0.84,0,1.52,0.681,1.52,1.52V37.58C39.337,38.419,38.657,39.1,37.817,39.1z"/>
<g>
	<path fill="#FFFFFF" d="M7.292,30.528c-0.276-0.195-0.48-0.472-0.612-0.829c-0.131-0.355-0.197-0.811-0.197-1.362
		c0-0.819,0.171-1.444,0.514-1.874s0.842-0.645,1.497-0.645c0.641,0,1.133,0.215,1.473,0.645s0.51,1.05,0.51,1.86
		c0,0.565-0.063,1.024-0.19,1.376c-0.127,0.353-0.328,0.634-0.604,0.842c0.308,0.16,0.541,0.457,0.702,0.889
		c0.16,0.432,0.24,0.98,0.24,1.643c0,0.908-0.183,1.604-0.548,2.085s-0.892,0.721-1.583,0.721c-0.717,0-1.257-0.247-1.62-0.739
		S6.33,33.917,6.33,32.946c0-0.61,0.079-1.113,0.237-1.51C6.725,31.04,6.967,30.738,7.292,30.528z M8.521,34.51
		c0.254,0,0.436-0.118,0.548-0.354c0.111-0.237,0.167-0.64,0.167-1.21c0-0.597-0.055-1.014-0.165-1.252
		c-0.109-0.238-0.293-0.358-0.551-0.358c-0.289,0-0.494,0.106-0.615,0.317c-0.12,0.211-0.179,0.59-0.179,1.133
		c0,0.651,0.06,1.1,0.179,1.349C8.026,34.385,8.231,34.51,8.521,34.51z M8.507,29.799c0.232,0,0.397-0.103,0.494-0.31
		s0.146-0.566,0.146-1.079c0-0.543-0.049-0.916-0.146-1.119c-0.098-0.201-0.272-0.304-0.521-0.304c-0.245,0-0.417,0.101-0.518,0.302
		s-0.15,0.568-0.15,1.102c0,0.538,0.051,0.908,0.154,1.108S8.249,29.799,8.507,29.799z"/>
	<path fill="#FFFFFF" d="M11.587,28.242c0-0.762,0.199-1.357,0.598-1.79c0.398-0.432,0.951-0.648,1.659-0.648
		c0.673,0,1.206,0.222,1.6,0.668s0.592,1.049,0.592,1.81v4.95c0,0.847-0.194,1.499-0.582,1.958
		c-0.387,0.459-0.938,0.688-1.649,0.688c-0.721,0-1.272-0.229-1.65-0.688s-0.568-1.124-0.568-1.997V28.242z M12.97,33.607
		c0,0.272,0.074,0.49,0.226,0.654s0.352,0.248,0.603,0.248c0.237,0,0.425-0.081,0.564-0.24c0.14-0.161,0.212-0.381,0.216-0.662
		v-5.652c0-0.227-0.073-0.411-0.222-0.554s-0.344-0.214-0.586-0.214c-0.232,0-0.424,0.071-0.575,0.214s-0.226,0.322-0.226,0.541
		V33.607z"/>
</g>
<g>
	<g>
		<path fill="#FFFFFF" d="M18.53,28.167l2.555,2.555l2.568-2.555l0.652,0.652l-2.557,2.566l2.557,2.55l-0.652,0.663l-2.568-2.567
			l-2.555,2.567l-0.646-0.663l2.55-2.55l-2.55-2.566L18.53,28.167z"/>
	</g>
</g>
<g>
	<path fill="#FFFFFF" d="M25.932,32.738v-1.277l2.478-6.033h1.396v6.033h0.901v1.277h-0.901v2.351H28.41v-2.351H25.932z
		 M28.41,31.461v-3.527l-1.204,3.527H28.41z"/>
	<path fill="#FFFFFF" d="M31.61,27.66c0-0.762,0.198-1.357,0.598-1.79c0.398-0.432,0.952-0.648,1.66-0.648
		c0.671,0,1.206,0.222,1.599,0.668c0.396,0.446,0.591,1.049,0.591,1.81v4.95c0,0.847-0.193,1.499-0.581,1.958
		s-0.938,0.688-1.65,0.688c-0.72,0-1.272-0.229-1.65-0.688s-0.566-1.124-0.566-1.997V27.66z M32.992,33.025
		c0,0.272,0.076,0.49,0.227,0.654s0.352,0.248,0.603,0.248c0.237,0,0.425-0.081,0.564-0.24c0.139-0.161,0.212-0.381,0.217-0.662
		v-5.652c0-0.227-0.076-0.411-0.225-0.554s-0.342-0.214-0.583-0.214c-0.234,0-0.425,0.071-0.576,0.214s-0.227,0.322-0.227,0.541
		V33.025z"/>
</g>
<g>
	<polygon fill="#FFFFFF" points="30.075,5.295 33.567,8.179 33.567,16.228 30.075,19.112 	"/>
	<polygon fill="#FFFFFF" points="12.115,19.112 8.623,16.228 8.623,8.179 12.115,5.295 	"/>
	<g>
		<polygon fill="#FFFFFF" points="16.808,19.016 14.317,16.425 16.808,13.834 		"/>
		<polygon fill="#FFFFFF" points="25.382,19.016 27.873,16.425 25.382,13.834 		"/>
		<rect x="16.181" y="15.345" fill="#FFFFFF" width="10.167" height="2.16"/>
	</g>
	<g>
		<polygon fill="#FFFFFF" points="16.808,11.052 14.317,8.461 16.808,5.87 		"/>
		<polygon fill="#FFFFFF" points="25.382,11.052 27.873,8.461 25.382,5.87 		"/>
		<rect x="16.181" y="7.381" fill="#FFFFFF" width="10.167" height="2.16"/>
	</g>
</g>
</svg>
