<?xml version="1.0" encoding="utf-8"?>
<!-- Generator: Adobe Illustrator 18.0.0, SVG Export Plug-In . SVG Version: 6.00 Build 0)  -->
<!DOCTYPE svg PUBLIC "-//W3C//DTD SVG 1.1//EN" "http://www.w3.org/Graphics/SVG/1.1/DTD/svg11.dtd">
<svg version="1.1" id="图层_1" xmlns="http://www.w3.org/2000/svg" xmlns:xlink="http://www.w3.org/1999/xlink" x="0px" y="0px"
	 width="42px" height="42px" viewBox="0 0 42 42" enable-background="new 0 0 42 42" xml:space="preserve">
<path fill="none" stroke="#C6C6C6" stroke-width="1.1401" stroke-miterlimit="10" d="M1.047,38.517V3.483
	C1.047,2.112,2.159,1,3.531,1h34.939c1.371,0,2.483,1.112,2.483,2.483v35.034c0,1.371-1.111,2.483-2.483,2.483H3.531
	C2.159,41,1.047,39.888,1.047,38.517z"/>
<linearGradient id="SVGID_1_" gradientUnits="userSpaceOnUse" x1="21" y1="39.0998" x2="21" y2="2.7101">
	<stop  offset="0" style="stop-color:#00AEF9"/>
	<stop  offset="1" style="stop-color:#0092E1"/>
</linearGradient>
<path fill="url(#SVGID_1_)" d="M37.722,39.1H4.278c-0.84,0-1.52-0.681-1.52-1.52V4.23c0-0.84,0.681-1.52,1.52-1.52h33.444
	c0.84,0,1.52,0.681,1.52,1.52V37.58C39.242,38.419,38.562,39.1,37.722,39.1z"/>
<g>
	<path fill="#FFFFFF" d="M7.287,30.528c-0.276-0.195-0.479-0.472-0.61-0.829c-0.132-0.355-0.198-0.811-0.198-1.362
		c0-0.819,0.173-1.444,0.515-1.874c0.344-0.43,0.842-0.645,1.497-0.645c0.642,0,1.133,0.215,1.472,0.645
		c0.342,0.43,0.513,1.05,0.513,1.86c0,0.565-0.063,1.024-0.19,1.376c-0.127,0.353-0.33,0.634-0.605,0.842
		c0.308,0.16,0.542,0.457,0.701,0.889c0.161,0.432,0.242,0.98,0.242,1.643c0,0.908-0.183,1.604-0.547,2.085
		c-0.366,0.481-0.894,0.721-1.584,0.721c-0.718,0-1.257-0.247-1.621-0.739c-0.361-0.492-0.544-1.223-0.544-2.195
		c0-0.61,0.081-1.113,0.239-1.51C6.72,31.04,6.962,30.738,7.287,30.528z M8.517,34.51c0.254,0,0.437-0.118,0.547-0.354
		c0.112-0.237,0.168-0.64,0.168-1.21c0-0.597-0.056-1.014-0.164-1.252c-0.11-0.238-0.293-0.358-0.552-0.358
		c-0.291,0-0.496,0.106-0.615,0.317s-0.181,0.59-0.181,1.133c0,0.651,0.061,1.1,0.181,1.349C8.021,34.385,8.227,34.51,8.517,34.51z
		 M8.502,29.799c0.232,0,0.398-0.103,0.496-0.31s0.146-0.566,0.146-1.079c0-0.543-0.049-0.916-0.146-1.119
		c-0.098-0.201-0.271-0.304-0.52-0.304c-0.247,0-0.417,0.101-0.52,0.302c-0.1,0.2-0.149,0.568-0.149,1.102
		c0,0.538,0.051,0.908,0.154,1.108S8.246,29.799,8.502,29.799z"/>
	<path fill="#FFFFFF" d="M11.583,28.242c0-0.762,0.198-1.357,0.598-1.79c0.398-0.432,0.952-0.648,1.66-0.648
		c0.671,0,1.206,0.222,1.599,0.668c0.396,0.446,0.591,1.049,0.591,1.81v4.95c0,0.847-0.193,1.499-0.581,1.958
		s-0.938,0.688-1.65,0.688c-0.72,0-1.272-0.229-1.65-0.688s-0.566-1.124-0.566-1.997V28.242z M12.965,33.607
		c0,0.272,0.076,0.49,0.227,0.654s0.352,0.248,0.603,0.248c0.237,0,0.425-0.081,0.564-0.24c0.139-0.161,0.212-0.381,0.217-0.662
		v-5.652c0-0.227-0.076-0.411-0.225-0.554s-0.342-0.214-0.583-0.214c-0.234,0-0.425,0.071-0.576,0.214s-0.227,0.322-0.227,0.541
		V33.607z"/>
</g>
<g>
	<g>
		<path fill="#FFFFFF" d="M18.437,27.89l2.556,2.555l2.566-2.555l0.652,0.652l-2.556,2.566l2.556,2.55l-0.652,0.663l-2.566-2.567
			l-2.556,2.567l-0.647-0.663l2.551-2.55l-2.551-2.566L18.437,27.89z"/>
	</g>
</g>
<g>
	<path fill="#FFFFFF" d="M25.929,32.738v-1.277l2.478-6.033h1.396v6.033h0.901v1.277h-0.901v2.351h-1.396v-2.351H25.929z
		 M28.407,31.461v-3.527l-1.204,3.527H28.407z"/>
	<path fill="#FFFFFF" d="M31.608,27.66c0-0.762,0.198-1.357,0.598-1.79c0.398-0.432,0.952-0.648,1.66-0.648
		c0.671,0,1.206,0.222,1.599,0.668c0.396,0.446,0.591,1.049,0.591,1.81v4.95c0,0.847-0.193,1.499-0.581,1.958
		s-0.938,0.688-1.65,0.688c-0.72,0-1.272-0.229-1.65-0.688s-0.566-1.124-0.566-1.997V27.66z M32.99,33.025
		c0,0.272,0.076,0.49,0.227,0.654s0.352,0.248,0.603,0.248c0.237,0,0.425-0.081,0.564-0.24c0.139-0.161,0.212-0.381,0.217-0.662
		v-5.652c0-0.227-0.076-0.411-0.225-0.554s-0.342-0.214-0.583-0.214c-0.234,0-0.425,0.071-0.576,0.214s-0.227,0.322-0.227,0.541
		V33.025z"/>
</g>
<g>
	<polygon fill="#FFFFFF" points="29.98,5.295 33.472,8.179 33.472,16.228 29.98,19.112 	"/>
	<polygon fill="#FFFFFF" points="12.02,19.112 8.528,16.228 8.528,8.179 12.02,5.295 	"/>
	<g>
		<polygon fill="#FFFFFF" points="16.713,19.016 14.222,16.425 16.713,13.834 		"/>
		<polygon fill="#FFFFFF" points="25.287,19.016 27.778,16.425 25.287,13.834 		"/>
		<rect x="16.086" y="15.345" fill="#FFFFFF" width="10.167" height="2.16"/>
	</g>
	<g>
		<polygon fill="#FFFFFF" points="16.713,11.052 14.222,8.461 16.713,5.87 		"/>
		<polygon fill="#FFFFFF" points="25.287,11.052 27.778,8.461 25.287,5.87 		"/>
		<rect x="16.086" y="7.381" fill="#FFFFFF" width="10.167" height="2.16"/>
	</g>
</g>
</svg>
