<?xml version="1.0" encoding="utf-8"?>
<!-- Generator: Adobe Illustrator 18.0.0, SVG Export Plug-In . SVG Version: 6.00 Build 0)  -->
<!DOCTYPE svg PUBLIC "-//W3C//DTD SVG 1.1//EN" "http://www.w3.org/Graphics/SVG/1.1/DTD/svg11.dtd">
<svg version="1.1" id="图层_1" xmlns="http://www.w3.org/2000/svg" xmlns:xlink="http://www.w3.org/1999/xlink" x="0px" y="0px"
	 width="42px" height="42px" viewBox="0 0 42 42" enable-background="new 0 0 42 42" xml:space="preserve">
<path fill="none" stroke="#C6C6C6" stroke-width="1.1401" stroke-miterlimit="10" d="M1.047,38.517V3.483
	C1.047,2.112,2.159,1,3.531,1h34.939c1.371,0,2.483,1.112,2.483,2.483v35.034c0,1.371-1.111,2.483-2.483,2.483H3.531
	C2.159,41,1.047,39.888,1.047,38.517z"/>
<linearGradient id="SVGID_1_" gradientUnits="userSpaceOnUse" x1="21.095" y1="39.0998" x2="21.095" y2="2.7101">
	<stop  offset="0" style="stop-color:#FF1F30"/>
	<stop  offset="1" style="stop-color:#C3020F"/>
</linearGradient>
<path fill="url(#SVGID_1_)" d="M37.817,39.1H4.373c-0.84,0-1.52-0.681-1.52-1.52V4.23c0-0.84,0.681-1.52,1.52-1.52h33.444
	c0.84,0,1.52,0.681,1.52,1.52V37.58C39.337,38.419,38.657,39.1,37.817,39.1z"/>
<polygon fill="#FFFFFF" points="29.98,5.295 33.472,8.179 33.472,16.228 29.98,19.112 "/>
<polygon fill="#FFFFFF" points="12.02,19.112 8.528,16.228 8.528,8.179 12.02,5.295 "/>
<g>
	<polygon fill="#FFFFFF" points="16.713,19.016 14.222,16.425 16.713,13.834 	"/>
	<polygon fill="#FFFFFF" points="25.287,19.016 27.778,16.425 25.287,13.834 	"/>
	<rect x="16.086" y="15.345" fill="#FFFFFF" width="10.167" height="2.16"/>
</g>
<g>
	<polygon fill="#FFFFFF" points="16.713,11.052 14.222,8.461 16.713,5.87 	"/>
	<polygon fill="#FFFFFF" points="25.287,11.052 27.778,8.461 25.287,5.87 	"/>
	<rect x="16.086" y="7.381" fill="#FFFFFF" width="10.167" height="2.16"/>
</g>
<g>
	<path fill="#FFFFFF" d="M7.287,30.526c-0.276-0.195-0.479-0.471-0.61-0.828s-0.198-0.811-0.198-1.365
		c0-0.818,0.173-1.443,0.515-1.873c0.344-0.43,0.842-0.645,1.497-0.645c0.642,0,1.133,0.215,1.472,0.645
		c0.342,0.43,0.513,1.05,0.513,1.86c0,0.566-0.063,1.025-0.19,1.377s-0.33,0.632-0.605,0.84c0.308,0.161,0.542,0.457,0.701,0.889
		c0.161,0.432,0.242,0.981,0.242,1.646c0,0.908-0.183,1.602-0.547,2.083c-0.366,0.481-0.894,0.723-1.584,0.723
		c-0.718,0-1.257-0.247-1.621-0.74c-0.361-0.491-0.544-1.223-0.544-2.192c0-0.61,0.081-1.113,0.239-1.511
		C6.72,31.039,6.962,30.736,7.287,30.526z M8.517,34.508c0.254,0,0.437-0.117,0.547-0.354c0.112-0.237,0.168-0.64,0.168-1.208
		c0-0.598-0.056-1.016-0.164-1.252c-0.11-0.239-0.293-0.359-0.552-0.359c-0.291,0-0.496,0.105-0.615,0.317s-0.181,0.588-0.181,1.133
		c0,0.649,0.061,1.099,0.181,1.35C8.021,34.384,8.227,34.508,8.517,34.508z M8.502,29.799c0.232,0,0.398-0.105,0.496-0.31
		c0.098-0.208,0.146-0.569,0.146-1.079c0-0.544-0.049-0.918-0.146-1.121s-0.271-0.303-0.52-0.303c-0.247,0-0.417,0.1-0.52,0.3
		c-0.1,0.2-0.149,0.566-0.149,1.101c0,0.54,0.051,0.911,0.154,1.111S8.246,29.799,8.502,29.799z"/>
	<path fill="#FFFFFF" d="M11.583,28.241c0-0.762,0.198-1.357,0.598-1.79c0.398-0.432,0.952-0.649,1.66-0.649
		c0.671,0,1.206,0.225,1.599,0.669c0.396,0.444,0.591,1.05,0.591,1.812v4.949c0,0.847-0.193,1.499-0.581,1.958
		s-0.938,0.688-1.65,0.688c-0.72,0-1.272-0.229-1.65-0.688s-0.566-1.125-0.566-1.997V28.241z M12.965,33.605
		c0,0.273,0.076,0.491,0.227,0.657c0.151,0.164,0.352,0.247,0.603,0.247c0.237,0,0.425-0.081,0.564-0.242
		c0.139-0.159,0.212-0.381,0.217-0.662v-5.649c0-0.229-0.076-0.413-0.225-0.557c-0.149-0.142-0.342-0.212-0.583-0.212
		c-0.234,0-0.425,0.071-0.576,0.212c-0.151,0.144-0.227,0.325-0.227,0.542V33.605z"/>
</g>
<g>
	<g>
		<path fill="#FFFFFF" d="M18.437,27.89l2.556,2.556l2.566-2.556l0.652,0.652l-2.556,2.566l2.556,2.549l-0.652,0.664l-2.566-2.566
			l-2.556,2.566l-0.647-0.664l2.551-2.549l-2.551-2.566L18.437,27.89z"/>
	</g>
</g>
<g>
	<path fill="#FFFFFF" d="M25.929,32.738v-1.277l2.478-6.033h1.396v6.033h0.901v1.277h-0.901v2.351h-1.396v-2.351H25.929z
		 M28.407,31.461v-3.528l-1.204,3.528H28.407z"/>
	<path fill="#FFFFFF" d="M31.608,27.66c0-0.762,0.198-1.357,0.598-1.79c0.398-0.432,0.952-0.649,1.66-0.649
		c0.671,0,1.206,0.225,1.599,0.669c0.396,0.444,0.591,1.05,0.591,1.812v4.949c0,0.847-0.193,1.499-0.581,1.958
		s-0.938,0.688-1.65,0.688c-0.72,0-1.272-0.229-1.65-0.688s-0.566-1.125-0.566-1.997V27.66z M32.99,33.024
		c0,0.273,0.076,0.491,0.227,0.657c0.151,0.164,0.352,0.247,0.603,0.247c0.237,0,0.425-0.081,0.564-0.242
		c0.139-0.159,0.212-0.381,0.217-0.662v-5.649c0-0.229-0.076-0.413-0.225-0.557c-0.149-0.142-0.342-0.212-0.583-0.212
		c-0.234,0-0.425,0.071-0.576,0.212c-0.151,0.144-0.227,0.325-0.227,0.542V33.024z"/>
</g>
</svg>
