<?xml version="1.0" encoding="utf-8"?>
<!-- Generator: Adobe Illustrator 18.0.0, SVG Export Plug-In . SVG Version: 6.00 Build 0)  -->
<!DOCTYPE svg PUBLIC "-//W3C//DTD SVG 1.1//EN" "http://www.w3.org/Graphics/SVG/1.1/DTD/svg11.dtd">
<svg version="1.1" id="图层_1" xmlns="http://www.w3.org/2000/svg" xmlns:xlink="http://www.w3.org/1999/xlink" x="0px" y="0px"
	 width="42px" height="42px" viewBox="0 0 42 42" enable-background="new 0 0 42 42" xml:space="preserve">
<path fill="none" stroke="#C6C6C6" stroke-width="1.1401" stroke-miterlimit="10" d="M1.047,38.517V3.483
	C1.047,2.112,2.159,1,3.531,1h34.939c1.371,0,2.483,1.112,2.483,2.483v35.034c0,1.371-1.111,2.483-2.483,2.483H3.531
	C2.159,41,1.047,39.888,1.047,38.517z"/>
<linearGradient id="SVGID_1_" gradientUnits="userSpaceOnUse" x1="21.095" y1="39.0998" x2="21.095" y2="2.7101">
	<stop  offset="0" style="stop-color:#76797A"/>
	<stop  offset="1" style="stop-color:#5F6263"/>
</linearGradient>
<path fill="url(#SVGID_1_)" d="M37.817,39.1H4.373c-0.84,0-1.52-0.681-1.52-1.52V4.23c0-0.84,0.681-1.52,1.52-1.52h33.444
	c0.84,0,1.52,0.681,1.52,1.52V37.58C39.337,38.419,38.657,39.1,37.817,39.1z"/>
<g>
	<polygon fill="#D5D6D6" points="29.98,5.295 33.472,8.179 33.472,16.228 29.98,19.112 	"/>
	<polygon fill="#D5D6D6" points="12.02,19.112 8.528,16.228 8.528,8.179 12.02,5.295 	"/>
	<g>
		<polygon fill="#D5D6D6" points="16.713,19.016 14.222,16.425 16.713,13.834 		"/>
		<polygon fill="#D5D6D6" points="25.287,19.016 27.778,16.425 25.287,13.834 		"/>
		<rect x="16.086" y="15.345" fill="#D5D6D6" width="10.167" height="2.16"/>
	</g>
	<g>
		<polygon fill="#D5D6D6" points="16.713,11.052 14.222,8.461 16.713,5.87 		"/>
		<polygon fill="#D5D6D6" points="25.287,11.052 27.778,8.461 25.287,5.87 		"/>
		<rect x="16.086" y="7.381" fill="#D5D6D6" width="10.167" height="2.16"/>
	</g>
</g>
<g>
	<path fill="#D5D6D6" d="M7.292,30.526c-0.276-0.195-0.48-0.471-0.612-0.828c-0.131-0.356-0.197-0.811-0.197-1.365
		c0-0.818,0.171-1.443,0.514-1.873s0.842-0.645,1.497-0.645c0.641,0,1.133,0.215,1.473,0.645s0.51,1.05,0.51,1.86
		c0,0.566-0.063,1.025-0.19,1.377s-0.328,0.632-0.604,0.84c0.308,0.161,0.541,0.457,0.702,0.889c0.16,0.432,0.24,0.981,0.24,1.646
		c0,0.908-0.183,1.602-0.548,2.083s-0.892,0.723-1.583,0.723c-0.717,0-1.257-0.247-1.62-0.74c-0.363-0.491-0.544-1.223-0.544-2.192
		c0-0.61,0.079-1.113,0.237-1.511C6.725,31.039,6.967,30.736,7.292,30.526z M8.521,34.508c0.254,0,0.436-0.117,0.548-0.354
		c0.111-0.237,0.167-0.64,0.167-1.208c0-0.598-0.055-1.016-0.165-1.252c-0.109-0.239-0.293-0.359-0.551-0.359
		c-0.289,0-0.494,0.105-0.615,0.317c-0.12,0.212-0.179,0.588-0.179,1.133c0,0.649,0.06,1.099,0.179,1.35
		C8.026,34.384,8.231,34.508,8.521,34.508z M8.507,29.799c0.232,0,0.397-0.105,0.494-0.31c0.098-0.208,0.146-0.569,0.146-1.079
		c0-0.544-0.049-0.918-0.146-1.121s-0.272-0.303-0.521-0.303c-0.245,0-0.417,0.1-0.518,0.3s-0.15,0.566-0.15,1.101
		c0,0.54,0.051,0.911,0.154,1.111S8.249,29.799,8.507,29.799z"/>
	<path fill="#D5D6D6" d="M11.587,28.241c0-0.762,0.199-1.357,0.598-1.79c0.398-0.432,0.951-0.649,1.659-0.649
		c0.673,0,1.206,0.225,1.6,0.669s0.592,1.05,0.592,1.812v4.949c0,0.847-0.194,1.499-0.582,1.958
		c-0.387,0.459-0.938,0.688-1.649,0.688c-0.721,0-1.272-0.229-1.65-0.688s-0.568-1.125-0.568-1.997V28.241z M12.97,33.605
		c0,0.273,0.074,0.491,0.226,0.657c0.151,0.164,0.352,0.247,0.603,0.247c0.237,0,0.425-0.081,0.564-0.242
		c0.14-0.159,0.212-0.381,0.216-0.662v-5.649c0-0.229-0.073-0.413-0.222-0.557c-0.149-0.142-0.344-0.212-0.586-0.212
		c-0.232,0-0.424,0.071-0.575,0.212c-0.151,0.144-0.226,0.325-0.226,0.542V33.605z"/>
</g>
<g>
	<path fill="#D5D6D6" d="M18.437,27.89l2.555,2.556l2.567-2.556l0.651,0.652l-2.555,2.566l2.555,2.549l-0.651,0.664l-2.567-2.566
		l-2.555,2.566l-0.646-0.664l2.55-2.549l-2.55-2.566L18.437,27.89z"/>
</g>
<g>
	<path fill="#D5D6D6" d="M25.93,32.738v-1.277l2.478-6.033h1.396v6.033h0.902v1.277h-0.902v2.351h-1.396v-2.351H25.93z
		 M28.408,31.461v-3.528l-1.202,3.528H28.408z"/>
	<path fill="#D5D6D6" d="M31.609,27.66c0-0.762,0.199-1.357,0.598-1.79c0.398-0.432,0.951-0.649,1.659-0.649
		c0.673,0,1.206,0.225,1.6,0.669s0.592,1.05,0.592,1.812v4.949c0,0.847-0.194,1.499-0.582,1.958
		c-0.387,0.459-0.938,0.688-1.649,0.688c-0.721,0-1.272-0.229-1.65-0.688s-0.568-1.125-0.568-1.997V27.66z M32.992,33.024
		c0,0.273,0.074,0.491,0.226,0.657c0.151,0.164,0.352,0.247,0.603,0.247c0.237,0,0.425-0.081,0.564-0.242
		c0.14-0.159,0.212-0.381,0.216-0.662v-5.649c0-0.229-0.073-0.413-0.222-0.557c-0.149-0.142-0.344-0.212-0.586-0.212
		c-0.232,0-0.424,0.071-0.575,0.212c-0.151,0.144-0.226,0.325-0.226,0.542V33.024z"/>
</g>
</svg>
