<?xml version="1.0" encoding="utf-8"?>
<!-- Generator: Adobe Illustrator 18.0.0, SVG Export Plug-In . SVG Version: 6.00 Build 0)  -->
<!DOCTYPE svg PUBLIC "-//W3C//DTD SVG 1.1//EN" "http://www.w3.org/Graphics/SVG/1.1/DTD/svg11.dtd">
<svg version="1.1" id="图层_1" xmlns="http://www.w3.org/2000/svg" xmlns:xlink="http://www.w3.org/1999/xlink" x="0px" y="0px"
	 width="36px" height="36px" viewBox="0 0 36 36" enable-background="new 0 0 36 36" xml:space="preserve">
<g>
	<path fill="#FFFFFF" stroke="#C6C6C6" stroke-width="0.9977" stroke-miterlimit="10" d="M0.525,33.342V2.658
		c0-1.201,0.974-2.175,2.175-2.175H33.3c1.201,0,2.175,0.974,2.175,2.175v30.684c0,1.201-0.973,2.174-2.174,2.174H2.7
		C1.499,35.517,0.525,34.543,0.525,33.342z"/>
	<linearGradient id="SVGID_1_" gradientUnits="userSpaceOnUse" x1="18.0832" y1="33.8524" x2="18.0832" y2="1.9811">
		<stop  offset="0" style="stop-color:#FF7F01"/>
		<stop  offset="1" style="stop-color:#F05800"/>
	</linearGradient>
	<path fill="url(#SVGID_1_)" d="M32.729,33.852H3.437c-0.735,0-1.331-0.596-1.331-1.331V3.313c0-0.735,0.596-1.331,1.331-1.331
		h29.292c0.735,0,1.331,0.596,1.331,1.331v29.208C34.06,33.256,33.464,33.852,32.729,33.852z"/>
	<g>
		<polygon fill="#FFFFFF" points="25.865,4.245 28.923,6.771 28.923,13.82 25.865,16.346 		"/>
		<polygon fill="#FFFFFF" points="10.135,16.346 7.077,13.82 7.077,6.771 10.135,4.245 		"/>
		<g>
			<polygon fill="#FFFFFF" points="14.245,16.263 12.064,13.993 14.245,11.724 			"/>
			<polygon fill="#FFFFFF" points="21.755,16.263 23.936,13.993 21.755,11.724 			"/>
			<rect x="13.696" y="13.047" fill="#FFFFFF" width="8.904" height="1.892"/>
		</g>
		<g>
			<polygon fill="#FFFFFF" points="14.245,9.288 12.064,7.018 14.245,4.749 			"/>
			<polygon fill="#FFFFFF" points="21.755,9.288 23.936,7.018 21.755,4.749 			"/>
			<rect x="13.696" y="6.072" fill="#FFFFFF" width="8.904" height="1.892"/>
		</g>
	</g>
	<g>
		<path fill="#FFFFFF" d="M7.13,26.345c-0.242-0.172-0.421-0.414-0.535-0.725c-0.115-0.312-0.172-0.71-0.172-1.193
			c0-0.718,0.15-1.265,0.451-1.642c0.3-0.376,0.737-0.565,1.31-0.565c0.562,0,0.992,0.189,1.29,0.565
			c0.299,0.377,0.448,0.92,0.448,1.629c0,0.496-0.056,0.897-0.167,1.206c-0.111,0.308-0.288,0.554-0.53,0.737
			c0.269,0.141,0.474,0.4,0.614,0.779c0.141,0.378,0.211,0.858,0.211,1.439c0,0.796-0.16,1.404-0.48,1.825
			c-0.319,0.422-0.782,0.632-1.387,0.632c-0.628,0-1.101-0.216-1.418-0.647c-0.318-0.431-0.477-1.072-0.477-1.922
			c0-0.535,0.069-0.975,0.208-1.323C6.633,26.793,6.845,26.528,7.13,26.345z M8.206,29.832c0.222,0,0.382-0.103,0.479-0.31
			c0.098-0.207,0.147-0.559,0.147-1.059c0-0.523-0.048-0.889-0.143-1.098c-0.096-0.208-0.257-0.312-0.483-0.312
			c-0.254,0-0.433,0.092-0.538,0.277S7.51,27.847,7.51,28.323c0,0.57,0.053,0.964,0.158,1.182
			C7.773,29.723,7.953,29.832,8.206,29.832z M8.194,25.707c0.203,0,0.347-0.09,0.433-0.272s0.129-0.497,0.129-0.946
			c0-0.476-0.043-0.802-0.129-0.98s-0.238-0.266-0.456-0.266c-0.215,0-0.366,0.087-0.453,0.263
			c-0.088,0.176-0.132,0.498-0.132,0.966c0,0.472,0.045,0.796,0.135,0.971C7.81,25.619,7.968,25.707,8.194,25.707z"/>
	</g>
	<g>
		<g>
			<path fill="#FFFFFF" d="M12.102,24.035l2.238,2.238l2.248-2.238l0.571,0.571l-2.238,2.247l2.238,2.233l-0.571,0.581l-2.248-2.248
				l-2.238,2.248l-0.565-0.581l2.233-2.233l-2.233-2.247L12.102,24.035z"/>
		</g>
	</g>
	<g>
		<path fill="#FFFFFF" d="M18.509,30.341v-1.223c0.897-1.236,1.565-2.287,2.004-3.154c0.439-0.866,0.658-1.564,0.658-2.095
			c0-0.315-0.053-0.564-0.159-0.745c-0.104-0.181-0.247-0.272-0.426-0.272c-0.238,0-0.41,0.087-0.516,0.263
			c-0.105,0.176-0.161,0.479-0.169,0.908l-0.012,0.315H18.62V24.18c0-0.784,0.173-1.392,0.517-1.823
			c0.346-0.431,0.832-0.647,1.46-0.647c0.542,0,0.975,0.182,1.299,0.548c0.324,0.365,0.485,0.858,0.485,1.483
			c0,0.612-0.164,1.292-0.494,2.038c-0.329,0.747-0.988,1.86-1.975,3.338h2.364v1.223H18.509z"/>
		<path fill="#FFFFFF" d="M23.558,30.341v-1.328h1.246v1.328H23.558z"/>
		<path fill="#FFFFFF" d="M25.952,27.984h1.164v0.426c0,0.32,0.056,0.56,0.17,0.72c0.113,0.16,0.283,0.24,0.509,0.24
			c0.191,0,0.339-0.072,0.444-0.216s0.159-0.351,0.159-0.62v-2.159c0-0.242-0.045-0.419-0.132-0.53
			c-0.088-0.111-0.227-0.167-0.419-0.167c-0.167,0-0.312,0.059-0.436,0.176c-0.122,0.118-0.217,0.287-0.284,0.51l-1.07-0.047
			l0.146-4.435h3.188l0.047,1.223h-2.206l-0.105,1.989c0.188-0.183,0.38-0.321,0.576-0.412c0.197-0.092,0.395-0.138,0.594-0.138
			c0.409,0,0.726,0.154,0.95,0.462c0.224,0.308,0.337,0.749,0.337,1.323v2.147c0,0.632-0.168,1.132-0.503,1.498
			c-0.336,0.366-0.792,0.55-1.369,0.55c-0.578,0-1.016-0.194-1.314-0.582c-0.298-0.388-0.447-0.957-0.447-1.705V27.984z"/>
	</g>
</g>
</svg>
