<?xml version="1.0" encoding="utf-8"?>
<!-- Generator: Adobe Illustrator 18.0.0, SVG Export Plug-In . SVG Version: 6.00 Build 0)  -->
<!DOCTYPE svg PUBLIC "-//W3C//DTD SVG 1.1//EN" "http://www.w3.org/Graphics/SVG/1.1/DTD/svg11.dtd">
<svg version="1.1" id="图层_1" xmlns="http://www.w3.org/2000/svg" xmlns:xlink="http://www.w3.org/1999/xlink" x="0px" y="0px"
	 width="32px" height="32px" viewBox="0 0 32 32" enable-background="new 0 0 32 32" xml:space="preserve">
<g>
	<g>
		<rect x="1.026" y="0.983" fill="#FFFFFF" width="29.948" height="30.033"/>
		<path fill="#BCBCBC" d="M30.491,1.466v29.068H1.509V1.466H30.491 M31.457,0.5H0.543v31h30.914V0.5L31.457,0.5z"/>
	</g>
	<g>
		<linearGradient id="SVGID_1_" gradientUnits="userSpaceOnUse" x1="2.4429" y1="15.9136" x2="29.3844" y2="15.9136">
			<stop  offset="0" style="stop-color:#76797A"/>
			<stop  offset="1" style="stop-color:#5F6263"/>
		</linearGradient>
		<rect x="2.443" y="2.4" fill="url(#SVGID_1_)" width="26.942" height="27.028"/>
	</g>
	<g>
		<path fill="#D5D6D6" d="M4.602,5.681v19.515h22.71V5.681H4.602z M6.84,24.247l-0.005-0.806l1.981-1.226H23.15l1.928,1.11
			l0.018,0.921H6.84z M25.096,18.013l-1.981,1.226H8.78l-1.928-1.11l-0.005-0.271H6.84l-0.004-0.568l-0.002-0.081h0.001
			l-0.001-0.156l1.981-1.226H23.15l1.928,1.11l0.005,0.271h0.007l0.004,0.568l0.002,0.081h-0.001L25.096,18.013z M23.167,12.848
			H8.833l-1.921-1.123L6.847,6.631h18.308l0.001,5.095L23.167,12.848z"/>
		<rect x="7.624" y="8.617" fill="#D5D6D6" width="8.29" height="2.072"/>
		<rect x="17.036" y="8.617" fill="#D5D6D6" width="7.167" height="2.072"/>
	</g>
</g>
</svg>
