<?xml version="1.0" encoding="utf-8"?>
<!-- Generator: Adobe Illustrator 18.0.0, SVG Export Plug-In . SVG Version: 6.00 Build 0)  -->
<!DOCTYPE svg PUBLIC "-//W3C//DTD SVG 1.1//EN" "http://www.w3.org/Graphics/SVG/1.1/DTD/svg11.dtd">
<svg version="1.1" id="图层_1" xmlns="http://www.w3.org/2000/svg" xmlns:xlink="http://www.w3.org/1999/xlink" x="0px" y="0px"
	 width="32px" height="32px" viewBox="0 0 32 32" enable-background="new 0 0 32 32" xml:space="preserve">
<g>
	<g>
		<path fill="#EBEBEB" d="M1.051,31.463c-0.283,0-0.513-0.23-0.513-0.514V1.051c0-0.283,0.23-0.514,0.513-0.514h29.875
			c0.283,0,0.514,0.23,0.514,0.514v29.898c0,0.283-0.23,0.514-0.514,0.514H1.051z"/>
		<g>
			<path fill="#C6C6C6" d="M30.903,1.075l0.024,29.85L1.075,30.949L1.051,1.075H30.903 M30.926,0H1.051C0.471,0,0,0.471,0,1.051
				v29.898C0,31.529,0.471,32,1.051,32h29.876c0.58,0,1.051-0.471,1.051-1.051V1.051C31.977,0.471,31.507,0,30.926,0L30.926,0z"/>
		</g>
	</g>
	<linearGradient id="SVGID_1_" gradientUnits="userSpaceOnUse" x1="15.9888" y1="29.85" x2="15.9888" y2="2.15">
		<stop  offset="0" style="stop-color:#76797A"/>
		<stop  offset="1" style="stop-color:#5F6263"/>
	</linearGradient>
	<path fill="url(#SVGID_1_)" d="M29.318,29.85H2.66c-0.282,0-0.51-0.228-0.51-0.51V2.66c0-0.282,0.228-0.51,0.51-0.51h26.657
		c0.282,0,0.51,0.228,0.51,0.51v26.68C29.828,29.622,29.599,29.85,29.318,29.85z"/>
	<g>
		<rect x="6.47" y="7.5" fill="#D5D6D6" width="2.242" height="10.089"/>
		<rect x="9.926" y="7.5" fill="#D5D6D6" width="2.242" height="10.089"/>
		<rect x="13.196" y="7.5" fill="#D5D6D6" width="2.242" height="10.089"/>
		<rect x="16.652" y="7.5" fill="#D5D6D6" width="2.242" height="10.089"/>
		<rect x="19.922" y="7.5" fill="#D5D6D6" width="2.242" height="10.089"/>
		<rect x="23.378" y="7.5" fill="#D5D6D6" width="2.242" height="10.089"/>
		<path fill="#D5D6D6" d="M4.228,5.258v21.205h23.634V5.258H4.228z M26.741,6.379v13.358H5.349V6.379H26.741z M5.349,25.343v-4.484
			h21.392v4.484H5.349z"/>
		<path fill="#D5D6D6" d="M25.696,24.128c-1.856-1.429-5.482-2.4-9.651-2.4s-7.795,0.971-9.651,2.4H25.696z"/>
	</g>
</g>
</svg>
