<?xml version="1.0" encoding="utf-8"?>
<!-- Generator: Adobe Illustrator 18.0.0, SVG Export Plug-In . SVG Version: 6.00 Build 0)  -->
<!DOCTYPE svg PUBLIC "-//W3C//DTD SVG 1.1//EN" "http://www.w3.org/Graphics/SVG/1.1/DTD/svg11.dtd">
<svg version="1.1" id="图层_1" xmlns="http://www.w3.org/2000/svg" xmlns:xlink="http://www.w3.org/1999/xlink" x="0px" y="0px"
	 width="32px" height="32px" viewBox="0 0 32 32" enable-background="new 0 0 32 32" xml:space="preserve">
<g>
	<g>
		<rect x="1.728" y="1.752" fill="#FFFFFF" width="28.545" height="28.495"/>
		<path fill="#DADADA" d="M29.536,2.489v27.022H2.464V2.489H29.536 M31.008,1.017H0.992v29.966h30.016V1.017L31.008,1.017z"/>
	</g>
	<rect x="1.8" y="2.167" fill="#C5C5C5" width="28.216" height="28.008"/>
	<path fill="#EDEDED" d="M29.017,3.167v26.008H2.8V3.167H29.017 M30.017,2.167H1.8v28.008h28.216V2.167L30.017,2.167z"/>
	<g>
		<polygon fill="#999999" points="10.624,4.917 4.124,4.917 4.124,27.969 10.624,27.969 10.624,4.917 		"/>
		<polyline fill="#FEFEFE" points="9.628,5.913 9.628,26.973 5.12,26.973 5.12,5.913 9.628,5.913 		"/>
		<polygon fill="#979797" points="28.006,4.917 9.647,4.917 9.647,28.012 28.006,28.012 28.006,4.917 		"/>
		<polyline fill="#FEFEFE" points="26.968,5.955 26.968,26.974 10.684,26.974 10.684,5.955 26.968,5.955 		"/>
		<g>
			<rect x="13.42" y="7.46" fill="#C5C5C5" width="11.034" height="1.976"/>
			<path fill="#979797" d="M23.954,7.96v0.975H13.92V7.96H23.954 M24.954,6.96H12.92v2.975h12.034V6.96L24.954,6.96z"/>
		</g>
		<g>
			<rect x="13.42" y="11.493" fill="#C5C5C5" width="11.034" height="2.901"/>
			<path fill="#979797" d="M23.954,11.993v1.901H13.92v-1.901H23.954 M24.954,10.993H12.92v3.901h12.034V10.993L24.954,10.993z"/>
		</g>
		<g>
			<rect x="13.42" y="22.469" fill="#C5C5C5" width="11.034" height="2.901"/>
			<path fill="#979797" d="M23.954,22.969v1.901H13.92v-1.901H23.954 M24.954,21.969H12.92v3.901h12.034V21.969L24.954,21.969z"/>
		</g>
		<g>
			<rect x="13.42" y="16.452" fill="#C5C5C5" width="11.034" height="3.959"/>
			<path fill="#979797" d="M23.954,16.952v2.959H13.92v-2.959H23.954 M24.954,15.952H12.92v4.959h12.034V15.952L24.954,15.952z"/>
		</g>
	</g>
</g>
</svg>
