<?xml version="1.0" encoding="utf-8"?>
<!-- Generator: Adobe Illustrator 18.0.0, SVG Export Plug-In . SVG Version: 6.00 Build 0)  -->
<!DOCTYPE svg PUBLIC "-//W3C//DTD SVG 1.1//EN" "http://www.w3.org/Graphics/SVG/1.1/DTD/svg11.dtd">
<svg version="1.1" id="图层_1" xmlns="http://www.w3.org/2000/svg" xmlns:xlink="http://www.w3.org/1999/xlink" x="0px" y="0px"
	 width="32px" height="32px" viewBox="0 0 32 32" enable-background="new 0 0 32 32" xml:space="preserve">
<g>
	<rect x="0.825" y="10.392" fill="#FFFFFF" width="30.35" height="11.216"/>
	<path fill="#C80719" d="M31.008,10.517v10.966H0.992V10.517H31.008 M32.008,9.517H-0.008v12.966h32.016V9.517L32.008,9.517z"/>
	<rect x="2.767" y="12.287" fill="#FF0313" width="26.466" height="7.425"/>
	<path fill="#E80215" d="M29.108,12.496v7.008H2.892v-7.008H29.108 M30.108,11.496H1.892v9.008h28.216V11.496L30.108,11.496z"/>
	<g>
		<polygon fill="#ED0316" points="4.106,13.508 4.106,15.487 4.085,15.487 4.085,16.487 4.106,16.487 4.106,18.467 11.033,18.467 
			11.033,13.508 		"/>
		<g>
			<rect x="9.116" y="14.508" fill="#FFFFFF" width="0.917" height="0.979"/>
			<rect x="7.054" y="16.487" fill="#FFFFFF" width="1.063" height="0.979"/>
			<rect x="7.054" y="14.508" fill="#FFFFFF" width="1.063" height="0.979"/>
			<rect x="5.106" y="14.508" fill="#FFFFFF" width="0.948" height="0.979"/>
			<rect x="5.106" y="16.487" fill="#FFFFFF" width="0.948" height="0.979"/>
			<rect x="9.116" y="16.487" fill="#FFFFFF" width="0.917" height="0.979"/>
		</g>
		<polygon fill="#ED0316" points="12.106,13.508 12.106,15.487 12.085,15.487 12.085,16.487 12.106,16.487 12.106,18.467 
			19.033,18.467 19.033,13.508 		"/>
		<g>
			<rect x="17.116" y="14.508" fill="#FFFFFF" width="0.917" height="0.979"/>
			<rect x="15.054" y="16.487" fill="#FFFFFF" width="1.063" height="0.979"/>
			<rect x="15.054" y="14.508" fill="#FFFFFF" width="1.063" height="0.979"/>
			<rect x="13.106" y="14.508" fill="#FFFFFF" width="0.948" height="0.979"/>
			<rect x="13.106" y="16.487" fill="#FFFFFF" width="0.948" height="0.979"/>
			<rect x="17.116" y="16.487" fill="#FFFFFF" width="0.917" height="0.979"/>
		</g>
	</g>
	<g>
		<polygon fill="#FFFFFF" points="25.085,15.483 24.1,15.483 24.1,14.487 23.1,14.487 23.1,15.483 22.116,15.483 22.116,16.492 
			23.1,16.492 23.1,17.487 24.1,17.487 24.1,16.492 25.085,16.492 		"/>
		<rect x="27.021" y="14.487" fill="#FFFFFF" width="1.048" height="2.984"/>
	</g>
</g>
</svg>
