<?xml version="1.0" encoding="utf-8"?>
<!-- Generator: Adobe Illustrator 18.0.0, SVG Export Plug-In . SVG Version: 6.00 Build 0)  -->
<!DOCTYPE svg PUBLIC "-//W3C//DTD SVG 1.1//EN" "http://www.w3.org/Graphics/SVG/1.1/DTD/svg11.dtd">
<svg version="1.1" id="图层_1" xmlns="http://www.w3.org/2000/svg" xmlns:xlink="http://www.w3.org/1999/xlink" x="0px" y="0px"
	 width="32px" height="32px" viewBox="0 0 32 32" enable-background="new 0 0 32 32" xml:space="preserve">
<g>
	<polygon fill="#9D9FA0" points="32,7.001 0,7.001 0,23.001 32,23.001 32,7.001 	"/>
	<polyline fill="#FFFFFF" points="31,8.001 31,22.001 1,22.001 1,8.001 31,8.001 	"/>
	<polygon fill="#515253" points="30.042,9.001 2.042,9.001 2.042,21.001 30.042,21.001 30.042,9.001 	"/>
	<polyline fill="#6E7172" points="29.142,9.901 29.142,20.101 2.942,20.101 2.942,9.901 29.142,9.901 	"/>
	<rect x="5.058" y="16.016" fill="#5E6162" width="8.989" height="2.958"/>
	<rect x="8.047" y="17.006" fill="#FFFFFF" width="1.063" height="0.979"/>
	<rect x="6.047" y="17.006" fill="#FFFFFF" width="1" height="0.979"/>
	<rect x="10.047" y="17.006" fill="#FFFFFF" width="1" height="0.979"/>
	<rect x="12.047" y="17.006" fill="#FFFFFF" width="1" height="0.979"/>
	<g>
		<rect x="20.042" y="16.959" fill="#A7A9A9" width="2.958" height="1.042"/>
		<rect x="25.042" y="16.959" fill="#A7A9A9" width="2.958" height="1.042"/>
		<rect x="20.042" y="11.959" fill="#A7A9A9" width="2.958" height="1.042"/>
		<rect x="15.042" y="11.959" fill="#A7A9A9" width="2.958" height="1.042"/>
		<rect x="5.042" y="10.959" fill="#A7A9A9" width="3.958" height="2.042"/>
		<rect x="25.042" y="11.959" fill="#A7A9A9" width="2.958" height="1.042"/>
	</g>
	<rect x="2.583" y="14.001" fill="#515253" width="26.708" height="1"/>
</g>
</svg>
