<?xml version="1.0" encoding="utf-8"?>
<!-- Generator: Adobe Illustrator 18.0.0, SVG Export Plug-In . SVG Version: 6.00 Build 0)  -->
<!DOCTYPE svg PUBLIC "-//W3C//DTD SVG 1.1//EN" "http://www.w3.org/Graphics/SVG/1.1/DTD/svg11.dtd">
<svg version="1.1" id="图层_1" xmlns="http://www.w3.org/2000/svg" xmlns:xlink="http://www.w3.org/1999/xlink" x="0px" y="0px"
	 width="32px" height="32px" viewBox="0 0 32 32" enable-background="new 0 0 32 32" xml:space="preserve">
<g>
	<g>
		<rect x="1.728" y="1.753" fill="#FFFFFF" width="28.545" height="28.494"/>
		<path fill="#DADADA" d="M29.536,2.489v27.022H2.464V2.489H29.536 M31.008,1.017H0.992v29.966h30.016V1.017L31.008,1.017z"/>
	</g>
	<rect x="1.8" y="2.167" fill="#C5C5C5" width="28.216" height="28.008"/>
	<polygon fill="#FEFEFE" points="30.017,2.167 1.8,2.167 1.8,30.175 30.017,30.175 30.017,2.167 	"/>
	<linearGradient id="SVGID_1_" gradientUnits="userSpaceOnUse" x1="15.9083" y1="29.175" x2="15.9083" y2="3.1666">
		<stop  offset="0" style="stop-color:#76797A"/>
		<stop  offset="1" style="stop-color:#5F6263"/>
	</linearGradient>
	<polyline fill="url(#SVGID_1_)" points="29.017,3.167 29.017,29.175 2.8,29.175 2.8,3.167 29.017,3.167 	"/>
	<polyline fill="#FEFEFE" points="9.628,5.913 9.628,26.973 5.12,26.973 5.12,5.913 9.628,5.913 	"/>
	<path fill="#FEFEFE" d="M10.684,5.955v21.02h16.284V5.955H10.684z M24.954,25.87H12.92v-3.901h12.034V25.87z M24.954,20.911H12.92
		v-4.959h12.034V20.911z M24.954,14.894H12.92v-3.901h12.034V14.894z M24.954,9.935H12.92V6.96h12.034V9.935z"/>
</g>
</svg>
