<?xml version="1.0" encoding="utf-8"?>
<!-- Generator: Adobe Illustrator 18.0.0, SVG Export Plug-In . SVG Version: 6.00 Build 0)  -->
<!DOCTYPE svg PUBLIC "-//W3C//DTD SVG 1.1//EN" "http://www.w3.org/Graphics/SVG/1.1/DTD/svg11.dtd">
<svg version="1.1" id="图层_1" xmlns="http://www.w3.org/2000/svg" xmlns:xlink="http://www.w3.org/1999/xlink" x="0px" y="0px"
	 width="32px" height="32px" viewBox="0 0 32 32" enable-background="new 0 0 32 32" xml:space="preserve">
<g>
	<g>
		<rect x="1" y="1.033" fill="#BCBCBC" width="29.933" height="29.966"/>
	</g>
	<polygon fill="#FEFEFE" points="29.858,2.1 1.892,2.1 1.892,30.108 29.858,30.108 29.858,2.1 	"/>
	<linearGradient id="SVGID_1_" gradientUnits="userSpaceOnUse" x1="15.9665" y1="28.9334" x2="15.9665" y2="3.1">
		<stop  offset="0" style="stop-color:#76797A"/>
		<stop  offset="1" style="stop-color:#5F6263"/>
	</linearGradient>
	<rect x="3.008" y="3.1" fill="url(#SVGID_1_)" width="25.917" height="25.833"/>
	<path fill="#D2D3D3" d="M7.467,6.058V27.1h17V6.058H7.467z M22.508,26.1H9.55v-5h12.958V26.1z M22.508,20.1H9.55v-5h12.958V20.1z
		 M22.508,14.1H9.55v-5h12.958V14.1z"/>
	<g>
		<rect x="8.467" y="7.1" fill="#616465" width="5" height="1"/>
		<rect x="14.508" y="7.1" fill="#616465" width="4" height="1"/>
		<rect x="19.508" y="7.1" fill="#616465" width="4" height="1"/>
	</g>
	<g>
		<path fill="#535455" d="M21.508,10.1v3H10.55v-3H21.508 M22.508,9.1H9.55v5h12.958V9.1L22.508,9.1z"/>
		<path fill="#535455" d="M21.508,16.1v3H10.55v-3H21.508 M22.508,15.1H9.55v5h12.958V15.1L22.508,15.1z"/>
		<path fill="#535455" d="M21.508,22.1v3H10.55v-3H21.508 M22.508,21.1H9.55v5h12.958V21.1L22.508,21.1z"/>
	</g>
	<g>
		<g>
			<g>
				<rect x="11.805" y="10.131" fill="#B2B4B5" width="1.052" height="1.021"/>
				<rect x="12.821" y="11.147" fill="#B2B4B5" width="1.052" height="1.021"/>
				<rect x="13.805" y="12.131" fill="#B2B4B5" width="1.052" height="1.021"/>
			</g>
			<g>
				<rect x="16.836" y="10.131" fill="#B2B4B5" width="1.052" height="1.021"/>
				<rect x="17.852" y="11.147" fill="#B2B4B5" width="1.052" height="1.021"/>
				<rect x="18.836" y="12.131" fill="#B2B4B5" width="1.052" height="1.021"/>
			</g>
		</g>
		<g>
			<g>
				<rect x="11.805" y="16.053" fill="#B2B4B5" width="1.052" height="1.021"/>
				<rect x="12.821" y="17.069" fill="#B2B4B5" width="1.052" height="1.021"/>
				<rect x="13.805" y="18.053" fill="#B2B4B5" width="1.052" height="1.021"/>
			</g>
			<g>
				<rect x="16.836" y="16.053" fill="#B2B4B5" width="1.052" height="1.021"/>
				<rect x="17.852" y="17.069" fill="#B2B4B5" width="1.052" height="1.021"/>
				<rect x="18.836" y="18.053" fill="#B2B4B5" width="1.052" height="1.021"/>
			</g>
		</g>
		<g>
			<g>
				<rect x="11.805" y="22.116" fill="#B2B4B5" width="1.052" height="1.021"/>
				<rect x="12.821" y="23.131" fill="#B2B4B5" width="1.052" height="1.021"/>
				<rect x="13.805" y="24.116" fill="#B2B4B5" width="1.052" height="1.021"/>
			</g>
			<g>
				<rect x="16.836" y="22.116" fill="#B2B4B5" width="1.052" height="1.021"/>
				<rect x="17.852" y="23.131" fill="#B2B4B5" width="1.052" height="1.021"/>
				<rect x="18.836" y="24.116" fill="#B2B4B5" width="1.052" height="1.021"/>
			</g>
		</g>
	</g>
</g>
</svg>
