<?xml version="1.0" encoding="utf-8"?>
<!-- Generator: Adobe Illustrator 18.0.0, SVG Export Plug-In . SVG Version: 6.00 Build 0)  -->
<!DOCTYPE svg PUBLIC "-//W3C//DTD SVG 1.1//EN" "http://www.w3.org/Graphics/SVG/1.1/DTD/svg11.dtd">
<svg version="1.1" id="图层_1" xmlns="http://www.w3.org/2000/svg" xmlns:xlink="http://www.w3.org/1999/xlink" x="0px" y="0px"
	 width="32px" height="32px" viewBox="0 0 32 32" enable-background="new 0 0 32 32" xml:space="preserve">
<g>
	<g>
		<rect x="1" y="1.033" fill="#BCBCBC" width="29.933" height="29.966"/>
	</g>
	<polygon fill="#FEFEFE" points="29.858,2.1 1.892,2.1 1.892,30.108 29.858,30.108 29.858,2.1 	"/>
	<rect x="3.008" y="3.1" fill="#A9A9A9" width="25.917" height="25.833"/>
	<g>
		<path fill="#FFFFFF" d="M6.966,27.6V5.558h18V27.6H6.966z M22.008,25.6v-4H10.05v4H22.008z M22.008,19.6v-4H10.05v4H22.008z
			 M22.008,13.6v-4H10.05v4H22.008z"/>
		<path fill="#AFAFAF" d="M24.467,6.058V27.1h-17V6.058H24.467 M9.55,14.1h12.958v-5H9.55V14.1 M9.55,20.1h12.958v-5H9.55V20.1
			 M9.55,26.1h12.958v-5H9.55V26.1 M25.467,5.058h-1h-17h-1v1V27.1v1h1h17h1v-1V6.058V5.058L25.467,5.058z M10.55,10.1h10.958v3
			H10.55V10.1L10.55,10.1z M10.55,16.1h10.958v3H10.55V16.1L10.55,16.1z M10.55,22.1h10.958v3H10.55V22.1L10.55,22.1z"/>
	</g>
	<g>
		<rect x="8.467" y="7.1" fill="#ADADAD" width="5" height="1"/>
		<rect x="14.508" y="7.1" fill="#ADADAD" width="4" height="1"/>
		<rect x="19.508" y="7.1" fill="#ADADAD" width="4" height="1"/>
	</g>
	<g>
		<path fill="#8F8F8F" d="M21.508,10.1v3H10.55v-3H21.508 M22.508,9.1H9.55v5h12.958V9.1L22.508,9.1z"/>
		<path fill="#8F8F8F" d="M21.508,16.1v3H10.55v-3H21.508 M22.508,15.1H9.55v5h12.958V15.1L22.508,15.1z"/>
		<path fill="#8F8F8F" d="M21.508,22.1v3H10.55v-3H21.508 M22.508,21.1H9.55v5h12.958V21.1L22.508,21.1z"/>
	</g>
	<g>
		<g>
			<g>
				<rect x="11.805" y="10.131" fill="#D4D4D4" width="1.052" height="1.021"/>
				<rect x="12.821" y="11.147" fill="#D4D4D4" width="1.052" height="1.021"/>
				<rect x="13.805" y="12.131" fill="#D4D4D4" width="1.052" height="1.021"/>
			</g>
			<g>
				<rect x="16.836" y="10.131" fill="#D4D4D4" width="1.052" height="1.021"/>
				<rect x="17.852" y="11.147" fill="#D4D4D4" width="1.052" height="1.021"/>
				<rect x="18.836" y="12.131" fill="#D4D4D4" width="1.052" height="1.021"/>
			</g>
		</g>
		<g>
			<g>
				<rect x="11.805" y="16.053" fill="#D4D4D4" width="1.052" height="1.021"/>
				<rect x="12.821" y="17.069" fill="#D4D4D4" width="1.052" height="1.021"/>
				<rect x="13.805" y="18.053" fill="#D4D4D4" width="1.052" height="1.021"/>
			</g>
			<g>
				<rect x="16.836" y="16.053" fill="#D4D4D4" width="1.052" height="1.021"/>
				<rect x="17.852" y="17.069" fill="#D4D4D4" width="1.052" height="1.021"/>
				<rect x="18.836" y="18.053" fill="#D4D4D4" width="1.052" height="1.021"/>
			</g>
		</g>
		<g>
			<g>
				<rect x="11.805" y="22.116" fill="#D4D4D4" width="1.052" height="1.021"/>
				<rect x="12.821" y="23.131" fill="#D4D4D4" width="1.052" height="1.021"/>
				<rect x="13.805" y="24.116" fill="#D4D4D4" width="1.052" height="1.021"/>
			</g>
			<g>
				<rect x="16.836" y="22.116" fill="#D4D4D4" width="1.052" height="1.021"/>
				<rect x="17.852" y="23.131" fill="#D4D4D4" width="1.052" height="1.021"/>
				<rect x="18.836" y="24.116" fill="#D4D4D4" width="1.052" height="1.021"/>
			</g>
		</g>
	</g>
</g>
</svg>
