<?xml version="1.0" encoding="utf-8"?>
<!-- Generator: Adobe Illustrator 18.0.0, SVG Export Plug-In . SVG Version: 6.00 Build 0)  -->
<!DOCTYPE svg PUBLIC "-//W3C//DTD SVG 1.1//EN" "http://www.w3.org/Graphics/SVG/1.1/DTD/svg11.dtd">
<svg version="1.1" id="图层_1" xmlns="http://www.w3.org/2000/svg" xmlns:xlink="http://www.w3.org/1999/xlink" x="0px" y="0px"
	 width="32px" height="32px" viewBox="0 0 32 32" enable-background="new 0 0 32 32" xml:space="preserve">
<g>
	<g>
		<rect x="0.492" y="10.017" fill="#FFFFFF" width="31.017" height="11.967"/>
		<path fill="#DADADA" d="M31.008,10.517v10.966H0.992V10.517H31.008 M32.008,9.517H-0.008v12.966h32.016V9.517L32.008,9.517z"/>
	</g>
	<g>
		<rect x="2.546" y="11.912" fill="#FFFFFF" width="27.225" height="8.017"/>
		<path fill="#BFBFBF" d="M29.276,12.408v7.026H3.041v-7.026H29.276 M30.267,11.417H2.05v9.008h28.216V11.417L30.267,11.417z"/>
	</g>
	<g>
		<path fill="#A6A6A6" d="M4.195,13.489v1.979H4.174v1h0.021v1.979h6.927v-4.958H4.195z M10.122,15.469H9.206v-0.979h0.917V15.469z
			 M8.206,17.448H7.143v-0.979h1.062V17.448z M7.143,15.469v-0.979h1.062v0.979H7.143z M5.195,14.489h0.948v0.979H5.195V14.489z
			 M5.195,16.469h0.948v0.979H5.195V16.469z M9.206,17.448v-0.979h0.917v0.979H9.206z"/>
		<path fill="#A6A6A6" d="M12.195,13.489v1.979h-0.021v1h0.021v1.979h6.927v-4.958H12.195z M18.122,15.469h-0.917v-0.979h0.917
			V15.469z M16.206,17.448h-1.063v-0.979h1.063V17.448z M15.143,15.469v-0.979h1.063v0.979H15.143z M13.195,14.489h0.948v0.979
			h-0.948V14.489z M13.195,16.469h0.948v0.979h-0.948V16.469z M17.206,17.448v-0.979h0.917v0.979H17.206z"/>
	</g>
	<g>
		<polygon fill="#A6A6A6" points="25.174,15.464 24.19,15.464 24.19,14.469 23.19,14.469 23.19,15.464 22.206,15.464 22.206,16.474 
			23.19,16.474 23.19,17.469 24.19,17.469 24.19,16.474 25.174,16.474 		"/>
		<rect x="26.174" y="14.469" fill="#A6A6A6" width="1.984" height="2.984"/>
	</g>
</g>
</svg>
