<?xml version="1.0" encoding="utf-8"?>
<!-- Generator: Adobe Illustrator 18.0.0, SVG Export Plug-In . SVG Version: 6.00 Build 0)  -->
<!DOCTYPE svg PUBLIC "-//W3C//DTD SVG 1.1//EN" "http://www.w3.org/Graphics/SVG/1.1/DTD/svg11.dtd">
<svg version="1.1" id="图层_1" xmlns="http://www.w3.org/2000/svg" xmlns:xlink="http://www.w3.org/1999/xlink" x="0px" y="0px"
	 width="32px" height="32px" viewBox="0 0 32 32" enable-background="new 0 0 32 32" xml:space="preserve">
<g>
	<g>
		<rect x="1" y="1.033" fill="#BCBCBC" width="29.933" height="29.966"/>
	</g>
	<polygon fill="#FEFEFE" points="29.941,2.1 1.975,2.1 1.975,30.108 29.941,30.108 29.941,2.1 	"/>
	<linearGradient id="SVGID_1_" gradientUnits="userSpaceOnUse" x1="15.7999" y1="28.9334" x2="15.7999" y2="3.1">
		<stop  offset="0" style="stop-color:#2CA539"/>
		<stop  offset="1" style="stop-color:#009117"/>
	</linearGradient>
	<rect x="2.842" y="3.1" fill="url(#SVGID_1_)" width="25.917" height="25.833"/>
	<path fill="#FDFEFC" d="M7.883,6.058V27.1h17V6.058H7.883z M22.925,26.1H9.967v-5h12.958V26.1z M22.925,20.1H9.967v-5h12.958V20.1z
		 M22.925,14.1H9.967v-5h12.958V14.1z"/>
	<g>
		<rect x="8.883" y="7.1" fill="#00941B" width="5" height="1"/>
		<rect x="14.925" y="7.1" fill="#00941B" width="4" height="1"/>
		<rect x="19.925" y="7.1" fill="#00941B" width="4" height="1"/>
	</g>
	<g>
		<path fill="#008512" d="M21.925,10.1v3H10.967v-3H21.925 M22.925,9.1H9.967v5h12.958V9.1L22.925,9.1z"/>
		<path fill="#008512" d="M21.925,16.1v3H10.967v-3H21.925 M22.925,15.1H9.967v5h12.958V15.1L22.925,15.1z"/>
		<path fill="#008512" d="M21.925,22.1v3H10.967v-3H21.925 M22.925,21.1H9.967v5h12.958V21.1L22.925,21.1z"/>
	</g>
	<g>
		<g>
			<rect x="12.222" y="10.131" fill="#9DCC99" width="1.052" height="1.021"/>
			<rect x="13.237" y="11.147" fill="#9DCC99" width="1.052" height="1.021"/>
			<rect x="14.222" y="12.131" fill="#9DCC99" width="1.052" height="1.021"/>
		</g>
		<g>
			<rect x="17.253" y="10.131" fill="#9DCC99" width="1.052" height="1.021"/>
			<rect x="18.269" y="11.147" fill="#9DCC99" width="1.052" height="1.021"/>
			<rect x="19.253" y="12.131" fill="#9DCC99" width="1.052" height="1.021"/>
		</g>
	</g>
	<g>
		<g>
			<rect x="12.222" y="16.053" fill="#9DCC99" width="1.052" height="1.021"/>
			<rect x="13.237" y="17.069" fill="#9DCC99" width="1.052" height="1.021"/>
			<rect x="14.222" y="18.053" fill="#9DCC99" width="1.052" height="1.021"/>
		</g>
		<g>
			<rect x="17.253" y="16.053" fill="#9DCC99" width="1.052" height="1.021"/>
			<rect x="18.269" y="17.069" fill="#9DCC99" width="1.052" height="1.021"/>
			<rect x="19.253" y="18.053" fill="#9DCC99" width="1.052" height="1.021"/>
		</g>
	</g>
	<g>
		<g>
			<rect x="12.222" y="22.116" fill="#9DCC99" width="1.052" height="1.021"/>
			<rect x="13.237" y="23.131" fill="#9DCC99" width="1.052" height="1.021"/>
			<rect x="14.222" y="24.116" fill="#9DCC99" width="1.052" height="1.021"/>
		</g>
		<g>
			<rect x="17.253" y="22.116" fill="#9DCC99" width="1.052" height="1.021"/>
			<rect x="18.269" y="23.131" fill="#9DCC99" width="1.052" height="1.021"/>
			<rect x="19.253" y="24.116" fill="#9DCC99" width="1.052" height="1.021"/>
		</g>
	</g>
</g>
</svg>
