<?xml version="1.0" encoding="utf-8"?>
<!-- Generator: Adobe Illustrator 18.0.0, SVG Export Plug-In . SVG Version: 6.00 Build 0)  -->
<!DOCTYPE svg PUBLIC "-//W3C//DTD SVG 1.1//EN" "http://www.w3.org/Graphics/SVG/1.1/DTD/svg11.dtd">
<svg version="1.1" id="图层_1" xmlns="http://www.w3.org/2000/svg" xmlns:xlink="http://www.w3.org/1999/xlink" x="0px" y="0px"
	 width="32px" height="32px" viewBox="0 0 32 32" enable-background="new 0 0 32 32" xml:space="preserve">
<g>
	<g>
		<rect x="0.458" y="8.5" fill="#FFFFFF" width="31.084" height="15"/>
		<path fill="#B1B1B1" d="M31.042,9v14H0.958V9H31.042 M32.042,8H-0.042v16h32.083V8L32.042,8z"/>
	</g>
	<g>
		<path fill="#0092E1" d="M29,11.042V21H3v-9.958H29 M30,10.042h-1H3H2v1V21v1h1h26h1v-1v-9.958V10.042L30,10.042z"/>
	</g>
	<g>
		<linearGradient id="SVGID_1_" gradientUnits="userSpaceOnUse" x1="16" y1="20.5" x2="16" y2="11.5415">
			<stop  offset="0" style="stop-color:#00AEF9"/>
			<stop  offset="1" style="stop-color:#0092E1"/>
		</linearGradient>
		<rect x="3.5" y="11.542" fill="url(#SVGID_1_)" width="25" height="8.958"/>
		<path fill="#FFFFFF" d="M28,12.042V20H4v-7.958H28 M29,11.042H3V21h26V11.042L29,11.042z"/>
	</g>
	<rect x="5.021" y="13.083" fill="#FFFFFF" width="2" height="2"/>
	<rect x="8.021" y="13.083" fill="#FFFFFF" width="2" height="2"/>
	<rect x="11.021" y="13.083" fill="#FFFFFF" width="2" height="2"/>
	<rect x="26.021" y="13.083" fill="#FFFFFF" width="0.958" height="6"/>
	<rect x="5.021" y="17.083" fill="#FFFFFF" width="2" height="2"/>
	<rect x="8.021" y="17.083" fill="#FFFFFF" width="2" height="2"/>
	<rect x="11.021" y="17.083" fill="#FFFFFF" width="2" height="2"/>
	<polygon fill="#FFFFFF" points="20,15.042 19,15.042 19,14.042 17,14.042 17,15.042 16,15.042 16,17.042 17,17.042 17,18.042 
		19,18.042 19,17.042 20,17.042 	"/>
	<polygon fill="#FFFFFF" points="25.042,15.042 24.042,15.042 24.042,14.042 22.042,14.042 22.042,15.042 21.042,15.042 
		21.042,17.042 22.042,17.042 22.042,18.042 24.042,18.042 24.042,17.042 25.042,17.042 	"/>
</g>
</svg>
