<?xml version="1.0" encoding="utf-8"?>
<!-- Generator: Adobe Illustrator 18.0.0, SVG Export Plug-In . SVG Version: 6.00 Build 0)  -->
<!DOCTYPE svg PUBLIC "-//W3C//DTD SVG 1.1//EN" "http://www.w3.org/Graphics/SVG/1.1/DTD/svg11.dtd">
<svg version="1.1" id="图层_1" xmlns="http://www.w3.org/2000/svg" xmlns:xlink="http://www.w3.org/1999/xlink" x="0px" y="0px"
	 width="32px" height="32px" viewBox="0 0 32 32" enable-background="new 0 0 32 32" xml:space="preserve">
<g>
	<path fill="#C6C6C6" d="M31.486,0.5H0.514c-0.092,0-0.167,0.075-0.167,0.167v30.667c0,0.092,0.075,0.167,0.167,0.167h30.972
		c0.092,0,0.166-0.074,0.166-0.166V0.667C31.652,0.575,31.578,0.5,31.486,0.5L31.486,0.5z"/>
	<polyline fill="#F5F5F5" points="30.609,1.543 30.609,30.717 1.391,30.717 1.391,1.543 30.609,1.543 	"/>
	<linearGradient id="SVGID_1_" gradientUnits="userSpaceOnUse" x1="15.9565" y1="29.5653" x2="15.9565" y2="2.6521">
		<stop  offset="0" style="stop-color:#FF7F01"/>
		<stop  offset="1" style="stop-color:#F05800"/>
	</linearGradient>
	<path fill="url(#SVGID_1_)" d="M29.046,29.565H2.867c-0.263,0-0.476-0.213-0.476-0.476V3.128c0-0.263,0.213-0.476,0.476-0.476
		h26.179c0.263,0,0.476,0.213,0.476,0.476V29.09C29.522,29.352,29.309,29.565,29.046,29.565z"/>
	<path fill="#FFFFFF" d="M5.565,8.826v18.783h20.87V8.826H5.565z M18.109,10.913h2v10.348h-2V10.913z M14.978,10.913h2v10.348h-2
		V10.913z M11.848,10.913h2v10.348h-2V10.913z M9.674,26.5H6.63v-2.054h3.044V26.5z M10.804,21.261h-2V10.913h2V21.261z
		 M20.174,26.5h-8.391v-2.054h8.391V26.5z M21.239,10.913h2v10.348h-2V10.913z M25.326,26.5h-3.044v-2.054h3.044V26.5z"/>
	<polygon fill="#F5F5F5" points="25.489,7.163 7.098,7.163 9.368,5.533 23.801,5.533 	"/>
	<polyline fill="#FFFFFF" points="23.801,5.533 25.891,7.696 6.456,7.696 9.368,5.533 23.801,5.533 	"/>
</g>
</svg>
