<?xml version="1.0" encoding="utf-8"?>
<!-- Generator: Adobe Illustrator 18.0.0, SVG Export Plug-In . SVG Version: 6.00 Build 0)  -->
<!DOCTYPE svg PUBLIC "-//W3C//DTD SVG 1.1//EN" "http://www.w3.org/Graphics/SVG/1.1/DTD/svg11.dtd">
<svg version="1.1" id="图层_1" xmlns="http://www.w3.org/2000/svg" xmlns:xlink="http://www.w3.org/1999/xlink" x="0px" y="0px"
	 width="32px" height="32px" viewBox="0 0 32 32" enable-background="new 0 0 32 32" xml:space="preserve">
<g>
	<path fill="#C6C6C6" d="M31.09,1.5H1.41c-0.088,0-0.16,0.072-0.16,0.16v29.389c0,0.088,0.071,0.16,0.16,0.16h29.681
		c0.088,0,0.159-0.071,0.159-0.159V1.66C31.25,1.572,31.179,1.5,31.09,1.5L31.09,1.5z"/>
	<polyline fill="#FFFFFF" points="30.25,2.313 30.25,30.396 2.25,30.396 2.25,2.313 30.25,2.313 	"/>
	<path fill="#D2AE00" d="M28.794,29.25H3.706c-0.252,0-0.456-0.204-0.456-0.456V3.914c0-0.252,0.204-0.456,0.456-0.456h25.088
		c0.252,0,0.456,0.204,0.456,0.456v24.88C29.25,29.046,29.046,29.25,28.794,29.25z"/>
	<rect x="7.333" y="25.75" fill="#FFFFFF" width="17.958" height="1"/>
	<rect x="7.333" y="26.792" fill="#A78A00" width="17.958" height="1"/>
	<polygon fill="#A78A00" points="26.167,4.917 6.333,4.917 6.333,25.75 26.167,25.75 26.167,4.917 	"/>
	<polyline fill="#FFFFFF" points="25.167,5.917 25.167,24.75 7.333,24.75 7.333,5.917 25.167,5.917 	"/>
	<rect x="9.438" y="7.917" fill="#A78A00" width="1.917" height="13.75"/>
	<rect x="13.438" y="7.917" fill="#A78A00" width="1.917" height="13.75"/>
	<rect x="17.271" y="7.917" fill="#A78A00" width="1.917" height="13.75"/>
	<rect x="21.271" y="7.917" fill="#A78A00" width="1.917" height="13.75"/>
</g>
</svg>
