<?xml version="1.0" encoding="utf-8"?>
<!-- Generator: Adobe Illustrator 18.0.0, SVG Export Plug-In . SVG Version: 6.00 Build 0)  -->
<!DOCTYPE svg PUBLIC "-//W3C//DTD SVG 1.1//EN" "http://www.w3.org/Graphics/SVG/1.1/DTD/svg11.dtd">
<svg version="1.1" id="图层_1" xmlns="http://www.w3.org/2000/svg" xmlns:xlink="http://www.w3.org/1999/xlink" x="0px" y="0px"
	 width="32px" height="32px" viewBox="0 0 32 32" enable-background="new 0 0 32 32" xml:space="preserve">
<path fill="#C6C6C6" d="M30.84,1H1.16C1.072,1,1,1.072,1,1.16v29.389c0,0.088,0.071,0.16,0.16,0.16h29.681
	c0.088,0,0.159-0.071,0.159-0.159V1.16C31,1.072,30.929,1,30.84,1L30.84,1z"/>
<polyline fill="#FFFFFF" points="30,1.813 30,29.896 2,29.896 2,1.813 30,1.813 "/>
<path fill="#C4C4C4" d="M28.544,28.75H3.456C3.204,28.75,3,28.546,3,28.294V3.414c0-0.252,0.204-0.456,0.456-0.456h25.088
	C28.796,2.958,29,3.162,29,3.414v24.88C29,28.546,28.796,28.75,28.544,28.75z"/>
<g>
	<rect x="7.083" y="25.25" fill="#F5F5F5" width="17.958" height="1"/>
	<rect x="7.083" y="26.292" fill="#909090" width="17.958" height="1"/>
	<polygon fill="#ACACAC" points="25.917,4.417 6.083,4.417 6.083,25.25 25.917,25.25 25.917,4.417 	"/>
	<polyline fill="#FFFFFF" points="24.917,5.417 24.917,24.25 7.083,24.25 7.083,5.417 24.917,5.417 	"/>
	<rect x="9.188" y="7.417" fill="#A1A1A1" width="1.917" height="13.75"/>
	<rect x="13.188" y="7.417" fill="#A1A1A1" width="1.917" height="13.75"/>
	<rect x="17.021" y="7.417" fill="#A1A1A1" width="1.917" height="13.75"/>
	<rect x="21.021" y="7.417" fill="#A1A1A1" width="1.917" height="13.75"/>
</g>
</svg>
