<?xml version="1.0" encoding="utf-8"?>
<!-- Generator: Adobe Illustrator 18.0.0, SVG Export Plug-In . SVG Version: 6.00 Build 0)  -->
<!DOCTYPE svg PUBLIC "-//W3C//DTD SVG 1.1//EN" "http://www.w3.org/Graphics/SVG/1.1/DTD/svg11.dtd">
<svg version="1.1" id="图层_1" xmlns="http://www.w3.org/2000/svg" xmlns:xlink="http://www.w3.org/1999/xlink" x="0px" y="0px"
	 width="32px" height="32px" viewBox="0 0 32 32" enable-background="new 0 0 32 32" xml:space="preserve">
<g>
	<path fill="#C6C6C6" d="M31.486,0.5H0.514c-0.092,0-0.167,0.075-0.167,0.167v30.667c0,0.092,0.075,0.167,0.167,0.167h30.972
		c0.092,0,0.166-0.074,0.166-0.166V0.667C31.652,0.575,31.578,0.5,31.486,0.5L31.486,0.5z"/>
	<polyline fill="#F5F5F5" points="30.609,1.543 30.609,30.717 1.391,30.717 1.391,1.543 30.609,1.543 	"/>
	<linearGradient id="SVGID_1_" gradientUnits="userSpaceOnUse" x1="15.9565" y1="29.5653" x2="15.9565" y2="2.6521">
		<stop  offset="0" style="stop-color:#2CA539"/>
		<stop  offset="1" style="stop-color:#009117"/>
	</linearGradient>
	<path fill="url(#SVGID_1_)" d="M29.046,29.565H2.867c-0.263,0-0.476-0.213-0.476-0.476V3.128c0-0.263,0.213-0.476,0.476-0.476
		h26.179c0.263,0,0.476,0.213,0.476,0.476V29.09C29.522,29.352,29.309,29.565,29.046,29.565z"/>
	<polyline fill="#FFFFFF" points="26.435,8.826 26.435,27.609 5.565,27.609 5.565,8.826 26.435,8.826 	"/>
	<g>
		<rect x="8.804" y="10.913" fill="#0C9926" width="2" height="10.348"/>
		<rect x="11.848" y="10.913" fill="#0C9926" width="2" height="10.348"/>
		<rect x="14.978" y="10.913" fill="#0C9926" width="2" height="10.348"/>
		<rect x="18.109" y="10.913" fill="#0C9926" width="2" height="10.348"/>
		<rect x="21.239" y="10.913" fill="#0C9926" width="2" height="10.348"/>
		<rect x="6.63" y="24.446" fill="#0C9926" width="3.043" height="2.054"/>
		<rect x="22.283" y="24.446" fill="#0C9926" width="3.043" height="2.054"/>
		<rect x="11.783" y="24.446" fill="#0C9926" width="8.391" height="2.054"/>
	</g>
	<polygon fill="#F5F5F5" points="25.489,7.163 7.098,7.163 9.368,5.533 23.801,5.533 	"/>
	<polyline fill="#FFFFFF" points="23.801,5.533 25.891,7.696 6.456,7.696 9.368,5.533 23.801,5.533 	"/>
</g>
</svg>
