<?xml version="1.0" encoding="utf-8"?>
<!-- Generator: Adobe Illustrator 18.0.0, SVG Export Plug-In . SVG Version: 6.00 Build 0)  -->
<!DOCTYPE svg PUBLIC "-//W3C//DTD SVG 1.1//EN" "http://www.w3.org/Graphics/SVG/1.1/DTD/svg11.dtd">
<svg version="1.1" id="图层_1" xmlns="http://www.w3.org/2000/svg" xmlns:xlink="http://www.w3.org/1999/xlink" x="0px" y="0px"
	 width="32px" height="32px" viewBox="0 0 32 32" enable-background="new 0 0 32 32" xml:space="preserve">
<polygon fill="#BFBFBF" points="32,7.001 0,7.001 0,23.001 32,23.001 32,7.001 "/>
<polyline fill="#FFFFFF" points="31,8.001 31,22.001 1,22.001 1,8.001 31,8.001 "/>
<polygon fill="#BFBFBF" points="30.042,9.001 2.042,9.001 2.042,21.001 30.042,21.001 30.042,9.001 "/>
<polyline fill="#FFFFFF" points="29.142,9.901 29.142,20.101 2.942,20.101 2.942,9.901 29.142,9.901 "/>
<g>
	<rect x="4.917" y="11.042" fill="#8D8D8D" width="3.083" height="7.917"/>
	<rect x="10" y="13.042" fill="#8D8D8D" width="5" height="0.979"/>
	<rect x="16.5" y="13.042" fill="#8D8D8D" width="5" height="0.979"/>
	<rect x="23" y="13.042" fill="#8D8D8D" width="5" height="0.979"/>
	<rect x="10" y="17.042" fill="#8D8D8D" width="5" height="0.979"/>
	<rect x="16.5" y="17.042" fill="#8D8D8D" width="5" height="0.979"/>
	<rect x="23" y="17.042" fill="#8D8D8D" width="5" height="0.979"/>
	<g>
		<rect x="4" y="11.042" fill="#BFBFBF" width="3.083" height="7.917"/>
		<rect x="10" y="12.042" fill="#BFBFBF" width="5" height="0.979"/>
		<rect x="16.5" y="12.042" fill="#BFBFBF" width="5" height="0.979"/>
		<rect x="23" y="12.042" fill="#BFBFBF" width="5" height="0.979"/>
		<rect x="10" y="16.042" fill="#BFBFBF" width="5" height="0.979"/>
		<rect x="16.5" y="16.042" fill="#BFBFBF" width="5" height="0.979"/>
		<rect x="23" y="16.042" fill="#BFBFBF" width="5" height="0.979"/>
	</g>
</g>
</svg>
