<?xml version="1.0" encoding="utf-8"?>
<!-- Generator: Adobe Illustrator 18.0.0, SVG Export Plug-In . SVG Version: 6.00 Build 0)  -->
<!DOCTYPE svg PUBLIC "-//W3C//DTD SVG 1.1//EN" "http://www.w3.org/Graphics/SVG/1.1/DTD/svg11.dtd">
<svg version="1.1" id="图层_1" xmlns="http://www.w3.org/2000/svg" xmlns:xlink="http://www.w3.org/1999/xlink" x="0px" y="0px"
	 width="32px" height="32px" viewBox="0 0 32 32" enable-background="new 0 0 32 32" xml:space="preserve">
<g>
	<path fill="#C6C6C6" d="M30.84,1H1.16C1.072,1,1,1.072,1,1.16v29.389c0,0.088,0.071,0.16,0.16,0.16h29.681
		c0.088,0,0.159-0.071,0.159-0.159V1.16C31,1.072,30.929,1,30.84,1L30.84,1z"/>
	<polyline fill="#FFFFFF" points="30,1.813 30,29.896 2,29.896 2,1.813 30,1.813 	"/>
	<linearGradient id="SVGID_1_" gradientUnits="userSpaceOnUse" x1="16.0001" y1="28.75" x2="16.0001" y2="2.9584">
		<stop  offset="0" style="stop-color:#FBEA99"/>
		<stop  offset="0.1559" style="stop-color:#FAE895"/>
		<stop  offset="0.3184" style="stop-color:#F6E388"/>
		<stop  offset="0.4838" style="stop-color:#F0DA73"/>
		<stop  offset="0.6514" style="stop-color:#E7CE56"/>
		<stop  offset="0.8206" style="stop-color:#DCBE31"/>
		<stop  offset="0.9889" style="stop-color:#CFAB03"/>
		<stop  offset="1" style="stop-color:#CEAA00"/>
	</linearGradient>
	<path fill="url(#SVGID_1_)" d="M28.544,28.75H3.456C3.204,28.75,3,28.546,3,28.294V3.414c0-0.252,0.204-0.456,0.456-0.456h25.088
		C28.796,2.958,29,3.162,29,3.414v24.88C29,28.546,28.796,28.75,28.544,28.75z"/>
	<path fill="#C0A600" d="M7,5.354v21h18v-21H7z M11,25.354H9.125v-13H11V25.354z M12.063,10.323h-3V9.385h3V10.323z M12.063,8.292
		h-3V7.354h3V8.292z M15,25.354h-1.875v-13H15V25.354z M16.042,10.323h-3V9.385h3V10.323z M16.042,8.292h-3V7.354h3V8.292z
		 M19,25.354h-1.875v-13H19V25.354z M20.021,10.323h-3V9.385h3V10.323z M20.021,8.292h-3V7.354h3V8.292z M23,25.354h-1.875v-13H23
		V25.354z M24,10.323h-3V9.385h3V10.323z M24,8.292h-3V7.354h3V8.292z"/>
</g>
</svg>
