<?xml version="1.0" encoding="utf-8"?>
<!-- Generator: Adobe Illustrator 18.0.0, SVG Export Plug-In . SVG Version: 6.00 Build 0)  -->
<!DOCTYPE svg PUBLIC "-//W3C//DTD SVG 1.1//EN" "http://www.w3.org/Graphics/SVG/1.1/DTD/svg11.dtd">
<svg version="1.1" id="图层_1" xmlns="http://www.w3.org/2000/svg" xmlns:xlink="http://www.w3.org/1999/xlink" x="0px" y="0px"
	 width="32px" height="32px" viewBox="0 0 32 32" enable-background="new 0 0 32 32" xml:space="preserve">
<g>
	<path fill="#C6C6C6" d="M31.174,1.625H1.493c-0.088,0-0.16,0.072-0.16,0.16v29.389c0,0.088,0.071,0.16,0.16,0.16h29.681
		c0.088,0,0.159-0.071,0.159-0.159V1.785C31.333,1.697,31.262,1.625,31.174,1.625L31.174,1.625z"/>
	<polyline fill="#FFFFFF" points="30.333,2.438 30.333,30.521 2.333,30.521 2.333,2.438 30.333,2.438 	"/>
	<linearGradient id="SVGID_1_" gradientUnits="userSpaceOnUse" x1="16.3334" y1="29.3751" x2="16.3334" y2="3.5834">
		<stop  offset="0" style="stop-color:#FF1F30"/>
		<stop  offset="1" style="stop-color:#C3020F"/>
	</linearGradient>
	<path fill="url(#SVGID_1_)" d="M28.878,29.375H3.789c-0.252,0-0.456-0.204-0.456-0.456V4.039c0-0.252,0.204-0.456,0.456-0.456
		h25.088c0.252,0,0.456,0.204,0.456,0.456v24.88C29.333,29.171,29.129,29.375,28.878,29.375z"/>
	<path fill="#FFFFFF" d="M6.823,7v18.958h19.021V7H6.823z M7.802,7.979h2v0.958h-2V7.979z M10.802,24.938h-2V10.979h2V24.938z
		 M10.802,7.979h2v0.958h-2V7.979z M14.802,24.938h-2V10.979h2V24.938z M15.802,8.938h-2V7.979h2V8.938z M18.76,24.938h-2V10.979h2
		V24.938z M18.802,8.938h-2V7.979h2V8.938z M19.802,7.979h2v0.958h-2V7.979z M22.76,24.938h-2V10.979h2V24.938z M24.802,8.938h-2
		V7.979h2V8.938z"/>
</g>
</svg>
