<?xml version="1.0" encoding="utf-8"?>
<!-- Generator: Adobe Illustrator 18.0.0, SVG Export Plug-In . SVG Version: 6.00 Build 0)  -->
<!DOCTYPE svg PUBLIC "-//W3C//DTD SVG 1.1//EN" "http://www.w3.org/Graphics/SVG/1.1/DTD/svg11.dtd">
<svg version="1.1" id="图层_1" xmlns="http://www.w3.org/2000/svg" xmlns:xlink="http://www.w3.org/1999/xlink" x="0px" y="0px"
	 width="32px" height="32px" viewBox="0 0 32 32" enable-background="new 0 0 32 32" xml:space="preserve">
<path fill="#C6C6C6" d="M30.84,1.625H1.16C1.072,1.625,1,1.697,1,1.785v29.389c0,0.088,0.071,0.16,0.16,0.16h29.681
	c0.088,0,0.159-0.071,0.159-0.159V1.785C31,1.697,30.929,1.625,30.84,1.625L30.84,1.625z"/>
<polyline fill="#FFFFFF" points="30,2.438 30,30.521 2,30.521 2,2.438 30,2.438 "/>
<path fill="#C4C4C4" d="M28.544,29.375H3.456C3.204,29.375,3,29.171,3,28.919V4.039c0-0.252,0.204-0.456,0.456-0.456h25.088
	C28.796,3.583,29,3.787,29,4.039v24.88C29,29.171,28.796,29.375,28.544,29.375z"/>
<g>
	<path fill="#A2A2A2" d="M6.927,7.5v18.958h19.021V7.5H6.927z M7.906,8.479h2v0.958h-2V8.479z M10.906,25.438h-2V11.479h2V25.438z
		 M10.906,8.479h2v0.958h-2V8.479z M14.906,25.438h-2V11.479h2V25.438z M15.906,9.438h-2V8.479h2V9.438z M18.865,25.438h-2V11.479h2
		V25.438z M18.906,9.438h-2V8.479h2V9.438z M19.906,8.479h2v0.958h-2V8.479z M22.865,25.438h-2V11.479h2V25.438z M24.906,9.438h-2
		V8.479h2V9.438z"/>
	<path fill="#FFFFFF" d="M6.052,6.5v18.958h19.021V6.5H6.052z M7.031,7.479h2v0.958h-2V7.479z M10.031,24.438h-2V10.479h2V24.438z
		 M10.031,7.479h2v0.958h-2V7.479z M14.031,24.438h-2V10.479h2V24.438z M15.031,8.438h-2V7.479h2V8.438z M17.99,24.438h-2V10.479h2
		V24.438z M18.031,8.438h-2V7.479h2V8.438z M19.031,7.479h2v0.958h-2V7.479z M21.99,24.438h-2V10.479h2V24.438z M24.031,8.438h-2
		V7.479h2V8.438z"/>
</g>
</svg>
