<?xml version="1.0" encoding="utf-8"?>
<!-- Generator: Adobe Illustrator 18.0.0, SVG Export Plug-In . SVG Version: 6.00 Build 0)  -->
<!DOCTYPE svg PUBLIC "-//W3C//DTD SVG 1.1//EN" "http://www.w3.org/Graphics/SVG/1.1/DTD/svg11.dtd">
<svg version="1.1" id="图层_1" xmlns="http://www.w3.org/2000/svg" xmlns:xlink="http://www.w3.org/1999/xlink" x="0px" y="0px"
	 width="32px" height="32px" viewBox="0 0 32 32" enable-background="new 0 0 32 32" xml:space="preserve">
<g>
	<path fill="#C6C6C6" d="M30.84,1.625H1.16C1.072,1.625,1,1.697,1,1.785v29.389c0,0.088,0.071,0.16,0.16,0.16h29.681
		c0.088,0,0.159-0.071,0.159-0.159V1.785C31,1.697,30.929,1.625,30.84,1.625L30.84,1.625z"/>
	<polyline fill="#FFFFFF" points="30,2.438 30,30.521 2,30.521 2,2.438 30,2.438 	"/>
	<linearGradient id="SVGID_1_" gradientUnits="userSpaceOnUse" x1="16.0001" y1="29.3751" x2="16.0001" y2="3.5834">
		<stop  offset="0" style="stop-color:#2CA539"/>
		<stop  offset="1" style="stop-color:#009117"/>
	</linearGradient>
	<path fill="url(#SVGID_1_)" d="M28.544,29.375H3.456C3.204,29.375,3,29.171,3,28.919V4.039c0-0.252,0.204-0.456,0.456-0.456h25.088
		C28.796,3.583,29,3.787,29,4.039v24.88C29,29.171,28.796,29.375,28.544,29.375z"/>
	<path fill="#FFFFFF" d="M6.49,7v18.958h19.021V7H6.49z M7.469,7.979h2v0.958h-2V7.979z M10.469,24.938h-2V10.979h2V24.938z
		 M10.469,7.979h2v0.958h-2V7.979z M14.469,24.938h-2V10.979h2V24.938z M15.469,8.938h-2V7.979h2V8.938z M18.427,24.938h-2V10.979h2
		V24.938z M18.469,8.938h-2V7.979h2V8.938z M19.469,7.979h2v0.958h-2V7.979z M22.427,24.938h-2V10.979h2V24.938z M24.469,8.938h-2
		V7.979h2V8.938z"/>
</g>
</svg>
