<?xml version="1.0" encoding="utf-8"?>
<!-- Generator: Adobe Illustrator 18.0.0, SVG Export Plug-In . SVG Version: 6.00 Build 0)  -->
<!DOCTYPE svg PUBLIC "-//W3C//DTD SVG 1.1//EN" "http://www.w3.org/Graphics/SVG/1.1/DTD/svg11.dtd">
<svg version="1.1" id="图层_1" xmlns="http://www.w3.org/2000/svg" xmlns:xlink="http://www.w3.org/1999/xlink" x="0px" y="0px"
	 width="32px" height="32px" viewBox="0 0 32 32" enable-background="new 0 0 32 32" xml:space="preserve">
<path fill="#C6C6C6" d="M30.84,1.333H1.16C1.072,1.333,1,1.405,1,1.493v29.389c0,0.088,0.071,0.16,0.16,0.16h29.681
	c0.088,0,0.159-0.071,0.159-0.159V1.493C31,1.405,30.929,1.333,30.84,1.333L30.84,1.333z"/>
<polyline fill="#FFFFFF" points="30,2.146 30,30.229 2,30.229 2,2.146 30,2.146 "/>
<path fill="#C4C4C4" d="M28.544,29.083H3.456C3.204,29.083,3,28.879,3,28.628V3.748c0-0.252,0.204-0.456,0.456-0.456h25.088
	C28.796,3.292,29,3.496,29,3.748v24.88C29,28.879,28.796,29.083,28.544,29.083z"/>
<g>
	<path fill="#FDFEFD" d="M15.008,7.229v17.917h11V7.229H15.008z M23.981,11.22h-6.938V9.195h6.938V11.22z"/>
	<polygon fill="#FDFEFD" points="13.075,11.712 10.021,9.189 10.021,11.129 5.992,11.129 5.992,12.213 10.021,12.213 10.021,14.235 
			"/>
	<polygon fill="#FDFEFD" points="13.075,19.795 10.021,17.272 10.021,19.213 5.992,19.213 5.992,20.296 10.021,20.296 
		10.021,22.319 	"/>
</g>
</svg>
