<?xml version="1.0" encoding="utf-8"?>
<!-- Generator: Adobe Illustrator 18.0.0, SVG Export Plug-In . SVG Version: 6.00 Build 0)  -->
<!DOCTYPE svg PUBLIC "-//W3C//DTD SVG 1.1//EN" "http://www.w3.org/Graphics/SVG/1.1/DTD/svg11.dtd">
<svg version="1.1" id="图层_1" xmlns="http://www.w3.org/2000/svg" xmlns:xlink="http://www.w3.org/1999/xlink" x="0px" y="0px"
	 width="32px" height="32px" viewBox="0 0 32 32" enable-background="new 0 0 32 32" xml:space="preserve">
<g>
	<path fill="#C6C6C6" d="M30.84,1.146H1.16C1.071,1.146,1,1.217,1,1.306v29.389c0,0.088,0.071,0.16,0.16,0.16h29.681
		c0.088,0,0.159-0.071,0.159-0.159V1.306C31,1.217,30.929,1.146,30.84,1.146L30.84,1.146z"/>
	<polyline fill="#FFFFFF" points="30,1.958 30,30.042 2,30.042 2,1.958 30,1.958 	"/>
	<linearGradient id="SVGID_1_" gradientUnits="userSpaceOnUse" x1="16" y1="28.8958" x2="16" y2="3.1042">
		<stop  offset="0" style="stop-color:#FBEA99"/>
		<stop  offset="0.1559" style="stop-color:#FAE895"/>
		<stop  offset="0.3184" style="stop-color:#F6E388"/>
		<stop  offset="0.4838" style="stop-color:#F0DA73"/>
		<stop  offset="0.6514" style="stop-color:#E7CE56"/>
		<stop  offset="0.8206" style="stop-color:#DCBE31"/>
		<stop  offset="0.9889" style="stop-color:#CFAB03"/>
		<stop  offset="1" style="stop-color:#CEAA00"/>
	</linearGradient>
	<path fill="url(#SVGID_1_)" d="M28.544,28.896H3.456C3.204,28.896,3,28.692,3,28.44V3.56c0-0.252,0.204-0.456,0.456-0.456h25.088
		C28.796,3.104,29,3.308,29,3.56v24.88C29,28.692,28.796,28.896,28.544,28.896z"/>
	<g>
		<path fill="#FFFF00" d="M14.508,25.458V6.542h12v18.917H14.508z M23.481,10.532V9.507h-5.938v1.025H23.481z"/>
		<path fill="#B39600" d="M26.008,7.042v17.917h-11V7.042H26.008 M17.044,11.032h6.938V9.007h-6.938V11.032 M27.008,6.042h-1h-11h-1
			v1v17.917v1h1h11h1v-1V7.042V6.042L27.008,6.042z M18.044,10.007h4.938v0.025h-4.938V10.007L18.044,10.007z"/>
	</g>
	<g>
		<polygon fill="#FFFF00" points="9.521,12.525 5.492,12.525 5.492,10.442 9.521,10.442 9.521,7.939 13.86,11.524 9.521,15.109 		
			"/>
		<path fill="#B39600" d="M10.021,9.001l3.054,2.523l-3.054,2.523v-2.023H5.992v-1.083h4.029V9.001 M9.021,6.878v2.123v0.941H5.992
			h-1v1v1.083v1h1h3.029v1.023v2.123l1.637-1.353l3.054-2.523l0.933-0.771l-0.933-0.771L10.658,8.23L9.021,6.878L9.021,6.878z"/>
	</g>
	<g>
		<polygon fill="#FFFF00" points="9.521,20.608 5.492,20.608 5.492,18.525 9.521,18.525 9.521,16.022 13.86,19.607 9.521,23.192 		
			"/>
		<path fill="#B39600" d="M10.021,17.084l3.054,2.523l-3.054,2.523v-2.023H5.992v-1.083h4.029V17.084 M9.021,14.961v2.123v0.941
			H5.992h-1v1v1.083v1h1h3.029v1.023v2.123l1.637-1.353l3.054-2.523l0.933-0.771l-0.933-0.771l-3.054-2.523L9.021,14.961
			L9.021,14.961z"/>
	</g>
</g>
</svg>
