<?xml version="1.0" encoding="utf-8"?>
<!-- Generator: Adobe Illustrator 18.0.0, SVG Export Plug-In . SVG Version: 6.00 Build 0)  -->
<!DOCTYPE svg PUBLIC "-//W3C//DTD SVG 1.1//EN" "http://www.w3.org/Graphics/SVG/1.1/DTD/svg11.dtd">
<svg version="1.1" id="图层_1" xmlns="http://www.w3.org/2000/svg" xmlns:xlink="http://www.w3.org/1999/xlink" x="0px" y="0px"
	 width="32px" height="32px" viewBox="0 0 32 32" enable-background="new 0 0 32 32" xml:space="preserve">
<g>
	<rect x="3.188" y="12" fill="#FFFFFF" width="27.125" height="14.063"/>
	<path fill="#AAAAAA" d="M29.813,12.5v13.063H3.688V12.5H29.813 M30.813,11.5h-1H3.688h-1v1v13.063v1h1h26.125h1v-1V12.5V11.5
		L30.813,11.5z"/>
</g>
<rect x="5.688" y="14.438" fill="#AAAAAA" width="22.063" height="10.063"/>
<linearGradient id="SVGID_1_" gradientUnits="userSpaceOnUse" x1="16.7188" y1="18.4375" x2="16.7188" y2="15.5">
	<stop  offset="0" style="stop-color:#F2F2F2"/>
	<stop  offset="1" style="stop-color:#D9D9D9"/>
</linearGradient>
<rect x="7.75" y="15.5" fill="url(#SVGID_1_)" width="17.938" height="2.938"/>
<linearGradient id="SVGID_2_" gradientUnits="userSpaceOnUse" x1="16.7188" y1="22.4375" x2="16.7188" y2="19.5">
	<stop  offset="0" style="stop-color:#F2F2F2"/>
	<stop  offset="1" style="stop-color:#D9D9D9"/>
</linearGradient>
<rect x="7.75" y="19.5" fill="url(#SVGID_2_)" width="17.938" height="2.938"/>
<g>
	<polygon fill="#DBDBDB" points="30.688,11.5 2.938,11.5 7,6.5 25.75,6.5 	"/>
	<path fill="#AAAAAA" d="M25.332,7.5l3.73,3.938H4.438L7.476,7.5H25.332 M25.75,6.5H7l-4.25,5l28.125,0.063L25.75,6.5L25.75,6.5z"/>
</g>
</svg>
