<?xml version="1.0" encoding="utf-8"?>
<!-- Generator: Adobe Illustrator 18.0.0, SVG Export Plug-In . SVG Version: 6.00 Build 0)  -->
<!DOCTYPE svg PUBLIC "-//W3C//DTD SVG 1.1//EN" "http://www.w3.org/Graphics/SVG/1.1/DTD/svg11.dtd">
<svg version="1.1" id="图层_1" xmlns="http://www.w3.org/2000/svg" xmlns:xlink="http://www.w3.org/1999/xlink" x="0px" y="0px"
	 width="32px" height="32px" viewBox="0 0 32 32" enable-background="new 0 0 32 32" xml:space="preserve">
<g>
	<path fill="#C6C6C6" d="M30.84,1.146H1.16C1.071,1.146,1,1.217,1,1.306v29.389c0,0.088,0.071,0.16,0.16,0.16h29.681
		c0.088,0,0.159-0.071,0.159-0.159V1.306C31,1.217,30.929,1.146,30.84,1.146L30.84,1.146z"/>
	<polyline fill="#FFFFFF" points="30,1.958 30,30.042 2,30.042 2,1.958 30,1.958 	"/>
	<linearGradient id="SVGID_1_" gradientUnits="userSpaceOnUse" x1="16" y1="28.8958" x2="16" y2="3.1042">
		<stop  offset="0" style="stop-color:#FF1F30"/>
		<stop  offset="1" style="stop-color:#C3020F"/>
	</linearGradient>
	<path fill="url(#SVGID_1_)" d="M28.544,28.896H3.456C3.204,28.896,3,28.692,3,28.44V3.56c0-0.252,0.204-0.456,0.456-0.456h25.088
		C28.796,3.104,29,3.308,29,3.56v24.88C29,28.692,28.796,28.896,28.544,28.896z"/>
	<g>
		<path fill="#A9020B" d="M22.996,5.104v21.792H9.004V5.104H22.996 M23.996,4.104h-1H9.004h-1v1v21.792v1h1h13.992h1v-1V5.104V4.104
			L23.996,4.104z"/>
		<path fill="#FDFEFD" d="M9.004,5.104v21.792h13.992V5.104H9.004z M20.079,12.083h-8.271V7.937h8.271V12.083z"/>
		<path fill="#A9020B" d="M19.996,8.063V12h-8.063V8.063H19.996 M20.996,7.063H10.933V13h10.063V7.063L20.996,7.063z"/>
		<g>
			<rect x="10.996" y="17.063" fill="#A9020B" width="10" height="1"/>
			<rect x="10.996" y="19.063" fill="#A9020B" width="10" height="1"/>
			<rect x="10.996" y="25.063" fill="#A9020B" width="10" height="1"/>
			<rect x="10.996" y="21.063" fill="#A9020B" width="10" height="1"/>
			<rect x="10.996" y="23.063" fill="#A9020B" width="10" height="1"/>
		</g>
	</g>
</g>
</svg>
