<?xml version="1.0" encoding="utf-8"?>
<!-- Generator: Adobe Illustrator 18.0.0, SVG Export Plug-In . SVG Version: 6.00 Build 0)  -->
<!DOCTYPE svg PUBLIC "-//W3C//DTD SVG 1.1//EN" "http://www.w3.org/Graphics/SVG/1.1/DTD/svg11.dtd">
<svg version="1.1" id="图层_1" xmlns="http://www.w3.org/2000/svg" xmlns:xlink="http://www.w3.org/1999/xlink" x="0px" y="0px"
	 width="42px" height="42px" viewBox="0 0 42 42" enable-background="new 0 0 42 42" xml:space="preserve">
<g>
	<g>
		<path fill="#FFFFFF" d="M5.386,38.523c-1.053,0-1.908-0.856-1.908-1.908V5.385c0-1.052,0.855-1.908,1.908-1.908h31.229
			c1.053,0,1.908,0.856,1.908,1.908v31.229c0,1.052-0.855,1.908-1.908,1.908H5.386z"/>
		<path fill="#AFAFAF" d="M36.615,3.954c0.789,0,1.431,0.642,1.431,1.431v31.229c0,0.789-0.642,1.431-1.431,1.431H5.385
			c-0.789,0-1.431-0.642-1.431-1.431V5.385c0-0.789,0.642-1.431,1.431-1.431H36.615 M36.615,3H5.385C4.068,3,3,4.068,3,5.385v31.229
			C3,37.932,4.068,39,5.385,39h31.229C37.932,39,39,37.932,39,36.615V5.385C39,4.068,37.932,3,36.615,3L36.615,3z"/>
	</g>
	<g>
		<linearGradient id="SVGID_1_" gradientUnits="userSpaceOnUse" x1="20.9995" y1="36.9432" x2="20.9995" y2="5.0565">
			<stop  offset="0" style="stop-color:#00AEF9"/>
			<stop  offset="1" style="stop-color:#0092E1"/>
		</linearGradient>
		<path fill="url(#SVGID_1_)" d="M5.385,36.943c-0.181,0-0.329-0.148-0.329-0.329V5.385c0-0.181,0.148-0.329,0.329-0.329h31.23
			c0.181,0,0.328,0.148,0.328,0.329v31.229c0,0.181-0.147,0.329-0.328,0.329H5.385z"/>
	</g>
	<g>
		<g>
			<g>
				<polygon fill="#F6F6F6" points="30.896,15.564 27.797,13.021 27.797,18.107 				"/>
				<rect x="24.232" y="14.795" fill="#F6F6F6" width="4.128" height="1.538"/>
			</g>
			<g>
				<polygon fill="#F6F6F6" points="11.103,15.564 14.202,13.021 14.202,18.107 				"/>
				<rect x="13.639" y="14.795" fill="#F6F6F6" width="4.128" height="1.538"/>
			</g>
		</g>
		<g>
			<g>
				<polygon fill="#F6F6F6" points="21,5.667 18.456,8.767 23.543,8.767 				"/>
				<rect x="20.231" y="8.204" fill="#F6F6F6" width="1.538" height="4.128"/>
			</g>
			<g>
				<polygon fill="#F6F6F6" points="21,25.461 18.456,22.362 23.543,22.362 				"/>
				<rect x="20.231" y="18.797" fill="#F6F6F6" width="1.538" height="4.128"/>
			</g>
		</g>
		<path fill="#F6F6F6" d="M20.999,12.505c1.687,0,3.06,1.373,3.06,3.06s-1.373,3.06-3.06,3.06c-1.687,0-3.06-1.373-3.06-3.06
			S19.312,12.505,20.999,12.505 M20.999,10.776c-2.644,0-4.788,2.144-4.788,4.788s2.144,4.788,4.788,4.788s4.788-2.144,4.788-4.788
			S23.644,10.776,20.999,10.776L20.999,10.776z"/>
	</g>
	<g>
		<path fill="#FFFFFF" d="M10.202,34.786v-7.363h2.737c0.552,0,0.969,0.067,1.256,0.198s0.517,0.365,0.688,0.701
			c0.171,0.335,0.256,0.704,0.256,1.11c0,0.522-0.141,0.963-0.424,1.321c-0.284,0.358-0.723,0.586-1.316,0.683
			c0.216,0.124,0.382,0.246,0.495,0.367c0.239,0.261,0.465,0.588,0.678,0.979l1.072,2.004h-1.027l-0.816-1.532
			c-0.239-0.442-0.437-0.78-0.59-1.015c-0.156-0.235-0.294-0.398-0.417-0.492c-0.121-0.094-0.246-0.159-0.372-0.196
			c-0.093-0.024-0.244-0.035-0.455-0.035h-0.949v3.27H10.202z M11.018,30.673h1.758c0.374,0,0.665-0.046,0.876-0.138
			s0.372-0.24,0.48-0.442c0.11-0.202,0.166-0.423,0.166-0.66c0-0.348-0.108-0.634-0.319-0.859c-0.213-0.225-0.547-0.336-1.004-0.336
			h-1.956V30.673z"/>
		<path fill="#FFFFFF" d="M17.281,30.794c-0.316-0.137-0.55-0.333-0.701-0.588c-0.151-0.255-0.229-0.559-0.229-0.914
			c0-0.536,0.163-0.986,0.485-1.351c0.324-0.365,0.753-0.547,1.291-0.547c0.54,0,0.972,0.187,1.301,0.56s0.492,0.827,0.492,1.364
			c0,0.342-0.073,0.639-0.223,0.891c-0.151,0.252-0.379,0.448-0.686,0.585c0.379,0.147,0.668,0.385,0.866,0.713
			c0.198,0.328,0.296,0.719,0.296,1.175c0,0.629-0.186,1.159-0.56,1.587c-0.374,0.428-0.864,0.643-1.474,0.643
			s-1.102-0.215-1.474-0.645c-0.374-0.431-0.563-0.967-0.563-1.61c0-0.478,0.103-0.88,0.306-1.203
			C16.613,31.131,16.904,30.91,17.281,30.794z M16.884,32.662c0,0.257,0.05,0.507,0.153,0.748c0.103,0.241,0.256,0.428,0.457,0.56
			c0.203,0.132,0.419,0.198,0.653,0.198c0.362,0,0.663-0.139,0.899-0.417c0.234-0.277,0.352-0.632,0.352-1.06
			c0-0.436-0.121-0.795-0.364-1.08c-0.241-0.285-0.545-0.427-0.912-0.427c-0.357,0-0.653,0.141-0.886,0.422
			C17.002,31.888,16.884,32.24,16.884,32.662z M17.128,29.262c0,0.348,0.095,0.633,0.284,0.854c0.188,0.221,0.432,0.331,0.733,0.331
			c0.291,0,0.53-0.109,0.718-0.329c0.186-0.22,0.279-0.488,0.279-0.806c0-0.331-0.095-0.61-0.289-0.836
			c-0.191-0.226-0.432-0.339-0.718-0.339c-0.289,0-0.53,0.11-0.721,0.331C17.223,28.689,17.128,28.954,17.128,29.262z"/>
		<path fill="#FFFFFF" d="M20.917,32.843l0.758-0.121c0.085,0.512,0.234,0.881,0.444,1.107c0.208,0.226,0.462,0.339,0.763,0.339
			c0.357,0,0.658-0.147,0.904-0.442s0.369-0.659,0.369-1.095c0-0.416-0.116-0.757-0.342-1.027c-0.229-0.27-0.517-0.404-0.869-0.404
			c-0.143,0-0.321,0.034-0.535,0.1l0.085-0.794c0.05,0.006,0.09,0.01,0.121,0.01c0.324,0,0.615-0.1,0.874-0.301
			c0.256-0.201,0.387-0.511,0.387-0.929c0-0.331-0.095-0.606-0.281-0.824c-0.188-0.217-0.432-0.326-0.731-0.326
			c-0.294,0-0.54,0.11-0.736,0.331c-0.198,0.221-0.324,0.552-0.379,0.994l-0.758-0.161c0.093-0.606,0.304-1.076,0.63-1.409
			c0.329-0.333,0.738-0.5,1.228-0.5c0.336,0,0.645,0.087,0.929,0.259c0.284,0.172,0.502,0.408,0.653,0.706
			c0.148,0.298,0.223,0.614,0.223,0.949c0,0.318-0.07,0.608-0.213,0.869c-0.143,0.261-0.357,0.468-0.638,0.623
			c0.367,0.1,0.65,0.309,0.851,0.625c0.203,0.316,0.304,0.712,0.304,1.188c0,0.643-0.196,1.188-0.59,1.635
			c-0.392,0.447-0.889,0.67-1.492,0.67c-0.542,0-0.992-0.192-1.348-0.578C21.171,33.954,20.967,33.455,20.917,32.843z"/>
		<path fill="#FFFFFF" d="M25.711,32.858l0.796-0.08c0.058,0.462,0.196,0.81,0.412,1.042c0.213,0.232,0.472,0.349,0.776,0.349
			c0.364,0,0.673-0.164,0.927-0.492c0.254-0.328,0.379-0.763,0.379-1.306c0-0.516-0.121-0.923-0.364-1.22
			c-0.244-0.298-0.56-0.447-0.954-0.447c-0.244,0-0.465,0.067-0.66,0.198c-0.198,0.132-0.352,0.304-0.465,0.515l-0.711-0.11
			l0.598-3.782h3.071v0.864h-2.466l-0.331,1.979c0.369-0.308,0.758-0.462,1.168-0.462c0.537,0,0.992,0.222,1.364,0.668
			c0.372,0.446,0.557,1.018,0.557,1.718c0,0.667-0.163,1.242-0.49,1.728c-0.397,0.596-0.937,0.894-1.622,0.894
			c-0.563,0-1.02-0.187-1.376-0.563C25.965,33.974,25.761,33.477,25.711,32.858z"/>
		<path fill="#FFFFFF" d="M30.834,34.786v-7.363h4.465v0.869h-3.646v2.255h3.415v0.864h-3.415v2.506h3.789v0.869H30.834z"/>
	</g>
</g>
</svg>
