<?xml version="1.0" encoding="utf-8"?>
<!-- Generator: Adobe Illustrator 18.0.0, SVG Export Plug-In . SVG Version: 6.00 Build 0)  -->
<!DOCTYPE svg PUBLIC "-//W3C//DTD SVG 1.1//EN" "http://www.w3.org/Graphics/SVG/1.1/DTD/svg11.dtd">
<svg version="1.1" id="图层_1" xmlns="http://www.w3.org/2000/svg" xmlns:xlink="http://www.w3.org/1999/xlink" x="0px" y="0px"
	 width="32px" height="32px" viewBox="0 0 32 32" enable-background="new 0 0 32 32" xml:space="preserve">
<g>
	<g>
		<path fill="#FFFFFF" d="M2.8,27.12c-0.794,0-1.44-0.646-1.44-1.44v-21c0-0.794,0.646-1.44,1.44-1.44h26.4
			c0.794,0,1.44,0.646,1.44,1.44v21c0,0.795-0.646,1.44-1.44,1.44H2.8z"/>
		<path fill="#AFAFAF" d="M29.2,3.6c0.596,0,1.08,0.484,1.08,1.08v21c0,0.596-0.484,1.08-1.08,1.08H2.8
			c-0.596,0-1.08-0.484-1.08-1.08v-21c0-0.596,0.484-1.08,1.08-1.08H29.2 M29.2,2.88H2.8C1.806,2.88,1,3.686,1,4.68v21
			c0,0.994,0.806,1.8,1.8,1.8h26.4c0.994,0,1.8-0.806,1.8-1.8v-21C31,3.686,30.194,2.88,29.2,2.88L29.2,2.88z"/>
	</g>
	<linearGradient id="SVGID_1_" gradientUnits="userSpaceOnUse" x1="16" y1="25.58" x2="16" y2="4.78">
		<stop  offset="0" style="stop-color:#F1E821"/>
		<stop  offset="1" style="stop-color:#D6B900"/>
	</linearGradient>
	<path fill="url(#SVGID_1_)" d="M28.025,25.58H3.975c-0.594,0-1.075-0.481-1.075-1.075V5.855c0-0.594,0.481-1.075,1.075-1.075h24.05
		c0.594,0,1.075,0.481,1.075,1.075v18.65C29.1,25.099,28.619,25.58,28.025,25.58z"/>
	<g>
		<path fill="#A37C00" d="M8.924,18.045c-0.379-0.195-0.776-0.292-1.189-0.292c-0.63,0-1.137,0.274-1.52,0.824
			c-0.382,0.55-0.577,1.297-0.584,2.249h0.025C6,20.158,6.551,19.823,7.307,19.823c0.629,0,1.133,0.206,1.509,0.616
			c0.376,0.412,0.565,0.956,0.565,1.638c0,0.712-0.218,1.296-0.652,1.753c-0.435,0.459-0.989,0.687-1.663,0.687
			c-0.741,0-1.322-0.288-1.743-0.867c-0.422-0.579-0.633-1.399-0.633-2.463c0-1.284,0.277-2.306,0.83-3.064
			c0.553-0.757,1.282-1.136,2.186-1.136c0.517,0,0.923,0.07,1.218,0.211V18.045z M5.689,22.012c0,0.478,0.128,0.891,0.383,1.233
			c0.255,0.34,0.595,0.511,1.018,0.511c0.401,0,0.728-0.148,0.979-0.441c0.251-0.295,0.376-0.675,0.376-1.139
			c0-0.502-0.118-0.893-0.355-1.172c-0.237-0.279-0.573-0.417-1.009-0.417c-0.414,0-0.75,0.141-1.007,0.422
			C5.816,21.292,5.689,21.625,5.689,22.012z"/>
		<path fill="#A37C00" d="M14.852,24.396h-4.177v-0.795h1.632v-5.532l-1.675,0.484v-0.846l2.591-0.752v6.647h1.628V24.396z"/>
		<path fill="#A37C00" d="M16.268,23.278c0.489,0.319,0.998,0.478,1.528,0.478c0.502,0,0.906-0.141,1.214-0.42
			c0.307-0.281,0.461-0.654,0.461-1.118c0-0.466-0.156-0.83-0.468-1.087c-0.313-0.255-0.765-0.384-1.357-0.384
			c-0.286,0-0.67,0.021-1.153,0.066v-3.703h3.585v0.814H17.35v2.061c0.273-0.016,0.478-0.023,0.616-0.023
			c0.768,0,1.366,0.195,1.796,0.581c0.43,0.389,0.645,0.926,0.645,1.61c0,0.705-0.231,1.275-0.691,1.711
			c-0.462,0.436-1.098,0.654-1.91,0.654c-0.681,0-1.193-0.098-1.538-0.3V23.278z"/>
		<path fill="#A37C00" d="M22.026,24.396v-7.287h2.14c0.64,0,1.151,0.154,1.534,0.458c0.382,0.306,0.574,0.711,0.574,1.218
			c0,0.401-0.114,0.755-0.341,1.062c-0.227,0.309-0.54,0.527-0.939,0.654v0.019c0.496,0.059,0.891,0.244,1.187,0.563
			c0.296,0.319,0.445,0.722,0.445,1.212c0,0.628-0.225,1.134-0.675,1.521c-0.45,0.389-1.027,0.581-1.73,0.581H22.026z
			 M22.967,17.933v2.282h0.855c0.455,0,0.812-0.11,1.07-0.333c0.259-0.22,0.389-0.527,0.389-0.919c0-0.687-0.458-1.03-1.375-1.03
			H22.967z M22.967,21.032v2.541h1.129c0.492,0,0.873-0.112,1.14-0.34c0.268-0.227,0.403-0.544,0.403-0.949
			c0-0.834-0.566-1.252-1.698-1.252H22.967z"/>
	</g>
	<g>
		<polygon fill="#A37C00" points="25.546,8.808 22.033,5.905 22.033,7.597 16.716,7.597 16.716,9.847 22.033,9.847 22.033,11.711 		
			"/>
		<polygon fill="#A37C00" points="8.016,12.258 11.53,9.355 11.53,11.047 16.846,11.047 16.846,13.297 11.53,13.297 11.53,15.161 		
			"/>
	</g>
</g>
</svg>
