<?xml version="1.0" encoding="utf-8"?>
<!-- Generator: Adobe Illustrator 18.0.0, SVG Export Plug-In . SVG Version: 6.00 Build 0)  -->
<!DOCTYPE svg PUBLIC "-//W3C//DTD SVG 1.1//EN" "http://www.w3.org/Graphics/SVG/1.1/DTD/svg11.dtd">
<svg version="1.1" id="图层_1" xmlns="http://www.w3.org/2000/svg" xmlns:xlink="http://www.w3.org/1999/xlink" x="0px" y="0px"
	 width="36px" height="36px" viewBox="0 0 36 36" enable-background="new 0 0 36 36" xml:space="preserve">
<g>
	<path fill="#FFFFFF" d="M2.819,35.036c-1.023,0-1.855-0.832-1.855-1.855V2.819c0-1.023,0.832-1.855,1.855-1.855h30.362
		c1.023,0,1.855,0.832,1.855,1.855v30.362c0,1.023-0.832,1.855-1.855,1.855H2.819z"/>
	<path fill="#AFAFAF" d="M33.181,1.428c0.767,0,1.391,0.624,1.391,1.391v30.362c0,0.767-0.624,1.391-1.391,1.391H2.819
		c-0.767,0-1.391-0.624-1.391-1.391V2.819c0-0.767,0.624-1.391,1.391-1.391H33.181 M33.181,0.5H2.819C1.538,0.5,0.5,1.538,0.5,2.819
		v30.362c0,1.281,1.038,2.319,2.319,2.319h30.362c1.281,0,2.319-1.038,2.319-2.319V2.819C35.5,1.538,34.462,0.5,33.181,0.5
		L33.181,0.5z"/>
</g>
<g>
	<linearGradient id="SVGID_1_" gradientUnits="userSpaceOnUse" x1="17.9995" y1="33.5004" x2="17.9995" y2="2.4994">
		<stop  offset="0" style="stop-color:#F1E821"/>
		<stop  offset="1" style="stop-color:#D6B900"/>
	</linearGradient>
	<path fill="url(#SVGID_1_)" d="M2.819,33.5c-0.176,0-0.32-0.144-0.32-0.32V2.819c0-0.176,0.144-0.32,0.32-0.32h30.363
		c0.176,0,0.319,0.144,0.319,0.32v30.361c0,0.176-0.143,0.32-0.319,0.32H2.819z"/>
</g>
<g>
	<path fill="#A37C00" d="M10.941,22.697c-0.443-0.244-0.906-0.367-1.389-0.367c-0.735,0-1.326,0.346-1.772,1.036
		c-0.446,0.689-0.673,1.633-0.681,2.827h0.027c0.403-0.84,1.045-1.26,1.927-1.26c0.735,0,1.322,0.258,1.761,0.774
		c0.439,0.518,0.659,1.203,0.659,2.06c0,0.895-0.253,1.63-0.76,2.206c-0.506,0.576-1.153,0.864-1.94,0.864
		c-0.863,0-1.541-0.364-2.033-1.092s-0.738-1.76-0.738-3.097c0-1.617,0.323-2.902,0.969-3.854c0.646-0.952,1.496-1.429,2.549-1.429
		c0.604,0,1.078,0.089,1.421,0.267V22.697z M7.165,27.685c0,0.604,0.149,1.12,0.447,1.55s0.694,0.645,1.188,0.645
		c0.469,0,0.849-0.186,1.142-0.556c0.293-0.371,0.439-0.849,0.439-1.432c0-0.631-0.138-1.122-0.414-1.474
		c-0.276-0.351-0.669-0.526-1.177-0.526c-0.483,0-0.875,0.178-1.174,0.532C7.315,26.779,7.165,27.199,7.165,27.685z"/>
	<path fill="#A37C00" d="M12.73,29.151c0.582,0.485,1.239,0.728,1.97,0.728c0.585,0,1.049-0.154,1.392-0.464
		c0.342-0.31,0.513-0.725,0.513-1.246c0-1.159-0.77-1.739-2.31-1.739h-0.708v-0.958h0.675c1.365,0,2.047-0.544,2.047-1.633
		c0-1.006-0.521-1.509-1.564-1.509c-0.596,0-1.158,0.218-1.685,0.651v-1.095c0.556-0.347,1.205-0.521,1.948-0.521
		c0.724,0,1.306,0.204,1.745,0.612s0.659,0.938,0.659,1.589c0,1.198-0.567,1.97-1.702,2.313v0.023
		c0.615,0.071,1.101,0.305,1.458,0.701c0.356,0.396,0.535,0.891,0.535,1.482c0,0.824-0.275,1.488-0.826,1.993
		c-0.551,0.505-1.284,0.758-2.198,0.758c-0.805,0-1.454-0.162-1.948-0.485V29.151z"/>
	<path fill="#A37C00" d="M19.036,26.282c0-1.617,0.249-2.841,0.746-3.671s1.219-1.245,2.163-1.245c1.8,0,2.7,1.565,2.7,4.697
		c0,1.546-0.253,2.729-0.76,3.547s-1.217,1.228-2.132,1.228c-0.863,0-1.532-0.389-2.006-1.166
		C19.273,28.896,19.036,27.766,19.036,26.282z M20.134,26.229c0,2.433,0.572,3.649,1.718,3.649c1.127,0,1.69-1.236,1.69-3.709
		c0-2.56-0.553-3.84-1.658-3.84C20.717,22.33,20.134,23.63,20.134,26.229z"/>
	<path fill="#A37C00" d="M30.797,30.684h-4.572v-9.163h4.379v1.053h-3.282v2.934h3.041v1.048h-3.041v3.082h3.474V30.684z"/>
</g>
<g>
	<g>
		<polygon fill="#A37C00" points="11.899,16.596 13.329,12.797 15.905,17.257 		"/>
		
			<rect x="13.737" y="13.093" transform="matrix(0.866 -0.5 0.5 0.866 -4.7095 10.1675)" fill="#A37C00" width="5.761" height="1.557"/>
	</g>
	<g>
		<polygon fill="#A37C00" points="7.717,12.037 9.148,8.238 11.723,12.698 		"/>
		
			<rect x="9.556" y="8.534" transform="matrix(0.866 -0.5 0.5 0.866 -2.9903 7.4657)" fill="#A37C00" width="5.761" height="1.557"/>
	</g>
	<g>
		<polygon fill="#A37C00" points="27.765,10.328 23.76,9.667 26.335,14.127 		"/>
		
			<rect x="20.166" y="12.274" transform="matrix(-0.866 0.5 -0.5 -0.866 49.5315 12.8328)" fill="#A37C00" width="5.761" height="1.557"/>
	</g>
	<g>
		<polygon fill="#A37C00" points="23.583,5.769 19.578,5.108 22.153,9.568 		"/>
		
			<rect x="15.984" y="7.715" transform="matrix(-0.866 0.5 -0.5 -0.866 39.4485 6.4163)" fill="#A37C00" width="5.761" height="1.557"/>
	</g>
</g>
</svg>
