<?xml version="1.0" encoding="utf-8"?>
<!-- Generator: Adobe Illustrator 18.0.0, SVG Export Plug-In . SVG Version: 6.00 Build 0)  -->
<!DOCTYPE svg PUBLIC "-//W3C//DTD SVG 1.1//EN" "http://www.w3.org/Graphics/SVG/1.1/DTD/svg11.dtd">
<svg version="1.1" id="图层_1" xmlns="http://www.w3.org/2000/svg" xmlns:xlink="http://www.w3.org/1999/xlink" x="0px" y="0px"
	 width="36px" height="36px" viewBox="0 0 36 36" enable-background="new 0 0 36 36" xml:space="preserve">
<g>
	<g>
		<path fill="#FFFFFF" d="M2.819,35.036c-1.023,0-1.855-0.832-1.855-1.855V2.819c0-1.023,0.832-1.855,1.855-1.855h30.361
			c1.023,0,1.855,0.832,1.855,1.855v30.362c0,1.023-0.832,1.855-1.855,1.855H2.819z"/>
		<path fill="#AFAFAF" d="M33.181,1.428c0.767,0,1.391,0.624,1.391,1.391v30.362c0,0.767-0.624,1.391-1.391,1.391H2.819
			c-0.767,0-1.391-0.624-1.391-1.391V2.819c0-0.767,0.624-1.391,1.391-1.391H33.181 M33.181,0.5H2.819
			C1.538,0.5,0.5,1.538,0.5,2.819v30.362c0,1.281,1.038,2.319,2.319,2.319h30.362c1.281,0,2.319-1.038,2.319-2.319V2.819
			C35.5,1.538,34.462,0.5,33.181,0.5L33.181,0.5z"/>
	</g>
	<g>
		<linearGradient id="SVGID_1_" gradientUnits="userSpaceOnUse" x1="17.9995" y1="33.5004" x2="17.9995" y2="2.4994">
			<stop  offset="0" style="stop-color:#00AEF9"/>
			<stop  offset="1" style="stop-color:#0092E1"/>
		</linearGradient>
		<path fill="url(#SVGID_1_)" d="M2.819,33.5c-0.176,0-0.32-0.144-0.32-0.32V2.819c0-0.176,0.144-0.32,0.32-0.32h30.363
			c0.176,0,0.319,0.144,0.319,0.32v30.361c0,0.176-0.143,0.32-0.319,0.32H2.819z"/>
	</g>
	<g>
		<path fill="#FFFFFF" d="M13.616,22.698c-0.442-0.245-0.906-0.367-1.389-0.367c-0.735,0-1.326,0.345-1.772,1.035
			C10.008,24.057,9.783,25,9.776,26.195h0.027c0.403-0.84,1.045-1.26,1.926-1.26c0.735,0,1.323,0.258,1.76,0.774
			c0.439,0.518,0.659,1.204,0.659,2.059c0,0.895-0.254,1.631-0.759,2.206c-0.508,0.576-1.155,0.864-1.941,0.864
			c-0.862,0-1.541-0.364-2.034-1.091c-0.491-0.728-0.737-1.76-0.737-3.097c0-1.617,0.322-2.902,0.969-3.854
			c0.645-0.953,1.494-1.429,2.549-1.429c0.603,0,1.077,0.089,1.421,0.266V22.698z M9.842,27.685c0,0.603,0.149,1.121,0.447,1.55
			s0.693,0.645,1.187,0.645c0.469,0,0.85-0.186,1.143-0.557c0.293-0.37,0.439-0.847,0.439-1.431c0-0.631-0.139-1.123-0.415-1.473
			c-0.276-0.352-0.669-0.526-1.177-0.526c-0.483,0-0.874,0.177-1.174,0.532S9.842,27.2,9.842,27.685z"/>
		<path fill="#FFFFFF" d="M20.811,28.306h-1.086v2.378h-1.042v-2.378h-3.962v-0.752l3.76-6.034h1.245v5.869h1.086V28.306z
			 M18.682,27.39v-3.839c0-0.272,0.007-0.586,0.022-0.941h-0.022c-0.051,0.15-0.159,0.385-0.322,0.704l-2.532,4.076H18.682z"/>
		<path fill="#FFFFFF" d="M21.712,26.282c0-1.616,0.249-2.839,0.747-3.671c0.498-0.83,1.218-1.245,2.163-1.245
			c1.799,0,2.7,1.566,2.7,4.697c0,1.547-0.254,2.728-0.762,3.546c-0.505,0.819-1.216,1.228-2.131,1.228
			c-0.864,0-1.533-0.388-2.007-1.166C21.948,28.896,21.712,27.766,21.712,26.282z M22.81,26.23c0,2.433,0.571,3.65,1.716,3.65
			c1.128,0,1.692-1.237,1.692-3.71c0-2.559-0.552-3.839-1.658-3.839C23.394,22.331,22.81,23.631,22.81,26.23z"/>
	</g>
	<g>
		<g>
			<polygon fill="#FDFEFD" points="11.899,16.596 13.329,12.797 15.905,17.257 			"/>
			
				<rect x="13.737" y="13.093" transform="matrix(0.866 -0.5 0.5 0.866 -4.7095 10.1675)" fill="#FDFEFD" width="5.761" height="1.557"/>
		</g>
		<g>
			<polygon fill="#FDFEFD" points="7.717,12.037 9.148,8.238 11.723,12.698 			"/>
			
				<rect x="9.556" y="8.534" transform="matrix(0.866 -0.5 0.5 0.866 -2.9903 7.4658)" fill="#FDFEFD" width="5.761" height="1.557"/>
		</g>
		<g>
			<polygon fill="#FDFEFD" points="27.765,10.328 23.76,9.667 26.335,14.127 			"/>
			
				<rect x="20.166" y="12.274" transform="matrix(-0.866 0.5 -0.5 -0.866 49.5315 12.8328)" fill="#FDFEFD" width="5.761" height="1.557"/>
		</g>
		<g>
			<polygon fill="#FDFEFD" points="23.583,5.769 19.578,5.108 22.153,9.568 			"/>
			
				<rect x="15.984" y="7.715" transform="matrix(-0.866 0.5 -0.5 -0.866 39.4485 6.4163)" fill="#FDFEFD" width="5.761" height="1.557"/>
		</g>
	</g>
</g>
</svg>
