<?xml version="1.0" encoding="utf-8"?>
<!-- Generator: Adobe Illustrator 18.0.0, SVG Export Plug-In . SVG Version: 6.00 Build 0)  -->
<!DOCTYPE svg PUBLIC "-//W3C//DTD SVG 1.1//EN" "http://www.w3.org/Graphics/SVG/1.1/DTD/svg11.dtd">
<svg version="1.1" id="图层_1" xmlns="http://www.w3.org/2000/svg" xmlns:xlink="http://www.w3.org/1999/xlink" x="0px" y="0px"
	 width="32px" height="32px" viewBox="0 0 32 32" enable-background="new 0 0 32 32" xml:space="preserve">
<g>
	<g>
		<path fill="#FFFFFF" d="M2.8,27.12c-0.794,0-1.439-0.646-1.439-1.44v-21c0-0.794,0.646-1.44,1.439-1.44h26.4
			c0.794,0,1.439,0.646,1.439,1.44v21c0,0.795-0.646,1.44-1.439,1.44H2.8z"/>
		<path fill="#AFAFAF" d="M29.2,3.6c0.596,0,1.08,0.484,1.08,1.08v21c0,0.596-0.484,1.08-1.08,1.08H2.8
			c-0.596,0-1.08-0.484-1.08-1.08v-21c0-0.596,0.484-1.08,1.08-1.08H29.2 M29.2,2.88H2.8C1.806,2.88,1,3.686,1,4.68v21
			c0,0.994,0.806,1.8,1.8,1.8h26.4c0.994,0,1.8-0.806,1.8-1.8v-21C31,3.686,30.194,2.88,29.2,2.88L29.2,2.88z"/>
	</g>
	<linearGradient id="SVGID_1_" gradientUnits="userSpaceOnUse" x1="16" y1="25.58" x2="16" y2="4.78">
		<stop  offset="0" style="stop-color:#FF1F30"/>
		<stop  offset="1" style="stop-color:#C3020F"/>
	</linearGradient>
	<path fill="url(#SVGID_1_)" d="M28.025,25.58H3.975c-0.594,0-1.075-0.481-1.075-1.075V5.855c0-0.594,0.481-1.075,1.075-1.075h24.05
		c0.594,0,1.075,0.481,1.075,1.075v18.65C29.1,25.099,28.619,25.58,28.025,25.58z"/>
	<g>
		<path fill="#FFFFFF" d="M8.924,18.045c-0.377-0.195-0.776-0.292-1.188-0.292c-0.63,0-1.137,0.274-1.521,0.824
			c-0.382,0.55-0.577,1.297-0.584,2.249h0.026c0.345-0.668,0.895-1.003,1.65-1.003c0.63,0,1.134,0.206,1.509,0.616
			c0.377,0.412,0.565,0.956,0.565,1.638c0,0.712-0.218,1.296-0.652,1.753c-0.434,0.459-0.989,0.687-1.662,0.687
			c-0.741,0-1.322-0.288-1.744-0.867c-0.422-0.579-0.633-1.399-0.633-2.463c0-1.284,0.277-2.306,0.83-3.064
			c0.553-0.757,1.282-1.136,2.187-1.136c0.516,0,0.923,0.07,1.216,0.211V18.045z M5.69,22.012c0,0.478,0.127,0.891,0.382,1.233
			c0.255,0.34,0.595,0.511,1.02,0.511c0.401,0,0.727-0.148,0.977-0.441c0.251-0.295,0.377-0.675,0.377-1.139
			c0-0.502-0.12-0.893-0.356-1.172c-0.237-0.279-0.572-0.417-1.008-0.417c-0.415,0-0.75,0.141-1.008,0.422
			C5.816,21.292,5.69,21.625,5.69,22.012z"/>
		<path fill="#FFFFFF" d="M14.852,24.396h-4.177v-0.795h1.634v-5.532l-1.676,0.484v-0.846l2.592-0.752v6.647h1.627V24.396z"/>
		<path fill="#FFFFFF" d="M16.27,23.278c0.487,0.319,0.998,0.478,1.528,0.478c0.502,0,0.905-0.141,1.214-0.42
			c0.307-0.281,0.459-0.654,0.459-1.118c0-0.466-0.155-0.83-0.466-1.087c-0.314-0.255-0.766-0.384-1.357-0.384
			c-0.286,0-0.67,0.021-1.153,0.066v-3.703h3.584v0.814H17.35v2.061c0.274-0.016,0.478-0.023,0.616-0.023
			c0.769,0,1.366,0.195,1.798,0.581c0.429,0.389,0.645,0.926,0.645,1.61c0,0.705-0.232,1.275-0.691,1.711
			c-0.462,0.436-1.099,0.654-1.91,0.654c-0.682,0-1.193-0.098-1.538-0.3V23.278z"/>
		<path fill="#FFFFFF" d="M22.026,24.396v-7.287h2.14c0.64,0,1.151,0.154,1.535,0.458c0.382,0.306,0.574,0.711,0.574,1.218
			c0,0.401-0.115,0.755-0.342,1.062c-0.227,0.309-0.539,0.527-0.938,0.654v0.019c0.495,0.059,0.891,0.244,1.186,0.563
			c0.298,0.319,0.445,0.722,0.445,1.212c0,0.628-0.225,1.134-0.675,1.521c-0.45,0.389-1.027,0.581-1.73,0.581H22.026z
			 M22.968,17.933v2.282h0.855c0.455,0,0.811-0.11,1.069-0.333c0.26-0.22,0.389-0.527,0.389-0.919c0-0.687-0.457-1.03-1.373-1.03
			H22.968z M22.968,21.032v2.541h1.127c0.492,0,0.874-0.112,1.141-0.34c0.267-0.227,0.403-0.544,0.403-0.949
			c0-0.834-0.567-1.252-1.699-1.252H22.968z"/>
	</g>
	<g>
		<polygon fill="#FDFEFD" points="25.547,8.808 22.033,5.905 22.033,7.597 16.717,7.597 16.717,9.847 22.033,9.847 22.033,11.711 		
			"/>
		<polygon fill="#FDFEFD" points="8.017,12.258 11.53,9.355 11.53,11.047 16.847,11.047 16.847,13.297 11.53,13.297 11.53,15.161 		
			"/>
	</g>
</g>
</svg>
