<?xml version="1.0" encoding="utf-8"?>
<!-- Generator: Adobe Illustrator 18.0.0, SVG Export Plug-In . SVG Version: 6.00 Build 0)  -->
<!DOCTYPE svg PUBLIC "-//W3C//DTD SVG 1.1//EN" "http://www.w3.org/Graphics/SVG/1.1/DTD/svg11.dtd">
<svg version="1.1" id="图层_1" xmlns="http://www.w3.org/2000/svg" xmlns:xlink="http://www.w3.org/1999/xlink" x="0px" y="0px"
	 width="42px" height="42px" viewBox="0 0 42 42" enable-background="new 0 0 42 42" xml:space="preserve">
<g>
	<path fill="#FFFFFF" d="M3.65,40.5c-1.186,0-2.15-0.965-2.15-2.15V3.65c0-1.186,0.965-2.15,2.15-2.15H38.35
		c1.186,0,2.15,0.965,2.15,2.15V38.35c0,1.186-0.965,2.15-2.15,2.15H3.65z"/>
	<path fill="#AFAFAF" d="M38.35,2C39.26,2,40,2.74,40,3.65V38.35c0,0.91-0.74,1.65-1.65,1.65H3.65C2.74,40,2,39.26,2,38.35V3.65
		C2,2.74,2.74,2,3.65,2H38.35 M38.35,1H3.65C2.187,1,1,2.187,1,3.65V38.35C1,39.813,2.187,41,3.65,41H38.35
		c1.464,0,2.65-1.187,2.65-2.65V3.65C41,2.187,39.813,1,38.35,1L38.35,1z"/>
</g>
<g>
	<linearGradient id="SVGID_1_" gradientUnits="userSpaceOnUse" x1="20.9994" y1="38.7147" x2="20.9994" y2="3.285">
		<stop  offset="0" style="stop-color:#00AEF9"/>
		<stop  offset="1" style="stop-color:#0092E1"/>
	</linearGradient>
	<path fill="url(#SVGID_1_)" d="M3.65,38.715c-0.201,0-0.366-0.165-0.366-0.366V3.651c0-0.201,0.165-0.366,0.366-0.366h34.7
		c0.201,0,0.364,0.165,0.364,0.366v34.699c0,0.201-0.163,0.366-0.364,0.366H3.65z"/>
</g>
<g>
	<path fill="#FFFFFF" d="M7.051,34.404v-7.158h3.174c0.639,0,1.123,0.064,1.455,0.193s0.598,0.355,0.797,0.681
		c0.197,0.326,0.297,0.685,0.297,1.079c0,0.508-0.164,0.936-0.492,1.284c-0.33,0.348-0.838,0.57-1.523,0.664
		c0.25,0.121,0.441,0.239,0.57,0.356c0.277,0.254,0.539,0.571,0.787,0.952l1.244,1.948h-1.191l-0.947-1.489
		c-0.275-0.43-0.504-0.758-0.684-0.986c-0.178-0.228-0.338-0.387-0.48-0.479c-0.141-0.091-0.285-0.155-0.432-0.19
		c-0.107-0.023-0.283-0.034-0.527-0.034h-1.1v3.179H7.051z M7.998,30.405h2.037c0.432,0,0.771-0.045,1.016-0.134
		s0.43-0.233,0.557-0.43s0.189-0.411,0.189-0.642c0-0.338-0.123-0.617-0.367-0.835c-0.246-0.218-0.635-0.327-1.166-0.327H7.998
		V30.405z"/>
	<path fill="#FFFFFF" d="M15.254,30.522c-0.363-0.133-0.635-0.324-0.811-0.571s-0.264-0.543-0.264-0.889
		c0-0.521,0.188-0.958,0.563-1.313c0.373-0.355,0.871-0.532,1.494-0.532c0.625,0,1.127,0.182,1.508,0.544s0.572,0.805,0.572,1.326
		c0,0.332-0.088,0.621-0.262,0.867s-0.439,0.436-0.793,0.569c0.439,0.143,0.773,0.375,1.002,0.693c0.23,0.319,0.346,0.7,0.346,1.143
		c0,0.612-0.217,1.126-0.65,1.543c-0.432,0.417-1.002,0.625-1.709,0.625c-0.705,0-1.275-0.209-1.709-0.627
		c-0.432-0.418-0.648-0.94-0.648-1.565c0-0.465,0.117-0.855,0.354-1.169S14.818,30.636,15.254,30.522z M14.795,32.338
		c0,0.25,0.061,0.493,0.178,0.728c0.119,0.234,0.297,0.416,0.531,0.544s0.486,0.193,0.756,0.193c0.42,0,0.768-0.135,1.041-0.405
		s0.41-0.614,0.41-1.03c0-0.423-0.141-0.773-0.424-1.05c-0.281-0.277-0.633-0.415-1.057-0.415c-0.412,0-0.756,0.137-1.027,0.41
		S14.795,31.928,14.795,32.338z M15.078,29.033c0,0.338,0.109,0.615,0.328,0.83c0.217,0.215,0.5,0.322,0.85,0.322
		c0.338,0,0.615-0.106,0.832-0.32s0.324-0.475,0.324-0.784c0-0.322-0.111-0.593-0.334-0.813s-0.5-0.33-0.832-0.33
		c-0.336,0-0.613,0.107-0.836,0.322C15.189,28.476,15.078,28.733,15.078,29.033z"/>
	<path fill="#FFFFFF" d="M19.463,30.874c0-0.846,0.088-1.527,0.262-2.043s0.434-0.914,0.777-1.194c0.342-0.28,0.775-0.42,1.295-0.42
		c0.385,0,0.721,0.077,1.012,0.232c0.289,0.155,0.529,0.377,0.717,0.669c0.189,0.292,0.338,0.646,0.445,1.064s0.16,0.982,0.16,1.692
		c0,0.84-0.086,1.518-0.258,2.034c-0.174,0.516-0.432,0.915-0.773,1.196c-0.344,0.282-0.777,0.422-1.303,0.422
		c-0.689,0-1.232-0.248-1.625-0.742C19.699,33.188,19.463,32.218,19.463,30.874z M20.367,30.874c0,1.175,0.137,1.957,0.412,2.346
		s0.615,0.583,1.018,0.583c0.404,0,0.744-0.195,1.02-0.586c0.273-0.391,0.412-1.172,0.412-2.344c0-1.178-0.139-1.961-0.412-2.349
		c-0.275-0.387-0.619-0.581-1.029-0.581c-0.402,0-0.725,0.171-0.967,0.513C20.518,28.893,20.367,29.698,20.367,30.874z"/>
	<path fill="#FFFFFF" d="M25.025,30.874c0-0.846,0.086-1.527,0.26-2.043c0.176-0.516,0.434-0.914,0.777-1.194s0.775-0.42,1.297-0.42
		c0.383,0,0.721,0.077,1.01,0.232c0.291,0.155,0.529,0.377,0.719,0.669c0.188,0.292,0.336,0.646,0.443,1.064
		s0.162,0.982,0.162,1.692c0,0.84-0.086,1.518-0.26,2.034c-0.172,0.516-0.43,0.915-0.773,1.196s-0.777,0.422-1.301,0.422
		c-0.691,0-1.232-0.248-1.627-0.742C25.262,33.188,25.025,32.218,25.025,30.874z M25.928,30.874c0,1.175,0.139,1.957,0.412,2.346
		c0.275,0.389,0.615,0.583,1.02,0.583c0.402,0,0.742-0.195,1.018-0.586s0.412-1.172,0.412-2.344c0-1.178-0.137-1.961-0.412-2.349
		s-0.617-0.581-1.027-0.581c-0.404,0-0.727,0.171-0.967,0.513C26.08,28.893,25.928,29.698,25.928,30.874z"/>
	<path fill="#FFFFFF" d="M30.586,30.874c0-0.846,0.088-1.527,0.262-2.043s0.434-0.914,0.777-1.194c0.342-0.28,0.775-0.42,1.295-0.42
		c0.385,0,0.721,0.077,1.012,0.232c0.289,0.155,0.529,0.377,0.717,0.669c0.189,0.292,0.338,0.646,0.445,1.064s0.16,0.982,0.16,1.692
		c0,0.84-0.086,1.518-0.258,2.034c-0.174,0.516-0.432,0.915-0.773,1.196c-0.344,0.282-0.777,0.422-1.303,0.422
		c-0.689,0-1.232-0.248-1.625-0.742C30.822,33.188,30.586,32.218,30.586,30.874z M31.49,30.874c0,1.175,0.137,1.957,0.412,2.346
		s0.615,0.583,1.018,0.583c0.404,0,0.744-0.195,1.02-0.586c0.273-0.391,0.412-1.172,0.412-2.344c0-1.178-0.139-1.961-0.412-2.349
		c-0.275-0.387-0.619-0.581-1.029-0.581c-0.402,0-0.725,0.171-0.967,0.513C31.641,28.893,31.49,29.698,31.49,30.874z"/>
</g>
<g>
	<g>
		<g>
			<polygon fill="#F6F6F6" points="18.683,6.556 16.689,8.985 20.676,8.985 			"/>
			<rect x="18.08" y="8.543" fill="#F6F6F6" width="1.205" height="4.187"/>
		</g>
		<g>
			<polygon fill="#F6F6F6" points="23.316,6.556 21.323,8.985 25.31,8.985 			"/>
			<rect x="22.714" y="8.543" fill="#F6F6F6" width="1.205" height="4.187"/>
		</g>
		<g>
			<polygon fill="#F6F6F6" points="23.316,24.875 25.31,22.446 21.323,22.446 			"/>
			<rect x="22.714" y="18.7" fill="#F6F6F6" width="1.205" height="4.187"/>
		</g>
		<g>
			<polygon fill="#F6F6F6" points="18.682,24.875 20.676,22.446 16.689,22.446 			"/>
			<rect x="18.08" y="18.7" fill="#F6F6F6" width="1.205" height="4.187"/>
		</g>
	</g>
	<g>
		<g>
			<polygon fill="#F6F6F6" points="11.84,18.032 14.269,20.025 14.269,16.039 			"/>
			<rect x="13.828" y="17.43" fill="#F6F6F6" width="4.187" height="1.205"/>
		</g>
		<g>
			<polygon fill="#F6F6F6" points="11.84,13.398 14.269,15.391 14.269,11.405 			"/>
			<rect x="13.828" y="12.796" fill="#F6F6F6" width="4.187" height="1.205"/>
		</g>
		<g>
			<polygon fill="#F6F6F6" points="30.159,13.398 27.73,11.405 27.73,15.391 			"/>
			<rect x="23.984" y="12.796" fill="#F6F6F6" width="4.187" height="1.205"/>
		</g>
		<g>
			<polygon fill="#F6F6F6" points="30.159,18.032 27.73,16.039 27.73,20.025 			"/>
			<rect x="23.984" y="17.43" fill="#F6F6F6" width="4.187" height="1.205"/>
		</g>
	</g>
	<path fill="#F6F6F6" d="M20.999,12.741c1.64,0,2.975,1.334,2.975,2.975s-1.334,2.975-2.975,2.975c-1.64,0-2.975-1.334-2.975-2.975
		S19.359,12.741,20.999,12.741 M20.999,11.06c-2.571,0-4.655,2.084-4.655,4.655s2.084,4.655,4.655,4.655s4.655-2.084,4.655-4.655
		S23.57,11.06,20.999,11.06L20.999,11.06z"/>
</g>
</svg>
