<?xml version="1.0" encoding="utf-8"?>
<!-- Generator: Adobe Illustrator 18.0.0, SVG Export Plug-In . SVG Version: 6.00 Build 0)  -->
<!DOCTYPE svg PUBLIC "-//W3C//DTD SVG 1.1//EN" "http://www.w3.org/Graphics/SVG/1.1/DTD/svg11.dtd">
<svg version="1.1" id="图层_1" xmlns="http://www.w3.org/2000/svg" xmlns:xlink="http://www.w3.org/1999/xlink" x="0px" y="0px"
	 width="32px" height="32px" viewBox="0 0 32 32" enable-background="new 0 0 32 32" xml:space="preserve">
<g>
	<g>
		<path fill="#FFFFFF" d="M2.8,27.12c-0.794,0-1.439-0.646-1.439-1.44v-21c0-0.794,0.646-1.44,1.439-1.44h26.4
			c0.794,0,1.439,0.646,1.439,1.44v21c0,0.795-0.646,1.44-1.439,1.44H2.8z"/>
		<path fill="#AFAFAF" d="M29.2,3.6c0.596,0,1.08,0.484,1.08,1.08v21c0,0.596-0.484,1.08-1.08,1.08H2.8
			c-0.596,0-1.08-0.484-1.08-1.08v-21c0-0.596,0.484-1.08,1.08-1.08H29.2 M29.2,2.88H2.8C1.806,2.88,1,3.686,1,4.68v21
			c0,0.994,0.806,1.8,1.8,1.8h26.4c0.994,0,1.8-0.806,1.8-1.8v-21C31,3.686,30.194,2.88,29.2,2.88L29.2,2.88z"/>
	</g>
	<linearGradient id="SVGID_1_" gradientUnits="userSpaceOnUse" x1="16.0001" y1="25.58" x2="16.0001" y2="4.78">
		<stop  offset="0" style="stop-color:#FF1F30"/>
		<stop  offset="1" style="stop-color:#C3020F"/>
	</linearGradient>
	<path fill="url(#SVGID_1_)" d="M28.025,25.58H3.975c-0.594,0-1.075-0.481-1.075-1.075V5.855c0-0.594,0.481-1.075,1.075-1.075h24.05
		c0.594,0,1.075,0.481,1.075,1.075v18.65C29.1,25.099,28.619,25.58,28.025,25.58z"/>
	<g>
		<text transform="matrix(1 0 0 1 4.1379 24.3947)" fill="#FFFFFF" font-family="'MicrosoftYaHei'" font-size="9.6339">620A</text>
		<polygon fill="#FDFEFD" points="25.547,8.808 22.033,5.905 22.033,7.597 16.717,7.597 16.717,9.847 22.033,9.847 22.033,11.711 		
			"/>
		<polygon fill="#FDFEFD" points="8.017,12.258 11.53,9.355 11.53,11.047 16.847,11.047 16.847,13.297 11.53,13.297 11.53,15.161 		
			"/>
	</g>
</g>
</svg>
