<?xml version="1.0" encoding="utf-8"?>
<!-- Generator: Adobe Illustrator 18.0.0, SVG Export Plug-In . SVG Version: 6.00 Build 0)  -->
<!DOCTYPE svg PUBLIC "-//W3C//DTD SVG 1.1//EN" "http://www.w3.org/Graphics/SVG/1.1/DTD/svg11.dtd">
<svg version="1.1" id="图层_1" xmlns="http://www.w3.org/2000/svg" xmlns:xlink="http://www.w3.org/1999/xlink" x="0px" y="0px"
	 width="32px" height="32px" viewBox="0 0 32 32" enable-background="new 0 0 32 32" xml:space="preserve">
<g>
	<g>
		<path fill="#FFFFFF" d="M2.815,27.637c-0.8,0-1.452-0.65-1.452-1.451V4.815c0-0.8,0.651-1.452,1.452-1.452h26.371
			c0.801,0,1.451,0.651,1.451,1.452v21.371c0,0.801-0.65,1.451-1.451,1.451H2.815z"/>
		<path fill="#AFAFAF" d="M29.186,3.726c0.6,0,1.089,0.488,1.089,1.089v21.371c0,0.6-0.488,1.089-1.089,1.089H2.815
			c-0.6,0-1.089-0.488-1.089-1.089V4.815c0-0.6,0.488-1.089,1.089-1.089H29.186 M29.186,3H2.815C1.813,3,1,3.813,1,4.815v21.371
			C1,27.188,1.813,28,2.815,28h26.371C30.188,28,31,27.188,31,26.186V4.815C31,3.813,30.188,3,29.186,3L29.186,3z"/>
	</g>
	<g>
		<linearGradient id="SVGID_1_" gradientUnits="userSpaceOnUse" x1="16.0001" y1="26.2498" x2="16.0001" y2="4.7508">
			<stop  offset="0" style="stop-color:#FF7F01"/>
			<stop  offset="1" style="stop-color:#F05800"/>
		</linearGradient>
		<polygon fill="url(#SVGID_1_)" points="2.814,26.25 2.751,4.814 29.186,4.751 29.25,26.186 29.186,26.25 		"/>
	</g>
	<g>
		<path fill="#FFFFFF" d="M4.804,24.807v-7.158h3.174c0.638,0,1.123,0.065,1.455,0.193s0.597,0.354,0.796,0.681
			c0.199,0.325,0.298,0.684,0.298,1.079c0,0.508-0.165,0.935-0.493,1.284c-0.328,0.347-0.836,0.569-1.523,0.664
			c0.25,0.12,0.441,0.239,0.571,0.356c0.277,0.254,0.538,0.571,0.786,0.952l1.245,1.948H9.921l-0.947-1.489
			c-0.277-0.43-0.504-0.759-0.684-0.986c-0.179-0.229-0.339-0.388-0.481-0.479c-0.142-0.093-0.286-0.156-0.432-0.19
			c-0.107-0.024-0.283-0.034-0.527-0.034H5.751v3.179H4.804z M5.751,20.808h2.036c0.433,0,0.771-0.046,1.016-0.134
			c0.244-0.09,0.43-0.234,0.557-0.43c0.127-0.198,0.19-0.413,0.19-0.642c0-0.339-0.123-0.618-0.369-0.835
			c-0.245-0.22-0.634-0.327-1.165-0.327H5.751V20.808z"/>
		<path fill="#FFFFFF" d="M13.007,20.925c-0.365-0.134-0.635-0.325-0.811-0.571c-0.176-0.249-0.264-0.544-0.264-0.889
			c0-0.522,0.187-0.959,0.562-1.313c0.375-0.355,0.873-0.532,1.494-0.532c0.625,0,1.128,0.182,1.509,0.544
			c0.381,0.361,0.571,0.803,0.571,1.326c0,0.332-0.087,0.62-0.261,0.867c-0.175,0.244-0.438,0.435-0.793,0.569
			c0.439,0.142,0.774,0.374,1.003,0.693c0.229,0.317,0.344,0.698,0.344,1.143c0,0.61-0.216,1.125-0.649,1.543
			c-0.433,0.415-1.002,0.625-1.709,0.625s-1.276-0.21-1.709-0.627c-0.433-0.42-0.649-0.94-0.649-1.565
			c0-0.466,0.118-0.857,0.354-1.169C12.234,21.252,12.571,21.037,13.007,20.925z M12.548,22.742c0,0.249,0.06,0.493,0.178,0.728
			s0.295,0.415,0.53,0.544c0.234,0.127,0.487,0.193,0.757,0.193c0.42,0,0.767-0.137,1.04-0.405c0.273-0.271,0.41-0.615,0.41-1.03
			c0-0.425-0.14-0.774-0.422-1.05c-0.282-0.278-0.634-0.415-1.057-0.415c-0.414,0-0.756,0.137-1.028,0.41
			S12.548,22.331,12.548,22.742z M12.831,19.436c0,0.337,0.109,0.615,0.327,0.83s0.502,0.322,0.85,0.322
			c0.338,0,0.616-0.107,0.833-0.32c0.216-0.215,0.325-0.476,0.325-0.784c0-0.322-0.111-0.593-0.334-0.813s-0.5-0.33-0.833-0.33
			c-0.336,0-0.614,0.107-0.835,0.322S12.831,19.136,12.831,19.436z"/>
		<path fill="#FFFFFF" d="M20.526,24.807h-0.879v-5.601c-0.21,0.2-0.488,0.403-0.833,0.605c-0.343,0.2-0.652,0.352-0.925,0.454
			v-0.85c0.492-0.232,0.923-0.513,1.289-0.84c0.369-0.33,0.63-0.648,0.781-0.957h0.566V24.807z"/>
		<path fill="#FFFFFF" d="M22.777,21.277c0-0.847,0.088-1.528,0.261-2.043c0.176-0.518,0.435-0.916,0.776-1.194
			c0.344-0.28,0.776-0.42,1.296-0.42c0.386,0,0.723,0.077,1.011,0.232c0.291,0.155,0.53,0.376,0.718,0.669
			c0.19,0.291,0.337,0.645,0.444,1.064c0.107,0.417,0.161,0.981,0.161,1.692c0,0.84-0.085,1.516-0.259,2.034
			c-0.171,0.515-0.43,0.913-0.774,1.196c-0.342,0.281-0.776,0.422-1.301,0.422c-0.688,0-1.23-0.249-1.626-0.742
			C23.014,23.591,22.777,22.619,22.777,21.277z M23.681,21.277c0,1.174,0.139,1.956,0.413,2.346
			c0.276,0.388,0.615,0.583,1.018,0.583c0.405,0,0.745-0.195,1.018-0.586c0.276-0.391,0.413-1.172,0.413-2.344
			c0-1.179-0.137-1.963-0.413-2.349c-0.273-0.388-0.618-0.581-1.028-0.581c-0.403,0-0.725,0.171-0.967,0.513
			C23.832,19.294,23.681,20.1,23.681,21.277z"/>
	</g>
	<g>
		<polygon fill="#FFFFFF" points="8.854,8.611 6.162,7.368 8.854,6.124 		"/>
		<path fill="#FFFFFF" d="M15.462,14.766c-2.153,0-3.905-1.752-3.905-3.905s1.752-3.905,3.905-3.905s3.905,1.752,3.905,3.905
			S17.615,14.766,15.462,14.766z M15.462,7.874c-1.647,0-2.986,1.34-2.986,2.986s1.34,2.986,2.986,2.986s2.986-1.34,2.986-2.986
			S17.109,7.874,15.462,7.874z"/>
		<rect x="7.701" y="6.953" fill="#FFFFFF" width="7.618" height="0.83"/>
		<polygon fill="#FFFFFF" points="22.1,15.601 24.793,14.358 22.1,13.114 		"/>
		<rect x="15.511" y="13.942" fill="#FFFFFF" width="7.618" height="0.83"/>
	</g>
</g>
</svg>
