<?xml version="1.0" encoding="utf-8"?>
<!-- Generator: Adobe Illustrator 18.0.0, SVG Export Plug-In . SVG Version: 6.00 Build 0)  -->
<!DOCTYPE svg PUBLIC "-//W3C//DTD SVG 1.1//EN" "http://www.w3.org/Graphics/SVG/1.1/DTD/svg11.dtd">
<svg version="1.1" id="图层_1" xmlns="http://www.w3.org/2000/svg" xmlns:xlink="http://www.w3.org/1999/xlink" x="0px" y="0px"
	 width="32px" height="32px" viewBox="0 0 32 32" enable-background="new 0 0 32 32" xml:space="preserve">
<g>
	<g>
		<path fill="#FFFFFF" d="M2.815,27.638c-0.8,0-1.452-0.651-1.452-1.452V4.815c0-0.8,0.651-1.452,1.452-1.452h26.371
			c0.801,0,1.451,0.651,1.451,1.452v21.371c0,0.8-0.65,1.452-1.451,1.452H2.815z"/>
		<path fill="#AFAFAF" d="M29.186,3.726c0.6,0,1.089,0.488,1.089,1.089v21.371c0,0.6-0.488,1.089-1.089,1.089H2.815
			c-0.6,0-1.089-0.488-1.089-1.089V4.815c0-0.6,0.488-1.089,1.089-1.089H29.186 M29.186,3H2.815C1.813,3,1,3.813,1,4.815v21.371
			C1,27.188,1.813,28,2.815,28h26.371C30.188,28,31,27.188,31,26.186V4.815C31,3.813,30.188,3,29.186,3L29.186,3z"/>
	</g>
	<g>
		<linearGradient id="SVGID_1_" gradientUnits="userSpaceOnUse" x1="16.0001" y1="26.2498" x2="16.0001" y2="4.7508">
			<stop  offset="0" style="stop-color:#2CA539"/>
			<stop  offset="1" style="stop-color:#009117"/>
		</linearGradient>
		<polygon fill="url(#SVGID_1_)" points="2.814,26.25 2.751,4.814 29.186,4.751 29.25,26.186 29.186,26.25 		"/>
	</g>
	<g>
		<path fill="#FFFFFF" d="M4.898,24.807v-7.158h3.174c0.638,0,1.123,0.065,1.455,0.193s0.597,0.355,0.796,0.681
			s0.298,0.685,0.298,1.079c0,0.508-0.165,0.936-0.493,1.284s-0.836,0.57-1.523,0.664c0.25,0.121,0.441,0.239,0.571,0.356
			c0.277,0.254,0.538,0.571,0.786,0.952l1.245,1.948h-1.191l-0.947-1.489c-0.277-0.43-0.504-0.758-0.684-0.986
			s-0.339-0.387-0.481-0.479s-0.286-0.155-0.432-0.19c-0.107-0.023-0.283-0.034-0.527-0.034H5.845v3.179H4.898z M5.845,20.808h2.036
			c0.433,0,0.771-0.045,1.016-0.134s0.43-0.233,0.557-0.43s0.19-0.411,0.19-0.642c0-0.338-0.123-0.616-0.369-0.835
			S8.642,18.44,8.111,18.44H5.845V20.808z"/>
		<path fill="#FFFFFF" d="M13.101,20.925c-0.365-0.133-0.635-0.323-0.811-0.571s-0.264-0.543-0.264-0.889
			c0-0.521,0.187-0.958,0.562-1.313s0.873-0.532,1.494-0.532c0.625,0,1.128,0.182,1.509,0.544s0.571,0.804,0.571,1.326
			c0,0.332-0.087,0.621-0.261,0.867c-0.175,0.245-0.438,0.436-0.793,0.569c0.439,0.143,0.774,0.375,1.003,0.693
			c0.229,0.319,0.344,0.699,0.344,1.143c0,0.612-0.216,1.127-0.649,1.543c-0.433,0.416-1.002,0.625-1.709,0.625
			s-1.276-0.209-1.709-0.627s-0.649-0.94-0.649-1.565c0-0.465,0.118-0.856,0.354-1.169S12.665,21.039,13.101,20.925z M12.642,22.742
			c0,0.25,0.06,0.493,0.178,0.728s0.295,0.416,0.53,0.544s0.487,0.193,0.757,0.193c0.42,0,0.767-0.135,1.04-0.405
			s0.41-0.614,0.41-1.03c0-0.424-0.14-0.773-0.422-1.05s-0.634-0.415-1.057-0.415c-0.414,0-0.756,0.137-1.028,0.41
			S12.642,22.331,12.642,22.742z M12.925,19.436c0,0.338,0.109,0.615,0.327,0.83s0.502,0.322,0.85,0.322
			c0.338,0,0.616-0.106,0.833-0.32s0.325-0.475,0.325-0.784c0-0.322-0.111-0.593-0.334-0.813s-0.5-0.33-0.833-0.33
			c-0.336,0-0.614,0.107-0.835,0.322S12.925,19.137,12.925,19.436z"/>
		<path fill="#FFFFFF" d="M20.622,24.807h-0.879v-5.601c-0.212,0.201-0.491,0.404-0.833,0.605c-0.344,0.201-0.653,0.353-0.927,0.454
			v-0.85c0.492-0.231,0.922-0.511,1.29-0.84c0.366-0.328,0.627-0.648,0.781-0.957h0.566V24.807z"/>
		<path fill="#FFFFFF" d="M22.873,21.277c0-0.846,0.085-1.527,0.261-2.043c0.173-0.516,0.432-0.914,0.776-1.194
			c0.342-0.28,0.774-0.42,1.296-0.42c0.383,0,0.72,0.077,1.011,0.232c0.288,0.155,0.527,0.377,0.718,0.669
			c0.188,0.292,0.337,0.646,0.444,1.064s0.161,0.983,0.161,1.692c0,0.84-0.088,1.517-0.259,2.034
			c-0.173,0.516-0.432,0.914-0.774,1.196c-0.344,0.282-0.779,0.422-1.301,0.422c-0.691,0-1.233-0.248-1.626-0.742
			C23.107,23.591,22.873,22.621,22.873,21.277z M23.776,21.277c0,1.176,0.137,1.957,0.413,2.346
			c0.273,0.389,0.613,0.583,1.018,0.583c0.403,0,0.742-0.195,1.018-0.586c0.273-0.391,0.413-1.172,0.413-2.344
			c0-1.178-0.139-1.962-0.413-2.349c-0.276-0.387-0.618-0.581-1.028-0.581c-0.405,0-0.728,0.171-0.967,0.513
			C23.927,19.295,23.776,20.101,23.776,21.277z"/>
	</g>
	<g>
		<polygon fill="#FFFFFF" points="8.854,8.611 6.162,7.368 8.854,6.124 		"/>
		<path fill="#FFFFFF" d="M15.462,14.766c-2.153,0-3.905-1.752-3.905-3.905s1.752-3.905,3.905-3.905s3.905,1.752,3.905,3.905
			S17.615,14.766,15.462,14.766z M15.462,7.874c-1.647,0-2.986,1.34-2.986,2.986s1.34,2.986,2.986,2.986s2.986-1.34,2.986-2.986
			S17.109,7.874,15.462,7.874z"/>
		<rect x="7.701" y="6.953" fill="#FFFFFF" width="7.618" height="0.83"/>
		<polygon fill="#FFFFFF" points="22.1,15.601 24.793,14.358 22.1,13.114 		"/>
		<rect x="15.511" y="13.942" fill="#FFFFFF" width="7.618" height="0.83"/>
	</g>
</g>
</svg>
