<?xml version="1.0" encoding="utf-8"?>
<!-- Generator: Adobe Illustrator 18.0.0, SVG Export Plug-In . SVG Version: 6.00 Build 0)  -->
<!DOCTYPE svg PUBLIC "-//W3C//DTD SVG 1.1//EN" "http://www.w3.org/Graphics/SVG/1.1/DTD/svg11.dtd">
<svg version="1.1" id="图层_1" xmlns="http://www.w3.org/2000/svg" xmlns:xlink="http://www.w3.org/1999/xlink" x="0px" y="0px"
	 width="36px" height="36px" viewBox="0 0 36 36" enable-background="new 0 0 36 36" xml:space="preserve">
<g>
	<g>
		<path fill="#FFFFFF" d="M2.819,35.036c-1.023,0-1.855-0.832-1.855-1.855V2.819c0-1.023,0.832-1.855,1.855-1.855h30.362
			c1.023,0,1.855,0.832,1.855,1.855v30.362c0,1.023-0.832,1.855-1.855,1.855H2.819z"/>
		<path fill="#AFAFAF" d="M33.181,1.428c0.767,0,1.391,0.624,1.391,1.391v30.362c0,0.767-0.624,1.391-1.391,1.391H2.819
			c-0.767,0-1.391-0.624-1.391-1.391V2.819c0-0.767,0.624-1.391,1.391-1.391H33.181 M33.181,0.5H2.819
			C1.538,0.5,0.5,1.538,0.5,2.819v30.362c0,1.281,1.038,2.319,2.319,2.319h30.362c1.281,0,2.319-1.038,2.319-2.319V2.819
			C35.5,1.538,34.462,0.5,33.181,0.5L33.181,0.5z"/>
	</g>
	<g>
		<path fill="#C4C4C4" d="M2.819,33.5c-0.176,0-0.32-0.144-0.32-0.32V2.819c0-0.176,0.144-0.32,0.32-0.32h30.363
			c0.176,0,0.319,0.144,0.319,0.32v30.361c0,0.176-0.143,0.32-0.319,0.32H2.819z"/>
	</g>
	<g>
		<path fill="#FFFFFF" d="M9.899,22.698c-0.443-0.245-0.906-0.367-1.389-0.367c-0.735,0-1.326,0.345-1.772,1.035
			C6.291,24.057,6.065,25,6.058,26.195h0.027c0.403-0.84,1.045-1.26,1.926-1.26c0.736,0,1.323,0.258,1.761,0.774
			c0.439,0.518,0.659,1.204,0.659,2.059c0,0.895-0.254,1.631-0.76,2.206c-0.507,0.576-1.154,0.864-1.94,0.864
			c-0.863,0-1.542-0.364-2.034-1.091S4.96,27.987,4.96,26.65c0-1.617,0.322-2.902,0.968-3.854c0.646-0.953,1.495-1.429,2.549-1.429
			c0.604,0,1.078,0.089,1.422,0.266V22.698z M6.124,27.685c0,0.603,0.149,1.121,0.447,1.55s0.695,0.645,1.188,0.645
			c0.469,0,0.85-0.186,1.143-0.557c0.292-0.37,0.438-0.847,0.438-1.431c0-0.631-0.138-1.123-0.414-1.473
			c-0.277-0.352-0.669-0.526-1.178-0.526c-0.482,0-0.874,0.177-1.174,0.532S6.124,27.2,6.124,27.685z"/>
		<path fill="#FFFFFF" d="M11.876,29.277c0.57,0.402,1.165,0.603,1.783,0.603c0.585,0,1.057-0.177,1.416-0.53
			s0.537-0.822,0.537-1.405c0-0.587-0.182-1.042-0.546-1.366s-0.891-0.486-1.583-0.486c-0.333,0-0.781,0.028-1.344,0.083v-4.656
			h4.181v1.024h-3.182v2.59c0.319-0.02,0.558-0.029,0.719-0.029c0.896,0,1.595,0.244,2.096,0.734
			c0.502,0.49,0.752,1.163,0.752,2.023c0,0.887-0.269,1.605-0.807,2.153c-0.537,0.548-1.281,0.823-2.228,0.823
			c-0.795,0-1.393-0.126-1.794-0.378V29.277z"/>
		<path fill="#FFFFFF" d="M17.995,26.282c0-1.616,0.249-2.839,0.747-3.671c0.497-0.83,1.218-1.245,2.162-1.245
			c1.801,0,2.7,1.566,2.7,4.697c0,1.547-0.254,2.728-0.76,3.546c-0.507,0.819-1.217,1.228-2.131,1.228
			c-0.864,0-1.533-0.388-2.007-1.166C18.232,28.896,17.995,27.766,17.995,26.282z M19.093,26.23c0,2.433,0.573,3.65,1.718,3.65
			c1.128,0,1.691-1.237,1.691-3.71c0-2.559-0.552-3.839-1.658-3.839C19.676,22.331,19.093,23.631,19.093,26.23z"/>
		<path fill="#FFFFFF" d="M31.485,26.951c0,2.592-1.09,3.887-3.27,3.887c-2.09,0-3.134-1.25-3.134-3.75v-5.568h1.097v5.514
			c0,1.833,0.713,2.75,2.14,2.75c1.379,0,2.069-0.887,2.069-2.661v-5.603h1.097V26.951z"/>
	</g>
	<g>
		<g>
			<polygon fill="#FDFEFD" points="11.899,16.596 13.329,12.797 15.905,17.257 			"/>
			
				<rect x="13.737" y="13.093" transform="matrix(0.866 -0.5 0.5 0.866 -4.7095 10.1675)" fill="#FDFEFD" width="5.761" height="1.557"/>
		</g>
		<g>
			<polygon fill="#FDFEFD" points="7.717,12.037 9.148,8.238 11.723,12.698 			"/>
			
				<rect x="9.556" y="8.534" transform="matrix(0.866 -0.5 0.5 0.866 -2.9903 7.4657)" fill="#FDFEFD" width="5.761" height="1.557"/>
		</g>
		<g>
			<polygon fill="#FDFEFD" points="27.765,10.328 23.76,9.667 26.335,14.127 			"/>
			
				<rect x="20.166" y="12.274" transform="matrix(-0.866 0.5 -0.5 -0.866 49.5315 12.8328)" fill="#FDFEFD" width="5.761" height="1.557"/>
		</g>
		<g>
			<polygon fill="#FDFEFD" points="23.583,5.769 19.578,5.108 22.153,9.568 			"/>
			
				<rect x="15.984" y="7.715" transform="matrix(-0.866 0.5 -0.5 -0.866 39.4485 6.4164)" fill="#FDFEFD" width="5.761" height="1.557"/>
		</g>
	</g>
	<g>
		<g>
			<path fill="#FFFFFF" d="M27.536,17.395l0.642-0.059c0.048,0.337,0.157,0.591,0.331,0.759c0.173,0.171,0.382,0.255,0.626,0.255
				c0.295,0,0.544-0.12,0.748-0.359s0.305-0.557,0.305-0.952c0-0.376-0.098-0.673-0.294-0.89c-0.195-0.217-0.452-0.326-0.769-0.326
				c-0.197,0-0.375,0.049-0.533,0.145s-0.283,0.221-0.374,0.375l-0.574-0.081l0.482-2.758h2.477v0.63h-1.987l-0.269,1.443
				c0.299-0.225,0.613-0.337,0.941-0.337c0.435,0,0.801,0.162,1.1,0.487s0.449,0.742,0.449,1.252c0,0.486-0.132,0.906-0.394,1.26
				c-0.32,0.435-0.756,0.652-1.309,0.652c-0.453,0-0.823-0.137-1.108-0.41C27.74,18.209,27.576,17.846,27.536,17.395z"/>
		</g>
	</g>
</g>
</svg>
