<?xml version="1.0" encoding="utf-8"?>
<!-- Generator: Adobe Illustrator 18.0.0, SVG Export Plug-In . SVG Version: 6.00 Build 0)  -->
<!DOCTYPE svg PUBLIC "-//W3C//DTD SVG 1.1//EN" "http://www.w3.org/Graphics/SVG/1.1/DTD/svg11.dtd">
<svg version="1.1" id="图层_1" xmlns="http://www.w3.org/2000/svg" xmlns:xlink="http://www.w3.org/1999/xlink" x="0px" y="0px"
	 width="32px" height="32px" viewBox="0 0 32 32" enable-background="new 0 0 32 32" xml:space="preserve">
<g>
	<g>
		<path fill="#FFFFFF" d="M2.554,31.089c-0.906,0-1.644-0.737-1.644-1.644V2.554c0-0.906,0.737-1.644,1.644-1.644h26.892
			c0.906,0,1.643,0.737,1.643,1.644v26.892c0,0.906-0.736,1.644-1.643,1.644H2.554z"/>
		<path fill="#AFAFAF" d="M29.446,1.322c0.68,0,1.232,0.553,1.232,1.232v26.892c0,0.68-0.553,1.232-1.232,1.232H2.554
			c-0.68,0-1.232-0.553-1.232-1.232V2.554c0-0.68,0.553-1.232,1.232-1.232H29.446 M29.446,0.5H2.554C1.42,0.5,0.5,1.42,0.5,2.554
			v26.892c0,1.134,0.92,2.054,2.054,2.054h26.892c1.134,0,2.054-0.92,2.054-2.054V2.554C31.5,1.42,30.58,0.5,29.446,0.5L29.446,0.5z
			"/>
	</g>
	<g>
		<linearGradient id="SVGID_1_" gradientUnits="userSpaceOnUse" x1="15.9995" y1="29.7289" x2="15.9995" y2="2.2709">
			<stop  offset="0" style="stop-color:#2CA539"/>
			<stop  offset="1" style="stop-color:#009117"/>
		</linearGradient>
		<path fill="url(#SVGID_1_)" d="M2.554,29.729c-0.156,0-0.283-0.128-0.283-0.283V2.554c0-0.156,0.128-0.283,0.283-0.283h26.893
			c0.156,0,0.282,0.128,0.282,0.283v26.891c0,0.156-0.126,0.283-0.282,0.283H2.554z"/>
	</g>
	<g>
		<path fill="#FFFFFF" d="M9.749,20.162c-0.392-0.217-0.802-0.325-1.23-0.325c-0.651,0-1.174,0.306-1.57,0.917
			c-0.396,0.612-0.596,1.447-0.602,2.505H6.37c0.357-0.744,0.926-1.116,1.706-1.116c0.652,0,1.172,0.228,1.56,0.685
			c0.389,0.458,0.584,1.066,0.584,1.824c0,0.793-0.225,1.444-0.674,1.954c-0.449,0.51-1.022,0.765-1.718,0.765
			c-0.764,0-1.366-0.322-1.801-0.967s-0.653-1.559-0.653-2.743c0-1.433,0.285-2.57,0.857-3.413c0.572-0.844,1.324-1.266,2.258-1.266
			c0.535,0,0.955,0.079,1.26,0.236V20.162z M6.404,24.578c0,0.534,0.132,0.993,0.396,1.373c0.264,0.381,0.615,0.571,1.052,0.571
			c0.415,0,0.753-0.164,1.012-0.493c0.258-0.328,0.388-0.75,0.388-1.267c0-0.559-0.122-0.995-0.367-1.305
			c-0.245-0.311-0.592-0.466-1.043-0.466c-0.427,0-0.774,0.157-1.04,0.471C6.536,23.777,6.404,24.149,6.404,24.578z"/>
		<path fill="#FFFFFF" d="M11.334,25.878c0.515,0.429,1.096,0.644,1.745,0.644c0.518,0,0.929-0.137,1.233-0.412
			c0.303-0.274,0.454-0.641,0.454-1.103c0-1.026-0.682-1.54-2.047-1.54h-0.627v-0.849h0.598c1.209,0,1.813-0.482,1.813-1.447
			c0-0.891-0.462-1.336-1.385-1.336c-0.529,0-1.026,0.192-1.492,0.576v-0.969c0.492-0.308,1.067-0.462,1.726-0.462
			c0.641,0,1.157,0.181,1.545,0.543c0.389,0.361,0.584,0.83,0.584,1.407c0,1.062-0.503,1.745-1.507,2.049v0.021
			c0.545,0.063,0.975,0.27,1.291,0.622c0.316,0.35,0.474,0.788,0.474,1.313c0,0.73-0.243,1.318-0.731,1.766
			c-0.489,0.447-1.137,0.67-1.947,0.67c-0.713,0-1.288-0.143-1.726-0.429V25.878z"/>
		<path fill="#FFFFFF" d="M17.337,25.988c0.505,0.356,1.03,0.534,1.58,0.534c0.517,0,0.936-0.157,1.254-0.469
			c0.318-0.312,0.476-0.728,0.476-1.244c0-0.52-0.162-0.923-0.484-1.21s-0.789-0.43-1.401-0.43c-0.296,0-0.692,0.025-1.19,0.074
			v-4.124h3.703v0.907h-2.82v2.294c0.283-0.017,0.495-0.026,0.638-0.026c0.794,0,1.412,0.216,1.855,0.65
			c0.445,0.434,0.666,1.03,0.666,1.792c0,0.786-0.238,1.422-0.714,1.907c-0.476,0.485-1.135,0.729-1.974,0.729
			c-0.703,0-1.233-0.111-1.588-0.335V25.988z"/>
		<path fill="#FFFFFF" d="M27.335,27.235h-4.048v-8.117h3.879v0.933h-2.908v2.599h2.694v0.927h-2.694v2.73h3.077V27.235z"/>
	</g>
	<g>
		<g>
			<polygon fill="#FDFEFD" points="10.596,14.757 11.863,11.391 14.144,15.342 			"/>
			
				<rect x="12.225" y="11.654" transform="matrix(0.866 -0.5 0.5 0.866 -4.1922 9.0417)" fill="#FDFEFD" width="5.103" height="1.379"/>
		</g>
		<g>
			<polygon fill="#FDFEFD" points="6.892,10.719 8.159,7.353 10.44,11.304 			"/>
			
				<rect x="8.521" y="7.616" transform="matrix(0.866 -0.5 0.5 0.866 -2.6694 6.6487)" fill="#FDFEFD" width="5.103" height="1.379"/>
		</g>
		<g>
			<polygon fill="#FDFEFD" points="24.649,9.205 21.101,8.619 23.382,12.57 			"/>
			
				<rect x="17.918" y="10.928" transform="matrix(-0.866 0.5 -0.5 -0.866 44.0059 11.4443)" fill="#FDFEFD" width="5.103" height="1.379"/>
		</g>
		<g>
			<polygon fill="#FDFEFD" points="20.945,5.167 17.397,4.581 19.678,8.532 			"/>
			
				<rect x="14.214" y="6.89" transform="matrix(-0.866 0.5 -0.5 -0.866 35.0753 5.7611)" fill="#FDFEFD" width="5.103" height="1.379"/>
		</g>
	</g>
</g>
</svg>
