<?xml version="1.0" encoding="utf-8"?>
<!-- Generator: Adobe Illustrator 18.0.0, SVG Export Plug-In . SVG Version: 6.00 Build 0)  -->
<!DOCTYPE svg PUBLIC "-//W3C//DTD SVG 1.1//EN" "http://www.w3.org/Graphics/SVG/1.1/DTD/svg11.dtd">
<svg version="1.1" id="图层_1" xmlns="http://www.w3.org/2000/svg" xmlns:xlink="http://www.w3.org/1999/xlink" x="0px" y="0px"
	 width="32px" height="32px" viewBox="0 0 32 32" enable-background="new 0 0 32 32" xml:space="preserve">
<g>
	<g>
		<path fill="#FFFFFF" d="M2.814,28.109c-0.8,0-1.452-0.65-1.452-1.451V5.287c0-0.8,0.651-1.452,1.452-1.452h26.371
			c0.801,0,1.451,0.651,1.451,1.452v21.371c0,0.801-0.65,1.451-1.451,1.451H2.814z"/>
		<path fill="#AFAFAF" d="M29.185,4.198c0.6,0,1.089,0.488,1.089,1.089v21.371c0,0.6-0.488,1.089-1.089,1.089H2.815
			c-0.6,0-1.089-0.488-1.089-1.089V5.287c0-0.6,0.488-1.089,1.089-1.089H29.185 M29.185,3.473H2.815C1.812,3.473,1,4.285,1,5.287
			v21.371c0,1.002,0.812,1.815,1.815,1.815h26.371c1.002,0,1.815-0.812,1.815-1.815V5.287C31,4.285,30.188,3.473,29.185,3.473
			L29.185,3.473z"/>
	</g>
	<g>
		<linearGradient id="SVGID_1_" gradientUnits="userSpaceOnUse" x1="16" y1="26.7222" x2="16" y2="5.2231">
			<stop  offset="0" style="stop-color:#FF7F01"/>
			<stop  offset="1" style="stop-color:#F05800"/>
		</linearGradient>
		<polygon fill="url(#SVGID_1_)" points="2.814,26.722 2.75,5.287 29.186,5.223 29.25,26.659 29.186,26.722 		"/>
	</g>
	<text transform="matrix(1 0 0 1 4.0166 25.2802)" fill="#FFFFFF" font-family="'ArialMT'" font-size="10">R820</text>
	<g>
		<polygon fill="#FFFFFF" points="8.854,9.084 6.162,7.84 8.854,6.597 		"/>
		<path fill="#FFFFFF" d="M15.462,15.238c-2.153,0-3.905-1.752-3.905-3.905s1.752-3.905,3.905-3.905s3.905,1.752,3.905,3.905
			S17.615,15.238,15.462,15.238z M15.462,8.347c-1.647,0-2.986,1.34-2.986,2.986s1.34,2.986,2.986,2.986s2.986-1.34,2.986-2.986
			S17.109,8.347,15.462,8.347z"/>
		<rect x="7.701" y="7.425" fill="#FFFFFF" width="7.618" height="0.83"/>
		<polygon fill="#FFFFFF" points="22.1,16.073 24.793,14.83 22.1,13.586 		"/>
		<rect x="15.511" y="14.415" fill="#FFFFFF" width="7.618" height="0.83"/>
	</g>
</g>
</svg>
