<?xml version="1.0" encoding="utf-8"?>
<!-- Generator: Adobe Illustrator 18.0.0, SVG Export Plug-In . SVG Version: 6.00 Build 0)  -->
<!DOCTYPE svg PUBLIC "-//W3C//DTD SVG 1.1//EN" "http://www.w3.org/Graphics/SVG/1.1/DTD/svg11.dtd">
<svg version="1.1" id="图层_1" xmlns="http://www.w3.org/2000/svg" xmlns:xlink="http://www.w3.org/1999/xlink" x="0px" y="0px"
	 width="42px" height="42px" viewBox="0 0 42 42" enable-background="new 0 0 42 42" xml:space="preserve">
<g>
	<g>
		<path fill="#FFFFFF" d="M3.65,40.47c-1.169,0-2.12-0.951-2.12-2.12V3.65c0-1.169,0.951-2.12,2.12-2.12H38.35
			c1.169,0,2.12,0.951,2.12,2.12V38.35c0,1.169-0.951,2.12-2.12,2.12H3.65z"/>
		<path fill="#AFAFAF" d="M38.35,2.06c0.877,0,1.59,0.713,1.59,1.59V38.35c0,0.877-0.713,1.59-1.59,1.59H3.65
			c-0.877,0-1.59-0.713-1.59-1.59V3.65c0-0.877,0.713-1.59,1.59-1.59H38.35 M38.35,1H3.65C2.187,1,1,2.187,1,3.65V38.35
			C1,39.813,2.187,41,3.65,41H38.35c1.464,0,2.65-1.187,2.65-2.65V3.65C41,2.187,39.813,1,38.35,1L38.35,1z"/>
	</g>
	<g>
		<linearGradient id="SVGID_1_" gradientUnits="userSpaceOnUse" x1="20.9994" y1="38.7147" x2="20.9994" y2="3.285">
			<stop  offset="0" style="stop-color:#F1E821"/>
			<stop  offset="1" style="stop-color:#D6B900"/>
		</linearGradient>
		<path fill="url(#SVGID_1_)" d="M3.65,38.715c-0.201,0-0.366-0.165-0.366-0.366V3.651c0-0.201,0.165-0.366,0.366-0.366h34.7
			c0.201,0,0.364,0.165,0.364,0.366v34.699c0,0.201-0.163,0.366-0.364,0.366H3.65z"/>
	</g>
	<g>
		<path fill="#A37C00" d="M12.996,28.133c-0.43-0.239-0.878-0.357-1.347-0.357c-0.713,0-1.286,0.336-1.719,1.004
			c-0.433,0.67-0.652,1.584-0.659,2.744h0.026c0.391-0.814,1.013-1.222,1.868-1.222c0.714,0,1.283,0.249,1.708,0.75
			c0.426,0.502,0.639,1.167,0.639,1.996c0,0.869-0.246,1.581-0.737,2.14s-1.119,0.838-1.881,0.838c-0.837,0-1.495-0.353-1.972-1.058
			c-0.477-0.705-0.715-1.707-0.715-3.004c0-1.567,0.313-2.813,0.939-3.736c0.626-0.926,1.45-1.387,2.472-1.387
			c0.586,0,1.045,0.088,1.379,0.258V28.133z M9.335,32.967c0,0.585,0.144,1.087,0.433,1.503c0.289,0.417,0.674,0.625,1.152,0.625
			c0.455,0,0.824-0.18,1.108-0.54c0.283-0.357,0.425-0.821,0.425-1.387c0-0.611-0.134-1.089-0.401-1.428
			c-0.269-0.341-0.649-0.511-1.142-0.511c-0.468,0-0.848,0.173-1.139,0.516C9.479,32.091,9.335,32.499,9.335,32.967z"/>
		<path fill="#A37C00" d="M14.955,34.672c0.453,0.282,0.943,0.424,1.469,0.424c0.737,0,1.309-0.313,1.715-0.94
			c0.407-0.627,0.61-1.518,0.61-2.673c-0.007,0.007-0.014,0.007-0.021,0c-0.361,0.741-0.971,1.113-1.825,1.113
			c-0.691,0-1.264-0.256-1.719-0.769c-0.455-0.511-0.681-1.177-0.681-1.996c0-0.871,0.247-1.589,0.745-2.15
			c0.497-0.559,1.141-0.84,1.932-0.84c0.819,0,1.46,0.348,1.921,1.042c0.462,0.694,0.691,1.705,0.691,3.033
			c0,1.641-0.297,2.902-0.894,3.786c-0.595,0.883-1.42,1.326-2.474,1.326c-0.579,0-1.069-0.102-1.469-0.305V34.672z M15.556,29.686
			c0,0.597,0.142,1.07,0.425,1.42c0.284,0.35,0.676,0.526,1.177,0.526c0.433,0,0.797-0.161,1.091-0.481
			c0.294-0.32,0.442-0.705,0.442-1.16c0-0.639-0.147-1.167-0.439-1.586c-0.292-0.419-0.678-0.63-1.158-0.63
			c-0.444,0-0.811,0.182-1.102,0.547C15.702,28.685,15.556,29.139,15.556,29.686z"/>
		<path fill="#A37C00" d="M20.846,31.608c0-1.567,0.241-2.753,0.724-3.561c0.482-0.805,1.181-1.207,2.096-1.207
			c1.746,0,2.618,1.52,2.618,4.555c0,1.501-0.246,2.647-0.737,3.44c-0.491,0.793-1.18,1.191-2.067,1.191
			c-0.838,0-1.487-0.376-1.946-1.132C21.076,34.142,20.846,33.045,20.846,31.608z M21.91,31.556c0,2.36,0.555,3.539,1.665,3.539
			c1.094,0,1.639-1.198,1.639-3.596c0-2.481-0.535-3.724-1.607-3.724C22.476,27.776,21.91,29.037,21.91,31.556z"/>
		<path fill="#A37C00" d="M32.544,35.877h-1.048v-0.999h-0.021c-0.394,0.765-0.999,1.148-1.815,1.148
			c-1.394,0-2.092-0.9-2.092-2.696v-3.797h1.032v3.632c0,1.288,0.458,1.932,1.373,1.932c0.455,0,0.821-0.18,1.102-0.542
			c0.279-0.36,0.42-0.817,0.42-1.368v-3.653h1.048V35.877z"/>
	</g>
	<g>
		<g>
			<polygon fill="#A37C00" points="13.073,21.253 13.459,17.756 16.991,20.908 			"/>
			<polygon fill="#A37C00" points="20.461,15.612 15.368,20.157 14.3,19.204 19.393,14.659 			"/>
		</g>
		<g>
			<polygon fill="#A37C00" points="28.927,7.103 25.009,7.447 28.541,10.599 			"/>
			<polygon fill="#A37C00" points="22.607,13.697 27.7,9.151 26.632,8.198 21.539,12.744 			"/>
		</g>
		<g>
			<polygon fill="#A37C00" points="28.927,7.102 28.541,10.599 25.009,7.447 			"/>
			<polygon fill="#A37C00" points="21.539,12.744 26.632,8.198 27.7,9.151 22.607,13.697 			"/>
		</g>
		<g>
			<polygon fill="#A37C00" points="13.073,21.253 16.991,20.908 13.459,17.756 			"/>
			<polygon fill="#A37C00" points="19.393,14.659 14.3,19.204 15.368,20.157 20.461,15.612 			"/>
		</g>
		<g>
			<polygon fill="#A37C00" points="22.073,15.135 25.99,15.48 22.459,18.632 			"/>
			<polygon fill="#A37C00" points="28.393,21.729 23.3,17.183 24.367,16.23 29.461,20.776 			"/>
		</g>
		<g>
			<polygon fill="#A37C00" points="19.927,13.22 19.541,9.723 16.009,12.876 			"/>
			<polygon fill="#A37C00" points="12.539,7.579 17.632,12.125 18.7,11.172 13.607,6.626 			"/>
		</g>
	</g>
	<g>
		<path fill="#A37C00" d="M29.396,28.649h-2.925v-0.601h1.143v-4.176l-1.173,0.367v-0.639l1.815-0.568v5.017h1.14V28.649z"/>
		<path fill="#A37C00" d="M30.105,26.007c0-0.971,0.149-1.705,0.449-2.204c0.298-0.497,0.732-0.747,1.297-0.747
			c1.081,0,1.622,0.939,1.622,2.818c0,0.928-0.153,1.638-0.457,2.131c-0.304,0.49-0.73,0.736-1.28,0.736
			c-0.518,0-0.92-0.234-1.204-0.701C30.247,27.574,30.105,26.897,30.105,26.007z M30.764,25.974c0,1.461,0.343,2.192,1.031,2.192
			c0.676,0,1.014-0.743,1.014-2.228c0-1.536-0.331-2.304-0.994-2.304C31.115,23.635,30.764,24.414,30.764,25.974z"/>
	</g>
</g>
</svg>
