<?xml version="1.0" encoding="utf-8"?>
<!-- Generator: Adobe Illustrator 18.0.0, SVG Export Plug-In . SVG Version: 6.00 Build 0)  -->
<!DOCTYPE svg PUBLIC "-//W3C//DTD SVG 1.1//EN" "http://www.w3.org/Graphics/SVG/1.1/DTD/svg11.dtd">
<svg version="1.1" id="图层_1" xmlns="http://www.w3.org/2000/svg" xmlns:xlink="http://www.w3.org/1999/xlink" x="0px" y="0px"
	 width="32px" height="32px" viewBox="0 0 32 32" enable-background="new 0 0 32 32" xml:space="preserve">
<g>
	<g>
		<path fill="#FFFFFF" d="M1.92,29.145c-0.847,0-1.536-0.689-1.536-1.536v-22.4c0-0.847,0.689-1.536,1.536-1.536h28.16
			c0.847,0,1.536,0.689,1.536,1.536v22.4c0,0.847-0.689,1.536-1.536,1.536H1.92z"/>
		<path fill="#AFAFAF" d="M30.08,4.057c0.635,0,1.152,0.517,1.152,1.152v22.4c0,0.635-0.517,1.152-1.152,1.152H1.92
			c-0.635,0-1.152-0.517-1.152-1.152v-22.4c0-0.635,0.517-1.152,1.152-1.152H30.08 M30.08,3.289H1.92C0.86,3.289,0,4.148,0,5.209
			v22.4c0,1.06,0.86,1.92,1.92,1.92h28.16c1.06,0,1.92-0.86,1.92-1.92v-22.4C32,4.148,31.14,3.289,30.08,3.289L30.08,3.289z"/>
	</g>
	<linearGradient id="SVGID_1_" gradientUnits="userSpaceOnUse" x1="16" y1="27.5022" x2="16" y2="5.3155">
		<stop  offset="0" style="stop-color:#FF7F01"/>
		<stop  offset="1" style="stop-color:#F05800"/>
	</linearGradient>
	<path fill="url(#SVGID_1_)" d="M28.827,27.502H3.173c-0.633,0-1.147-0.513-1.147-1.147V6.462c0-0.633,0.513-1.147,1.147-1.147
		h25.653c0.633,0,1.147,0.513,1.147,1.147v19.893C29.973,26.989,29.46,27.502,28.827,27.502z"/>
	<g>
		<path fill="#FFFFFF" d="M8.454,18.185c-0.404-0.208-0.828-0.311-1.269-0.311c-0.673,0-1.213,0.292-1.621,0.879
			c-0.407,0.586-0.615,1.384-0.622,2.399h0.026c0.368-0.712,0.955-1.07,1.761-1.07c0.671,0,1.209,0.22,1.61,0.657
			c0.401,0.44,0.602,1.02,0.602,1.747c0,0.76-0.233,1.382-0.695,1.87c-0.464,0.49-1.055,0.733-1.774,0.733
			c-0.79,0-1.41-0.308-1.859-0.925c-0.45-0.617-0.675-1.492-0.675-2.627c0-1.37,0.295-2.46,0.885-3.269
			c0.59-0.807,1.367-1.211,2.331-1.211c0.551,0,0.985,0.075,1.299,0.225V18.185z M5.003,22.416c0,0.51,0.136,0.95,0.409,1.315
			c0.273,0.362,0.635,0.545,1.086,0.545c0.427,0,0.776-0.158,1.044-0.47c0.268-0.315,0.401-0.72,0.401-1.215
			c0-0.535-0.126-0.953-0.379-1.25c-0.253-0.298-0.611-0.445-1.076-0.445c-0.441,0-0.8,0.15-1.074,0.45
			C5.139,21.649,5.003,22.004,5.003,22.416z"/>
		<path fill="#FFFFFF" d="M14.776,24.959h-4.455v-0.847h1.741V18.21l-1.786,0.516v-0.902l2.764-0.803v7.09h1.736V24.959z"/>
		<path fill="#FFFFFF" d="M15.855,21.226c0-1.372,0.227-2.41,0.683-3.114c0.455-0.705,1.114-1.056,1.977-1.056
			c1.645,0,2.468,1.328,2.468,3.985c0,1.31-0.233,2.313-0.695,3.007c-0.463,0.695-1.113,1.04-1.949,1.04
			c-0.789,0-1.4-0.327-1.834-0.988C16.073,23.441,15.855,22.484,15.855,21.226z M16.859,21.181c0,2.065,0.524,3.095,1.571,3.095
			c1.03,0,1.545-1.048,1.545-3.145c0-2.173-0.505-3.257-1.515-3.257C17.393,17.874,16.859,18.976,16.859,21.181z"/>
		<path fill="#FFFFFF" d="M28.535,24.959h-1.11l-0.792-2.127h-3.235l-0.75,2.127H21.54l2.96-7.772h1.075L28.535,24.959z
			 M26.323,21.954l-1.175-3.233c-0.038-0.103-0.077-0.284-0.12-0.541h-0.025c-0.037,0.234-0.08,0.415-0.125,0.541l-1.165,3.233
			H26.323z"/>
	</g>
	<polygon fill="#FDFEFD" points="26.183,8.333 22.435,5.236 22.435,7.04 16.765,7.04 16.765,9.44 22.435,9.44 22.435,11.429 	"/>
	<polygon fill="#FDFEFD" points="7.485,12.013 11.233,8.916 11.233,10.72 16.903,10.72 16.903,13.12 11.233,13.12 11.233,15.109 	
		"/>
	<g>
		<g>
			<path fill="#FFFFFF" d="M21.575,14.736v-0.679h2.073v0.679H21.575z"/>
			<path fill="#FFFFFF" d="M26.75,16.386h-0.675v-4.301c-0.162,0.155-0.377,0.31-0.64,0.465c-0.265,0.155-0.5,0.271-0.71,0.349
				v-0.653c0.377-0.177,0.707-0.392,0.99-0.645c0.282-0.253,0.483-0.498,0.6-0.735h0.435V16.386z"/>
		</g>
	</g>
</g>
</svg>
