<?xml version="1.0" encoding="utf-8"?>
<!-- Generator: Adobe Illustrator 18.0.0, SVG Export Plug-In . SVG Version: 6.00 Build 0)  -->
<!DOCTYPE svg PUBLIC "-//W3C//DTD SVG 1.1//EN" "http://www.w3.org/Graphics/SVG/1.1/DTD/svg11.dtd">
<svg version="1.1" id="图层_1" xmlns="http://www.w3.org/2000/svg" xmlns:xlink="http://www.w3.org/1999/xlink" x="0px" y="0px"
	 width="32px" height="32px" viewBox="0 0 32 32" enable-background="new 0 0 32 32" xml:space="preserve">
<g>
	<g>
		<path fill="#FFFFFF" d="M2.815,27.638c-0.801,0-1.451-0.651-1.451-1.452V4.815c0-0.8,0.65-1.452,1.451-1.452h26.371
			c0.801,0,1.451,0.651,1.451,1.452v21.371c0,0.8-0.65,1.452-1.451,1.452H2.815z"/>
		<path fill="#AFAFAF" d="M29.186,3.726c0.6,0,1.089,0.488,1.089,1.089v21.371c0,0.6-0.488,1.089-1.089,1.089H2.815
			c-0.6,0-1.089-0.488-1.089-1.089V4.815c0-0.6,0.488-1.089,1.089-1.089H29.186 M29.186,3H2.815C1.813,3,1,3.813,1,4.815v21.371
			C1,27.188,1.813,28,2.815,28h26.371C30.188,28,31,27.188,31,26.186V4.815C31,3.813,30.188,3,29.186,3L29.186,3z"/>
	</g>
	<g>
		<linearGradient id="SVGID_1_" gradientUnits="userSpaceOnUse" x1="16.0001" y1="26.2498" x2="16.0001" y2="4.7508">
			<stop  offset="0" style="stop-color:#00AEF9"/>
			<stop  offset="1" style="stop-color:#0092E1"/>
		</linearGradient>
		<polygon fill="url(#SVGID_1_)" points="2.814,26.25 2.751,4.814 29.186,4.751 29.25,26.186 29.186,26.25 		"/>
	</g>
	<g>
		<path fill="#FFFFFF" d="M4.333,24.807v-7.158h3.174c0.637,0,1.123,0.065,1.455,0.193s0.596,0.355,0.796,0.681
			c0.198,0.326,0.298,0.685,0.298,1.079c0,0.508-0.166,0.936-0.493,1.284c-0.33,0.348-0.837,0.57-1.523,0.664
			c0.249,0.121,0.439,0.239,0.571,0.356c0.276,0.254,0.537,0.571,0.786,0.952l1.245,1.948H9.45l-0.947-1.489
			c-0.278-0.43-0.505-0.758-0.684-0.986c-0.181-0.228-0.339-0.387-0.481-0.479c-0.142-0.092-0.286-0.155-0.432-0.19
			c-0.107-0.023-0.283-0.034-0.527-0.034H5.28v3.179H4.333z M5.28,20.808h2.036c0.432,0,0.771-0.045,1.016-0.134
			s0.43-0.233,0.557-0.43s0.19-0.411,0.19-0.642c0-0.338-0.125-0.616-0.369-0.835c-0.247-0.219-0.635-0.327-1.165-0.327H5.28V20.808
			z"/>
		<path fill="#FFFFFF" d="M11.501,24.807v-7.158h2.686c0.547,0,0.984,0.072,1.316,0.217c0.33,0.145,0.588,0.367,0.776,0.669
			c0.186,0.302,0.281,0.616,0.281,0.945c0,0.306-0.083,0.594-0.249,0.864s-0.417,0.488-0.752,0.654
			c0.432,0.127,0.764,0.343,0.999,0.649c0.232,0.306,0.349,0.668,0.349,1.084c0,0.336-0.071,0.647-0.212,0.935
			s-0.317,0.51-0.525,0.667c-0.21,0.156-0.471,0.275-0.784,0.354c-0.315,0.079-0.701,0.12-1.155,0.12H11.501z M12.448,20.656h1.548
			c0.42,0,0.72-0.028,0.903-0.083c0.239-0.072,0.422-0.19,0.544-0.356c0.122-0.166,0.183-0.375,0.183-0.625
			c0-0.238-0.059-0.447-0.171-0.627c-0.115-0.181-0.278-0.304-0.488-0.371c-0.212-0.067-0.576-0.1-1.089-0.1h-1.431V20.656z
			 M12.448,23.962h1.782c0.305,0,0.52-0.011,0.645-0.034c0.217-0.039,0.4-0.104,0.547-0.195s0.266-0.223,0.361-0.398
			c0.093-0.175,0.142-0.375,0.142-0.603c0-0.267-0.068-0.499-0.205-0.696s-0.327-0.336-0.569-0.415
			c-0.244-0.079-0.593-0.12-1.047-0.12h-1.655V23.962z"/>
		<path fill="#FFFFFF" d="M21.164,24.807h-0.879v-5.601c-0.212,0.201-0.491,0.404-0.833,0.605c-0.344,0.201-0.652,0.353-0.925,0.454
			v-0.85c0.491-0.231,0.92-0.511,1.289-0.84c0.366-0.328,0.627-0.648,0.781-0.957h0.566V24.807z"/>
		<path fill="#FFFFFF" d="M23.415,21.276c0-0.846,0.085-1.527,0.261-2.043c0.173-0.516,0.432-0.914,0.776-1.194
			c0.342-0.28,0.774-0.42,1.296-0.42c0.383,0,0.72,0.077,1.011,0.232c0.288,0.155,0.527,0.377,0.718,0.669
			c0.188,0.292,0.337,0.646,0.444,1.064s0.161,0.983,0.161,1.692c0,0.84-0.088,1.517-0.259,2.034
			c-0.173,0.516-0.432,0.914-0.774,1.196c-0.344,0.282-0.779,0.422-1.301,0.422c-0.691,0-1.233-0.248-1.626-0.742
			C23.649,23.591,23.415,22.62,23.415,21.276z M24.318,21.276c0,1.176,0.137,1.957,0.413,2.346c0.273,0.389,0.613,0.583,1.018,0.583
			c0.403,0,0.742-0.195,1.018-0.586c0.273-0.391,0.413-1.172,0.413-2.344c0-1.178-0.139-1.962-0.413-2.349
			c-0.276-0.387-0.618-0.581-1.028-0.581c-0.405,0-0.728,0.171-0.967,0.513C24.469,19.295,24.318,20.101,24.318,21.276z"/>
	</g>
	<g>
		<polygon fill="#FFFFFF" points="8.854,8.611 6.162,7.368 8.854,6.124 		"/>
		<path fill="#FFFFFF" d="M15.462,14.766c-2.153,0-3.905-1.752-3.905-3.905s1.752-3.905,3.905-3.905s3.905,1.752,3.905,3.905
			S17.615,14.766,15.462,14.766z M15.462,7.874c-1.647,0-2.986,1.34-2.986,2.986s1.34,2.986,2.986,2.986s2.986-1.34,2.986-2.986
			S17.109,7.874,15.462,7.874z"/>
		<rect x="7.701" y="6.953" fill="#FFFFFF" width="7.618" height="0.83"/>
		<polygon fill="#FFFFFF" points="22.1,15.601 24.793,14.358 22.1,13.114 		"/>
		<rect x="15.511" y="13.942" fill="#FFFFFF" width="7.618" height="0.83"/>
	</g>
</g>
</svg>
