<?xml version="1.0" encoding="utf-8"?>
<!-- Generator: Adobe Illustrator 18.0.0, SVG Export Plug-In . SVG Version: 6.00 Build 0)  -->
<!DOCTYPE svg PUBLIC "-//W3C//DTD SVG 1.1//EN" "http://www.w3.org/Graphics/SVG/1.1/DTD/svg11.dtd">
<svg version="1.1" id="图层_1" xmlns="http://www.w3.org/2000/svg" xmlns:xlink="http://www.w3.org/1999/xlink" x="0px" y="0px"
	 width="42px" height="42px" viewBox="0 0 42 42" enable-background="new 0 0 42 42" xml:space="preserve">
<g>
	<path fill="#FFFFFF" d="M3.65,40.5c-1.186,0-2.15-0.965-2.15-2.15V3.65c0-1.186,0.965-2.15,2.15-2.15H38.35
		c1.186,0,2.15,0.965,2.15,2.15V38.35c0,1.186-0.965,2.15-2.15,2.15H3.65z"/>
	<path fill="#AFAFAF" d="M38.35,2C39.26,2,40,2.74,40,3.65V38.35c0,0.91-0.74,1.65-1.65,1.65H3.65C2.74,40,2,39.26,2,38.35V3.65
		C2,2.74,2.74,2,3.65,2H38.35 M38.35,1H3.65C2.187,1,1,2.187,1,3.65V38.35C1,39.813,2.187,41,3.65,41H38.35
		c1.464,0,2.65-1.187,2.65-2.65V3.65C41,2.187,39.813,1,38.35,1L38.35,1z"/>
</g>
<g>
	<path fill="#C4C4C4" d="M3.65,38.715c-0.201,0-0.366-0.165-0.366-0.366V3.651c0-0.201,0.165-0.366,0.366-0.366h34.7
		c0.201,0,0.364,0.165,0.364,0.366v34.699c0,0.201-0.163,0.366-0.364,0.366H3.65z"/>
</g>
<g>
	<path fill="#FFFFFF" d="M7.052,34.404v-7.158h3.174c0.638,0,1.123,0.064,1.455,0.193s0.597,0.355,0.796,0.681
		s0.298,0.685,0.298,1.079c0,0.508-0.165,0.936-0.493,1.284s-0.836,0.57-1.523,0.664c0.25,0.121,0.441,0.239,0.571,0.356
		c0.277,0.254,0.539,0.571,0.786,0.952l1.245,1.948h-1.191l-0.947-1.489c-0.277-0.43-0.504-0.758-0.684-0.986
		s-0.339-0.387-0.481-0.479s-0.286-0.155-0.432-0.19c-0.107-0.023-0.283-0.034-0.527-0.034H8v3.179H7.052z M8,30.405h2.036
		c0.433,0,0.771-0.045,1.016-0.134s0.43-0.233,0.557-0.43s0.19-0.411,0.19-0.642c0-0.338-0.123-0.617-0.369-0.835
		s-0.634-0.327-1.165-0.327H8V30.405z"/>
	<path fill="#FFFFFF" d="M15.255,30.522c-0.365-0.133-0.635-0.324-0.811-0.571s-0.264-0.543-0.264-0.889
		c0-0.521,0.187-0.958,0.562-1.313s0.873-0.532,1.494-0.532c0.625,0,1.128,0.182,1.509,0.544s0.571,0.805,0.571,1.326
		c0,0.332-0.087,0.621-0.261,0.867s-0.438,0.436-0.793,0.569c0.439,0.143,0.774,0.375,1.003,0.693s0.344,0.7,0.344,1.143
		c0,0.612-0.216,1.126-0.649,1.543s-1.002,0.625-1.709,0.625s-1.276-0.209-1.709-0.627s-0.649-0.94-0.649-1.565
		c0-0.465,0.118-0.855,0.354-1.169S14.819,30.636,15.255,30.522z M14.796,32.338c0,0.25,0.06,0.493,0.178,0.728
		s0.295,0.416,0.53,0.544s0.487,0.193,0.757,0.193c0.42,0,0.767-0.135,1.04-0.405s0.41-0.614,0.41-1.03
		c0-0.423-0.141-0.773-0.422-1.05s-0.634-0.415-1.057-0.415c-0.414,0-0.756,0.137-1.028,0.41S14.796,31.928,14.796,32.338z
		 M15.08,29.033c0,0.338,0.109,0.615,0.327,0.83s0.501,0.322,0.85,0.322c0.338,0,0.616-0.106,0.833-0.32s0.325-0.475,0.325-0.784
		c0-0.322-0.111-0.593-0.334-0.813s-0.5-0.33-0.833-0.33c-0.335,0-0.614,0.107-0.835,0.322S15.08,28.733,15.08,29.033z"/>
	<path fill="#FFFFFF" d="M19.464,30.874c0-0.846,0.087-1.527,0.261-2.043s0.433-0.914,0.776-1.194s0.775-0.42,1.296-0.42
		c0.384,0,0.721,0.077,1.011,0.232s0.529,0.377,0.718,0.669s0.337,0.646,0.444,1.064s0.161,0.982,0.161,1.692
		c0,0.84-0.086,1.518-0.259,2.034s-0.431,0.915-0.774,1.196s-0.777,0.422-1.301,0.422c-0.69,0-1.232-0.248-1.626-0.742
		C19.7,33.188,19.464,32.218,19.464,30.874z M20.368,30.874c0,1.175,0.138,1.957,0.413,2.346s0.614,0.583,1.018,0.583
		s0.743-0.195,1.018-0.586s0.413-1.172,0.413-2.344c0-1.178-0.138-1.961-0.413-2.349s-0.618-0.581-1.028-0.581
		c-0.404,0-0.726,0.171-0.967,0.513C20.519,28.893,20.368,29.698,20.368,30.874z"/>
	<path fill="#FFFFFF" d="M25.026,30.874c0-0.846,0.087-1.527,0.261-2.043s0.433-0.914,0.776-1.194s0.775-0.42,1.296-0.42
		c0.384,0,0.721,0.077,1.011,0.232s0.529,0.377,0.718,0.669s0.337,0.646,0.444,1.064s0.161,0.982,0.161,1.692
		c0,0.84-0.086,1.518-0.259,2.034s-0.431,0.915-0.774,1.196s-0.777,0.422-1.301,0.422c-0.69,0-1.232-0.248-1.626-0.742
		C25.262,33.188,25.026,32.218,25.026,30.874z M25.929,30.874c0,1.175,0.138,1.957,0.413,2.346s0.614,0.583,1.018,0.583
		s0.743-0.195,1.018-0.586s0.413-1.172,0.413-2.344c0-1.178-0.138-1.961-0.413-2.349s-0.618-0.581-1.028-0.581
		c-0.404,0-0.726,0.171-0.967,0.513C26.081,28.893,25.929,29.698,25.929,30.874z"/>
	<path fill="#FFFFFF" d="M30.587,30.874c0-0.846,0.087-1.527,0.261-2.043s0.433-0.914,0.776-1.194s0.775-0.42,1.296-0.42
		c0.384,0,0.721,0.077,1.011,0.232s0.529,0.377,0.718,0.669s0.337,0.646,0.444,1.064s0.161,0.982,0.161,1.692
		c0,0.84-0.086,1.518-0.259,2.034s-0.431,0.915-0.774,1.196s-0.777,0.422-1.301,0.422c-0.69,0-1.232-0.248-1.626-0.742
		C30.823,33.188,30.587,32.218,30.587,30.874z M31.491,30.874c0,1.175,0.138,1.957,0.413,2.346s0.614,0.583,1.018,0.583
		s0.743-0.195,1.018-0.586s0.413-1.172,0.413-2.344c0-1.178-0.138-1.961-0.413-2.349s-0.618-0.581-1.028-0.581
		c-0.404,0-0.726,0.171-0.967,0.513C31.642,28.893,31.491,29.698,31.491,30.874z"/>
</g>
<g>
	<g>
		<g>
			<polygon fill="#F6F6F6" points="18.683,6.556 16.689,8.985 20.676,8.985 			"/>
			<rect x="18.08" y="8.543" fill="#F6F6F6" width="1.205" height="4.187"/>
		</g>
		<g>
			<polygon fill="#F6F6F6" points="23.316,6.556 21.323,8.985 25.31,8.985 			"/>
			<rect x="22.714" y="8.543" fill="#F6F6F6" width="1.205" height="4.187"/>
		</g>
		<g>
			<polygon fill="#F6F6F6" points="23.316,24.875 25.31,22.446 21.323,22.446 			"/>
			<rect x="22.714" y="18.7" fill="#F6F6F6" width="1.205" height="4.187"/>
		</g>
		<g>
			<polygon fill="#F6F6F6" points="18.682,24.875 20.676,22.446 16.689,22.446 			"/>
			<rect x="18.08" y="18.7" fill="#F6F6F6" width="1.205" height="4.187"/>
		</g>
	</g>
	<g>
		<g>
			<polygon fill="#F6F6F6" points="11.84,18.032 14.269,20.025 14.269,16.039 			"/>
			<rect x="13.828" y="17.43" fill="#F6F6F6" width="4.187" height="1.205"/>
		</g>
		<g>
			<polygon fill="#F6F6F6" points="11.84,13.398 14.269,15.391 14.269,11.405 			"/>
			<rect x="13.828" y="12.796" fill="#F6F6F6" width="4.187" height="1.205"/>
		</g>
		<g>
			<polygon fill="#F6F6F6" points="30.159,13.398 27.73,11.405 27.73,15.391 			"/>
			<rect x="23.984" y="12.796" fill="#F6F6F6" width="4.187" height="1.205"/>
		</g>
		<g>
			<polygon fill="#F6F6F6" points="30.159,18.032 27.73,16.039 27.73,20.025 			"/>
			<rect x="23.984" y="17.43" fill="#F6F6F6" width="4.187" height="1.205"/>
		</g>
	</g>
	<path fill="#F6F6F6" d="M20.999,12.741c1.64,0,2.975,1.334,2.975,2.975s-1.334,2.975-2.975,2.975c-1.64,0-2.975-1.334-2.975-2.975
		S19.359,12.741,20.999,12.741 M20.999,11.06c-2.571,0-4.655,2.084-4.655,4.655s2.084,4.655,4.655,4.655s4.655-2.084,4.655-4.655
		S23.57,11.06,20.999,11.06L20.999,11.06z"/>
</g>
</svg>
