<?xml version="1.0" encoding="utf-8"?>
<!-- Generator: Adobe Illustrator 18.0.0, SVG Export Plug-In . SVG Version: 6.00 Build 0)  -->
<!DOCTYPE svg PUBLIC "-//W3C//DTD SVG 1.1//EN" "http://www.w3.org/Graphics/SVG/1.1/DTD/svg11.dtd">
<svg version="1.1" id="图层_1" xmlns="http://www.w3.org/2000/svg" xmlns:xlink="http://www.w3.org/1999/xlink" x="0px" y="0px"
	 width="32px" height="32px" viewBox="0 0 32 32" enable-background="new 0 0 32 32" xml:space="preserve">
<g>
	<g>
		<path fill="#FFFFFF" d="M2.814,28.111c-0.801,0-1.451-0.65-1.451-1.451V5.29c0-0.801,0.65-1.452,1.451-1.452h26.371
			c0.801,0,1.451,0.651,1.451,1.452V26.66c0,0.801-0.65,1.451-1.451,1.451H2.814z"/>
		<path fill="#AFAFAF" d="M29.185,4.201c0.6,0,1.089,0.488,1.089,1.089V26.66c0,0.6-0.488,1.089-1.089,1.089H2.815
			c-0.6,0-1.089-0.488-1.089-1.089V5.289c0-0.6,0.488-1.089,1.089-1.089H29.185 M29.185,3.475H2.815C1.812,3.475,1,4.287,1,5.289
			V26.66c0,1.002,0.812,1.815,1.815,1.815h26.371c1.002,0,1.815-0.812,1.815-1.815V5.289C31,4.287,30.188,3.475,29.185,3.475
			L29.185,3.475z"/>
	</g>
	<g>
		<linearGradient id="SVGID_1_" gradientUnits="userSpaceOnUse" x1="16" y1="26.7243" x2="16" y2="5.2252">
			<stop  offset="0" style="stop-color:#FF1F30"/>
			<stop  offset="1" style="stop-color:#C3020F"/>
		</linearGradient>
		<polygon fill="url(#SVGID_1_)" points="2.814,26.724 2.75,5.289 29.186,5.225 29.25,26.661 29.186,26.724 		"/>
	</g>
	<text transform="matrix(1 0 0 1 4.207 25.2785)" fill="#FFFFFF" font-family="'ArialMT'" font-size="10">R820</text>
	<g>
		<polygon fill="#FFFFFF" points="8.854,9.086 6.162,7.842 8.854,6.599 		"/>
		<path fill="#FFFFFF" d="M15.462,15.24c-2.153,0-3.905-1.752-3.905-3.905s1.752-3.905,3.905-3.905s3.905,1.752,3.905,3.905
			S17.615,15.24,15.462,15.24z M15.462,8.349c-1.647,0-2.986,1.34-2.986,2.986s1.34,2.986,2.986,2.986s2.986-1.34,2.986-2.986
			S17.109,8.349,15.462,8.349z"/>
		<rect x="7.701" y="7.427" fill="#FFFFFF" width="7.618" height="0.83"/>
		<polygon fill="#FFFFFF" points="22.1,16.076 24.793,14.832 22.1,13.588 		"/>
		<rect x="15.511" y="14.417" fill="#FFFFFF" width="7.618" height="0.83"/>
	</g>
</g>
</svg>
