<?xml version="1.0" encoding="utf-8"?>
<!-- Generator: Adobe Illustrator 18.0.0, SVG Export Plug-In . SVG Version: 6.00 Build 0)  -->
<!DOCTYPE svg PUBLIC "-//W3C//DTD SVG 1.1//EN" "http://www.w3.org/Graphics/SVG/1.1/DTD/svg11.dtd">
<svg version="1.1" id="图层_1" xmlns="http://www.w3.org/2000/svg" xmlns:xlink="http://www.w3.org/1999/xlink" x="0px" y="0px"
	 width="32px" height="32px" viewBox="0 0 32 32" enable-background="new 0 0 32 32" xml:space="preserve">
<g>
	<g>
		<path fill="#FFFFFF" d="M2.554,31.089c-0.906,0-1.643-0.736-1.643-1.643V2.554c0-0.906,0.736-1.644,1.643-1.644h26.893
			c0.906,0,1.643,0.737,1.643,1.644v26.892c0,0.906-0.736,1.643-1.643,1.643H2.554z"/>
		<path fill="#AFAFAF" d="M29.446,1.322c0.68,0,1.232,0.553,1.232,1.232v26.892c0,0.68-0.553,1.232-1.232,1.232H2.554
			c-0.68,0-1.232-0.553-1.232-1.232V2.554c0-0.68,0.553-1.232,1.232-1.232H29.446 M29.446,0.5H2.554C1.42,0.5,0.5,1.42,0.5,2.554
			v26.892c0,1.134,0.92,2.054,2.054,2.054h26.892c1.134,0,2.054-0.92,2.054-2.054V2.554C31.5,1.42,30.58,0.5,29.446,0.5L29.446,0.5z
			"/>
	</g>
	<g>
		<linearGradient id="SVGID_1_" gradientUnits="userSpaceOnUse" x1="15.9995" y1="29.7289" x2="15.9995" y2="2.2709">
			<stop  offset="0" style="stop-color:#FF1F30"/>
			<stop  offset="1" style="stop-color:#C3020F"/>
		</linearGradient>
		<path fill="url(#SVGID_1_)" d="M2.554,29.729c-0.156,0-0.283-0.128-0.283-0.283V2.554c0-0.156,0.128-0.283,0.283-0.283h26.893
			c0.156,0,0.282,0.128,0.282,0.283v26.891c0,0.156-0.126,0.283-0.282,0.283H2.554z"/>
	</g>
	<g>
		<path fill="#FFFFFF" d="M9.749,20.16c-0.394-0.216-0.802-0.324-1.23-0.324c-0.651,0-1.174,0.305-1.57,0.917
			S6.351,22.2,6.345,23.257h0.024c0.357-0.744,0.926-1.116,1.706-1.116c0.653,0,1.172,0.229,1.561,0.685
			c0.389,0.458,0.584,1.066,0.584,1.825c0,0.791-0.225,1.444-0.675,1.953c-0.448,0.51-1.021,0.765-1.717,0.765
			c-0.765,0-1.367-0.322-1.801-0.967c-0.437-0.644-0.653-1.559-0.653-2.742c0-1.434,0.285-2.571,0.856-3.414
			c0.573-0.843,1.326-1.265,2.258-1.265c0.536,0,0.956,0.078,1.261,0.236V20.16z M6.403,24.578c0,0.534,0.132,0.993,0.396,1.373
			c0.264,0.381,0.616,0.571,1.053,0.571c0.415,0,0.753-0.164,1.012-0.493c0.257-0.329,0.387-0.75,0.387-1.267
			c0-0.56-0.121-0.995-0.365-1.306c-0.247-0.311-0.592-0.465-1.044-0.465c-0.426,0-0.774,0.156-1.04,0.471
			C6.535,23.776,6.403,24.148,6.403,24.578z"/>
		<path fill="#FFFFFF" d="M11.334,25.878c0.515,0.428,1.096,0.644,1.745,0.644c0.517,0,0.928-0.138,1.233-0.413
			c0.303-0.272,0.454-0.64,0.454-1.103c0-1.025-0.683-1.54-2.048-1.54H12.09v-0.848h0.599c1.209,0,1.812-0.482,1.812-1.447
			c0-0.891-0.461-1.336-1.384-1.336c-0.53,0-1.027,0.192-1.492,0.575v-0.969c0.491-0.307,1.066-0.461,1.726-0.461
			c0.64,0,1.157,0.179,1.544,0.543c0.389,0.361,0.584,0.83,0.584,1.406c0,1.062-0.502,1.745-1.507,2.05V23
			c0.545,0.063,0.975,0.27,1.291,0.623c0.316,0.35,0.474,0.787,0.474,1.313c0,0.729-0.242,1.317-0.731,1.765s-1.137,0.67-1.946,0.67
			c-0.714,0-1.289-0.143-1.726-0.428V25.878z"/>
		<path fill="#FFFFFF" d="M17.336,25.988c0.506,0.355,1.031,0.534,1.581,0.534c0.517,0,0.936-0.158,1.254-0.469
			c0.318-0.314,0.476-0.729,0.476-1.246c0-0.519-0.162-0.923-0.484-1.209c-0.322-0.288-0.789-0.43-1.401-0.43
			c-0.296,0-0.692,0.024-1.191,0.074v-4.124h3.704v0.906h-2.82v2.294c0.283-0.017,0.495-0.026,0.638-0.026
			c0.794,0,1.412,0.216,1.855,0.651c0.445,0.432,0.666,1.029,0.666,1.79c0,0.787-0.238,1.423-0.714,1.907
			c-0.476,0.487-1.135,0.729-1.974,0.729c-0.703,0-1.233-0.11-1.589-0.335V25.988z"/>
		<path fill="#FFFFFF" d="M27.335,27.234h-4.048v-8.115h3.879v0.932h-2.908v2.599h2.694v0.928h-2.694v2.729h3.077V27.234z"/>
	</g>
	<g>
		<g>
			<polygon fill="#FDFEFD" points="10.596,14.757 11.863,11.391 14.144,15.342 			"/>
			
				<rect x="12.225" y="11.654" transform="matrix(0.866 -0.5 0.5 0.866 -4.1922 9.0417)" fill="#FDFEFD" width="5.103" height="1.379"/>
		</g>
		<g>
			<polygon fill="#FDFEFD" points="6.892,10.719 8.159,7.353 10.44,11.304 			"/>
			
				<rect x="8.521" y="7.616" transform="matrix(0.866 -0.5 0.5 0.866 -2.6694 6.6487)" fill="#FDFEFD" width="5.103" height="1.379"/>
		</g>
		<g>
			<polygon fill="#FDFEFD" points="24.649,9.205 21.101,8.619 23.382,12.57 			"/>
			
				<rect x="17.918" y="10.928" transform="matrix(-0.866 0.5 -0.5 -0.866 44.0059 11.4443)" fill="#FDFEFD" width="5.103" height="1.379"/>
		</g>
		<g>
			<polygon fill="#FDFEFD" points="20.945,5.167 17.397,4.581 19.678,8.532 			"/>
			
				<rect x="14.214" y="6.89" transform="matrix(-0.866 0.5 -0.5 -0.866 35.0753 5.7611)" fill="#FDFEFD" width="5.103" height="1.379"/>
		</g>
	</g>
</g>
</svg>
