<?xml version="1.0" encoding="utf-8"?>
<!-- Generator: Adobe Illustrator 18.0.0, SVG Export Plug-In . SVG Version: 6.00 Build 0)  -->
<!DOCTYPE svg PUBLIC "-//W3C//DTD SVG 1.1//EN" "http://www.w3.org/Graphics/SVG/1.1/DTD/svg11.dtd">
<svg version="1.1" id="图层_1" xmlns="http://www.w3.org/2000/svg" xmlns:xlink="http://www.w3.org/1999/xlink" x="0px" y="0px"
	 width="32px" height="32px" viewBox="0 0 32 32" enable-background="new 0 0 32 32" xml:space="preserve">
<g>
	<g>
		<path fill="#FFFFFF" d="M1.92,29.145c-0.847,0-1.536-0.689-1.536-1.536v-22.4c0-0.847,0.689-1.536,1.536-1.536h28.16
			c0.847,0,1.536,0.689,1.536,1.536v22.4c0,0.847-0.689,1.536-1.536,1.536H1.92z"/>
		<path fill="#AFAFAF" d="M30.08,4.057c0.635,0,1.152,0.517,1.152,1.152v22.4c0,0.635-0.517,1.152-1.152,1.152H1.92
			c-0.635,0-1.152-0.517-1.152-1.152v-22.4c0-0.635,0.517-1.152,1.152-1.152H30.08 M30.08,3.289H1.92C0.86,3.289,0,4.148,0,5.209
			v22.4c0,1.06,0.86,1.92,1.92,1.92h28.16c1.06,0,1.92-0.86,1.92-1.92v-22.4C32,4.148,31.14,3.289,30.08,3.289L30.08,3.289z"/>
	</g>
	<linearGradient id="SVGID_1_" gradientUnits="userSpaceOnUse" x1="16" y1="27.5022" x2="16" y2="5.3155">
		<stop  offset="0" style="stop-color:#00AEF9"/>
		<stop  offset="1" style="stop-color:#0092E1"/>
	</linearGradient>
	<path fill="url(#SVGID_1_)" d="M28.827,27.502H3.173c-0.633,0-1.147-0.513-1.147-1.147V6.462c0-0.633,0.513-1.147,1.147-1.147
		h25.653c0.633,0,1.147,0.513,1.147,1.147v19.893C29.973,26.989,29.46,27.502,28.827,27.502z"/>
	<g>
		<path fill="#FFFFFF" d="M8.453,18.185c-0.403-0.208-0.828-0.311-1.268-0.311c-0.673,0-1.213,0.292-1.623,0.879
			c-0.407,0.585-0.615,1.384-0.622,2.397h0.028c0.367-0.712,0.955-1.069,1.76-1.069c0.673,0,1.21,0.22,1.61,0.657
			c0.403,0.439,0.603,1.02,0.603,1.746c0,0.76-0.233,1.384-0.695,1.871c-0.463,0.489-1.055,0.733-1.773,0.733
			c-0.79,0-1.41-0.309-1.86-0.925c-0.45-0.617-0.675-1.492-0.675-2.627c0-1.371,0.295-2.461,0.885-3.269
			c0.59-0.807,1.368-1.211,2.333-1.211c0.55,0,0.985,0.075,1.298,0.225V18.185z M5.003,22.415c0,0.511,0.135,0.95,0.407,1.315
			c0.273,0.364,0.635,0.546,1.088,0.546c0.428,0,0.775-0.158,1.043-0.471c0.267-0.315,0.403-0.72,0.403-1.215
			c0-0.535-0.128-0.951-0.38-1.249c-0.252-0.298-0.61-0.446-1.075-0.446c-0.443,0-0.8,0.15-1.075,0.451
			C5.137,21.648,5.003,22.004,5.003,22.415z"/>
		<path fill="#FFFFFF" d="M14.775,24.959H10.32v-0.847h1.742V18.21l-1.787,0.516v-0.902l2.765-0.803v7.09h1.735V24.959z"/>
		<path fill="#FFFFFF" d="M15.855,21.225c0-1.371,0.228-2.409,0.683-3.112c0.455-0.705,1.112-1.056,1.977-1.056
			c1.645,0,2.467,1.328,2.467,3.984c0,1.311-0.232,2.314-0.695,3.007c-0.462,0.695-1.112,1.041-1.95,1.041
			c-0.787,0-1.4-0.329-1.832-0.988C16.072,23.441,15.855,22.484,15.855,21.225z M16.857,21.18c0,2.065,0.525,3.096,1.573,3.096
			c1.03,0,1.545-1.049,1.545-3.146c0-2.171-0.505-3.256-1.515-3.256C17.392,17.874,16.857,18.976,16.857,21.18z"/>
		<path fill="#FFFFFF" d="M28.535,24.959h-1.11l-0.793-2.127h-3.235l-0.75,2.127H21.54l2.96-7.772h1.075L28.535,24.959z
			 M26.322,21.954l-1.175-3.233c-0.037-0.103-0.077-0.284-0.12-0.541h-0.025c-0.038,0.234-0.08,0.415-0.125,0.541l-1.165,3.233
			H26.322z"/>
	</g>
	<polygon fill="#FDFEFD" points="26.183,8.332 22.435,5.235 22.435,7.04 16.764,7.04 16.764,9.44 22.435,9.44 22.435,11.429 	"/>
	<polygon fill="#FDFEFD" points="7.484,12.012 11.232,8.915 11.232,10.72 16.903,10.72 16.903,13.12 11.232,13.12 11.232,15.109 	
		"/>
	<g>
		<g>
			<path fill="#FFFFFF" d="M21.895,15.696v-0.679h2.075v0.679H21.895z"/>
			<path fill="#FFFFFF" d="M27.07,17.346h-0.675v-4.301c-0.163,0.155-0.375,0.31-0.638,0.465c-0.265,0.155-0.502,0.271-0.712,0.349
				v-0.653c0.378-0.177,0.708-0.392,0.99-0.645c0.282-0.253,0.482-0.498,0.6-0.735h0.435V17.346z"/>
		</g>
	</g>
</g>
</svg>
