<?xml version="1.0" encoding="utf-8"?>
<!-- Generator: Adobe Illustrator 18.0.0, SVG Export Plug-In . SVG Version: 6.00 Build 0)  -->
<!DOCTYPE svg PUBLIC "-//W3C//DTD SVG 1.1//EN" "http://www.w3.org/Graphics/SVG/1.1/DTD/svg11.dtd">
<svg version="1.1" id="图层_1" xmlns="http://www.w3.org/2000/svg" xmlns:xlink="http://www.w3.org/1999/xlink" x="0px" y="0px"
	 width="32px" height="32px" viewBox="0 0 32 32" enable-background="new 0 0 32 32" xml:space="preserve">
<g>
	<g>
		<path fill="#FFFFFF" d="M2.8,27.12c-0.794,0-1.44-0.646-1.44-1.44v-21c0-0.794,0.646-1.44,1.44-1.44h26.4
			c0.794,0,1.439,0.646,1.439,1.44v21c0,0.794-0.646,1.44-1.439,1.44H2.8z"/>
		<path fill="#AFAFAF" d="M29.2,3.6c0.596,0,1.08,0.484,1.08,1.08v21c0,0.596-0.484,1.08-1.08,1.08H2.8
			c-0.596,0-1.08-0.484-1.08-1.08v-21c0-0.596,0.484-1.08,1.08-1.08H29.2 M29.2,2.88H2.8C1.806,2.88,1,3.686,1,4.68v21
			c0,0.994,0.806,1.8,1.8,1.8h26.4c0.994,0,1.8-0.806,1.8-1.8v-21C31,3.686,30.194,2.88,29.2,2.88L29.2,2.88z"/>
	</g>
	<linearGradient id="SVGID_1_" gradientUnits="userSpaceOnUse" x1="16" y1="25.58" x2="16" y2="4.78">
		<stop  offset="0" style="stop-color:#2CA539"/>
		<stop  offset="1" style="stop-color:#009117"/>
	</linearGradient>
	<path fill="url(#SVGID_1_)" d="M28.025,25.58H3.975c-0.594,0-1.075-0.481-1.075-1.075V5.855c0-0.594,0.481-1.075,1.075-1.075h24.05
		c0.594,0,1.075,0.481,1.075,1.075v18.65C29.1,25.099,28.619,25.58,28.025,25.58z"/>
	<g>
		<path fill="#FFFFFF" d="M8.925,18.045c-0.379-0.195-0.776-0.292-1.189-0.292c-0.63,0-1.137,0.274-1.52,0.824
			c-0.382,0.548-0.577,1.297-0.584,2.248h0.025c0.345-0.668,0.895-1.002,1.651-1.002c0.629,0,1.133,0.206,1.509,0.616
			c0.376,0.411,0.565,0.956,0.565,1.637c0,0.712-0.218,1.297-0.652,1.754c-0.435,0.458-0.989,0.687-1.663,0.687
			c-0.741,0-1.322-0.289-1.743-0.867c-0.422-0.579-0.633-1.399-0.633-2.463c0-1.286,0.277-2.307,0.83-3.064
			c0.553-0.757,1.282-1.136,2.186-1.136c0.517,0,0.923,0.07,1.218,0.211V18.045z M5.69,22.011c0,0.479,0.128,0.891,0.383,1.233
			c0.255,0.341,0.595,0.512,1.018,0.512c0.401,0,0.728-0.148,0.979-0.442c0.251-0.295,0.376-0.675,0.376-1.139
			c0-0.502-0.118-0.892-0.355-1.171c-0.237-0.279-0.573-0.418-1.009-0.418c-0.414,0-0.75,0.141-1.007,0.423
			C5.818,21.291,5.69,21.625,5.69,22.011z"/>
		<path fill="#FFFFFF" d="M14.853,24.396h-4.177v-0.795h1.632v-5.532l-1.675,0.484v-0.846l2.591-0.752v6.647h1.628V24.396z"/>
		<path fill="#FFFFFF" d="M16.27,23.276c0.489,0.32,0.998,0.479,1.528,0.479c0.502,0,0.905-0.141,1.214-0.421
			c0.307-0.281,0.459-0.653,0.459-1.118c0-0.466-0.155-0.829-0.466-1.086c-0.314-0.257-0.765-0.386-1.357-0.386
			c-0.286,0-0.67,0.022-1.153,0.066v-3.702h3.584v0.814h-2.727v2.06c0.273-0.016,0.478-0.023,0.616-0.023
			c0.768,0,1.365,0.195,1.796,0.582c0.429,0.389,0.645,0.926,0.645,1.609c0,0.705-0.232,1.276-0.691,1.712
			c-0.462,0.436-1.099,0.654-1.91,0.654c-0.681,0-1.193-0.1-1.537-0.301V23.276z"/>
		<path fill="#FFFFFF" d="M22.026,24.396v-7.287h2.14c0.64,0,1.151,0.154,1.535,0.458c0.382,0.306,0.574,0.711,0.574,1.216
			c0,0.402-0.115,0.756-0.342,1.063c-0.227,0.308-0.539,0.526-0.938,0.654v0.019c0.495,0.057,0.891,0.244,1.186,0.563
			c0.298,0.319,0.445,0.722,0.445,1.212c0,0.627-0.225,1.134-0.675,1.521c-0.45,0.388-1.027,0.581-1.73,0.581H22.026z
			 M22.968,17.933v2.28h0.855c0.455,0,0.811-0.11,1.069-0.332c0.26-0.22,0.389-0.527,0.389-0.919c0-0.687-0.457-1.03-1.373-1.03
			H22.968z M22.968,21.032v2.541h1.127c0.492,0,0.874-0.114,1.141-0.341c0.267-0.227,0.403-0.544,0.403-0.948
			c0-0.834-0.567-1.252-1.699-1.252H22.968z"/>
	</g>
	<g>
		<polygon fill="#FDFEFD" points="25.547,8.808 22.033,5.905 22.033,7.597 16.717,7.597 16.717,9.847 22.033,9.847 22.033,11.711 		
			"/>
		<polygon fill="#FDFEFD" points="8.017,12.258 11.531,9.355 11.531,11.047 16.847,11.047 16.847,13.297 11.531,13.297 
			11.531,15.161 		"/>
	</g>
</g>
</svg>
