<?xml version="1.0" encoding="utf-8"?>
<!-- Generator: Adobe Illustrator 18.0.0, SVG Export Plug-In . SVG Version: 6.00 Build 0)  -->
<!DOCTYPE svg PUBLIC "-//W3C//DTD SVG 1.1//EN" "http://www.w3.org/Graphics/SVG/1.1/DTD/svg11.dtd">
<svg version="1.1" id="图层_1" xmlns="http://www.w3.org/2000/svg" xmlns:xlink="http://www.w3.org/1999/xlink" x="0px" y="0px"
	 width="42px" height="42px" viewBox="0 0 42 42" enable-background="new 0 0 42 42" xml:space="preserve">
<g>
	<g>
		<path fill="#FFFFFF" d="M3.65,40.47c-1.169,0-2.12-0.951-2.12-2.12V3.65c0-1.169,0.951-2.12,2.12-2.12H38.35
			c1.169,0,2.12,0.951,2.12,2.12V38.35c0,1.169-0.951,2.12-2.12,2.12H3.65z"/>
		<path fill="#AFAFAF" d="M38.35,2.06c0.877,0,1.59,0.713,1.59,1.59V38.35c0,0.877-0.713,1.59-1.59,1.59H3.65
			c-0.877,0-1.59-0.713-1.59-1.59V3.65c0-0.877,0.713-1.59,1.59-1.59H38.35 M38.35,1H3.65C2.187,1,1,2.187,1,3.65V38.35
			C1,39.813,2.187,41,3.65,41H38.35c1.464,0,2.65-1.187,2.65-2.65V3.65C41,2.187,39.813,1,38.35,1L38.35,1z"/>
	</g>
	<g>
		<linearGradient id="SVGID_1_" gradientUnits="userSpaceOnUse" x1="20.9994" y1="38.7147" x2="20.9994" y2="3.285">
			<stop  offset="0" style="stop-color:#00AEF9"/>
			<stop  offset="1" style="stop-color:#0092E1"/>
		</linearGradient>
		<path fill="url(#SVGID_1_)" d="M3.65,38.715c-0.201,0-0.366-0.165-0.366-0.366V3.651c0-0.201,0.165-0.366,0.366-0.366h34.7
			c0.201,0,0.364,0.165,0.364,0.366v34.699c0,0.201-0.163,0.366-0.364,0.366H3.65z"/>
	</g>
	<g>
		<path fill="#FFFFFF" d="M12.996,28.132c-0.429-0.238-0.878-0.356-1.347-0.356c-0.713,0-1.286,0.335-1.719,1.004
			c-0.433,0.67-0.651,1.584-0.658,2.743h0.026c0.391-0.814,1.013-1.222,1.868-1.222c0.713,0,1.283,0.25,1.707,0.75
			c0.426,0.502,0.639,1.167,0.639,1.997c0,0.868-0.246,1.581-0.736,2.139c-0.492,0.559-1.12,0.838-1.882,0.838
			c-0.836,0-1.494-0.353-1.972-1.058c-0.476-0.705-0.715-1.707-0.715-3.003c0-1.568,0.313-2.814,0.94-3.737
			c0.625-0.924,1.449-1.386,2.472-1.386c0.585,0,1.044,0.086,1.378,0.258V28.132z M9.336,32.967c0,0.585,0.144,1.087,0.433,1.503
			c0.289,0.417,0.672,0.625,1.151,0.625c0.455,0,0.824-0.18,1.108-0.54c0.284-0.359,0.426-0.821,0.426-1.387
			c0-0.612-0.135-1.089-0.402-1.429c-0.268-0.341-0.649-0.51-1.141-0.51c-0.469,0-0.848,0.172-1.139,0.516
			C9.48,32.09,9.336,32.497,9.336,32.967z"/>
		<path fill="#FFFFFF" d="M14.956,34.671c0.452,0.283,0.942,0.425,1.468,0.425c0.739,0,1.309-0.314,1.716-0.941
			c0.407-0.627,0.608-1.518,0.608-2.673c-0.007,0.007-0.014,0.007-0.021,0c-0.36,0.742-0.971,1.113-1.825,1.113
			c-0.691,0-1.264-0.256-1.719-0.768c-0.455-0.513-0.679-1.178-0.679-1.997c0-0.871,0.246-1.587,0.743-2.148
			c0.497-0.56,1.141-0.84,1.932-0.84c0.819,0,1.461,0.347,1.922,1.042c0.462,0.694,0.691,1.705,0.691,3.031
			c0,1.641-0.298,2.902-0.895,3.787c-0.594,0.883-1.42,1.325-2.474,1.325c-0.578,0-1.068-0.102-1.468-0.304V34.671z M15.557,29.686
			c0,0.597,0.142,1.07,0.424,1.419c0.284,0.35,0.677,0.526,1.177,0.526c0.433,0,0.798-0.16,1.091-0.479
			c0.294-0.32,0.443-0.707,0.443-1.161c0-0.639-0.147-1.167-0.44-1.586c-0.291-0.419-0.677-0.629-1.158-0.629
			c-0.443,0-0.81,0.182-1.101,0.546C15.702,28.685,15.557,29.139,15.557,29.686z"/>
		<path fill="#FFFFFF" d="M20.846,31.607c0-1.567,0.241-2.753,0.724-3.559c0.483-0.805,1.181-1.207,2.098-1.207
			c1.745,0,2.618,1.519,2.618,4.555c0,1.5-0.246,2.646-0.739,3.439c-0.49,0.794-1.179,1.191-2.067,1.191
			c-0.838,0-1.487-0.376-1.946-1.13C21.076,34.142,20.846,33.045,20.846,31.607z M21.911,31.556c0,2.359,0.554,3.539,1.664,3.539
			c1.094,0,1.641-1.199,1.641-3.597c0-2.481-0.535-3.723-1.607-3.723C22.477,27.776,21.911,29.036,21.911,31.556z"/>
		<path fill="#FFFFFF" d="M32.544,35.876h-1.046v-0.998h-0.021c-0.395,0.765-0.999,1.147-1.816,1.147
			c-1.394,0-2.09-0.898-2.09-2.696v-3.797h1.032v3.632c0,1.289,0.457,1.933,1.373,1.933c0.455,0,0.821-0.181,1.101-0.542
			c0.279-0.361,0.421-0.818,0.421-1.368v-3.654h1.046V35.876z"/>
	</g>
	<g>
		<g>
			<polygon fill="#FDFEFD" points="11.871,20.574 12.257,17.077 15.788,20.229 			"/>
			<polygon fill="#FDFEFD" points="19.259,14.932 14.165,19.478 13.098,18.525 18.191,13.979 			"/>
		</g>
		<g>
			<polygon fill="#FDFEFD" points="27.724,6.423 23.806,6.768 27.338,9.92 			"/>
			<polygon fill="#FDFEFD" points="21.404,13.018 26.497,8.472 25.429,7.519 20.336,12.065 			"/>
		</g>
		<g>
			<polygon fill="#FDFEFD" points="27.724,6.423 27.338,9.92 23.806,6.768 			"/>
			<polygon fill="#FDFEFD" points="20.336,12.065 25.429,7.519 26.497,8.472 21.404,13.018 			"/>
		</g>
		<g>
			<polygon fill="#FDFEFD" points="11.871,20.574 15.788,20.229 12.257,17.077 			"/>
			<polygon fill="#FDFEFD" points="18.191,13.979 13.098,18.525 14.165,19.478 19.259,14.932 			"/>
		</g>
		<g>
			<polygon fill="#FDFEFD" points="20.87,14.456 24.788,14.801 21.256,17.953 			"/>
			<polygon fill="#FDFEFD" points="27.19,21.05 22.097,16.504 23.165,15.551 28.258,20.097 			"/>
		</g>
		<g>
			<polygon fill="#FDFEFD" points="18.725,12.541 18.339,9.044 14.807,12.196 			"/>
			<polygon fill="#FDFEFD" points="11.337,6.9 16.43,11.446 17.498,10.493 12.404,5.947 			"/>
		</g>
	</g>
	<g>
		<g>
			<path fill="#FFFFFF" d="M29.407,27.97h-2.926v-0.6h1.143v-4.176l-1.172,0.366V22.92l1.813-0.568v5.018h1.141V27.97z"/>
			<path fill="#FFFFFF" d="M30.115,25.328c0-0.971,0.149-1.705,0.45-2.204c0.298-0.497,0.732-0.747,1.297-0.747
				c1.08,0,1.622,0.94,1.622,2.82c0,0.928-0.154,1.638-0.457,2.129c-0.305,0.491-0.732,0.736-1.281,0.736
				c-0.518,0-0.919-0.233-1.203-0.7C30.257,26.896,30.115,26.218,30.115,25.328z M30.775,25.296c0,1.461,0.343,2.191,1.03,2.191
				c0.677,0,1.016-0.742,1.016-2.227c0-1.536-0.331-2.305-0.994-2.305C31.125,22.955,30.775,23.736,30.775,25.296z"/>
		</g>
	</g>
</g>
</svg>
