<?xml version="1.0" encoding="utf-8"?>
<!-- Generator: Adobe Illustrator 18.0.0, SVG Export Plug-In . SVG Version: 6.00 Build 0)  -->
<!DOCTYPE svg PUBLIC "-//W3C//DTD SVG 1.1//EN" "http://www.w3.org/Graphics/SVG/1.1/DTD/svg11.dtd">
<svg version="1.1" id="图层_1" xmlns="http://www.w3.org/2000/svg" xmlns:xlink="http://www.w3.org/1999/xlink" x="0px" y="0px"
	 width="36px" height="36px" viewBox="0 0 36 36" enable-background="new 0 0 36 36" xml:space="preserve">
<g>
	<g>
		<path fill="#FFFFFF" d="M2.819,35.036c-1.023,0-1.855-0.832-1.855-1.855V2.819c0-1.023,0.832-1.855,1.855-1.855h30.362
			c1.023,0,1.855,0.832,1.855,1.855v30.362c0,1.023-0.832,1.855-1.855,1.855H2.819z"/>
		<path fill="#AFAFAF" d="M33.181,1.428c0.767,0,1.391,0.624,1.391,1.391v30.362c0,0.767-0.624,1.391-1.391,1.391H2.819
			c-0.767,0-1.391-0.624-1.391-1.391V2.819c0-0.767,0.624-1.391,1.391-1.391H33.181 M33.181,0.5H2.819
			C1.538,0.5,0.5,1.538,0.5,2.819v30.362c0,1.281,1.038,2.319,2.319,2.319h30.362c1.281,0,2.319-1.038,2.319-2.319V2.819
			C35.5,1.538,34.462,0.5,33.181,0.5L33.181,0.5z"/>
	</g>
	<g>
		<linearGradient id="SVGID_1_" gradientUnits="userSpaceOnUse" x1="17.9995" y1="33.5004" x2="17.9995" y2="2.4994">
			<stop  offset="0" style="stop-color:#FF7F01"/>
			<stop  offset="1" style="stop-color:#F05800"/>
		</linearGradient>
		<path fill="url(#SVGID_1_)" d="M2.819,33.5c-0.176,0-0.32-0.144-0.32-0.32V2.819c0-0.176,0.144-0.32,0.32-0.32h30.363
			c0.176,0,0.319,0.144,0.319,0.32v30.361c0,0.176-0.143,0.32-0.319,0.32H2.819z"/>
	</g>
	<g>
		<path fill="#FFFFFF" d="M9.899,22.697c-0.443-0.244-0.906-0.366-1.389-0.366c-0.735,0-1.326,0.344-1.772,1.035
			S6.065,25,6.058,26.193h0.027c0.403-0.84,1.045-1.26,1.926-1.26c0.736,0,1.323,0.259,1.761,0.774
			c0.439,0.518,0.659,1.204,0.659,2.061c0,0.894-0.254,1.631-0.76,2.205c-0.507,0.576-1.154,0.864-1.94,0.864
			c-0.863,0-1.542-0.364-2.034-1.091S4.96,27.985,4.96,26.65c0-1.619,0.322-2.903,0.968-3.855s1.495-1.428,2.549-1.428
			c0.604,0,1.078,0.088,1.422,0.266V22.697z M6.124,27.685c0,0.603,0.149,1.121,0.447,1.55s0.695,0.645,1.188,0.645
			c0.469,0,0.85-0.186,1.143-0.557c0.292-0.371,0.438-0.847,0.438-1.431c0-0.632-0.138-1.123-0.414-1.475
			c-0.277-0.352-0.669-0.525-1.178-0.525c-0.482,0-0.874,0.176-1.174,0.532C6.273,26.779,6.124,27.199,6.124,27.685z"/>
		<path fill="#FFFFFF" d="M11.876,29.277c0.57,0.4,1.165,0.603,1.783,0.603c0.585,0,1.057-0.178,1.416-0.53
			c0.359-0.354,0.537-0.823,0.537-1.406c0-0.586-0.182-1.042-0.546-1.365c-0.364-0.325-0.891-0.486-1.583-0.486
			c-0.333,0-0.781,0.027-1.344,0.083v-4.656h4.181v1.023h-3.182v2.59c0.319-0.02,0.558-0.029,0.719-0.029
			c0.896,0,1.595,0.244,2.096,0.735c0.502,0.488,0.752,1.162,0.752,2.021c0,0.889-0.269,1.606-0.807,2.153
			c-0.537,0.549-1.281,0.823-2.228,0.823c-0.795,0-1.393-0.125-1.794-0.378V29.277z"/>
		<path fill="#FFFFFF" d="M17.995,26.281c0-1.616,0.249-2.839,0.747-3.669c0.497-0.83,1.218-1.245,2.161-1.245
			c1.802,0,2.7,1.565,2.7,4.697c0,1.545-0.254,2.727-0.759,3.545c-0.508,0.82-1.218,1.228-2.131,1.228
			c-0.864,0-1.533-0.388-2.007-1.165S17.995,27.766,17.995,26.281z M19.093,26.23c0,2.432,0.573,3.65,1.718,3.65
			c1.128,0,1.689-1.238,1.689-3.711c0-2.559-0.552-3.838-1.658-3.838C19.676,22.331,19.093,23.63,19.093,26.23z"/>
		<path fill="#FFFFFF" d="M31.484,26.95c0,2.593-1.089,3.887-3.269,3.887c-2.09,0-3.135-1.25-3.135-3.75v-5.566h1.099v5.513
			c0,1.833,0.713,2.751,2.139,2.751c1.379,0,2.07-0.889,2.07-2.661v-5.603h1.096V26.95z"/>
	</g>
	<g>
		<g>
			<polygon fill="#FDFEFD" points="11.899,16.596 13.329,12.797 15.905,17.257 			"/>
			
				<rect x="13.737" y="13.093" transform="matrix(0.866 -0.5 0.5 0.866 -4.7095 10.1675)" fill="#FDFEFD" width="5.761" height="1.557"/>
		</g>
		<g>
			<polygon fill="#FDFEFD" points="7.717,12.037 9.148,8.238 11.723,12.698 			"/>
			
				<rect x="9.556" y="8.534" transform="matrix(0.866 -0.5 0.5 0.866 -2.9903 7.4657)" fill="#FDFEFD" width="5.761" height="1.557"/>
		</g>
		<g>
			<polygon fill="#FDFEFD" points="27.765,10.328 23.76,9.667 26.335,14.127 			"/>
			
				<rect x="20.166" y="12.274" transform="matrix(-0.866 0.5 -0.5 -0.866 49.5315 12.8328)" fill="#FDFEFD" width="5.761" height="1.557"/>
		</g>
		<g>
			<polygon fill="#FDFEFD" points="23.583,5.769 19.578,5.108 22.153,9.568 			"/>
			
				<rect x="15.984" y="7.715" transform="matrix(-0.866 0.5 -0.5 -0.866 39.4485 6.4163)" fill="#FDFEFD" width="5.761" height="1.557"/>
		</g>
	</g>
	<g>
		<g>
			<path fill="#FFFFFF" d="M27.539,17.384l0.61-0.088c0.071,0.374,0.19,0.643,0.359,0.807c0.168,0.166,0.376,0.248,0.618,0.248
				c0.288,0,0.53-0.107,0.728-0.322s0.298-0.481,0.298-0.798c0-0.303-0.093-0.552-0.276-0.748s-0.415-0.295-0.698-0.295
				c-0.117,0-0.261,0.024-0.432,0.073l0.068-0.579c0.039,0.005,0.073,0.007,0.098,0.007c0.261,0,0.496-0.073,0.703-0.22
				c0.21-0.146,0.313-0.372,0.313-0.677c0-0.242-0.076-0.442-0.227-0.601s-0.347-0.238-0.588-0.238
				c-0.237,0-0.435,0.081-0.593,0.242s-0.261,0.403-0.308,0.725l-0.61-0.117c0.076-0.442,0.244-0.784,0.51-1.028
				c0.264-0.242,0.593-0.364,0.989-0.364c0.271,0,0.52,0.063,0.75,0.188c0.229,0.127,0.405,0.298,0.525,0.515
				c0.122,0.217,0.183,0.448,0.183,0.692c0,0.232-0.059,0.443-0.173,0.634c-0.117,0.19-0.288,0.342-0.513,0.454
				c0.293,0.073,0.522,0.225,0.686,0.457c0.161,0.229,0.244,0.519,0.244,0.865c0,0.469-0.159,0.865-0.476,1.193
				c-0.317,0.325-0.718,0.488-1.204,0.488c-0.437,0-0.798-0.14-1.089-0.421C27.744,18.194,27.58,17.83,27.539,17.384z"/>
		</g>
	</g>
</g>
</svg>
