<?xml version="1.0" encoding="utf-8"?>
<!-- Generator: Adobe Illustrator 18.0.0, SVG Export Plug-In . SVG Version: 6.00 Build 0)  -->
<!DOCTYPE svg PUBLIC "-//W3C//DTD SVG 1.1//EN" "http://www.w3.org/Graphics/SVG/1.1/DTD/svg11.dtd">
<svg version="1.1" id="图层_1" xmlns="http://www.w3.org/2000/svg" xmlns:xlink="http://www.w3.org/1999/xlink" x="0px" y="0px"
	 width="32px" height="32px" viewBox="0 0 32 32" enable-background="new 0 0 32 32" xml:space="preserve">
<g>
	<g>
		<path fill="#FFFFFF" d="M1.92,28.736c-0.847,0-1.536-0.689-1.536-1.536V4.8c0-0.847,0.689-1.536,1.536-1.536h28.16
			c0.847,0,1.536,0.689,1.536,1.536v22.4c0,0.847-0.689,1.536-1.536,1.536H1.92z"/>
		<path fill="#AFAFAF" d="M30.08,3.648c0.635,0,1.152,0.517,1.152,1.152v22.4c0,0.635-0.517,1.152-1.152,1.152H1.92
			c-0.635,0-1.152-0.517-1.152-1.152V4.8c0-0.635,0.517-1.152,1.152-1.152H30.08 M30.08,2.88H1.92C0.86,2.88,0,3.74,0,4.8v22.4
			c0,1.06,0.86,1.92,1.92,1.92h28.16c1.06,0,1.92-0.86,1.92-1.92V4.8C32,3.74,31.14,2.88,30.08,2.88L30.08,2.88z"/>
	</g>
	<linearGradient id="SVGID_1_" gradientUnits="userSpaceOnUse" x1="16" y1="27.0933" x2="16" y2="4.9067">
		<stop  offset="0" style="stop-color:#00AEF9"/>
		<stop  offset="1" style="stop-color:#0092E1"/>
	</linearGradient>
	<path fill="url(#SVGID_1_)" d="M28.827,27.093H3.173c-0.633,0-1.147-0.513-1.147-1.147V6.053c0-0.633,0.513-1.147,1.147-1.147
		h25.653c0.633,0,1.147,0.513,1.147,1.147v19.893C29.973,26.58,29.46,27.093,28.827,27.093z"/>
	<g>
		<path fill="#FFFFFF" d="M8.453,17.776c-0.403-0.208-0.828-0.311-1.268-0.311c-0.673,0-1.213,0.292-1.623,0.879
			c-0.407,0.585-0.615,1.384-0.622,2.398h0.028c0.367-0.713,0.955-1.069,1.76-1.069c0.673,0,1.21,0.22,1.61,0.657
			c0.403,0.439,0.603,1.02,0.603,1.746c0,0.76-0.233,1.384-0.695,1.871C7.782,24.436,7.19,24.68,6.472,24.68
			c-0.79,0-1.41-0.309-1.86-0.925c-0.45-0.617-0.675-1.492-0.675-2.627c0-1.371,0.295-2.461,0.885-3.269
			c0.59-0.807,1.368-1.211,2.333-1.211c0.55,0,0.985,0.075,1.298,0.225V17.776z M5.003,22.006c0,0.511,0.135,0.95,0.407,1.315
			c0.273,0.364,0.635,0.546,1.088,0.546c0.428,0,0.775-0.157,1.043-0.471c0.267-0.315,0.403-0.72,0.403-1.215
			c0-0.535-0.128-0.951-0.38-1.249c-0.252-0.298-0.61-0.446-1.075-0.446c-0.443,0-0.8,0.15-1.075,0.451
			C5.137,21.239,5.003,21.595,5.003,22.006z"/>
		<path fill="#FFFFFF" d="M14.775,24.55H10.32v-0.847h1.742v-5.901l-1.787,0.516v-0.902l2.765-0.803v7.09h1.735V24.55z"/>
		<path fill="#FFFFFF" d="M15.855,20.816c0-1.371,0.228-2.409,0.683-3.112c0.455-0.705,1.112-1.056,1.977-1.056
			c1.645,0,2.467,1.327,2.467,3.984c0,1.311-0.232,2.314-0.695,3.007c-0.462,0.695-1.112,1.041-1.95,1.041
			c-0.787,0-1.4-0.329-1.832-0.988C16.072,23.032,15.855,22.075,15.855,20.816z M16.857,20.771c0,2.065,0.525,3.096,1.573,3.096
			c1.03,0,1.545-1.049,1.545-3.146c0-2.171-0.505-3.256-1.515-3.256C17.392,17.465,16.857,18.567,16.857,20.771z"/>
		<path fill="#FFFFFF" d="M28.535,24.55h-1.11l-0.793-2.127h-3.235l-0.75,2.127H21.54l2.96-7.772h1.075L28.535,24.55z
			 M26.322,21.545l-1.175-3.233c-0.037-0.102-0.077-0.284-0.12-0.541h-0.025c-0.038,0.234-0.08,0.415-0.125,0.541l-1.165,3.233
			H26.322z"/>
	</g>
	<polygon fill="#FDFEFD" points="26.183,7.923 22.435,4.826 22.435,6.631 16.764,6.631 16.764,9.031 22.435,9.031 22.435,11.02 	"/>
	<polygon fill="#FDFEFD" points="7.484,11.603 11.232,8.506 11.232,10.311 16.903,10.311 16.903,12.711 11.232,12.711 11.232,14.7 	
		"/>
</g>
</svg>
