<?xml version="1.0" encoding="utf-8"?>
<!-- Generator: Adobe Illustrator 18.0.0, SVG Export Plug-In . SVG Version: 6.00 Build 0)  -->
<!DOCTYPE svg PUBLIC "-//W3C//DTD SVG 1.1//EN" "http://www.w3.org/Graphics/SVG/1.1/DTD/svg11.dtd">
<svg version="1.1" id="图层_1" xmlns="http://www.w3.org/2000/svg" xmlns:xlink="http://www.w3.org/1999/xlink" x="0px" y="0px"
	 width="36px" height="36px" viewBox="0 0 36 36" enable-background="new 0 0 36 36" xml:space="preserve">
<g>
	<path fill="#FFFFFF" d="M2.819,35.036c-1.023,0-1.855-0.832-1.855-1.855V2.819c0-1.023,0.832-1.855,1.855-1.855h30.361
		c1.023,0,1.855,0.832,1.855,1.855v30.362c0,1.023-0.832,1.855-1.855,1.855H2.819z"/>
	<path fill="#AFAFAF" d="M33.181,1.428c0.767,0,1.391,0.624,1.391,1.391v30.362c0,0.767-0.624,1.391-1.391,1.391H2.819
		c-0.767,0-1.391-0.624-1.391-1.391V2.819c0-0.767,0.624-1.391,1.391-1.391H33.181 M33.181,0.5H2.819C1.538,0.5,0.5,1.538,0.5,2.819
		v30.362c0,1.281,1.038,2.319,2.319,2.319h30.362c1.281,0,2.319-1.038,2.319-2.319V2.819C35.5,1.538,34.462,0.5,33.181,0.5
		L33.181,0.5z"/>
</g>
<g>
	<linearGradient id="SVGID_1_" gradientUnits="userSpaceOnUse" x1="17.9995" y1="33.5004" x2="17.9995" y2="2.4994">
		<stop  offset="0" style="stop-color:#00AEF9"/>
		<stop  offset="1" style="stop-color:#0092E1"/>
	</linearGradient>
	<path fill="url(#SVGID_1_)" d="M2.819,33.5c-0.176,0-0.32-0.144-0.32-0.32V2.819c0-0.176,0.144-0.32,0.32-0.32h30.363
		c0.176,0,0.319,0.144,0.319,0.32v30.361c0,0.176-0.143,0.32-0.319,0.32H2.819z"/>
</g>
<g>
	<path fill="#FFFFFF" d="M10.941,22.696c-0.442-0.245-0.905-0.367-1.389-0.367c-0.735,0-1.326,0.345-1.772,1.035
		c-0.446,0.69-0.673,1.633-0.681,2.828h0.027c0.402-0.84,1.045-1.26,1.927-1.26c0.735,0,1.322,0.258,1.762,0.775
		c0.438,0.517,0.658,1.203,0.658,2.059c0,0.896-0.253,1.631-0.76,2.207c-0.507,0.576-1.153,0.864-1.94,0.864
		c-0.863,0-1.541-0.364-2.033-1.091c-0.492-0.728-0.738-1.76-0.738-3.097c0-1.617,0.323-2.901,0.969-3.854s1.495-1.429,2.549-1.429
		c0.604,0,1.078,0.089,1.422,0.266V22.696z M7.166,27.683c0,0.604,0.148,1.12,0.447,1.55c0.298,0.43,0.693,0.645,1.188,0.645
		c0.469,0,0.849-0.185,1.142-0.556c0.293-0.371,0.439-0.848,0.439-1.431c0-0.631-0.139-1.122-0.415-1.473
		c-0.275-0.351-0.668-0.527-1.177-0.527c-0.483,0-0.874,0.178-1.175,0.533C7.315,26.778,7.166,27.198,7.166,27.683z"/>
	<path fill="#FFFFFF" d="M12.73,29.15c0.581,0.485,1.238,0.728,1.97,0.728c0.586,0,1.049-0.155,1.392-0.464
		c0.342-0.31,0.513-0.725,0.513-1.245c0-1.16-0.77-1.739-2.311-1.739h-0.708v-0.958h0.676c1.364,0,2.047-0.544,2.047-1.633
		c0-1.005-0.521-1.508-1.564-1.508c-0.597,0-1.158,0.217-1.685,0.651v-1.095c0.556-0.347,1.205-0.521,1.948-0.521
		c0.725,0,1.306,0.204,1.745,0.612s0.658,0.938,0.658,1.588c0,1.199-0.566,1.97-1.701,2.313v0.024
		c0.615,0.071,1.101,0.305,1.457,0.701c0.357,0.396,0.535,0.891,0.535,1.482c0,0.825-0.275,1.489-0.826,1.994
		s-1.283,0.757-2.197,0.757c-0.806,0-1.455-0.162-1.948-0.485V29.15z"/>
	<path fill="#FFFFFF" d="M19.036,26.281c0-1.617,0.249-2.84,0.747-3.671c0.497-0.83,1.218-1.245,2.162-1.245
		c1.8,0,2.7,1.566,2.7,4.697c0,1.546-0.254,2.728-0.76,3.546c-0.507,0.818-1.218,1.228-2.133,1.228
		c-0.863,0-1.532-0.388-2.006-1.166C19.273,28.894,19.036,27.764,19.036,26.281z M20.134,26.228c0,2.434,0.573,3.65,1.718,3.65
		c1.127,0,1.69-1.236,1.69-3.709c0-2.56-0.552-3.839-1.657-3.839C20.718,22.33,20.134,23.629,20.134,26.228z"/>
	<path fill="#FFFFFF" d="M30.797,30.683h-4.571v-9.164h4.38v1.053h-3.282v2.934h3.04v1.047h-3.04v3.083h3.474V30.683z"/>
</g>
<g>
	<g>
		<polygon fill="#FDFEFD" points="11.899,16.596 13.329,12.797 15.905,17.257 		"/>
		
			<rect x="13.737" y="13.093" transform="matrix(0.866 -0.5 0.5 0.866 -4.7095 10.1675)" fill="#FDFEFD" width="5.761" height="1.557"/>
	</g>
	<g>
		<polygon fill="#FDFEFD" points="7.717,12.037 9.148,8.238 11.723,12.698 		"/>
		
			<rect x="9.556" y="8.534" transform="matrix(0.866 -0.5 0.5 0.866 -2.9903 7.4658)" fill="#FDFEFD" width="5.761" height="1.557"/>
	</g>
	<g>
		<polygon fill="#FDFEFD" points="27.765,10.328 23.76,9.667 26.335,14.127 		"/>
		
			<rect x="20.166" y="12.274" transform="matrix(-0.866 0.5 -0.5 -0.866 49.5315 12.8328)" fill="#FDFEFD" width="5.761" height="1.557"/>
	</g>
	<g>
		<polygon fill="#FDFEFD" points="23.583,5.769 19.578,5.108 22.153,9.568 		"/>
		
			<rect x="15.984" y="7.715" transform="matrix(-0.866 0.5 -0.5 -0.866 39.4485 6.4163)" fill="#FDFEFD" width="5.761" height="1.557"/>
	</g>
</g>
</svg>
