<?xml version="1.0" encoding="utf-8"?>
<!-- Generator: Adobe Illustrator 18.0.0, SVG Export Plug-In . SVG Version: 6.00 Build 0)  -->
<!DOCTYPE svg PUBLIC "-//W3C//DTD SVG 1.1//EN" "http://www.w3.org/Graphics/SVG/1.1/DTD/svg11.dtd">
<svg version="1.1" id="图层_1" xmlns="http://www.w3.org/2000/svg" xmlns:xlink="http://www.w3.org/1999/xlink" x="0px" y="0px"
	 width="32px" height="32px" viewBox="0 0 32 32" enable-background="new 0 0 32 32" xml:space="preserve">
<g>
	<g>
		<path fill="#FFFFFF" d="M2.8,27.12c-0.794,0-1.44-0.646-1.44-1.44v-21c0-0.794,0.646-1.44,1.44-1.44h26.4
			c0.794,0,1.44,0.646,1.44,1.44v21c0,0.794-0.646,1.44-1.44,1.44H2.8z"/>
		<path fill="#AFAFAF" d="M29.2,3.6c0.596,0,1.08,0.484,1.08,1.08v21c0,0.596-0.484,1.08-1.08,1.08H2.8
			c-0.596,0-1.08-0.484-1.08-1.08v-21c0-0.596,0.484-1.08,1.08-1.08H29.2 M29.2,2.88H2.8C1.806,2.88,1,3.686,1,4.68v21
			c0,0.994,0.806,1.8,1.8,1.8h26.4c0.994,0,1.8-0.806,1.8-1.8v-21C31,3.686,30.194,2.88,29.2,2.88L29.2,2.88z"/>
	</g>
	<path fill="#C4C4C4" d="M28.025,25.58H3.975c-0.594,0-1.075-0.481-1.075-1.075V5.855c0-0.594,0.481-1.075,1.075-1.075h24.05
		c0.594,0,1.075,0.481,1.075,1.075v18.65C29.1,25.099,28.619,25.58,28.025,25.58z"/>
	<g>
		<path fill="#FFFFFF" d="M8.924,18.045c-0.379-0.195-0.776-0.292-1.189-0.292c-0.63,0-1.137,0.274-1.52,0.824
			c-0.382,0.548-0.577,1.297-0.584,2.248h0.025C6,20.157,6.551,19.823,7.307,19.823c0.629,0,1.133,0.206,1.509,0.616
			c0.376,0.411,0.565,0.956,0.565,1.637c0,0.712-0.218,1.297-0.652,1.754c-0.435,0.458-0.989,0.687-1.663,0.687
			c-0.741,0-1.322-0.289-1.743-0.867c-0.422-0.579-0.633-1.399-0.633-2.463c0-1.286,0.277-2.307,0.83-3.064
			c0.553-0.757,1.282-1.136,2.186-1.136c0.517,0,0.923,0.07,1.218,0.211V18.045z M5.689,22.011c0,0.479,0.128,0.891,0.383,1.233
			c0.255,0.341,0.595,0.512,1.018,0.512c0.401,0,0.728-0.148,0.979-0.442c0.251-0.295,0.376-0.675,0.376-1.139
			c0-0.502-0.118-0.892-0.355-1.171c-0.237-0.279-0.573-0.418-1.009-0.418c-0.414,0-0.75,0.141-1.007,0.423
			C5.816,21.291,5.689,21.625,5.689,22.011z"/>
		<path fill="#FFFFFF" d="M14.852,24.396h-4.177v-0.795h1.632v-5.532l-1.675,0.484v-0.846l2.591-0.752v6.647h1.628V24.396z"/>
		<path fill="#FFFFFF" d="M15.863,20.895c0-1.286,0.213-2.258,0.64-2.918c0.427-0.661,1.044-0.99,1.854-0.99
			c1.542,0,2.314,1.245,2.314,3.735c0,1.229-0.218,2.169-0.652,2.82c-0.435,0.652-1.044,0.976-1.828,0.976
			c-0.739,0-1.313-0.308-1.719-0.926C16.067,22.973,15.863,22.075,15.863,20.895z M16.804,20.853c0,1.936,0.491,2.903,1.473,2.903
			c0.966,0,1.448-0.983,1.448-2.95c0-2.036-0.473-3.053-1.42-3.053C17.304,17.753,16.804,18.787,16.804,20.853z"/>
		<path fill="#FFFFFF" d="M27.75,24.396h-1.039l-0.743-1.995h-3.034l-0.702,1.995h-1.039l2.776-7.287h1.007L27.75,24.396z
			 M25.676,21.578l-1.102-3.03c-0.034-0.096-0.071-0.266-0.113-0.507h-0.023c-0.034,0.219-0.074,0.389-0.117,0.507l-1.092,3.03
			H25.676z"/>
	</g>
	<polygon fill="#FDFEFD" points="25.547,8.808 22.033,5.905 22.033,7.597 16.717,7.597 16.717,9.847 22.033,9.847 22.033,11.711 	
		"/>
	<polygon fill="#FDFEFD" points="8.017,12.258 11.53,9.355 11.53,11.047 16.847,11.047 16.847,13.297 11.53,13.297 11.53,15.161 	
		"/>
</g>
</svg>
