<?xml version="1.0" encoding="utf-8"?>
<!-- Generator: Adobe Illustrator 18.0.0, SVG Export Plug-In . SVG Version: 6.00 Build 0)  -->
<!DOCTYPE svg PUBLIC "-//W3C//DTD SVG 1.1//EN" "http://www.w3.org/Graphics/SVG/1.1/DTD/svg11.dtd">
<svg version="1.1" id="图层_1" xmlns="http://www.w3.org/2000/svg" xmlns:xlink="http://www.w3.org/1999/xlink" x="0px" y="0px"
	 width="42px" height="42px" viewBox="0 0 42 42" enable-background="new 0 0 42 42" xml:space="preserve">
<g>
	<g>
		<path fill="#FFFFFF" d="M3.65,40.47c-1.169,0-2.12-0.951-2.12-2.12V3.65c0-1.169,0.951-2.12,2.12-2.12H38.35
			c1.169,0,2.12,0.951,2.12,2.12V38.35c0,1.169-0.951,2.12-2.12,2.12H3.65z"/>
		<path fill="#AFAFAF" d="M38.35,2.06c0.877,0,1.59,0.713,1.59,1.59V38.35c0,0.877-0.713,1.59-1.59,1.59H3.65
			c-0.877,0-1.59-0.713-1.59-1.59V3.65c0-0.877,0.713-1.59,1.59-1.59H38.35 M38.35,1H3.65C2.187,1,1,2.187,1,3.65V38.35
			C1,39.813,2.187,41,3.65,41H38.35c1.464,0,2.65-1.187,2.65-2.65V3.65C41,2.187,39.813,1,38.35,1L38.35,1z"/>
	</g>
	<g>
		<path fill="#C4C4C4" d="M3.65,38.715c-0.201,0-0.366-0.165-0.366-0.366V3.651c0-0.201,0.165-0.366,0.366-0.366h34.7
			c0.201,0,0.364,0.165,0.364,0.366v34.699c0,0.201-0.163,0.366-0.364,0.366H3.65z"/>
	</g>
	<g>
		<path fill="#FFFFFF" d="M12.996,28.132c-0.43-0.238-0.878-0.356-1.347-0.356c-0.713,0-1.286,0.335-1.719,1.004
			c-0.433,0.67-0.652,1.584-0.659,2.743h0.026c0.391-0.814,1.013-1.222,1.868-1.222c0.714,0,1.283,0.25,1.708,0.75
			c0.426,0.502,0.639,1.167,0.639,1.997c0,0.868-0.246,1.581-0.737,2.139c-0.491,0.559-1.119,0.838-1.881,0.838
			c-0.837,0-1.495-0.353-1.972-1.058c-0.477-0.705-0.715-1.707-0.715-3.003c0-1.568,0.313-2.814,0.939-3.737
			c0.626-0.924,1.45-1.386,2.472-1.386c0.586,0,1.045,0.086,1.379,0.258V28.132z M9.335,32.967c0,0.585,0.144,1.087,0.433,1.503
			c0.289,0.417,0.674,0.625,1.152,0.625c0.455,0,0.824-0.18,1.108-0.54c0.283-0.359,0.425-0.821,0.425-1.387
			c0-0.612-0.134-1.089-0.401-1.429c-0.269-0.341-0.649-0.51-1.142-0.51c-0.468,0-0.848,0.172-1.139,0.516
			C9.479,32.09,9.335,32.497,9.335,32.967z"/>
		<path fill="#FFFFFF" d="M14.955,34.671c0.453,0.283,0.943,0.425,1.469,0.425c0.737,0,1.309-0.314,1.715-0.941
			c0.407-0.627,0.61-1.518,0.61-2.673c-0.007,0.007-0.014,0.007-0.021,0c-0.361,0.742-0.971,1.113-1.825,1.113
			c-0.691,0-1.264-0.256-1.719-0.768c-0.455-0.513-0.681-1.178-0.681-1.997c0-0.871,0.247-1.587,0.745-2.148
			c0.497-0.56,1.141-0.84,1.932-0.84c0.819,0,1.46,0.347,1.921,1.042c0.462,0.694,0.691,1.705,0.691,3.031
			c0,1.641-0.297,2.902-0.894,3.787c-0.595,0.883-1.42,1.325-2.474,1.325c-0.579,0-1.069-0.102-1.469-0.304V34.671z M15.556,29.686
			c0,0.597,0.142,1.07,0.425,1.419c0.284,0.35,0.676,0.526,1.177,0.526c0.433,0,0.797-0.16,1.091-0.479
			c0.294-0.32,0.442-0.707,0.442-1.161c0-0.639-0.147-1.167-0.439-1.586c-0.292-0.419-0.678-0.629-1.158-0.629
			c-0.444,0-0.811,0.182-1.102,0.546C15.702,28.685,15.556,29.139,15.556,29.686z"/>
		<path fill="#FFFFFF" d="M20.846,31.607c0-1.567,0.241-2.753,0.724-3.559c0.482-0.805,1.181-1.207,2.096-1.207
			c1.746,0,2.618,1.519,2.618,4.555c0,1.5-0.246,2.646-0.737,3.439c-0.491,0.794-1.18,1.191-2.067,1.191
			c-0.838,0-1.487-0.376-1.946-1.13C21.076,34.142,20.846,33.045,20.846,31.607z M21.91,31.556c0,2.359,0.555,3.539,1.665,3.539
			c1.094,0,1.639-1.199,1.639-3.597c0-2.481-0.535-3.723-1.607-3.723C22.476,27.776,21.91,29.036,21.91,31.556z"/>
		<path fill="#FFFFFF" d="M32.544,35.876h-1.048v-0.998h-0.021c-0.394,0.765-0.999,1.147-1.815,1.147
			c-1.394,0-2.092-0.898-2.092-2.696v-3.797h1.032v3.632c0,1.289,0.458,1.933,1.373,1.933c0.455,0,0.821-0.181,1.102-0.542
			c0.279-0.361,0.42-0.818,0.42-1.368v-3.654h1.048V35.876z"/>
	</g>
	<g>
		<g>
			<polygon fill="#FDFEFD" points="13.073,20.574 13.459,17.077 16.991,20.229 			"/>
			<polygon fill="#FDFEFD" points="20.461,14.932 15.368,19.478 14.3,18.525 19.393,13.979 			"/>
		</g>
		<g>
			<polygon fill="#FDFEFD" points="28.927,6.423 25.009,6.768 28.541,9.92 			"/>
			<polygon fill="#FDFEFD" points="22.607,13.018 27.7,8.472 26.632,7.519 21.539,12.065 			"/>
		</g>
		<g>
			<polygon fill="#FDFEFD" points="28.927,6.423 28.541,9.92 25.009,6.768 			"/>
			<polygon fill="#FDFEFD" points="21.539,12.065 26.632,7.519 27.7,8.472 22.607,13.018 			"/>
		</g>
		<g>
			<polygon fill="#FDFEFD" points="13.073,20.574 16.991,20.229 13.459,17.077 			"/>
			<polygon fill="#FDFEFD" points="19.393,13.979 14.3,18.525 15.368,19.478 20.461,14.932 			"/>
		</g>
		<g>
			<polygon fill="#FDFEFD" points="22.073,14.456 25.99,14.801 22.459,17.953 			"/>
			<polygon fill="#FDFEFD" points="28.393,21.05 23.3,16.504 24.367,15.551 29.461,20.097 			"/>
		</g>
		<g>
			<polygon fill="#FDFEFD" points="19.927,12.541 19.541,9.044 16.009,12.196 			"/>
			<polygon fill="#FDFEFD" points="12.539,6.9 17.632,11.446 18.7,10.493 13.607,5.947 			"/>
		</g>
	</g>
	<g>
		<g>
			<path fill="#FFFFFF" d="M29.301,27.97h-3.104v-0.604l1.482-1.594c0.41-0.44,0.683-0.788,0.82-1.045
				c0.138-0.257,0.208-0.523,0.208-0.798c0-0.313-0.082-0.552-0.244-0.72c-0.163-0.166-0.398-0.25-0.705-0.25
				c-0.455,0-0.888,0.208-1.301,0.625v-0.707c0.401-0.334,0.87-0.501,1.403-0.501c0.459,0,0.821,0.134,1.088,0.401
				c0.265,0.268,0.399,0.627,0.399,1.08c0,0.341-0.085,0.676-0.256,1.004s-0.492,0.745-0.967,1.251l-1.162,1.225v0.014h2.339V27.97z
				"/>
			<path fill="#FFFFFF" d="M30.105,25.328c0-0.971,0.149-1.705,0.449-2.204c0.298-0.497,0.732-0.747,1.297-0.747
				c1.081,0,1.622,0.94,1.622,2.82c0,0.928-0.153,1.638-0.457,2.129c-0.304,0.491-0.73,0.736-1.28,0.736
				c-0.518,0-0.92-0.233-1.204-0.7C30.247,26.896,30.105,26.218,30.105,25.328z M30.764,25.296c0,1.461,0.343,2.191,1.031,2.191
				c0.676,0,1.014-0.742,1.014-2.227c0-1.536-0.331-2.305-0.994-2.305C31.115,22.955,30.764,23.736,30.764,25.296z"/>
		</g>
	</g>
</g>
</svg>
