<?xml version="1.0" encoding="utf-8"?>
<!-- Generator: Adobe Illustrator 18.0.0, SVG Export Plug-In . SVG Version: 6.00 Build 0)  -->
<!DOCTYPE svg PUBLIC "-//W3C//DTD SVG 1.1//EN" "http://www.w3.org/Graphics/SVG/1.1/DTD/svg11.dtd">
<svg version="1.1" id="图层_1" xmlns="http://www.w3.org/2000/svg" xmlns:xlink="http://www.w3.org/1999/xlink" x="0px" y="0px"
	 width="42px" height="42px" viewBox="0 0 42 42" enable-background="new 0 0 42 42" xml:space="preserve">
<g>
	<g>
		<path fill="#FFFFFF" d="M3.65,40.47c-1.169,0-2.12-0.951-2.12-2.12V3.65c0-1.169,0.951-2.12,2.12-2.12H38.35
			c1.169,0,2.12,0.951,2.12,2.12V38.35c0,1.169-0.951,2.12-2.12,2.12H3.65z"/>
		<path fill="#AFAFAF" d="M38.35,2.06c0.877,0,1.59,0.713,1.59,1.59V38.35c0,0.877-0.713,1.59-1.59,1.59H3.65
			c-0.877,0-1.59-0.713-1.59-1.59V3.65c0-0.877,0.713-1.59,1.59-1.59H38.35 M38.35,1H3.65C2.187,1,1,2.187,1,3.65V38.35
			C1,39.813,2.187,41,3.65,41H38.35c1.464,0,2.65-1.187,2.65-2.65V3.65C41,2.187,39.813,1,38.35,1L38.35,1z"/>
	</g>
	<g>
		<linearGradient id="SVGID_1_" gradientUnits="userSpaceOnUse" x1="20.9994" y1="38.7147" x2="20.9994" y2="3.285">
			<stop  offset="0" style="stop-color:#FF1F30"/>
			<stop  offset="1" style="stop-color:#C3020F"/>
		</linearGradient>
		<path fill="url(#SVGID_1_)" d="M3.65,38.715c-0.201,0-0.366-0.165-0.366-0.366V3.651c0-0.201,0.165-0.366,0.366-0.366h34.7
			c0.201,0,0.364,0.165,0.364,0.366v34.699c0,0.201-0.163,0.366-0.364,0.366H3.65z"/>
	</g>
	<g>
		<path fill="#FFFFFF" d="M12.996,28.133c-0.429-0.239-0.878-0.357-1.347-0.357c-0.713,0-1.286,0.336-1.719,1.004
			c-0.433,0.67-0.651,1.584-0.658,2.744h0.026c0.391-0.814,1.013-1.222,1.868-1.222c0.713,0,1.283,0.249,1.707,0.75
			c0.426,0.502,0.639,1.167,0.639,1.996c0,0.869-0.246,1.581-0.736,2.14c-0.492,0.559-1.12,0.838-1.882,0.838
			c-0.836,0-1.494-0.353-1.972-1.058c-0.476-0.705-0.715-1.707-0.715-3.004c0-1.567,0.313-2.813,0.94-3.736
			c0.625-0.926,1.449-1.387,2.472-1.387c0.585,0,1.044,0.088,1.378,0.258V28.133z M9.336,32.967c0,0.585,0.144,1.087,0.433,1.503
			c0.289,0.417,0.672,0.625,1.151,0.625c0.455,0,0.824-0.18,1.108-0.54c0.284-0.357,0.426-0.821,0.426-1.387
			c0-0.611-0.135-1.089-0.402-1.428c-0.268-0.341-0.649-0.511-1.141-0.511c-0.469,0-0.848,0.173-1.139,0.516
			C9.48,32.091,9.336,32.499,9.336,32.967z"/>
		<path fill="#FFFFFF" d="M14.956,34.672c0.452,0.282,0.942,0.424,1.468,0.424c0.739,0,1.309-0.313,1.716-0.94
			c0.407-0.627,0.608-1.518,0.608-2.673c-0.007,0.007-0.014,0.007-0.021,0c-0.36,0.741-0.971,1.113-1.825,1.113
			c-0.691,0-1.264-0.256-1.719-0.769c-0.455-0.511-0.679-1.177-0.679-1.996c0-0.871,0.246-1.589,0.743-2.15
			c0.497-0.559,1.141-0.84,1.932-0.84c0.819,0,1.461,0.348,1.922,1.042c0.462,0.694,0.691,1.705,0.691,3.033
			c0,1.641-0.298,2.902-0.895,3.786c-0.594,0.883-1.42,1.326-2.474,1.326c-0.578,0-1.068-0.102-1.468-0.305V34.672z M15.557,29.686
			c0,0.597,0.142,1.07,0.424,1.42c0.284,0.35,0.677,0.526,1.177,0.526c0.433,0,0.798-0.161,1.091-0.481
			c0.294-0.32,0.443-0.705,0.443-1.16c0-0.639-0.147-1.167-0.44-1.586c-0.291-0.419-0.677-0.63-1.158-0.63
			c-0.443,0-0.81,0.182-1.101,0.547C15.702,28.685,15.557,29.139,15.557,29.686z"/>
		<path fill="#FFFFFF" d="M20.846,31.608c0-1.567,0.241-2.753,0.724-3.561c0.483-0.805,1.181-1.207,2.098-1.207
			c1.745,0,2.618,1.52,2.618,4.555c0,1.501-0.246,2.647-0.739,3.44c-0.49,0.793-1.179,1.191-2.067,1.191
			c-0.838,0-1.487-0.376-1.946-1.132C21.076,34.142,20.846,33.045,20.846,31.608z M21.911,31.556c0,2.36,0.554,3.539,1.664,3.539
			c1.094,0,1.641-1.198,1.641-3.596c0-2.481-0.535-3.724-1.607-3.724C22.477,27.776,21.911,29.037,21.911,31.556z"/>
		<path fill="#FFFFFF" d="M32.544,35.877h-1.046v-0.999h-0.021c-0.395,0.765-0.999,1.148-1.816,1.148c-1.394,0-2.09-0.9-2.09-2.696
			v-3.797h1.032v3.632c0,1.288,0.457,1.932,1.373,1.932c0.455,0,0.821-0.18,1.101-0.542c0.279-0.36,0.421-0.817,0.421-1.368v-3.653
			h1.046V35.877z"/>
	</g>
	<g>
		<g>
			<polygon fill="#FDFEFD" points="11.871,20.978 12.257,17.481 15.788,20.633 			"/>
			<polygon fill="#FDFEFD" points="19.259,15.337 14.165,19.882 13.098,18.929 18.191,14.383 			"/>
		</g>
		<g>
			<polygon fill="#FDFEFD" points="27.724,6.827 23.806,7.172 27.338,10.324 			"/>
			<polygon fill="#FDFEFD" points="21.404,13.422 26.497,8.876 25.429,7.923 20.336,12.469 			"/>
		</g>
		<g>
			<polygon fill="#FDFEFD" points="27.724,6.827 27.338,10.324 23.806,7.172 			"/>
			<polygon fill="#FDFEFD" points="20.336,12.469 25.429,7.923 26.497,8.876 21.404,13.422 			"/>
		</g>
		<g>
			<polygon fill="#FDFEFD" points="11.871,20.978 15.788,20.633 12.257,17.481 			"/>
			<polygon fill="#FDFEFD" points="18.191,14.383 13.098,18.929 14.165,19.882 19.259,15.337 			"/>
		</g>
		<g>
			<polygon fill="#FDFEFD" points="20.87,14.86 24.788,15.205 21.256,18.357 			"/>
			<polygon fill="#FDFEFD" points="27.19,21.454 22.097,16.908 23.165,15.955 28.258,20.501 			"/>
		</g>
		<g>
			<polygon fill="#FDFEFD" points="18.725,12.945 18.339,9.448 14.807,12.6 			"/>
			<polygon fill="#FDFEFD" points="11.337,7.304 16.43,11.85 17.498,10.897 12.404,6.351 			"/>
		</g>
	</g>
	<g>
		<g>
			<path fill="#FFFFFF" d="M29.312,28.375h-3.104v-0.604l1.482-1.596c0.41-0.44,0.682-0.788,0.819-1.044
				c0.14-0.258,0.208-0.523,0.208-0.798c0-0.313-0.08-0.552-0.244-0.72c-0.163-0.166-0.398-0.251-0.705-0.251
				c-0.455,0-0.888,0.208-1.3,0.625v-0.707c0.4-0.334,0.869-0.501,1.402-0.501c0.459,0,0.821,0.134,1.089,0.401
				c0.265,0.269,0.398,0.629,0.398,1.081c0,0.341-0.085,0.675-0.256,1.004c-0.17,0.327-0.492,0.743-0.966,1.25l-1.162,1.226v0.014
				h2.339V28.375z"/>
			<path fill="#FFFFFF" d="M30.115,25.732c0-0.971,0.149-1.705,0.45-2.204c0.298-0.498,0.732-0.748,1.297-0.748
				c1.08,0,1.622,0.94,1.622,2.82c0,0.928-0.154,1.638-0.457,2.131c-0.305,0.49-0.732,0.736-1.281,0.736
				c-0.518,0-0.919-0.234-1.203-0.701C30.257,27.3,30.115,26.623,30.115,25.732z M30.775,25.699c0,1.461,0.343,2.192,1.03,2.192
				c0.677,0,1.016-0.743,1.016-2.228c0-1.536-0.331-2.305-0.994-2.305C31.125,23.359,30.775,24.139,30.775,25.699z"/>
		</g>
	</g>
</g>
</svg>
