<?xml version="1.0" encoding="utf-8"?>
<!-- Generator: Adobe Illustrator 18.0.0, SVG Export Plug-In . SVG Version: 6.00 Build 0)  -->
<!DOCTYPE svg PUBLIC "-//W3C//DTD SVG 1.1//EN" "http://www.w3.org/Graphics/SVG/1.1/DTD/svg11.dtd">
<svg version="1.1" id="图层_1" xmlns="http://www.w3.org/2000/svg" xmlns:xlink="http://www.w3.org/1999/xlink" x="0px" y="0px"
	 width="32px" height="32px" viewBox="0 0 32 32" enable-background="new 0 0 32 32" xml:space="preserve">
<g>
	<g>
		<path fill="#FFFFFF" d="M1.92,28.736c-0.847,0-1.536-0.689-1.536-1.536V4.8c0-0.847,0.689-1.536,1.536-1.536h28.16
			c0.847,0,1.536,0.689,1.536,1.536v22.4c0,0.847-0.689,1.536-1.536,1.536H1.92z"/>
		<path fill="#AFAFAF" d="M30.08,3.648c0.635,0,1.152,0.517,1.152,1.152v22.4c0,0.635-0.517,1.152-1.152,1.152H1.92
			c-0.635,0-1.152-0.517-1.152-1.152V4.8c0-0.635,0.517-1.152,1.152-1.152H30.08 M30.08,2.88H1.92C0.86,2.88,0,3.74,0,4.8v22.4
			c0,1.06,0.86,1.92,1.92,1.92h28.16c1.06,0,1.92-0.86,1.92-1.92V4.8C32,3.74,31.14,2.88,30.08,2.88L30.08,2.88z"/>
	</g>
	<linearGradient id="SVGID_1_" gradientUnits="userSpaceOnUse" x1="16" y1="27.0933" x2="16" y2="4.9067">
		<stop  offset="0" style="stop-color:#76797A"/>
		<stop  offset="1" style="stop-color:#5F6263"/>
	</linearGradient>
	<path fill="url(#SVGID_1_)" d="M28.827,27.093H3.173c-0.633,0-1.147-0.513-1.147-1.147V6.053c0-0.633,0.513-1.147,1.147-1.147
		h25.653c0.633,0,1.147,0.513,1.147,1.147v19.893C29.973,26.58,29.46,27.093,28.827,27.093z"/>
	<g>
		<path fill="#FFFFFF" d="M8.453,17.778c-0.404-0.208-0.827-0.313-1.269-0.313c-0.673,0-1.213,0.292-1.621,0.88
			c-0.407,0.585-0.615,1.383-0.622,2.398h0.026c0.368-0.712,0.955-1.07,1.761-1.07c0.671,0,1.209,0.22,1.61,0.657
			c0.401,0.44,0.602,1.02,0.602,1.747c0,0.76-0.233,1.382-0.695,1.87c-0.464,0.49-1.055,0.733-1.774,0.733
			c-0.79,0-1.41-0.308-1.859-0.925c-0.45-0.617-0.675-1.492-0.675-2.627c0-1.37,0.295-2.46,0.885-3.267
			c0.59-0.808,1.367-1.213,2.331-1.213c0.551,0,0.985,0.075,1.299,0.225V17.778z M5.001,22.007c0,0.51,0.136,0.95,0.409,1.315
			c0.273,0.362,0.635,0.545,1.086,0.545c0.427,0,0.776-0.158,1.044-0.47c0.267-0.315,0.401-0.72,0.401-1.215
			c0-0.535-0.126-0.953-0.379-1.25c-0.253-0.298-0.611-0.445-1.076-0.445c-0.441,0-0.8,0.15-1.074,0.45
			C5.138,21.24,5.001,21.595,5.001,22.007z"/>
		<path fill="#FFFFFF" d="M14.775,24.55H10.32v-0.847h1.741v-5.9l-1.786,0.515v-0.902l2.764-0.803v7.09h1.736V24.55z"/>
		<path fill="#FFFFFF" d="M15.854,20.817c0-1.372,0.228-2.41,0.683-3.112c0.455-0.705,1.114-1.058,1.977-1.058
			c1.645,0,2.469,1.328,2.469,3.985c0,1.31-0.233,2.313-0.695,3.007c-0.464,0.695-1.114,1.04-1.95,1.04
			c-0.789,0-1.4-0.327-1.834-0.988C16.071,23.032,15.854,22.075,15.854,20.817z M16.858,20.772c0,2.065,0.524,3.095,1.571,3.095
			c1.03,0,1.545-1.048,1.545-3.145c0-2.173-0.505-3.257-1.515-3.257C17.391,17.465,16.858,18.567,16.858,20.772z"/>
		<path fill="#FFFFFF" d="M28.534,24.55h-1.109l-0.793-2.127h-3.236l-0.749,2.127h-1.109l2.961-7.772h1.074L28.534,24.55z
			 M26.321,21.545l-1.175-3.233c-0.036-0.103-0.076-0.282-0.12-0.54h-0.025c-0.036,0.233-0.079,0.415-0.125,0.54l-1.165,3.233
			H26.321z"/>
	</g>
	<polygon fill="#FDFEFD" points="26.183,7.923 22.435,4.826 22.435,6.631 16.764,6.631 16.764,9.031 22.435,9.031 22.435,11.02 	"/>
	<polygon fill="#FDFEFD" points="7.484,11.603 11.232,8.506 11.232,10.311 16.903,10.311 16.903,12.711 11.232,12.711 11.232,14.7 	
		"/>
</g>
</svg>
