<?xml version="1.0" encoding="utf-8"?>
<!-- Generator: Adobe Illustrator 18.0.0, SVG Export Plug-In . SVG Version: 6.00 Build 0)  -->
<!DOCTYPE svg PUBLIC "-//W3C//DTD SVG 1.1//EN" "http://www.w3.org/Graphics/SVG/1.1/DTD/svg11.dtd">
<svg version="1.1" id="图层_1" xmlns="http://www.w3.org/2000/svg" xmlns:xlink="http://www.w3.org/1999/xlink" x="0px" y="0px"
	 width="36px" height="36px" viewBox="0 0 36 36" enable-background="new 0 0 36 36" xml:space="preserve">
<g>
	<g>
		<path fill="#FFFFFF" d="M2.819,35.036c-1.023,0-1.855-0.832-1.855-1.855V2.819c0-1.023,0.832-1.855,1.855-1.855h30.362
			c1.023,0,1.855,0.832,1.855,1.855v30.361c0,1.023-0.832,1.855-1.855,1.855H2.819z"/>
		<path fill="#AFAFAF" d="M33.181,1.428c0.767,0,1.391,0.624,1.391,1.391v30.362c0,0.767-0.624,1.391-1.391,1.391H2.819
			c-0.767,0-1.391-0.624-1.391-1.391V2.819c0-0.767,0.624-1.391,1.391-1.391H33.181 M33.181,0.5H2.819
			C1.538,0.5,0.5,1.538,0.5,2.819v30.362c0,1.281,1.038,2.319,2.319,2.319h30.362c1.281,0,2.319-1.038,2.319-2.319V2.819
			C35.5,1.538,34.462,0.5,33.181,0.5L33.181,0.5z"/>
	</g>
	<g>
		<linearGradient id="SVGID_1_" gradientUnits="userSpaceOnUse" x1="17.9995" y1="33.5004" x2="17.9995" y2="2.4994">
			<stop  offset="0" style="stop-color:#76797A"/>
			<stop  offset="1" style="stop-color:#5F6263"/>
		</linearGradient>
		<path fill="url(#SVGID_1_)" d="M2.819,33.5c-0.176,0-0.32-0.144-0.32-0.32V2.819c0-0.176,0.144-0.32,0.32-0.32h30.363
			c0.176,0,0.319,0.144,0.319,0.32v30.361c0,0.176-0.143,0.32-0.319,0.32H2.819z"/>
	</g>
	<g>
		<path fill="#FFFFFF" d="M9.899,22.697c-0.443-0.244-0.906-0.366-1.389-0.366c-0.735,0-1.326,0.344-1.772,1.035
			S6.065,25,6.058,26.193h0.027c0.403-0.84,1.045-1.26,1.926-1.26c0.736,0,1.323,0.259,1.761,0.774
			c0.439,0.518,0.659,1.204,0.659,2.061c0,0.894-0.254,1.631-0.76,2.205c-0.507,0.576-1.154,0.864-1.94,0.864
			c-0.863,0-1.542-0.364-2.034-1.091S4.96,27.985,4.96,26.65c0-1.619,0.322-2.903,0.968-3.855s1.495-1.428,2.549-1.428
			c0.604,0,1.078,0.088,1.422,0.266V22.697z M6.124,27.685c0,0.603,0.149,1.121,0.447,1.55s0.695,0.645,1.188,0.645
			c0.469,0,0.85-0.186,1.143-0.557c0.292-0.371,0.438-0.847,0.438-1.431c0-0.632-0.138-1.123-0.414-1.475
			c-0.277-0.352-0.669-0.525-1.178-0.525c-0.482,0-0.874,0.176-1.174,0.532C6.273,26.779,6.124,27.199,6.124,27.685z"/>
		<path fill="#FFFFFF" d="M11.689,29.152c0.581,0.483,1.238,0.728,1.97,0.728c0.585,0,1.049-0.156,1.392-0.466
			c0.342-0.308,0.513-0.723,0.513-1.245c0-1.157-0.77-1.738-2.311-1.738h-0.708v-0.957h0.675c1.365,0,2.047-0.544,2.047-1.633
			c0-1.006-0.521-1.509-1.564-1.509c-0.597,0-1.158,0.217-1.685,0.649v-1.094c0.555-0.347,1.205-0.52,1.948-0.52
			c0.724,0,1.306,0.203,1.744,0.613c0.439,0.408,0.659,0.938,0.659,1.587c0,1.199-0.568,1.97-1.702,2.314v0.022
			c0.615,0.071,1.101,0.305,1.458,0.703c0.356,0.396,0.535,0.889,0.535,1.482c0,0.823-0.275,1.487-0.825,1.992
			c-0.552,0.505-1.284,0.757-2.198,0.757c-0.804,0-1.454-0.161-1.948-0.483V29.152z"/>
		<path fill="#FFFFFF" d="M17.995,26.281c0-1.616,0.249-2.839,0.747-3.669c0.497-0.83,1.218-1.245,2.162-1.245
			c1.801,0,2.7,1.565,2.7,4.697c0,1.545-0.254,2.727-0.76,3.545c-0.507,0.82-1.217,1.228-2.131,1.228
			c-0.864,0-1.533-0.388-2.007-1.165S17.995,27.766,17.995,26.281z M19.093,26.23c0,2.432,0.573,3.65,1.718,3.65
			c1.128,0,1.691-1.238,1.691-3.711c0-2.559-0.552-3.838-1.658-3.838C19.676,22.331,19.093,23.63,19.093,26.23z"/>
		<path fill="#FFFFFF" d="M31.59,21.521l-3.123,9.163h-1.218l-3.063-9.163h1.218l2.289,7.163c0.077,0.237,0.133,0.51,0.17,0.823
			h0.028c0.029-0.271,0.093-0.549,0.192-0.835l2.333-7.151H31.59z"/>
	</g>
	<g>
		<g>
			<polygon fill="#FDFEFD" points="11.899,16.596 13.329,12.797 15.905,17.257 			"/>
			
				<rect x="13.737" y="13.093" transform="matrix(0.866 -0.5 0.5 0.866 -4.7095 10.1675)" fill="#FDFEFD" width="5.761" height="1.557"/>
		</g>
		<g>
			<polygon fill="#FDFEFD" points="7.717,12.037 9.148,8.238 11.723,12.698 			"/>
			
				<rect x="9.556" y="8.534" transform="matrix(0.866 -0.5 0.5 0.866 -2.9903 7.4657)" fill="#FDFEFD" width="5.761" height="1.557"/>
		</g>
		<g>
			<polygon fill="#FDFEFD" points="27.765,10.328 23.76,9.667 26.335,14.127 			"/>
			
				<rect x="20.166" y="12.274" transform="matrix(-0.866 0.5 -0.5 -0.866 49.5315 12.8328)" fill="#FDFEFD" width="5.761" height="1.557"/>
		</g>
		<g>
			<polygon fill="#FDFEFD" points="23.583,5.769 19.578,5.108 22.153,9.568 			"/>
			
				<rect x="15.984" y="7.715" transform="matrix(-0.866 0.5 -0.5 -0.866 39.4485 6.4164)" fill="#FDFEFD" width="5.761" height="1.557"/>
		</g>
	</g>
</g>
</svg>
