<?xml version="1.0" encoding="utf-8"?>
<!-- Generator: Adobe Illustrator 18.0.0, SVG Export Plug-In . SVG Version: 6.00 Build 0)  -->
<!DOCTYPE svg PUBLIC "-//W3C//DTD SVG 1.1//EN" "http://www.w3.org/Graphics/SVG/1.1/DTD/svg11.dtd">
<svg version="1.1" id="图层_1" xmlns="http://www.w3.org/2000/svg" xmlns:xlink="http://www.w3.org/1999/xlink" x="0px" y="0px"
	 width="36px" height="36px" viewBox="0 0 36 36" enable-background="new 0 0 36 36" xml:space="preserve">
<g>
	<g>
		<path fill="#FFFFFF" d="M2.819,35.036c-1.023,0-1.855-0.832-1.855-1.855V2.819c0-1.023,0.832-1.855,1.855-1.855h30.362
			c1.023,0,1.855,0.832,1.855,1.855v30.362c0,1.023-0.832,1.855-1.855,1.855H2.819z"/>
		<path fill="#AFAFAF" d="M33.181,1.428c0.767,0,1.391,0.624,1.391,1.391v30.362c0,0.767-0.624,1.391-1.391,1.391H2.819
			c-0.767,0-1.391-0.624-1.391-1.391V2.819c0-0.767,0.624-1.391,1.391-1.391H33.181 M33.181,0.5H2.819
			C1.538,0.5,0.5,1.538,0.5,2.819v30.362c0,1.281,1.038,2.319,2.319,2.319h30.362c1.281,0,2.319-1.038,2.319-2.319V2.819
			C35.5,1.538,34.462,0.5,33.181,0.5L33.181,0.5z"/>
	</g>
	<g>
		<linearGradient id="SVGID_1_" gradientUnits="userSpaceOnUse" x1="17.9995" y1="33.5004" x2="17.9995" y2="2.4994">
			<stop  offset="0" style="stop-color:#2CA539"/>
			<stop  offset="1" style="stop-color:#009117"/>
		</linearGradient>
		<path fill="url(#SVGID_1_)" d="M2.819,33.5c-0.176,0-0.32-0.144-0.32-0.32V2.819c0-0.176,0.144-0.32,0.32-0.32h30.363
			c0.176,0,0.319,0.144,0.319,0.32v30.361c0,0.176-0.143,0.32-0.319,0.32H2.819z"/>
	</g>
	<g>
		<g>
			<g>
				<polygon fill="#F6F6F6" points="27.621,12.715 24.608,10.243 24.608,15.188 				"/>
				<rect x="21.142" y="11.968" fill="#F6F6F6" width="4.013" height="1.495"/>
			</g>
			<g>
				<polygon fill="#F6F6F6" points="8.378,12.715 11.391,10.243 11.391,15.188 				"/>
				<rect x="10.843" y="11.968" fill="#F6F6F6" width="4.013" height="1.495"/>
			</g>
		</g>
		<g>
			<g>
				<polygon fill="#F6F6F6" points="18,3.093 15.527,6.107 20.472,6.107 				"/>
				<rect x="17.252" y="5.559" fill="#F6F6F6" width="1.495" height="4.013"/>
			</g>
			<g>
				<polygon fill="#F6F6F6" points="18,22.337 15.527,19.324 20.472,19.324 				"/>
				<rect x="17.252" y="15.858" fill="#F6F6F6" width="1.495" height="4.013"/>
			</g>
		</g>
		<path fill="#F6F6F6" d="M17.999,9.741c1.64,0,2.975,1.334,2.975,2.975s-1.334,2.975-2.975,2.975c-1.64,0-2.975-1.334-2.975-2.975
			S16.359,9.741,17.999,9.741 M17.999,8.06c-2.571,0-4.655,2.084-4.655,4.655s2.084,4.655,4.655,4.655s4.655-2.084,4.655-4.655
			S20.57,8.06,17.999,8.06L17.999,8.06z"/>
	</g>
	<text transform="matrix(0.8389 0 0 1 6.0076 31.4028)" fill="#FFFFFF" font-family="'ArialMT'" font-size="10">R830E</text>
</g>
</svg>
