<?xml version="1.0" encoding="utf-8"?>
<!-- Generator: Adobe Illustrator 18.0.0, SVG Export Plug-In . SVG Version: 6.00 Build 0)  -->
<!DOCTYPE svg PUBLIC "-//W3C//DTD SVG 1.1//EN" "http://www.w3.org/Graphics/SVG/1.1/DTD/svg11.dtd">
<svg version="1.1" id="图层_1" xmlns="http://www.w3.org/2000/svg" xmlns:xlink="http://www.w3.org/1999/xlink" x="0px" y="0px"
	 width="42px" height="42px" viewBox="0 0 42 42" enable-background="new 0 0 42 42" xml:space="preserve">
<g>
	<g>
		<g>
			<path fill="#FFFFFF" d="M5.385,38.522c-1.052,0-1.908-0.855-1.908-1.908V5.385c0-1.052,0.856-1.908,1.908-1.908h31.229
				c1.053,0,1.908,0.856,1.908,1.908v31.229c0,1.053-0.855,1.908-1.908,1.908H5.385z"/>
			<path fill="#AFAFAF" d="M36.615,3.954c0.789,0,1.431,0.642,1.431,1.431v31.229c0,0.789-0.642,1.431-1.431,1.431H5.385
				c-0.789,0-1.431-0.642-1.431-1.431V5.385c0-0.789,0.642-1.431,1.431-1.431H36.615 M36.615,3H5.385C4.068,3,3,4.068,3,5.385
				v31.229C3,37.932,4.068,39,5.385,39h31.229C37.932,39,39,37.932,39,36.615V5.385C39,4.068,37.932,3,36.615,3L36.615,3z"/>
		</g>
		<g>
			<linearGradient id="SVGID_1_" gradientUnits="userSpaceOnUse" x1="20.9995" y1="36.9432" x2="20.9995" y2="5.0565">
				<stop  offset="0" style="stop-color:#FF7F01"/>
				<stop  offset="1" style="stop-color:#F05800"/>
			</linearGradient>
			<path fill="url(#SVGID_1_)" d="M5.385,36.943c-0.181,0-0.329-0.148-0.329-0.329V5.385c0-0.181,0.148-0.329,0.329-0.329h31.23
				c0.181,0,0.328,0.148,0.328,0.329v31.229c0,0.181-0.147,0.329-0.328,0.329H5.385z"/>
		</g>
		<g>
			<g>
				<g>
					<polygon fill="#F6F6F6" points="30.896,15.564 27.797,13.021 27.797,18.107 					"/>
					<rect x="24.232" y="14.795" fill="#F6F6F6" width="4.128" height="1.538"/>
				</g>
				<g>
					<polygon fill="#F6F6F6" points="11.103,15.564 14.202,13.021 14.202,18.107 					"/>
					<rect x="13.639" y="14.795" fill="#F6F6F6" width="4.128" height="1.538"/>
				</g>
			</g>
			<g>
				<g>
					<polygon fill="#F6F6F6" points="21,5.667 18.456,8.767 23.543,8.767 					"/>
					<rect x="20.231" y="8.204" fill="#F6F6F6" width="1.538" height="4.128"/>
				</g>
				<g>
					<polygon fill="#F6F6F6" points="21,25.461 18.456,22.362 23.543,22.362 					"/>
					<rect x="20.231" y="18.797" fill="#F6F6F6" width="1.538" height="4.128"/>
				</g>
			</g>
			<path fill="#F6F6F6" d="M20.999,12.505c1.687,0,3.06,1.373,3.06,3.06s-1.373,3.06-3.06,3.06c-1.687,0-3.06-1.373-3.06-3.06
				S19.312,12.505,20.999,12.505 M20.999,10.776c-2.644,0-4.788,2.144-4.788,4.788s2.144,4.788,4.788,4.788s4.788-2.144,4.788-4.788
				S23.644,10.776,20.999,10.776L20.999,10.776z"/>
		</g>
	</g>
	<g>
		<path fill="#FFFFFF" d="M9.344,34.786v-7.363h2.738c0.551,0,0.969,0.065,1.256,0.198c0.286,0.131,0.516,0.364,0.687,0.701
			c0.171,0.334,0.257,0.703,0.257,1.11c0,0.522-0.142,0.962-0.426,1.321c-0.284,0.357-0.722,0.585-1.315,0.683
			c0.216,0.123,0.38,0.246,0.493,0.367c0.239,0.261,0.465,0.588,0.678,0.979l1.074,2.004H13.76l-0.817-1.532
			c-0.239-0.442-0.436-0.781-0.59-1.015c-0.154-0.236-0.293-0.399-0.416-0.492c-0.122-0.095-0.246-0.161-0.372-0.196
			c-0.093-0.025-0.245-0.035-0.456-0.035h-0.948v3.27H9.344z M10.162,30.673h1.757c0.374,0,0.667-0.048,0.876-0.138
			c0.211-0.093,0.372-0.241,0.481-0.442c0.109-0.203,0.164-0.424,0.164-0.66c0-0.349-0.107-0.635-0.319-0.859
			c-0.212-0.226-0.546-0.336-1.004-0.336h-1.955V30.673z"/>
		<path fill="#FFFFFF" d="M16.423,30.794c-0.315-0.138-0.549-0.334-0.699-0.588c-0.152-0.256-0.229-0.56-0.229-0.914
			c0-0.537,0.162-0.987,0.485-1.351c0.324-0.367,0.753-0.547,1.289-0.547c0.54,0,0.973,0.186,1.302,0.56
			c0.329,0.372,0.492,0.826,0.492,1.364c0,0.342-0.074,0.638-0.225,0.891c-0.151,0.251-0.378,0.447-0.684,0.585
			c0.379,0.146,0.668,0.384,0.865,0.713c0.198,0.326,0.298,0.718,0.298,1.175c0,0.628-0.187,1.158-0.56,1.587
			c-0.374,0.427-0.865,0.643-1.475,0.643c-0.609,0-1.101-0.216-1.474-0.645c-0.374-0.432-0.561-0.967-0.561-1.61
			c0-0.48,0.103-0.881,0.306-1.203C15.757,31.13,16.047,30.909,16.423,30.794z M16.027,32.662c0,0.256,0.051,0.507,0.154,0.748
			c0.102,0.241,0.255,0.427,0.457,0.56c0.202,0.131,0.419,0.198,0.653,0.198c0.362,0,0.662-0.141,0.898-0.417
			c0.235-0.279,0.353-0.633,0.353-1.06c0-0.437-0.121-0.796-0.364-1.08c-0.242-0.286-0.546-0.427-0.912-0.427
			c-0.357,0-0.653,0.141-0.888,0.422C16.145,31.888,16.027,32.24,16.027,32.662z M16.271,29.262c0,0.347,0.094,0.633,0.283,0.854
			c0.188,0.221,0.432,0.331,0.733,0.331c0.291,0,0.531-0.11,0.718-0.329c0.186-0.221,0.28-0.49,0.28-0.806
			c0-0.331-0.097-0.61-0.289-0.836c-0.192-0.226-0.432-0.339-0.718-0.339c-0.29,0-0.53,0.11-0.721,0.331
			C16.367,28.689,16.271,28.953,16.271,29.262z"/>
		<path fill="#FFFFFF" d="M20.06,32.843l0.758-0.121c0.087,0.512,0.235,0.881,0.444,1.107c0.208,0.226,0.463,0.339,0.765,0.339
			c0.357,0,0.658-0.148,0.903-0.442c0.246-0.296,0.369-0.66,0.369-1.095c0-0.417-0.114-0.758-0.342-1.027
			C22.73,31.333,22.44,31.2,22.09,31.2c-0.143,0-0.321,0.033-0.535,0.1l0.084-0.794c0.05,0.005,0.092,0.01,0.122,0.01
			c0.323,0,0.614-0.1,0.873-0.301c0.257-0.201,0.387-0.512,0.387-0.929c0-0.331-0.094-0.608-0.281-0.824
			c-0.188-0.218-0.432-0.326-0.729-0.326c-0.295,0-0.541,0.11-0.737,0.331c-0.197,0.221-0.323,0.552-0.379,0.994l-0.758-0.161
			c0.093-0.608,0.304-1.077,0.632-1.409c0.329-0.334,0.737-0.5,1.227-0.5c0.336,0,0.647,0.085,0.93,0.259
			c0.284,0.171,0.501,0.407,0.65,0.706c0.151,0.296,0.226,0.613,0.226,0.949c0,0.316-0.073,0.608-0.216,0.869
			c-0.142,0.261-0.354,0.467-0.635,0.623c0.365,0.1,0.648,0.309,0.851,0.625c0.201,0.316,0.304,0.711,0.304,1.188
			c0,0.643-0.198,1.188-0.59,1.635c-0.393,0.447-0.89,0.67-1.492,0.67c-0.542,0-0.992-0.193-1.35-0.578
			C20.314,33.953,20.11,33.455,20.06,32.843z"/>
		<path fill="#FFFFFF" d="M24.852,32.858l0.796-0.08c0.06,0.462,0.196,0.809,0.412,1.042c0.216,0.231,0.475,0.349,0.778,0.349
			c0.364,0,0.673-0.166,0.927-0.492c0.251-0.329,0.379-0.763,0.379-1.306c0-0.517-0.123-0.924-0.364-1.22
			c-0.244-0.299-0.563-0.447-0.954-0.447c-0.246,0-0.467,0.065-0.663,0.198c-0.196,0.131-0.352,0.304-0.462,0.515l-0.713-0.11
			l0.598-3.782h3.071v0.864h-2.463l-0.334,1.979c0.372-0.309,0.761-0.462,1.168-0.462c0.54,0,0.994,0.221,1.366,0.668
			c0.369,0.444,0.555,1.017,0.555,1.718c0,0.665-0.163,1.241-0.49,1.728c-0.394,0.595-0.937,0.894-1.62,0.894
			c-0.563,0-1.022-0.188-1.376-0.563C25.106,33.973,24.902,33.475,24.852,32.858z"/>
		<path fill="#FFFFFF" d="M29.977,34.786v-7.363h4.465v0.869h-3.649v2.255h3.418v0.864h-3.418v2.506h3.792v0.869H29.977z"/>
	</g>
</g>
</svg>
