<?xml version="1.0" encoding="utf-8"?>
<!-- Generator: Adobe Illustrator 18.0.0, SVG Export Plug-In . SVG Version: 6.00 Build 0)  -->
<!DOCTYPE svg PUBLIC "-//W3C//DTD SVG 1.1//EN" "http://www.w3.org/Graphics/SVG/1.1/DTD/svg11.dtd">
<svg version="1.1" id="图层_1" xmlns="http://www.w3.org/2000/svg" xmlns:xlink="http://www.w3.org/1999/xlink" x="0px" y="0px"
	 width="32px" height="32px" viewBox="0 0 32 32" enable-background="new 0 0 32 32" xml:space="preserve">
<g>
	<g>
		<path fill="#FFFFFF" d="M2.8,27.12c-0.794,0-1.439-0.646-1.439-1.44v-21c0-0.794,0.646-1.44,1.439-1.44h26.4
			c0.794,0,1.439,0.646,1.439,1.44v21c0,0.795-0.646,1.44-1.439,1.44H2.8z"/>
		<path fill="#AFAFAF" d="M29.2,3.6c0.596,0,1.08,0.484,1.08,1.08v21c0,0.596-0.484,1.08-1.08,1.08H2.8
			c-0.596,0-1.08-0.484-1.08-1.08v-21c0-0.596,0.484-1.08,1.08-1.08H29.2 M29.2,2.88H2.8C1.806,2.88,1,3.686,1,4.68v21
			c0,0.994,0.806,1.8,1.8,1.8h26.4c0.994,0,1.8-0.806,1.8-1.8v-21C31,3.686,30.194,2.88,29.2,2.88L29.2,2.88z"/>
	</g>
	<linearGradient id="SVGID_1_" gradientUnits="userSpaceOnUse" x1="16" y1="25.58" x2="16" y2="4.78">
		<stop  offset="0" style="stop-color:#FF1F30"/>
		<stop  offset="1" style="stop-color:#C3020F"/>
	</linearGradient>
	<path fill="url(#SVGID_1_)" d="M28.025,25.58H3.975c-0.594,0-1.075-0.481-1.075-1.075V5.855c0-0.594,0.481-1.075,1.075-1.075h24.05
		c0.594,0,1.075,0.481,1.075,1.075v18.65C29.1,25.099,28.619,25.58,28.025,25.58z"/>
	<g>
		<path fill="#FFFFFF" d="M8.924,16.845c-0.377-0.195-0.776-0.292-1.188-0.292c-0.63,0-1.137,0.274-1.521,0.824
			c-0.382,0.55-0.577,1.297-0.584,2.249h0.026c0.345-0.668,0.895-1.003,1.65-1.003c0.63,0,1.134,0.206,1.509,0.616
			c0.377,0.413,0.565,0.956,0.565,1.638c0,0.712-0.218,1.296-0.652,1.753c-0.434,0.459-0.989,0.687-1.662,0.687
			c-0.741,0-1.322-0.288-1.744-0.867c-0.422-0.579-0.633-1.399-0.633-2.463c0-1.284,0.277-2.306,0.83-3.064
			c0.553-0.757,1.282-1.136,2.187-1.136c0.516,0,0.923,0.07,1.216,0.211V16.845z M5.69,20.812c0,0.478,0.127,0.891,0.382,1.233
			c0.255,0.34,0.595,0.511,1.02,0.511c0.401,0,0.727-0.148,0.977-0.441c0.251-0.295,0.377-0.675,0.377-1.139
			c0-0.502-0.12-0.893-0.356-1.172c-0.237-0.279-0.572-0.417-1.008-0.417c-0.415,0-0.75,0.141-1.008,0.422
			C5.816,20.093,5.69,20.425,5.69,20.812z"/>
		<path fill="#FFFFFF" d="M14.852,23.196h-4.177v-0.795h1.634v-5.532l-1.676,0.484v-0.846l2.592-0.752v6.647h1.627V23.196z"/>
		<path fill="#FFFFFF" d="M15.864,19.696c0-1.287,0.213-2.259,0.64-2.919c0.427-0.661,1.043-0.99,1.854-0.99
			c1.542,0,2.313,1.245,2.313,3.736c0,1.228-0.218,2.168-0.652,2.82c-0.434,0.652-1.043,0.975-1.828,0.975
			c-0.738,0-1.313-0.307-1.718-0.926C16.068,21.773,15.864,20.875,15.864,19.696z M16.804,19.654c0,1.936,0.492,2.902,1.474,2.902
			c0.966,0,1.448-0.982,1.448-2.948c0-2.037-0.473-3.054-1.42-3.054C17.305,16.553,16.804,17.587,16.804,19.654z"/>
		<path fill="#FFFFFF" d="M27.752,23.196h-1.041l-0.743-1.995h-3.033l-0.703,1.995h-1.038l2.775-7.287h1.008L27.752,23.196z
			 M25.677,20.378l-1.102-3.03c-0.035-0.096-0.073-0.266-0.112-0.507H24.44c-0.035,0.219-0.075,0.389-0.117,0.507l-1.092,3.03
			H25.677z"/>
	</g>
	<polygon fill="#FDFEFD" points="25.547,7.608 22.033,4.705 22.033,6.397 16.717,6.397 16.717,8.647 22.033,8.647 22.033,10.512 	
		"/>
	<polygon fill="#FDFEFD" points="8.017,11.058 11.53,8.155 11.53,9.847 16.847,9.847 16.847,12.097 11.53,12.097 11.53,13.962 	"/>
</g>
</svg>
