<?xml version="1.0" encoding="utf-8"?>
<!-- Generator: Adobe Illustrator 18.0.0, SVG Export Plug-In . SVG Version: 6.00 Build 0)  -->
<!DOCTYPE svg PUBLIC "-//W3C//DTD SVG 1.1//EN" "http://www.w3.org/Graphics/SVG/1.1/DTD/svg11.dtd">
<svg version="1.1" id="图层_1" xmlns="http://www.w3.org/2000/svg" xmlns:xlink="http://www.w3.org/1999/xlink" x="0px" y="0px"
	 width="36px" height="36px" viewBox="0 0 36 36" enable-background="new 0 0 36 36" xml:space="preserve">
<g>
	<g>
		<path fill="#FFFFFF" d="M2.385,35.523c-1.052,0-1.908-0.856-1.908-1.908V2.385c0-1.052,0.856-1.908,1.908-1.908h31.229
			c1.053,0,1.908,0.856,1.908,1.908v31.229c0,1.052-0.855,1.908-1.908,1.908H2.385z"/>
		<path fill="#AFAFAF" d="M33.615,0.954c0.789,0,1.431,0.642,1.431,1.431v31.229c0,0.789-0.642,1.431-1.431,1.431H2.385
			c-0.789,0-1.431-0.642-1.431-1.431V2.385c0-0.789,0.642-1.431,1.431-1.431H33.615 M33.615,0H2.385C1.068,0,0,1.068,0,2.385v31.229
			C0,34.932,1.068,36,2.385,36h31.229C34.932,36,36,34.932,36,33.615V2.385C36,1.068,34.932,0,33.615,0L33.615,0z"/>
	</g>
	<g>
		<linearGradient id="SVGID_1_" gradientUnits="userSpaceOnUse" x1="17.9995" y1="33.9432" x2="17.9995" y2="2.0565">
			<stop  offset="0" style="stop-color:#2CA539"/>
			<stop  offset="1" style="stop-color:#009117"/>
		</linearGradient>
		<path fill="url(#SVGID_1_)" d="M2.385,33.943c-0.181,0-0.329-0.148-0.329-0.329V2.385c0-0.181,0.148-0.329,0.329-0.329h31.23
			c0.181,0,0.328,0.148,0.328,0.329v31.229c0,0.181-0.147,0.329-0.328,0.329H2.385z"/>
	</g>
	<g>
		<g>
			<g>
				<polygon fill="#F6F6F6" points="27.896,12.564 24.797,10.021 24.797,15.107 				"/>
				<rect x="21.232" y="11.795" fill="#F6F6F6" width="4.128" height="1.538"/>
			</g>
			<g>
				<polygon fill="#F6F6F6" points="8.103,12.564 11.202,10.021 11.202,15.107 				"/>
				<rect x="10.639" y="11.795" fill="#F6F6F6" width="4.128" height="1.538"/>
			</g>
		</g>
		<g>
			<g>
				<polygon fill="#F6F6F6" points="18,2.667 15.456,5.767 20.543,5.767 				"/>
				<rect x="17.231" y="5.204" fill="#F6F6F6" width="1.538" height="4.128"/>
			</g>
			<g>
				<polygon fill="#F6F6F6" points="18,22.461 15.456,19.362 20.543,19.362 				"/>
				<rect x="17.231" y="15.797" fill="#F6F6F6" width="1.538" height="4.128"/>
			</g>
		</g>
		<path fill="#F6F6F6" d="M17.999,9.505c1.687,0,3.06,1.373,3.06,3.06s-1.373,3.06-3.06,3.06c-1.687,0-3.06-1.373-3.06-3.06
			S16.312,9.505,17.999,9.505 M17.999,7.776c-2.644,0-4.788,2.144-4.788,4.788s2.144,4.788,4.788,4.788s4.788-2.144,4.788-4.788
			S20.644,7.776,17.999,7.776L17.999,7.776z"/>
	</g>
	<g>
		<path fill="#FFFFFF" d="M6.344,31.786v-7.363h2.738c0.551,0,0.969,0.067,1.256,0.198s0.516,0.365,0.687,0.701
			c0.171,0.335,0.257,0.704,0.257,1.11c0,0.522-0.142,0.963-0.426,1.321c-0.284,0.358-0.722,0.586-1.315,0.683
			c0.216,0.124,0.38,0.246,0.493,0.367c0.239,0.261,0.465,0.588,0.678,0.979l1.074,2.004H10.76l-0.817-1.532
			c-0.239-0.442-0.436-0.78-0.59-1.015c-0.154-0.235-0.293-0.398-0.416-0.492c-0.122-0.094-0.246-0.159-0.372-0.196
			c-0.093-0.024-0.245-0.035-0.456-0.035H7.162v3.27H6.344z M7.162,27.673h1.757c0.374,0,0.667-0.046,0.876-0.138
			c0.211-0.092,0.372-0.24,0.481-0.442c0.109-0.202,0.164-0.423,0.164-0.66c0-0.348-0.107-0.634-0.319-0.859
			c-0.212-0.225-0.546-0.336-1.004-0.336H7.162V27.673z"/>
		<path fill="#FFFFFF" d="M13.423,27.794c-0.315-0.137-0.549-0.333-0.699-0.588c-0.152-0.255-0.229-0.559-0.229-0.914
			c0-0.536,0.162-0.986,0.485-1.351c0.324-0.365,0.753-0.547,1.289-0.547c0.54,0,0.973,0.187,1.302,0.56s0.492,0.827,0.492,1.364
			c0,0.342-0.074,0.639-0.225,0.891c-0.151,0.252-0.378,0.448-0.684,0.585c0.379,0.147,0.668,0.385,0.865,0.713
			c0.198,0.328,0.298,0.719,0.298,1.175c0,0.629-0.187,1.159-0.56,1.587c-0.374,0.428-0.865,0.643-1.475,0.643
			c-0.609,0-1.101-0.215-1.474-0.645c-0.374-0.431-0.561-0.967-0.561-1.61c0-0.478,0.103-0.88,0.306-1.203
			C12.757,28.131,13.047,27.91,13.423,27.794z M13.027,29.662c0,0.257,0.051,0.507,0.154,0.748c0.102,0.241,0.255,0.428,0.457,0.56
			s0.419,0.198,0.653,0.198c0.362,0,0.662-0.139,0.898-0.417c0.235-0.277,0.353-0.632,0.353-1.06c0-0.436-0.121-0.795-0.364-1.08
			c-0.242-0.285-0.546-0.427-0.912-0.427c-0.357,0-0.653,0.141-0.888,0.422C13.145,28.888,13.027,29.24,13.027,29.662z
			 M13.271,26.262c0,0.348,0.094,0.633,0.283,0.854c0.188,0.221,0.432,0.331,0.733,0.331c0.291,0,0.531-0.109,0.718-0.329
			c0.186-0.22,0.28-0.488,0.28-0.806c0-0.331-0.097-0.61-0.289-0.836c-0.192-0.226-0.432-0.339-0.718-0.339
			c-0.29,0-0.53,0.11-0.721,0.331C13.367,25.689,13.271,25.954,13.271,26.262z"/>
		<path fill="#FFFFFF" d="M17.06,29.843l0.758-0.121c0.087,0.512,0.235,0.881,0.444,1.107c0.208,0.226,0.463,0.339,0.765,0.339
			c0.357,0,0.658-0.147,0.903-0.442c0.246-0.295,0.369-0.659,0.369-1.095c0-0.416-0.114-0.757-0.342-1.027
			C19.73,28.335,19.44,28.2,19.09,28.2c-0.143,0-0.321,0.034-0.535,0.1l0.084-0.794c0.05,0.006,0.092,0.01,0.122,0.01
			c0.323,0,0.614-0.1,0.873-0.301c0.257-0.201,0.387-0.511,0.387-0.929c0-0.331-0.094-0.606-0.281-0.824
			c-0.188-0.217-0.432-0.326-0.729-0.326c-0.295,0-0.541,0.11-0.737,0.331c-0.197,0.221-0.323,0.552-0.379,0.994l-0.758-0.161
			c0.093-0.606,0.304-1.076,0.632-1.409c0.329-0.333,0.737-0.5,1.227-0.5c0.336,0,0.647,0.087,0.93,0.259
			c0.284,0.172,0.501,0.408,0.65,0.706c0.151,0.298,0.226,0.614,0.226,0.949c0,0.318-0.073,0.608-0.216,0.869
			c-0.142,0.261-0.354,0.468-0.635,0.623c0.365,0.1,0.648,0.309,0.851,0.625c0.201,0.316,0.304,0.712,0.304,1.188
			c0,0.643-0.198,1.188-0.59,1.635c-0.393,0.447-0.89,0.67-1.492,0.67c-0.542,0-0.992-0.192-1.35-0.578
			C17.314,30.954,17.11,30.455,17.06,29.843z"/>
		<path fill="#FFFFFF" d="M21.852,29.858l0.796-0.08c0.06,0.462,0.196,0.81,0.412,1.042c0.216,0.232,0.475,0.349,0.778,0.349
			c0.364,0,0.673-0.164,0.927-0.492c0.251-0.328,0.379-0.763,0.379-1.306c0-0.516-0.123-0.923-0.364-1.22
			c-0.244-0.298-0.563-0.447-0.954-0.447c-0.246,0-0.467,0.067-0.663,0.198c-0.196,0.132-0.352,0.304-0.462,0.515l-0.713-0.11
			l0.598-3.782h3.071v0.864h-2.463l-0.334,1.979c0.372-0.308,0.761-0.462,1.168-0.462c0.54,0,0.994,0.222,1.366,0.668
			c0.369,0.446,0.555,1.018,0.555,1.718c0,0.667-0.163,1.242-0.49,1.728c-0.394,0.596-0.937,0.894-1.62,0.894
			c-0.563,0-1.022-0.187-1.376-0.563C22.106,30.974,21.902,30.477,21.852,29.858z"/>
		<path fill="#FFFFFF" d="M26.977,31.786v-7.363h4.465v0.869h-3.649v2.255h3.418v0.864h-3.418v2.506h3.792v0.869H26.977z"/>
	</g>
</g>
</svg>
