<?xml version="1.0" encoding="utf-8"?>
<!-- Generator: Adobe Illustrator 18.0.0, SVG Export Plug-In . SVG Version: 6.00 Build 0)  -->
<!DOCTYPE svg PUBLIC "-//W3C//DTD SVG 1.1//EN" "http://www.w3.org/Graphics/SVG/1.1/DTD/svg11.dtd">
<svg version="1.1" id="图层_1" xmlns="http://www.w3.org/2000/svg" xmlns:xlink="http://www.w3.org/1999/xlink" x="0px" y="0px"
	 width="36px" height="36px" viewBox="0 0 36 36" enable-background="new 0 0 36 36" xml:space="preserve">
<g>
	<g>
		<path fill="#FFFFFF" d="M2.819,35.036c-1.023,0-1.855-0.832-1.855-1.855V2.819c0-1.023,0.832-1.855,1.855-1.855h30.361
			c1.023,0,1.855,0.832,1.855,1.855v30.362c0,1.023-0.832,1.855-1.855,1.855H2.819z"/>
		<path fill="#AFAFAF" d="M33.181,1.428c0.767,0,1.391,0.624,1.391,1.391v30.362c0,0.767-0.624,1.391-1.391,1.391H2.819
			c-0.767,0-1.391-0.624-1.391-1.391V2.819c0-0.767,0.624-1.391,1.391-1.391H33.181 M33.181,0.5H2.819
			C1.538,0.5,0.5,1.538,0.5,2.819v30.362c0,1.281,1.038,2.319,2.319,2.319h30.362c1.281,0,2.319-1.038,2.319-2.319V2.819
			C35.5,1.538,34.462,0.5,33.181,0.5L33.181,0.5z"/>
	</g>
	<g>
		<linearGradient id="SVGID_1_" gradientUnits="userSpaceOnUse" x1="17.9995" y1="33.5004" x2="17.9995" y2="2.4994">
			<stop  offset="0" style="stop-color:#FF1F30"/>
			<stop  offset="1" style="stop-color:#C3020F"/>
		</linearGradient>
		<path fill="url(#SVGID_1_)" d="M2.819,33.5c-0.176,0-0.32-0.144-0.32-0.32V2.819c0-0.176,0.144-0.32,0.32-0.32h30.363
			c0.176,0,0.319,0.144,0.319,0.32v30.361c0,0.176-0.143,0.32-0.319,0.32H2.819z"/>
	</g>
	<g>
		<path fill="#FFFFFF" d="M9.899,22.697c-0.442-0.244-0.906-0.366-1.389-0.366c-0.735,0-1.326,0.344-1.772,1.035
			S6.066,25,6.059,26.193h0.027c0.403-0.84,1.045-1.26,1.926-1.26c0.735,0,1.323,0.259,1.76,0.774
			c0.439,0.518,0.659,1.204,0.659,2.061c0,0.894-0.254,1.631-0.759,2.205c-0.508,0.576-1.155,0.864-1.941,0.864
			c-0.862,0-1.541-0.364-2.034-1.091c-0.491-0.728-0.737-1.76-0.737-3.096c0-1.619,0.322-2.903,0.969-3.855
			c0.645-0.952,1.494-1.428,2.549-1.428c0.603,0,1.077,0.088,1.421,0.266V22.697z M6.125,27.685c0,0.603,0.149,1.121,0.447,1.55
			s0.693,0.645,1.187,0.645c0.469,0,0.85-0.186,1.143-0.557s0.439-0.847,0.439-1.431c0-0.632-0.139-1.123-0.415-1.475
			s-0.669-0.525-1.177-0.525c-0.483,0-0.874,0.176-1.174,0.532C6.274,26.779,6.125,27.199,6.125,27.685z"/>
		<path fill="#FFFFFF" d="M11.877,29.277c0.569,0.4,1.165,0.603,1.782,0.603c0.586,0,1.057-0.178,1.416-0.53
			c0.359-0.354,0.537-0.823,0.537-1.406c0-0.586-0.181-1.042-0.544-1.365c-0.364-0.325-0.891-0.486-1.584-0.486
			c-0.332,0-0.781,0.027-1.343,0.083v-4.656h4.18v1.023h-3.181v2.59c0.317-0.02,0.557-0.029,0.718-0.029
			c0.896,0,1.597,0.244,2.097,0.735c0.5,0.488,0.752,1.162,0.752,2.021c0,0.889-0.269,1.606-0.808,2.153
			c-0.537,0.549-1.279,0.823-2.227,0.823c-0.796,0-1.394-0.125-1.794-0.378V29.277z"/>
		<path fill="#FFFFFF" d="M17.995,26.281c0-1.616,0.249-2.839,0.747-3.669s1.218-1.245,2.163-1.245c1.799,0,2.7,1.565,2.7,4.697
			c0,1.545-0.254,2.727-0.762,3.545c-0.505,0.82-1.216,1.228-2.131,1.228c-0.864,0-1.533-0.388-2.007-1.165
			S17.995,27.766,17.995,26.281z M19.094,26.23c0,2.432,0.571,3.65,1.716,3.65c1.128,0,1.692-1.238,1.692-3.711
			c0-2.559-0.552-3.838-1.658-3.838C19.677,22.331,19.094,23.63,19.094,26.23z"/>
		<path fill="#FFFFFF" d="M31.486,26.95c0,2.593-1.091,3.887-3.271,3.887c-2.09,0-3.132-1.25-3.132-3.75v-5.566h1.096v5.513
			c0,1.833,0.713,2.751,2.141,2.751c1.379,0,2.068-0.889,2.068-2.661v-5.603h1.099V26.95z"/>
	</g>
	<g>
		<g>
			<polygon fill="#FDFEFD" points="11.899,16.596 13.329,12.797 15.905,17.257 			"/>
			
				<rect x="13.737" y="13.093" transform="matrix(0.866 -0.5 0.5 0.866 -4.7095 10.1675)" fill="#FDFEFD" width="5.761" height="1.557"/>
		</g>
		<g>
			<polygon fill="#FDFEFD" points="7.717,12.037 9.148,8.238 11.723,12.698 			"/>
			
				<rect x="9.556" y="8.534" transform="matrix(0.866 -0.5 0.5 0.866 -2.9903 7.4658)" fill="#FDFEFD" width="5.761" height="1.557"/>
		</g>
		<g>
			<polygon fill="#FDFEFD" points="27.765,10.328 23.76,9.667 26.335,14.127 			"/>
			
				<rect x="20.166" y="12.274" transform="matrix(-0.866 0.5 -0.5 -0.866 49.5315 12.8328)" fill="#FDFEFD" width="5.761" height="1.557"/>
		</g>
		<g>
			<polygon fill="#FDFEFD" points="23.583,5.769 19.578,5.108 22.153,9.568 			"/>
			
				<rect x="15.984" y="7.715" transform="matrix(-0.866 0.5 -0.5 -0.866 39.4485 6.4163)" fill="#FDFEFD" width="5.761" height="1.557"/>
		</g>
	</g>
</g>
</svg>
