<?xml version="1.0" encoding="utf-8"?>
<!-- Generator: Adobe Illustrator 18.0.0, SVG Export Plug-In . SVG Version: 6.00 Build 0)  -->
<!DOCTYPE svg PUBLIC "-//W3C//DTD SVG 1.1//EN" "http://www.w3.org/Graphics/SVG/1.1/DTD/svg11.dtd">
<svg version="1.1" id="图层_1" xmlns="http://www.w3.org/2000/svg" xmlns:xlink="http://www.w3.org/1999/xlink" x="0px" y="0px"
	 width="42px" height="42px" viewBox="0 0 42 42" enable-background="new 0 0 42 42" xml:space="preserve">
<g>
	<g>
		<path fill="#FFFFFF" d="M3.65,40.47c-1.169,0-2.12-0.951-2.12-2.12V3.65c0-1.169,0.951-2.12,2.12-2.12H38.35
			c1.169,0,2.12,0.951,2.12,2.12V38.35c0,1.169-0.951,2.12-2.12,2.12H3.65z"/>
		<path fill="#AFAFAF" d="M38.35,2.06c0.877,0,1.59,0.713,1.59,1.59V38.35c0,0.877-0.713,1.59-1.59,1.59H3.65
			c-0.877,0-1.59-0.713-1.59-1.59V3.65c0-0.877,0.713-1.59,1.59-1.59H38.35 M38.35,1H3.65C2.187,1,1,2.187,1,3.65V38.35
			C1,39.813,2.187,41,3.65,41H38.35c1.464,0,2.65-1.187,2.65-2.65V3.65C41,2.187,39.813,1,38.35,1L38.35,1z"/>
	</g>
	<g>
		<linearGradient id="SVGID_1_" gradientUnits="userSpaceOnUse" x1="20.9994" y1="38.7147" x2="20.9994" y2="3.285">
			<stop  offset="0" style="stop-color:#00AEF9"/>
			<stop  offset="1" style="stop-color:#0092E1"/>
		</linearGradient>
		<path fill="url(#SVGID_1_)" d="M3.65,38.715c-0.201,0-0.366-0.165-0.366-0.366V3.651c0-0.201,0.165-0.366,0.366-0.366h34.7
			c0.201,0,0.364,0.165,0.364,0.366v34.699c0,0.201-0.163,0.366-0.364,0.366H3.65z"/>
	</g>
	<g>
		<path fill="#FFFFFF" d="M12.996,28.132c-0.429-0.238-0.878-0.356-1.347-0.356c-0.713,0-1.286,0.335-1.719,1.004
			c-0.433,0.67-0.651,1.584-0.658,2.743h0.026c0.391-0.814,1.013-1.222,1.868-1.222c0.713,0,1.283,0.25,1.707,0.75
			c0.426,0.502,0.639,1.167,0.639,1.997c0,0.868-0.246,1.581-0.736,2.139c-0.492,0.559-1.12,0.838-1.882,0.838
			c-0.836,0-1.494-0.353-1.972-1.058c-0.476-0.705-0.715-1.707-0.715-3.003c0-1.568,0.313-2.814,0.94-3.737
			c0.625-0.924,1.449-1.386,2.472-1.386c0.585,0,1.044,0.086,1.378,0.258V28.132z M9.336,32.967c0,0.585,0.144,1.087,0.433,1.503
			c0.289,0.417,0.672,0.625,1.151,0.625c0.455,0,0.824-0.18,1.108-0.54c0.284-0.359,0.426-0.821,0.426-1.387
			c0-0.612-0.135-1.089-0.402-1.429c-0.268-0.341-0.649-0.51-1.141-0.51c-0.469,0-0.848,0.172-1.139,0.516
			C9.48,32.09,9.336,32.497,9.336,32.967z"/>
		<path fill="#FFFFFF" d="M16.301,31.2c-0.982-0.492-1.473-1.209-1.473-2.145c0-0.655,0.23-1.186,0.691-1.598
			c0.462-0.411,1.049-0.617,1.766-0.617c0.656,0,1.198,0.193,1.624,0.58c0.426,0.386,0.639,0.885,0.639,1.497
			c0,0.986-0.514,1.745-1.539,2.277v0.022c1.203,0.466,1.804,1.262,1.804,2.386c0,0.737-0.249,1.326-0.743,1.764
			s-1.186,0.657-2.071,0.657c-0.727,0-1.321-0.215-1.778-0.649c-0.457-0.432-0.687-0.992-0.687-1.681
			c0-1.132,0.589-1.955,1.766-2.472V31.2z M17.11,31.734c-1.018,0.444-1.527,1.078-1.527,1.905c0,0.429,0.149,0.78,0.447,1.056
			c0.298,0.275,0.687,0.413,1.165,0.413c0.464,0,0.843-0.137,1.134-0.411s0.436-0.614,0.436-1.024
			C18.765,32.812,18.214,32.166,17.11,31.734z M18.493,29.049c0-0.398-0.114-0.711-0.346-0.941c-0.23-0.23-0.542-0.343-0.935-0.343
			c-0.369,0-0.684,0.12-0.942,0.357c-0.26,0.239-0.388,0.545-0.388,0.915c0,0.742,0.431,1.307,1.293,1.693
			C18.055,30.336,18.493,29.776,18.493,29.049z"/>
		<path fill="#FFFFFF" d="M20.846,31.607c0-1.567,0.241-2.753,0.724-3.559c0.481-0.805,1.181-1.207,2.095-1.207
			c1.747,0,2.618,1.519,2.618,4.555c0,1.5-0.246,2.646-0.736,3.439c-0.492,0.794-1.181,1.191-2.067,1.191
			c-0.838,0-1.487-0.376-1.946-1.13C21.076,34.142,20.846,33.045,20.846,31.607z M21.909,31.556c0,2.359,0.556,3.539,1.667,3.539
			c1.094,0,1.638-1.199,1.638-3.597c0-2.481-0.535-3.723-1.607-3.723C22.475,27.776,21.909,29.036,21.909,31.556z"/>
		<path fill="#FFFFFF" d="M34.028,26.99L31,35.876h-1.181l-2.971-8.886h1.181l2.221,6.947c0.073,0.23,0.128,0.495,0.163,0.798h0.028
			c0.028-0.264,0.09-0.534,0.185-0.81l2.263-6.935H34.028z"/>
	</g>
	<g>
		<g>
			<polygon fill="#FDFEFD" points="13.073,22.334 13.459,18.417 16.991,21.948 			"/>
			
				<rect x="13.779" y="17.272" transform="matrix(0.7071 -0.7071 0.7071 0.7071 -7.6563 17.5699)" fill="#FDFEFD" width="7.203" height="1.51"/>
		</g>
		<g>
			<polygon fill="#FDFEFD" points="28.927,6.481 25.009,6.867 28.541,10.399 			"/>
			
				<rect x="21.018" y="10.033" transform="matrix(-0.7071 0.7071 -0.7071 -0.7071 49.6561 1.0085)" fill="#FDFEFD" width="7.203" height="1.51"/>
		</g>
		<g>
			<polygon fill="#FDFEFD" points="28.927,6.481 28.541,10.399 25.009,6.867 			"/>
			
				<rect x="21.018" y="10.033" transform="matrix(-0.7071 0.7071 -0.7071 -0.7071 49.6561 1.0085)" fill="#FDFEFD" width="7.203" height="1.51"/>
		</g>
		<g>
			<polygon fill="#FDFEFD" points="13.073,22.334 16.991,21.948 13.459,18.417 			"/>
			
				<rect x="13.779" y="17.272" transform="matrix(0.7071 -0.7071 0.7071 0.7071 -7.6563 17.5699)" fill="#FDFEFD" width="7.203" height="1.51"/>
		</g>
		<g>
			<polygon fill="#FDFEFD" points="22.073,15.48 25.99,15.866 22.459,19.398 			"/>
			
				<rect x="22.779" y="19.033" transform="matrix(0.7071 0.7071 -0.7071 0.7071 21.7187 -12.8579)" fill="#FDFEFD" width="7.203" height="1.51"/>
		</g>
		<g>
			<polygon fill="#FDFEFD" points="19.927,13.335 19.541,9.417 16.009,12.949 			"/>
			
				<rect x="12.018" y="8.272" transform="matrix(-0.7071 -0.7071 0.7071 -0.7071 20.2811 26.4554)" fill="#FDFEFD" width="7.203" height="1.51"/>
		</g>
	</g>
</g>
</svg>
