<?xml version="1.0" encoding="utf-8"?>
<!-- Generator: Adobe Illustrator 18.0.0, SVG Export Plug-In . SVG Version: 6.00 Build 0)  -->
<!DOCTYPE svg PUBLIC "-//W3C//DTD SVG 1.1//EN" "http://www.w3.org/Graphics/SVG/1.1/DTD/svg11.dtd">
<svg version="1.1" id="图层_1" xmlns="http://www.w3.org/2000/svg" xmlns:xlink="http://www.w3.org/1999/xlink" x="0px" y="0px"
	 width="36px" height="36px" viewBox="0 0 36 36" enable-background="new 0 0 36 36" xml:space="preserve">
<g>
	<path fill="#FFFFFF" d="M2.386,35.522c-1.053,0-1.908-0.855-1.908-1.908V2.385c0-1.052,0.855-1.908,1.908-1.908h31.229
		c1.053,0,1.908,0.856,1.908,1.908v31.229c0,1.053-0.855,1.908-1.908,1.908H2.386z"/>
	<path fill="#AFAFAF" d="M33.615,0.954c0.789,0,1.431,0.642,1.431,1.431v31.229c0,0.789-0.642,1.431-1.431,1.431H2.385
		c-0.789,0-1.431-0.642-1.431-1.431V2.385c0-0.789,0.642-1.431,1.431-1.431H33.615 M33.615,0H2.385C1.068,0,0,1.068,0,2.385v31.229
		C0,34.932,1.068,36,2.385,36h31.229C34.932,36,36,34.932,36,33.615V2.385C36,1.068,34.932,0,33.615,0L33.615,0z"/>
</g>
<g>
	<linearGradient id="SVGID_1_" gradientUnits="userSpaceOnUse" x1="17.9995" y1="33.9432" x2="17.9995" y2="2.0565">
		<stop  offset="0" style="stop-color:#FF1F30"/>
		<stop  offset="1" style="stop-color:#C3020F"/>
	</linearGradient>
	<path fill="url(#SVGID_1_)" d="M2.385,33.943c-0.181,0-0.329-0.148-0.329-0.329V2.385c0-0.181,0.148-0.329,0.329-0.329h31.23
		c0.181,0,0.328,0.148,0.328,0.329v31.229c0,0.181-0.147,0.329-0.328,0.329H2.385z"/>
</g>
<g>
	<path fill="#FFFFFF" d="M6.514,31.786v-7.362h3.265c0.656,0,1.155,0.065,1.496,0.198c0.342,0.132,0.615,0.365,0.819,0.7
		s0.306,0.705,0.306,1.11c0,0.522-0.169,0.962-0.507,1.32s-0.86,0.586-1.567,0.684c0.258,0.124,0.454,0.246,0.588,0.366
		c0.285,0.262,0.555,0.588,0.809,0.979l1.281,2.004h-1.226l-0.975-1.532c-0.284-0.441-0.519-0.779-0.703-1.014
		s-0.349-0.398-0.495-0.492c-0.146-0.094-0.293-0.159-0.444-0.196c-0.11-0.023-0.291-0.035-0.542-0.035h-1.13v3.27H6.514z
		 M7.488,27.673h2.094c0.445,0,0.794-0.046,1.045-0.138c0.251-0.093,0.442-0.24,0.572-0.442c0.131-0.202,0.196-0.423,0.196-0.66
		c0-0.349-0.127-0.635-0.379-0.859c-0.253-0.224-0.652-0.336-1.198-0.336h-2.33V27.673z"/>
	<path fill="#FFFFFF" d="M14.951,27.793c-0.375-0.137-0.653-0.333-0.834-0.587c-0.181-0.255-0.271-0.56-0.271-0.914
		c0-0.536,0.192-0.986,0.578-1.352c0.385-0.364,0.897-0.547,1.536-0.547c0.644,0,1.16,0.187,1.553,0.56
		c0.392,0.373,0.587,0.828,0.587,1.363c0,0.342-0.089,0.639-0.269,0.892c-0.179,0.253-0.451,0.448-0.816,0.585
		c0.452,0.147,0.797,0.386,1.032,0.714c0.236,0.328,0.354,0.72,0.354,1.175c0,0.63-0.223,1.158-0.668,1.587
		s-1.031,0.644-1.758,0.644s-1.313-0.216-1.758-0.646c-0.445-0.431-0.668-0.967-0.668-1.61c0-0.479,0.121-0.879,0.364-1.202
		C14.156,28.131,14.502,27.91,14.951,27.793z M14.479,29.662c0,0.258,0.062,0.507,0.184,0.748s0.304,0.428,0.545,0.56
		c0.241,0.133,0.501,0.198,0.778,0.198c0.432,0,0.789-0.139,1.07-0.416c0.281-0.278,0.422-0.632,0.422-1.061
		c0-0.435-0.146-0.795-0.435-1.079c-0.29-0.285-0.652-0.427-1.088-0.427c-0.425,0-0.777,0.141-1.057,0.422
		C14.618,28.889,14.479,29.24,14.479,29.662z M14.771,26.262c0,0.348,0.111,0.633,0.336,0.854s0.516,0.332,0.874,0.332
		c0.349,0,0.634-0.11,0.856-0.329c0.223-0.22,0.334-0.488,0.334-0.807c0-0.331-0.115-0.61-0.344-0.836
		c-0.229-0.226-0.516-0.339-0.856-0.339c-0.345,0-0.632,0.11-0.859,0.331C14.884,25.689,14.771,25.953,14.771,26.262z"/>
	<path fill="#FFFFFF" d="M22.179,31.786v-1.763h-3.194v-0.829l3.359-4.771h0.738v4.771h0.995v0.829h-0.995v1.763H22.179z
		 M22.179,29.194v-3.319l-2.306,3.319H22.179z"/>
	<path fill="#FFFFFF" d="M25.001,28.155c0-0.871,0.09-1.571,0.269-2.103c0.18-0.53,0.445-0.939,0.799-1.228s0.798-0.432,1.333-0.432
		c0.396,0,0.742,0.079,1.04,0.238s0.544,0.389,0.738,0.688c0.194,0.299,0.347,0.664,0.457,1.095c0.11,0.43,0.166,1.01,0.166,1.74
		c0,0.863-0.089,1.561-0.267,2.092c-0.178,0.53-0.442,0.94-0.796,1.23c-0.354,0.289-0.8,0.435-1.339,0.435
		c-0.709,0-1.267-0.255-1.672-0.764C25.244,30.535,25.001,29.538,25.001,28.155z M25.931,28.155c0,1.208,0.141,2.013,0.424,2.413
		s0.632,0.6,1.047,0.6c0.416,0,0.765-0.2,1.048-0.603c0.282-0.401,0.424-1.205,0.424-2.41c0-1.212-0.142-2.018-0.424-2.416
		c-0.283-0.398-0.636-0.598-1.058-0.598c-0.415,0-0.746,0.176-0.994,0.527C26.086,26.117,25.931,26.946,25.931,28.155z"/>
</g>
<g>
	<g>
		<g>
			<polygon fill="#F6F6F6" points="27.896,12.564 24.797,10.021 24.797,15.107 			"/>
			<rect x="21.232" y="11.795" fill="#F6F6F6" width="4.128" height="1.538"/>
		</g>
		<g>
			<polygon fill="#F6F6F6" points="8.103,12.564 11.202,10.021 11.202,15.107 			"/>
			<rect x="10.639" y="11.795" fill="#F6F6F6" width="4.128" height="1.538"/>
		</g>
	</g>
	<g>
		<g>
			<polygon fill="#F6F6F6" points="18,2.667 15.456,5.767 20.543,5.767 			"/>
			<rect x="17.231" y="5.204" fill="#F6F6F6" width="1.538" height="4.128"/>
		</g>
		<g>
			<polygon fill="#F6F6F6" points="18,22.461 15.456,19.362 20.543,19.362 			"/>
			<rect x="17.231" y="15.797" fill="#F6F6F6" width="1.538" height="4.128"/>
		</g>
	</g>
	<path fill="#F6F6F6" d="M17.999,9.505c1.687,0,3.06,1.373,3.06,3.06s-1.373,3.06-3.06,3.06c-1.687,0-3.06-1.373-3.06-3.06
		S16.312,9.505,17.999,9.505 M17.999,7.776c-2.644,0-4.788,2.144-4.788,4.788s2.144,4.788,4.788,4.788s4.788-2.144,4.788-4.788
		S20.644,7.776,17.999,7.776L17.999,7.776z"/>
</g>
</svg>
