<?xml version="1.0" encoding="utf-8"?>
<!-- Generator: Adobe Illustrator 18.0.0, SVG Export Plug-In . SVG Version: 6.00 Build 0)  -->
<!DOCTYPE svg PUBLIC "-//W3C//DTD SVG 1.1//EN" "http://www.w3.org/Graphics/SVG/1.1/DTD/svg11.dtd">
<svg version="1.1" id="图层_1" xmlns="http://www.w3.org/2000/svg" xmlns:xlink="http://www.w3.org/1999/xlink" x="0px" y="0px"
	 width="32px" height="32px" viewBox="0 0 32 32" enable-background="new 0 0 32 32" xml:space="preserve">
<g>
	<g>
		<path fill="#FFFFFF" d="M1.92,29.145c-0.847,0-1.536-0.689-1.536-1.536v-22.4c0-0.847,0.689-1.536,1.536-1.536h28.16
			c0.847,0,1.536,0.689,1.536,1.536v22.4c0,0.847-0.689,1.536-1.536,1.536H1.92z"/>
		<path fill="#AFAFAF" d="M30.08,4.057c0.635,0,1.152,0.517,1.152,1.152v22.4c0,0.635-0.517,1.152-1.152,1.152H1.92
			c-0.635,0-1.152-0.517-1.152-1.152v-22.4c0-0.635,0.517-1.152,1.152-1.152H30.08 M30.08,3.289H1.92C0.86,3.289,0,4.148,0,5.209
			v22.4c0,1.06,0.86,1.92,1.92,1.92h28.16c1.06,0,1.92-0.86,1.92-1.92v-22.4C32,4.148,31.14,3.289,30.08,3.289L30.08,3.289z"/>
	</g>
	<path fill="#C4C4C4" d="M28.827,27.502H3.173c-0.633,0-1.147-0.513-1.147-1.147V6.462c0-0.633,0.513-1.147,1.147-1.147h25.653
		c0.633,0,1.147,0.513,1.147,1.147v19.893C29.973,26.989,29.46,27.502,28.827,27.502z"/>
	<g>
		<path fill="#FFFFFF" d="M8.453,19.465c-0.404-0.208-0.828-0.311-1.269-0.311c-0.673,0-1.213,0.292-1.621,0.879
			c-0.407,0.585-0.615,1.384-0.622,2.397h0.026c0.367-0.712,0.955-1.069,1.761-1.069c0.671,0,1.209,0.22,1.61,0.658
			c0.401,0.439,0.602,1.02,0.602,1.746c0,0.76-0.232,1.384-0.695,1.871c-0.464,0.489-1.055,0.732-1.774,0.732
			c-0.79,0-1.41-0.309-1.859-0.925c-0.45-0.618-0.675-1.493-0.675-2.628c0-1.371,0.295-2.461,0.885-3.269s1.367-1.211,2.331-1.211
			c0.551,0,0.985,0.075,1.299,0.225V19.465z M5.001,23.695c0,0.511,0.136,0.95,0.409,1.315c0.273,0.364,0.635,0.546,1.086,0.546
			c0.427,0,0.776-0.157,1.044-0.471c0.267-0.315,0.401-0.72,0.401-1.215c0-0.535-0.126-0.951-0.379-1.249
			c-0.253-0.297-0.611-0.446-1.076-0.446c-0.441,0-0.8,0.15-1.074,0.451C5.137,22.928,5.001,23.284,5.001,23.695z"/>
		<path fill="#FFFFFF" d="M14.775,26.239H10.32v-0.847h1.741V19.49l-1.786,0.516v-0.903l2.764-0.802v7.09h1.736V26.239z"/>
		<path fill="#FFFFFF" d="M15.854,22.505c0-1.371,0.227-2.409,0.682-3.113c0.455-0.705,1.114-1.056,1.978-1.056
			c1.645,0,2.469,1.327,2.469,3.984c0,1.311-0.233,2.314-0.695,3.008c-0.464,0.695-1.114,1.041-1.95,1.041
			c-0.789,0-1.4-0.329-1.834-0.987C16.071,24.721,15.854,23.764,15.854,22.505z M16.858,22.46c0,2.065,0.524,3.096,1.571,3.096
			c1.03,0,1.545-1.049,1.545-3.146c0-2.171-0.505-3.256-1.515-3.256C17.391,19.154,16.858,20.256,16.858,22.46z"/>
		<path fill="#FFFFFF" d="M28.534,26.239h-1.109l-0.792-2.128h-3.236l-0.749,2.128h-1.109l2.961-7.772h1.074L28.534,26.239z
			 M26.321,23.234l-1.175-3.233c-0.036-0.103-0.076-0.284-0.12-0.541h-0.025c-0.036,0.234-0.079,0.415-0.125,0.541l-1.165,3.233
			H26.321z"/>
	</g>
	<polygon fill="#FDFEFD" points="26.183,9.612 22.435,6.515 22.435,8.32 16.764,8.32 16.764,10.72 22.435,10.72 22.435,12.709 	"/>
	<polygon fill="#FDFEFD" points="7.484,13.292 11.232,10.195 11.232,12 16.903,12 16.903,14.4 11.232,14.4 11.232,16.389 	"/>
	<g>
		<g>
			<path fill="#FFFFFF" d="M21.255,15.696v-0.679h2.074v0.679H21.255z"/>
			<path fill="#FFFFFF" d="M26.43,17.346h-0.675v-4.301c-0.162,0.155-0.376,0.31-0.639,0.465c-0.265,0.155-0.501,0.271-0.711,0.349
				v-0.653c0.377-0.177,0.707-0.392,0.99-0.645c0.282-0.253,0.483-0.498,0.6-0.735h0.435V17.346z"/>
		</g>
	</g>
</g>
</svg>
