<?xml version="1.0" encoding="utf-8"?>
<!-- Generator: Adobe Illustrator 18.0.0, SVG Export Plug-In . SVG Version: 6.00 Build 0)  -->
<!DOCTYPE svg PUBLIC "-//W3C//DTD SVG 1.1//EN" "http://www.w3.org/Graphics/SVG/1.1/DTD/svg11.dtd">
<svg version="1.1" id="图层_1" xmlns="http://www.w3.org/2000/svg" xmlns:xlink="http://www.w3.org/1999/xlink" x="0px" y="0px"
	 width="42px" height="42px" viewBox="0 0 42 42" enable-background="new 0 0 42 42" xml:space="preserve">
<g>
	<path fill="#FFFFFF" d="M3.681,40.399c-1.167,0-2.117-0.949-2.117-2.116V3.646c0-1.168,0.949-2.117,2.117-2.117h34.638
		c1.167,0,2.117,0.949,2.117,2.117v34.638c0,1.167-0.949,2.116-2.117,2.116H3.681z"/>
	<path fill="#AFAFAF" d="M38.319,2.058c0.875,0,1.587,0.712,1.587,1.587v34.638c0,0.875-0.712,1.587-1.587,1.587H3.681
		c-0.875,0-1.587-0.712-1.587-1.587V3.645c0-0.875,0.712-1.587,1.587-1.587H38.319 M38.319,0.999H3.681
		c-1.461,0-2.646,1.185-2.646,2.646v34.638c0,1.461,1.184,2.646,2.646,2.646h34.638c1.461,0,2.646-1.185,2.646-2.646V3.645
		C40.965,2.184,39.78,0.999,38.319,0.999L38.319,0.999z"/>
</g>
<g>
	<linearGradient id="SVGID_1_" gradientUnits="userSpaceOnUse" x1="20.9994" y1="38.6474" x2="20.9994" y2="3.2804">
		<stop  offset="0" style="stop-color:#76797A"/>
		<stop  offset="1" style="stop-color:#5F6263"/>
	</linearGradient>
	<path fill="url(#SVGID_1_)" d="M3.681,38.647c-0.201,0-0.365-0.164-0.365-0.365V3.645c0-0.201,0.164-0.365,0.365-0.365h34.639
		c0.201,0,0.363,0.164,0.363,0.365v34.637c0,0.201-0.163,0.365-0.363,0.365H3.681z"/>
</g>
<g>
	<g>
		<g>
			<polygon fill="#F5F5F5" points="8.838,9.527 11.973,6.936 11.973,12.118 			"/>
			<path fill="#F5F5F5" d="M20.48,15.838c-1.596-1.885-2.619-3.19-3.125-3.985c-0.686-1.079-1.216-1.274-1.395-1.286l-4.749,0.028
				V8.393h4.417c0.6-0.087,2.109-0.037,3.584,2.278c0.307,0.482,1.067,1.524,2.947,3.745L20.48,15.838z"/>
		</g>
		<g>
			<polygon fill="#F5F5F5" points="33.161,19.73 30.026,22.321 30.026,17.14 			"/>
			<path fill="#F5F5F5" d="M21.519,13.42c1.596,1.885,2.619,3.19,3.125,3.985c0.686,1.079,1.216,1.274,1.395,1.286l4.749-0.028
				v2.201h-4.417c-0.6,0.087-2.109,0.037-3.584-2.278c-0.307-0.482-1.067-1.524-2.947-3.745L21.519,13.42z"/>
		</g>
	</g>
	<g>
		<g>
			<polygon fill="#F5F5F5" points="33.161,9.527 30.026,6.936 30.026,12.118 			"/>
			<path fill="#F5F5F5" d="M21.519,15.838c1.596-1.885,2.619-3.19,3.125-3.985c0.686-1.079,1.216-1.274,1.395-1.286l4.749,0.028
				V8.393h-4.417c-0.6-0.087-2.109-0.037-3.584,2.278c-0.307,0.482-1.067,1.524-2.947,3.745L21.519,15.838z"/>
		</g>
		<g>
			<polygon fill="#F5F5F5" points="8.838,19.73 11.973,22.321 11.973,17.14 			"/>
			<path fill="#F5F5F5" d="M20.48,13.42c-1.596,1.885-2.619,3.19-3.125,3.985c-0.686,1.079-1.216,1.274-1.395,1.286l-4.749-0.028
				v2.201h4.417c0.6,0.087,2.109,0.037,3.584-2.278c0.307-0.482,1.067-1.524,2.947-3.745L20.48,13.42z"/>
		</g>
	</g>
</g>
<g>
	<path fill="#FFFFFF" d="M7.256,35.398v-7.939h4.969v0.937H8.231v2.459h3.457v0.938H8.231v3.606H7.256z"/>
	<path fill="#FFFFFF" d="M13.129,33.303l0.904-0.13c0.104,0.552,0.28,0.95,0.53,1.194c0.25,0.243,0.553,0.365,0.912,0.365
		c0.425,0,0.785-0.159,1.078-0.477s0.44-0.711,0.44-1.181c0-0.448-0.136-0.817-0.407-1.107c-0.271-0.291-0.616-0.437-1.035-0.437
		c-0.171,0-0.384,0.036-0.638,0.108l0.101-0.855c0.06,0.007,0.108,0.011,0.146,0.011c0.385,0,0.732-0.108,1.04-0.325
		c0.308-0.216,0.462-0.55,0.462-1.002c0-0.357-0.112-0.653-0.337-0.888s-0.514-0.353-0.869-0.353c-0.352,0-0.645,0.119-0.879,0.357
		s-0.385,0.597-0.452,1.073l-0.904-0.174c0.11-0.653,0.362-1.16,0.754-1.52c0.392-0.358,0.879-0.538,1.462-0.538
		c0.402,0,0.772,0.093,1.11,0.278c0.338,0.187,0.597,0.439,0.776,0.761c0.179,0.322,0.269,0.663,0.269,1.024
		c0,0.343-0.085,0.655-0.256,0.937s-0.424,0.506-0.758,0.672c0.435,0.108,0.773,0.333,1.015,0.674
		c0.241,0.342,0.362,0.769,0.362,1.281c0,0.693-0.234,1.28-0.704,1.763c-0.469,0.481-1.062,0.723-1.778,0.723
		c-0.646,0-1.183-0.207-1.61-0.623C13.433,34.501,13.189,33.963,13.129,33.303z"/>
	<path fill="#FFFFFF" d="M18.847,31.482c0-0.938,0.089-1.693,0.269-2.266s0.445-1.014,0.799-1.324s0.798-0.466,1.334-0.466
		c0.395,0,0.742,0.086,1.04,0.257c0.298,0.172,0.544,0.419,0.739,0.742c0.194,0.323,0.347,0.717,0.457,1.181
		s0.166,1.089,0.166,1.876c0,0.932-0.089,1.684-0.267,2.256s-0.443,1.015-0.796,1.327s-0.8,0.469-1.339,0.469
		c-0.71,0-1.268-0.274-1.673-0.823C19.09,34.05,18.847,32.974,18.847,31.482z M19.776,31.482c0,1.304,0.142,2.171,0.425,2.603
		c0.283,0.432,0.632,0.647,1.047,0.647s0.765-0.217,1.047-0.65c0.283-0.433,0.425-1.3,0.425-2.6c0-1.307-0.142-2.175-0.425-2.604
		c-0.283-0.43-0.635-0.645-1.058-0.645c-0.415,0-0.747,0.189-0.995,0.568C19.932,29.286,19.776,30.18,19.776,31.482z"/>
	<path fill="#FFFFFF" d="M24.57,31.482c0-0.938,0.089-1.693,0.269-2.266s0.445-1.014,0.799-1.324s0.798-0.466,1.334-0.466
		c0.395,0,0.742,0.086,1.04,0.257c0.298,0.172,0.544,0.419,0.739,0.742c0.194,0.323,0.347,0.717,0.457,1.181
		s0.166,1.089,0.166,1.876c0,0.932-0.089,1.684-0.267,2.256s-0.443,1.015-0.796,1.327s-0.8,0.469-1.339,0.469
		c-0.71,0-1.268-0.274-1.673-0.823C24.813,34.05,24.57,32.974,24.57,31.482z M25.499,31.482c0,1.304,0.142,2.171,0.425,2.603
		c0.283,0.432,0.632,0.647,1.047,0.647s0.765-0.217,1.047-0.65c0.283-0.433,0.425-1.3,0.425-2.6c0-1.307-0.142-2.175-0.425-2.604
		c-0.283-0.43-0.635-0.645-1.058-0.645c-0.415,0-0.747,0.189-0.995,0.568C25.655,29.286,25.499,30.18,25.499,31.482z"/>
	<path fill="#FFFFFF" d="M30.292,31.482c0-0.938,0.089-1.693,0.269-2.266s0.445-1.014,0.799-1.324s0.798-0.466,1.334-0.466
		c0.395,0,0.742,0.086,1.04,0.257c0.298,0.172,0.544,0.419,0.739,0.742c0.194,0.323,0.347,0.717,0.457,1.181
		s0.166,1.089,0.166,1.876c0,0.932-0.089,1.684-0.267,2.256s-0.443,1.015-0.796,1.327s-0.8,0.469-1.339,0.469
		c-0.71,0-1.268-0.274-1.673-0.823C30.535,34.05,30.292,32.974,30.292,31.482z M31.222,31.482c0,1.304,0.142,2.171,0.425,2.603
		c0.283,0.432,0.632,0.647,1.047,0.647s0.765-0.217,1.047-0.65c0.283-0.433,0.425-1.3,0.425-2.6c0-1.307-0.142-2.175-0.425-2.604
		c-0.283-0.43-0.635-0.645-1.058-0.645c-0.415,0-0.747,0.189-0.995,0.568C31.377,29.286,31.222,30.18,31.222,31.482z"/>
</g>
</svg>
