<?xml version="1.0" encoding="utf-8"?>
<!-- Generator: Adobe Illustrator 18.0.0, SVG Export Plug-In . SVG Version: 6.00 Build 0)  -->
<!DOCTYPE svg PUBLIC "-//W3C//DTD SVG 1.1//EN" "http://www.w3.org/Graphics/SVG/1.1/DTD/svg11.dtd">
<svg version="1.1" id="图层_1" xmlns="http://www.w3.org/2000/svg" xmlns:xlink="http://www.w3.org/1999/xlink" x="0px" y="0px"
	 width="42px" height="42px" viewBox="0 0 42 42" enable-background="new 0 0 42 42" xml:space="preserve">
<g>
	<path fill="#FFFFFF" d="M3.711,40.332c-1.165,0-2.113-0.948-2.113-2.113V3.641c0-1.165,0.948-2.113,2.113-2.113h34.578
		c1.165,0,2.113,0.948,2.113,2.113v34.578c0,1.165-0.948,2.113-2.113,2.113H3.711z"/>
	<path fill="#AFAFAF" d="M38.289,2.056c0.874,0,1.585,0.711,1.585,1.585v34.578c0,0.874-0.711,1.585-1.585,1.585H3.711
		c-0.874,0-1.585-0.711-1.585-1.585V3.641c0-0.874,0.711-1.585,1.585-1.585H38.289 M38.289,1H3.711C2.252,1,1.07,2.182,1.07,3.641
		v34.578c0,1.459,1.182,2.641,2.641,2.641h34.578c1.459,0,2.641-1.182,2.641-2.641V3.641C40.93,2.182,39.748,1,38.289,1L38.289,1z"
		/>
</g>
<g>
	<path fill="#C4C4C4" d="M3.711,38.583c-0.2,0-0.364-0.164-0.364-0.364V3.641c0-0.2,0.164-0.364,0.364-0.364h34.579
		c0.2,0,0.363,0.164,0.363,0.364v34.577c0,0.2-0.163,0.364-0.363,0.364H3.711z"/>
</g>
<g>
	<g>
		<g>
			<polygon fill="#F5F5F5" points="8.859,9.513 11.989,6.926 11.989,12.099 			"/>
			<path fill="#F5F5F5" d="M20.481,15.812c-1.594-1.882-2.614-3.184-3.12-3.978c-0.685-1.077-1.214-1.272-1.393-1.284l-4.741,0.028
				V8.381h4.41c0.599-0.087,2.105-0.037,3.578,2.274c0.306,0.481,1.065,1.522,2.942,3.739L20.481,15.812z"/>
		</g>
		<g>
			<polygon fill="#F5F5F5" points="33.14,19.698 30.01,22.284 30.01,17.112 			"/>
			<path fill="#F5F5F5" d="M21.518,13.399c1.594,1.882,2.614,3.184,3.12,3.978c0.685,1.077,1.214,1.272,1.393,1.284l4.741-0.028
				v2.197h-4.41c-0.599,0.087-2.105,0.037-3.578-2.274c-0.306-0.481-1.065-1.522-2.942-3.739L21.518,13.399z"/>
		</g>
	</g>
	<g>
		<g>
			<polygon fill="#F5F5F5" points="33.14,9.513 30.01,6.926 30.01,12.099 			"/>
			<path fill="#F5F5F5" d="M21.518,15.812c1.594-1.882,2.614-3.184,3.12-3.978c0.685-1.077,1.214-1.272,1.393-1.284l4.741,0.028
				V8.381h-4.41c-0.599-0.087-2.105-0.037-3.578,2.274c-0.306,0.481-1.065,1.522-2.942,3.739L21.518,15.812z"/>
		</g>
		<g>
			<polygon fill="#F5F5F5" points="8.859,19.698 11.989,22.284 11.989,17.112 			"/>
			<path fill="#F5F5F5" d="M20.481,13.399c-1.594,1.882-2.614,3.184-3.12,3.978c-0.685,1.077-1.214,1.272-1.393,1.284l-4.741-0.028
				v2.197h4.41c0.599,0.087,2.105,0.037,3.578-2.274c0.306-0.481,1.065-1.522,2.942-3.739L20.481,13.399z"/>
		</g>
	</g>
</g>
<g>
	<path fill="#FFFFFF" d="M7.28,37.405v-7.926h4.96v0.936H8.252v2.454h3.451v0.936H8.252v3.601H7.28z"/>
	<path fill="#FFFFFF" d="M13.138,35.329l0.948-0.086c0.07,0.498,0.233,0.872,0.489,1.122s0.564,0.375,0.925,0.375
		c0.435,0,0.803-0.176,1.104-0.53c0.301-0.353,0.451-0.822,0.451-1.406c0-0.555-0.145-0.993-0.434-1.313s-0.668-0.481-1.136-0.481
		c-0.291,0-0.553,0.071-0.787,0.214c-0.234,0.142-0.418,0.327-0.552,0.554l-0.848-0.119l0.712-4.071h3.657v0.93h-2.934l-0.396,2.13
		c0.441-0.332,0.904-0.497,1.389-0.497c0.642,0,1.184,0.24,1.625,0.719c0.441,0.479,0.662,1.096,0.662,1.849
		c0,0.717-0.194,1.337-0.582,1.86c-0.472,0.642-1.115,0.962-1.931,0.962c-0.669,0-1.214-0.202-1.638-0.605
		C13.439,36.531,13.198,35.996,13.138,35.329z"/>
	<path fill="#FFFFFF" d="M18.851,33.496c0-0.937,0.089-1.691,0.269-2.263c0.179-0.571,0.444-1.012,0.797-1.322
		c0.353-0.31,0.796-0.465,1.332-0.465c0.395,0,0.741,0.085,1.038,0.257c0.298,0.171,0.543,0.418,0.737,0.74
		c0.194,0.323,0.346,0.716,0.457,1.179c0.11,0.463,0.166,1.088,0.166,1.874c0,0.93-0.089,1.68-0.266,2.251
		c-0.177,0.571-0.442,1.013-0.795,1.325c-0.353,0.312-0.798,0.468-1.336,0.468c-0.709,0-1.266-0.274-1.67-0.822
		C19.093,36.059,18.851,34.984,18.851,33.496z M19.778,33.496c0,1.301,0.142,2.167,0.424,2.598c0.283,0.431,0.631,0.646,1.046,0.646
		s0.763-0.216,1.046-0.649c0.282-0.432,0.424-1.297,0.424-2.595c0-1.305-0.142-2.171-0.424-2.601
		c-0.283-0.429-0.635-0.644-1.056-0.644c-0.415,0-0.746,0.189-0.993,0.568C19.934,31.303,19.778,32.195,19.778,33.496z"/>
	<path fill="#FFFFFF" d="M24.563,33.496c0-0.937,0.089-1.691,0.269-2.263c0.179-0.571,0.444-1.012,0.797-1.322
		c0.353-0.31,0.796-0.465,1.332-0.465c0.395,0,0.741,0.085,1.038,0.257c0.298,0.171,0.543,0.418,0.737,0.74
		c0.194,0.323,0.346,0.716,0.457,1.179c0.11,0.463,0.166,1.088,0.166,1.874c0,0.93-0.089,1.68-0.266,2.251
		c-0.177,0.571-0.442,1.013-0.795,1.325c-0.353,0.312-0.798,0.468-1.336,0.468c-0.709,0-1.266-0.274-1.67-0.822
		C24.806,36.059,24.563,34.984,24.563,33.496z M25.491,33.496c0,1.301,0.142,2.167,0.424,2.598c0.283,0.431,0.631,0.646,1.046,0.646
		s0.763-0.216,1.046-0.649c0.282-0.432,0.424-1.297,0.424-2.595c0-1.305-0.142-2.171-0.424-2.601
		c-0.283-0.429-0.635-0.644-1.056-0.644c-0.415,0-0.746,0.189-0.993,0.568C25.647,31.303,25.491,32.195,25.491,33.496z"/>
	<path fill="#FFFFFF" d="M30.276,33.496c0-0.937,0.089-1.691,0.269-2.263c0.179-0.571,0.444-1.012,0.797-1.322
		c0.353-0.31,0.796-0.465,1.332-0.465c0.395,0,0.741,0.085,1.038,0.257c0.298,0.171,0.543,0.418,0.737,0.74
		c0.194,0.323,0.346,0.716,0.457,1.179c0.11,0.463,0.166,1.088,0.166,1.874c0,0.93-0.089,1.68-0.266,2.251
		c-0.177,0.571-0.442,1.013-0.795,1.325c-0.353,0.312-0.798,0.468-1.336,0.468c-0.709,0-1.266-0.274-1.67-0.822
		C30.519,36.059,30.276,34.984,30.276,33.496z M31.204,33.496c0,1.301,0.142,2.167,0.424,2.598c0.283,0.431,0.631,0.646,1.046,0.646
		s0.763-0.216,1.046-0.649c0.282-0.432,0.424-1.297,0.424-2.595c0-1.305-0.142-2.171-0.424-2.601
		c-0.283-0.429-0.635-0.644-1.056-0.644c-0.415,0-0.746,0.189-0.993,0.568C31.36,31.303,31.204,32.195,31.204,33.496z"/>
</g>
<g>
	<path fill="#FFFFFF" d="M15.79,23.188h0.891v2.576c0,0.409,0.011,0.673,0.033,0.794c0.038,0.195,0.129,0.351,0.272,0.469
		c0.144,0.118,0.339,0.177,0.588,0.177c0.252,0,0.443-0.056,0.572-0.167s0.206-0.248,0.231-0.41
		c0.026-0.162,0.039-0.432,0.039-0.808v-2.631h0.891v2.498c0,0.571-0.024,0.975-0.072,1.21c-0.048,0.236-0.137,0.435-0.267,0.597
		c-0.129,0.162-0.302,0.291-0.519,0.387s-0.5,0.145-0.849,0.145c-0.421,0-0.741-0.052-0.958-0.157s-0.39-0.241-0.516-0.409
		s-0.209-0.343-0.25-0.527c-0.059-0.272-0.087-0.675-0.087-1.207V23.188z"/>
	<path fill="#FFFFFF" d="M21.718,27.943v-0.957h-1.806v-0.798l1.914-3.02h0.71v3.017h0.548v0.801h-0.548v0.957H21.718z
		 M21.718,26.185V24.56l-1.014,1.625H21.718z"/>
	<path fill="#FFFFFF" d="M24.917,23.168c0.427,0,0.761,0.165,1.002,0.493c0.287,0.389,0.43,1.035,0.43,1.937
		c0,0.899-0.145,1.546-0.433,1.94c-0.239,0.324-0.572,0.486-0.999,0.486c-0.43,0-0.775-0.178-1.039-0.534
		c-0.263-0.355-0.394-0.99-0.394-1.902c0-0.896,0.145-1.54,0.434-1.934C24.156,23.33,24.49,23.168,24.917,23.168z M24.917,23.924
		c-0.103,0-0.194,0.035-0.274,0.105c-0.081,0.07-0.143,0.196-0.187,0.378c-0.059,0.236-0.087,0.632-0.087,1.19
		s0.026,0.941,0.078,1.15s0.118,0.348,0.197,0.417c0.079,0.069,0.17,0.104,0.272,0.104c0.102,0,0.193-0.035,0.274-0.105
		c0.08-0.07,0.142-0.196,0.187-0.378c0.058-0.233,0.087-0.629,0.087-1.187s-0.026-0.941-0.078-1.15
		c-0.052-0.209-0.118-0.348-0.197-0.418C25.11,23.959,25.019,23.924,24.917,23.924z"/>
</g>
</svg>
