<?xml version="1.0" encoding="utf-8"?>
<!-- Generator: Adobe Illustrator 18.0.0, SVG Export Plug-In . SVG Version: 6.00 Build 0)  -->
<!DOCTYPE svg PUBLIC "-//W3C//DTD SVG 1.1//EN" "http://www.w3.org/Graphics/SVG/1.1/DTD/svg11.dtd">
<svg version="1.1" id="图层_1" xmlns="http://www.w3.org/2000/svg" xmlns:xlink="http://www.w3.org/1999/xlink" x="0px" y="0px"
	 width="48px" height="48px" viewBox="0 0 48 48" enable-background="new 0 0 48 48" xml:space="preserve">
<g>
	<g>
		<path fill="#FFFFFF" d="M3.614,46.877c-1.374,0-2.491-1.118-2.491-2.491V3.614c0-1.374,1.117-2.491,2.491-2.491h40.771
			c1.374,0,2.491,1.118,2.491,2.491v40.771c0,1.374-1.117,2.491-2.491,2.491H3.614z"/>
		<path fill="#AFAFAF" d="M44.386,1.746c1.03,0,1.868,0.838,1.868,1.869v40.772c0,1.03-0.838,1.868-1.868,1.868H3.614
			c-1.03,0-1.868-0.838-1.868-1.868V3.614c0-1.03,0.838-1.869,1.868-1.869H44.386 M44.386,0.5H3.614C1.894,0.5,0.5,1.894,0.5,3.614
			v40.772c0,1.72,1.394,3.114,3.114,3.114h40.772c1.72,0,3.114-1.394,3.114-3.114V3.614C47.5,1.894,46.106,0.5,44.386,0.5
			L44.386,0.5z"/>
	</g>
	<g>
		<linearGradient id="SVGID_1_" gradientUnits="userSpaceOnUse" x1="23.9993" y1="44.8148" x2="23.9993" y2="3.1849">
			<stop  offset="0" style="stop-color:#00AEF9"/>
			<stop  offset="1" style="stop-color:#0092E1"/>
		</linearGradient>
		<path fill="url(#SVGID_1_)" d="M3.614,44.815c-0.236,0-0.429-0.193-0.429-0.429V3.614c0-0.236,0.193-0.429,0.429-0.429h40.773
			c0.236,0,0.428,0.193,0.428,0.429v40.771c0,0.236-0.192,0.429-0.428,0.429H3.614z"/>
	</g>
	<g>
		<g>
			<g>
				<polygon fill="#F5F5F5" points="9.684,10.538 13.374,7.488 13.374,13.587 				"/>
				<path fill="#F5F5F5" d="M23.388,17.966c-1.879-2.219-3.082-3.754-3.678-4.69c-0.808-1.27-1.431-1.5-1.642-1.514l-5.59,0.033
					V9.203h5.2c0.706-0.103,2.482-0.043,4.219,2.681c0.361,0.567,1.256,1.794,3.469,4.408L23.388,17.966z"/>
			</g>
			<g>
				<polygon fill="#F5F5F5" points="38.315,22.548 34.624,25.597 34.624,19.498 				"/>
				<path fill="#F5F5F5" d="M24.611,15.12c1.879,2.219,3.082,3.754,3.678,4.69c0.808,1.27,1.431,1.5,1.642,1.514l5.59-0.033v2.591
					h-5.2c-0.706,0.103-2.482,0.043-4.219-2.681c-0.361-0.567-1.256-1.794-3.469-4.408L24.611,15.12z"/>
			</g>
		</g>
		<g>
			<g>
				<polygon fill="#F5F5F5" points="38.315,10.538 34.624,7.488 34.624,13.587 				"/>
				<path fill="#F5F5F5" d="M24.611,17.966c1.879-2.219,3.082-3.754,3.678-4.69c0.808-1.27,1.431-1.5,1.642-1.514l5.59,0.033V9.203
					h-5.2c-0.706-0.103-2.482-0.043-4.219,2.681c-0.361,0.567-1.256,1.794-3.469,4.408L24.611,17.966z"/>
			</g>
			<g>
				<polygon fill="#F5F5F5" points="9.684,22.548 13.374,25.597 13.374,19.498 				"/>
				<path fill="#F5F5F5" d="M23.388,15.12c-1.879,2.219-3.082,3.754-3.678,4.69c-0.808,1.27-1.431,1.5-1.642,1.514l-5.59-0.033
					v2.591h5.2c0.706,0.103,2.482,0.043,4.219-2.681c0.361-0.567,1.256-1.794,3.469-4.408L23.388,15.12z"/>
			</g>
		</g>
	</g>
	<g>
		<path fill="#FFFFFF" d="M7.823,43.426v-9.345h5.849v1.102H8.97v2.895h4.07v1.102H8.97v4.246H7.823z"/>
		<path fill="#FFFFFF" d="M14.73,40.978l1.118-0.102c0.083,0.586,0.276,1.028,0.577,1.323c0.301,0.296,0.665,0.444,1.092,0.444
			c0.513,0,0.946-0.209,1.3-0.625c0.355-0.417,0.533-0.97,0.533-1.657c0-0.655-0.17-1.171-0.511-1.549
			c-0.341-0.378-0.788-0.567-1.34-0.567c-0.342,0-0.652,0.084-0.929,0.252c-0.275,0.167-0.493,0.385-0.649,0.653l-0.999-0.14
			l0.84-4.8h4.311v1.096h-3.461l-0.467,2.512c0.52-0.391,1.067-0.586,1.638-0.586c0.757,0,1.396,0.282,1.916,0.848
			c0.52,0.565,0.781,1.292,0.781,2.18c0,0.845-0.229,1.577-0.686,2.192c-0.556,0.757-1.316,1.135-2.277,1.135
			c-0.789,0-1.432-0.238-1.931-0.714C15.086,42.396,14.802,41.764,14.73,40.978z"/>
		<path fill="#FFFFFF" d="M21.465,38.817c0-1.105,0.106-1.994,0.318-2.668c0.21-0.674,0.524-1.194,0.94-1.559
			s0.94-0.548,1.571-0.548c0.465,0,0.872,0.101,1.224,0.302c0.352,0.202,0.64,0.494,0.869,0.874
			c0.229,0.381,0.408,0.844,0.539,1.389c0.13,0.547,0.195,1.283,0.195,2.209c0,1.096-0.104,1.981-0.313,2.655
			c-0.209,0.673-0.522,1.194-0.938,1.561c-0.416,0.368-0.941,0.552-1.575,0.552c-0.837,0-1.492-0.323-1.97-0.97
			C21.752,41.839,21.465,40.572,21.465,38.817z M22.56,38.817c0,1.535,0.167,2.555,0.501,3.063c0.333,0.508,0.743,0.762,1.233,0.762
			c0.488,0,0.9-0.256,1.233-0.765s0.499-1.53,0.499-3.06c0-1.538-0.166-2.561-0.499-3.066c-0.333-0.506-0.748-0.759-1.245-0.759
			c-0.488,0-0.88,0.223-1.171,0.669C22.743,36.231,22.56,37.283,22.56,38.817z"/>
		<path fill="#FFFFFF" d="M28.202,38.817c0-1.105,0.106-1.994,0.318-2.668c0.21-0.674,0.524-1.194,0.94-1.559
			s0.94-0.548,1.571-0.548c0.465,0,0.872,0.101,1.224,0.302c0.352,0.202,0.64,0.494,0.869,0.874
			c0.229,0.381,0.408,0.844,0.539,1.389c0.13,0.547,0.195,1.283,0.195,2.209c0,1.096-0.104,1.981-0.313,2.655
			c-0.209,0.673-0.522,1.194-0.938,1.561c-0.416,0.368-0.941,0.552-1.575,0.552c-0.837,0-1.492-0.323-1.97-0.97
			C28.489,41.839,28.202,40.572,28.202,38.817z M29.297,38.817c0,1.535,0.167,2.555,0.501,3.063
			c0.333,0.508,0.743,0.762,1.233,0.762c0.488,0,0.9-0.256,1.233-0.765s0.499-1.53,0.499-3.06c0-1.538-0.166-2.561-0.499-3.066
			c-0.333-0.506-0.748-0.759-1.245-0.759c-0.488,0-0.88,0.223-1.171,0.669C29.479,36.231,29.297,37.283,29.297,38.817z"/>
		<path fill="#FFFFFF" d="M34.937,38.817c0-1.105,0.106-1.994,0.318-2.668c0.21-0.674,0.524-1.194,0.94-1.559
			s0.94-0.548,1.571-0.548c0.465,0,0.872,0.101,1.224,0.302c0.352,0.202,0.64,0.494,0.869,0.874
			c0.229,0.381,0.408,0.844,0.539,1.389c0.13,0.547,0.195,1.283,0.195,2.209c0,1.096-0.104,1.981-0.313,2.655
			c-0.209,0.673-0.522,1.194-0.938,1.561c-0.416,0.368-0.941,0.552-1.575,0.552c-0.837,0-1.492-0.323-1.97-0.97
			C35.224,41.839,34.937,40.572,34.937,38.817z M36.032,38.817c0,1.535,0.167,2.555,0.501,3.063
			c0.333,0.508,0.743,0.762,1.233,0.762c0.488,0,0.9-0.256,1.233-0.765s0.499-1.53,0.499-3.06c0-1.538-0.166-2.561-0.499-3.066
			c-0.333-0.506-0.748-0.759-1.245-0.759c-0.488,0-0.88,0.223-1.171,0.669C36.215,36.231,36.032,37.283,36.032,38.817z"/>
	</g>
	<g>
		<path fill="#FFFFFF" d="M17.446,26.289h1.121v3.239c0,0.514,0.014,0.847,0.041,0.999c0.048,0.245,0.163,0.441,0.342,0.59
			c0.181,0.148,0.427,0.222,0.74,0.222c0.318,0,0.557-0.07,0.72-0.21c0.161-0.14,0.258-0.312,0.292-0.517
			c0.032-0.204,0.049-0.543,0.049-1.016v-3.309h1.119v3.141c0,0.718-0.029,1.225-0.091,1.521c-0.06,0.297-0.172,0.547-0.335,0.751
			c-0.163,0.204-0.381,0.367-0.652,0.487c-0.273,0.121-0.629,0.182-1.069,0.182c-0.53,0-0.93-0.066-1.205-0.198
			c-0.273-0.132-0.49-0.303-0.648-0.514c-0.16-0.21-0.264-0.431-0.315-0.662c-0.074-0.343-0.111-0.849-0.111-1.518V26.289z"/>
		<path fill="#FFFFFF" d="M22.779,30.683l1.029-0.135c0.034,0.283,0.121,0.499,0.266,0.649c0.144,0.15,0.318,0.225,0.522,0.225
			c0.22,0,0.405-0.09,0.554-0.269c0.15-0.18,0.226-0.421,0.226-0.726c0-0.289-0.072-0.517-0.216-0.686
			c-0.143-0.169-0.318-0.253-0.525-0.253c-0.137,0-0.299,0.029-0.488,0.086l0.117-0.934c0.289,0.008,0.508-0.059,0.659-0.202
			c0.152-0.143,0.227-0.332,0.227-0.57c0-0.201-0.055-0.362-0.166-0.481c-0.112-0.12-0.259-0.18-0.444-0.18
			c-0.181,0-0.336,0.068-0.465,0.204c-0.129,0.136-0.207,0.335-0.235,0.596l-0.98-0.18c0.068-0.362,0.17-0.65,0.309-0.867
			c0.137-0.216,0.329-0.386,0.574-0.51c0.246-0.124,0.522-0.186,0.828-0.186c0.522,0,0.941,0.18,1.256,0.538
			c0.261,0.294,0.39,0.626,0.39,0.996c0,0.525-0.266,0.944-0.798,1.257c0.318,0.074,0.573,0.238,0.763,0.494
			c0.19,0.256,0.286,0.564,0.286,0.927c0,0.524-0.178,0.972-0.534,1.342c-0.355,0.37-0.798,0.555-1.328,0.555
			c-0.502,0-0.918-0.156-1.248-0.467C23.024,31.593,22.832,31.186,22.779,30.683z"/>
		<path fill="#FFFFFF" d="M28.925,26.264c0.539,0,0.958,0.206,1.26,0.62c0.361,0.489,0.542,1.301,0.542,2.435
			c0,1.132-0.181,1.945-0.545,2.44c-0.301,0.408-0.719,0.612-1.257,0.612c-0.539,0-0.975-0.224-1.305-0.671
			c-0.33-0.448-0.496-1.245-0.496-2.393c0-1.126,0.181-1.937,0.545-2.432C27.97,26.468,28.388,26.264,28.925,26.264z M28.925,27.215
			c-0.127,0-0.243,0.045-0.344,0.133c-0.101,0.088-0.18,0.246-0.235,0.475c-0.072,0.296-0.109,0.795-0.109,1.497
			c0,0.702,0.032,1.184,0.098,1.447c0.066,0.262,0.147,0.437,0.247,0.524c0.1,0.088,0.215,0.131,0.342,0.131
			c0.129,0,0.244-0.045,0.345-0.133c0.101-0.088,0.178-0.247,0.235-0.475c0.072-0.294,0.109-0.791,0.109-1.494
			c0-0.702-0.032-1.184-0.098-1.446c-0.066-0.262-0.149-0.438-0.247-0.526C29.169,27.259,29.054,27.215,28.925,27.215z"/>
	</g>
</g>
</svg>
