<?xml version="1.0" encoding="utf-8"?>
<!-- Generator: Adobe Illustrator 18.0.0, SVG Export Plug-In . SVG Version: 6.00 Build 0)  -->
<!DOCTYPE svg PUBLIC "-//W3C//DTD SVG 1.1//EN" "http://www.w3.org/Graphics/SVG/1.1/DTD/svg11.dtd">
<svg version="1.1" id="图层_1" xmlns="http://www.w3.org/2000/svg" xmlns:xlink="http://www.w3.org/1999/xlink" x="0px" y="0px"
	 width="32px" height="32px" viewBox="0 0 32 32" enable-background="new 0 0 32 32" xml:space="preserve">
<g>
	<path fill="#FFFFFF" d="M2.144,31.522c-0.934,0-1.693-0.76-1.693-1.693V2.117c0-0.934,0.76-1.693,1.693-1.693h27.713
		c0.934,0,1.693,0.76,1.693,1.693v27.712c0,0.934-0.76,1.693-1.693,1.693H2.144z"/>
	<path fill="#AFAFAF" d="M29.856,0.847c0.7,0,1.27,0.57,1.27,1.27v27.712c0,0.7-0.57,1.27-1.27,1.27H2.144
		c-0.7,0-1.27-0.57-1.27-1.27V2.117c0-0.7,0.57-1.27,1.27-1.27H29.856 M29.856,0H2.144C0.975,0,0.027,0.948,0.027,2.117v27.712
		c0,1.169,0.948,2.117,2.117,2.117h27.712c1.169,0,2.117-0.948,2.117-2.117V2.117C31.973,0.948,31.025,0,29.856,0L29.856,0z"/>
</g>
<g>
	<linearGradient id="SVGID_1_" gradientUnits="userSpaceOnUse" x1="15.9995" y1="30.1206" x2="15.9995" y2="1.825">
		<stop  offset="0" style="stop-color:#FF1F30"/>
		<stop  offset="1" style="stop-color:#C3020F"/>
	</linearGradient>
	<path fill="url(#SVGID_1_)" d="M2.144,30.121c-0.16,0-0.292-0.131-0.292-0.292V2.117c0-0.16,0.131-0.292,0.292-0.292h27.713
		c0.16,0,0.291,0.131,0.291,0.292v27.712c0,0.16-0.13,0.292-0.291,0.292H2.144z"/>
</g>
<g>
	<g>
		<g>
			<polygon fill="#F5F5F5" points="6.269,6.823 8.778,4.75 8.778,8.895 			"/>
			<path fill="#F5F5F5" d="M15.584,11.871c-1.277-1.508-2.095-2.552-2.5-3.188c-0.549-0.863-0.973-1.019-1.116-1.029L8.168,7.677
				V5.916h3.534c0.48-0.07,1.687-0.029,2.867,1.822c0.246,0.386,0.853,1.219,2.358,2.996L15.584,11.871z"/>
		</g>
		<g>
			<polygon fill="#F5F5F5" points="25.73,14.986 23.221,17.059 23.221,12.913 			"/>
			<path fill="#F5F5F5" d="M16.415,9.937c1.277,1.508,2.095,2.552,2.5,3.188c0.549,0.863,0.973,1.019,1.116,1.029l3.799-0.022v1.761
				h-3.534c-0.48,0.07-1.687,0.029-2.867-1.822c-0.246-0.386-0.853-1.219-2.358-2.996L16.415,9.937z"/>
		</g>
	</g>
	<g>
		<g>
			<polygon fill="#F5F5F5" points="25.73,6.823 23.221,4.75 23.221,8.895 			"/>
			<path fill="#F5F5F5" d="M16.415,11.871c1.277-1.508,2.095-2.552,2.5-3.188c0.549-0.863,0.973-1.019,1.116-1.029l3.799,0.022
				V5.916h-3.534c-0.48-0.07-1.687-0.029-2.867,1.822c-0.246,0.386-0.853,1.219-2.358,2.996L16.415,11.871z"/>
		</g>
		<g>
			<polygon fill="#F5F5F5" points="6.269,14.986 8.778,17.059 8.778,12.913 			"/>
			<path fill="#F5F5F5" d="M15.584,9.937c-1.277,1.508-2.095,2.552-2.5,3.188c-0.549,0.863-0.973,1.019-1.116,1.029l-3.799-0.022
				v1.761h3.534c0.48,0.07,1.687,0.029,2.867-1.822c0.246-0.386,0.853-1.219,2.358-2.996L15.584,9.937z"/>
		</g>
	</g>
</g>
<g>
	<path fill="#FFFFFF" d="M5.004,29.118v-6.353h3.975v0.75H5.783v1.967h2.766v0.75H5.783v2.886H5.004z"/>
	<path fill="#FFFFFF" d="M9.698,27.454l0.76-0.069c0.056,0.398,0.187,0.698,0.392,0.899s0.452,0.301,0.742,0.301
		c0.348,0,0.643-0.142,0.884-0.425c0.241-0.282,0.362-0.658,0.362-1.126c0-0.445-0.116-0.796-0.348-1.053
		c-0.232-0.258-0.536-0.386-0.911-0.386c-0.233,0-0.443,0.057-0.631,0.171s-0.335,0.262-0.442,0.444l-0.679-0.096l0.57-3.263h2.931
		v0.745h-2.352l-0.317,1.708c0.354-0.267,0.725-0.399,1.113-0.399c0.515,0,0.948,0.192,1.302,0.576
		c0.354,0.385,0.531,0.879,0.531,1.482c0,0.575-0.155,1.071-0.467,1.49c-0.378,0.515-0.894,0.771-1.547,0.771
		c-0.536,0-0.974-0.162-1.313-0.485C9.939,28.418,9.746,27.988,9.698,27.454z"/>
	<path fill="#FFFFFF" d="M14.277,25.985c0-0.751,0.071-1.355,0.215-1.813s0.356-0.811,0.64-1.06
		c0.282-0.248,0.638-0.372,1.066-0.372c0.316,0,0.594,0.068,0.832,0.206c0.239,0.137,0.436,0.335,0.592,0.593
		c0.155,0.259,0.277,0.574,0.365,0.945c0.089,0.371,0.133,0.871,0.133,1.501c0,0.745-0.071,1.347-0.213,1.805
		c-0.143,0.458-0.354,0.812-0.638,1.062c-0.282,0.25-0.64,0.375-1.071,0.375c-0.567,0-1.014-0.22-1.338-0.658
		C14.472,28.039,14.277,27.179,14.277,25.985z M15.021,25.985c0,1.043,0.113,1.737,0.34,2.082c0.227,0.346,0.506,0.518,0.838,0.518
		c0.333,0,0.612-0.173,0.839-0.52c0.226-0.347,0.339-1.04,0.339-2.08c0-1.046-0.113-1.74-0.339-2.084
		c-0.227-0.344-0.509-0.516-0.847-0.516c-0.332,0-0.598,0.151-0.796,0.455C15.146,24.228,15.021,24.942,15.021,25.985z"/>
	<path fill="#FFFFFF" d="M18.855,25.985c0-0.751,0.071-1.355,0.215-1.813s0.356-0.811,0.64-1.06
		c0.282-0.248,0.638-0.372,1.066-0.372c0.316,0,0.594,0.068,0.832,0.206c0.239,0.137,0.436,0.335,0.592,0.593
		c0.155,0.259,0.277,0.574,0.365,0.945c0.089,0.371,0.133,0.871,0.133,1.501c0,0.745-0.071,1.347-0.213,1.805
		c-0.143,0.458-0.354,0.812-0.638,1.062c-0.282,0.25-0.64,0.375-1.071,0.375c-0.567,0-1.014-0.22-1.338-0.658
		C19.05,28.039,18.855,27.179,18.855,25.985z M19.599,25.985c0,1.043,0.113,1.737,0.34,2.082c0.227,0.346,0.506,0.518,0.838,0.518
		c0.333,0,0.612-0.173,0.839-0.52c0.226-0.347,0.339-1.04,0.339-2.08c0-1.046-0.113-1.74-0.339-2.084
		c-0.227-0.344-0.509-0.516-0.847-0.516c-0.332,0-0.598,0.151-0.796,0.455C19.724,24.228,19.599,24.942,19.599,25.985z"/>
	<path fill="#FFFFFF" d="M23.434,25.985c0-0.751,0.071-1.355,0.215-1.813s0.356-0.811,0.64-1.06
		c0.282-0.248,0.638-0.372,1.066-0.372c0.316,0,0.594,0.068,0.832,0.206c0.239,0.137,0.436,0.335,0.592,0.593
		c0.155,0.259,0.277,0.574,0.365,0.945c0.089,0.371,0.133,0.871,0.133,1.501c0,0.745-0.071,1.347-0.213,1.805
		c-0.143,0.458-0.354,0.812-0.638,1.062c-0.282,0.25-0.64,0.375-1.071,0.375c-0.567,0-1.014-0.22-1.338-0.658
		C23.628,28.039,23.434,27.179,23.434,25.985z M24.177,25.985c0,1.043,0.113,1.737,0.34,2.082c0.227,0.346,0.506,0.518,0.838,0.518
		c0.333,0,0.612-0.173,0.839-0.52c0.226-0.347,0.339-1.04,0.339-2.08c0-1.046-0.113-1.74-0.339-2.084
		c-0.227-0.344-0.509-0.516-0.847-0.516c-0.332,0-0.598,0.151-0.796,0.455C24.302,24.228,24.177,24.942,24.177,25.985z"/>
</g>
<g>
	<path fill="#FFFFFF" d="M11.543,17.47h0.762v2.202c0,0.35,0.01,0.576,0.028,0.68c0.033,0.166,0.11,0.3,0.233,0.401
		c0.122,0.101,0.29,0.15,0.503,0.15c0.216,0,0.379-0.047,0.489-0.143c0.109-0.095,0.176-0.212,0.198-0.351s0.033-0.369,0.033-0.691
		V17.47h0.762v2.136c0,0.488-0.021,0.833-0.062,1.034c-0.041,0.202-0.117,0.372-0.228,0.511c-0.111,0.139-0.259,0.249-0.444,0.332
		c-0.186,0.082-0.427,0.123-0.726,0.123c-0.36,0-0.634-0.045-0.82-0.135c-0.186-0.09-0.333-0.206-0.44-0.35
		c-0.108-0.143-0.18-0.293-0.214-0.45c-0.05-0.233-0.075-0.577-0.075-1.032V17.47z"/>
	<path fill="#FFFFFF" d="M15.17,20.457l0.7-0.092c0.022,0.192,0.082,0.34,0.18,0.441s0.217,0.152,0.355,0.152
		c0.149,0,0.274-0.061,0.377-0.183c0.102-0.122,0.153-0.287,0.153-0.494c0-0.196-0.049-0.352-0.146-0.466
		c-0.099-0.115-0.218-0.172-0.358-0.172c-0.093,0-0.203,0.02-0.332,0.058l0.08-0.635c0.195,0.006,0.345-0.04,0.447-0.138
		c0.104-0.097,0.155-0.226,0.155-0.387c0-0.137-0.038-0.246-0.113-0.327c-0.076-0.082-0.176-0.122-0.302-0.122
		c-0.123,0-0.229,0.046-0.316,0.139c-0.087,0.093-0.141,0.228-0.159,0.405l-0.667-0.122c0.047-0.246,0.116-0.443,0.21-0.59
		c0.094-0.147,0.224-0.263,0.392-0.347c0.167-0.084,0.354-0.126,0.562-0.126c0.355,0,0.641,0.122,0.854,0.366
		c0.177,0.199,0.266,0.425,0.266,0.677c0,0.356-0.182,0.642-0.543,0.854c0.216,0.05,0.389,0.161,0.519,0.335
		c0.129,0.174,0.194,0.384,0.194,0.63c0,0.357-0.121,0.661-0.363,0.913c-0.242,0.251-0.543,0.377-0.903,0.377
		c-0.342,0-0.624-0.105-0.85-0.317C15.336,21.076,15.206,20.799,15.17,20.457z"/>
	<path fill="#FFFFFF" d="M19.349,17.453c0.365,0,0.651,0.141,0.857,0.421c0.245,0.333,0.367,0.886,0.367,1.656
		c0,0.77-0.123,1.322-0.37,1.659c-0.204,0.277-0.489,0.416-0.854,0.416c-0.367,0-0.663-0.152-0.888-0.456
		c-0.225-0.305-0.337-0.847-0.337-1.627c0-0.766,0.123-1.317,0.37-1.653C18.698,17.592,18.983,17.453,19.349,17.453z M19.349,18.099
		c-0.088,0-0.166,0.03-0.234,0.091c-0.068,0.06-0.122,0.168-0.159,0.323c-0.05,0.201-0.075,0.541-0.075,1.018
		c0,0.478,0.022,0.805,0.067,0.983s0.101,0.298,0.169,0.356c0.067,0.06,0.145,0.089,0.232,0.089s0.166-0.03,0.234-0.09
		c0.068-0.061,0.122-0.168,0.159-0.323c0.05-0.2,0.075-0.538,0.075-1.016c0-0.477-0.022-0.805-0.067-0.983s-0.101-0.298-0.168-0.357
		C19.514,18.129,19.437,18.099,19.349,18.099z"/>
</g>
</svg>
