<?xml version="1.0" encoding="utf-8"?>
<!-- Generator: Adobe Illustrator 18.0.0, SVG Export Plug-In . SVG Version: 6.00 Build 0)  -->
<!DOCTYPE svg PUBLIC "-//W3C//DTD SVG 1.1//EN" "http://www.w3.org/Graphics/SVG/1.1/DTD/svg11.dtd">
<svg version="1.1" id="图层_1" xmlns="http://www.w3.org/2000/svg" xmlns:xlink="http://www.w3.org/1999/xlink" x="0px" y="0px"
	 width="42px" height="42px" viewBox="0 0 42 42" enable-background="new 0 0 42 42" xml:space="preserve">
<g>
	<path fill="#FFFFFF" d="M3.248,40.886c-1.196,0-2.169-0.974-2.169-2.17V3.212c0-1.196,0.973-2.17,2.169-2.17h35.504
		c1.196,0,2.169,0.974,2.169,2.17v35.504c0,1.196-0.973,2.17-2.169,2.17H3.248z"/>
	<path fill="#AFAFAF" d="M38.752,1.585c0.897,0,1.627,0.73,1.627,1.627v35.504c0,0.897-0.73,1.627-1.627,1.627H3.248
		c-0.897,0-1.627-0.73-1.627-1.627V3.212c0-0.897,0.73-1.627,1.627-1.627H38.752 M38.752,0.5H3.248
		c-1.498,0-2.712,1.214-2.712,2.712v35.504c0,1.498,1.214,2.712,2.712,2.712h35.504c1.498,0,2.712-1.214,2.712-2.712V3.212
		C41.464,1.714,40.25,0.5,38.752,0.5L38.752,0.5z"/>
</g>
<g>
	<linearGradient id="SVGID_1_" gradientUnits="userSpaceOnUse" x1="20.9994" y1="39.0898" x2="20.9994" y2="2.8382">
		<stop  offset="0" style="stop-color:#76797A"/>
		<stop  offset="1" style="stop-color:#5F6263"/>
	</linearGradient>
	<path fill="url(#SVGID_1_)" d="M3.248,39.09c-0.206,0-0.374-0.168-0.374-0.374V3.212c0-0.206,0.168-0.374,0.374-0.374h35.505
		c0.206,0,0.373,0.168,0.373,0.374v35.504c0,0.206-0.167,0.374-0.373,0.374H3.248z"/>
</g>
<g>
	<g>
		<g>
			<polygon fill="#F5F5F5" points="8.533,9.241 11.747,6.586 11.747,11.896 			"/>
			<path fill="#F5F5F5" d="M20.467,15.709c-1.636-1.932-2.684-3.269-3.203-4.084c-0.703-1.106-1.246-1.306-1.43-1.318l-4.868,0.028
				V8.079h4.528c0.615-0.09,2.162-0.038,3.674,2.335c0.315,0.494,1.093,1.562,3.021,3.839L20.467,15.709z"/>
		</g>
		<g>
			<polygon fill="#F5F5F5" points="33.465,19.7 30.252,22.355 30.252,17.044 			"/>
			<path fill="#F5F5F5" d="M21.532,13.231c1.636,1.932,2.684,3.269,3.203,4.084c0.703,1.106,1.246,1.306,1.43,1.318l4.868-0.028
				v2.256h-4.528c-0.615,0.09-2.162,0.038-3.674-2.335c-0.315-0.494-1.093-1.562-3.021-3.839L21.532,13.231z"/>
		</g>
	</g>
	<g>
		<g>
			<polygon fill="#F5F5F5" points="33.465,9.241 30.252,6.586 30.252,11.896 			"/>
			<path fill="#F5F5F5" d="M21.532,15.709c1.636-1.932,2.684-3.269,3.203-4.084c0.703-1.106,1.246-1.306,1.43-1.318l4.868,0.028
				V8.079h-4.528c-0.615-0.09-2.162-0.038-3.674,2.335c-0.315,0.494-1.093,1.562-3.021,3.839L21.532,15.709z"/>
		</g>
		<g>
			<polygon fill="#F5F5F5" points="8.533,19.7 11.747,22.355 11.747,17.044 			"/>
			<path fill="#F5F5F5" d="M20.467,13.231c-1.636,1.932-2.684,3.269-3.203,4.084c-0.703,1.106-1.246,1.306-1.43,1.318l-4.868-0.028
				v2.256h4.528c0.615,0.09,2.162,0.038,3.674-2.335c0.315-0.494,1.093-1.562,3.021-3.839L20.467,13.231z"/>
		</g>
	</g>
</g>
<g>
	<path fill="#FFFFFF" d="M6.911,37.809v-8.138h5.093v0.96H7.91v2.521h3.543v0.96H7.91v3.697H6.911z"/>
	<path fill="#FFFFFF" d="M12.925,35.677l0.974-0.089c0.072,0.511,0.239,0.895,0.502,1.152c0.263,0.257,0.58,0.386,0.95,0.386
		c0.446,0,0.824-0.182,1.133-0.544c0.309-0.363,0.463-0.844,0.463-1.443c0-0.57-0.148-1.02-0.446-1.35
		c-0.297-0.329-0.686-0.493-1.166-0.493c-0.299,0-0.568,0.072-0.809,0.219c-0.241,0.146-0.429,0.336-0.567,0.569l-0.87-0.122
		l0.731-4.181h3.754v0.955h-3.013l-0.407,2.188c0.453-0.341,0.929-0.511,1.427-0.511c0.659,0,1.215,0.246,1.668,0.738
		s0.68,1.125,0.68,1.898c0,0.736-0.199,1.373-0.597,1.909c-0.484,0.659-1.145,0.988-1.983,0.988c-0.687,0-1.247-0.207-1.681-0.622
		C13.235,36.911,12.987,36.361,12.925,35.677z"/>
	<path fill="#FFFFFF" d="M18.791,33.795c0-0.962,0.092-1.736,0.276-2.323c0.184-0.586,0.457-1.039,0.819-1.357
		c0.362-0.318,0.818-0.478,1.367-0.478c0.405,0,0.76,0.089,1.066,0.265s0.558,0.429,0.757,0.76c0.199,0.331,0.355,0.735,0.468,1.21
		c0.113,0.476,0.17,1.117,0.17,1.924c0,0.955-0.091,1.726-0.273,2.313c-0.182,0.586-0.454,1.04-0.816,1.359
		c-0.362,0.32-0.82,0.48-1.373,0.48c-0.728,0-1.299-0.281-1.715-0.844C19.04,36.427,18.791,35.323,18.791,33.795z M19.744,33.795
		c0,1.336,0.145,2.226,0.435,2.668c0.29,0.441,0.648,0.663,1.074,0.663s0.784-0.223,1.074-0.666c0.29-0.444,0.435-1.333,0.435-2.665
		c0-1.34-0.145-2.229-0.435-2.67s-0.651-0.661-1.084-0.661c-0.426,0-0.766,0.194-1.02,0.583
		C19.904,31.543,19.744,32.459,19.744,33.795z"/>
	<path fill="#FFFFFF" d="M24.657,33.795c0-0.962,0.092-1.736,0.276-2.323c0.184-0.586,0.457-1.039,0.819-1.357
		c0.362-0.318,0.818-0.478,1.367-0.478c0.405,0,0.76,0.089,1.066,0.265s0.558,0.429,0.757,0.76c0.199,0.331,0.355,0.735,0.468,1.21
		c0.113,0.476,0.17,1.117,0.17,1.924c0,0.955-0.091,1.726-0.273,2.313c-0.182,0.586-0.454,1.04-0.816,1.359
		c-0.362,0.32-0.82,0.48-1.373,0.48c-0.728,0-1.299-0.281-1.715-0.844C24.906,36.427,24.657,35.323,24.657,33.795z M25.61,33.795
		c0,1.336,0.145,2.226,0.435,2.668c0.29,0.441,0.648,0.663,1.074,0.663s0.784-0.223,1.074-0.666c0.29-0.444,0.435-1.333,0.435-2.665
		c0-1.34-0.145-2.229-0.435-2.67s-0.651-0.661-1.084-0.661c-0.426,0-0.766,0.194-1.02,0.583C25.77,31.543,25.61,32.459,25.61,33.795
		z"/>
	<path fill="#FFFFFF" d="M30.522,33.795c0-0.962,0.092-1.736,0.276-2.323c0.184-0.586,0.457-1.039,0.819-1.357
		c0.362-0.318,0.818-0.478,1.367-0.478c0.405,0,0.76,0.089,1.066,0.265s0.558,0.429,0.757,0.76c0.199,0.331,0.355,0.735,0.468,1.21
		c0.113,0.476,0.17,1.117,0.17,1.924c0,0.955-0.091,1.726-0.273,2.313c-0.182,0.586-0.454,1.04-0.816,1.359
		c-0.362,0.32-0.82,0.48-1.373,0.48c-0.728,0-1.299-0.281-1.715-0.844C30.771,36.427,30.522,35.323,30.522,33.795z M31.476,33.795
		c0,1.336,0.145,2.226,0.435,2.668c0.29,0.441,0.648,0.663,1.074,0.663s0.784-0.223,1.074-0.666c0.29-0.444,0.435-1.333,0.435-2.665
		c0-1.34-0.145-2.229-0.435-2.67s-0.651-0.661-1.084-0.661c-0.426,0-0.766,0.194-1.02,0.583
		C31.635,31.543,31.476,32.459,31.476,33.795z"/>
</g>
<g>
	<path fill="#FFFFFF" d="M15.987,26.381l0.6,0.163c-0.126,0.531-0.352,0.936-0.678,1.214c-0.327,0.279-0.726,0.418-1.197,0.418
		c-0.488,0-0.885-0.106-1.191-0.321c-0.306-0.214-0.539-0.524-0.698-0.931s-0.24-0.843-0.24-1.31c0-0.508,0.09-0.951,0.271-1.33
		s0.437-0.666,0.77-0.862c0.333-0.197,0.699-0.295,1.099-0.295c0.453,0,0.834,0.124,1.143,0.373
		c0.309,0.248,0.524,0.598,0.646,1.049l-0.59,0.15c-0.105-0.355-0.257-0.614-0.458-0.776c-0.2-0.162-0.451-0.243-0.754-0.243
		c-0.348,0-0.639,0.09-0.873,0.27c-0.234,0.18-0.398,0.422-0.493,0.725S13.2,25.289,13.2,25.611c0,0.415,0.056,0.777,0.168,1.088
		c0.112,0.31,0.287,0.541,0.524,0.694c0.237,0.153,0.493,0.229,0.769,0.229c0.336,0,0.62-0.104,0.853-0.313
		C15.748,27.102,15.905,26.792,15.987,26.381z"/>
	<path fill="#FFFFFF" d="M17.143,25.715c0-0.811,0.202-1.445,0.606-1.903c0.404-0.459,0.925-0.688,1.563-0.688
		c0.418,0,0.795,0.108,1.131,0.323c0.336,0.216,0.592,0.516,0.768,0.901c0.176,0.385,0.264,0.822,0.264,1.311
		c0,0.495-0.093,0.938-0.278,1.329c-0.186,0.391-0.448,0.687-0.788,0.888c-0.34,0.2-0.707,0.301-1.1,0.301
		c-0.427,0-0.808-0.11-1.144-0.333c-0.336-0.222-0.59-0.525-0.763-0.909S17.143,26.144,17.143,25.715z M17.761,25.725
		c0,0.589,0.147,1.052,0.44,1.391s0.662,0.508,1.104,0.508c0.451,0,0.823-0.171,1.114-0.513s0.437-0.827,0.437-1.456
		c0-0.397-0.063-0.744-0.187-1.04c-0.125-0.297-0.307-0.526-0.547-0.689c-0.24-0.164-0.509-0.245-0.808-0.245
		c-0.424,0-0.79,0.157-1.095,0.471C17.914,24.465,17.761,24.989,17.761,25.725z"/>
	<path fill="#FFFFFF" d="M23.4,28.093v-4.307h-1.492V23.21h3.59v0.576H24v4.307H23.4z"/>
	<path fill="#FFFFFF" d="M26.113,28.093V23.21h1.708c0.301,0,0.531,0.016,0.689,0.047c0.222,0.04,0.409,0.116,0.559,0.228
		c0.15,0.112,0.271,0.27,0.363,0.472c0.091,0.202,0.137,0.424,0.137,0.666c0,0.415-0.123,0.767-0.368,1.055
		c-0.245,0.287-0.688,0.431-1.329,0.431h-1.162v1.985H26.113z M26.713,25.531h1.171c0.387,0,0.662-0.077,0.825-0.233
		c0.163-0.155,0.244-0.374,0.244-0.655c0-0.205-0.048-0.38-0.144-0.525s-0.222-0.241-0.378-0.288
		c-0.101-0.028-0.287-0.043-0.559-0.043h-1.159V25.531z"/>
</g>
</svg>
