<?xml version="1.0" encoding="utf-8"?>
<!-- Generator: Adobe Illustrator 18.0.0, SVG Export Plug-In . SVG Version: 6.00 Build 0)  -->
<!DOCTYPE svg PUBLIC "-//W3C//DTD SVG 1.1//EN" "http://www.w3.org/Graphics/SVG/1.1/DTD/svg11.dtd">
<svg version="1.1" id="图层_1" xmlns="http://www.w3.org/2000/svg" xmlns:xlink="http://www.w3.org/1999/xlink" x="0px" y="0px"
	 width="32px" height="32px" viewBox="0 0 32 32" enable-background="new 0 0 32 32" xml:space="preserve">
<g>
	<path fill="#FFFFFF" d="M2.168,31.466c-0.932,0-1.69-0.759-1.69-1.691V2.113c0-0.932,0.758-1.69,1.69-1.69h27.663
		c0.933,0,1.69,0.758,1.69,1.69v27.663c0,0.932-0.758,1.691-1.69,1.691H2.168z"/>
	<path fill="#AFAFAF" d="M29.831,0.845c0.699,0,1.268,0.569,1.268,1.268v27.663c0,0.699-0.569,1.268-1.268,1.268H2.169
		c-0.699,0-1.268-0.569-1.268-1.268V2.113c0-0.699,0.569-1.268,1.268-1.268H29.831 M29.831,0H2.169C1.002,0,0.056,0.946,0.056,2.113
		v27.663c0,1.167,0.946,2.113,2.113,2.113h27.663c1.167,0,2.113-0.946,2.113-2.113V2.113C31.944,0.946,30.998,0,29.831,0L29.831,0z"
		/>
</g>
<g>
	<linearGradient id="SVGID_1_" gradientUnits="userSpaceOnUse" x1="15.9995" y1="30.0666" x2="15.9995" y2="1.8218">
		<stop  offset="0" style="stop-color:#2CA539"/>
		<stop  offset="1" style="stop-color:#009117"/>
	</linearGradient>
	<path fill="url(#SVGID_1_)" d="M2.168,30.067c-0.16,0-0.291-0.131-0.291-0.291V2.113c0-0.16,0.131-0.291,0.291-0.291h27.663
		c0.16,0,0.29,0.131,0.29,0.291v27.662c0,0.16-0.13,0.291-0.29,0.291H2.168z"/>
</g>
<g>
	<g>
		<g>
			<polygon fill="#F5F5F5" points="6.287,6.81 8.791,4.742 8.791,8.879 			"/>
			<path fill="#F5F5F5" d="M15.585,11.85c-1.275-1.505-2.091-2.547-2.496-3.182c-0.548-0.862-0.971-1.017-1.114-1.027L8.182,7.663
				V5.905h3.528c0.479-0.07,1.684-0.029,2.862,1.819c0.245,0.385,0.852,1.217,2.354,2.991L15.585,11.85z"/>
		</g>
		<g>
			<polygon fill="#F5F5F5" points="25.712,14.959 23.208,17.028 23.208,12.89 			"/>
			<path fill="#F5F5F5" d="M16.414,9.919c1.275,1.505,2.091,2.547,2.496,3.182c0.548,0.862,0.971,1.017,1.114,1.027l3.793-0.022
				v1.758h-3.528c-0.479,0.07-1.684,0.029-2.862-1.819c-0.245-0.385-0.852-1.217-2.354-2.991L16.414,9.919z"/>
		</g>
	</g>
	<g>
		<g>
			<polygon fill="#F5F5F5" points="25.712,6.81 23.208,4.742 23.208,8.879 			"/>
			<path fill="#F5F5F5" d="M16.414,11.85c1.275-1.505,2.091-2.547,2.496-3.182c0.548-0.862,0.971-1.017,1.114-1.027l3.793,0.022
				V5.905h-3.528c-0.479-0.07-1.684-0.029-2.862,1.819c-0.245,0.385-0.852,1.217-2.354,2.991L16.414,11.85z"/>
		</g>
		<g>
			<polygon fill="#F5F5F5" points="6.287,14.959 8.791,17.028 8.791,12.89 			"/>
			<path fill="#F5F5F5" d="M15.585,9.919c-1.275,1.505-2.091,2.547-2.496,3.182c-0.548,0.862-0.971,1.017-1.114,1.027l-3.793-0.022
				v1.758h3.528c0.479,0.07,1.684,0.029,2.862-1.819c0.245-0.385,0.852-1.217,2.354-2.991L15.585,9.919z"/>
		</g>
	</g>
</g>
<g>
	<path fill="#FFFFFF" d="M5.024,29.124v-6.341h3.968v0.749h-3.19v1.963h2.76v0.749h-2.76v2.88H5.024z"/>
	<path fill="#FFFFFF" d="M9.71,27.463l0.759-0.069c0.056,0.398,0.187,0.697,0.391,0.897c0.205,0.2,0.451,0.3,0.74,0.3
		c0.348,0,0.642-0.141,0.883-0.424c0.241-0.282,0.361-0.657,0.361-1.125c0-0.444-0.116-0.794-0.347-1.051
		c-0.231-0.257-0.535-0.385-0.909-0.385c-0.232,0-0.442,0.057-0.63,0.17c-0.187,0.114-0.334,0.262-0.441,0.443l-0.678-0.095
		l0.57-3.256h2.925v0.744h-2.347l-0.317,1.704c0.354-0.265,0.724-0.398,1.112-0.398c0.514,0,0.947,0.192,1.3,0.575
		c0.353,0.384,0.53,0.876,0.53,1.479c0,0.574-0.155,1.07-0.465,1.488c-0.377,0.513-0.892,0.77-1.545,0.77
		c-0.535,0-0.972-0.161-1.31-0.484C9.952,28.425,9.759,27.997,9.71,27.463z"/>
	<path fill="#FFFFFF" d="M14.281,25.997c0-0.75,0.072-1.353,0.215-1.81s0.356-0.81,0.638-1.058s0.637-0.372,1.065-0.372
		c0.316,0,0.593,0.069,0.831,0.206c0.238,0.137,0.436,0.334,0.59,0.592c0.155,0.258,0.277,0.573,0.365,0.943
		c0.088,0.371,0.133,0.87,0.133,1.499c0,0.744-0.07,1.344-0.213,1.801s-0.354,0.811-0.637,1.06c-0.282,0.25-0.638,0.374-1.069,0.374
		c-0.567,0-1.012-0.219-1.336-0.657C14.475,28.047,14.281,27.188,14.281,25.997z M15.023,25.997c0,1.041,0.113,1.733,0.339,2.078
		s0.505,0.517,0.836,0.517c0.332,0,0.611-0.173,0.836-0.519c0.227-0.346,0.34-1.038,0.34-2.076c0-1.044-0.113-1.737-0.34-2.081
		c-0.226-0.343-0.507-0.515-0.844-0.515c-0.332,0-0.597,0.151-0.794,0.454C15.147,24.242,15.023,24.956,15.023,25.997z"/>
	<path fill="#FFFFFF" d="M18.851,25.997c0-0.75,0.071-1.353,0.215-1.81s0.355-0.81,0.638-1.058s0.638-0.372,1.065-0.372
		c0.315,0,0.593,0.069,0.831,0.206s0.435,0.334,0.59,0.592c0.155,0.258,0.276,0.573,0.365,0.943c0.088,0.371,0.132,0.87,0.132,1.499
		c0,0.744-0.07,1.344-0.213,1.801c-0.142,0.457-0.354,0.811-0.636,1.06c-0.282,0.25-0.639,0.374-1.069,0.374
		c-0.567,0-1.013-0.219-1.336-0.657C19.045,28.047,18.851,27.188,18.851,25.997z M19.593,25.997c0,1.041,0.113,1.733,0.34,2.078
		c0.226,0.345,0.505,0.517,0.836,0.517c0.332,0,0.61-0.173,0.837-0.519c0.226-0.346,0.339-1.038,0.339-2.076
		c0-1.044-0.113-1.737-0.339-2.081c-0.227-0.343-0.508-0.515-0.845-0.515c-0.332,0-0.597,0.151-0.795,0.454
		C19.718,24.242,19.593,24.956,19.593,25.997z"/>
	<path fill="#FFFFFF" d="M23.421,25.997c0-0.75,0.071-1.353,0.215-1.81s0.355-0.81,0.638-1.058s0.638-0.372,1.065-0.372
		c0.315,0,0.593,0.069,0.831,0.206s0.435,0.334,0.59,0.592c0.155,0.258,0.276,0.573,0.365,0.943c0.088,0.371,0.132,0.87,0.132,1.499
		c0,0.744-0.07,1.344-0.213,1.801c-0.142,0.457-0.354,0.811-0.636,1.06c-0.282,0.25-0.639,0.374-1.069,0.374
		c-0.567,0-1.013-0.219-1.336-0.657C23.615,28.047,23.421,27.188,23.421,25.997z M24.163,25.997c0,1.041,0.113,1.733,0.34,2.078
		c0.226,0.345,0.505,0.517,0.836,0.517c0.332,0,0.61-0.173,0.837-0.519c0.226-0.346,0.339-1.038,0.339-2.076
		c0-1.044-0.113-1.737-0.339-2.081c-0.227-0.343-0.508-0.515-0.845-0.515c-0.332,0-0.597,0.151-0.795,0.454
		C24.288,24.242,24.163,24.956,24.163,25.997z"/>
</g>
<g>
	<path fill="#FFFFFF" d="M12.095,20.221l0.467,0.127c-0.098,0.414-0.274,0.729-0.528,0.946s-0.565,0.326-0.933,0.326
		c-0.38,0-0.69-0.083-0.928-0.25s-0.419-0.409-0.544-0.725c-0.125-0.317-0.187-0.657-0.187-1.02c0-0.396,0.07-0.742,0.21-1.037
		c0.141-0.295,0.34-0.519,0.6-0.672c0.259-0.153,0.544-0.229,0.856-0.229c0.353,0,0.65,0.097,0.891,0.291s0.409,0.466,0.503,0.817
		l-0.46,0.117c-0.082-0.277-0.201-0.478-0.356-0.604s-0.352-0.189-0.587-0.189c-0.271,0-0.498,0.07-0.68,0.21
		s-0.31,0.329-0.384,0.564c-0.074,0.236-0.111,0.48-0.111,0.731c0,0.323,0.044,0.606,0.131,0.847s0.223,0.421,0.408,0.541
		c0.185,0.119,0.385,0.179,0.6,0.179c0.262,0,0.483-0.082,0.665-0.244S12.031,20.541,12.095,20.221z"/>
	<path fill="#FFFFFF" d="M12.995,19.702c0-0.631,0.157-1.125,0.472-1.483c0.314-0.357,0.72-0.536,1.218-0.536
		c0.326,0,0.62,0.084,0.881,0.252s0.461,0.402,0.598,0.702c0.137,0.3,0.206,0.64,0.206,1.021c0,0.386-0.072,0.731-0.217,1.036
		c-0.145,0.304-0.349,0.535-0.614,0.691c-0.265,0.157-0.551,0.235-0.857,0.235c-0.332,0-0.629-0.086-0.891-0.26
		c-0.262-0.173-0.46-0.409-0.595-0.708C13.063,20.353,12.995,20.036,12.995,19.702z M13.477,19.709c0,0.458,0.114,0.82,0.343,1.083
		c0.229,0.264,0.516,0.396,0.86,0.396c0.352,0,0.641-0.133,0.868-0.4c0.227-0.266,0.341-0.645,0.341-1.134
		c0-0.31-0.049-0.58-0.146-0.811s-0.239-0.41-0.426-0.537c-0.187-0.127-0.397-0.191-0.63-0.191c-0.331,0-0.615,0.123-0.854,0.367
		C13.596,18.728,13.477,19.137,13.477,19.709z"/>
	<path fill="#FFFFFF" d="M17.87,21.555v-3.355h-1.163V17.75h2.797v0.449h-1.168v3.355H17.87z"/>
	<path fill="#FFFFFF" d="M19.984,21.555V17.75h1.331c0.234,0,0.413,0.012,0.537,0.036c0.173,0.031,0.318,0.09,0.436,0.178
		s0.211,0.21,0.282,0.367c0.072,0.158,0.107,0.331,0.107,0.519c0,0.324-0.096,0.597-0.286,0.821
		c-0.191,0.224-0.536,0.336-1.035,0.336h-0.905v1.547H19.984z M20.451,19.559h0.912c0.302,0,0.516-0.061,0.643-0.182
		s0.19-0.292,0.19-0.511c0-0.159-0.037-0.295-0.112-0.409c-0.074-0.113-0.173-0.188-0.295-0.225
		c-0.078-0.022-0.224-0.034-0.436-0.034h-0.902V19.559z"/>
</g>
</svg>
