<?xml version="1.0" encoding="utf-8"?>
<!-- Generator: Adobe Illustrator 18.0.0, SVG Export Plug-In . SVG Version: 6.00 Build 0)  -->
<!DOCTYPE svg PUBLIC "-//W3C//DTD SVG 1.1//EN" "http://www.w3.org/Graphics/SVG/1.1/DTD/svg11.dtd">
<svg version="1.1" id="图层_1" xmlns="http://www.w3.org/2000/svg" xmlns:xlink="http://www.w3.org/1999/xlink" x="0px" y="0px"
	 width="32px" height="32px" viewBox="0 0 32 32" enable-background="new 0 0 32 32" xml:space="preserve">
<g>
	<path fill="#FFFFFF" d="M3.038,30.521c-0.874,0-1.584-0.71-1.584-1.584V3.013c0-0.874,0.71-1.584,1.584-1.584h25.924
		c0.874,0,1.584,0.711,1.584,1.584v25.924c0,0.874-0.71,1.584-1.584,1.584H3.038z"/>
	<path fill="#AFAFAF" d="M28.962,1.824c0.655,0,1.188,0.533,1.188,1.188v25.924c0,0.655-0.533,1.188-1.188,1.188H3.038
		c-0.655,0-1.188-0.533-1.188-1.188V3.012c0-0.655,0.533-1.188,1.188-1.188H28.962 M28.962,1.032H3.038
		c-1.094,0-1.98,0.887-1.98,1.98v25.924c0,1.094,0.887,1.98,1.98,1.98h25.924c1.094,0,1.98-0.887,1.98-1.98V3.012
		C30.942,1.919,30.056,1.032,28.962,1.032L28.962,1.032z"/>
</g>
<g>
	<linearGradient id="SVGID_1_" gradientUnits="userSpaceOnUse" x1="15.9996" y1="29.2096" x2="15.9996" y2="2.7395">
		<stop  offset="0" style="stop-color:#FF1F30"/>
		<stop  offset="1" style="stop-color:#C3020F"/>
	</linearGradient>
	<path fill="url(#SVGID_1_)" d="M3.038,29.21c-0.15,0-0.273-0.123-0.273-0.273V3.013c0-0.15,0.123-0.273,0.273-0.273h25.925
		c0.15,0,0.272,0.123,0.272,0.273v25.924c0,0.15-0.122,0.273-0.272,0.273H3.038z"/>
</g>
<g>
	<g>
		<g>
			<polygon fill="#F5F5F5" points="6.897,7.415 9.244,5.476 9.244,9.354 			"/>
			<path fill="#F5F5F5" d="M15.611,12.138c-1.195-1.411-1.96-2.387-2.339-2.982c-0.514-0.808-0.91-0.953-1.044-0.963L8.673,8.214
				V6.566h3.306c0.449-0.065,1.578-0.028,2.682,1.705c0.23,0.361,0.798,1.141,2.206,2.803L15.611,12.138z"/>
		</g>
		<g>
			<polygon fill="#F5F5F5" points="25.102,15.051 22.755,16.99 22.755,13.112 			"/>
			<path fill="#F5F5F5" d="M16.388,10.328c1.195,1.411,1.96,2.387,2.339,2.982c0.514,0.808,0.91,0.953,1.044,0.963l3.554-0.021V15.9
				H20.02c-0.449,0.065-1.578,0.028-2.682-1.705c-0.23-0.361-0.798-1.141-2.206-2.803L16.388,10.328z"/>
		</g>
	</g>
	<g>
		<g>
			<polygon fill="#F5F5F5" points="25.102,7.415 22.755,5.476 22.755,9.354 			"/>
			<path fill="#F5F5F5" d="M16.388,12.138c1.195-1.411,1.96-2.387,2.339-2.982c0.514-0.808,0.91-0.953,1.044-0.963l3.554,0.021
				V6.566H20.02c-0.449-0.065-1.578-0.028-2.682,1.705c-0.23,0.361-0.798,1.141-2.206,2.803L16.388,12.138z"/>
		</g>
		<g>
			<polygon fill="#F5F5F5" points="6.897,15.051 9.244,16.99 9.244,13.112 			"/>
			<path fill="#F5F5F5" d="M15.611,10.328c-1.195,1.411-1.96,2.387-2.339,2.982c-0.514,0.808-0.91,0.953-1.044,0.963l-3.554-0.021
				V15.9h3.306c0.449,0.065,1.578,0.028,2.682-1.705c0.23-0.361,0.798-1.141,2.206-2.803L15.611,10.328z"/>
		</g>
	</g>
</g>
<g>
	<path fill="#FFFFFF" d="M5.713,28.272V22.33h3.719v0.701H6.442v1.841h2.587v0.701H6.442v2.699H5.713z"/>
	<path fill="#FFFFFF" d="M10.104,26.716l0.711-0.064c0.053,0.373,0.175,0.653,0.366,0.841c0.192,0.188,0.424,0.281,0.694,0.281
		c0.326,0,0.602-0.132,0.827-0.396s0.339-0.616,0.339-1.054c0-0.417-0.108-0.745-0.325-0.985c-0.218-0.24-0.501-0.36-0.853-0.36
		c-0.218,0-0.415,0.053-0.59,0.159c-0.176,0.107-0.313,0.246-0.414,0.416l-0.635-0.089l0.533-3.053H13.5v0.697h-2.199l-0.297,1.597
		c0.33-0.248,0.678-0.372,1.041-0.372c0.481,0,0.888,0.18,1.219,0.539s0.496,0.821,0.496,1.386c0,0.538-0.146,1.003-0.437,1.395
		c-0.354,0.481-0.836,0.722-1.447,0.722c-0.502,0-0.911-0.151-1.228-0.454C10.331,27.617,10.15,27.216,10.104,26.716z"/>
	<path fill="#FFFFFF" d="M14.388,25.342c0-0.702,0.067-1.268,0.201-1.696c0.135-0.429,0.334-0.759,0.599-0.991
		c0.264-0.232,0.597-0.349,0.998-0.349c0.296,0,0.555,0.064,0.778,0.192c0.223,0.129,0.407,0.313,0.553,0.556
		s0.26,0.536,0.342,0.884c0.083,0.347,0.124,0.815,0.124,1.404c0,0.697-0.066,1.26-0.199,1.688
		c-0.133,0.428-0.331,0.759-0.596,0.993c-0.265,0.233-0.599,0.351-1.002,0.351c-0.531,0-0.949-0.205-1.252-0.616
		C14.569,27.263,14.388,26.458,14.388,25.342z M15.084,25.342c0,0.976,0.105,1.625,0.317,1.947c0.212,0.323,0.474,0.484,0.784,0.484
		s0.572-0.162,0.784-0.486s0.317-0.973,0.317-1.945c0-0.979-0.105-1.628-0.317-1.949c-0.212-0.322-0.476-0.482-0.792-0.482
		c-0.311,0-0.559,0.142-0.744,0.426C15.2,23.697,15.084,24.366,15.084,25.342z"/>
	<path fill="#FFFFFF" d="M18.671,25.342c0-0.702,0.067-1.268,0.201-1.696c0.135-0.429,0.334-0.759,0.599-0.991
		c0.264-0.232,0.597-0.349,0.998-0.349c0.296,0,0.555,0.064,0.778,0.192c0.223,0.129,0.407,0.313,0.553,0.556
		s0.26,0.536,0.342,0.884c0.083,0.347,0.124,0.815,0.124,1.404c0,0.697-0.066,1.26-0.199,1.688
		c-0.133,0.428-0.331,0.759-0.596,0.993c-0.265,0.233-0.599,0.351-1.002,0.351c-0.531,0-0.949-0.205-1.252-0.616
		C18.853,27.263,18.671,26.458,18.671,25.342z M19.367,25.342c0,0.976,0.105,1.625,0.317,1.947c0.212,0.323,0.474,0.484,0.784,0.484
		s0.572-0.162,0.784-0.486s0.317-0.973,0.317-1.945c0-0.979-0.105-1.628-0.317-1.949c-0.212-0.322-0.476-0.482-0.792-0.482
		c-0.311,0-0.559,0.142-0.744,0.426C19.483,23.697,19.367,24.366,19.367,25.342z"/>
	<path fill="#FFFFFF" d="M22.954,25.342c0-0.702,0.067-1.268,0.201-1.696c0.135-0.429,0.334-0.759,0.599-0.991
		c0.264-0.232,0.597-0.349,0.998-0.349c0.296,0,0.555,0.064,0.778,0.192c0.223,0.129,0.407,0.313,0.553,0.556
		s0.26,0.536,0.342,0.884c0.083,0.347,0.124,0.815,0.124,1.404c0,0.697-0.066,1.26-0.199,1.688
		c-0.133,0.428-0.331,0.759-0.596,0.993c-0.265,0.233-0.599,0.351-1.002,0.351c-0.531,0-0.949-0.205-1.252-0.616
		C23.136,27.263,22.954,26.458,22.954,25.342z M23.65,25.342c0,0.976,0.105,1.625,0.317,1.947c0.212,0.323,0.474,0.484,0.784,0.484
		s0.572-0.162,0.784-0.486s0.317-0.973,0.317-1.945c0-0.979-0.105-1.628-0.317-1.949c-0.212-0.322-0.476-0.482-0.792-0.482
		c-0.311,0-0.559,0.142-0.744,0.426C23.767,23.697,23.65,24.366,23.65,25.342z"/>
</g>
<g>
	<path fill="#FFFFFF" d="M11.83,17.375h0.713v2.061c0,0.327,0.009,0.539,0.026,0.637c0.03,0.155,0.104,0.28,0.218,0.374
		c0.115,0.095,0.271,0.142,0.471,0.142c0.202,0,0.354-0.044,0.458-0.134c0.103-0.089,0.164-0.198,0.186-0.328
		c0.021-0.13,0.031-0.346,0.031-0.646v-2.104h0.712v1.998c0,0.457-0.019,0.779-0.058,0.969c-0.038,0.188-0.109,0.348-0.213,0.478
		c-0.104,0.129-0.242,0.232-0.415,0.31c-0.174,0.077-0.4,0.115-0.68,0.115c-0.337,0-0.592-0.042-0.767-0.125
		c-0.174-0.084-0.312-0.193-0.412-0.327c-0.102-0.135-0.168-0.274-0.2-0.422c-0.047-0.218-0.07-0.54-0.07-0.966V17.375z"/>
	<path fill="#FFFFFF" d="M16.573,21.18v-0.766h-1.444v-0.639l1.531-2.416h0.567v2.413h0.438v0.642h-0.438v0.766H16.573z
		 M16.573,19.772v-1.3l-0.812,1.3H16.573z"/>
	<path fill="#FFFFFF" d="M19.132,17.359c0.343,0,0.609,0.132,0.802,0.395c0.229,0.312,0.345,0.828,0.345,1.549
		s-0.115,1.237-0.347,1.553c-0.191,0.26-0.457,0.389-0.8,0.389s-0.62-0.142-0.83-0.427c-0.21-0.284-0.315-0.792-0.315-1.521
		c0-0.717,0.115-1.232,0.347-1.547C18.524,17.489,18.79,17.359,19.132,17.359z M19.132,17.964c-0.081,0-0.154,0.028-0.219,0.085
		c-0.064,0.056-0.114,0.156-0.149,0.302c-0.046,0.188-0.069,0.506-0.069,0.952c0,0.447,0.021,0.754,0.063,0.921
		s0.094,0.278,0.157,0.333c0.063,0.056,0.137,0.083,0.218,0.083c0.082,0,0.155-0.028,0.22-0.084
		c0.064-0.057,0.113-0.157,0.149-0.303c0.046-0.187,0.069-0.503,0.069-0.95c0-0.446-0.021-0.753-0.063-0.92
		c-0.042-0.166-0.095-0.278-0.157-0.334C19.287,17.992,19.214,17.964,19.132,17.964z"/>
</g>
</svg>
