<?xml version="1.0" encoding="utf-8"?>
<!-- Generator: Adobe Illustrator 18.0.0, SVG Export Plug-In . SVG Version: 6.00 Build 0)  -->
<!DOCTYPE svg PUBLIC "-//W3C//DTD SVG 1.1//EN" "http://www.w3.org/Graphics/SVG/1.1/DTD/svg11.dtd">
<svg version="1.1" id="图层_1" xmlns="http://www.w3.org/2000/svg" xmlns:xlink="http://www.w3.org/1999/xlink" x="0px" y="0px"
	 width="42px" height="42px" viewBox="0 0 42 42" enable-background="new 0 0 42 42" xml:space="preserve">
<g>
	<g>
		<path fill="#FFFFFF" d="M3.9,40.47c-1.169,0-2.12-0.951-2.12-2.12V3.65c0-1.169,0.951-2.12,2.12-2.12h34.7
			c1.169,0,2.12,0.951,2.12,2.12V38.35c0,1.169-0.951,2.12-2.12,2.12H3.9z"/>
		<path fill="#AFAFAF" d="M38.599,2.06c0.877,0,1.59,0.713,1.59,1.59V38.35c0,0.877-0.713,1.59-1.59,1.59H3.9
			c-0.877,0-1.59-0.713-1.59-1.59V3.65c0-0.877,0.713-1.59,1.59-1.59H38.599 M38.599,1H3.9C2.436,1,1.25,2.187,1.25,3.65V38.35
			C1.25,39.813,2.436,41,3.9,41h34.699c1.464,0,2.65-1.187,2.65-2.65V3.65C41.25,2.187,40.063,1,38.599,1L38.599,1z"/>
	</g>
	<g>
		<linearGradient id="SVGID_1_" gradientUnits="userSpaceOnUse" x1="21.249" y1="38.7148" x2="21.249" y2="3.285">
			<stop  offset="0" style="stop-color:#2CA539"/>
			<stop  offset="1" style="stop-color:#009117"/>
		</linearGradient>
		<path fill="url(#SVGID_1_)" d="M3.9,38.715c-0.201,0-0.366-0.165-0.366-0.366V3.65c0-0.201,0.165-0.366,0.366-0.366h34.7
			c0.201,0,0.364,0.165,0.364,0.366v34.699c0,0.201-0.163,0.366-0.364,0.366H3.9z"/>
	</g>
	<g>
		<g>
			<g>
				<polygon fill="#F5F5F5" points="9.066,9.543 12.206,6.947 12.206,12.138 				"/>
				<path fill="#F5F5F5" d="M20.729,15.864c-1.599-1.888-2.623-3.195-3.131-3.992c-0.687-1.081-1.218-1.276-1.398-1.289
					l-4.757,0.028V8.407h4.425c0.601-0.088,2.113-0.037,3.59,2.282c0.308,0.483,1.069,1.527,2.952,3.752L20.729,15.864z"/>
			</g>
			<g>
				<polygon fill="#F5F5F5" points="33.432,19.764 30.292,22.359 30.292,17.169 				"/>
				<path fill="#F5F5F5" d="M21.769,13.442c1.599,1.888,2.623,3.195,3.131,3.992c0.687,1.081,1.218,1.276,1.398,1.289l4.757-0.028
					V20.9H26.63c-0.601,0.088-2.113,0.037-3.59-2.282c-0.308-0.483-1.069-1.527-2.952-3.752L21.769,13.442z"/>
			</g>
		</g>
		<g>
			<g>
				<polygon fill="#F5F5F5" points="33.432,9.543 30.292,6.947 30.292,12.138 				"/>
				<path fill="#F5F5F5" d="M21.769,15.864c1.599-1.888,2.623-3.195,3.131-3.992c0.687-1.081,1.218-1.276,1.398-1.289l4.757,0.028
					V8.407H26.63c-0.601-0.088-2.113-0.037-3.59,2.282c-0.308,0.483-1.069,1.527-2.952,3.752L21.769,15.864z"/>
			</g>
			<g>
				<polygon fill="#F5F5F5" points="9.066,19.764 12.206,22.359 12.206,17.169 				"/>
				<path fill="#F5F5F5" d="M20.729,13.442c-1.599,1.888-2.623,3.195-3.131,3.992c-0.687,1.081-1.218,1.276-1.398,1.289
					l-4.757-0.028V20.9h4.425c0.601,0.088,2.113,0.037,3.59-2.282c0.308-0.483,1.069-1.527,2.952-3.752L20.729,13.442z"/>
			</g>
		</g>
	</g>
	<g>
		<path fill="#FFFFFF" d="M7.482,37.532v-7.954h4.978v0.939H8.458v2.463h3.462v0.939H8.458v3.613H7.482z"/>
		<path fill="#FFFFFF" d="M13.36,35.449l0.952-0.087c0.07,0.499,0.234,0.874,0.491,1.126c0.257,0.251,0.566,0.377,0.929,0.377
			c0.436,0,0.805-0.177,1.107-0.532c0.302-0.354,0.453-0.824,0.453-1.411c0-0.557-0.145-0.996-0.435-1.318
			c-0.29-0.322-0.671-0.483-1.14-0.483c-0.292,0-0.555,0.071-0.79,0.214c-0.235,0.143-0.42,0.328-0.554,0.556l-0.851-0.119
			l0.715-4.085h3.669v0.933h-2.944l-0.398,2.138c0.443-0.333,0.908-0.499,1.395-0.499c0.644,0,1.188,0.241,1.63,0.722
			c0.443,0.481,0.665,1.099,0.665,1.856c0,0.72-0.195,1.342-0.584,1.866c-0.473,0.644-1.119,0.965-1.938,0.965
			c-0.671,0-1.219-0.202-1.643-0.608C13.663,36.655,13.421,36.118,13.36,35.449z"/>
		<path fill="#FFFFFF" d="M19.093,33.61c0-0.941,0.09-1.697,0.269-2.271c0.179-0.573,0.447-1.016,0.801-1.327
			c0.354-0.311,0.799-0.467,1.336-0.467c0.396,0,0.744,0.086,1.042,0.258c0.299,0.171,0.546,0.42,0.74,0.743
			c0.195,0.324,0.348,0.718,0.458,1.183c0.11,0.465,0.167,1.091,0.167,1.88c0,0.933-0.088,1.686-0.267,2.259
			s-0.443,1.017-0.799,1.329c-0.353,0.313-0.801,0.469-1.341,0.469c-0.711,0-1.27-0.274-1.676-0.824
			C19.337,36.181,19.093,35.104,19.093,33.61z M20.025,33.61c0,1.306,0.141,2.174,0.425,2.607c0.284,0.432,0.633,0.648,1.049,0.648
			c0.416,0,0.766-0.217,1.049-0.65c0.284-0.434,0.426-1.302,0.426-2.604c0-1.31-0.142-2.179-0.426-2.61
			c-0.283-0.431-0.636-0.646-1.059-0.646c-0.416,0-0.748,0.19-0.997,0.57C20.18,31.409,20.025,32.304,20.025,33.61z"/>
		<path fill="#FFFFFF" d="M24.825,33.61c0-0.941,0.089-1.697,0.269-2.271c0.18-0.573,0.446-1.016,0.8-1.327
			c0.354-0.311,0.8-0.467,1.336-0.467c0.396,0,0.744,0.086,1.042,0.258s0.545,0.42,0.74,0.743c0.195,0.324,0.347,0.718,0.458,1.183
			c0.11,0.465,0.165,1.091,0.165,1.88c0,0.933-0.088,1.686-0.267,2.259c-0.178,0.573-0.443,1.017-0.797,1.329
			c-0.354,0.313-0.801,0.469-1.341,0.469c-0.712,0-1.27-0.274-1.676-0.824C25.069,36.181,24.825,35.104,24.825,33.61z M25.756,33.61
			c0,1.306,0.142,2.174,0.426,2.607c0.283,0.432,0.633,0.648,1.049,0.648c0.416,0,0.766-0.217,1.05-0.65
			c0.283-0.434,0.425-1.302,0.425-2.604c0-1.31-0.142-2.179-0.425-2.61c-0.284-0.431-0.637-0.646-1.06-0.646
			c-0.416,0-0.748,0.19-0.997,0.57C25.913,31.409,25.756,32.304,25.756,33.61z"/>
		<path fill="#FFFFFF" d="M30.558,33.61c0-0.941,0.089-1.697,0.269-2.271c0.18-0.573,0.446-1.016,0.8-1.327
			c0.354-0.311,0.8-0.467,1.336-0.467c0.396,0,0.744,0.086,1.042,0.258c0.299,0.171,0.545,0.42,0.74,0.743
			c0.195,0.324,0.347,0.718,0.458,1.183c0.11,0.465,0.165,1.091,0.165,1.88c0,0.933-0.088,1.686-0.267,2.259
			c-0.178,0.573-0.443,1.017-0.797,1.329c-0.354,0.313-0.801,0.469-1.341,0.469c-0.712,0-1.27-0.274-1.676-0.824
			C30.802,36.181,30.558,35.104,30.558,33.61z M31.489,33.61c0,1.306,0.142,2.174,0.426,2.607c0.283,0.432,0.633,0.648,1.049,0.648
			c0.416,0,0.766-0.217,1.05-0.65c0.283-0.434,0.425-1.302,0.425-2.604c0-1.31-0.142-2.179-0.425-2.61
			c-0.284-0.431-0.637-0.646-1.06-0.646c-0.416,0-0.748,0.19-0.997,0.57C31.646,31.409,31.489,32.304,31.489,33.61z"/>
	</g>
	<g>
		<path fill="#FFFFFF" d="M16.485,23.559h0.814v2.355c0,0.373,0.01,0.616,0.03,0.727c0.035,0.178,0.118,0.321,0.249,0.429
			s0.31,0.161,0.538,0.161c0.231,0,0.405-0.051,0.522-0.152c0.118-0.102,0.188-0.227,0.212-0.376
			c0.024-0.148,0.036-0.395,0.036-0.738v-2.405h0.815v2.283c0,0.522-0.022,0.891-0.066,1.106c-0.044,0.216-0.125,0.398-0.243,0.546
			c-0.118,0.148-0.277,0.267-0.475,0.354c-0.198,0.088-0.456,0.132-0.776,0.132c-0.385,0-0.677-0.048-0.876-0.144
			c-0.199-0.096-0.357-0.22-0.472-0.374c-0.116-0.153-0.192-0.314-0.228-0.482c-0.054-0.249-0.08-0.617-0.08-1.103V23.559z"/>
		<path fill="#FFFFFF" d="M23.009,24.624l-0.748,0.089c-0.018-0.166-0.066-0.289-0.143-0.368s-0.177-0.119-0.3-0.119
			c-0.164,0-0.301,0.079-0.414,0.238c-0.113,0.158-0.184,0.487-0.213,0.987c0.193-0.245,0.432-0.368,0.718-0.368
			c0.323,0,0.599,0.133,0.829,0.398c0.231,0.265,0.346,0.607,0.346,1.026c0,0.445-0.122,0.802-0.364,1.071
			c-0.242,0.269-0.553,0.403-0.932,0.403c-0.407,0-0.742-0.171-1.004-0.512c-0.262-0.341-0.393-0.9-0.393-1.677
			c0-0.797,0.137-1.372,0.41-1.723c0.273-0.352,0.628-0.528,1.065-0.528c0.306,0,0.56,0.092,0.761,0.277
			C22.825,24.003,22.954,24.272,23.009,24.624z M21.256,26.442c0,0.271,0.058,0.48,0.174,0.627s0.247,0.221,0.396,0.221
			c0.143,0,0.262-0.06,0.358-0.181c0.095-0.121,0.143-0.318,0.143-0.593c0-0.282-0.051-0.489-0.154-0.621
			c-0.103-0.132-0.231-0.197-0.385-0.197c-0.149,0-0.275,0.063-0.377,0.188C21.307,26.011,21.256,26.196,21.256,26.442z"/>
		<path fill="#FFFFFF" d="M24.83,23.541c0.391,0,0.696,0.15,0.916,0.451c0.262,0.355,0.394,0.946,0.394,1.77
			c0,0.823-0.132,1.414-0.396,1.774c-0.218,0.296-0.523,0.445-0.914,0.445c-0.392,0-0.709-0.163-0.949-0.488
			c-0.241-0.325-0.36-0.905-0.36-1.739c0-0.819,0.132-1.408,0.396-1.768C24.135,23.689,24.439,23.541,24.83,23.541z M24.83,24.232
			c-0.094,0-0.176,0.032-0.25,0.097c-0.074,0.064-0.131,0.179-0.171,0.345c-0.054,0.215-0.079,0.578-0.079,1.088
			c0,0.511,0.023,0.861,0.071,1.052c0.047,0.19,0.107,0.318,0.18,0.381c0.073,0.064,0.155,0.095,0.249,0.095
			s0.177-0.032,0.251-0.097c0.073-0.064,0.131-0.18,0.171-0.345c0.054-0.214,0.079-0.575,0.079-1.086c0-0.51-0.023-0.86-0.071-1.051
			c-0.048-0.19-0.108-0.318-0.18-0.382C25.006,24.265,24.924,24.232,24.83,24.232z"/>
	</g>
</g>
</svg>
