<?xml version="1.0" encoding="utf-8"?>
<!-- Generator: Adobe Illustrator 18.0.0, SVG Export Plug-In . SVG Version: 6.00 Build 0)  -->
<!DOCTYPE svg PUBLIC "-//W3C//DTD SVG 1.1//EN" "http://www.w3.org/Graphics/SVG/1.1/DTD/svg11.dtd">
<svg version="1.1" id="图层_1" xmlns="http://www.w3.org/2000/svg" xmlns:xlink="http://www.w3.org/1999/xlink" x="0px" y="0px"
	 width="42px" height="42px" viewBox="0 0 42 42" enable-background="new 0 0 42 42" xml:space="preserve">
<g>
	<path fill="#FFFFFF" d="M3.681,40.4c-1.167,0-2.116-0.949-2.116-2.116V3.646c0-1.167,0.949-2.117,2.116-2.117h34.639
		c1.167,0,2.116,0.95,2.116,2.117v34.639c0,1.167-0.949,2.116-2.116,2.116H3.681z"/>
	<path fill="#AFAFAF" d="M38.319,2.058c0.875,0,1.587,0.712,1.587,1.587v34.639c0,0.875-0.712,1.587-1.587,1.587H3.681
		c-0.875,0-1.587-0.712-1.587-1.587V3.645c0-0.875,0.712-1.587,1.587-1.587H38.319 M38.319,1H3.681C2.22,1,1.035,2.184,1.035,3.645
		v34.639c0,1.461,1.185,2.646,2.646,2.646h34.638c1.461,0,2.646-1.185,2.646-2.646V3.645C40.965,2.184,39.78,1,38.319,1L38.319,1z"
		/>
</g>
<g>
	<linearGradient id="SVGID_1_" gradientUnits="userSpaceOnUse" x1="20.9994" y1="38.6482" x2="20.9994" y2="3.2806">
		<stop  offset="0" style="stop-color:#F1E821"/>
		<stop  offset="1" style="stop-color:#D6B900"/>
	</linearGradient>
	<path fill="url(#SVGID_1_)" d="M3.68,38.648c-0.201,0-0.365-0.164-0.365-0.365V3.645c0-0.201,0.164-0.365,0.365-0.365H38.32
		c0.201,0,0.363,0.164,0.363,0.365v34.638c0,0.201-0.163,0.365-0.363,0.365H3.68z"/>
</g>
<g>
	<g>
		<g>
			<polygon fill="#A37C00" points="8.837,9.527 11.973,6.937 11.973,12.118 			"/>
			<path fill="#A37C00" d="M20.48,15.838c-1.596-1.885-2.619-3.19-3.125-3.985c-0.686-1.079-1.216-1.274-1.395-1.286l-4.749,0.028
				V8.394h4.418c0.6-0.087,2.109-0.037,3.584,2.278c0.307,0.482,1.067,1.524,2.947,3.745L20.48,15.838z"/>
		</g>
		<g>
			<polygon fill="#A37C00" points="33.161,19.731 30.026,22.321 30.026,17.14 			"/>
			<path fill="#A37C00" d="M21.519,13.42c1.596,1.885,2.619,3.19,3.125,3.985c0.686,1.079,1.216,1.274,1.395,1.286l4.749-0.028
				v2.201h-4.418c-0.6,0.087-2.109,0.037-3.584-2.278c-0.307-0.482-1.067-1.524-2.947-3.745L21.519,13.42z"/>
		</g>
	</g>
	<g>
		<g>
			<polygon fill="#A37C00" points="33.161,9.527 30.026,6.937 30.026,12.118 			"/>
			<path fill="#A37C00" d="M21.519,15.838c1.596-1.885,2.619-3.19,3.125-3.985c0.686-1.079,1.216-1.274,1.395-1.286l4.749,0.028
				V8.394h-4.418c-0.6-0.087-2.109-0.037-3.584,2.278c-0.307,0.482-1.067,1.524-2.947,3.745L21.519,15.838z"/>
		</g>
		<g>
			<polygon fill="#A37C00" points="8.837,19.731 11.973,22.321 11.973,17.14 			"/>
			<path fill="#A37C00" d="M20.48,13.42c-1.596,1.885-2.619,3.19-3.125,3.985c-0.686,1.079-1.216,1.274-1.395,1.286l-4.749-0.028
				v2.201h4.418c0.6,0.087,2.109,0.037,3.584-2.278c0.307-0.482,1.067-1.524,2.947-3.745L20.48,13.42z"/>
		</g>
	</g>
</g>
<g>
	<path fill="#A37C00" d="M7.996,37.398v-7.939h4.969v0.937H8.97v2.459h3.457v0.937H8.97v3.607H7.996z"/>
	<path fill="#A37C00" d="M13.864,35.318l0.949-0.086c0.07,0.498,0.234,0.873,0.49,1.123c0.256,0.251,0.565,0.377,0.927,0.377
		c0.436,0,0.804-0.177,1.105-0.531c0.301-0.354,0.452-0.823,0.452-1.408c0-0.556-0.145-0.994-0.435-1.315
		c-0.29-0.321-0.669-0.482-1.138-0.482c-0.292,0-0.554,0.071-0.789,0.214s-0.419,0.328-0.553,0.556l-0.849-0.119l0.713-4.078h3.663
		v0.932h-2.939l-0.397,2.134c0.442-0.332,0.906-0.499,1.392-0.499c0.643,0,1.186,0.24,1.628,0.721
		c0.442,0.48,0.663,1.098,0.663,1.853c0,0.719-0.194,1.339-0.583,1.862c-0.473,0.644-1.117,0.965-1.935,0.965
		c-0.67,0-1.217-0.202-1.64-0.606C14.167,36.522,13.924,35.986,13.864,35.318z"/>
	<path fill="#A37C00" d="M19.587,33.482c0-0.938,0.089-1.694,0.269-2.267s0.445-1.013,0.799-1.324
		c0.354-0.31,0.798-0.465,1.334-0.465c0.396,0,0.742,0.085,1.04,0.257c0.298,0.172,0.544,0.419,0.739,0.742s0.347,0.717,0.457,1.181
		c0.111,0.464,0.166,1.089,0.166,1.876c0,0.932-0.089,1.684-0.267,2.256c-0.177,0.572-0.443,1.015-0.796,1.327
		c-0.353,0.313-0.799,0.469-1.339,0.469c-0.71,0-1.268-0.274-1.673-0.823C19.83,36.05,19.587,34.974,19.587,33.482z M20.516,33.482
		c0,1.304,0.142,2.171,0.425,2.603c0.283,0.432,0.632,0.647,1.047,0.647s0.765-0.217,1.048-0.65c0.283-0.433,0.424-1.3,0.424-2.6
		c0-1.307-0.142-2.175-0.424-2.604c-0.283-0.43-0.636-0.645-1.058-0.645c-0.416,0-0.747,0.189-0.995,0.568
		C20.672,31.286,20.516,32.18,20.516,33.482z"/>
	<path fill="#A37C00" d="M25.31,33.482c0-0.938,0.089-1.694,0.269-2.267s0.445-1.013,0.799-1.324
		c0.354-0.31,0.798-0.465,1.334-0.465c0.396,0,0.742,0.085,1.04,0.257c0.298,0.172,0.544,0.419,0.739,0.742s0.347,0.717,0.457,1.181
		c0.111,0.464,0.166,1.089,0.166,1.876c0,0.932-0.089,1.684-0.267,2.256c-0.177,0.572-0.443,1.015-0.796,1.327
		c-0.353,0.313-0.799,0.469-1.339,0.469c-0.71,0-1.268-0.274-1.673-0.823C25.552,36.05,25.31,34.974,25.31,33.482z M26.239,33.482
		c0,1.304,0.142,2.171,0.425,2.603c0.283,0.432,0.632,0.647,1.047,0.647s0.765-0.217,1.048-0.65c0.283-0.433,0.424-1.3,0.424-2.6
		c0-1.307-0.142-2.175-0.424-2.604c-0.283-0.43-0.636-0.645-1.058-0.645c-0.416,0-0.747,0.189-0.995,0.568
		C26.395,31.286,26.239,32.18,26.239,33.482z"/>
	<path fill="#A37C00" d="M31.032,33.482c0-0.938,0.089-1.694,0.269-2.267s0.445-1.013,0.799-1.324
		c0.354-0.31,0.798-0.465,1.334-0.465c0.396,0,0.742,0.085,1.04,0.257c0.298,0.172,0.544,0.419,0.739,0.742s0.347,0.717,0.457,1.181
		c0.111,0.464,0.166,1.089,0.166,1.876c0,0.932-0.089,1.684-0.267,2.256c-0.177,0.572-0.443,1.015-0.796,1.327
		c-0.353,0.313-0.799,0.469-1.339,0.469c-0.71,0-1.268-0.274-1.673-0.823C31.275,36.05,31.032,34.974,31.032,33.482z M31.961,33.482
		c0,1.304,0.142,2.171,0.425,2.603c0.283,0.432,0.632,0.647,1.047,0.647s0.765-0.217,1.048-0.65c0.283-0.433,0.424-1.3,0.424-2.6
		c0-1.307-0.142-2.175-0.424-2.604c-0.283-0.43-0.636-0.645-1.058-0.645c-0.416,0-0.747,0.189-0.995,0.568
		C32.117,31.286,31.961,32.18,31.961,33.482z"/>
</g>
<g>
	<path fill="#A37C00" d="M16.168,22.836h0.952v2.753c0,0.437,0.012,0.72,0.036,0.85c0.041,0.208,0.138,0.375,0.291,0.501
		s0.363,0.188,0.629,0.188c0.27,0,0.474-0.059,0.611-0.178s0.22-0.266,0.248-0.439c0.028-0.173,0.042-0.461,0.042-0.863v-2.812
		h0.952v2.67c0,0.61-0.026,1.041-0.078,1.293c-0.051,0.252-0.146,0.465-0.285,0.638c-0.138,0.174-0.323,0.312-0.555,0.415
		c-0.231,0.103-0.534,0.154-0.907,0.154c-0.45,0-0.792-0.057-1.024-0.168c-0.233-0.112-0.417-0.258-0.552-0.438
		c-0.135-0.179-0.224-0.367-0.267-0.563c-0.062-0.291-0.093-0.721-0.093-1.29V22.836z"/>
	<path fill="#A37C00" d="M22.505,27.919v-1.022h-1.93v-0.854l2.046-3.228h0.759v3.225h0.585v0.856H23.38v1.022H22.505z
		 M22.505,26.04v-1.737l-1.084,1.737H22.505z"/>
	<path fill="#A37C00" d="M25.925,22.815c0.457,0,0.814,0.175,1.071,0.526c0.307,0.416,0.46,1.106,0.46,2.07
		c0,0.962-0.154,1.652-0.463,2.073c-0.255,0.347-0.611,0.521-1.068,0.521c-0.459,0-0.829-0.19-1.109-0.57
		c-0.281-0.381-0.421-1.059-0.421-2.034c0-0.957,0.154-1.646,0.463-2.066C25.112,22.988,25.468,22.815,25.925,22.815z
		 M25.925,23.623c-0.109,0-0.207,0.037-0.292,0.112c-0.086,0.075-0.152,0.21-0.2,0.404c-0.062,0.252-0.093,0.676-0.093,1.272
		s0.028,1.006,0.084,1.229c0.056,0.223,0.126,0.371,0.21,0.445c0.085,0.074,0.182,0.11,0.291,0.11s0.207-0.037,0.293-0.112
		c0.085-0.075,0.152-0.21,0.199-0.404c0.063-0.249,0.093-0.672,0.093-1.269s-0.028-1.006-0.083-1.229
		c-0.056-0.223-0.126-0.372-0.21-0.447C26.131,23.66,26.034,23.623,25.925,23.623z"/>
</g>
</svg>
