<?xml version="1.0" encoding="utf-8"?>
<!-- Generator: Adobe Illustrator 18.0.0, SVG Export Plug-In . SVG Version: 6.00 Build 0)  -->
<!DOCTYPE svg PUBLIC "-//W3C//DTD SVG 1.1//EN" "http://www.w3.org/Graphics/SVG/1.1/DTD/svg11.dtd">
<svg version="1.1" id="图层_1" xmlns="http://www.w3.org/2000/svg" xmlns:xlink="http://www.w3.org/1999/xlink" x="0px" y="0px"
	 width="42px" height="42px" viewBox="0 0 42 42" enable-background="new 0 0 42 42" xml:space="preserve">
<g>
	<path fill="#FFFFFF" d="M3.247,40.889c-1.196,0-2.169-0.974-2.169-2.17V3.212c0-1.196,0.973-2.169,2.169-2.169h35.506
		c1.196,0,2.17,0.973,2.17,2.169v35.506c0,1.196-0.974,2.17-2.17,2.17H3.247z"/>
	<path fill="#AFAFAF" d="M38.753,1.585c0.897,0,1.627,0.73,1.627,1.627v35.506c0,0.897-0.73,1.627-1.627,1.627H3.247
		c-0.897,0-1.627-0.73-1.627-1.627V3.213c0-0.897,0.73-1.627,1.627-1.627H38.753 M38.753,0.501H3.247
		c-1.498,0-2.712,1.214-2.712,2.712v35.506c0,1.498,1.214,2.712,2.712,2.712h35.506c1.498,0,2.712-1.214,2.712-2.712V3.213
		C41.465,1.715,40.251,0.501,38.753,0.501L38.753,0.501z"/>
</g>
<g>
	<linearGradient id="SVGID_1_" gradientUnits="userSpaceOnUse" x1="20.9994" y1="39.0925" x2="20.9994" y2="2.8387">
		<stop  offset="0" style="stop-color:#FF7F01"/>
		<stop  offset="1" style="stop-color:#F05800"/>
	</linearGradient>
	<path fill="url(#SVGID_1_)" d="M3.247,39.093c-0.206,0-0.374-0.168-0.374-0.374V3.213c0-0.206,0.168-0.374,0.374-0.374h35.507
		c0.206,0,0.373,0.168,0.373,0.374v35.506c0,0.206-0.167,0.374-0.373,0.374H3.247z"/>
</g>
<g>
	<g>
		<g>
			<polygon fill="#F5F5F5" points="8.533,9.242 11.747,6.586 11.747,11.898 			"/>
			<path fill="#F5F5F5" d="M20.467,15.711c-1.636-1.932-2.684-3.269-3.203-4.085c-0.703-1.106-1.246-1.306-1.43-1.318l-4.868,0.028
				V8.08h4.528c0.615-0.09,2.162-0.038,3.674,2.335c0.315,0.494,1.094,1.562,3.021,3.839L20.467,15.711z"/>
		</g>
		<g>
			<polygon fill="#F5F5F5" points="33.466,19.701 30.252,22.357 30.252,17.046 			"/>
			<path fill="#F5F5F5" d="M21.532,13.232c1.636,1.932,2.684,3.269,3.203,4.085c0.703,1.106,1.246,1.306,1.43,1.318l4.868-0.028
				v2.256h-4.528c-0.615,0.09-2.162,0.038-3.674-2.335c-0.315-0.494-1.094-1.562-3.021-3.839L21.532,13.232z"/>
		</g>
	</g>
	<g>
		<g>
			<polygon fill="#F5F5F5" points="33.466,9.242 30.252,6.586 30.252,11.898 			"/>
			<path fill="#F5F5F5" d="M21.532,15.711c1.636-1.932,2.684-3.269,3.203-4.085c0.703-1.106,1.246-1.306,1.43-1.318l4.868,0.028
				V8.08h-4.528c-0.615-0.09-2.162-0.038-3.674,2.335c-0.315,0.494-1.094,1.562-3.021,3.839L21.532,15.711z"/>
		</g>
		<g>
			<polygon fill="#F5F5F5" points="8.533,19.701 11.747,22.357 11.747,17.046 			"/>
			<path fill="#F5F5F5" d="M20.467,13.232c-1.636,1.932-2.684,3.269-3.203,4.085c-0.703,1.106-1.246,1.306-1.43,1.318l-4.868-0.028
				v2.256h4.528c0.615,0.09,2.162,0.038,3.674-2.335c0.315-0.494,1.094-1.562,3.021-3.839L20.467,13.232z"/>
		</g>
	</g>
</g>
<g>
	<path fill="#FFFFFF" d="M6.91,37.808v-8.139h5.094v0.961H7.909v2.52h3.543v0.961H7.909v3.697H6.91z"/>
	<path fill="#FFFFFF" d="M12.926,35.676l0.973-0.089c0.072,0.511,0.24,0.895,0.502,1.152c0.263,0.257,0.58,0.386,0.95,0.386
		c0.447,0,0.824-0.182,1.133-0.544c0.309-0.363,0.463-0.844,0.463-1.443c0-0.57-0.148-1.02-0.445-1.35
		c-0.297-0.329-0.686-0.494-1.167-0.494c-0.299,0-0.568,0.073-0.809,0.22s-0.429,0.336-0.566,0.569L13.09,33.96l0.731-4.18h3.754
		v0.955h-3.013l-0.407,2.187c0.454-0.34,0.929-0.511,1.427-0.511c0.659,0,1.215,0.246,1.669,0.738
		c0.453,0.493,0.68,1.126,0.68,1.899c0,0.736-0.199,1.373-0.598,1.909c-0.484,0.659-1.145,0.988-1.983,0.988
		c-0.687,0-1.247-0.207-1.681-0.622C13.235,36.91,12.987,36.36,12.926,35.676z"/>
	<path fill="#FFFFFF" d="M18.792,33.794c0-0.962,0.092-1.736,0.275-2.323s0.457-1.039,0.819-1.357s0.818-0.478,1.367-0.478
		c0.405,0,0.76,0.088,1.067,0.264c0.305,0.176,0.557,0.43,0.756,0.761s0.355,0.734,0.469,1.21s0.17,1.117,0.17,1.924
		c0,0.955-0.09,1.726-0.271,2.313c-0.184,0.586-0.455,1.04-0.816,1.359c-0.363,0.32-0.821,0.48-1.374,0.48
		c-0.728,0-1.299-0.281-1.715-0.844C19.041,36.425,18.792,35.322,18.792,33.794z M19.745,33.794c0,1.336,0.145,2.226,0.435,2.667
		c0.29,0.442,0.648,0.664,1.074,0.664s0.784-0.223,1.075-0.666c0.289-0.444,0.434-1.333,0.434-2.665c0-1.34-0.145-2.229-0.434-2.67
		c-0.291-0.44-0.652-0.661-1.085-0.661c-0.426,0-0.766,0.194-1.02,0.583C19.904,31.542,19.745,32.458,19.745,33.794z"/>
	<path fill="#FFFFFF" d="M24.657,33.794c0-0.962,0.092-1.736,0.275-2.323s0.457-1.039,0.819-1.357s0.818-0.478,1.367-0.478
		c0.405,0,0.761,0.088,1.066,0.264s0.558,0.43,0.757,0.761s0.355,0.734,0.469,1.21s0.17,1.117,0.17,1.924
		c0,0.955-0.091,1.726-0.272,2.313c-0.183,0.586-0.454,1.04-0.816,1.359c-0.362,0.32-0.82,0.48-1.373,0.48
		c-0.728,0-1.3-0.281-1.715-0.844C24.906,36.425,24.657,35.322,24.657,33.794z M25.61,33.794c0,1.336,0.145,2.226,0.436,2.667
		c0.29,0.442,0.647,0.664,1.073,0.664s0.784-0.223,1.074-0.666c0.29-0.444,0.435-1.333,0.435-2.665c0-1.34-0.145-2.229-0.435-2.67
		s-0.651-0.661-1.084-0.661c-0.426,0-0.766,0.194-1.021,0.583C25.77,31.542,25.61,32.458,25.61,33.794z"/>
	<path fill="#FFFFFF" d="M30.523,33.794c0-0.962,0.092-1.736,0.275-2.323s0.457-1.039,0.819-1.357s0.818-0.478,1.367-0.478
		c0.405,0,0.761,0.088,1.066,0.264s0.558,0.43,0.757,0.761s0.355,0.734,0.469,1.21s0.17,1.117,0.17,1.924
		c0,0.955-0.091,1.726-0.272,2.313c-0.183,0.586-0.454,1.04-0.816,1.359c-0.362,0.32-0.82,0.48-1.373,0.48
		c-0.728,0-1.3-0.281-1.715-0.844C30.772,36.425,30.523,35.322,30.523,33.794z M31.477,33.794c0,1.336,0.145,2.226,0.436,2.667
		c0.29,0.442,0.647,0.664,1.073,0.664s0.784-0.223,1.074-0.666c0.29-0.444,0.435-1.333,0.435-2.665c0-1.34-0.145-2.229-0.435-2.67
		s-0.651-0.661-1.084-0.661c-0.426,0-0.766,0.194-1.021,0.583C31.636,31.542,31.477,32.458,31.477,33.794z"/>
</g>
<g>
	<path fill="#FFFFFF" d="M15.987,26.381l0.599,0.163c-0.125,0.53-0.352,0.936-0.678,1.214c-0.327,0.279-0.726,0.418-1.197,0.418
		c-0.488,0-0.885-0.106-1.191-0.321c-0.306-0.214-0.539-0.524-0.698-0.931s-0.239-0.843-0.239-1.31c0-0.508,0.09-0.952,0.27-1.33
		c0.18-0.379,0.437-0.667,0.77-0.863s0.699-0.295,1.099-0.295c0.453,0,0.834,0.125,1.143,0.373c0.309,0.249,0.524,0.599,0.646,1.05
		l-0.59,0.149c-0.105-0.354-0.257-0.613-0.457-0.775c-0.2-0.162-0.451-0.243-0.754-0.243c-0.348,0-0.639,0.09-0.873,0.27
		s-0.398,0.421-0.493,0.725c-0.095,0.303-0.142,0.615-0.142,0.938c0,0.415,0.056,0.777,0.168,1.088
		c0.112,0.31,0.287,0.541,0.524,0.694s0.493,0.229,0.77,0.229c0.335,0,0.62-0.104,0.853-0.313
		C15.747,27.102,15.905,26.792,15.987,26.381z"/>
	<path fill="#FFFFFF" d="M17.143,25.715c0-0.811,0.202-1.445,0.605-1.904c0.404-0.458,0.925-0.688,1.563-0.688
		c0.418,0,0.795,0.107,1.131,0.323c0.336,0.215,0.592,0.516,0.768,0.9c0.176,0.386,0.264,0.822,0.264,1.312
		c0,0.495-0.093,0.938-0.278,1.329c-0.186,0.391-0.448,0.687-0.788,0.888c-0.34,0.2-0.707,0.301-1.1,0.301
		c-0.426,0-0.808-0.11-1.144-0.333c-0.335-0.222-0.59-0.525-0.763-0.909C17.229,26.55,17.143,26.144,17.143,25.715z M17.761,25.725
		c0,0.588,0.147,1.052,0.44,1.391s0.662,0.508,1.105,0.508c0.451,0,0.822-0.171,1.114-0.513s0.438-0.827,0.438-1.456
		c0-0.397-0.063-0.744-0.187-1.041c-0.125-0.296-0.307-0.526-0.547-0.689c-0.24-0.163-0.509-0.244-0.808-0.244
		c-0.425,0-0.79,0.156-1.096,0.471C17.914,24.465,17.761,24.989,17.761,25.725z"/>
	<path fill="#FFFFFF" d="M23.4,28.093v-4.307h-1.493V23.21h3.59v0.576H24v4.307H23.4z"/>
	<path fill="#FFFFFF" d="M26.113,28.093V23.21h1.709c0.301,0,0.53,0.016,0.688,0.046c0.223,0.04,0.409,0.116,0.56,0.229
		s0.271,0.27,0.363,0.472s0.138,0.424,0.138,0.666c0,0.415-0.123,0.767-0.368,1.054c-0.245,0.288-0.688,0.432-1.328,0.432h-1.162
		v1.985H26.113z M26.713,25.531h1.171c0.388,0,0.662-0.078,0.825-0.233s0.244-0.374,0.244-0.656c0-0.204-0.048-0.379-0.144-0.524
		s-0.223-0.241-0.379-0.288c-0.101-0.028-0.287-0.043-0.56-0.043h-1.158V25.531z"/>
</g>
</svg>
