<?xml version="1.0" encoding="utf-8"?>
<!-- Generator: Adobe Illustrator 18.0.0, SVG Export Plug-In . SVG Version: 6.00 Build 0)  -->
<!DOCTYPE svg PUBLIC "-//W3C//DTD SVG 1.1//EN" "http://www.w3.org/Graphics/SVG/1.1/DTD/svg11.dtd">
<svg version="1.1" id="图层_1" xmlns="http://www.w3.org/2000/svg" xmlns:xlink="http://www.w3.org/1999/xlink" x="0px" y="0px"
	 width="32px" height="32px" viewBox="0 0 32 32" enable-background="new 0 0 32 32" xml:space="preserve">
<g>
	<path fill="#FFFFFF" d="M3.033,30.5c-0.874,0-1.585-0.711-1.585-1.585V2.98c0-0.874,0.711-1.585,1.585-1.585h25.934
		c0.874,0,1.585,0.711,1.585,1.585v25.934c0,0.874-0.711,1.585-1.585,1.585H3.033z"/>
	<path fill="#AFAFAF" d="M28.967,1.792c0.655,0,1.189,0.533,1.189,1.189v25.934c0,0.655-0.533,1.189-1.189,1.189H3.033
		c-0.655,0-1.189-0.533-1.189-1.189V2.98c0-0.655,0.533-1.189,1.189-1.189H28.967 M28.967,1H3.033C1.939,1,1.052,1.886,1.052,2.98
		v25.934c0,1.094,0.887,1.981,1.981,1.981h25.934c1.094,0,1.981-0.887,1.981-1.981V2.98C30.948,1.886,30.061,1,28.967,1L28.967,1z"
		/>
</g>
<g>
	<linearGradient id="SVGID_1_" gradientUnits="userSpaceOnUse" x1="15.9996" y1="29.1874" x2="15.9996" y2="2.7074">
		<stop  offset="0" style="stop-color:#00AEF9"/>
		<stop  offset="1" style="stop-color:#0092E1"/>
	</linearGradient>
	<path fill="url(#SVGID_1_)" d="M3.033,29.187c-0.15,0-0.273-0.123-0.273-0.273V2.981c0-0.15,0.123-0.273,0.273-0.273h25.935
		c0.15,0,0.272,0.123,0.272,0.273v25.934c0,0.15-0.122,0.273-0.272,0.273H3.033z"/>
</g>
<g>
	<g>
		<g>
			<polygon fill="#F5F5F5" points="6.894,7.384 9.241,5.445 9.241,9.324 			"/>
			<path fill="#F5F5F5" d="M15.611,12.109c-1.195-1.411-1.961-2.388-2.34-2.983c-0.514-0.808-0.91-0.954-1.045-0.963L8.671,8.184
				V6.536h3.307c0.449-0.066,1.579-0.028,2.683,1.705c0.23,0.361,0.799,1.141,2.206,2.804L15.611,12.109z"/>
		</g>
		<g>
			<polygon fill="#F5F5F5" points="25.105,15.024 22.758,16.963 22.758,13.084 			"/>
			<path fill="#F5F5F5" d="M16.388,10.299c1.195,1.411,1.961,2.388,2.34,2.983c0.514,0.808,0.91,0.954,1.045,0.963l3.556-0.021
				v1.648h-3.307c-0.449,0.066-1.579,0.028-2.683-1.705c-0.23-0.361-0.799-1.141-2.206-2.804L16.388,10.299z"/>
		</g>
	</g>
	<g>
		<g>
			<polygon fill="#F5F5F5" points="25.105,7.384 22.758,5.445 22.758,9.324 			"/>
			<path fill="#F5F5F5" d="M16.388,12.109c1.195-1.411,1.961-2.388,2.34-2.983c0.514-0.808,0.91-0.954,1.045-0.963l3.556,0.021
				V6.536h-3.307c-0.449-0.066-1.579-0.028-2.683,1.705c-0.23,0.361-0.799,1.141-2.206,2.804L16.388,12.109z"/>
		</g>
		<g>
			<polygon fill="#F5F5F5" points="6.894,15.024 9.241,16.963 9.241,13.084 			"/>
			<path fill="#F5F5F5" d="M15.611,10.299c-1.195,1.411-1.961,2.388-2.34,2.983c-0.514,0.808-0.91,0.954-1.045,0.963l-3.556-0.021
				v1.648h3.307c0.449,0.066,1.579,0.028,2.683-1.705c0.23-0.361,0.799-1.141,2.206-2.804L15.611,10.299z"/>
		</g>
	</g>
</g>
<g>
	<path fill="#FFFFFF" d="M5.71,28.304V22.36h3.721v0.701H6.439v1.841h2.589v0.701H6.439v2.701H5.71z"/>
	<path fill="#FFFFFF" d="M10.104,26.747l0.711-0.065c0.053,0.373,0.176,0.654,0.367,0.841c0.191,0.188,0.423,0.282,0.694,0.282
		c0.326,0,0.602-0.133,0.827-0.397c0.226-0.265,0.339-0.617,0.339-1.054c0-0.417-0.108-0.745-0.325-0.985
		c-0.217-0.241-0.501-0.361-0.853-0.361c-0.218,0-0.415,0.053-0.591,0.16c-0.175,0.106-0.313,0.245-0.413,0.416l-0.636-0.089
		l0.534-3.053h2.742v0.697H11.3l-0.297,1.598c0.331-0.249,0.679-0.373,1.042-0.373c0.481,0,0.888,0.18,1.219,0.54
		c0.331,0.359,0.497,0.822,0.497,1.387c0,0.538-0.146,1.003-0.437,1.395c-0.354,0.481-0.837,0.722-1.448,0.722
		c-0.502,0-0.911-0.151-1.229-0.454S10.149,27.247,10.104,26.747z"/>
	<path fill="#FFFFFF" d="M14.388,25.373c0-0.703,0.067-1.269,0.202-1.697c0.134-0.429,0.333-0.759,0.598-0.992
		s0.598-0.349,0.999-0.349c0.296,0,0.555,0.064,0.778,0.192c0.224,0.128,0.407,0.314,0.553,0.556
		c0.146,0.242,0.26,0.537,0.343,0.884c0.083,0.348,0.124,0.816,0.124,1.405c0,0.697-0.066,1.26-0.199,1.689
		c-0.133,0.428-0.332,0.759-0.597,0.993s-0.599,0.351-1.002,0.351c-0.532,0-0.949-0.206-1.253-0.617
		C14.57,27.294,14.388,26.489,14.388,25.373z M15.084,25.373c0,0.976,0.106,1.625,0.318,1.948c0.212,0.323,0.473,0.485,0.784,0.485
		c0.311,0,0.572-0.163,0.784-0.487s0.317-0.973,0.317-1.946c0-0.979-0.105-1.629-0.317-1.95c-0.212-0.322-0.476-0.483-0.792-0.483
		c-0.311,0-0.56,0.142-0.745,0.426C15.2,23.728,15.084,24.396,15.084,25.373z"/>
	<path fill="#FFFFFF" d="M18.672,25.373c0-0.703,0.067-1.269,0.202-1.697c0.134-0.429,0.333-0.759,0.598-0.992
		s0.598-0.349,0.999-0.349c0.296,0,0.555,0.064,0.778,0.192c0.224,0.128,0.407,0.314,0.553,0.556
		c0.146,0.242,0.26,0.537,0.343,0.884c0.083,0.348,0.124,0.816,0.124,1.405c0,0.697-0.066,1.26-0.199,1.689
		c-0.133,0.428-0.332,0.759-0.597,0.993s-0.599,0.351-1.002,0.351c-0.532,0-0.949-0.206-1.253-0.617
		C18.854,27.294,18.672,26.489,18.672,25.373z M19.368,25.373c0,0.976,0.106,1.625,0.318,1.948c0.212,0.323,0.473,0.485,0.784,0.485
		c0.311,0,0.572-0.163,0.784-0.487s0.317-0.973,0.317-1.946c0-0.979-0.105-1.629-0.317-1.95c-0.212-0.322-0.476-0.483-0.792-0.483
		c-0.311,0-0.56,0.142-0.745,0.426C19.484,23.728,19.368,24.396,19.368,25.373z"/>
	<path fill="#FFFFFF" d="M22.956,25.373c0-0.703,0.067-1.269,0.202-1.697c0.134-0.429,0.333-0.759,0.598-0.992
		s0.598-0.349,0.999-0.349c0.296,0,0.555,0.064,0.778,0.192c0.224,0.128,0.407,0.314,0.553,0.556
		c0.146,0.242,0.26,0.537,0.343,0.884c0.083,0.348,0.124,0.816,0.124,1.405c0,0.697-0.066,1.26-0.199,1.689
		c-0.133,0.428-0.332,0.759-0.597,0.993s-0.599,0.351-1.002,0.351c-0.532,0-0.949-0.206-1.253-0.617
		C23.139,27.294,22.956,26.489,22.956,25.373z M23.652,25.373c0,0.976,0.106,1.625,0.318,1.948c0.212,0.323,0.473,0.485,0.784,0.485
		c0.311,0,0.572-0.163,0.784-0.487s0.317-0.973,0.317-1.946c0-0.979-0.105-1.629-0.317-1.95c-0.212-0.322-0.476-0.483-0.792-0.483
		c-0.311,0-0.56,0.142-0.745,0.426C23.769,23.728,23.652,24.396,23.652,25.373z"/>
</g>
<g>
	<path fill="#FFFFFF" d="M11.831,17.403h0.713v2.061c0,0.327,0.009,0.539,0.026,0.636c0.03,0.156,0.104,0.281,0.218,0.375
		c0.115,0.094,0.271,0.141,0.471,0.141c0.202,0,0.354-0.044,0.458-0.133c0.103-0.089,0.164-0.199,0.186-0.329
		c0.021-0.13,0.031-0.345,0.031-0.646v-2.104h0.712v1.998c0,0.457-0.019,0.779-0.058,0.968c-0.038,0.189-0.109,0.348-0.213,0.478
		c-0.104,0.13-0.242,0.233-0.415,0.31c-0.174,0.077-0.4,0.116-0.68,0.116c-0.337,0-0.592-0.042-0.767-0.126
		c-0.174-0.084-0.312-0.193-0.412-0.327c-0.102-0.134-0.168-0.274-0.2-0.421c-0.047-0.218-0.07-0.54-0.07-0.965V17.403z"/>
	<path fill="#FFFFFF" d="M16.574,21.208v-0.766H15.13v-0.638l1.531-2.416h0.567v2.413h0.438v0.641h-0.438v0.766H16.574z
		 M16.574,19.801v-1.3l-0.812,1.3H16.574z"/>
	<path fill="#FFFFFF" d="M19.133,17.388c0.343,0,0.609,0.131,0.802,0.395c0.229,0.311,0.345,0.828,0.345,1.549
		c0,0.72-0.115,1.237-0.347,1.552c-0.191,0.259-0.457,0.389-0.8,0.389s-0.62-0.143-0.83-0.427c-0.21-0.285-0.315-0.792-0.315-1.522
		c0-0.716,0.115-1.232,0.347-1.547C18.525,17.517,18.791,17.388,19.133,17.388z M19.133,17.992c-0.081,0-0.154,0.028-0.219,0.084
		s-0.114,0.157-0.149,0.302c-0.046,0.188-0.069,0.506-0.069,0.952c0,0.447,0.021,0.753,0.063,0.92
		c0.042,0.167,0.094,0.278,0.157,0.333c0.063,0.056,0.137,0.083,0.218,0.083c0.082,0,0.155-0.028,0.22-0.084
		s0.113-0.157,0.149-0.302c0.046-0.187,0.069-0.503,0.069-0.95c0-0.446-0.021-0.753-0.063-0.92
		c-0.042-0.167-0.095-0.278-0.157-0.334C19.288,18.021,19.215,17.992,19.133,17.992z"/>
</g>
</svg>
