<?xml version="1.0" encoding="utf-8"?>
<!-- Generator: Adobe Illustrator 18.0.0, SVG Export Plug-In . SVG Version: 6.00 Build 0)  -->
<!DOCTYPE svg PUBLIC "-//W3C//DTD SVG 1.1//EN" "http://www.w3.org/Graphics/SVG/1.1/DTD/svg11.dtd">
<svg version="1.1" id="图层_1" xmlns="http://www.w3.org/2000/svg" xmlns:xlink="http://www.w3.org/1999/xlink" x="0px" y="0px"
	 width="36px" height="36px" viewBox="0 0 36 36" enable-background="new 0 0 36 36" xml:space="preserve">
<g>
	<path fill="#FFFFFF" d="M2.819,35.036c-1.023,0-1.855-0.832-1.855-1.855V2.819c0-1.023,0.832-1.855,1.855-1.855h30.361
		c1.023,0,1.855,0.832,1.855,1.855v30.362c0,1.023-0.832,1.855-1.855,1.855H2.819z"/>
	<path fill="#AFAFAF" d="M33.181,1.428c0.767,0,1.391,0.624,1.391,1.391v30.362c0,0.767-0.624,1.391-1.391,1.391H2.819
		c-0.767,0-1.391-0.624-1.391-1.391V2.819c0-0.767,0.624-1.391,1.391-1.391H33.181 M33.181,0.5H2.819C1.538,0.5,0.5,1.538,0.5,2.819
		v30.362c0,1.281,1.038,2.319,2.319,2.319h30.362c1.281,0,2.319-1.038,2.319-2.319V2.819C35.5,1.538,34.462,0.5,33.181,0.5
		L33.181,0.5z"/>
</g>
<g>
	<linearGradient id="SVGID_1_" gradientUnits="userSpaceOnUse" x1="17.9995" y1="33.5004" x2="17.9995" y2="2.4994">
		<stop  offset="0" style="stop-color:#00AEF9"/>
		<stop  offset="1" style="stop-color:#0092E1"/>
	</linearGradient>
	<path fill="url(#SVGID_1_)" d="M2.819,33.5c-0.176,0-0.32-0.144-0.32-0.32V2.819c0-0.176,0.144-0.32,0.32-0.32h30.363
		c0.176,0,0.319,0.144,0.319,0.32v30.361c0,0.176-0.143,0.32-0.319,0.32H2.819z"/>
</g>
<g>
	<g>
		<g>
			<polygon fill="#F5F5F5" points="7.339,7.975 10.087,5.704 10.087,10.246 			"/>
			<path fill="#F5F5F5" d="M17.544,13.506c-1.399-1.652-2.295-2.796-2.739-3.493c-0.601-0.946-1.066-1.117-1.223-1.127L9.419,8.91
				V6.981h3.872c0.526-0.077,1.849-0.032,3.142,1.997c0.269,0.422,0.935,1.336,2.583,3.283L17.544,13.506z"/>
		</g>
		<g>
			<polygon fill="#F5F5F5" points="28.66,16.919 25.912,19.189 25.912,14.648 			"/>
			<path fill="#F5F5F5" d="M18.455,11.387c1.399,1.652,2.295,2.796,2.739,3.493c0.601,0.946,1.066,1.117,1.223,1.127l4.163-0.024
				v1.929h-3.872c-0.526,0.077-1.849,0.032-3.142-1.997c-0.269-0.422-0.935-1.336-2.583-3.283L18.455,11.387z"/>
		</g>
	</g>
	<g>
		<g>
			<polygon fill="#F5F5F5" points="28.66,7.975 25.912,5.704 25.912,10.246 			"/>
			<path fill="#F5F5F5" d="M18.455,13.506c1.399-1.652,2.295-2.796,2.739-3.493c0.601-0.946,1.066-1.117,1.223-1.127L26.58,8.91
				V6.981h-3.872c-0.526-0.077-1.849-0.032-3.142,1.997c-0.269,0.422-0.935,1.336-2.583,3.283L18.455,13.506z"/>
		</g>
		<g>
			<polygon fill="#F5F5F5" points="7.339,16.919 10.087,19.189 10.087,14.648 			"/>
			<path fill="#F5F5F5" d="M17.544,11.387c-1.399,1.652-2.295,2.796-2.739,3.493c-0.601,0.946-1.066,1.117-1.223,1.127l-4.163-0.024
				v1.929h3.872c0.526,0.077,1.849,0.032,3.142-1.997c0.269-0.422,0.935-1.336,2.583-3.283L17.544,11.387z"/>
		</g>
	</g>
</g>
<g>
	<path fill="#FFFFFF" d="M5.953,32.466v-6.959h4.356v0.821H6.807v2.156h3.031v0.821H6.807v3.162H5.953z"/>
	<path fill="#FFFFFF" d="M11.097,30.643l0.832-0.076c0.062,0.437,0.206,0.765,0.43,0.985c0.224,0.22,0.495,0.33,0.813,0.33
		c0.382,0,0.704-0.155,0.968-0.465c0.264-0.31,0.397-0.722,0.397-1.234c0-0.488-0.127-0.872-0.381-1.154
		c-0.254-0.282-0.587-0.422-0.998-0.422c-0.255,0-0.486,0.062-0.692,0.188c-0.205,0.125-0.367,0.287-0.484,0.486l-0.744-0.105
		l0.625-3.575h3.21v0.816h-2.577l-0.348,1.87c0.388-0.291,0.795-0.437,1.22-0.437c0.564,0,1.039,0.21,1.427,0.632
		c0.388,0.421,0.582,0.962,0.582,1.623c0,0.629-0.17,1.174-0.511,1.633c-0.414,0.564-0.98,0.845-1.696,0.845
		c-0.588,0-1.067-0.177-1.438-0.532C11.362,31.699,11.151,31.229,11.097,30.643z"/>
	<path fill="#FFFFFF" d="M16.112,29.034c0-0.823,0.079-1.485,0.237-1.986c0.157-0.502,0.39-0.889,0.7-1.161
		c0.31-0.272,0.7-0.408,1.17-0.408c0.346,0,0.649,0.075,0.911,0.225c0.262,0.15,0.477,0.368,0.647,0.651
		c0.17,0.284,0.304,0.628,0.401,1.035c0.097,0.407,0.145,0.955,0.145,1.645c0,0.816-0.078,1.475-0.233,1.977
		c-0.155,0.501-0.389,0.889-0.699,1.163c-0.31,0.274-0.701,0.411-1.173,0.411c-0.623,0-1.111-0.241-1.467-0.722
		C16.326,31.284,16.112,30.341,16.112,29.034z M16.928,29.034c0,1.143,0.125,1.903,0.373,2.281c0.248,0.378,0.553,0.568,0.918,0.568
		c0.364,0,0.67-0.19,0.918-0.57c0.248-0.38,0.372-1.139,0.372-2.279c0-1.146-0.123-1.907-0.372-2.283
		c-0.248-0.377-0.557-0.565-0.927-0.565c-0.364,0-0.655,0.166-0.872,0.498C17.064,27.108,16.928,27.892,16.928,29.034z"/>
	<path fill="#FFFFFF" d="M21.129,29.034c0-0.823,0.079-1.485,0.237-1.986c0.157-0.502,0.39-0.889,0.7-1.161
		c0.31-0.272,0.7-0.408,1.17-0.408c0.346,0,0.649,0.075,0.911,0.225c0.262,0.15,0.477,0.368,0.647,0.651
		c0.17,0.284,0.304,0.628,0.401,1.035c0.097,0.407,0.145,0.955,0.145,1.645c0,0.816-0.078,1.475-0.233,1.977
		c-0.155,0.501-0.389,0.889-0.699,1.163c-0.31,0.274-0.701,0.411-1.173,0.411c-0.623,0-1.111-0.241-1.467-0.722
		C21.343,31.284,21.129,30.341,21.129,29.034z M21.944,29.034c0,1.143,0.125,1.903,0.373,2.281c0.248,0.378,0.553,0.568,0.918,0.568
		c0.364,0,0.67-0.19,0.918-0.57c0.248-0.38,0.372-1.139,0.372-2.279c0-1.146-0.123-1.907-0.372-2.283
		c-0.248-0.377-0.557-0.565-0.927-0.565c-0.364,0-0.655,0.166-0.872,0.498C22.08,27.108,21.944,27.892,21.944,29.034z"/>
	<path fill="#FFFFFF" d="M26.145,29.034c0-0.823,0.079-1.485,0.237-1.986c0.157-0.502,0.39-0.889,0.7-1.161
		c0.31-0.272,0.7-0.408,1.17-0.408c0.346,0,0.649,0.075,0.911,0.225c0.262,0.15,0.477,0.368,0.647,0.651
		c0.17,0.284,0.304,0.628,0.401,1.035c0.097,0.407,0.145,0.955,0.145,1.645c0,0.816-0.078,1.475-0.233,1.977
		c-0.155,0.501-0.389,0.889-0.699,1.163c-0.31,0.274-0.701,0.411-1.173,0.411c-0.623,0-1.111-0.241-1.467-0.722
		C26.359,31.284,26.145,30.341,26.145,29.034z M26.96,29.034c0,1.143,0.125,1.903,0.373,2.281c0.248,0.378,0.553,0.568,0.918,0.568
		c0.364,0,0.67-0.19,0.918-0.57c0.248-0.38,0.372-1.139,0.372-2.279c0-1.146-0.123-1.907-0.372-2.283
		c-0.248-0.377-0.557-0.565-0.927-0.565c-0.364,0-0.655,0.166-0.872,0.498C27.096,27.108,26.96,27.892,26.96,29.034z"/>
</g>
<g>
	<path fill="#FFFFFF" d="M13.58,20.374h0.756v2.185c0,0.347,0.01,0.571,0.028,0.674c0.032,0.165,0.109,0.297,0.23,0.397
		c0.122,0.1,0.288,0.15,0.499,0.15c0.215,0,0.377-0.047,0.485-0.142c0.109-0.095,0.175-0.21,0.196-0.348
		c0.022-0.138,0.033-0.366,0.033-0.685v-2.232h0.756v2.119c0,0.484-0.021,0.826-0.062,1.026c-0.04,0.2-0.116,0.369-0.226,0.506
		c-0.109,0.137-0.257,0.247-0.44,0.329s-0.424,0.123-0.72,0.123c-0.357,0-0.629-0.044-0.813-0.133
		c-0.185-0.089-0.33-0.205-0.438-0.347c-0.107-0.142-0.178-0.291-0.212-0.447c-0.049-0.231-0.074-0.572-0.074-1.024V20.374z"/>
	<path fill="#FFFFFF" d="M19.633,21.362l-0.694,0.083c-0.017-0.154-0.062-0.268-0.133-0.341s-0.164-0.11-0.278-0.11
		c-0.151,0-0.279,0.074-0.384,0.22c-0.104,0.147-0.171,0.452-0.198,0.917c0.179-0.228,0.401-0.341,0.666-0.341
		c0.3,0,0.557,0.123,0.771,0.369c0.213,0.246,0.32,0.563,0.32,0.952c0,0.413-0.112,0.744-0.337,0.993
		c-0.225,0.25-0.514,0.375-0.866,0.375c-0.378,0-0.688-0.158-0.932-0.475s-0.365-0.835-0.365-1.556c0-0.739,0.127-1.272,0.381-1.599
		c0.254-0.327,0.583-0.49,0.988-0.49c0.284,0,0.52,0.086,0.705,0.257C19.463,20.787,19.582,21.036,19.633,21.362z M18.007,23.049
		c0,0.251,0.054,0.445,0.161,0.582c0.106,0.137,0.229,0.205,0.367,0.205c0.133,0,0.243-0.056,0.332-0.168
		C18.955,23.556,19,23.373,19,23.118c0-0.262-0.048-0.455-0.144-0.577c-0.095-0.122-0.214-0.183-0.357-0.183
		c-0.138,0-0.254,0.058-0.35,0.174C18.055,22.649,18.007,22.821,18.007,23.049z"/>
	<path fill="#FFFFFF" d="M21.323,20.357c0.362,0,0.646,0.14,0.851,0.418c0.243,0.33,0.364,0.878,0.364,1.643
		c0,0.763-0.122,1.312-0.367,1.646c-0.202,0.275-0.485,0.413-0.848,0.413c-0.364,0-0.657-0.151-0.881-0.453
		c-0.223-0.302-0.334-0.84-0.334-1.614c0-0.76,0.122-1.306,0.367-1.64C20.679,20.495,20.961,20.357,21.323,20.357z M21.323,20.999
		c-0.087,0-0.164,0.03-0.232,0.089c-0.067,0.06-0.121,0.167-0.158,0.32c-0.049,0.2-0.074,0.537-0.074,1.01
		c0,0.473,0.022,0.798,0.066,0.975c0.045,0.177,0.101,0.295,0.168,0.354c0.066,0.059,0.144,0.088,0.23,0.088s0.164-0.03,0.232-0.089
		s0.121-0.167,0.158-0.321c0.05-0.198,0.074-0.534,0.074-1.007c0-0.474-0.022-0.799-0.066-0.976c-0.044-0.177-0.1-0.295-0.167-0.355
		S21.41,20.999,21.323,20.999z"/>
</g>
</svg>
