<?xml version="1.0" encoding="utf-8"?>
<!-- Generator: Adobe Illustrator 18.0.0, SVG Export Plug-In . SVG Version: 6.00 Build 0)  -->
<!DOCTYPE svg PUBLIC "-//W3C//DTD SVG 1.1//EN" "http://www.w3.org/Graphics/SVG/1.1/DTD/svg11.dtd">
<svg version="1.1" id="图层_1" xmlns="http://www.w3.org/2000/svg" xmlns:xlink="http://www.w3.org/1999/xlink" x="0px" y="0px"
	 width="48px" height="48px" viewBox="0 0 48 48" enable-background="new 0 0 48 48" xml:space="preserve">
<g>
	<path fill="#FFFFFF" d="M3.614,46.877c-1.374,0-2.491-1.117-2.491-2.491V3.614c0-1.374,1.118-2.491,2.491-2.491h40.771
		c1.374,0,2.491,1.117,2.491,2.491v40.771c0,1.374-1.118,2.491-2.491,2.491H3.614z"/>
	<path fill="#AFAFAF" d="M44.386,1.746c1.03,0,1.868,0.838,1.868,1.868v40.772c0,1.03-0.838,1.868-1.868,1.868H3.614
		c-1.03,0-1.869-0.838-1.869-1.868V3.614c0-1.03,0.838-1.868,1.869-1.868H44.386 M44.386,0.5H3.614C1.894,0.5,0.5,1.894,0.5,3.614
		v40.772c0,1.72,1.394,3.114,3.114,3.114h40.772c1.72,0,3.114-1.394,3.114-3.114V3.614C47.5,1.894,46.106,0.5,44.386,0.5L44.386,0.5
		z"/>
</g>
<g>
	<linearGradient id="SVGID_1_" gradientUnits="userSpaceOnUse" x1="23.9993" y1="44.8148" x2="23.9993" y2="3.1849">
		<stop  offset="0" style="stop-color:#76797A"/>
		<stop  offset="1" style="stop-color:#5F6263"/>
	</linearGradient>
	<path fill="url(#SVGID_1_)" d="M3.614,44.815c-0.236,0-0.429-0.193-0.429-0.429V3.614c0-0.236,0.193-0.429,0.429-0.429h40.773
		c0.236,0,0.428,0.193,0.428,0.429v40.771c0,0.236-0.192,0.429-0.428,0.429H3.614z"/>
</g>
<g>
	<g>
		<g>
			<polygon fill="#F5F5F5" points="9.684,10.538 13.374,7.488 13.374,13.587 			"/>
			<path fill="#F5F5F5" d="M23.388,17.966c-1.879-2.219-3.082-3.754-3.678-4.69c-0.808-1.27-1.431-1.5-1.642-1.514l-5.59,0.033
				V9.203h5.2c0.706-0.103,2.482-0.043,4.219,2.681c0.361,0.567,1.256,1.794,3.469,4.408L23.388,17.966z"/>
		</g>
		<g>
			<polygon fill="#F5F5F5" points="38.315,22.548 34.624,25.597 34.624,19.498 			"/>
			<path fill="#F5F5F5" d="M24.611,15.12c1.879,2.219,3.082,3.754,3.678,4.69c0.808,1.27,1.431,1.5,1.642,1.514l5.59-0.033v2.591
				h-5.2c-0.706,0.103-2.482,0.043-4.219-2.681c-0.361-0.567-1.256-1.794-3.469-4.408L24.611,15.12z"/>
		</g>
	</g>
	<g>
		<g>
			<polygon fill="#F5F5F5" points="38.315,10.538 34.624,7.488 34.624,13.587 			"/>
			<path fill="#F5F5F5" d="M24.611,17.966c1.879-2.219,3.082-3.754,3.678-4.69c0.808-1.27,1.431-1.5,1.642-1.514l5.59,0.033V9.203
				h-5.2c-0.706-0.103-2.482-0.043-4.219,2.681c-0.361,0.567-1.256,1.794-3.469,4.408L24.611,17.966z"/>
		</g>
		<g>
			<polygon fill="#F5F5F5" points="9.684,22.548 13.374,25.597 13.374,19.498 			"/>
			<path fill="#F5F5F5" d="M23.388,15.12c-1.879,2.219-3.082,3.754-3.678,4.69c-0.808,1.27-1.431,1.5-1.642,1.514l-5.59-0.033v2.591
				h5.2c0.706,0.103,2.482,0.043,4.219-2.681c0.361-0.567,1.256-1.794,3.469-4.408L23.388,15.12z"/>
		</g>
	</g>
</g>
<g>
	<path fill="#FFFFFF" d="M7.821,43.344v-9.346h5.849v1.103H8.968v2.895h4.068v1.103H8.968v4.245H7.821z"/>
	<path fill="#FFFFFF" d="M14.728,40.896l1.117-0.101c0.083,0.587,0.275,1.027,0.577,1.322c0.302,0.295,0.665,0.442,1.091,0.442
		c0.512,0,0.946-0.207,1.301-0.624c0.355-0.416,0.532-0.969,0.532-1.657c0-0.656-0.17-1.172-0.511-1.55s-0.787-0.567-1.339-0.567
		c-0.343,0-0.653,0.083-0.928,0.25c-0.276,0.169-0.493,0.387-0.65,0.654l-1-0.14l0.84-4.801h4.311v1.097h-3.46l-0.468,2.511
		c0.521-0.39,1.067-0.585,1.638-0.585c0.757,0,1.396,0.283,1.917,0.848c0.52,0.565,0.78,1.292,0.78,2.179
		c0,0.846-0.229,1.577-0.686,2.193c-0.556,0.757-1.315,1.135-2.277,1.135c-0.789,0-1.432-0.238-1.931-0.714
		C15.084,42.313,14.799,41.682,14.728,40.896z"/>
	<path fill="#FFFFFF" d="M21.464,38.735c0-1.104,0.105-1.994,0.316-2.668c0.21-0.674,0.524-1.193,0.94-1.559s0.939-0.548,1.57-0.548
		c0.465,0,0.873,0.101,1.224,0.303c0.351,0.203,0.64,0.493,0.869,0.874c0.229,0.381,0.408,0.843,0.538,1.39
		c0.13,0.545,0.195,1.282,0.195,2.209c0,1.097-0.104,1.981-0.313,2.655c-0.209,0.673-0.521,1.193-0.938,1.562
		c-0.416,0.367-0.941,0.551-1.576,0.551c-0.836,0-1.493-0.323-1.97-0.969C21.75,41.756,21.464,40.49,21.464,38.735z M22.558,38.735
		c0,1.534,0.167,2.556,0.5,3.062c0.333,0.508,0.744,0.762,1.233,0.762c0.488,0,0.9-0.255,1.233-0.765c0.333-0.51,0.5-1.53,0.5-3.059
		c0-1.539-0.167-2.56-0.5-3.066c-0.333-0.507-0.748-0.759-1.245-0.759c-0.488,0-0.879,0.223-1.17,0.67
		C22.741,36.148,22.558,37.2,22.558,38.735z"/>
	<path fill="#FFFFFF" d="M28.2,38.735c0-1.104,0.105-1.994,0.316-2.668c0.21-0.674,0.524-1.193,0.94-1.559s0.939-0.548,1.57-0.548
		c0.465,0,0.873,0.101,1.224,0.303c0.351,0.203,0.64,0.493,0.869,0.874c0.229,0.381,0.408,0.843,0.538,1.39
		c0.13,0.545,0.195,1.282,0.195,2.209c0,1.097-0.104,1.981-0.313,2.655c-0.209,0.673-0.521,1.193-0.938,1.562
		c-0.416,0.367-0.941,0.551-1.576,0.551c-0.836,0-1.493-0.323-1.97-0.969C28.485,41.756,28.2,40.49,28.2,38.735z M29.293,38.735
		c0,1.534,0.167,2.556,0.5,3.062c0.333,0.508,0.744,0.762,1.233,0.762c0.488,0,0.9-0.255,1.233-0.765c0.333-0.51,0.5-1.53,0.5-3.059
		c0-1.539-0.167-2.56-0.5-3.066c-0.333-0.507-0.748-0.759-1.245-0.759c-0.488,0-0.879,0.223-1.17,0.67
		C29.477,36.148,29.293,37.2,29.293,38.735z"/>
	<path fill="#FFFFFF" d="M34.936,38.735c0-1.104,0.105-1.994,0.316-2.668c0.21-0.674,0.524-1.193,0.94-1.559
		c0.416-0.366,0.939-0.548,1.57-0.548c0.465,0,0.873,0.101,1.224,0.303c0.351,0.203,0.64,0.493,0.869,0.874
		c0.229,0.381,0.408,0.843,0.538,1.39c0.13,0.545,0.195,1.282,0.195,2.209c0,1.097-0.104,1.981-0.313,2.655
		c-0.209,0.673-0.521,1.193-0.938,1.562c-0.416,0.367-0.941,0.551-1.576,0.551c-0.836,0-1.493-0.323-1.97-0.969
		C35.222,41.756,34.936,40.49,34.936,38.735z M36.03,38.735c0,1.534,0.167,2.556,0.5,3.062c0.333,0.508,0.744,0.762,1.233,0.762
		c0.488,0,0.9-0.255,1.233-0.765c0.333-0.51,0.5-1.53,0.5-3.059c0-1.539-0.167-2.56-0.5-3.066c-0.333-0.507-0.748-0.759-1.245-0.759
		c-0.488,0-0.879,0.223-1.17,0.67C36.213,36.148,36.03,37.2,36.03,38.735z"/>
</g>
<g>
	<path fill="#FFFFFF" d="M18.061,26.951h1.015v2.935c0,0.466,0.013,0.768,0.038,0.906c0.043,0.222,0.147,0.399,0.311,0.534
		c0.164,0.134,0.387,0.201,0.67,0.201c0.288,0,0.505-0.063,0.651-0.19c0.146-0.127,0.234-0.283,0.264-0.468s0.044-0.491,0.044-0.92
		v-2.998h1.015v2.847c0,0.65-0.027,1.109-0.082,1.378c-0.055,0.269-0.156,0.496-0.304,0.681s-0.345,0.332-0.591,0.441
		c-0.247,0.109-0.569,0.165-0.967,0.165c-0.48,0-0.844-0.061-1.092-0.18s-0.444-0.274-0.588-0.466
		c-0.144-0.19-0.239-0.391-0.285-0.601c-0.066-0.311-0.1-0.769-0.1-1.375V26.951z"/>
	<path fill="#FFFFFF" d="M26.192,28.278l-0.933,0.11c-0.023-0.207-0.083-0.359-0.179-0.458c-0.096-0.099-0.22-0.147-0.374-0.147
		c-0.204,0-0.375,0.099-0.516,0.295c-0.141,0.197-0.229,0.608-0.266,1.231c0.24-0.306,0.538-0.458,0.895-0.458
		c0.402,0,0.747,0.165,1.034,0.495c0.287,0.33,0.431,0.756,0.431,1.278c0,0.555-0.151,1-0.453,1.335
		c-0.302,0.335-0.689,0.503-1.162,0.503c-0.508,0-0.925-0.213-1.252-0.638c-0.327-0.426-0.49-1.122-0.49-2.091
		c0-0.993,0.17-1.709,0.511-2.147c0.341-0.438,0.783-0.658,1.327-0.658c0.382,0,0.698,0.115,0.948,0.346
		C25.964,27.505,26.123,27.84,26.192,28.278z M24.007,30.544c0,0.338,0.072,0.599,0.216,0.782s0.309,0.275,0.494,0.275
		c0.178,0,0.327-0.075,0.446-0.226c0.119-0.15,0.178-0.396,0.178-0.739c0-0.353-0.064-0.61-0.192-0.774s-0.288-0.246-0.48-0.246
		c-0.186,0-0.342,0.078-0.47,0.234C24.071,30.008,24.007,30.238,24.007,30.544z"/>
	<path fill="#FFFFFF" d="M28.462,26.929c0.487,0,0.868,0.188,1.142,0.563c0.327,0.443,0.49,1.179,0.49,2.206
		c0,1.025-0.165,1.763-0.494,2.211c-0.272,0.369-0.652,0.555-1.139,0.555c-0.489,0-0.884-0.203-1.183-0.608
		s-0.449-1.128-0.449-2.168c0-1.021,0.165-1.755,0.494-2.203C27.595,27.114,27.975,26.929,28.462,26.929z M28.462,27.79
		c-0.117,0-0.221,0.04-0.312,0.12s-0.163,0.224-0.213,0.431c-0.066,0.269-0.099,0.721-0.099,1.356s0.03,1.073,0.089,1.311
		c0.06,0.238,0.134,0.396,0.225,0.476c0.09,0.078,0.194,0.118,0.311,0.118s0.221-0.04,0.312-0.12s0.162-0.224,0.212-0.431
		c0.066-0.267,0.1-0.718,0.1-1.354s-0.03-1.072-0.089-1.31c-0.06-0.238-0.135-0.397-0.225-0.478
		C28.682,27.83,28.579,27.79,28.462,27.79z"/>
</g>
</svg>
