<?xml version="1.0" encoding="utf-8"?>
<!-- Generator: Adobe Illustrator 18.0.0, SVG Export Plug-In . SVG Version: 6.00 Build 0)  -->
<!DOCTYPE svg PUBLIC "-//W3C//DTD SVG 1.1//EN" "http://www.w3.org/Graphics/SVG/1.1/DTD/svg11.dtd">
<svg version="1.1" id="图层_1" xmlns="http://www.w3.org/2000/svg" xmlns:xlink="http://www.w3.org/1999/xlink" x="0px" y="0px"
	 width="42px" height="42px" viewBox="0 0 42 42" enable-background="new 0 0 42 42" xml:space="preserve">
<g>
	<path fill="#FFFFFF" d="M3.68,40.402c-1.167,0-2.117-0.949-2.117-2.116V3.646c0-1.167,0.95-2.116,2.117-2.116H38.32
		c1.167,0,2.116,0.949,2.116,2.116v34.641c0,1.167-0.949,2.116-2.116,2.116H3.68z"/>
	<path fill="#AFAFAF" d="M38.32,2.058c0.875,0,1.588,0.712,1.588,1.588v34.641c0,0.875-0.712,1.588-1.588,1.588H3.68
		c-0.875,0-1.588-0.712-1.588-1.588V3.646c0-0.875,0.712-1.588,1.588-1.588H38.32 M38.32,1H3.68C2.218,1,1.034,2.184,1.034,3.646
		v34.641c0,1.461,1.185,2.646,2.646,2.646H38.32c1.461,0,2.646-1.185,2.646-2.646V3.646C40.966,2.184,39.782,1,38.32,1L38.32,1z"/>
</g>
<g>
	<linearGradient id="SVGID_1_" gradientUnits="userSpaceOnUse" x1="20.9994" y1="38.6506" x2="20.9994" y2="3.2809">
		<stop  offset="0" style="stop-color:#FF7F01"/>
		<stop  offset="1" style="stop-color:#F05800"/>
	</linearGradient>
	<path fill="url(#SVGID_1_)" d="M3.679,38.651c-0.201,0-0.365-0.164-0.365-0.365V3.646c0-0.201,0.164-0.365,0.365-0.365h34.641
		c0.201,0,0.364,0.164,0.364,0.365v34.64c0,0.201-0.163,0.365-0.364,0.365H3.679z"/>
</g>
<g>
	<g>
		<g>
			<polygon fill="#F5F5F5" points="8.837,9.528 11.972,6.937 11.972,12.119 			"/>
			<path fill="#F5F5F5" d="M20.48,15.839c-1.596-1.885-2.619-3.19-3.125-3.985c-0.686-1.079-1.216-1.274-1.395-1.286l-4.749,0.028
				V8.394h4.418c0.6-0.087,2.109-0.037,3.584,2.278c0.307,0.482,1.067,1.524,2.947,3.745L20.48,15.839z"/>
		</g>
		<g>
			<polygon fill="#F5F5F5" points="33.162,19.732 30.027,22.323 30.027,17.141 			"/>
			<path fill="#F5F5F5" d="M21.519,13.421c1.596,1.885,2.619,3.19,3.125,3.985c0.686,1.079,1.216,1.274,1.395,1.286l4.749-0.028
				v2.201h-4.418c-0.6,0.087-2.109,0.037-3.584-2.278c-0.307-0.482-1.067-1.524-2.947-3.745L21.519,13.421z"/>
		</g>
	</g>
	<g>
		<g>
			<polygon fill="#F5F5F5" points="33.162,9.528 30.027,6.937 30.027,12.119 			"/>
			<path fill="#F5F5F5" d="M21.519,15.839c1.596-1.885,2.619-3.19,3.125-3.985c0.686-1.079,1.216-1.274,1.395-1.286l4.749,0.028
				V8.394h-4.418c-0.6-0.087-2.109-0.037-3.584,2.278c-0.307,0.482-1.067,1.524-2.947,3.745L21.519,15.839z"/>
		</g>
		<g>
			<polygon fill="#F5F5F5" points="8.837,19.732 11.972,22.323 11.972,17.141 			"/>
			<path fill="#F5F5F5" d="M20.48,13.421c-1.596,1.885-2.619,3.19-3.125,3.985c-0.686,1.079-1.216,1.274-1.395,1.286l-4.749-0.028
				v2.201h4.418c0.6,0.087,2.109,0.037,3.584-2.278c0.307-0.482,1.067-1.524,2.947-3.745L20.48,13.421z"/>
		</g>
	</g>
</g>
<g>
	<path fill="#FFFFFF" d="M7.255,37.398v-7.94h4.969v0.938H8.229v2.459h3.457v0.937H8.229v3.607H7.255z"/>
	<path fill="#FFFFFF" d="M13.124,35.318l0.95-0.086c0.07,0.498,0.233,0.872,0.49,1.123s0.565,0.377,0.927,0.377
		c0.436,0,0.804-0.177,1.105-0.531c0.302-0.354,0.453-0.823,0.453-1.408c0-0.556-0.145-0.994-0.435-1.315
		c-0.29-0.321-0.669-0.482-1.138-0.482c-0.292,0-0.555,0.071-0.789,0.214s-0.419,0.328-0.553,0.556l-0.849-0.119l0.713-4.079h3.663
		v0.932h-2.939l-0.397,2.134c0.442-0.332,0.906-0.498,1.392-0.498c0.643,0,1.186,0.24,1.628,0.721
		c0.442,0.48,0.663,1.098,0.663,1.853c0,0.718-0.194,1.339-0.583,1.862c-0.472,0.644-1.117,0.965-1.935,0.965
		c-0.67,0-1.217-0.202-1.64-0.607C13.426,36.522,13.184,35.986,13.124,35.318z"/>
	<path fill="#FFFFFF" d="M18.847,33.482c0-0.938,0.089-1.694,0.269-2.267s0.446-1.014,0.799-1.324
		c0.354-0.311,0.798-0.466,1.334-0.466c0.395,0,0.742,0.086,1.041,0.258c0.297,0.171,0.543,0.418,0.738,0.741
		c0.193,0.323,0.346,0.717,0.457,1.181c0.111,0.465,0.166,1.09,0.166,1.877c0,0.932-0.09,1.684-0.268,2.256
		c-0.176,0.572-0.441,1.015-0.795,1.327s-0.8,0.469-1.339,0.469c-0.71,0-1.268-0.274-1.673-0.823
		C19.089,36.05,18.847,34.974,18.847,33.482z M19.776,33.482c0,1.304,0.142,2.171,0.425,2.603s0.632,0.647,1.048,0.647
		c0.415,0,0.764-0.217,1.047-0.65c0.282-0.433,0.425-1.3,0.425-2.6c0-1.307-0.143-2.176-0.425-2.605
		c-0.283-0.43-0.636-0.645-1.058-0.645c-0.416,0-0.747,0.19-0.995,0.569C19.932,31.285,19.776,32.179,19.776,33.482z"/>
	<path fill="#FFFFFF" d="M24.569,33.482c0-0.938,0.09-1.694,0.27-2.267c0.179-0.572,0.445-1.014,0.799-1.324
		s0.798-0.466,1.334-0.466c0.395,0,0.741,0.086,1.04,0.258c0.298,0.171,0.544,0.418,0.738,0.741s0.347,0.717,0.457,1.181
		c0.111,0.465,0.166,1.09,0.166,1.877c0,0.932-0.089,1.684-0.267,2.256c-0.177,0.572-0.442,1.015-0.796,1.327
		s-0.8,0.469-1.339,0.469c-0.71,0-1.269-0.274-1.674-0.823C24.813,36.05,24.569,34.974,24.569,33.482z M25.499,33.482
		c0,1.304,0.142,2.171,0.425,2.603s0.632,0.647,1.048,0.647c0.415,0,0.765-0.217,1.048-0.65c0.282-0.433,0.424-1.3,0.424-2.6
		c0-1.307-0.142-2.176-0.424-2.605c-0.283-0.43-0.636-0.645-1.059-0.645c-0.415,0-0.746,0.19-0.994,0.569
		C25.655,31.285,25.499,32.179,25.499,33.482z"/>
	<path fill="#FFFFFF" d="M30.292,33.482c0-0.938,0.09-1.694,0.27-2.267c0.179-0.572,0.445-1.014,0.799-1.324
		s0.798-0.466,1.334-0.466c0.395,0,0.741,0.086,1.04,0.258c0.298,0.171,0.544,0.418,0.738,0.741s0.347,0.717,0.457,1.181
		c0.111,0.465,0.166,1.09,0.166,1.877c0,0.932-0.089,1.684-0.267,2.256c-0.177,0.572-0.442,1.015-0.796,1.327
		s-0.8,0.469-1.339,0.469c-0.71,0-1.269-0.274-1.674-0.823C30.535,36.05,30.292,34.974,30.292,33.482z M31.222,33.482
		c0,1.304,0.142,2.171,0.425,2.603s0.632,0.647,1.048,0.647c0.415,0,0.765-0.217,1.048-0.65c0.282-0.433,0.424-1.3,0.424-2.6
		c0-1.307-0.142-2.176-0.424-2.605c-0.283-0.43-0.636-0.645-1.059-0.645c-0.415,0-0.746,0.19-0.994,0.569
		C31.378,31.285,31.222,32.179,31.222,33.482z"/>
</g>
<g>
	<path fill="#FFFFFF" d="M15.429,22.838h0.953v2.753c0,0.437,0.012,0.72,0.035,0.85c0.041,0.208,0.138,0.375,0.291,0.501
		s0.363,0.188,0.629,0.188c0.271,0,0.474-0.059,0.611-0.178s0.22-0.266,0.248-0.439c0.028-0.173,0.042-0.461,0.042-0.863v-2.812
		h0.952v2.67c0,0.61-0.026,1.041-0.077,1.293s-0.146,0.465-0.285,0.638c-0.138,0.174-0.323,0.312-0.555,0.415
		c-0.231,0.103-0.534,0.154-0.907,0.154c-0.451,0-0.792-0.057-1.025-0.168c-0.232-0.112-0.417-0.258-0.552-0.438
		c-0.135-0.179-0.224-0.367-0.267-0.563c-0.063-0.291-0.094-0.721-0.094-1.29V22.838z"/>
	<path fill="#FFFFFF" d="M21.766,27.921v-1.022h-1.93v-0.854l2.046-3.229h0.759v3.225h0.586v0.857h-0.586v1.022H21.766z
		 M21.766,26.041v-1.736l-1.084,1.736H21.766z"/>
	<path fill="#FFFFFF" d="M25.186,22.816c0.457,0,0.814,0.176,1.071,0.527c0.307,0.416,0.46,1.106,0.46,2.07
		c0,0.962-0.154,1.652-0.463,2.073c-0.255,0.347-0.611,0.521-1.068,0.521c-0.459,0-0.829-0.19-1.109-0.57
		c-0.281-0.381-0.422-1.059-0.422-2.034c0-0.957,0.154-1.646,0.464-2.066C24.373,22.99,24.729,22.816,25.186,22.816z M25.186,23.625
		c-0.109,0-0.207,0.037-0.292,0.112c-0.086,0.075-0.152,0.21-0.2,0.404c-0.062,0.252-0.093,0.676-0.093,1.272
		s0.027,1.006,0.083,1.229c0.056,0.223,0.126,0.371,0.211,0.445s0.182,0.11,0.291,0.11s0.207-0.037,0.293-0.112
		s0.152-0.21,0.199-0.404c0.063-0.249,0.094-0.672,0.094-1.269s-0.028-1.007-0.084-1.229s-0.126-0.372-0.211-0.447
		C25.393,23.662,25.295,23.625,25.186,23.625z"/>
</g>
</svg>
