<?xml version="1.0" encoding="utf-8"?>
<!-- Generator: Adobe Illustrator 18.0.0, SVG Export Plug-In . SVG Version: 6.00 Build 0)  -->
<!DOCTYPE svg PUBLIC "-//W3C//DTD SVG 1.1//EN" "http://www.w3.org/Graphics/SVG/1.1/DTD/svg11.dtd">
<svg version="1.1" id="图层_1" xmlns="http://www.w3.org/2000/svg" xmlns:xlink="http://www.w3.org/1999/xlink" x="0px" y="0px"
	 width="32px" height="32px" viewBox="0 0 32 32" enable-background="new 0 0 32 32" xml:space="preserve">
<g>
	<path fill="#FFFFFF" d="M2.169,31.465c-0.933,0-1.69-0.759-1.69-1.691V2.112c0-0.932,0.758-1.69,1.69-1.69h27.662
		c0.933,0,1.69,0.758,1.69,1.69v27.662c0,0.932-0.758,1.691-1.69,1.691H2.169z"/>
	<path fill="#AFAFAF" d="M29.831,0.845c0.699,0,1.268,0.569,1.268,1.268v27.662c0,0.699-0.569,1.268-1.268,1.268H2.169
		c-0.699,0-1.268-0.569-1.268-1.268V2.112c0-0.699,0.569-1.268,1.268-1.268H29.831 M29.831,0H2.169C1.002,0,0.056,0.946,0.056,2.112
		v27.662c0,1.167,0.946,2.113,2.113,2.113h27.662c1.167,0,2.113-0.946,2.113-2.113V2.112C31.944,0.946,30.998,0,29.831,0L29.831,0z"
		/>
</g>
<g>
	<linearGradient id="SVGID_1_" gradientUnits="userSpaceOnUse" x1="15.9995" y1="30.0656" x2="15.9995" y2="1.8212">
		<stop  offset="0" style="stop-color:#00AEF9"/>
		<stop  offset="1" style="stop-color:#0092E1"/>
	</linearGradient>
	<path fill="url(#SVGID_1_)" d="M2.169,30.066c-0.16,0-0.291-0.131-0.291-0.291V2.113c0-0.16,0.131-0.291,0.291-0.291h27.663
		c0.16,0,0.29,0.131,0.29,0.291v27.662c0,0.16-0.13,0.291-0.29,0.291H2.169z"/>
</g>
<g>
	<g>
		<g>
			<polygon fill="#F5F5F5" points="6.287,6.81 8.791,4.741 8.791,8.879 			"/>
			<path fill="#F5F5F5" d="M15.585,11.849c-1.275-1.505-2.091-2.547-2.496-3.182c-0.548-0.862-0.971-1.017-1.114-1.027L8.182,7.662
				V5.904h3.528c0.479-0.07,1.684-0.029,2.862,1.819c0.245,0.385,0.852,1.217,2.354,2.991L15.585,11.849z"/>
		</g>
		<g>
			<polygon fill="#F5F5F5" points="25.712,14.958 23.208,17.027 23.208,12.889 			"/>
			<path fill="#F5F5F5" d="M16.414,9.919c1.275,1.505,2.091,2.547,2.496,3.182c0.548,0.862,0.971,1.017,1.114,1.027l3.793-0.022
				v1.758h-3.528c-0.479,0.07-1.684,0.029-2.862-1.819c-0.245-0.385-0.852-1.217-2.354-2.991L16.414,9.919z"/>
		</g>
	</g>
	<g>
		<g>
			<polygon fill="#F5F5F5" points="25.712,6.81 23.208,4.741 23.208,8.879 			"/>
			<path fill="#F5F5F5" d="M16.414,11.849c1.275-1.505,2.091-2.547,2.496-3.182c0.548-0.862,0.971-1.017,1.114-1.027l3.793,0.022
				V5.904h-3.528c-0.479-0.07-1.684-0.029-2.862,1.819c-0.245,0.385-0.852,1.217-2.354,2.991L16.414,11.849z"/>
		</g>
		<g>
			<polygon fill="#F5F5F5" points="6.287,14.958 8.791,17.027 8.791,12.889 			"/>
			<path fill="#F5F5F5" d="M15.585,9.919c-1.275,1.505-2.091,2.547-2.496,3.182c-0.548,0.862-0.971,1.017-1.114,1.027l-3.793-0.022
				v1.758h3.528c0.479,0.07,1.684,0.029,2.862-1.819c0.245-0.385,0.852-1.217,2.354-2.991L15.585,9.919z"/>
		</g>
	</g>
</g>
<g>
	<path fill="#FFFFFF" d="M5.024,29.125v-6.34h3.969v0.748h-3.19v1.963h2.761v0.749H5.803v2.88H5.024z"/>
	<path fill="#FFFFFF" d="M9.711,27.464l0.759-0.069c0.056,0.398,0.187,0.697,0.391,0.897c0.205,0.2,0.452,0.3,0.74,0.3
		c0.348,0,0.643-0.141,0.883-0.424c0.241-0.282,0.361-0.657,0.361-1.125c0-0.444-0.115-0.794-0.347-1.051s-0.534-0.385-0.909-0.385
		c-0.232,0-0.442,0.057-0.63,0.171c-0.188,0.114-0.334,0.261-0.441,0.443L9.84,26.127l0.569-3.257h2.925v0.744h-2.347l-0.317,1.704
		c0.354-0.265,0.724-0.398,1.111-0.398c0.514,0,0.947,0.192,1.301,0.575c0.353,0.384,0.529,0.877,0.529,1.479
		c0,0.574-0.155,1.07-0.466,1.488c-0.377,0.513-0.892,0.77-1.545,0.77c-0.534,0-0.972-0.161-1.31-0.484
		C9.952,28.425,9.76,27.997,9.711,27.464z"/>
	<path fill="#FFFFFF" d="M14.281,25.998c0-0.75,0.071-1.353,0.215-1.81s0.355-0.81,0.638-1.058s0.638-0.372,1.065-0.372
		c0.315,0,0.593,0.069,0.831,0.206c0.237,0.137,0.435,0.334,0.59,0.593c0.155,0.258,0.276,0.572,0.365,0.943
		c0.088,0.37,0.132,0.87,0.132,1.499c0,0.744-0.07,1.344-0.213,1.801c-0.142,0.457-0.354,0.811-0.636,1.06
		c-0.282,0.25-0.639,0.374-1.069,0.374c-0.567,0-1.013-0.219-1.336-0.657C14.476,28.047,14.281,27.188,14.281,25.998z
		 M15.023,25.998c0,1.041,0.113,1.733,0.34,2.078c0.226,0.345,0.505,0.517,0.836,0.517c0.332,0,0.61-0.173,0.837-0.519
		c0.226-0.346,0.339-1.038,0.339-2.076c0-1.044-0.113-1.737-0.339-2.081c-0.227-0.343-0.508-0.515-0.845-0.515
		c-0.332,0-0.597,0.151-0.795,0.454C15.148,24.243,15.023,24.957,15.023,25.998z"/>
	<path fill="#FFFFFF" d="M18.852,25.998c0-0.75,0.071-1.353,0.215-1.81s0.355-0.81,0.638-1.058s0.638-0.372,1.065-0.372
		c0.315,0,0.593,0.069,0.831,0.206c0.237,0.137,0.435,0.334,0.59,0.593c0.155,0.258,0.276,0.572,0.365,0.943
		c0.088,0.37,0.132,0.87,0.132,1.499c0,0.744-0.07,1.344-0.213,1.801c-0.142,0.457-0.354,0.811-0.636,1.06
		c-0.282,0.25-0.639,0.374-1.069,0.374c-0.567,0-1.013-0.219-1.336-0.657C19.046,28.047,18.852,27.188,18.852,25.998z
		 M19.594,25.998c0,1.041,0.113,1.733,0.34,2.078c0.226,0.345,0.505,0.517,0.836,0.517c0.332,0,0.61-0.173,0.837-0.519
		c0.226-0.346,0.339-1.038,0.339-2.076c0-1.044-0.113-1.737-0.339-2.081c-0.227-0.343-0.508-0.515-0.845-0.515
		c-0.332,0-0.597,0.151-0.795,0.454C19.719,24.243,19.594,24.957,19.594,25.998z"/>
	<path fill="#FFFFFF" d="M23.421,25.998c0-0.75,0.071-1.353,0.215-1.81s0.355-0.81,0.638-1.058s0.638-0.372,1.065-0.372
		c0.315,0,0.593,0.069,0.831,0.206c0.237,0.137,0.435,0.334,0.59,0.593c0.155,0.258,0.276,0.572,0.365,0.943
		c0.088,0.37,0.132,0.87,0.132,1.499c0,0.744-0.07,1.344-0.213,1.801c-0.142,0.457-0.354,0.811-0.636,1.06
		c-0.282,0.25-0.639,0.374-1.069,0.374c-0.567,0-1.013-0.219-1.336-0.657C23.615,28.047,23.421,27.188,23.421,25.998z
		 M24.163,25.998c0,1.041,0.113,1.733,0.34,2.078c0.226,0.345,0.505,0.517,0.836,0.517c0.332,0,0.61-0.173,0.837-0.519
		c0.226-0.346,0.339-1.038,0.339-2.076c0-1.044-0.113-1.737-0.339-2.081c-0.227-0.343-0.508-0.515-0.845-0.515
		c-0.332,0-0.597,0.151-0.795,0.454C24.288,24.243,24.163,24.957,24.163,25.998z"/>
</g>
<g>
	<path fill="#FFFFFF" d="M11.554,17.496h0.76v2.198c0,0.349,0.009,0.575,0.028,0.678c0.032,0.167,0.109,0.3,0.232,0.4
		c0.122,0.101,0.289,0.15,0.502,0.15c0.216,0,0.378-0.047,0.487-0.142c0.11-0.095,0.176-0.212,0.198-0.351
		c0.022-0.138,0.033-0.368,0.033-0.689v-2.245h0.76v2.131c0,0.487-0.021,0.832-0.062,1.033s-0.116,0.371-0.227,0.509
		s-0.259,0.249-0.443,0.331c-0.185,0.083-0.426,0.124-0.724,0.124c-0.36,0-0.633-0.045-0.818-0.134s-0.333-0.206-0.44-0.349
		c-0.107-0.143-0.179-0.293-0.213-0.45c-0.05-0.232-0.074-0.576-0.074-1.03V17.496z"/>
	<path fill="#FFFFFF" d="M15.171,20.478l0.699-0.091c0.021,0.192,0.082,0.338,0.18,0.44s0.216,0.152,0.354,0.152
		c0.148,0,0.274-0.061,0.376-0.183c0.102-0.122,0.152-0.286,0.152-0.493c0-0.196-0.049-0.351-0.146-0.465
		c-0.097-0.114-0.216-0.171-0.356-0.171c-0.093,0-0.203,0.02-0.331,0.058l0.079-0.634c0.195,0.005,0.345-0.04,0.447-0.137
		c0.103-0.097,0.154-0.226,0.154-0.386c0-0.136-0.038-0.245-0.113-0.327c-0.075-0.081-0.176-0.122-0.301-0.122
		c-0.123,0-0.229,0.046-0.315,0.138c-0.088,0.092-0.141,0.227-0.159,0.404l-0.665-0.122c0.046-0.246,0.115-0.442,0.209-0.588
		s0.224-0.262,0.391-0.346s0.354-0.126,0.561-0.126c0.354,0,0.639,0.122,0.853,0.366c0.177,0.199,0.265,0.424,0.265,0.675
		c0,0.356-0.181,0.64-0.542,0.853c0.216,0.05,0.389,0.162,0.518,0.335s0.194,0.383,0.194,0.628c0,0.356-0.121,0.66-0.362,0.911
		s-0.542,0.376-0.901,0.376c-0.341,0-0.623-0.106-0.848-0.317C15.337,21.095,15.207,20.819,15.171,20.478z"/>
	<path fill="#FFFFFF" d="M19.342,17.479c0.364,0,0.649,0.141,0.854,0.421c0.245,0.332,0.367,0.883,0.367,1.652
		c0,0.768-0.123,1.32-0.369,1.655c-0.204,0.277-0.488,0.416-0.853,0.416c-0.366,0-0.662-0.152-0.886-0.456
		c-0.225-0.303-0.337-0.845-0.337-1.624c0-0.764,0.123-1.313,0.37-1.649C18.692,17.618,18.977,17.479,19.342,17.479z M19.342,18.125
		c-0.088,0-0.165,0.03-0.233,0.09c-0.069,0.06-0.122,0.167-0.16,0.322c-0.049,0.201-0.074,0.54-0.074,1.016s0.022,0.803,0.067,0.981
		c0.044,0.178,0.101,0.297,0.168,0.355c0.067,0.059,0.145,0.089,0.232,0.089c0.087,0,0.165-0.03,0.233-0.09
		c0.068-0.06,0.122-0.167,0.159-0.323c0.05-0.199,0.074-0.537,0.074-1.013s-0.021-0.803-0.066-0.981s-0.101-0.297-0.168-0.357
		C19.506,18.155,19.429,18.125,19.342,18.125z"/>
</g>
</svg>
