<?xml version="1.0" encoding="utf-8"?>
<!-- Generator: Adobe Illustrator 18.0.0, SVG Export Plug-In . SVG Version: 6.00 Build 0)  -->
<!DOCTYPE svg PUBLIC "-//W3C//DTD SVG 1.1//EN" "http://www.w3.org/Graphics/SVG/1.1/DTD/svg11.dtd">
<svg version="1.1" id="图层_1" xmlns="http://www.w3.org/2000/svg" xmlns:xlink="http://www.w3.org/1999/xlink" x="0px" y="0px"
	 width="42px" height="42px" viewBox="0 0 42 42" enable-background="new 0 0 42 42" xml:space="preserve">
<g>
	<g>
		<path fill="#FFFFFF" d="M3.65,40.47c-1.169,0-2.12-0.951-2.12-2.12V3.65c0-1.169,0.951-2.12,2.12-2.12H38.35
			c1.169,0,2.12,0.951,2.12,2.12V38.35c0,1.169-0.951,2.12-2.12,2.12H3.65z"/>
		<path fill="#AFAFAF" d="M38.35,2.06c0.877,0,1.59,0.713,1.59,1.59V38.35c0,0.877-0.713,1.59-1.59,1.59H3.65
			c-0.877,0-1.59-0.713-1.59-1.59V3.65c0-0.877,0.713-1.59,1.59-1.59H38.35 M38.35,1H3.65C2.187,1,1,2.187,1,3.65V38.35
			C1,39.813,2.187,41,3.65,41H38.35c1.464,0,2.65-1.187,2.65-2.65V3.65C41,2.187,39.813,1,38.35,1L38.35,1z"/>
	</g>
	<g>
		<linearGradient id="SVGID_1_" gradientUnits="userSpaceOnUse" x1="20.9994" y1="38.7147" x2="20.9994" y2="3.285">
			<stop  offset="0" style="stop-color:#F1E821"/>
			<stop  offset="1" style="stop-color:#D6B900"/>
		</linearGradient>
		<path fill="url(#SVGID_1_)" d="M3.65,38.715c-0.201,0-0.366-0.165-0.366-0.366V3.651c0-0.201,0.165-0.366,0.366-0.366h34.7
			c0.201,0,0.364,0.165,0.364,0.366v34.699c0,0.201-0.163,0.366-0.364,0.366H3.65z"/>
	</g>
	<g>
		<g>
			<g>
				<polygon fill="#A37C00" points="8.816,9.543 11.957,6.948 11.957,12.138 				"/>
				<path fill="#A37C00" d="M20.479,15.864c-1.599-1.888-2.623-3.195-3.131-3.992c-0.687-1.081-1.218-1.276-1.398-1.289
					l-4.757,0.028V8.407h4.425c0.601-0.088,2.113-0.037,3.59,2.282c0.308,0.483,1.069,1.527,2.952,3.752L20.479,15.864z"/>
			</g>
			<g>
				<polygon fill="#A37C00" points="33.183,19.764 30.042,22.359 30.042,17.169 				"/>
				<path fill="#A37C00" d="M21.52,13.442c1.599,1.888,2.623,3.195,3.131,3.992c0.687,1.081,1.218,1.276,1.398,1.289l4.757-0.028
					V20.9H26.38c-0.601,0.088-2.113,0.037-3.59-2.282c-0.308-0.483-1.069-1.527-2.952-3.752L21.52,13.442z"/>
			</g>
		</g>
		<g>
			<g>
				<polygon fill="#A37C00" points="33.183,9.543 30.042,6.948 30.042,12.138 				"/>
				<path fill="#A37C00" d="M21.52,15.864c1.599-1.888,2.623-3.195,3.131-3.992c0.687-1.081,1.218-1.276,1.398-1.289l4.757,0.028
					V8.407H26.38c-0.601-0.088-2.113-0.037-3.59,2.282c-0.308,0.483-1.069,1.527-2.952,3.752L21.52,15.864z"/>
			</g>
			<g>
				<polygon fill="#A37C00" points="8.816,19.764 11.957,22.359 11.957,17.169 				"/>
				<path fill="#A37C00" d="M20.479,13.442c-1.599,1.888-2.623,3.195-3.131,3.992c-0.687,1.081-1.218,1.276-1.398,1.289
					l-4.757-0.028V20.9h4.425c0.601,0.088,2.113,0.037,3.59-2.282c0.308-0.483,1.069-1.527,2.952-3.752L20.479,13.442z"/>
			</g>
		</g>
	</g>
	<g>
		<path fill="#A37C00" d="M7.972,37.463v-7.954h4.977v0.939H8.948v2.464h3.463v0.939H8.948v3.613H7.972z"/>
		<path fill="#A37C00" d="M13.851,35.379l0.951-0.086c0.071,0.499,0.234,0.874,0.491,1.125s0.566,0.376,0.929,0.376
			c0.436,0,0.805-0.176,1.107-0.531s0.453-0.825,0.453-1.41c0-0.558-0.145-0.997-0.435-1.319c-0.29-0.322-0.67-0.482-1.14-0.482
			c-0.292,0-0.556,0.071-0.79,0.213c-0.235,0.144-0.42,0.329-0.554,0.557l-0.851-0.119l0.715-4.086h3.669v0.933h-2.944l-0.398,2.137
			c0.443-0.332,0.908-0.498,1.394-0.498c0.644,0,1.188,0.241,1.631,0.722c0.442,0.481,0.664,1.099,0.664,1.855
			c0,0.72-0.195,1.342-0.584,1.867c-0.473,0.644-1.119,0.966-1.938,0.966c-0.671,0-1.219-0.203-1.644-0.608
			C14.153,36.586,13.911,36.048,13.851,35.379z"/>
		<path fill="#A37C00" d="M19.584,33.54c0-0.94,0.09-1.697,0.269-2.27c0.179-0.574,0.446-1.016,0.8-1.327
			c0.354-0.311,0.799-0.467,1.337-0.467c0.396,0,0.743,0.086,1.042,0.257c0.299,0.173,0.545,0.42,0.74,0.744
			c0.195,0.324,0.347,0.718,0.458,1.183c0.11,0.464,0.166,1.091,0.166,1.88c0,0.933-0.089,1.686-0.267,2.26
			c-0.178,0.573-0.444,1.016-0.798,1.329c-0.354,0.312-0.801,0.469-1.341,0.469c-0.712,0-1.271-0.274-1.676-0.825
			C19.827,36.111,19.584,35.034,19.584,33.54z M20.514,33.54c0,1.306,0.142,2.175,0.425,2.606c0.284,0.433,0.633,0.648,1.05,0.648
			c0.416,0,0.766-0.217,1.049-0.651c0.284-0.434,0.425-1.302,0.425-2.604c0-1.31-0.142-2.179-0.425-2.609
			c-0.283-0.431-0.637-0.646-1.059-0.646c-0.416,0-0.748,0.19-0.996,0.57C20.671,31.339,20.514,32.234,20.514,33.54z"/>
		<path fill="#A37C00" d="M25.317,33.54c0-0.94,0.09-1.697,0.269-2.27c0.179-0.574,0.446-1.016,0.8-1.327
			c0.354-0.311,0.799-0.467,1.337-0.467c0.396,0,0.743,0.086,1.042,0.257c0.299,0.173,0.545,0.42,0.74,0.744
			c0.195,0.324,0.347,0.718,0.458,1.183c0.11,0.464,0.166,1.091,0.166,1.88c0,0.933-0.089,1.686-0.267,2.26
			c-0.178,0.573-0.444,1.016-0.798,1.329c-0.354,0.312-0.801,0.469-1.341,0.469c-0.712,0-1.271-0.274-1.676-0.825
			C25.56,36.111,25.317,35.034,25.317,33.54z M26.247,33.54c0,1.306,0.142,2.175,0.425,2.606c0.284,0.433,0.633,0.648,1.05,0.648
			c0.416,0,0.766-0.217,1.049-0.651c0.284-0.434,0.425-1.302,0.425-2.604c0-1.31-0.142-2.179-0.425-2.609
			c-0.283-0.431-0.637-0.646-1.059-0.646c-0.416,0-0.748,0.19-0.996,0.57C26.404,31.339,26.247,32.234,26.247,33.54z"/>
		<path fill="#A37C00" d="M31.049,33.54c0-0.94,0.09-1.697,0.269-2.27c0.179-0.574,0.446-1.016,0.8-1.327
			c0.354-0.311,0.799-0.467,1.337-0.467c0.396,0,0.743,0.086,1.042,0.257c0.299,0.173,0.545,0.42,0.74,0.744
			c0.195,0.324,0.347,0.718,0.458,1.183c0.11,0.464,0.166,1.091,0.166,1.88c0,0.933-0.089,1.686-0.267,2.26
			c-0.178,0.573-0.444,1.016-0.798,1.329c-0.354,0.312-0.801,0.469-1.341,0.469c-0.712,0-1.271-0.274-1.676-0.825
			C31.292,36.111,31.049,35.034,31.049,33.54z M31.98,33.54c0,1.306,0.142,2.175,0.425,2.606c0.284,0.433,0.633,0.648,1.05,0.648
			c0.416,0,0.766-0.217,1.049-0.651c0.284-0.434,0.425-1.302,0.425-2.604c0-1.31-0.142-2.179-0.425-2.609
			c-0.283-0.431-0.637-0.646-1.059-0.646c-0.416,0-0.748,0.19-0.996,0.57C32.136,31.339,31.98,32.234,31.98,33.54z"/>
	</g>
	<g>
		<path fill="#A37C00" d="M16.161,22.874h0.953v2.758c0,0.438,0.012,0.722,0.035,0.851c0.042,0.209,0.139,0.376,0.293,0.502
			c0.153,0.127,0.363,0.19,0.63,0.19c0.271,0,0.474-0.059,0.612-0.179c0.137-0.119,0.22-0.265,0.248-0.439
			c0.027-0.174,0.042-0.463,0.042-0.865v-2.817h0.954v2.674c0,0.612-0.026,1.044-0.078,1.297c-0.051,0.252-0.146,0.465-0.285,0.639
			c-0.139,0.173-0.324,0.311-0.556,0.414c-0.233,0.103-0.535,0.154-0.908,0.154c-0.451,0-0.793-0.056-1.026-0.167
			c-0.234-0.112-0.418-0.259-0.553-0.438c-0.136-0.18-0.225-0.367-0.268-0.565c-0.063-0.293-0.093-0.723-0.093-1.293V22.874z"/>
		<path fill="#A37C00" d="M20.701,26.616l0.877-0.115c0.027,0.241,0.103,0.425,0.225,0.552c0.123,0.128,0.271,0.191,0.444,0.191
			c0.187,0,0.345-0.076,0.473-0.229c0.127-0.153,0.191-0.359,0.191-0.618c0-0.246-0.061-0.44-0.183-0.584
			c-0.123-0.144-0.272-0.216-0.448-0.216c-0.116,0-0.255,0.025-0.416,0.073l0.099-0.795c0.246,0.007,0.433-0.051,0.561-0.173
			c0.129-0.122,0.193-0.282,0.193-0.485c0-0.171-0.047-0.307-0.141-0.409c-0.094-0.102-0.221-0.153-0.378-0.153
			c-0.154,0-0.286,0.058-0.396,0.174c-0.11,0.115-0.176,0.285-0.2,0.507l-0.834-0.153c0.058-0.308,0.145-0.554,0.263-0.739
			c0.116-0.184,0.28-0.328,0.489-0.434c0.21-0.106,0.444-0.158,0.705-0.158c0.444,0,0.801,0.153,1.071,0.459
			c0.221,0.25,0.332,0.532,0.332,0.847c0,0.447-0.227,0.804-0.681,1.071c0.271,0.063,0.488,0.203,0.65,0.42
			c0.162,0.218,0.243,0.481,0.243,0.789c0,0.447-0.152,0.827-0.454,1.142c-0.303,0.315-0.681,0.472-1.132,0.472
			c-0.427,0-0.782-0.132-1.063-0.397C20.909,27.39,20.746,27.044,20.701,26.616z"/>
		<path fill="#A37C00" d="M25.934,22.853c0.457,0,0.814,0.176,1.073,0.528c0.307,0.417,0.46,1.108,0.46,2.073
			c0,0.963-0.154,1.656-0.464,2.078c-0.255,0.348-0.612,0.52-1.069,0.52c-0.46,0-0.831-0.19-1.112-0.571
			c-0.281-0.38-0.422-1.059-0.422-2.036c0-0.959,0.156-1.65,0.464-2.07C25.12,23.027,25.477,22.853,25.934,22.853z M25.934,23.662
			c-0.11,0-0.208,0.038-0.294,0.114c-0.085,0.075-0.152,0.209-0.199,0.404c-0.063,0.252-0.094,0.677-0.094,1.274
			c0,0.599,0.027,1.009,0.084,1.233c0.056,0.224,0.127,0.373,0.212,0.446c0.085,0.075,0.182,0.111,0.291,0.111
			c0.11,0,0.207-0.038,0.293-0.112c0.086-0.076,0.153-0.21,0.2-0.405c0.063-0.25,0.093-0.673,0.093-1.272
			c0-0.597-0.027-1.008-0.084-1.231c-0.055-0.222-0.125-0.373-0.21-0.447C26.141,23.7,26.044,23.662,25.934,23.662z"/>
	</g>
</g>
</svg>
