<?xml version="1.0" encoding="utf-8"?>
<!-- Generator: Adobe Illustrator 18.0.0, SVG Export Plug-In . SVG Version: 6.00 Build 0)  -->
<!DOCTYPE svg PUBLIC "-//W3C//DTD SVG 1.1//EN" "http://www.w3.org/Graphics/SVG/1.1/DTD/svg11.dtd">
<svg version="1.1" id="图层_1" xmlns="http://www.w3.org/2000/svg" xmlns:xlink="http://www.w3.org/1999/xlink" x="0px" y="0px"
	 width="42px" height="42px" viewBox="0 0 42 42" enable-background="new 0 0 42 42" xml:space="preserve">
<g>
	<g>
		<path fill="#FFFFFF" d="M3.65,40.47c-1.169,0-2.12-0.951-2.12-2.12V3.65c0-1.169,0.951-2.12,2.12-2.12H38.35
			c1.169,0,2.12,0.951,2.12,2.12V38.35c0,1.169-0.951,2.12-2.12,2.12H3.65z"/>
		<path fill="#AFAFAF" d="M38.35,2.06c0.877,0,1.59,0.713,1.59,1.59V38.35c0,0.877-0.713,1.59-1.59,1.59H3.65
			c-0.877,0-1.59-0.713-1.59-1.59V3.65c0-0.877,0.713-1.59,1.59-1.59H38.35 M38.35,1H3.65C2.187,1,1,2.187,1,3.65V38.35
			C1,39.813,2.187,41,3.65,41H38.35c1.464,0,2.65-1.187,2.65-2.65V3.65C41,2.187,39.813,1,38.35,1L38.35,1z"/>
	</g>
	<g>
		<path fill="#C4C4C4" d="M3.65,38.715c-0.201,0-0.366-0.165-0.366-0.366V3.651c0-0.201,0.165-0.366,0.366-0.366h34.7
			c0.201,0,0.364,0.165,0.364,0.366v34.699c0,0.201-0.163,0.366-0.364,0.366H3.65z"/>
	</g>
	<g>
		<g>
			<g>
				<polygon fill="#F5F5F5" points="8.816,9.543 11.957,6.948 11.957,12.138 				"/>
				<path fill="#F5F5F5" d="M20.479,15.864c-1.599-1.888-2.623-3.195-3.131-3.992c-0.687-1.081-1.218-1.276-1.398-1.289
					l-4.757,0.028V8.407h4.425c0.601-0.088,2.113-0.037,3.59,2.282c0.308,0.483,1.069,1.527,2.952,3.752L20.479,15.864z"/>
			</g>
			<g>
				<polygon fill="#F5F5F5" points="33.183,19.764 30.042,22.359 30.042,17.169 				"/>
				<path fill="#F5F5F5" d="M21.52,13.442c1.599,1.888,2.623,3.195,3.131,3.992c0.687,1.081,1.218,1.276,1.398,1.289l4.757-0.028
					V20.9H26.38c-0.601,0.088-2.113,0.037-3.59-2.282c-0.308-0.483-1.069-1.527-2.952-3.752L21.52,13.442z"/>
			</g>
		</g>
		<g>
			<g>
				<polygon fill="#F5F5F5" points="33.183,9.543 30.042,6.948 30.042,12.138 				"/>
				<path fill="#F5F5F5" d="M21.52,15.864c1.599-1.888,2.623-3.195,3.131-3.992c0.687-1.081,1.218-1.276,1.398-1.289l4.757,0.028
					V8.407H26.38c-0.601-0.088-2.113-0.037-3.59,2.282c-0.308,0.483-1.069,1.527-2.952,3.752L21.52,15.864z"/>
			</g>
			<g>
				<polygon fill="#F5F5F5" points="8.816,19.764 11.957,22.359 11.957,17.169 				"/>
				<path fill="#F5F5F5" d="M20.479,13.442c-1.599,1.888-2.623,3.195-3.131,3.992c-0.687,1.081-1.218,1.276-1.398,1.289
					l-4.757-0.028V20.9h4.425c0.601,0.088,2.113,0.037,3.59-2.282c0.308-0.483,1.069-1.527,2.952-3.752L20.479,13.442z"/>
			</g>
		</g>
	</g>
	<g>
		<path fill="#FFFFFF" d="M7.232,37.533v-7.954h4.977v0.939H8.209v2.463h3.462v0.939H8.209v3.613H7.232z"/>
		<path fill="#FFFFFF" d="M13.11,35.45l0.952-0.087c0.071,0.499,0.234,0.874,0.491,1.126c0.256,0.251,0.566,0.377,0.929,0.377
			c0.436,0,0.805-0.177,1.107-0.532c0.301-0.354,0.452-0.824,0.452-1.411c0-0.557-0.145-0.996-0.435-1.318
			c-0.29-0.322-0.67-0.483-1.14-0.483c-0.292,0-0.555,0.071-0.79,0.214c-0.234,0.143-0.419,0.328-0.554,0.556l-0.85-0.119
			l0.714-4.085h3.67v0.933h-2.945l-0.398,2.138c0.443-0.333,0.908-0.499,1.395-0.499c0.644,0,1.187,0.241,1.63,0.722
			c0.442,0.481,0.664,1.1,0.664,1.856c0,0.72-0.195,1.342-0.583,1.866c-0.474,0.644-1.12,0.965-1.938,0.965
			c-0.671,0-1.219-0.202-1.644-0.608C13.414,36.656,13.171,36.119,13.11,35.45z"/>
		<path fill="#FFFFFF" d="M18.843,33.61c0-0.941,0.091-1.697,0.269-2.271c0.18-0.573,0.447-1.016,0.801-1.327
			c0.354-0.311,0.799-0.467,1.335-0.467c0.397,0,0.744,0.086,1.042,0.258c0.299,0.172,0.545,0.42,0.74,0.744
			c0.195,0.323,0.347,0.718,0.458,1.183c0.11,0.464,0.165,1.091,0.165,1.88c0,0.933-0.088,1.686-0.266,2.259
			c-0.179,0.573-0.445,1.017-0.799,1.329c-0.354,0.313-0.801,0.469-1.341,0.469c-0.71,0-1.269-0.274-1.676-0.824
			C19.087,36.182,18.843,35.104,18.843,33.61z M19.775,33.61c0,1.306,0.141,2.174,0.425,2.607c0.283,0.432,0.633,0.648,1.049,0.648
			c0.416,0,0.767-0.217,1.05-0.65c0.284-0.434,0.425-1.302,0.425-2.604c0-1.31-0.141-2.179-0.425-2.61
			c-0.283-0.431-0.637-0.646-1.06-0.646c-0.415,0-0.748,0.19-0.996,0.57C19.931,31.41,19.775,32.305,19.775,33.61z"/>
		<path fill="#FFFFFF" d="M24.576,33.61c0-0.941,0.091-1.697,0.269-2.271c0.18-0.573,0.447-1.016,0.801-1.327
			c0.354-0.311,0.799-0.467,1.335-0.467c0.397,0,0.744,0.086,1.042,0.258c0.299,0.172,0.545,0.42,0.74,0.744
			c0.195,0.323,0.347,0.718,0.458,1.183c0.11,0.464,0.165,1.091,0.165,1.88c0,0.933-0.088,1.686-0.266,2.259
			c-0.179,0.573-0.445,1.017-0.799,1.329c-0.354,0.313-0.801,0.469-1.341,0.469c-0.71,0-1.269-0.274-1.676-0.824
			C24.819,36.182,24.576,35.104,24.576,33.61z M25.508,33.61c0,1.306,0.141,2.174,0.425,2.607c0.283,0.432,0.633,0.648,1.049,0.648
			c0.416,0,0.767-0.217,1.05-0.65c0.284-0.434,0.425-1.302,0.425-2.604c0-1.31-0.141-2.179-0.425-2.61
			c-0.283-0.431-0.637-0.646-1.06-0.646c-0.415,0-0.748,0.19-0.996,0.57C25.664,31.41,25.508,32.305,25.508,33.61z"/>
		<path fill="#FFFFFF" d="M30.309,33.61c0-0.941,0.089-1.697,0.269-2.271c0.179-0.573,0.446-1.016,0.8-1.327s0.8-0.467,1.336-0.467
			c0.396,0,0.744,0.086,1.041,0.258c0.299,0.172,0.546,0.42,0.74,0.744c0.195,0.323,0.348,0.718,0.458,1.183
			c0.111,0.464,0.167,1.091,0.167,1.88c0,0.933-0.089,1.686-0.267,2.259s-0.443,1.017-0.797,1.329
			c-0.354,0.313-0.801,0.469-1.341,0.469c-0.712,0-1.27-0.274-1.676-0.824C30.552,36.182,30.309,35.104,30.309,33.61z M31.24,33.61
			c0,1.306,0.142,2.174,0.425,2.607c0.284,0.432,0.633,0.648,1.05,0.648c0.416,0,0.766-0.217,1.05-0.65
			c0.283-0.434,0.425-1.302,0.425-2.604c0-1.31-0.142-2.179-0.425-2.61c-0.284-0.431-0.637-0.646-1.06-0.646
			c-0.416,0-0.748,0.19-0.997,0.57C31.395,31.41,31.24,32.305,31.24,33.61z"/>
	</g>
	<g>
		<path fill="#FFFFFF" d="M15.772,23.266h0.893v2.585c0,0.41,0.011,0.676,0.033,0.797c0.039,0.195,0.13,0.352,0.274,0.47
			c0.143,0.118,0.341,0.177,0.59,0.177c0.254,0,0.445-0.056,0.573-0.167c0.129-0.112,0.206-0.249,0.233-0.412
			c0.026-0.163,0.039-0.433,0.039-0.81v-2.64h0.894v2.506c0,0.573-0.024,0.978-0.073,1.214c-0.048,0.237-0.137,0.437-0.267,0.599
			c-0.13,0.163-0.304,0.293-0.521,0.389c-0.218,0.097-0.501,0.145-0.851,0.145c-0.423,0-0.744-0.053-0.962-0.158
			c-0.219-0.105-0.392-0.242-0.518-0.41c-0.127-0.168-0.211-0.344-0.251-0.529c-0.059-0.274-0.087-0.677-0.087-1.211V23.266z"/>
		<path fill="#FFFFFF" d="M20.026,26.772l0.822-0.108c0.026,0.226,0.097,0.398,0.211,0.518c0.115,0.119,0.254,0.179,0.416,0.179
			c0.175,0,0.323-0.072,0.443-0.215c0.119-0.143,0.179-0.336,0.179-0.579c0-0.23-0.058-0.412-0.171-0.547
			c-0.115-0.135-0.255-0.202-0.42-0.202c-0.109,0-0.239,0.023-0.39,0.069l0.093-0.745c0.23,0.007,0.405-0.047,0.526-0.161
			c0.121-0.114,0.181-0.265,0.181-0.454c0-0.16-0.044-0.288-0.132-0.384c-0.088-0.096-0.207-0.143-0.354-0.143
			c-0.145,0-0.268,0.055-0.371,0.163c-0.103,0.108-0.165,0.267-0.187,0.475l-0.782-0.143c0.054-0.288,0.136-0.519,0.246-0.692
			c0.109-0.173,0.262-0.308,0.458-0.407c0.197-0.099,0.416-0.148,0.66-0.148c0.416,0,0.751,0.143,1.003,0.429
			c0.207,0.235,0.311,0.499,0.311,0.794c0,0.419-0.213,0.753-0.638,1.003c0.254,0.059,0.457,0.19,0.609,0.394
			c0.152,0.204,0.228,0.45,0.228,0.739c0,0.418-0.142,0.775-0.425,1.071c-0.284,0.295-0.638,0.443-1.061,0.443
			c-0.401,0-0.733-0.124-0.996-0.373C20.221,27.498,20.069,27.173,20.026,26.772z"/>
		<path fill="#FFFFFF" d="M24.931,23.246c0.429,0,0.763,0.165,1.006,0.495c0.288,0.39,0.431,1.038,0.431,1.943
			c0,0.903-0.145,1.552-0.435,1.947c-0.239,0.325-0.573,0.488-1.002,0.488c-0.431,0-0.779-0.179-1.042-0.535
			c-0.263-0.357-0.396-0.993-0.396-1.909c0-0.899,0.146-1.545,0.435-1.94C24.168,23.409,24.502,23.246,24.931,23.246z
			 M24.931,24.005c-0.103,0-0.195,0.036-0.276,0.106c-0.08,0.07-0.142,0.197-0.186,0.379c-0.059,0.236-0.088,0.635-0.088,1.194
			c0,0.56,0.026,0.945,0.078,1.155c0.053,0.209,0.119,0.349,0.198,0.418c0.08,0.07,0.17,0.105,0.273,0.105
			c0.103,0,0.194-0.036,0.274-0.106s0.143-0.197,0.187-0.379c0.059-0.235,0.087-0.631,0.087-1.192c0-0.56-0.026-0.944-0.078-1.154
			c-0.051-0.209-0.118-0.349-0.197-0.42C25.125,24.04,25.034,24.005,24.931,24.005z"/>
	</g>
</g>
</svg>
