<?xml version="1.0" encoding="utf-8"?>
<!-- Generator: Adobe Illustrator 18.0.0, SVG Export Plug-In . SVG Version: 6.00 Build 0)  -->
<!DOCTYPE svg PUBLIC "-//W3C//DTD SVG 1.1//EN" "http://www.w3.org/Graphics/SVG/1.1/DTD/svg11.dtd">
<svg version="1.1" id="图层_1" xmlns="http://www.w3.org/2000/svg" xmlns:xlink="http://www.w3.org/1999/xlink" x="0px" y="0px"
	 width="42px" height="42px" viewBox="0 0 42 42" enable-background="new 0 0 42 42" xml:space="preserve">
<g>
	<path fill="#FFFFFF" d="M3.279,40.815c-1.194,0-2.166-0.971-2.166-2.166V3.207c0-1.194,0.972-2.166,2.166-2.166h35.441
		c1.194,0,2.166,0.971,2.166,2.166v35.442c0,1.194-0.972,2.166-2.166,2.166H3.279z"/>
	<path fill="#AFAFAF" d="M38.721,1.583c0.896,0,1.624,0.729,1.624,1.624v35.442c0,0.896-0.729,1.624-1.624,1.624H3.279
		c-0.896,0-1.624-0.729-1.624-1.624V3.207c0-0.896,0.729-1.624,1.624-1.624H38.721 M38.721,0.5H3.279
		c-1.495,0-2.707,1.212-2.707,2.707v35.442c0,1.495,1.212,2.707,2.707,2.707h35.442c1.495,0,2.707-1.212,2.707-2.707V3.207
		C41.428,1.712,40.216,0.5,38.721,0.5L38.721,0.5z"/>
</g>
<g>
	<linearGradient id="SVGID_1_" gradientUnits="userSpaceOnUse" x1="20.9994" y1="39.0222" x2="20.9994" y2="2.834">
		<stop  offset="0" style="stop-color:#00AEF9"/>
		<stop  offset="1" style="stop-color:#0092E1"/>
	</linearGradient>
	<path fill="url(#SVGID_1_)" d="M3.279,39.022c-0.205,0-0.373-0.168-0.373-0.373V3.207c0-0.205,0.168-0.373,0.373-0.373h35.443
		c0.205,0,0.372,0.168,0.372,0.373v35.442c0,0.205-0.167,0.373-0.372,0.373H3.279z"/>
</g>
<g>
	<g>
		<g>
			<polygon fill="#F5F5F5" points="8.555,9.226 11.763,6.575 11.763,11.876 			"/>
			<path fill="#F5F5F5" d="M20.468,15.683c-1.633-1.929-2.679-3.264-3.198-4.077c-0.702-1.104-1.244-1.304-1.428-1.316l-4.859,0.028
				V8.066h4.52c0.614-0.09,2.158-0.038,3.667,2.331c0.314,0.493,1.092,1.56,3.015,3.832L20.468,15.683z"/>
		</g>
		<g>
			<polygon fill="#F5F5F5" points="33.444,19.666 30.236,22.317 30.236,17.015 			"/>
			<path fill="#F5F5F5" d="M21.531,13.209c1.633,1.929,2.679,3.264,3.198,4.077c0.702,1.104,1.244,1.304,1.428,1.316l4.859-0.028
				v2.252h-4.52c-0.614,0.09-2.158,0.038-3.667-2.331c-0.314-0.493-1.092-1.56-3.015-3.832L21.531,13.209z"/>
		</g>
	</g>
	<g>
		<g>
			<polygon fill="#F5F5F5" points="33.444,9.226 30.236,6.575 30.236,11.876 			"/>
			<path fill="#F5F5F5" d="M21.531,15.683c1.633-1.929,2.679-3.264,3.198-4.077c0.702-1.104,1.244-1.304,1.428-1.316l4.859,0.028
				V8.066h-4.52c-0.614-0.09-2.158-0.038-3.667,2.331c-0.314,0.493-1.092,1.56-3.015,3.832L21.531,15.683z"/>
		</g>
		<g>
			<polygon fill="#F5F5F5" points="8.555,19.666 11.763,22.317 11.763,17.015 			"/>
			<path fill="#F5F5F5" d="M20.468,13.209c-1.633,1.929-2.679,3.264-3.198,4.077c-0.702,1.104-1.244,1.304-1.428,1.316l-4.859-0.028
				v2.252h4.52c0.614,0.09,2.158,0.038,3.667-2.331c0.314-0.493,1.092-1.56,3.015-3.832L20.468,13.209z"/>
		</g>
	</g>
</g>
<g>
	<path fill="#FFFFFF" d="M6.938,37.815v-8.124h5.085v0.959H7.936v2.516h3.537v0.959H7.936v3.69H6.938z"/>
	<path fill="#FFFFFF" d="M12.942,35.687l0.972-0.089c0.072,0.51,0.239,0.894,0.502,1.15c0.262,0.257,0.578,0.385,0.948,0.385
		c0.445,0,0.822-0.181,1.131-0.543c0.309-0.362,0.463-0.842,0.463-1.441c0-0.569-0.148-1.018-0.444-1.347
		c-0.297-0.329-0.686-0.493-1.165-0.493c-0.298,0-0.567,0.073-0.807,0.219c-0.24,0.146-0.429,0.335-0.565,0.568l-0.869-0.122
		l0.729-4.173h3.748v0.953h-3.007l-0.406,2.184c0.452-0.34,0.927-0.51,1.424-0.51c0.658,0,1.213,0.246,1.665,0.737
		c0.453,0.492,0.679,1.123,0.679,1.896c0,0.735-0.198,1.371-0.596,1.906c-0.483,0.657-1.144,0.986-1.979,0.986
		c-0.686,0-1.245-0.207-1.679-0.621C13.252,36.919,13.005,36.371,12.942,35.687z"/>
	<path fill="#FFFFFF" d="M18.798,33.809c0-0.96,0.092-1.734,0.275-2.319s0.456-1.037,0.817-1.355
		c0.361-0.317,0.816-0.477,1.365-0.477c0.404,0,0.759,0.088,1.064,0.263c0.305,0.176,0.557,0.429,0.755,0.759
		c0.199,0.331,0.355,0.733,0.468,1.208c0.113,0.475,0.17,1.115,0.17,1.92c0,0.953-0.091,1.722-0.272,2.308
		c-0.182,0.585-0.453,1.038-0.814,1.357c-0.362,0.32-0.818,0.479-1.37,0.479c-0.727,0-1.298-0.281-1.712-0.842
		C19.047,36.435,18.798,35.334,18.798,33.809z M19.749,33.809c0,1.333,0.146,2.221,0.435,2.663c0.29,0.441,0.647,0.662,1.072,0.662
		s0.782-0.222,1.071-0.665c0.29-0.443,0.435-1.33,0.435-2.66c0-1.337-0.145-2.226-0.435-2.666c-0.289-0.439-0.65-0.66-1.082-0.66
		c-0.425,0-0.764,0.194-1.018,0.582C19.909,31.561,19.749,32.475,19.749,33.809z"/>
	<path fill="#FFFFFF" d="M24.653,33.809c0-0.96,0.092-1.734,0.275-2.319s0.456-1.037,0.817-1.355
		c0.361-0.317,0.816-0.477,1.365-0.477c0.404,0,0.759,0.088,1.064,0.263c0.305,0.176,0.557,0.429,0.755,0.759
		c0.199,0.331,0.355,0.733,0.468,1.208c0.113,0.475,0.17,1.115,0.17,1.92c0,0.953-0.091,1.722-0.272,2.308
		c-0.182,0.585-0.453,1.038-0.814,1.357c-0.362,0.32-0.818,0.479-1.37,0.479c-0.727,0-1.298-0.281-1.712-0.842
		C24.902,36.435,24.653,35.334,24.653,33.809z M25.604,33.809c0,1.333,0.146,2.221,0.435,2.663c0.29,0.441,0.647,0.662,1.072,0.662
		s0.782-0.222,1.071-0.665c0.29-0.443,0.435-1.33,0.435-2.66c0-1.337-0.145-2.226-0.435-2.666c-0.289-0.439-0.65-0.66-1.082-0.66
		c-0.425,0-0.764,0.194-1.018,0.582C25.765,31.561,25.604,32.475,25.604,33.809z"/>
	<path fill="#FFFFFF" d="M30.509,33.809c0-0.96,0.092-1.734,0.275-2.319s0.456-1.037,0.817-1.355
		c0.361-0.317,0.816-0.477,1.365-0.477c0.404,0,0.759,0.088,1.064,0.263c0.305,0.176,0.557,0.429,0.755,0.759
		c0.199,0.331,0.355,0.733,0.468,1.208c0.113,0.475,0.17,1.115,0.17,1.92c0,0.953-0.091,1.722-0.272,2.308
		c-0.182,0.585-0.453,1.038-0.814,1.357c-0.362,0.32-0.818,0.479-1.37,0.479c-0.727,0-1.298-0.281-1.712-0.842
		C30.758,36.435,30.509,35.334,30.509,33.809z M31.46,33.809c0,1.333,0.146,2.221,0.435,2.663c0.29,0.441,0.647,0.662,1.072,0.662
		s0.782-0.222,1.071-0.665c0.29-0.443,0.435-1.33,0.435-2.66c0-1.337-0.145-2.226-0.435-2.666c-0.289-0.439-0.65-0.66-1.082-0.66
		c-0.425,0-0.764,0.194-1.018,0.582C31.62,31.561,31.46,32.475,31.46,33.809z"/>
</g>
<g>
	<path fill="#FFFFFF" d="M15.996,26.407l0.599,0.163c-0.126,0.53-0.352,0.934-0.678,1.212c-0.325,0.278-0.724,0.417-1.195,0.417
		c-0.487,0-0.884-0.107-1.188-0.321c-0.306-0.214-0.538-0.523-0.697-0.929s-0.239-0.841-0.239-1.307c0-0.508,0.09-0.951,0.271-1.329
		c0.18-0.377,0.436-0.665,0.768-0.861s0.697-0.294,1.097-0.294c0.452,0,0.833,0.124,1.142,0.373
		c0.308,0.248,0.522,0.597,0.645,1.047l-0.59,0.149c-0.104-0.354-0.257-0.613-0.456-0.774c-0.199-0.162-0.45-0.243-0.753-0.243
		c-0.348,0-0.638,0.089-0.871,0.269s-0.397,0.421-0.492,0.723c-0.095,0.303-0.142,0.615-0.142,0.936
		c0,0.415,0.056,0.776,0.168,1.085c0.112,0.31,0.286,0.541,0.522,0.693c0.237,0.153,0.493,0.229,0.769,0.229
		c0.335,0,0.619-0.104,0.852-0.313S15.914,26.817,15.996,26.407z"/>
	<path fill="#FFFFFF" d="M17.15,25.742c0-0.809,0.201-1.442,0.604-1.9c0.402-0.458,0.923-0.687,1.561-0.687
		c0.417,0,0.794,0.108,1.129,0.323s0.591,0.515,0.767,0.899c0.176,0.384,0.264,0.821,0.264,1.308c0,0.495-0.093,0.937-0.277,1.327
		c-0.186,0.39-0.447,0.686-0.787,0.886c-0.339,0.201-0.705,0.301-1.098,0.301c-0.426,0-0.807-0.111-1.142-0.333
		s-0.589-0.524-0.762-0.908C17.236,26.575,17.15,26.169,17.15,25.742z M17.767,25.752c0,0.587,0.146,1.05,0.44,1.388
		c0.293,0.338,0.66,0.507,1.103,0.507c0.45,0,0.82-0.171,1.111-0.512s0.437-0.826,0.437-1.453c0-0.397-0.062-0.743-0.187-1.039
		c-0.124-0.296-0.307-0.525-0.546-0.688s-0.509-0.244-0.807-0.244c-0.424,0-0.788,0.157-1.094,0.47
		C17.92,24.495,17.767,25.018,17.767,25.752z"/>
	<path fill="#FFFFFF" d="M23.396,28.116v-4.299h-1.489v-0.575h3.584v0.575h-1.496v4.299H23.396z"/>
	<path fill="#FFFFFF" d="M26.104,28.116v-4.875h1.706c0.3,0,0.529,0.016,0.688,0.047c0.223,0.04,0.408,0.116,0.559,0.228
		c0.149,0.112,0.271,0.269,0.362,0.471s0.137,0.423,0.137,0.665c0,0.415-0.122,0.765-0.366,1.052
		c-0.245,0.287-0.688,0.431-1.327,0.431h-1.159v1.981H26.104z M26.703,25.559h1.169c0.387,0,0.661-0.078,0.823-0.233
		c0.163-0.155,0.244-0.374,0.244-0.655c0-0.204-0.048-0.378-0.144-0.523s-0.222-0.241-0.378-0.288
		c-0.101-0.029-0.287-0.043-0.559-0.043h-1.156V25.559z"/>
</g>
</svg>
