<?xml version="1.0" encoding="utf-8"?>
<!-- Generator: Adobe Illustrator 18.0.0, SVG Export Plug-In . SVG Version: 6.00 Build 0)  -->
<!DOCTYPE svg PUBLIC "-//W3C//DTD SVG 1.1//EN" "http://www.w3.org/Graphics/SVG/1.1/DTD/svg11.dtd">
<svg version="1.1" id="图层_1" xmlns="http://www.w3.org/2000/svg" xmlns:xlink="http://www.w3.org/1999/xlink" x="0px" y="0px"
	 width="36px" height="36px" viewBox="0 0 36 36" enable-background="new 0 0 36 36" xml:space="preserve">
<g>
	<path fill="#FFFFFF" d="M2.819,35.036c-1.023,0-1.855-0.832-1.855-1.855V2.819c0-1.023,0.832-1.855,1.855-1.855h30.362
		c1.023,0,1.855,0.832,1.855,1.855v30.362c0,1.023-0.832,1.855-1.855,1.855H2.819z"/>
	<path fill="#AFAFAF" d="M33.181,1.428c0.767,0,1.391,0.624,1.391,1.391v30.362c0,0.767-0.624,1.391-1.391,1.391H2.819
		c-0.767,0-1.391-0.624-1.391-1.391V2.819c0-0.767,0.624-1.391,1.391-1.391H33.181 M33.181,0.5H2.819C1.538,0.5,0.5,1.538,0.5,2.819
		v30.362c0,1.281,1.038,2.319,2.319,2.319h30.362c1.281,0,2.319-1.038,2.319-2.319V2.819C35.5,1.538,34.462,0.5,33.181,0.5
		L33.181,0.5z"/>
</g>
<g>
	<linearGradient id="SVGID_1_" gradientUnits="userSpaceOnUse" x1="17.9995" y1="33.5004" x2="17.9995" y2="2.4994">
		<stop  offset="0" style="stop-color:#FF7F01"/>
		<stop  offset="1" style="stop-color:#F05800"/>
	</linearGradient>
	<path fill="url(#SVGID_1_)" d="M2.819,33.5c-0.176,0-0.32-0.144-0.32-0.32V2.819c0-0.176,0.144-0.32,0.32-0.32h30.363
		c0.176,0,0.319,0.144,0.319,0.32v30.361c0,0.176-0.143,0.32-0.319,0.32H2.819z"/>
</g>
<g>
	<g>
		<g>
			<polygon fill="#F5F5F5" points="7.339,7.975 10.087,5.704 10.087,10.246 			"/>
			<path fill="#F5F5F5" d="M17.544,13.506c-1.399-1.652-2.295-2.796-2.739-3.493c-0.601-0.946-1.066-1.117-1.223-1.127L9.419,8.91
				V6.981h3.872c0.526-0.077,1.849-0.032,3.142,1.997c0.269,0.422,0.935,1.336,2.583,3.283L17.544,13.506z"/>
		</g>
		<g>
			<polygon fill="#F5F5F5" points="28.66,16.919 25.912,19.189 25.912,14.648 			"/>
			<path fill="#F5F5F5" d="M18.455,11.387c1.399,1.652,2.295,2.796,2.739,3.493c0.601,0.946,1.066,1.117,1.223,1.127l4.163-0.024
				v1.929h-3.872c-0.526,0.077-1.849,0.032-3.142-1.997c-0.269-0.422-0.935-1.336-2.583-3.283L18.455,11.387z"/>
		</g>
	</g>
	<g>
		<g>
			<polygon fill="#F5F5F5" points="28.66,7.975 25.912,5.704 25.912,10.246 			"/>
			<path fill="#F5F5F5" d="M18.455,13.506c1.399-1.652,2.295-2.796,2.739-3.493c0.601-0.946,1.066-1.117,1.223-1.127L26.58,8.91
				V6.981h-3.872c-0.526-0.077-1.849-0.032-3.142,1.997c-0.269,0.422-0.935,1.336-2.583,3.283L18.455,13.506z"/>
		</g>
		<g>
			<polygon fill="#F5F5F5" points="7.339,16.919 10.087,19.189 10.087,14.648 			"/>
			<path fill="#F5F5F5" d="M17.544,11.387c-1.399,1.652-2.295,2.796-2.739,3.493c-0.601,0.946-1.066,1.117-1.223,1.127l-4.163-0.024
				v1.929h3.872c0.526,0.077,1.849,0.032,3.142-1.997c0.269-0.422,0.935-1.336,2.583-3.283L17.544,11.387z"/>
		</g>
	</g>
</g>
<g>
	<path fill="#FFFFFF" d="M5.952,32.403v-6.96h4.355v0.821H6.806v2.156h3.03v0.821h-3.03v3.161H5.952z"/>
	<path fill="#FFFFFF" d="M11.096,30.58l0.832-0.075c0.062,0.437,0.205,0.765,0.429,0.985c0.225,0.22,0.495,0.329,0.813,0.329
		c0.381,0,0.705-0.154,0.969-0.464s0.396-0.722,0.396-1.234c0-0.488-0.127-0.873-0.381-1.154s-0.587-0.422-0.997-0.422
		c-0.256,0-0.486,0.062-0.691,0.186c-0.206,0.126-0.367,0.288-0.484,0.487l-0.745-0.104l0.626-3.575h3.21v0.817h-2.576l-0.348,1.87
		c0.388-0.291,0.794-0.436,1.22-0.436c0.564,0,1.04,0.21,1.427,0.631c0.387,0.421,0.581,0.962,0.581,1.623
		c0,0.63-0.17,1.175-0.511,1.633c-0.414,0.564-0.979,0.845-1.696,0.845c-0.587,0-1.067-0.177-1.438-0.532
		C11.361,31.635,11.149,31.165,11.096,30.58z"/>
	<path fill="#FFFFFF" d="M16.112,28.971c0-0.822,0.078-1.485,0.236-1.987c0.157-0.502,0.39-0.889,0.7-1.161
		c0.31-0.272,0.699-0.408,1.169-0.408c0.347,0,0.65,0.075,0.912,0.225c0.261,0.151,0.477,0.367,0.647,0.651
		c0.17,0.284,0.304,0.628,0.4,1.035c0.097,0.406,0.145,0.955,0.145,1.645c0,0.817-0.078,1.475-0.233,1.977
		c-0.156,0.501-0.388,0.889-0.698,1.163c-0.31,0.273-0.701,0.411-1.173,0.411c-0.623,0-1.112-0.24-1.467-0.722
		C16.325,31.22,16.112,30.278,16.112,28.971z M16.927,28.971c0,1.143,0.124,1.903,0.372,2.281c0.248,0.379,0.554,0.567,0.918,0.567
		c0.364,0,0.67-0.19,0.918-0.57c0.249-0.38,0.372-1.139,0.372-2.278c0-1.146-0.124-1.907-0.372-2.283
		c-0.248-0.377-0.557-0.565-0.927-0.565c-0.364,0-0.655,0.166-0.872,0.499C17.063,27.044,16.927,27.828,16.927,28.971z"/>
	<path fill="#FFFFFF" d="M21.128,28.971c0-0.822,0.079-1.485,0.236-1.987c0.158-0.502,0.391-0.889,0.701-1.161
		c0.309-0.272,0.699-0.408,1.169-0.408c0.347,0,0.65,0.075,0.912,0.225c0.261,0.151,0.477,0.367,0.647,0.651
		c0.17,0.284,0.304,0.628,0.4,1.035c0.097,0.406,0.145,0.955,0.145,1.645c0,0.817-0.078,1.475-0.233,1.977
		c-0.156,0.501-0.388,0.889-0.698,1.163c-0.31,0.273-0.701,0.411-1.173,0.411c-0.622,0-1.112-0.24-1.466-0.722
		C21.341,31.22,21.128,30.278,21.128,28.971z M21.944,28.971c0,1.143,0.124,1.903,0.372,2.281c0.248,0.379,0.555,0.567,0.918,0.567
		c0.364,0,0.67-0.19,0.918-0.57s0.372-1.139,0.372-2.278c0-1.146-0.124-1.907-0.372-2.283c-0.248-0.377-0.557-0.565-0.928-0.565
		c-0.364,0-0.654,0.166-0.872,0.499C22.08,27.044,21.944,27.828,21.944,28.971z"/>
	<path fill="#FFFFFF" d="M26.144,28.971c0-0.822,0.079-1.485,0.236-1.987c0.158-0.502,0.391-0.889,0.701-1.161
		c0.309-0.272,0.699-0.408,1.169-0.408c0.347,0,0.65,0.075,0.912,0.225c0.261,0.151,0.477,0.367,0.647,0.651
		c0.17,0.284,0.304,0.628,0.4,1.035c0.097,0.406,0.145,0.955,0.145,1.645c0,0.817-0.078,1.475-0.233,1.977
		c-0.156,0.501-0.388,0.889-0.698,1.163c-0.31,0.273-0.701,0.411-1.173,0.411c-0.622,0-1.112-0.24-1.466-0.722
		C26.357,31.22,26.144,30.278,26.144,28.971z M26.96,28.971c0,1.143,0.124,1.903,0.372,2.281c0.248,0.379,0.555,0.567,0.918,0.567
		s0.67-0.19,0.918-0.57c0.248-0.38,0.372-1.139,0.372-2.278c0-1.146-0.124-1.907-0.372-2.283c-0.248-0.377-0.557-0.565-0.928-0.565
		c-0.364,0-0.654,0.166-0.872,0.499C27.096,27.044,26.96,27.828,26.96,28.971z"/>
</g>
<g>
	<path fill="#FFFFFF" d="M13.578,20.375h0.756v2.186c0,0.347,0.009,0.571,0.028,0.674c0.033,0.166,0.109,0.298,0.231,0.398
		c0.122,0.1,0.288,0.149,0.499,0.149c0.214,0,0.376-0.047,0.485-0.142s0.174-0.21,0.197-0.348c0.022-0.138,0.033-0.366,0.033-0.686
		v-2.232h0.756v2.119c0,0.484-0.021,0.827-0.062,1.027c-0.041,0.199-0.116,0.368-0.226,0.506s-0.256,0.247-0.44,0.329
		s-0.424,0.122-0.72,0.122c-0.357,0-0.628-0.044-0.813-0.133c-0.185-0.089-0.331-0.205-0.438-0.347
		c-0.107-0.143-0.178-0.292-0.212-0.447c-0.049-0.231-0.074-0.573-0.074-1.024V20.375z"/>
	<path fill="#FFFFFF" d="M19.633,21.363l-0.695,0.082c-0.017-0.154-0.061-0.268-0.133-0.341c-0.07-0.073-0.164-0.11-0.277-0.11
		c-0.152,0-0.279,0.073-0.385,0.22c-0.104,0.147-0.17,0.453-0.198,0.917c0.178-0.228,0.401-0.341,0.667-0.341
		c0.3,0,0.557,0.123,0.77,0.368c0.214,0.246,0.321,0.563,0.321,0.953c0,0.412-0.113,0.744-0.338,0.993
		c-0.225,0.25-0.513,0.374-0.865,0.374c-0.378,0-0.689-0.158-0.932-0.475c-0.244-0.316-0.365-0.835-0.365-1.557
		c0-0.739,0.127-1.272,0.38-1.599c0.254-0.327,0.583-0.49,0.988-0.49c0.284,0,0.52,0.086,0.706,0.257
		C19.463,20.787,19.582,21.036,19.633,21.363z M18.006,23.051c0,0.251,0.054,0.445,0.161,0.582s0.229,0.205,0.368,0.205
		c0.133,0,0.243-0.057,0.332-0.168c0.088-0.112,0.132-0.296,0.132-0.551c0-0.263-0.048-0.455-0.143-0.576
		c-0.095-0.122-0.214-0.184-0.357-0.184c-0.138,0-0.255,0.059-0.351,0.175C18.054,22.65,18.006,22.823,18.006,23.051z"/>
	<path fill="#FFFFFF" d="M21.323,20.358c0.362,0,0.646,0.14,0.85,0.418c0.244,0.331,0.365,0.878,0.365,1.644
		c0,0.764-0.122,1.313-0.367,1.646c-0.203,0.275-0.485,0.412-0.848,0.412c-0.364,0-0.658-0.15-0.882-0.452
		c-0.223-0.302-0.334-0.84-0.334-1.614c0-0.76,0.122-1.307,0.367-1.641C20.678,20.496,20.96,20.358,21.323,20.358z M21.323,21
		c-0.087,0-0.165,0.029-0.232,0.089c-0.068,0.06-0.121,0.167-0.158,0.321c-0.05,0.199-0.074,0.536-0.074,1.01
		s0.021,0.799,0.066,0.976c0.044,0.178,0.1,0.295,0.167,0.354c0.067,0.059,0.145,0.088,0.231,0.088s0.164-0.03,0.232-0.09
		c0.067-0.06,0.12-0.166,0.158-0.32c0.049-0.198,0.074-0.534,0.074-1.008s-0.022-0.799-0.066-0.976
		c-0.045-0.177-0.101-0.296-0.168-0.355S21.41,21,21.323,21z"/>
</g>
</svg>
