<?xml version="1.0" encoding="utf-8"?>
<!-- Generator: Adobe Illustrator 18.0.0, SVG Export Plug-In . SVG Version: 6.00 Build 0)  -->
<!DOCTYPE svg PUBLIC "-//W3C//DTD SVG 1.1//EN" "http://www.w3.org/Graphics/SVG/1.1/DTD/svg11.dtd">
<svg version="1.1" id="图层_1" xmlns="http://www.w3.org/2000/svg" xmlns:xlink="http://www.w3.org/1999/xlink" x="0px" y="0px"
	 width="36px" height="36px" viewBox="0 0 36 36" enable-background="new 0 0 36 36" xml:space="preserve">
<g>
	<path fill="#FFFFFF" d="M2.439,35.431c-1.049,0-1.901-0.853-1.901-1.901V2.41c0-1.049,0.853-1.902,1.901-1.902h31.121
		c1.049,0,1.901,0.853,1.901,1.902v31.12c0,1.049-0.853,1.901-1.901,1.901H2.439z"/>
	<path fill="#AFAFAF" d="M33.56,0.983c0.786,0,1.426,0.64,1.426,1.426v31.12c0,0.786-0.64,1.426-1.426,1.426H2.44
		c-0.786,0-1.426-0.64-1.426-1.426V2.409c0-0.786,0.64-1.426,1.426-1.426H33.56 M33.56,0.032H2.44c-1.313,0-2.377,1.064-2.377,2.377
		v31.12c0,1.313,1.064,2.377,2.377,2.377h31.12c1.313,0,2.377-1.064,2.377-2.377V2.409C35.937,1.097,34.873,0.032,33.56,0.032
		L33.56,0.032z"/>
</g>
<g>
	<linearGradient id="SVGID_1_" gradientUnits="userSpaceOnUse" x1="17.9995" y1="33.8571" x2="17.9995" y2="2.0818">
		<stop  offset="0" style="stop-color:#FF1F30"/>
		<stop  offset="1" style="stop-color:#C3020F"/>
	</linearGradient>
	<path fill="url(#SVGID_1_)" d="M2.44,33.857c-0.18,0-0.328-0.148-0.328-0.328V2.41c0-0.18,0.148-0.328,0.328-0.328h31.121
		c0.18,0,0.327,0.148,0.327,0.328v31.12c0,0.18-0.146,0.328-0.327,0.328H2.44z"/>
</g>
<g>
	<g>
		<g>
			<polygon fill="#F5F5F5" points="7.073,7.694 9.89,5.367 9.89,10.022 			"/>
			<path fill="#F5F5F5" d="M17.533,13.364c-1.434-1.693-2.353-2.866-2.808-3.58c-0.616-0.969-1.092-1.145-1.254-1.156L9.205,8.653
				V6.675h3.969c0.539-0.079,1.895-0.033,3.22,2.046c0.276,0.433,0.958,1.369,2.648,3.365L17.533,13.364z"/>
		</g>
		<g>
			<polygon fill="#F5F5F5" points="28.926,16.861 26.109,19.189 26.109,14.534 			"/>
			<path fill="#F5F5F5" d="M18.466,11.191c1.434,1.693,2.353,2.866,2.808,3.58c0.616,0.969,1.092,1.145,1.254,1.156l4.267-0.025
				v1.978h-3.969c-0.539,0.079-1.895,0.033-3.22-2.046c-0.276-0.433-0.958-1.369-2.648-3.365L18.466,11.191z"/>
		</g>
	</g>
	<g>
		<g>
			<polygon fill="#F5F5F5" points="28.926,7.694 26.109,5.367 26.109,10.022 			"/>
			<path fill="#F5F5F5" d="M18.466,13.364c1.434-1.693,2.353-2.866,2.808-3.58c0.616-0.969,1.092-1.145,1.254-1.156l4.267,0.025
				V6.675h-3.969c-0.539-0.079-1.895-0.033-3.22,2.046c-0.276,0.433-0.958,1.369-2.648,3.365L18.466,13.364z"/>
		</g>
		<g>
			<polygon fill="#F5F5F5" points="7.073,16.861 9.89,19.189 9.89,14.534 			"/>
			<path fill="#F5F5F5" d="M17.533,11.191c-1.434,1.693-2.353,2.866-2.808,3.58c-0.616,0.969-1.092,1.145-1.254,1.156l-4.267-0.025
				v1.978h3.969c0.539,0.079,1.895,0.033,3.22-2.046c0.276-0.433,0.958-1.369,2.648-3.365L17.533,11.191z"/>
		</g>
	</g>
</g>
<g>
	<path fill="#FFFFFF" d="M5.651,32.732V25.6h4.464v0.842H6.526v2.209h3.105v0.842H6.526v3.24H5.651z"/>
	<path fill="#FFFFFF" d="M10.924,30.864l0.854-0.078c0.063,0.447,0.209,0.784,0.439,1.01s0.508,0.338,0.833,0.338
		c0.392,0,0.723-0.159,0.993-0.477c0.271-0.318,0.406-0.739,0.406-1.266c0-0.499-0.13-0.894-0.391-1.182
		c-0.26-0.289-0.601-0.434-1.022-0.434c-0.262,0-0.498,0.064-0.709,0.192c-0.21,0.128-0.376,0.294-0.496,0.499l-0.763-0.107
		l0.641-3.664H15v0.837h-2.641l-0.356,1.917c0.396-0.298,0.813-0.447,1.25-0.447c0.578,0,1.065,0.216,1.463,0.647
		c0.396,0.431,0.596,0.985,0.596,1.664c0,0.646-0.175,1.203-0.523,1.674c-0.425,0.577-1.004,0.866-1.738,0.866
		c-0.602,0-1.093-0.182-1.474-0.545S10.978,31.464,10.924,30.864z"/>
	<path fill="#FFFFFF" d="M16.065,29.215c0-0.844,0.08-1.522,0.241-2.037c0.161-0.514,0.4-0.91,0.718-1.189
		c0.317-0.278,0.717-0.418,1.198-0.418c0.355,0,0.667,0.077,0.935,0.23c0.268,0.154,0.489,0.377,0.664,0.667
		c0.174,0.29,0.312,0.644,0.41,1.061c0.1,0.417,0.149,0.979,0.149,1.687c0,0.837-0.08,1.512-0.239,2.026
		c-0.16,0.514-0.398,0.911-0.716,1.192c-0.317,0.28-0.719,0.421-1.203,0.421c-0.638,0-1.139-0.247-1.503-0.74
		C16.283,31.521,16.065,30.555,16.065,29.215z M16.9,29.215c0,1.171,0.127,1.95,0.382,2.338c0.254,0.388,0.567,0.581,0.94,0.581
		s0.688-0.194,0.941-0.584c0.255-0.389,0.382-1.168,0.382-2.335c0-1.175-0.127-1.955-0.382-2.341
		c-0.254-0.386-0.571-0.579-0.95-0.579c-0.373,0-0.671,0.171-0.894,0.511C17.04,27.24,16.9,28.044,16.9,29.215z"/>
	<path fill="#FFFFFF" d="M21.207,29.215c0-0.844,0.08-1.522,0.241-2.037c0.161-0.514,0.4-0.91,0.718-1.189
		c0.317-0.278,0.717-0.418,1.198-0.418c0.355,0,0.667,0.077,0.935,0.23c0.268,0.154,0.489,0.377,0.664,0.667
		c0.174,0.29,0.312,0.644,0.41,1.061c0.1,0.417,0.149,0.979,0.149,1.687c0,0.837-0.08,1.512-0.239,2.026
		c-0.16,0.514-0.398,0.911-0.716,1.192c-0.317,0.28-0.719,0.421-1.203,0.421c-0.638,0-1.139-0.247-1.503-0.74
		C21.425,31.521,21.207,30.555,21.207,29.215z M22.042,29.215c0,1.171,0.127,1.95,0.382,2.338c0.254,0.388,0.567,0.581,0.94,0.581
		s0.688-0.194,0.941-0.584c0.255-0.389,0.382-1.168,0.382-2.335c0-1.175-0.127-1.955-0.382-2.341
		c-0.254-0.386-0.571-0.579-0.95-0.579c-0.373,0-0.671,0.171-0.894,0.511C22.182,27.24,22.042,28.044,22.042,29.215z"/>
	<path fill="#FFFFFF" d="M26.349,29.215c0-0.844,0.08-1.522,0.241-2.037c0.161-0.514,0.4-0.91,0.718-1.189
		c0.317-0.278,0.717-0.418,1.198-0.418c0.355,0,0.667,0.077,0.935,0.23c0.268,0.154,0.489,0.377,0.664,0.667
		c0.174,0.29,0.312,0.644,0.41,1.061c0.1,0.417,0.149,0.979,0.149,1.687c0,0.837-0.08,1.512-0.239,2.026
		c-0.16,0.514-0.398,0.911-0.716,1.192c-0.317,0.28-0.719,0.421-1.203,0.421c-0.638,0-1.139-0.247-1.503-0.74
		C26.566,31.521,26.349,30.555,26.349,29.215z M27.184,29.215c0,1.171,0.127,1.95,0.382,2.338c0.254,0.388,0.567,0.581,0.94,0.581
		s0.688-0.194,0.941-0.584c0.255-0.389,0.382-1.168,0.382-2.335c0-1.175-0.127-1.955-0.382-2.341
		c-0.254-0.386-0.571-0.579-0.95-0.579c-0.373,0-0.671,0.171-0.894,0.511C27.323,27.24,27.184,28.044,27.184,29.215z"/>
</g>
<g>
	<path fill="#FFFFFF" d="M13.606,22.717l0.525,0.144c-0.11,0.465-0.309,0.819-0.595,1.064c-0.286,0.244-0.636,0.366-1.049,0.366
		c-0.428,0-0.776-0.094-1.044-0.282c-0.269-0.188-0.473-0.46-0.612-0.815c-0.14-0.356-0.21-0.739-0.21-1.147
		c0-0.446,0.079-0.835,0.237-1.167c0.157-0.331,0.383-0.583,0.674-0.756c0.292-0.172,0.612-0.258,0.963-0.258
		c0.397,0,0.731,0.108,1.002,0.326c0.271,0.219,0.46,0.525,0.566,0.92l-0.518,0.132c-0.092-0.312-0.226-0.538-0.4-0.681
		c-0.176-0.142-0.396-0.213-0.661-0.213c-0.305,0-0.561,0.079-0.765,0.236c-0.205,0.157-0.35,0.369-0.433,0.635
		s-0.124,0.54-0.124,0.822c0,0.364,0.049,0.682,0.147,0.953c0.098,0.271,0.251,0.475,0.459,0.608
		c0.207,0.135,0.433,0.201,0.674,0.201c0.295,0,0.544-0.091,0.748-0.274C13.396,23.349,13.534,23.077,13.606,22.717z"/>
	<path fill="#FFFFFF" d="M14.62,22.133c0-0.71,0.177-1.266,0.53-1.668c0.354-0.402,0.811-0.603,1.37-0.603
		c0.367,0,0.697,0.094,0.992,0.283c0.294,0.188,0.519,0.452,0.673,0.789c0.154,0.338,0.231,0.721,0.231,1.149
		c0,0.434-0.081,0.822-0.244,1.164c-0.162,0.343-0.393,0.603-0.69,0.778c-0.298,0.177-0.619,0.265-0.964,0.265
		c-0.374,0-0.708-0.098-1.002-0.292c-0.295-0.194-0.518-0.461-0.669-0.797C14.695,22.865,14.62,22.509,14.62,22.133z M15.161,22.142
		c0,0.517,0.129,0.923,0.386,1.22c0.258,0.297,0.58,0.444,0.969,0.444c0.396,0,0.721-0.149,0.977-0.449
		c0.255-0.3,0.383-0.725,0.383-1.275c0-0.349-0.055-0.652-0.164-0.913c-0.108-0.26-0.269-0.461-0.479-0.604
		c-0.211-0.144-0.447-0.215-0.709-0.215c-0.372,0-0.691,0.138-0.96,0.413C15.296,21.038,15.161,21.498,15.161,22.142z"/>
	<path fill="#FFFFFF" d="M20.104,24.218v-3.774h-1.309v-0.506h3.147v0.506H20.63v3.774H20.104z"/>
	<path fill="#FFFFFF" d="M22.482,24.218v-4.28h1.498c0.264,0,0.465,0.014,0.604,0.041c0.195,0.035,0.358,0.102,0.49,0.2
		s0.238,0.236,0.318,0.413s0.121,0.372,0.121,0.584c0,0.364-0.107,0.672-0.322,0.924s-0.604,0.378-1.165,0.378h-1.019v1.74H22.482z
		 M23.008,21.973h1.026c0.34,0,0.581-0.068,0.724-0.204c0.143-0.137,0.214-0.328,0.214-0.575c0-0.179-0.042-0.332-0.126-0.46
		c-0.084-0.127-0.194-0.212-0.332-0.253c-0.088-0.024-0.252-0.037-0.49-0.037h-1.016V21.973z"/>
</g>
</svg>
