<?xml version="1.0" encoding="utf-8"?>
<!-- Generator: Adobe Illustrator 18.0.0, SVG Export Plug-In . SVG Version: 6.00 Build 0)  -->
<!DOCTYPE svg PUBLIC "-//W3C//DTD SVG 1.1//EN" "http://www.w3.org/Graphics/SVG/1.1/DTD/svg11.dtd">
<svg version="1.1" id="图层_1" xmlns="http://www.w3.org/2000/svg" xmlns:xlink="http://www.w3.org/1999/xlink" x="0px" y="0px"
	 width="32px" height="33px" viewBox="0 0 32 33" enable-background="new 0 0 32 33" xml:space="preserve">
<g>
	<path fill="#FFFFFF" d="M2.145,32.021c-0.934,0-1.693-0.761-1.693-1.694V2.616c0-0.934,0.759-1.693,1.693-1.693h27.711
		c0.934,0,1.693,0.76,1.693,1.693v27.711c0,0.934-0.759,1.694-1.693,1.694H2.145z"/>
	<path fill="#AFAFAF" d="M29.855,1.347c0.7,0,1.27,0.57,1.27,1.27v27.711c0,0.7-0.57,1.27-1.27,1.27H2.145
		c-0.7,0-1.27-0.57-1.27-1.27V2.617c0-0.7,0.57-1.27,1.27-1.27H29.855 M29.855,0.5H2.145c-1.169,0-2.117,0.948-2.117,2.117v27.711
		c0,1.169,0.948,2.117,2.117,2.117h27.711c1.169,0,2.117-0.948,2.117-2.117V2.617C31.972,1.448,31.024,0.5,29.855,0.5L29.855,0.5z"
		/>
</g>
<g>
	<linearGradient id="SVGID_1_" gradientUnits="userSpaceOnUse" x1="15.9995" y1="30.6189" x2="15.9995" y2="2.3249">
		<stop  offset="0" style="stop-color:#76797A"/>
		<stop  offset="1" style="stop-color:#5F6263"/>
	</linearGradient>
	<path fill="url(#SVGID_1_)" d="M2.144,30.619c-0.16,0-0.292-0.131-0.292-0.292V2.617c0-0.16,0.131-0.292,0.292-0.292h27.711
		c0.16,0,0.291,0.131,0.291,0.292v27.71c0,0.16-0.13,0.292-0.291,0.292H2.144z"/>
</g>
<g>
	<g>
		<g>
			<polygon fill="#F5F5F5" points="6.27,7.322 8.778,5.25 8.778,9.395 			"/>
			<path fill="#F5F5F5" d="M15.584,12.371c-1.277-1.508-2.095-2.552-2.5-3.188c-0.549-0.863-0.973-1.019-1.116-1.029L8.168,8.176
				V6.415h3.534c0.48-0.07,1.687-0.029,2.867,1.822c0.246,0.386,0.853,1.219,2.358,2.996L15.584,12.371z"/>
		</g>
		<g>
			<polygon fill="#F5F5F5" points="25.729,15.485 23.221,17.558 23.221,13.413 			"/>
			<path fill="#F5F5F5" d="M16.415,10.437c1.277,1.508,2.095,2.552,2.5,3.188c0.549,0.863,0.973,1.019,1.116,1.029l3.799-0.022
				v1.761h-3.534c-0.48,0.07-1.687,0.029-2.867-1.822c-0.246-0.386-0.853-1.219-2.358-2.996L16.415,10.437z"/>
		</g>
	</g>
	<g>
		<g>
			<polygon fill="#F5F5F5" points="25.729,7.322 23.221,5.25 23.221,9.395 			"/>
			<path fill="#F5F5F5" d="M16.415,12.371c1.277-1.508,2.095-2.552,2.5-3.188c0.549-0.863,0.973-1.019,1.116-1.029l3.799,0.022
				V6.415h-3.534c-0.48-0.07-1.687-0.029-2.867,1.822c-0.246,0.386-0.853,1.219-2.358,2.996L16.415,12.371z"/>
		</g>
		<g>
			<polygon fill="#F5F5F5" points="6.27,15.485 8.778,17.558 8.778,13.413 			"/>
			<path fill="#F5F5F5" d="M15.584,10.437c-1.277,1.508-2.095,2.552-2.5,3.188c-0.549,0.863-0.973,1.019-1.116,1.029l-3.799-0.022
				v1.761h3.534c0.48,0.07,1.687,0.029,2.867-1.822c0.246-0.386,0.853-1.219,2.358-2.996L15.584,10.437z"/>
		</g>
	</g>
</g>
<g>
	<path fill="#FFFFFF" d="M5.003,29.619v-6.352h3.975v0.749H5.783v1.968h2.765v0.749H5.783v2.886H5.003z"/>
	<path fill="#FFFFFF" d="M9.698,27.955l0.76-0.069c0.056,0.399,0.187,0.698,0.392,0.899s0.452,0.301,0.742,0.301
		c0.348,0,0.643-0.142,0.884-0.424c0.241-0.283,0.362-0.659,0.362-1.127c0-0.444-0.116-0.796-0.348-1.053
		c-0.232-0.257-0.536-0.386-0.911-0.386c-0.233,0-0.443,0.057-0.631,0.171s-0.335,0.263-0.442,0.444l-0.679-0.096l0.571-3.262h2.93
		V24.1h-2.352l-0.317,1.707c0.354-0.266,0.725-0.398,1.113-0.398c0.515,0,0.949,0.191,1.302,0.576
		c0.354,0.384,0.531,0.878,0.531,1.481c0,0.575-0.155,1.071-0.466,1.49c-0.378,0.515-0.894,0.771-1.547,0.771
		c-0.536,0-0.974-0.162-1.313-0.485S9.746,28.49,9.698,27.955z"/>
	<path fill="#FFFFFF" d="M14.276,26.486c0-0.751,0.071-1.355,0.215-1.813c0.144-0.458,0.356-0.812,0.639-1.06
		c0.283-0.249,0.638-0.373,1.067-0.373c0.316,0,0.593,0.069,0.832,0.206c0.238,0.138,0.435,0.335,0.591,0.594
		c0.155,0.259,0.277,0.573,0.366,0.944s0.132,0.872,0.132,1.501c0,0.745-0.071,1.347-0.213,1.805s-0.354,0.812-0.637,1.062
		s-0.64,0.375-1.071,0.375c-0.568,0-1.015-0.22-1.339-0.658C14.471,28.54,14.276,27.68,14.276,26.486z M15.02,26.486
		c0,1.043,0.113,1.737,0.339,2.082c0.227,0.346,0.506,0.518,0.838,0.518c0.332,0,0.611-0.173,0.838-0.52s0.339-1.04,0.339-2.08
		c0-1.045-0.113-1.74-0.339-2.084s-0.508-0.516-0.846-0.516c-0.332,0-0.598,0.152-0.796,0.455
		C15.145,24.729,15.02,25.444,15.02,26.486z"/>
	<path fill="#FFFFFF" d="M18.854,26.486c0-0.751,0.071-1.355,0.215-1.813c0.144-0.458,0.356-0.812,0.639-1.06
		c0.283-0.249,0.638-0.373,1.067-0.373c0.316,0,0.593,0.069,0.832,0.206c0.238,0.138,0.435,0.335,0.591,0.594
		c0.155,0.259,0.277,0.573,0.366,0.944s0.132,0.872,0.132,1.501c0,0.745-0.071,1.347-0.213,1.805s-0.354,0.812-0.637,1.062
		s-0.64,0.375-1.071,0.375c-0.568,0-1.015-0.22-1.339-0.658C19.049,28.54,18.854,27.68,18.854,26.486z M19.598,26.486
		c0,1.043,0.113,1.737,0.339,2.082c0.227,0.346,0.506,0.518,0.838,0.518c0.332,0,0.611-0.173,0.838-0.52s0.339-1.04,0.339-2.08
		c0-1.045-0.113-1.74-0.339-2.084s-0.508-0.516-0.846-0.516c-0.332,0-0.598,0.152-0.796,0.455
		C19.723,24.729,19.598,25.444,19.598,26.486z"/>
	<path fill="#FFFFFF" d="M23.433,26.486c0-0.751,0.071-1.355,0.215-1.813c0.144-0.458,0.356-0.812,0.639-1.06
		c0.283-0.249,0.638-0.373,1.067-0.373c0.316,0,0.593,0.069,0.832,0.206c0.238,0.138,0.435,0.335,0.591,0.594
		c0.155,0.259,0.277,0.573,0.366,0.944s0.132,0.872,0.132,1.501c0,0.745-0.071,1.347-0.213,1.805s-0.354,0.812-0.637,1.062
		s-0.64,0.375-1.071,0.375c-0.568,0-1.015-0.22-1.339-0.658C23.627,28.54,23.433,27.68,23.433,26.486z M24.176,26.486
		c0,1.043,0.113,1.737,0.339,2.082c0.227,0.346,0.506,0.518,0.838,0.518c0.332,0,0.611-0.173,0.838-0.52s0.339-1.04,0.339-2.08
		c0-1.045-0.113-1.74-0.339-2.084s-0.508-0.516-0.846-0.516c-0.332,0-0.598,0.152-0.796,0.455
		C24.301,24.729,24.176,25.444,24.176,26.486z"/>
</g>
<g>
	<path fill="#FFFFFF" d="M12.088,20.7l0.468,0.127c-0.098,0.414-0.274,0.73-0.529,0.947c-0.255,0.218-0.566,0.327-0.935,0.327
		c-0.381,0-0.691-0.084-0.93-0.251c-0.239-0.168-0.42-0.41-0.545-0.727c-0.125-0.317-0.187-0.658-0.187-1.022
		c0-0.396,0.07-0.742,0.211-1.038s0.341-0.52,0.601-0.673s0.545-0.23,0.857-0.23c0.354,0,0.651,0.097,0.892,0.291
		s0.409,0.467,0.504,0.819l-0.46,0.116c-0.082-0.276-0.201-0.479-0.357-0.605c-0.156-0.126-0.352-0.189-0.588-0.189
		c-0.272,0-0.499,0.07-0.681,0.21c-0.183,0.141-0.311,0.329-0.385,0.565C9.95,19.604,9.913,19.849,9.913,20.1
		c0,0.324,0.043,0.606,0.131,0.849c0.087,0.242,0.224,0.423,0.409,0.542s0.385,0.18,0.601,0.18c0.262,0,0.484-0.082,0.666-0.245
		C11.901,21.263,12.024,21.021,12.088,20.7z"/>
	<path fill="#FFFFFF" d="M12.99,20.18c0-0.632,0.158-1.127,0.473-1.485c0.315-0.357,0.722-0.537,1.22-0.537
		c0.327,0,0.621,0.084,0.883,0.253c0.262,0.168,0.462,0.402,0.599,0.703c0.138,0.301,0.207,0.642,0.207,1.022
		c0,0.387-0.073,0.732-0.217,1.037c-0.145,0.306-0.35,0.536-0.615,0.693c-0.266,0.156-0.552,0.235-0.859,0.235
		c-0.333,0-0.63-0.087-0.892-0.261c-0.262-0.173-0.461-0.409-0.596-0.709C13.058,20.832,12.99,20.515,12.99,20.18z M13.473,20.188
		c0,0.46,0.114,0.821,0.344,1.086c0.229,0.264,0.516,0.396,0.862,0.396c0.352,0,0.642-0.134,0.87-0.4
		c0.228-0.268,0.341-0.646,0.341-1.137c0-0.31-0.049-0.581-0.146-0.812c-0.097-0.231-0.24-0.411-0.427-0.538
		c-0.188-0.128-0.397-0.191-0.631-0.191c-0.331,0-0.616,0.122-0.855,0.368C13.592,19.205,13.473,19.614,13.473,20.188z"/>
	<path fill="#FFFFFF" d="M17.874,22.036v-3.361h-1.165v-0.449h2.802v0.449h-1.169v3.361H17.874z"/>
	<path fill="#FFFFFF" d="M19.991,22.036v-3.811h1.334c0.234,0,0.414,0.012,0.538,0.036c0.174,0.031,0.319,0.091,0.437,0.178
		c0.117,0.088,0.212,0.21,0.283,0.368c0.072,0.157,0.107,0.331,0.107,0.52c0,0.324-0.096,0.599-0.287,0.823
		c-0.191,0.225-0.537,0.336-1.037,0.336h-0.907v1.55H19.991z M20.459,20.037h0.914c0.302,0,0.517-0.061,0.644-0.182
		c0.127-0.122,0.19-0.292,0.19-0.513c0-0.159-0.037-0.296-0.112-0.409s-0.173-0.188-0.295-0.225
		c-0.079-0.022-0.225-0.034-0.437-0.034h-0.904V20.037z"/>
</g>
</svg>
