<?xml version="1.0" encoding="utf-8"?>
<!-- Generator: Adobe Illustrator 18.0.0, SVG Export Plug-In . SVG Version: 6.00 Build 0)  -->
<!DOCTYPE svg PUBLIC "-//W3C//DTD SVG 1.1//EN" "http://www.w3.org/Graphics/SVG/1.1/DTD/svg11.dtd">
<svg version="1.1" id="图层_1" xmlns="http://www.w3.org/2000/svg" xmlns:xlink="http://www.w3.org/1999/xlink" x="0px" y="0px"
	 width="32px" height="32px" viewBox="0 0 32 32" enable-background="new 0 0 32 32" xml:space="preserve">
<g>
	<path fill="#FFFFFF" d="M2.144,31.522c-0.934,0-1.693-0.76-1.693-1.693V2.117c0-0.934,0.76-1.693,1.693-1.693h27.713
		c0.934,0,1.693,0.76,1.693,1.693v27.712c0,0.934-0.76,1.693-1.693,1.693H2.144z"/>
	<path fill="#AFAFAF" d="M29.856,0.847c0.7,0,1.27,0.57,1.27,1.27v27.712c0,0.7-0.57,1.27-1.27,1.27H2.144
		c-0.7,0-1.27-0.57-1.27-1.27V2.117c0-0.7,0.57-1.27,1.27-1.27H29.856 M29.856,0H2.144C0.975,0,0.027,0.948,0.027,2.117v27.712
		c0,1.169,0.948,2.117,2.117,2.117h27.712c1.169,0,2.117-0.948,2.117-2.117V2.117C31.973,0.948,31.025,0,29.856,0L29.856,0z"/>
</g>
<g>
	<linearGradient id="SVGID_1_" gradientUnits="userSpaceOnUse" x1="15.9995" y1="30.1206" x2="15.9995" y2="1.825">
		<stop  offset="0" style="stop-color:#FF1F30"/>
		<stop  offset="1" style="stop-color:#C3020F"/>
	</linearGradient>
	<path fill="url(#SVGID_1_)" d="M2.144,30.121c-0.16,0-0.292-0.131-0.292-0.292V2.117c0-0.16,0.131-0.292,0.292-0.292h27.713
		c0.16,0,0.291,0.131,0.291,0.292v27.712c0,0.16-0.13,0.292-0.291,0.292H2.144z"/>
</g>
<g>
	<g>
		<g>
			<polygon fill="#F5F5F5" points="6.269,6.823 8.778,4.75 8.778,8.895 			"/>
			<path fill="#F5F5F5" d="M15.584,11.871c-1.277-1.508-2.095-2.552-2.5-3.188c-0.549-0.863-0.973-1.019-1.116-1.029L8.168,7.677
				V5.916h3.534c0.48-0.07,1.687-0.029,2.867,1.822c0.246,0.386,0.853,1.219,2.358,2.996L15.584,11.871z"/>
		</g>
		<g>
			<polygon fill="#F5F5F5" points="25.73,14.986 23.221,17.059 23.221,12.913 			"/>
			<path fill="#F5F5F5" d="M16.415,9.937c1.277,1.508,2.095,2.552,2.5,3.188c0.549,0.863,0.973,1.019,1.116,1.029l3.799-0.022v1.761
				h-3.534c-0.48,0.07-1.687,0.029-2.867-1.822c-0.246-0.386-0.853-1.219-2.358-2.996L16.415,9.937z"/>
		</g>
	</g>
	<g>
		<g>
			<polygon fill="#F5F5F5" points="25.73,6.823 23.221,4.75 23.221,8.895 			"/>
			<path fill="#F5F5F5" d="M16.415,11.871c1.277-1.508,2.095-2.552,2.5-3.188c0.549-0.863,0.973-1.019,1.116-1.029l3.799,0.022
				V5.916h-3.534c-0.48-0.07-1.687-0.029-2.867,1.822c-0.246,0.386-0.853,1.219-2.358,2.996L16.415,11.871z"/>
		</g>
		<g>
			<polygon fill="#F5F5F5" points="6.269,14.986 8.778,17.059 8.778,12.913 			"/>
			<path fill="#F5F5F5" d="M15.584,9.937c-1.277,1.508-2.095,2.552-2.5,3.188c-0.549,0.863-0.973,1.019-1.116,1.029l-3.799-0.022
				v1.761h3.534c0.48,0.07,1.687,0.029,2.867-1.822c0.246-0.386,0.853-1.219,2.358-2.996L15.584,9.937z"/>
		</g>
	</g>
</g>
<g>
	<path fill="#FFFFFF" d="M5.004,29.118v-6.353h3.975v0.75H5.783v1.967h2.766v0.75H5.783v2.886H5.004z"/>
	<path fill="#FFFFFF" d="M9.698,27.454l0.76-0.069c0.056,0.398,0.187,0.698,0.392,0.899s0.452,0.301,0.742,0.301
		c0.348,0,0.643-0.142,0.884-0.425c0.241-0.282,0.362-0.658,0.362-1.126c0-0.445-0.116-0.796-0.348-1.053
		c-0.232-0.258-0.536-0.386-0.911-0.386c-0.233,0-0.443,0.057-0.631,0.171s-0.335,0.262-0.442,0.444l-0.679-0.096l0.57-3.263h2.931
		v0.745h-2.352l-0.317,1.708c0.354-0.267,0.725-0.399,1.113-0.399c0.515,0,0.948,0.192,1.302,0.576
		c0.354,0.385,0.531,0.879,0.531,1.482c0,0.575-0.155,1.071-0.467,1.49c-0.378,0.515-0.894,0.771-1.547,0.771
		c-0.536,0-0.974-0.162-1.313-0.485C9.939,28.418,9.746,27.988,9.698,27.454z"/>
	<path fill="#FFFFFF" d="M14.277,25.985c0-0.751,0.071-1.355,0.215-1.813s0.356-0.811,0.64-1.06
		c0.282-0.248,0.638-0.372,1.066-0.372c0.316,0,0.594,0.068,0.832,0.206c0.239,0.137,0.436,0.335,0.592,0.593
		c0.155,0.259,0.277,0.574,0.365,0.945c0.089,0.371,0.133,0.871,0.133,1.501c0,0.745-0.071,1.347-0.213,1.805
		c-0.143,0.458-0.354,0.812-0.638,1.062c-0.282,0.25-0.64,0.375-1.071,0.375c-0.567,0-1.014-0.22-1.338-0.658
		C14.472,28.039,14.277,27.179,14.277,25.985z M15.021,25.985c0,1.043,0.113,1.737,0.34,2.082c0.227,0.346,0.506,0.518,0.838,0.518
		c0.333,0,0.612-0.173,0.839-0.52c0.226-0.347,0.339-1.04,0.339-2.08c0-1.046-0.113-1.74-0.339-2.084
		c-0.227-0.344-0.509-0.516-0.847-0.516c-0.332,0-0.598,0.151-0.796,0.455C15.146,24.228,15.021,24.942,15.021,25.985z"/>
	<path fill="#FFFFFF" d="M18.855,25.985c0-0.751,0.071-1.355,0.215-1.813s0.356-0.811,0.64-1.06
		c0.282-0.248,0.638-0.372,1.066-0.372c0.316,0,0.594,0.068,0.832,0.206c0.239,0.137,0.436,0.335,0.592,0.593
		c0.155,0.259,0.277,0.574,0.365,0.945c0.089,0.371,0.133,0.871,0.133,1.501c0,0.745-0.071,1.347-0.213,1.805
		c-0.143,0.458-0.354,0.812-0.638,1.062c-0.282,0.25-0.64,0.375-1.071,0.375c-0.567,0-1.014-0.22-1.338-0.658
		C19.05,28.039,18.855,27.179,18.855,25.985z M19.599,25.985c0,1.043,0.113,1.737,0.34,2.082c0.227,0.346,0.506,0.518,0.838,0.518
		c0.333,0,0.612-0.173,0.839-0.52c0.226-0.347,0.339-1.04,0.339-2.08c0-1.046-0.113-1.74-0.339-2.084
		c-0.227-0.344-0.509-0.516-0.847-0.516c-0.332,0-0.598,0.151-0.796,0.455C19.724,24.228,19.599,24.942,19.599,25.985z"/>
	<path fill="#FFFFFF" d="M23.434,25.985c0-0.751,0.071-1.355,0.215-1.813s0.356-0.811,0.64-1.06
		c0.282-0.248,0.638-0.372,1.066-0.372c0.316,0,0.594,0.068,0.832,0.206c0.239,0.137,0.436,0.335,0.592,0.593
		c0.155,0.259,0.277,0.574,0.365,0.945c0.089,0.371,0.133,0.871,0.133,1.501c0,0.745-0.071,1.347-0.213,1.805
		c-0.143,0.458-0.354,0.812-0.638,1.062c-0.282,0.25-0.64,0.375-1.071,0.375c-0.567,0-1.014-0.22-1.338-0.658
		C23.628,28.039,23.434,27.179,23.434,25.985z M24.177,25.985c0,1.043,0.113,1.737,0.34,2.082c0.227,0.346,0.506,0.518,0.838,0.518
		c0.333,0,0.612-0.173,0.839-0.52c0.226-0.347,0.339-1.04,0.339-2.08c0-1.046-0.113-1.74-0.339-2.084
		c-0.227-0.344-0.509-0.516-0.847-0.516c-0.332,0-0.598,0.151-0.796,0.455C24.302,24.228,24.177,24.942,24.177,25.985z"/>
</g>
<g>
	<path fill="#FFFFFF" d="M12.088,20.2l0.468,0.127c-0.099,0.414-0.275,0.73-0.529,0.947c-0.255,0.218-0.566,0.327-0.935,0.327
		c-0.382,0-0.691-0.084-0.931-0.251c-0.238-0.168-0.42-0.41-0.545-0.727c-0.124-0.317-0.187-0.658-0.187-1.022
		c0-0.396,0.07-0.743,0.211-1.038c0.141-0.296,0.341-0.521,0.601-0.674s0.545-0.229,0.857-0.229c0.354,0,0.651,0.097,0.893,0.291
		s0.409,0.467,0.504,0.818l-0.461,0.117c-0.082-0.277-0.201-0.479-0.356-0.605c-0.156-0.127-0.353-0.189-0.589-0.189
		c-0.271,0-0.499,0.07-0.682,0.21c-0.183,0.141-0.311,0.329-0.385,0.565c-0.073,0.237-0.11,0.48-0.11,0.732
		c0,0.324,0.044,0.606,0.131,0.849c0.088,0.241,0.225,0.422,0.409,0.542c0.185,0.119,0.385,0.18,0.601,0.18
		c0.262,0,0.484-0.082,0.666-0.245C11.9,20.763,12.023,20.521,12.088,20.2z"/>
	<path fill="#FFFFFF" d="M12.989,19.68c0-0.633,0.158-1.128,0.474-1.485c0.314-0.358,0.722-0.537,1.22-0.537
		c0.326,0,0.621,0.084,0.883,0.252s0.462,0.403,0.6,0.703c0.138,0.301,0.206,0.643,0.206,1.023c0,0.387-0.072,0.732-0.217,1.037
		c-0.145,0.306-0.35,0.536-0.615,0.693c-0.266,0.156-0.552,0.235-0.858,0.235c-0.333,0-0.631-0.087-0.893-0.261
		c-0.262-0.173-0.461-0.409-0.596-0.709S12.989,20.015,12.989,19.68z M13.472,19.688c0,0.46,0.115,0.821,0.344,1.086
		c0.229,0.264,0.517,0.396,0.862,0.396c0.353,0,0.643-0.134,0.87-0.4c0.228-0.268,0.341-0.646,0.341-1.137
		c0-0.31-0.049-0.581-0.146-0.813c-0.098-0.231-0.24-0.41-0.427-0.538c-0.188-0.127-0.398-0.19-0.631-0.19
		c-0.332,0-0.616,0.122-0.855,0.367C13.592,18.705,13.472,19.114,13.472,19.688z"/>
	<path fill="#FFFFFF" d="M17.873,21.536v-3.361h-1.164v-0.45h2.802v0.45h-1.169v3.361H17.873z"/>
	<path fill="#FFFFFF" d="M19.99,21.536v-3.812h1.334c0.234,0,0.414,0.013,0.538,0.037c0.174,0.031,0.319,0.09,0.437,0.178
		s0.212,0.21,0.283,0.368c0.071,0.157,0.107,0.331,0.107,0.52c0,0.324-0.096,0.599-0.287,0.823
		c-0.191,0.224-0.537,0.336-1.037,0.336h-0.907v1.55H19.99z M20.458,19.537h0.914c0.303,0,0.518-0.061,0.645-0.183
		c0.127-0.121,0.19-0.292,0.19-0.512c0-0.159-0.037-0.296-0.112-0.409s-0.173-0.188-0.296-0.226
		c-0.078-0.022-0.224-0.033-0.437-0.033h-0.904V19.537z"/>
</g>
</svg>
