<?xml version="1.0" encoding="utf-8"?>
<!-- Generator: Adobe Illustrator 18.0.0, SVG Export Plug-In . SVG Version: 6.00 Build 0)  -->
<!DOCTYPE svg PUBLIC "-//W3C//DTD SVG 1.1//EN" "http://www.w3.org/Graphics/SVG/1.1/DTD/svg11.dtd">
<svg version="1.1" id="图层_1" xmlns="http://www.w3.org/2000/svg" xmlns:xlink="http://www.w3.org/1999/xlink" x="0px" y="0px"
	 width="32px" height="32px" viewBox="0 0 32 32" enable-background="new 0 0 32 32" xml:space="preserve">
<g>
	<path fill="#FFFFFF" d="M2.145,31.521c-0.934,0-1.693-0.761-1.693-1.694V2.116c0-0.934,0.759-1.693,1.693-1.693h27.711
		c0.934,0,1.693,0.76,1.693,1.693v27.711c0,0.934-0.759,1.694-1.693,1.694H2.145z"/>
	<path fill="#AFAFAF" d="M29.855,0.847c0.7,0,1.27,0.57,1.27,1.27v27.711c0,0.7-0.57,1.27-1.27,1.27H2.145
		c-0.7,0-1.27-0.57-1.27-1.27V2.117c0-0.7,0.57-1.27,1.27-1.27H29.855 M29.855,0H2.145C0.976,0,0.028,0.948,0.028,2.117v27.711
		c0,1.169,0.948,2.117,2.117,2.117h27.711c1.169,0,2.117-0.948,2.117-2.117V2.117C31.972,0.948,31.024,0,29.855,0L29.855,0z"/>
</g>
<g>
	<linearGradient id="SVGID_1_" gradientUnits="userSpaceOnUse" x1="15.9995" y1="30.1189" x2="15.9995" y2="1.8249">
		<stop  offset="0" style="stop-color:#76797A"/>
		<stop  offset="1" style="stop-color:#5F6263"/>
	</linearGradient>
	<path fill="url(#SVGID_1_)" d="M2.144,30.119c-0.16,0-0.292-0.131-0.292-0.292V2.117c0-0.16,0.131-0.292,0.292-0.292h27.711
		c0.16,0,0.291,0.131,0.291,0.292v27.71c0,0.16-0.13,0.292-0.291,0.292H2.144z"/>
</g>
<g>
	<g>
		<g>
			<polygon fill="#F5F5F5" points="6.27,6.822 8.778,4.75 8.778,8.895 			"/>
			<path fill="#F5F5F5" d="M15.584,11.871c-1.277-1.508-2.095-2.552-2.5-3.188c-0.549-0.863-0.973-1.019-1.116-1.029L8.168,7.676
				V5.915h3.534c0.48-0.07,1.687-0.029,2.867,1.822c0.246,0.386,0.853,1.219,2.358,2.996L15.584,11.871z"/>
		</g>
		<g>
			<polygon fill="#F5F5F5" points="25.729,14.985 23.221,17.058 23.221,12.913 			"/>
			<path fill="#F5F5F5" d="M16.415,9.937c1.277,1.508,2.095,2.552,2.5,3.188c0.549,0.863,0.973,1.019,1.116,1.029l3.799-0.022v1.761
				h-3.534c-0.48,0.07-1.687,0.029-2.867-1.822c-0.246-0.386-0.853-1.219-2.358-2.996L16.415,9.937z"/>
		</g>
	</g>
	<g>
		<g>
			<polygon fill="#F5F5F5" points="25.729,6.822 23.221,4.75 23.221,8.895 			"/>
			<path fill="#F5F5F5" d="M16.415,11.871c1.277-1.508,2.095-2.552,2.5-3.188c0.549-0.863,0.973-1.019,1.116-1.029l3.799,0.022
				V5.915h-3.534c-0.48-0.07-1.687-0.029-2.867,1.822c-0.246,0.386-0.853,1.219-2.358,2.996L16.415,11.871z"/>
		</g>
		<g>
			<polygon fill="#F5F5F5" points="6.27,14.985 8.778,17.058 8.778,12.913 			"/>
			<path fill="#F5F5F5" d="M15.584,9.937c-1.277,1.508-2.095,2.552-2.5,3.188c-0.549,0.863-0.973,1.019-1.116,1.029l-3.799-0.022
				v1.761h3.534c0.48,0.07,1.687,0.029,2.867-1.822c0.246-0.386,0.853-1.219,2.358-2.996L15.584,9.937z"/>
		</g>
	</g>
</g>
<g>
	<path fill="#FFFFFF" d="M5.003,29.119v-6.352h3.975v0.749H5.783v1.968h2.765v0.749H5.783v2.886H5.003z"/>
	<path fill="#FFFFFF" d="M9.698,27.455l0.76-0.069c0.056,0.399,0.187,0.698,0.392,0.899s0.452,0.301,0.742,0.301
		c0.348,0,0.643-0.142,0.884-0.424c0.241-0.283,0.362-0.659,0.362-1.127c0-0.444-0.116-0.796-0.348-1.053
		c-0.232-0.257-0.536-0.386-0.911-0.386c-0.233,0-0.443,0.057-0.631,0.171s-0.335,0.263-0.442,0.444l-0.679-0.096l0.571-3.262h2.93
		V23.6h-2.352l-0.317,1.707c0.354-0.266,0.725-0.398,1.113-0.398c0.515,0,0.949,0.191,1.302,0.576
		c0.354,0.384,0.531,0.878,0.531,1.481c0,0.575-0.155,1.071-0.466,1.49c-0.378,0.515-0.894,0.771-1.547,0.771
		c-0.536,0-0.974-0.162-1.313-0.485S9.746,27.99,9.698,27.455z"/>
	<path fill="#FFFFFF" d="M14.276,25.986c0-0.751,0.071-1.355,0.215-1.813c0.144-0.458,0.356-0.812,0.639-1.06
		c0.283-0.249,0.638-0.373,1.067-0.373c0.316,0,0.593,0.069,0.832,0.206c0.238,0.138,0.435,0.335,0.591,0.594
		c0.155,0.259,0.277,0.573,0.366,0.944s0.132,0.872,0.132,1.501c0,0.745-0.071,1.347-0.213,1.805s-0.354,0.812-0.637,1.062
		s-0.64,0.375-1.071,0.375c-0.568,0-1.015-0.22-1.339-0.658C14.471,28.04,14.276,27.18,14.276,25.986z M15.02,25.986
		c0,1.043,0.113,1.737,0.339,2.082c0.227,0.346,0.506,0.518,0.838,0.518c0.332,0,0.611-0.173,0.838-0.52s0.339-1.04,0.339-2.08
		c0-1.045-0.113-1.74-0.339-2.084s-0.508-0.516-0.846-0.516c-0.332,0-0.598,0.152-0.796,0.455
		C15.145,24.229,15.02,24.944,15.02,25.986z"/>
	<path fill="#FFFFFF" d="M18.854,25.986c0-0.751,0.071-1.355,0.215-1.813c0.144-0.458,0.356-0.812,0.639-1.06
		c0.283-0.249,0.638-0.373,1.067-0.373c0.316,0,0.593,0.069,0.832,0.206c0.238,0.138,0.435,0.335,0.591,0.594
		c0.155,0.259,0.277,0.573,0.366,0.944s0.132,0.872,0.132,1.501c0,0.745-0.071,1.347-0.213,1.805s-0.354,0.812-0.637,1.062
		s-0.64,0.375-1.071,0.375c-0.568,0-1.015-0.22-1.339-0.658C19.049,28.04,18.854,27.18,18.854,25.986z M19.598,25.986
		c0,1.043,0.113,1.737,0.339,2.082c0.227,0.346,0.506,0.518,0.838,0.518c0.332,0,0.611-0.173,0.838-0.52s0.339-1.04,0.339-2.08
		c0-1.045-0.113-1.74-0.339-2.084s-0.508-0.516-0.846-0.516c-0.332,0-0.598,0.152-0.796,0.455
		C19.723,24.229,19.598,24.944,19.598,25.986z"/>
	<path fill="#FFFFFF" d="M23.433,25.986c0-0.751,0.071-1.355,0.215-1.813c0.144-0.458,0.356-0.812,0.639-1.06
		c0.283-0.249,0.638-0.373,1.067-0.373c0.316,0,0.593,0.069,0.832,0.206c0.238,0.138,0.435,0.335,0.591,0.594
		c0.155,0.259,0.277,0.573,0.366,0.944s0.132,0.872,0.132,1.501c0,0.745-0.071,1.347-0.213,1.805s-0.354,0.812-0.637,1.062
		s-0.64,0.375-1.071,0.375c-0.568,0-1.015-0.22-1.339-0.658C23.627,28.04,23.433,27.18,23.433,25.986z M24.176,25.986
		c0,1.043,0.113,1.737,0.339,2.082c0.227,0.346,0.506,0.518,0.838,0.518c0.332,0,0.611-0.173,0.838-0.52s0.339-1.04,0.339-2.08
		c0-1.045-0.113-1.74-0.339-2.084s-0.508-0.516-0.846-0.516c-0.332,0-0.598,0.152-0.796,0.455
		C24.301,24.229,24.176,24.944,24.176,25.986z"/>
</g>
<g>
	<path fill="#FFFFFF" d="M11.543,17.47h0.762v2.202c0,0.35,0.009,0.576,0.028,0.68c0.032,0.167,0.11,0.3,0.233,0.401
		c0.123,0.101,0.29,0.15,0.503,0.15c0.216,0,0.379-0.047,0.489-0.143c0.11-0.095,0.176-0.212,0.198-0.351s0.034-0.369,0.034-0.69
		v-2.25h0.762v2.136c0,0.488-0.021,0.833-0.062,1.035c-0.041,0.201-0.117,0.371-0.228,0.51c-0.111,0.139-0.259,0.249-0.444,0.332
		c-0.186,0.082-0.427,0.123-0.726,0.123c-0.36,0-0.633-0.045-0.819-0.135s-0.333-0.206-0.441-0.35
		c-0.108-0.143-0.179-0.293-0.213-0.45c-0.05-0.233-0.075-0.577-0.075-1.032V17.47z"/>
	<path fill="#FFFFFF" d="M15.169,20.457l0.7-0.092c0.022,0.192,0.083,0.34,0.18,0.441s0.216,0.152,0.355,0.152
		c0.149,0,0.275-0.061,0.377-0.183s0.153-0.287,0.153-0.494c0-0.196-0.049-0.352-0.146-0.466s-0.217-0.172-0.358-0.172
		c-0.093,0-0.203,0.02-0.332,0.058l0.08-0.635c0.195,0.006,0.345-0.04,0.448-0.138c0.103-0.097,0.154-0.226,0.154-0.387
		c0-0.137-0.038-0.246-0.113-0.327s-0.176-0.122-0.301-0.122c-0.124,0-0.229,0.046-0.316,0.139s-0.141,0.228-0.16,0.405
		l-0.667-0.122c0.046-0.246,0.116-0.442,0.21-0.59c0.093-0.146,0.224-0.263,0.391-0.347c0.167-0.084,0.354-0.126,0.563-0.126
		c0.355,0,0.64,0.122,0.854,0.366c0.177,0.199,0.265,0.425,0.265,0.677c0,0.356-0.181,0.642-0.543,0.854
		c0.216,0.05,0.389,0.161,0.519,0.335s0.194,0.384,0.194,0.63c0,0.357-0.121,0.661-0.363,0.913
		c-0.242,0.251-0.543,0.377-0.903,0.377c-0.341,0-0.625-0.105-0.849-0.317S15.206,20.799,15.169,20.457z"/>
	<path fill="#FFFFFF" d="M19.348,17.453c0.365,0,0.651,0.141,0.857,0.422c0.245,0.332,0.368,0.885,0.368,1.655
		c0,0.77-0.124,1.322-0.371,1.659c-0.205,0.277-0.489,0.416-0.854,0.416c-0.367,0-0.663-0.152-0.888-0.456
		c-0.225-0.305-0.337-0.847-0.337-1.627c0-0.766,0.124-1.316,0.371-1.653C18.698,17.592,18.982,17.453,19.348,17.453z M19.348,18.1
		c-0.087,0-0.166,0.029-0.234,0.09c-0.068,0.061-0.122,0.168-0.159,0.323c-0.05,0.201-0.075,0.541-0.075,1.018
		c0,0.478,0.022,0.806,0.067,0.983c0.044,0.179,0.101,0.298,0.168,0.356c0.068,0.06,0.146,0.089,0.233,0.089s0.166-0.03,0.234-0.09
		c0.069-0.061,0.122-0.168,0.16-0.323c0.05-0.2,0.075-0.538,0.075-1.016c0-0.477-0.022-0.805-0.067-0.983
		c-0.044-0.178-0.101-0.297-0.168-0.357S19.436,18.1,19.348,18.1z"/>
</g>
</svg>
