<?xml version="1.0" encoding="utf-8"?>
<!-- Generator: Adobe Illustrator 18.0.0, SVG Export Plug-In . SVG Version: 6.00 Build 0)  -->
<!DOCTYPE svg PUBLIC "-//W3C//DTD SVG 1.1//EN" "http://www.w3.org/Graphics/SVG/1.1/DTD/svg11.dtd">
<svg version="1.1" id="图层_1" xmlns="http://www.w3.org/2000/svg" xmlns:xlink="http://www.w3.org/1999/xlink" x="0px" y="0px"
	 width="36px" height="36px" viewBox="0 0 36 36" enable-background="new 0 0 36 36" xml:space="preserve">
<g>
	<path fill="#FFFFFF" d="M2.44,35.398c-1.048,0-1.901-0.853-1.901-1.901V2.377c0-1.048,0.853-1.901,1.901-1.901h31.121
		c1.049,0,1.901,0.853,1.901,1.901v31.12c0,1.048-0.853,1.901-1.901,1.901H2.44z"/>
	<path fill="#AFAFAF" d="M33.56,0.951c0.786,0,1.426,0.64,1.426,1.426v31.12c0,0.786-0.64,1.426-1.426,1.426H2.44
		c-0.786,0-1.426-0.64-1.426-1.426V2.377c0-0.786,0.64-1.426,1.426-1.426H33.56 M33.56,0H2.44C1.127,0,0.063,1.064,0.063,2.377
		v31.12c0,1.313,1.064,2.377,2.377,2.377h31.12c1.313,0,2.377-1.064,2.377-2.377V2.377C35.937,1.064,34.873,0,33.56,0L33.56,0z"/>
</g>
<g>
	<linearGradient id="SVGID_1_" gradientUnits="userSpaceOnUse" x1="17.9995" y1="33.8246" x2="17.9995" y2="2.0491">
		<stop  offset="0" style="stop-color:#2CA539"/>
		<stop  offset="1" style="stop-color:#009117"/>
	</linearGradient>
	<path fill="url(#SVGID_1_)" d="M2.44,33.825c-0.18,0-0.328-0.148-0.328-0.328V2.377c0-0.18,0.148-0.328,0.328-0.328h31.121
		c0.18,0,0.327,0.148,0.327,0.328v31.12c0,0.18-0.146,0.328-0.327,0.328H2.44z"/>
</g>
<g>
	<g>
		<g>
			<polygon fill="#F5F5F5" points="7.073,7.661 9.89,5.334 9.89,9.989 			"/>
			<path fill="#F5F5F5" d="M17.533,13.331c-1.434-1.693-2.353-2.866-2.808-3.58c-0.616-0.969-1.092-1.145-1.254-1.156L9.205,8.62
				V6.643h3.969c0.539-0.079,1.895-0.033,3.22,2.046c0.276,0.433,0.958,1.369,2.648,3.365L17.533,13.331z"/>
		</g>
		<g>
			<polygon fill="#F5F5F5" points="28.926,16.829 26.109,19.156 26.109,14.501 			"/>
			<path fill="#F5F5F5" d="M18.466,11.159c1.434,1.693,2.353,2.866,2.808,3.58c0.616,0.969,1.092,1.145,1.254,1.156l4.267-0.025
				v1.978h-3.969c-0.539,0.079-1.895,0.033-3.22-2.046c-0.276-0.433-0.958-1.369-2.648-3.365L18.466,11.159z"/>
		</g>
	</g>
	<g>
		<g>
			<polygon fill="#F5F5F5" points="28.926,7.661 26.109,5.334 26.109,9.989 			"/>
			<path fill="#F5F5F5" d="M18.466,13.331c1.434-1.693,2.353-2.866,2.808-3.58c0.616-0.969,1.092-1.145,1.254-1.156l4.267,0.025
				V6.643h-3.969c-0.539-0.079-1.895-0.033-3.22,2.046c-0.276,0.433-0.958,1.369-2.648,3.365L18.466,13.331z"/>
		</g>
		<g>
			<polygon fill="#F5F5F5" points="7.073,16.829 9.89,19.156 9.89,14.501 			"/>
			<path fill="#F5F5F5" d="M17.533,11.159c-1.434,1.693-2.353,2.866-2.808,3.58c-0.616,0.969-1.092,1.145-1.254,1.156L9.205,15.87
				v1.978h3.969c0.539,0.079,1.895,0.033,3.22-2.046c0.276-0.433,0.958-1.369,2.648-3.365L17.533,11.159z"/>
		</g>
	</g>
</g>
<g>
	<path fill="#FFFFFF" d="M5.652,32.765v-7.133h4.464v0.842H6.528v2.209h3.105v0.842H6.528v3.241H5.652z"/>
	<path fill="#FFFFFF" d="M10.924,30.896l0.853-0.078c0.063,0.448,0.21,0.784,0.44,1.01c0.23,0.226,0.508,0.338,0.833,0.338
		c0.391,0,0.722-0.159,0.993-0.477s0.406-0.74,0.406-1.265c0-0.5-0.13-0.894-0.391-1.183c-0.26-0.289-0.601-0.433-1.022-0.433
		c-0.262,0-0.498,0.064-0.708,0.192c-0.211,0.128-0.376,0.294-0.497,0.499l-0.763-0.107l0.641-3.664H15v0.837H12.36l-0.357,1.917
		c0.397-0.298,0.814-0.448,1.25-0.448c0.578,0,1.065,0.216,1.462,0.647c0.397,0.432,0.596,0.986,0.596,1.664
		c0,0.646-0.175,1.204-0.524,1.674c-0.424,0.578-1.003,0.866-1.738,0.866c-0.602,0-1.093-0.182-1.474-0.545
		C11.196,31.978,10.979,31.497,10.924,30.896z"/>
	<path fill="#FFFFFF" d="M16.066,29.247c0-0.843,0.081-1.522,0.241-2.036c0.161-0.514,0.4-0.911,0.718-1.19
		c0.317-0.279,0.717-0.418,1.199-0.418c0.355,0,0.667,0.077,0.935,0.231c0.268,0.154,0.488,0.376,0.664,0.667
		c0.174,0.291,0.311,0.644,0.41,1.061c0.1,0.417,0.148,0.979,0.148,1.686c0,0.837-0.08,1.513-0.238,2.027
		c-0.16,0.514-0.398,0.912-0.716,1.192c-0.317,0.281-0.719,0.421-1.203,0.421c-0.638,0-1.139-0.247-1.503-0.74
		C16.284,31.553,16.066,30.586,16.066,29.247z M16.901,29.247c0,1.171,0.127,1.951,0.381,2.338c0.254,0.388,0.568,0.582,0.941,0.582
		s0.687-0.194,0.94-0.584c0.255-0.389,0.383-1.167,0.383-2.335c0-1.174-0.128-1.954-0.383-2.34c-0.254-0.386-0.57-0.579-0.95-0.579
		c-0.373,0-0.671,0.17-0.894,0.511C17.041,27.273,16.901,28.076,16.901,29.247z"/>
	<path fill="#FFFFFF" d="M21.207,29.247c0-0.843,0.08-1.522,0.241-2.036s0.4-0.911,0.718-1.19c0.317-0.279,0.717-0.418,1.198-0.418
		c0.355,0,0.667,0.077,0.935,0.231c0.268,0.154,0.489,0.376,0.664,0.667c0.174,0.291,0.312,0.644,0.41,1.061
		c0.1,0.417,0.149,0.979,0.149,1.686c0,0.837-0.08,1.513-0.239,2.027s-0.398,0.912-0.716,1.192
		c-0.317,0.281-0.718,0.421-1.203,0.421c-0.638,0-1.139-0.247-1.503-0.74C21.425,31.553,21.207,30.586,21.207,29.247z
		 M22.042,29.247c0,1.171,0.127,1.951,0.382,2.338c0.254,0.388,0.567,0.582,0.94,0.582s0.688-0.194,0.941-0.584
		c0.255-0.389,0.382-1.167,0.382-2.335c0-1.174-0.127-1.954-0.382-2.34c-0.254-0.386-0.571-0.579-0.95-0.579
		c-0.373,0-0.671,0.17-0.894,0.511C22.182,27.273,22.042,28.076,22.042,29.247z"/>
	<path fill="#FFFFFF" d="M26.349,29.247c0-0.843,0.08-1.522,0.241-2.036s0.4-0.911,0.718-1.19c0.317-0.279,0.717-0.418,1.198-0.418
		c0.355,0,0.667,0.077,0.935,0.231c0.268,0.154,0.489,0.376,0.664,0.667c0.174,0.291,0.312,0.644,0.41,1.061
		c0.1,0.417,0.149,0.979,0.149,1.686c0,0.837-0.08,1.513-0.239,2.027s-0.398,0.912-0.716,1.192
		c-0.317,0.281-0.718,0.421-1.203,0.421c-0.638,0-1.139-0.247-1.503-0.74C26.566,31.553,26.349,30.586,26.349,29.247z
		 M27.184,29.247c0,1.171,0.127,1.951,0.382,2.338c0.254,0.388,0.567,0.582,0.94,0.582s0.688-0.194,0.941-0.584
		c0.255-0.389,0.382-1.167,0.382-2.335c0-1.174-0.127-1.954-0.382-2.34c-0.254-0.386-0.571-0.579-0.95-0.579
		c-0.373,0-0.671,0.17-0.894,0.511C27.323,27.273,27.184,28.076,27.184,29.247z"/>
</g>
<g>
	<path fill="#FFFFFF" d="M13.606,22.749l0.525,0.143c-0.11,0.465-0.308,0.82-0.594,1.064s-0.636,0.366-1.049,0.366
		c-0.428,0-0.776-0.094-1.044-0.282c-0.268-0.188-0.472-0.459-0.612-0.816c-0.14-0.356-0.21-0.738-0.21-1.147
		c0-0.446,0.079-0.834,0.237-1.167c0.158-0.332,0.383-0.584,0.674-0.756c0.292-0.172,0.613-0.258,0.963-0.258
		c0.397,0,0.731,0.109,1.002,0.327c0.271,0.218,0.459,0.524,0.566,0.919l-0.518,0.131c-0.092-0.311-0.226-0.538-0.401-0.68
		c-0.175-0.142-0.395-0.213-0.661-0.213c-0.305,0-0.56,0.079-0.765,0.236s-0.349,0.369-0.432,0.635
		c-0.083,0.266-0.125,0.54-0.125,0.822c0,0.364,0.049,0.682,0.147,0.953c0.099,0.271,0.251,0.474,0.459,0.608
		c0.208,0.134,0.432,0.202,0.674,0.202c0.294,0,0.543-0.091,0.748-0.274S13.534,23.108,13.606,22.749z"/>
	<path fill="#FFFFFF" d="M14.62,22.165c0-0.71,0.177-1.267,0.531-1.668c0.354-0.402,0.811-0.603,1.371-0.603
		c0.367,0,0.697,0.095,0.991,0.283c0.294,0.189,0.519,0.452,0.673,0.79c0.154,0.337,0.231,0.72,0.231,1.148
		c0,0.434-0.082,0.822-0.244,1.165c-0.163,0.343-0.393,0.602-0.691,0.778c-0.298,0.176-0.619,0.264-0.964,0.264
		c-0.374,0-0.708-0.097-1.002-0.292c-0.294-0.195-0.517-0.46-0.669-0.797C14.695,22.896,14.62,22.54,14.62,22.165z M15.162,22.173
		c0,0.516,0.128,0.922,0.386,1.219s0.58,0.445,0.968,0.445c0.396,0,0.721-0.15,0.977-0.45c0.255-0.3,0.383-0.725,0.383-1.276
		c0-0.348-0.054-0.652-0.164-0.912s-0.269-0.461-0.479-0.604s-0.446-0.214-0.708-0.214c-0.372,0-0.692,0.138-0.96,0.413
		S15.162,21.529,15.162,22.173z"/>
	<path fill="#FFFFFF" d="M20.104,24.249v-3.775h-1.309v-0.505h3.147v0.505H20.63v3.775H20.104z"/>
	<path fill="#FFFFFF" d="M22.482,24.249v-4.28h1.498c0.264,0,0.465,0.014,0.604,0.041c0.195,0.035,0.358,0.102,0.49,0.2
		s0.238,0.236,0.318,0.413s0.121,0.372,0.121,0.584c0,0.364-0.107,0.672-0.322,0.924s-0.604,0.378-1.165,0.378h-1.019v1.74H22.482z
		 M23.008,22.004h1.026c0.34,0,0.581-0.068,0.724-0.204s0.214-0.328,0.214-0.575c0-0.179-0.042-0.333-0.126-0.46
		s-0.194-0.212-0.332-0.252c-0.088-0.025-0.252-0.038-0.49-0.038h-1.016V22.004z"/>
</g>
</svg>
