<?xml version="1.0" encoding="utf-8"?>
<!-- Generator: Adobe Illustrator 18.0.0, SVG Export Plug-In . SVG Version: 6.00 Build 0)  -->
<!DOCTYPE svg PUBLIC "-//W3C//DTD SVG 1.1//EN" "http://www.w3.org/Graphics/SVG/1.1/DTD/svg11.dtd">
<svg version="1.1" id="图层_1" xmlns="http://www.w3.org/2000/svg" xmlns:xlink="http://www.w3.org/1999/xlink" x="0px" y="0px"
	 width="42px" height="42px" viewBox="0 0 42 42" enable-background="new 0 0 42 42" xml:space="preserve">
<g>
	<g>
		<path fill="#FFFFFF" d="M3.65,40.47c-1.169,0-2.12-0.951-2.12-2.12V3.65c0-1.169,0.951-2.12,2.12-2.12H38.35
			c1.169,0,2.12,0.951,2.12,2.12V38.35c0,1.169-0.951,2.12-2.12,2.12H3.65z"/>
		<path fill="#AFAFAF" d="M38.35,2.06c0.877,0,1.59,0.713,1.59,1.59V38.35c0,0.877-0.713,1.59-1.59,1.59H3.65
			c-0.877,0-1.59-0.713-1.59-1.59V3.65c0-0.877,0.713-1.59,1.59-1.59H38.35 M38.35,1H3.65C2.187,1,1,2.187,1,3.65V38.35
			C1,39.813,2.187,41,3.65,41H38.35c1.464,0,2.65-1.187,2.65-2.65V3.65C41,2.187,39.813,1,38.35,1L38.35,1z"/>
	</g>
	<g>
		<linearGradient id="SVGID_1_" gradientUnits="userSpaceOnUse" x1="20.9994" y1="38.7147" x2="20.9994" y2="3.285">
			<stop  offset="0" style="stop-color:#00AEF9"/>
			<stop  offset="1" style="stop-color:#0092E1"/>
		</linearGradient>
		<path fill="url(#SVGID_1_)" d="M3.65,38.715c-0.201,0-0.366-0.165-0.366-0.366V3.651c0-0.201,0.165-0.366,0.366-0.366h34.7
			c0.201,0,0.364,0.165,0.364,0.366v34.699c0,0.201-0.163,0.366-0.364,0.366H3.65z"/>
	</g>
	<g>
		<g>
			<g>
				<polygon fill="#F5F5F5" points="8.816,9.543 11.957,6.948 11.957,12.138 				"/>
				<path fill="#F5F5F5" d="M20.479,15.864c-1.599-1.888-2.623-3.195-3.131-3.992c-0.687-1.081-1.218-1.276-1.398-1.289
					l-4.757,0.028V8.407h4.425c0.601-0.088,2.113-0.037,3.59,2.282c0.308,0.483,1.069,1.527,2.952,3.752L20.479,15.864z"/>
			</g>
			<g>
				<polygon fill="#F5F5F5" points="33.183,19.764 30.042,22.359 30.042,17.169 				"/>
				<path fill="#F5F5F5" d="M21.52,13.442c1.599,1.888,2.623,3.195,3.131,3.992c0.687,1.081,1.218,1.276,1.398,1.289l4.757-0.028
					V20.9H26.38c-0.601,0.088-2.113,0.037-3.59-2.282c-0.308-0.483-1.069-1.527-2.952-3.752L21.52,13.442z"/>
			</g>
		</g>
		<g>
			<g>
				<polygon fill="#F5F5F5" points="33.183,9.543 30.042,6.948 30.042,12.138 				"/>
				<path fill="#F5F5F5" d="M21.52,15.864c1.599-1.888,2.623-3.195,3.131-3.992c0.687-1.081,1.218-1.276,1.398-1.289l4.757,0.028
					V8.407H26.38c-0.601-0.088-2.113-0.037-3.59,2.282c-0.308,0.483-1.069,1.527-2.952,3.752L21.52,15.864z"/>
			</g>
			<g>
				<polygon fill="#F5F5F5" points="8.816,19.764 11.957,22.359 11.957,17.169 				"/>
				<path fill="#F5F5F5" d="M20.479,13.442c-1.599,1.888-2.623,3.195-3.131,3.992c-0.687,1.081-1.218,1.276-1.398,1.289
					l-4.757-0.028V20.9h4.425c0.601,0.088,2.113,0.037,3.59-2.282c0.308-0.483,1.069-1.527,2.952-3.752L20.479,13.442z"/>
			</g>
		</g>
	</g>
	<g>
		<path fill="#FFFFFF" d="M7.232,37.533V29.58h4.978v0.938H8.208v2.464h3.464v0.938H8.208v3.613H7.232z"/>
		<path fill="#FFFFFF" d="M13.111,35.45l0.951-0.087c0.071,0.499,0.235,0.875,0.491,1.126c0.256,0.252,0.566,0.378,0.929,0.378
			c0.436,0,0.805-0.178,1.107-0.532c0.302-0.355,0.453-0.825,0.453-1.411c0-0.557-0.145-0.997-0.435-1.318
			c-0.29-0.322-0.67-0.483-1.141-0.483c-0.291,0-0.555,0.071-0.791,0.214c-0.234,0.142-0.419,0.328-0.553,0.556l-0.851-0.12
			l0.715-4.085h3.669v0.933h-2.945l-0.397,2.138c0.443-0.333,0.908-0.499,1.394-0.499c0.644,0,1.188,0.24,1.631,0.722
			c0.443,0.481,0.665,1.1,0.665,1.855c0,0.719-0.195,1.342-0.584,1.866c-0.473,0.644-1.12,0.966-1.938,0.966
			c-0.672,0-1.219-0.203-1.644-0.608C13.414,36.656,13.172,36.119,13.111,35.45z"/>
		<path fill="#FFFFFF" d="M18.843,33.611c0-0.94,0.09-1.697,0.27-2.27c0.179-0.574,0.446-1.016,0.8-1.327
			c0.354-0.311,0.8-0.466,1.337-0.466c0.396,0,0.742,0.086,1.041,0.257c0.299,0.172,0.545,0.42,0.74,0.743
			c0.195,0.324,0.348,0.718,0.459,1.182c0.111,0.465,0.166,1.092,0.166,1.88c0,0.933-0.089,1.686-0.267,2.26
			c-0.178,0.573-0.444,1.016-0.798,1.329c-0.354,0.313-0.801,0.47-1.341,0.47c-0.712,0-1.27-0.275-1.676-0.825
			C19.087,36.182,18.843,35.104,18.843,33.611z M19.774,33.611c0,1.306,0.142,2.175,0.426,2.607
			c0.284,0.432,0.632,0.649,1.049,0.649c0.416,0,0.766-0.218,1.049-0.651c0.284-0.434,0.425-1.302,0.425-2.604
			c0-1.309-0.141-2.179-0.425-2.609c-0.284-0.431-0.636-0.646-1.06-0.646c-0.416,0-0.749,0.19-0.997,0.57
			C19.93,31.41,19.774,32.305,19.774,33.611z"/>
		<path fill="#FFFFFF" d="M24.576,33.611c0-0.94,0.09-1.697,0.27-2.27c0.179-0.574,0.446-1.016,0.8-1.327
			c0.354-0.311,0.8-0.466,1.337-0.466c0.396,0,0.742,0.086,1.041,0.257c0.299,0.172,0.545,0.42,0.74,0.743
			c0.195,0.324,0.348,0.718,0.459,1.182c0.111,0.465,0.166,1.092,0.166,1.88c0,0.933-0.089,1.686-0.267,2.26
			c-0.178,0.573-0.444,1.016-0.798,1.329c-0.354,0.313-0.801,0.47-1.341,0.47c-0.712,0-1.27-0.275-1.676-0.825
			C24.821,36.182,24.576,35.104,24.576,33.611z M25.508,33.611c0,1.306,0.142,2.175,0.426,2.607
			c0.284,0.432,0.632,0.649,1.049,0.649c0.416,0,0.766-0.218,1.049-0.651c0.284-0.434,0.425-1.302,0.425-2.604
			c0-1.309-0.141-2.179-0.425-2.609c-0.284-0.431-0.636-0.646-1.06-0.646c-0.416,0-0.749,0.19-0.997,0.57
			C25.663,31.41,25.508,32.305,25.508,33.611z"/>
		<path fill="#FFFFFF" d="M30.308,33.611c0-0.94,0.09-1.697,0.27-2.27c0.179-0.574,0.446-1.016,0.8-1.327
			c0.354-0.311,0.8-0.466,1.337-0.466c0.396,0,0.742,0.086,1.041,0.257c0.299,0.172,0.545,0.42,0.74,0.743
			c0.195,0.324,0.348,0.718,0.459,1.182c0.111,0.465,0.166,1.092,0.166,1.88c0,0.933-0.089,1.686-0.267,2.26
			c-0.178,0.573-0.444,1.016-0.798,1.329c-0.354,0.313-0.801,0.47-1.341,0.47c-0.712,0-1.27-0.275-1.676-0.825
			C30.553,36.182,30.308,35.104,30.308,33.611z M31.24,33.611c0,1.306,0.142,2.175,0.426,2.607c0.284,0.432,0.632,0.649,1.049,0.649
			c0.416,0,0.766-0.218,1.049-0.651c0.284-0.434,0.425-1.302,0.425-2.604c0-1.309-0.141-2.179-0.425-2.609
			c-0.284-0.431-0.636-0.646-1.06-0.646c-0.416,0-0.749,0.19-0.997,0.57C31.395,31.41,31.24,32.305,31.24,33.611z"/>
	</g>
	<g>
		<path fill="#FFFFFF" d="M15.948,23.714h0.864v2.497c0,0.396,0.011,0.653,0.032,0.77c0.037,0.189,0.125,0.34,0.264,0.454
			c0.14,0.114,0.329,0.171,0.57,0.171c0.245,0,0.43-0.054,0.554-0.162c0.125-0.108,0.2-0.241,0.225-0.398
			c0.026-0.157,0.038-0.418,0.038-0.783v-2.55h0.864v2.421c0,0.553-0.024,0.944-0.07,1.173c-0.047,0.229-0.133,0.422-0.258,0.579
			c-0.125,0.157-0.293,0.283-0.504,0.376c-0.209,0.093-0.484,0.14-0.822,0.14c-0.408,0-0.718-0.051-0.929-0.153
			s-0.378-0.234-0.501-0.396c-0.122-0.162-0.204-0.333-0.241-0.511c-0.057-0.264-0.085-0.654-0.085-1.17V23.714z"/>
		<path fill="#FFFFFF" d="M22.865,24.843l-0.793,0.094c-0.02-0.176-0.071-0.306-0.153-0.39s-0.187-0.126-0.317-0.126
			c-0.174,0-0.32,0.084-0.439,0.252c-0.12,0.167-0.195,0.517-0.226,1.047c0.204-0.26,0.458-0.39,0.761-0.39
			c0.342,0,0.636,0.141,0.879,0.422c0.245,0.28,0.367,0.643,0.367,1.088c0,0.472-0.129,0.85-0.386,1.136s-0.586,0.428-0.988,0.428
			c-0.432,0-0.787-0.181-1.065-0.543s-0.418-0.954-0.418-1.778c0-0.845,0.146-1.454,0.436-1.827c0.289-0.373,0.665-0.56,1.129-0.56
			c0.324,0,0.593,0.098,0.806,0.294C22.671,24.185,22.807,24.469,22.865,24.843z M21.007,26.77c0,0.287,0.062,0.509,0.183,0.665
			c0.123,0.156,0.263,0.234,0.42,0.234c0.151,0,0.278-0.064,0.38-0.192c0.101-0.128,0.151-0.337,0.151-0.629
			c0-0.299-0.054-0.519-0.163-0.659c-0.109-0.14-0.245-0.209-0.408-0.209c-0.159,0-0.291,0.066-0.4,0.199
			C21.062,26.314,21.007,26.51,21.007,26.77z"/>
		<path fill="#FFFFFF" d="M24.796,23.695c0.414,0,0.738,0.159,0.972,0.478c0.278,0.377,0.418,1.003,0.418,1.877
			c0,0.872-0.14,1.499-0.42,1.881c-0.231,0.314-0.555,0.472-0.969,0.472c-0.415,0-0.751-0.173-1.006-0.517
			c-0.256-0.345-0.382-0.96-0.382-1.844c0-0.868,0.14-1.493,0.42-1.875C24.059,23.852,24.382,23.695,24.796,23.695z M24.796,24.427
			c-0.099,0-0.187,0.034-0.265,0.102c-0.078,0.068-0.138,0.19-0.181,0.366c-0.057,0.228-0.084,0.613-0.084,1.154
			c0,0.541,0.025,0.913,0.076,1.115c0.05,0.202,0.114,0.337,0.191,0.404c0.077,0.067,0.164,0.101,0.264,0.101
			s0.188-0.034,0.266-0.102c0.077-0.068,0.138-0.191,0.181-0.366c0.057-0.227,0.084-0.61,0.084-1.151
			c0-0.541-0.025-0.912-0.076-1.115c-0.051-0.202-0.115-0.337-0.191-0.405C24.983,24.462,24.896,24.427,24.796,24.427z"/>
	</g>
</g>
</svg>
