<?xml version="1.0" encoding="utf-8"?>
<!-- Generator: Adobe Illustrator 18.0.0, SVG Export Plug-In . SVG Version: 6.00 Build 0)  -->
<!DOCTYPE svg PUBLIC "-//W3C//DTD SVG 1.1//EN" "http://www.w3.org/Graphics/SVG/1.1/DTD/svg11.dtd">
<svg version="1.1" id="图层_1" xmlns="http://www.w3.org/2000/svg" xmlns:xlink="http://www.w3.org/1999/xlink" x="0px" y="0px"
	 width="42px" height="42px" viewBox="0 0 42 42" enable-background="new 0 0 42 42" xml:space="preserve">
<g>
	<g>
		<path fill="#FFFFFF" d="M3.65,40.47c-1.169,0-2.12-0.951-2.12-2.12V3.65c0-1.169,0.951-2.12,2.12-2.12H38.35
			c1.169,0,2.12,0.951,2.12,2.12V38.35c0,1.169-0.951,2.12-2.12,2.12H3.65z"/>
		<path fill="#AFAFAF" d="M38.35,2.06c0.877,0,1.59,0.713,1.59,1.59V38.35c0,0.877-0.713,1.59-1.59,1.59H3.65
			c-0.877,0-1.59-0.713-1.59-1.59V3.65c0-0.877,0.713-1.59,1.59-1.59H38.35 M38.35,1H3.65C2.187,1,1,2.187,1,3.65V38.35
			C1,39.813,2.187,41,3.65,41H38.35c1.464,0,2.65-1.187,2.65-2.65V3.65C41,2.187,39.813,1,38.35,1L38.35,1z"/>
	</g>
	<g>
		<linearGradient id="SVGID_1_" gradientUnits="userSpaceOnUse" x1="20.9994" y1="38.7147" x2="20.9994" y2="3.285">
			<stop  offset="0" style="stop-color:#00AEF9"/>
			<stop  offset="1" style="stop-color:#0092E1"/>
		</linearGradient>
		<path fill="url(#SVGID_1_)" d="M3.65,38.715c-0.201,0-0.366-0.165-0.366-0.366V3.651c0-0.201,0.165-0.366,0.366-0.366h34.7
			c0.201,0,0.364,0.165,0.364,0.366v34.699c0,0.201-0.163,0.366-0.364,0.366H3.65z"/>
	</g>
	<g>
		<g>
			<g>
				<polygon fill="#F5F5F5" points="8.816,9.543 11.957,6.948 11.957,12.138 				"/>
				<path fill="#F5F5F5" d="M20.479,15.864c-1.599-1.888-2.623-3.195-3.131-3.992c-0.687-1.081-1.218-1.276-1.398-1.289
					l-4.757,0.028V8.407h4.425c0.601-0.088,2.113-0.037,3.59,2.282c0.308,0.483,1.069,1.527,2.952,3.752L20.479,15.864z"/>
			</g>
			<g>
				<polygon fill="#F5F5F5" points="33.183,19.764 30.042,22.359 30.042,17.169 				"/>
				<path fill="#F5F5F5" d="M21.52,13.442c1.599,1.888,2.623,3.195,3.131,3.992c0.687,1.081,1.218,1.276,1.398,1.289l4.757-0.028
					V20.9H26.38c-0.601,0.088-2.113,0.037-3.59-2.282c-0.308-0.483-1.069-1.527-2.952-3.752L21.52,13.442z"/>
			</g>
		</g>
		<g>
			<g>
				<polygon fill="#F5F5F5" points="33.183,9.543 30.042,6.948 30.042,12.138 				"/>
				<path fill="#F5F5F5" d="M21.52,15.864c1.599-1.888,2.623-3.195,3.131-3.992c0.687-1.081,1.218-1.276,1.398-1.289l4.757,0.028
					V8.407H26.38c-0.601-0.088-2.113-0.037-3.59,2.282c-0.308,0.483-1.069,1.527-2.952,3.752L21.52,15.864z"/>
			</g>
			<g>
				<polygon fill="#F5F5F5" points="8.816,19.764 11.957,22.359 11.957,17.169 				"/>
				<path fill="#F5F5F5" d="M20.479,13.442c-1.599,1.888-2.623,3.195-3.131,3.992c-0.687,1.081-1.218,1.276-1.398,1.289
					l-4.757-0.028V20.9h4.425c0.601,0.088,2.113,0.037,3.59-2.282c0.308-0.483,1.069-1.527,2.952-3.752L20.479,13.442z"/>
			</g>
		</g>
	</g>
	<g>
		<path fill="#FFFFFF" d="M7.232,37.533V29.58h4.978v0.938H8.208v2.464h3.464v0.938H8.208v3.613H7.232z"/>
		<path fill="#FFFFFF" d="M13.111,35.45l0.951-0.087c0.071,0.499,0.235,0.875,0.491,1.126c0.256,0.252,0.566,0.378,0.929,0.378
			c0.436,0,0.805-0.178,1.107-0.532c0.302-0.355,0.453-0.825,0.453-1.411c0-0.557-0.145-0.997-0.435-1.318
			c-0.29-0.322-0.67-0.483-1.141-0.483c-0.291,0-0.555,0.071-0.791,0.214c-0.234,0.142-0.419,0.328-0.553,0.556l-0.851-0.12
			l0.715-4.085h3.669v0.933h-2.945l-0.397,2.138c0.443-0.333,0.908-0.499,1.394-0.499c0.644,0,1.188,0.24,1.631,0.722
			c0.443,0.481,0.665,1.1,0.665,1.855c0,0.719-0.195,1.342-0.584,1.866c-0.473,0.644-1.12,0.966-1.938,0.966
			c-0.672,0-1.219-0.203-1.644-0.608C13.414,36.656,13.172,36.119,13.111,35.45z"/>
		<path fill="#FFFFFF" d="M18.843,33.611c0-0.94,0.09-1.697,0.27-2.27c0.179-0.574,0.446-1.016,0.8-1.327
			c0.354-0.311,0.8-0.466,1.337-0.466c0.396,0,0.742,0.086,1.041,0.257c0.299,0.172,0.545,0.42,0.74,0.743
			c0.195,0.324,0.348,0.718,0.459,1.182c0.111,0.465,0.166,1.092,0.166,1.88c0,0.933-0.089,1.686-0.267,2.26
			c-0.178,0.573-0.444,1.016-0.798,1.329c-0.354,0.313-0.801,0.47-1.341,0.47c-0.712,0-1.27-0.275-1.676-0.825
			C19.087,36.182,18.843,35.104,18.843,33.611z M19.774,33.611c0,1.306,0.142,2.175,0.426,2.607
			c0.284,0.432,0.632,0.649,1.049,0.649c0.416,0,0.766-0.218,1.049-0.651c0.284-0.434,0.425-1.302,0.425-2.604
			c0-1.309-0.141-2.179-0.425-2.609c-0.284-0.431-0.636-0.646-1.06-0.646c-0.416,0-0.749,0.19-0.997,0.57
			C19.93,31.41,19.774,32.305,19.774,33.611z"/>
		<path fill="#FFFFFF" d="M24.576,33.611c0-0.94,0.09-1.697,0.27-2.27c0.179-0.574,0.446-1.016,0.8-1.327
			c0.354-0.311,0.8-0.466,1.337-0.466c0.396,0,0.742,0.086,1.041,0.257c0.299,0.172,0.545,0.42,0.74,0.743
			c0.195,0.324,0.348,0.718,0.459,1.182c0.111,0.465,0.166,1.092,0.166,1.88c0,0.933-0.089,1.686-0.267,2.26
			c-0.178,0.573-0.444,1.016-0.798,1.329c-0.354,0.313-0.801,0.47-1.341,0.47c-0.712,0-1.27-0.275-1.676-0.825
			C24.821,36.182,24.576,35.104,24.576,33.611z M25.508,33.611c0,1.306,0.142,2.175,0.426,2.607
			c0.284,0.432,0.632,0.649,1.049,0.649c0.416,0,0.766-0.218,1.049-0.651c0.284-0.434,0.425-1.302,0.425-2.604
			c0-1.309-0.141-2.179-0.425-2.609c-0.284-0.431-0.636-0.646-1.06-0.646c-0.416,0-0.749,0.19-0.997,0.57
			C25.663,31.41,25.508,32.305,25.508,33.611z"/>
		<path fill="#FFFFFF" d="M30.308,33.611c0-0.94,0.09-1.697,0.27-2.27c0.179-0.574,0.446-1.016,0.8-1.327
			c0.354-0.311,0.8-0.466,1.337-0.466c0.396,0,0.742,0.086,1.041,0.257c0.299,0.172,0.545,0.42,0.74,0.743
			c0.195,0.324,0.348,0.718,0.459,1.182c0.111,0.465,0.166,1.092,0.166,1.88c0,0.933-0.089,1.686-0.267,2.26
			c-0.178,0.573-0.444,1.016-0.798,1.329c-0.354,0.313-0.801,0.47-1.341,0.47c-0.712,0-1.27-0.275-1.676-0.825
			C30.553,36.182,30.308,35.104,30.308,33.611z M31.24,33.611c0,1.306,0.142,2.175,0.426,2.607c0.284,0.432,0.632,0.649,1.049,0.649
			c0.416,0,0.766-0.218,1.049-0.651c0.284-0.434,0.425-1.302,0.425-2.604c0-1.309-0.141-2.179-0.425-2.609
			c-0.284-0.431-0.636-0.646-1.06-0.646c-0.416,0-0.749,0.19-0.997,0.57C31.395,31.41,31.24,32.305,31.24,33.611z"/>
	</g>
	<g>
		<path fill="#FFFFFF" d="M15.422,22.948h0.954v2.757c0,0.437,0.012,0.721,0.035,0.851c0.041,0.208,0.139,0.376,0.291,0.502
			c0.154,0.126,0.363,0.189,0.63,0.189c0.27,0,0.474-0.059,0.613-0.178c0.137-0.12,0.22-0.266,0.248-0.44
			c0.027-0.174,0.042-0.462,0.042-0.864v-2.816h0.953v2.673c0,0.611-0.025,1.043-0.077,1.295c-0.051,0.253-0.146,0.466-0.285,0.639
			c-0.139,0.174-0.324,0.312-0.555,0.415c-0.233,0.103-0.536,0.155-0.909,0.155c-0.451,0-0.792-0.056-1.026-0.169
			c-0.233-0.112-0.417-0.258-0.551-0.438c-0.136-0.179-0.225-0.367-0.268-0.564c-0.063-0.292-0.094-0.723-0.094-1.292V22.948z"/>
		<path fill="#FFFFFF" d="M19.961,26.687l0.875-0.115c0.029,0.241,0.103,0.425,0.226,0.552c0.123,0.127,0.27,0.191,0.444,0.191
			c0.187,0,0.345-0.076,0.472-0.229c0.128-0.153,0.192-0.359,0.192-0.618c0-0.246-0.061-0.44-0.184-0.583
			c-0.122-0.144-0.27-0.216-0.447-0.216c-0.116,0-0.255,0.025-0.416,0.073l0.099-0.795c0.246,0.007,0.432-0.05,0.561-0.172
			c0.129-0.122,0.193-0.283,0.193-0.485c0-0.171-0.047-0.308-0.141-0.41c-0.095-0.102-0.221-0.153-0.378-0.153
			c-0.154,0-0.286,0.058-0.396,0.174c-0.11,0.116-0.176,0.285-0.2,0.507l-0.834-0.153c0.057-0.308,0.145-0.553,0.263-0.738
			c0.116-0.184,0.28-0.329,0.489-0.434c0.209-0.106,0.444-0.158,0.704-0.158c0.444,0,0.801,0.153,1.069,0.458
			c0.222,0.25,0.332,0.532,0.332,0.847c0,0.447-0.226,0.804-0.679,1.069c0.27,0.063,0.487,0.203,0.649,0.42
			c0.162,0.218,0.243,0.48,0.243,0.789c0,0.446-0.152,0.827-0.455,1.142c-0.302,0.315-0.679,0.472-1.13,0.472
			c-0.427,0-0.781-0.133-1.062-0.398C20.169,27.462,20.006,27.115,19.961,26.687z"/>
		<path fill="#FFFFFF" d="M25.192,22.927c0.459,0,0.815,0.176,1.073,0.528c0.307,0.416,0.461,1.107,0.461,2.072
			c0,0.963-0.154,1.655-0.464,2.077c-0.256,0.347-0.611,0.521-1.07,0.521c-0.459,0-0.83-0.191-1.111-0.571
			c-0.281-0.381-0.422-1.06-0.422-2.036c0-0.958,0.154-1.648,0.464-2.07C24.379,23.1,24.734,22.927,25.192,22.927z M25.192,23.736
			c-0.108,0-0.206,0.038-0.293,0.113c-0.086,0.075-0.153,0.21-0.2,0.404c-0.061,0.252-0.093,0.677-0.093,1.274
			c0,0.598,0.027,1.008,0.084,1.231c0.056,0.223,0.125,0.372,0.21,0.446c0.085,0.074,0.183,0.112,0.291,0.112
			c0.11,0,0.208-0.038,0.294-0.113s0.152-0.21,0.2-0.404c0.061-0.25,0.093-0.674,0.093-1.271c0-0.597-0.027-1.007-0.084-1.231
			c-0.056-0.223-0.127-0.372-0.21-0.448C25.399,23.774,25.301,23.736,25.192,23.736z"/>
	</g>
</g>
</svg>
