<?xml version="1.0" encoding="utf-8"?>
<!-- Generator: Adobe Illustrator 18.0.0, SVG Export Plug-In . SVG Version: 6.00 Build 0)  -->
<!DOCTYPE svg PUBLIC "-//W3C//DTD SVG 1.1//EN" "http://www.w3.org/Graphics/SVG/1.1/DTD/svg11.dtd">
<svg version="1.1" id="图层_1" xmlns="http://www.w3.org/2000/svg" xmlns:xlink="http://www.w3.org/1999/xlink" x="0px" y="0px"
	 width="36px" height="36px" viewBox="0 0 36 36" enable-background="new 0 0 36 36" xml:space="preserve">
<g>
	<path fill="#FFFFFF" d="M2.819,35.036c-1.023,0-1.855-0.832-1.855-1.855V2.819c0-1.023,0.832-1.855,1.855-1.855h30.362
		c1.023,0,1.855,0.832,1.855,1.855v30.362c0,1.023-0.832,1.855-1.855,1.855H2.819z"/>
	<path fill="#AFAFAF" d="M33.181,1.428c0.767,0,1.391,0.624,1.391,1.391v30.362c0,0.767-0.624,1.391-1.391,1.391H2.819
		c-0.767,0-1.391-0.624-1.391-1.391V2.819c0-0.767,0.624-1.391,1.391-1.391H33.181 M33.181,0.5H2.819C1.538,0.5,0.5,1.538,0.5,2.819
		v30.362c0,1.281,1.038,2.319,2.319,2.319h30.362c1.281,0,2.319-1.038,2.319-2.319V2.819C35.5,1.538,34.462,0.5,33.181,0.5
		L33.181,0.5z"/>
</g>
<g>
	<path fill="#C4C4C4" d="M2.819,33.5c-0.176,0-0.32-0.144-0.32-0.32V2.819c0-0.176,0.144-0.32,0.32-0.32h30.363
		c0.176,0,0.319,0.144,0.319,0.32v30.361c0,0.176-0.143,0.32-0.319,0.32H2.819z"/>
</g>
<g>
	<g>
		<g>
			<polygon fill="#F5F5F5" points="7.339,7.975 10.087,5.704 10.087,10.246 			"/>
			<path fill="#F5F5F5" d="M17.544,13.506c-1.399-1.652-2.295-2.796-2.739-3.493c-0.601-0.946-1.066-1.117-1.223-1.127L9.419,8.91
				V6.981h3.872c0.526-0.077,1.849-0.032,3.142,1.997c0.269,0.422,0.935,1.336,2.583,3.283L17.544,13.506z"/>
		</g>
		<g>
			<polygon fill="#F5F5F5" points="28.66,16.919 25.912,19.189 25.912,14.648 			"/>
			<path fill="#F5F5F5" d="M18.455,11.387c1.399,1.652,2.295,2.796,2.739,3.493c0.601,0.946,1.066,1.117,1.223,1.127l4.163-0.024
				v1.929h-3.872c-0.526,0.077-1.849,0.032-3.142-1.997c-0.269-0.422-0.935-1.336-2.583-3.283L18.455,11.387z"/>
		</g>
	</g>
	<g>
		<g>
			<polygon fill="#F5F5F5" points="28.66,7.975 25.912,5.704 25.912,10.246 			"/>
			<path fill="#F5F5F5" d="M18.455,13.506c1.399-1.652,2.295-2.796,2.739-3.493c0.601-0.946,1.066-1.117,1.223-1.127L26.58,8.91
				V6.981h-3.872c-0.526-0.077-1.849-0.032-3.142,1.997c-0.269,0.422-0.935,1.336-2.583,3.283L18.455,13.506z"/>
		</g>
		<g>
			<polygon fill="#F5F5F5" points="7.339,16.919 10.087,19.189 10.087,14.648 			"/>
			<path fill="#F5F5F5" d="M17.544,11.387c-1.399,1.652-2.295,2.796-2.739,3.493c-0.601,0.946-1.066,1.117-1.223,1.127l-4.163-0.024
				v1.929h3.872c0.526,0.077,1.849,0.032,3.142-1.997c0.269-0.422,0.935-1.336,2.583-3.283L17.544,11.387z"/>
		</g>
	</g>
</g>
<g>
	<path fill="#FFFFFF" d="M5.953,32.466v-6.96h4.355v0.822H6.808v2.155h3.029v0.822H6.808v3.161H5.953z"/>
	<path fill="#FFFFFF" d="M11.096,30.643l0.833-0.076c0.062,0.437,0.205,0.765,0.43,0.985c0.224,0.22,0.495,0.33,0.812,0.33
		c0.382,0,0.704-0.155,0.969-0.465c0.264-0.31,0.396-0.721,0.396-1.234c0-0.487-0.126-0.871-0.381-1.153
		c-0.254-0.282-0.586-0.422-0.998-0.422c-0.255,0-0.486,0.062-0.691,0.187c-0.205,0.125-0.367,0.287-0.484,0.487l-0.744-0.104
		l0.625-3.575h3.211v0.816h-2.577l-0.348,1.87c0.388-0.291,0.794-0.437,1.221-0.437c0.564,0,1.039,0.211,1.427,0.631
		c0.387,0.421,0.581,0.963,0.581,1.624c0,0.63-0.17,1.174-0.51,1.633c-0.415,0.563-0.98,0.845-1.696,0.845
		c-0.587,0-1.066-0.177-1.438-0.532C11.362,31.699,11.15,31.229,11.096,30.643z"/>
	<path fill="#FFFFFF" d="M16.112,29.034c0-0.823,0.079-1.485,0.236-1.987c0.158-0.502,0.391-0.889,0.701-1.161
		c0.31-0.272,0.699-0.408,1.168-0.408c0.347,0,0.651,0.076,0.912,0.226c0.262,0.151,0.477,0.367,0.647,0.651
		c0.17,0.283,0.303,0.628,0.401,1.035c0.096,0.406,0.145,0.954,0.145,1.645c0,0.816-0.077,1.475-0.233,1.977
		c-0.156,0.502-0.389,0.89-0.699,1.163c-0.31,0.274-0.701,0.411-1.174,0.411c-0.622,0-1.11-0.24-1.466-0.721
		C16.326,31.284,16.112,30.341,16.112,29.034z M16.928,29.034c0,1.143,0.123,1.903,0.372,2.281c0.248,0.378,0.554,0.567,0.918,0.567
		c0.364,0,0.671-0.19,0.919-0.569c0.249-0.38,0.372-1.139,0.372-2.279c0-1.146-0.123-1.907-0.372-2.284
		c-0.248-0.377-0.557-0.565-0.927-0.565c-0.363,0-0.655,0.166-0.871,0.498C17.064,27.108,16.928,27.891,16.928,29.034z"/>
	<path fill="#FFFFFF" d="M21.129,29.034c0-0.823,0.079-1.485,0.236-1.987c0.158-0.502,0.391-0.889,0.701-1.161
		c0.31-0.272,0.699-0.408,1.168-0.408c0.347,0,0.651,0.076,0.912,0.226c0.262,0.151,0.477,0.367,0.647,0.651
		c0.17,0.283,0.303,0.628,0.401,1.035c0.096,0.406,0.145,0.954,0.145,1.645c0,0.816-0.077,1.475-0.233,1.977
		c-0.156,0.502-0.389,0.89-0.699,1.163c-0.31,0.274-0.701,0.411-1.174,0.411c-0.622,0-1.11-0.24-1.466-0.721
		C21.342,31.284,21.129,30.341,21.129,29.034z M21.944,29.034c0,1.143,0.123,1.903,0.372,2.281c0.248,0.378,0.554,0.567,0.918,0.567
		c0.364,0,0.671-0.19,0.919-0.569c0.249-0.38,0.372-1.139,0.372-2.279c0-1.146-0.123-1.907-0.372-2.284
		c-0.248-0.377-0.557-0.565-0.927-0.565c-0.363,0-0.655,0.166-0.871,0.498C22.081,27.108,21.944,27.891,21.944,29.034z"/>
	<path fill="#FFFFFF" d="M26.145,29.034c0-0.823,0.078-1.485,0.236-1.987c0.156-0.502,0.39-0.889,0.7-1.161
		c0.31-0.272,0.7-0.408,1.169-0.408c0.346,0,0.651,0.076,0.911,0.226c0.262,0.151,0.478,0.367,0.647,0.651
		c0.17,0.283,0.304,0.628,0.401,1.035c0.098,0.406,0.146,0.954,0.146,1.645c0,0.816-0.078,1.475-0.234,1.977
		c-0.155,0.502-0.388,0.89-0.698,1.163c-0.31,0.274-0.701,0.411-1.174,0.411c-0.623,0-1.112-0.24-1.466-0.721
		C26.358,31.284,26.145,30.341,26.145,29.034z M26.96,29.034c0,1.143,0.124,1.903,0.372,2.281c0.249,0.378,0.554,0.567,0.919,0.567
		s0.67-0.19,0.919-0.569c0.248-0.38,0.372-1.139,0.372-2.279c0-1.146-0.124-1.907-0.372-2.284c-0.249-0.377-0.557-0.565-0.927-0.565
		c-0.364,0-0.655,0.166-0.872,0.498C27.096,27.108,26.96,27.891,26.96,29.034z"/>
</g>
<g>
	<path fill="#FFFFFF" d="M13.831,20.239h0.712V22.3c0,0.327,0.009,0.539,0.026,0.636c0.031,0.156,0.104,0.281,0.218,0.375
		s0.271,0.141,0.471,0.141c0.202,0,0.354-0.044,0.457-0.133c0.103-0.089,0.165-0.199,0.186-0.329s0.031-0.345,0.031-0.646v-2.104
		h0.713v1.998c0,0.457-0.02,0.779-0.058,0.968c-0.039,0.189-0.109,0.348-0.213,0.478c-0.104,0.13-0.242,0.233-0.416,0.31
		c-0.173,0.077-0.399,0.116-0.679,0.116c-0.337,0-0.593-0.042-0.767-0.126c-0.174-0.084-0.312-0.193-0.413-0.327
		c-0.101-0.134-0.168-0.274-0.2-0.421c-0.047-0.218-0.07-0.54-0.07-0.965V20.239z"/>
	<path fill="#FFFFFF" d="M19.539,21.171l-0.655,0.078c-0.016-0.146-0.058-0.252-0.125-0.322s-0.155-0.104-0.262-0.104
		c-0.143,0-0.264,0.069-0.362,0.208c-0.099,0.138-0.161,0.426-0.187,0.864c0.168-0.214,0.378-0.322,0.628-0.322
		c0.282,0,0.524,0.116,0.726,0.348c0.202,0.231,0.302,0.531,0.302,0.897c0,0.39-0.106,0.702-0.318,0.937s-0.484,0.353-0.816,0.353
		c-0.356,0-0.649-0.149-0.879-0.448s-0.344-0.788-0.344-1.467c0-0.697,0.12-1.2,0.359-1.508c0.239-0.308,0.549-0.462,0.932-0.462
		c0.268,0,0.49,0.081,0.666,0.243C19.379,20.628,19.491,20.863,19.539,21.171z M18.005,22.762c0,0.237,0.051,0.42,0.152,0.549
		s0.216,0.193,0.347,0.193c0.125,0,0.229-0.053,0.313-0.159c0.083-0.105,0.125-0.278,0.125-0.519c0-0.247-0.045-0.428-0.135-0.543
		s-0.202-0.172-0.337-0.172c-0.13,0-0.24,0.055-0.33,0.165S18.005,22.547,18.005,22.762z"/>
	<path fill="#FFFFFF" d="M21.133,20.224c0.341,0,0.609,0.131,0.801,0.395c0.229,0.311,0.345,0.828,0.345,1.549
		c0,0.72-0.115,1.237-0.347,1.552c-0.19,0.259-0.458,0.389-0.799,0.389c-0.343,0-0.621-0.143-0.831-0.427
		c-0.21-0.285-0.315-0.792-0.315-1.522c0-0.716,0.116-1.232,0.347-1.547C20.524,20.353,20.791,20.224,21.133,20.224z M21.133,20.828
		c-0.082,0-0.155,0.028-0.219,0.084c-0.064,0.056-0.114,0.157-0.149,0.302c-0.047,0.188-0.07,0.506-0.07,0.952
		c0,0.447,0.021,0.753,0.063,0.92c0.042,0.167,0.094,0.278,0.158,0.333c0.063,0.056,0.136,0.083,0.218,0.083
		s0.155-0.028,0.219-0.084c0.063-0.056,0.114-0.157,0.149-0.302c0.047-0.187,0.069-0.503,0.069-0.95c0-0.446-0.021-0.753-0.063-0.92
		c-0.042-0.167-0.095-0.278-0.157-0.334C21.287,20.856,21.215,20.828,21.133,20.828z"/>
</g>
</svg>
