<?xml version="1.0" encoding="utf-8"?>
<!-- Generator: Adobe Illustrator 18.0.0, SVG Export Plug-In . SVG Version: 6.00 Build 0)  -->
<!DOCTYPE svg PUBLIC "-//W3C//DTD SVG 1.1//EN" "http://www.w3.org/Graphics/SVG/1.1/DTD/svg11.dtd">
<svg version="1.1" id="图层_1" xmlns="http://www.w3.org/2000/svg" xmlns:xlink="http://www.w3.org/1999/xlink" x="0px" y="0px"
	 width="42px" height="42px" viewBox="0 0 42 42" enable-background="new 0 0 42 42" xml:space="preserve">
<g>
	<g>
		<path fill="#FFFFFF" d="M3.65,40.47c-1.169,0-2.12-0.951-2.12-2.12V3.65c0-1.169,0.951-2.12,2.12-2.12H38.35
			c1.169,0,2.12,0.951,2.12,2.12V38.35c0,1.169-0.951,2.12-2.12,2.12H3.65z"/>
		<path fill="#AFAFAF" d="M38.35,2.06c0.877,0,1.59,0.713,1.59,1.59V38.35c0,0.877-0.713,1.59-1.59,1.59H3.65
			c-0.877,0-1.59-0.713-1.59-1.59V3.65c0-0.877,0.713-1.59,1.59-1.59H38.35 M38.35,1H3.65C2.187,1,1,2.187,1,3.65V38.35
			C1,39.813,2.187,41,3.65,41H38.35c1.464,0,2.65-1.187,2.65-2.65V3.65C41,2.187,39.813,1,38.35,1L38.35,1z"/>
	</g>
	<g>
		<linearGradient id="SVGID_1_" gradientUnits="userSpaceOnUse" x1="20.9994" y1="38.7147" x2="20.9994" y2="3.285">
			<stop  offset="0" style="stop-color:#76797A"/>
			<stop  offset="1" style="stop-color:#5F6263"/>
		</linearGradient>
		<path fill="url(#SVGID_1_)" d="M3.65,38.715c-0.201,0-0.366-0.165-0.366-0.366V3.651c0-0.201,0.165-0.366,0.366-0.366h34.7
			c0.201,0,0.364,0.165,0.364,0.366v34.699c0,0.201-0.163,0.366-0.364,0.366H3.65z"/>
	</g>
	<g>
		<g>
			<g>
				<polygon fill="#F5F5F5" points="8.816,9.543 11.957,6.948 11.957,12.138 				"/>
				<path fill="#F5F5F5" d="M20.479,15.864c-1.599-1.888-2.623-3.195-3.131-3.992c-0.687-1.081-1.218-1.276-1.398-1.289
					l-4.757,0.028V8.407h4.425c0.601-0.088,2.113-0.037,3.59,2.282c0.308,0.483,1.069,1.527,2.952,3.752L20.479,15.864z"/>
			</g>
			<g>
				<polygon fill="#F5F5F5" points="33.183,19.764 30.042,22.359 30.042,17.169 				"/>
				<path fill="#F5F5F5" d="M21.52,13.442c1.599,1.888,2.623,3.195,3.131,3.992c0.687,1.081,1.218,1.276,1.398,1.289l4.757-0.028
					V20.9H26.38c-0.601,0.088-2.113,0.037-3.59-2.282c-0.308-0.483-1.069-1.527-2.952-3.752L21.52,13.442z"/>
			</g>
		</g>
		<g>
			<g>
				<polygon fill="#F5F5F5" points="33.183,9.543 30.042,6.948 30.042,12.138 				"/>
				<path fill="#F5F5F5" d="M21.52,15.864c1.599-1.888,2.623-3.195,3.131-3.992c0.687-1.081,1.218-1.276,1.398-1.289l4.757,0.028
					V8.407H26.38c-0.601-0.088-2.113-0.037-3.59,2.282c-0.308,0.483-1.069,1.527-2.952,3.752L21.52,15.864z"/>
			</g>
			<g>
				<polygon fill="#F5F5F5" points="8.816,19.764 11.957,22.359 11.957,17.169 				"/>
				<path fill="#F5F5F5" d="M20.479,13.442c-1.599,1.888-2.623,3.195-3.131,3.992c-0.687,1.081-1.218,1.276-1.398,1.289
					l-4.757-0.028V20.9h4.425c0.601,0.088,2.113,0.037,3.59-2.282c0.308-0.483,1.069-1.527,2.952-3.752L20.479,13.442z"/>
			</g>
		</g>
	</g>
	<g>
		<path fill="#FFFFFF" d="M7.23,37.463v-7.954h4.977v0.939H8.207v2.464h3.463v0.939H8.207v3.613H7.23z"/>
		<path fill="#FFFFFF" d="M13.109,35.379l0.951-0.086c0.071,0.499,0.234,0.874,0.491,1.125s0.566,0.376,0.929,0.376
			c0.436,0,0.805-0.176,1.107-0.531s0.453-0.825,0.453-1.41c0-0.558-0.145-0.997-0.435-1.319c-0.29-0.322-0.67-0.482-1.14-0.482
			c-0.292,0-0.556,0.071-0.79,0.213c-0.235,0.144-0.42,0.329-0.554,0.557l-0.851-0.119l0.715-4.086h3.669v0.933H14.71l-0.398,2.137
			c0.443-0.332,0.908-0.498,1.394-0.498c0.644,0,1.188,0.241,1.631,0.722c0.442,0.481,0.664,1.099,0.664,1.855
			c0,0.72-0.195,1.342-0.584,1.867c-0.473,0.644-1.119,0.966-1.938,0.966c-0.671,0-1.219-0.203-1.644-0.608
			C13.412,36.586,13.169,36.048,13.109,35.379z"/>
		<path fill="#FFFFFF" d="M18.842,33.54c0-0.94,0.09-1.697,0.269-2.27c0.179-0.574,0.446-1.016,0.8-1.327
			c0.354-0.311,0.799-0.467,1.337-0.467c0.396,0,0.743,0.086,1.042,0.257c0.299,0.173,0.545,0.42,0.74,0.744
			c0.195,0.324,0.347,0.718,0.458,1.183c0.11,0.464,0.166,1.091,0.166,1.88c0,0.933-0.089,1.686-0.267,2.26
			c-0.178,0.573-0.444,1.016-0.798,1.329c-0.354,0.312-0.801,0.469-1.341,0.469c-0.712,0-1.271-0.274-1.676-0.825
			C19.085,36.111,18.842,35.034,18.842,33.54z M19.773,33.54c0,1.306,0.142,2.175,0.425,2.606c0.284,0.433,0.633,0.648,1.05,0.648
			c0.416,0,0.766-0.217,1.049-0.651c0.284-0.434,0.425-1.302,0.425-2.604c0-1.31-0.142-2.179-0.425-2.609
			c-0.283-0.431-0.637-0.646-1.059-0.646c-0.416,0-0.748,0.19-0.996,0.57C19.929,31.339,19.773,32.234,19.773,33.54z"/>
		<path fill="#FFFFFF" d="M24.574,33.54c0-0.94,0.09-1.697,0.269-2.27c0.179-0.574,0.446-1.016,0.8-1.327
			c0.354-0.311,0.799-0.467,1.337-0.467c0.396,0,0.743,0.086,1.042,0.257c0.299,0.173,0.545,0.42,0.74,0.744
			c0.195,0.324,0.347,0.718,0.458,1.183c0.11,0.464,0.166,1.091,0.166,1.88c0,0.933-0.089,1.686-0.267,2.26
			c-0.178,0.573-0.444,1.016-0.798,1.329c-0.354,0.312-0.801,0.469-1.341,0.469c-0.712,0-1.271-0.274-1.676-0.825
			C24.817,36.111,24.574,35.034,24.574,33.54z M25.505,33.54c0,1.306,0.142,2.175,0.425,2.606c0.284,0.433,0.633,0.648,1.05,0.648
			c0.416,0,0.766-0.217,1.049-0.651c0.284-0.434,0.425-1.302,0.425-2.604c0-1.31-0.142-2.179-0.425-2.609
			c-0.283-0.431-0.637-0.646-1.059-0.646c-0.416,0-0.748,0.19-0.996,0.57C25.661,31.339,25.505,32.234,25.505,33.54z"/>
		<path fill="#FFFFFF" d="M30.307,33.54c0-0.94,0.09-1.697,0.269-2.27c0.179-0.574,0.446-1.016,0.8-1.327
			c0.354-0.311,0.799-0.467,1.337-0.467c0.396,0,0.743,0.086,1.042,0.257c0.299,0.173,0.545,0.42,0.74,0.744
			c0.195,0.324,0.347,0.718,0.458,1.183c0.11,0.464,0.166,1.091,0.166,1.88c0,0.933-0.089,1.686-0.267,2.26
			c-0.178,0.573-0.444,1.016-0.798,1.329c-0.354,0.312-0.801,0.469-1.341,0.469c-0.712,0-1.271-0.274-1.676-0.825
			C30.55,36.111,30.307,35.034,30.307,33.54z M31.238,33.54c0,1.306,0.142,2.175,0.425,2.606c0.284,0.433,0.633,0.648,1.05,0.648
			c0.416,0,0.766-0.217,1.049-0.651c0.284-0.434,0.425-1.302,0.425-2.604c0-1.31-0.142-2.179-0.425-2.609
			c-0.283-0.431-0.637-0.646-1.059-0.646c-0.416,0-0.748,0.19-0.996,0.57C31.394,31.339,31.238,32.234,31.238,33.54z"/>
	</g>
	<g>
		<path fill="#FFFFFF" d="M15.946,23.512h0.864v2.498c0,0.397,0.011,0.653,0.032,0.771c0.037,0.189,0.125,0.341,0.265,0.455
			c0.139,0.115,0.329,0.172,0.571,0.172c0.245,0,0.43-0.054,0.554-0.162c0.125-0.108,0.199-0.24,0.225-0.398
			c0.025-0.157,0.038-0.419,0.038-0.784v-2.551h0.864v2.422c0,0.554-0.024,0.945-0.07,1.173c-0.047,0.23-0.133,0.423-0.258,0.579
			c-0.125,0.157-0.294,0.283-0.504,0.376c-0.21,0.094-0.484,0.14-0.823,0.14c-0.408,0-0.719-0.051-0.929-0.153
			c-0.211-0.102-0.378-0.233-0.501-0.397c-0.123-0.162-0.204-0.333-0.242-0.51c-0.057-0.265-0.085-0.655-0.085-1.171V23.512z"/>
		<path fill="#FFFFFF" d="M22.866,24.641l-0.794,0.095c-0.02-0.176-0.07-0.307-0.152-0.391c-0.082-0.084-0.188-0.125-0.318-0.125
			c-0.173,0-0.32,0.084-0.439,0.252c-0.12,0.167-0.195,0.516-0.226,1.047c0.204-0.259,0.458-0.389,0.762-0.389
			c0.342,0,0.636,0.141,0.88,0.421c0.244,0.281,0.366,0.644,0.366,1.088c0,0.472-0.128,0.851-0.385,1.136s-0.587,0.427-0.989,0.427
			c-0.432,0-0.787-0.181-1.065-0.542c-0.278-0.362-0.417-0.955-0.417-1.779c0-0.845,0.145-1.455,0.435-1.828
			c0.289-0.373,0.666-0.56,1.129-0.56c0.325,0,0.594,0.098,0.807,0.295C22.672,23.983,22.807,24.269,22.866,24.641z M21.007,26.57
			c0,0.288,0.062,0.509,0.184,0.665c0.123,0.156,0.262,0.234,0.42,0.234c0.152,0,0.278-0.064,0.379-0.192
			c0.101-0.128,0.152-0.337,0.152-0.63c0-0.3-0.054-0.519-0.163-0.658c-0.109-0.14-0.245-0.21-0.408-0.21
			c-0.158,0-0.291,0.066-0.4,0.2C21.061,26.113,21.007,26.31,21.007,26.57z"/>
		<path fill="#FFFFFF" d="M24.798,23.493c0.414,0,0.738,0.16,0.971,0.478c0.278,0.378,0.418,1.004,0.418,1.878
			c0,0.872-0.14,1.5-0.42,1.882c-0.231,0.314-0.555,0.471-0.969,0.471c-0.416,0-0.752-0.173-1.007-0.517
			c-0.255-0.344-0.382-0.96-0.382-1.844c0-0.869,0.14-1.494,0.42-1.875C24.06,23.651,24.383,23.493,24.798,23.493z M24.798,24.226
			c-0.099,0-0.188,0.034-0.266,0.103c-0.078,0.067-0.138,0.189-0.181,0.366c-0.057,0.228-0.085,0.613-0.085,1.154
			c0,0.542,0.025,0.914,0.076,1.116c0.05,0.201,0.114,0.336,0.191,0.404c0.077,0.067,0.165,0.101,0.264,0.101
			c0.099,0,0.188-0.034,0.266-0.102c0.077-0.069,0.139-0.191,0.181-0.367c0.057-0.226,0.084-0.61,0.084-1.152
			c0-0.541-0.025-0.913-0.076-1.115c-0.051-0.201-0.115-0.337-0.191-0.405C24.984,24.26,24.897,24.226,24.798,24.226z"/>
	</g>
</g>
</svg>
