<?xml version="1.0" encoding="utf-8"?>
<!-- Generator: Adobe Illustrator 18.0.0, SVG Export Plug-In . SVG Version: 6.00 Build 0)  -->
<!DOCTYPE svg PUBLIC "-//W3C//DTD SVG 1.1//EN" "http://www.w3.org/Graphics/SVG/1.1/DTD/svg11.dtd">
<svg version="1.1" id="图层_1" xmlns="http://www.w3.org/2000/svg" xmlns:xlink="http://www.w3.org/1999/xlink" x="0px" y="0px"
	 width="42px" height="42px" viewBox="0 0 42 42" enable-background="new 0 0 42 42" xml:space="preserve">
<g>
	<path fill="#FFFFFF" d="M3.279,40.815c-1.194,0-2.166-0.971-2.166-2.166V3.207c0-1.194,0.971-2.166,2.166-2.166h35.442
		c1.194,0,2.166,0.972,2.166,2.166v35.442c0,1.194-0.971,2.166-2.166,2.166H3.279z"/>
	<path fill="#AFAFAF" d="M38.721,1.583c0.896,0,1.624,0.729,1.624,1.624v35.442c0,0.896-0.729,1.624-1.624,1.624H3.279
		c-0.896,0-1.624-0.729-1.624-1.624V3.207c0-0.896,0.729-1.624,1.624-1.624H38.721 M38.721,0.5H3.279
		c-1.495,0-2.707,1.212-2.707,2.707v35.442c0,1.495,1.212,2.707,2.707,2.707h35.442c1.495,0,2.707-1.212,2.707-2.707V3.207
		C41.428,1.712,40.216,0.5,38.721,0.5L38.721,0.5z"/>
</g>
<g>
	<path fill="#C4C4C4" d="M3.279,39.022c-0.205,0-0.373-0.168-0.373-0.373V3.207c0-0.205,0.168-0.373,0.373-0.373h35.443
		c0.205,0,0.372,0.168,0.372,0.373v35.442c0,0.205-0.167,0.373-0.372,0.373H3.279z"/>
</g>
<g>
	<g>
		<g>
			<polygon fill="#F5F5F5" points="8.555,9.225 11.763,6.575 11.763,11.876 			"/>
			<path fill="#F5F5F5" d="M20.468,15.682c-1.633-1.929-2.679-3.264-3.198-4.077c-0.702-1.104-1.244-1.304-1.428-1.316l-4.859,0.028
				V8.065h4.52c0.614-0.09,2.158-0.038,3.667,2.331c0.314,0.493,1.092,1.56,3.015,3.832L20.468,15.682z"/>
		</g>
		<g>
			<polygon fill="#F5F5F5" points="33.444,19.666 30.236,22.316 30.236,17.015 			"/>
			<path fill="#F5F5F5" d="M21.531,13.209c1.633,1.929,2.679,3.264,3.198,4.077c0.702,1.104,1.244,1.304,1.428,1.316l4.859-0.028
				v2.252h-4.52c-0.614,0.09-2.158,0.038-3.667-2.331c-0.314-0.493-1.092-1.56-3.015-3.832L21.531,13.209z"/>
		</g>
	</g>
	<g>
		<g>
			<polygon fill="#F5F5F5" points="33.444,9.225 30.236,6.575 30.236,11.876 			"/>
			<path fill="#F5F5F5" d="M21.531,15.682c1.633-1.929,2.679-3.264,3.198-4.077c0.702-1.104,1.244-1.304,1.428-1.316l4.859,0.028
				V8.065h-4.52c-0.614-0.09-2.158-0.038-3.667,2.331c-0.314,0.493-1.092,1.56-3.015,3.832L21.531,15.682z"/>
		</g>
		<g>
			<polygon fill="#F5F5F5" points="8.555,19.666 11.763,22.316 11.763,17.015 			"/>
			<path fill="#F5F5F5" d="M20.468,13.209c-1.633,1.929-2.679,3.264-3.198,4.077c-0.702,1.104-1.244,1.304-1.428,1.316l-4.859-0.028
				v2.252h4.52c0.614,0.09,2.158,0.038,3.667-2.331c0.314-0.493,1.092-1.56,3.015-3.832L20.468,13.209z"/>
		</g>
	</g>
</g>
<g>
	<path fill="#FFFFFF" d="M6.938,37.815v-8.124h5.084v0.959H7.935v2.516h3.537v0.959H7.935v3.69H6.938z"/>
	<path fill="#FFFFFF" d="M12.942,35.688l0.972-0.089c0.072,0.51,0.239,0.894,0.501,1.15c0.262,0.257,0.579,0.385,0.949,0.385
		c0.445,0,0.823-0.181,1.131-0.543c0.309-0.362,0.463-0.842,0.463-1.441c0-0.569-0.148-1.018-0.445-1.347
		c-0.296-0.329-0.685-0.493-1.165-0.493c-0.298,0-0.567,0.073-0.807,0.219c-0.24,0.146-0.428,0.335-0.565,0.568l-0.869-0.122
		l0.73-4.173h3.748v0.953h-3.007l-0.406,2.184c0.453-0.34,0.927-0.51,1.424-0.51c0.658,0,1.213,0.246,1.666,0.737
		s0.679,1.123,0.679,1.896c0,0.735-0.199,1.371-0.597,1.906c-0.483,0.657-1.143,0.986-1.979,0.986c-0.686,0-1.245-0.207-1.679-0.621
		C13.251,36.919,13.004,36.371,12.942,35.688z"/>
	<path fill="#FFFFFF" d="M18.798,33.809c0-0.96,0.092-1.734,0.275-2.319c0.184-0.585,0.456-1.037,0.817-1.355
		c0.362-0.317,0.817-0.477,1.365-0.477c0.404,0,0.759,0.088,1.064,0.263c0.305,0.176,0.557,0.429,0.756,0.759
		s0.354,0.733,0.468,1.208s0.169,1.115,0.169,1.92c0,0.953-0.091,1.722-0.272,2.308c-0.182,0.585-0.453,1.038-0.814,1.357
		c-0.362,0.32-0.818,0.479-1.37,0.479c-0.727,0-1.297-0.281-1.712-0.842C19.046,36.436,18.798,35.335,18.798,33.809z M19.749,33.809
		c0,1.333,0.145,2.221,0.434,2.663s0.647,0.662,1.072,0.662c0.425,0,0.782-0.222,1.072-0.665s0.435-1.33,0.435-2.66
		c0-1.337-0.145-2.226-0.435-2.666c-0.29-0.44-0.65-0.66-1.082-0.66c-0.425,0-0.765,0.194-1.018,0.582
		C19.908,31.561,19.749,32.475,19.749,33.809z"/>
	<path fill="#FFFFFF" d="M24.653,33.809c0-0.96,0.092-1.734,0.275-2.319c0.184-0.585,0.456-1.037,0.817-1.355
		c0.362-0.317,0.817-0.477,1.365-0.477c0.404,0,0.759,0.088,1.064,0.263c0.305,0.176,0.557,0.429,0.756,0.759
		s0.354,0.733,0.468,1.208s0.169,1.115,0.169,1.92c0,0.953-0.091,1.722-0.272,2.308c-0.182,0.585-0.453,1.038-0.814,1.357
		c-0.362,0.32-0.818,0.479-1.37,0.479c-0.727,0-1.297-0.281-1.712-0.842C24.902,36.436,24.653,35.335,24.653,33.809z M25.604,33.809
		c0,1.333,0.145,2.221,0.434,2.663s0.647,0.662,1.072,0.662c0.425,0,0.782-0.222,1.072-0.665s0.435-1.33,0.435-2.66
		c0-1.337-0.145-2.226-0.435-2.666c-0.29-0.44-0.65-0.66-1.082-0.66c-0.425,0-0.765,0.194-1.018,0.582
		C25.764,31.561,25.604,32.475,25.604,33.809z"/>
	<path fill="#FFFFFF" d="M30.509,33.809c0-0.96,0.092-1.734,0.275-2.319c0.184-0.585,0.456-1.037,0.817-1.355
		c0.362-0.317,0.817-0.477,1.365-0.477c0.404,0,0.759,0.088,1.064,0.263c0.305,0.176,0.557,0.429,0.756,0.759
		s0.354,0.733,0.468,1.208s0.169,1.115,0.169,1.92c0,0.953-0.091,1.722-0.272,2.308c-0.182,0.585-0.453,1.038-0.814,1.357
		c-0.362,0.32-0.818,0.479-1.37,0.479c-0.727,0-1.297-0.281-1.712-0.842C30.757,36.436,30.509,35.335,30.509,33.809z M31.46,33.809
		c0,1.333,0.145,2.221,0.434,2.663s0.647,0.662,1.072,0.662c0.425,0,0.782-0.222,1.072-0.665s0.435-1.33,0.435-2.66
		c0-1.337-0.145-2.226-0.435-2.666c-0.29-0.44-0.65-0.66-1.082-0.66c-0.425,0-0.765,0.194-1.018,0.582
		C31.619,31.561,31.46,32.475,31.46,33.809z"/>
</g>
<g>
	<path fill="#FFFFFF" d="M15.996,26.408l0.598,0.163c-0.125,0.53-0.351,0.934-0.677,1.212c-0.326,0.278-0.725,0.417-1.195,0.417
		c-0.487,0-0.884-0.107-1.189-0.321c-0.306-0.214-0.538-0.523-0.697-0.929s-0.239-0.841-0.239-1.307c0-0.508,0.09-0.951,0.27-1.329
		c0.18-0.378,0.436-0.665,0.768-0.861s0.698-0.294,1.097-0.294c0.452,0,0.833,0.124,1.141,0.373
		c0.309,0.248,0.523,0.597,0.645,1.047l-0.589,0.149c-0.105-0.354-0.257-0.613-0.457-0.774c-0.2-0.162-0.45-0.243-0.752-0.243
		c-0.348,0-0.638,0.09-0.872,0.27s-0.397,0.42-0.492,0.723c-0.094,0.303-0.142,0.615-0.142,0.936c0,0.415,0.056,0.776,0.168,1.085
		c0.112,0.31,0.286,0.541,0.523,0.693c0.236,0.153,0.492,0.229,0.768,0.229c0.335,0,0.619-0.104,0.851-0.313
		S15.914,26.818,15.996,26.408z"/>
	<path fill="#FFFFFF" d="M17.149,25.743c0-0.809,0.202-1.442,0.605-1.9c0.403-0.458,0.923-0.687,1.561-0.687
		c0.417,0,0.794,0.108,1.129,0.323c0.335,0.215,0.591,0.515,0.767,0.899c0.176,0.384,0.264,0.821,0.264,1.308
		c0,0.495-0.092,0.937-0.277,1.327s-0.447,0.686-0.787,0.886S19.705,28.2,19.312,28.2c-0.426,0-0.806-0.111-1.142-0.333
		c-0.335-0.222-0.589-0.524-0.762-0.908C17.236,26.577,17.149,26.171,17.149,25.743z M17.767,25.753c0,0.588,0.146,1.05,0.439,1.388
		c0.293,0.338,0.661,0.507,1.103,0.507c0.451,0,0.821-0.171,1.112-0.512s0.437-0.826,0.437-1.453c0-0.396-0.063-0.743-0.187-1.039
		c-0.124-0.296-0.306-0.525-0.546-0.688c-0.239-0.163-0.508-0.245-0.807-0.245c-0.423,0-0.788,0.157-1.093,0.471
		S17.767,25.02,17.767,25.753z"/>
	<path fill="#FFFFFF" d="M23.396,28.117v-4.299h-1.49v-0.575h3.584v0.575h-1.496v4.299H23.396z"/>
	<path fill="#FFFFFF" d="M26.104,28.117v-4.875h1.706c0.3,0,0.529,0.016,0.688,0.047c0.222,0.04,0.408,0.116,0.559,0.228
		c0.15,0.112,0.271,0.269,0.362,0.471c0.091,0.202,0.137,0.423,0.137,0.665c0,0.415-0.123,0.765-0.367,1.052
		s-0.687,0.431-1.326,0.431h-1.16v1.981H26.104z M26.703,25.561h1.169c0.387,0,0.661-0.078,0.824-0.233
		c0.162-0.155,0.244-0.374,0.244-0.655c0-0.204-0.048-0.378-0.144-0.523s-0.222-0.241-0.378-0.288
		c-0.101-0.029-0.287-0.043-0.558-0.043h-1.157V25.561z"/>
</g>
</svg>
