<?xml version="1.0" encoding="utf-8"?>
<!-- Generator: Adobe Illustrator 18.0.0, SVG Export Plug-In . SVG Version: 6.00 Build 0)  -->
<!DOCTYPE svg PUBLIC "-//W3C//DTD SVG 1.1//EN" "http://www.w3.org/Graphics/SVG/1.1/DTD/svg11.dtd">
<svg version="1.1" id="图层_1" xmlns="http://www.w3.org/2000/svg" xmlns:xlink="http://www.w3.org/1999/xlink" x="0px" y="0px"
	 width="42px" height="42px" viewBox="0 0 42 42" enable-background="new 0 0 42 42" xml:space="preserve">
<g>
	<path fill="#FFFFFF" d="M3.711,40.331c-1.165,0-2.112-0.948-2.112-2.112V3.641c0-1.165,0.947-2.112,2.112-2.112h34.578
		c1.165,0,2.112,0.948,2.112,2.112v34.578c0,1.165-0.947,2.112-2.112,2.112H3.711z"/>
	<path fill="#AFAFAF" d="M38.289,2.056c0.874,0,1.585,0.711,1.585,1.585v34.577c0,0.874-0.711,1.585-1.585,1.585H3.711
		c-0.874,0-1.585-0.711-1.585-1.585V3.641c0-0.874,0.711-1.585,1.585-1.585H38.289 M38.289,1H3.711C2.253,1,1.07,2.182,1.07,3.641
		v34.577c0,1.459,1.182,2.641,2.641,2.641h34.577c1.459,0,2.641-1.182,2.641-2.641V3.641C40.93,2.182,39.747,1,38.289,1L38.289,1z"
		/>
</g>
<g>
	<linearGradient id="SVGID_1_" gradientUnits="userSpaceOnUse" x1="20.9994" y1="38.5818" x2="20.9994" y2="3.2768">
		<stop  offset="0" style="stop-color:#00AEF9"/>
		<stop  offset="1" style="stop-color:#0092E1"/>
	</linearGradient>
	<path fill="url(#SVGID_1_)" d="M3.711,38.582c-0.2,0-0.364-0.164-0.364-0.364V3.641c0-0.2,0.164-0.364,0.364-0.364h34.578
		c0.2,0,0.363,0.164,0.363,0.364v34.577c0,0.2-0.163,0.364-0.363,0.364H3.711z"/>
</g>
<g>
	<g>
		<g>
			<polygon fill="#F5F5F5" points="8.859,9.512 11.989,6.926 11.989,12.099 			"/>
			<path fill="#F5F5F5" d="M20.481,15.812c-1.593-1.882-2.614-3.184-3.12-3.978c-0.685-1.077-1.214-1.272-1.393-1.284l-4.741,0.028
				V8.381h4.41c0.599-0.087,2.105-0.037,3.578,2.274c0.306,0.481,1.065,1.521,2.942,3.739L20.481,15.812z"/>
		</g>
		<g>
			<polygon fill="#F5F5F5" points="33.14,19.698 30.01,22.284 30.01,17.112 			"/>
			<path fill="#F5F5F5" d="M21.518,13.398c1.593,1.882,2.614,3.184,3.12,3.978c0.685,1.077,1.214,1.272,1.393,1.284l4.741-0.028
				v2.197h-4.41c-0.599,0.087-2.105,0.037-3.578-2.274c-0.306-0.481-1.065-1.521-2.942-3.739L21.518,13.398z"/>
		</g>
	</g>
	<g>
		<g>
			<polygon fill="#F5F5F5" points="33.14,9.512 30.01,6.926 30.01,12.099 			"/>
			<path fill="#F5F5F5" d="M21.518,15.812c1.593-1.882,2.614-3.184,3.12-3.978c0.685-1.077,1.214-1.272,1.393-1.284l4.741,0.028
				V8.381h-4.41c-0.599-0.087-2.105-0.037-3.578,2.274c-0.306,0.481-1.065,1.521-2.942,3.739L21.518,15.812z"/>
		</g>
		<g>
			<polygon fill="#F5F5F5" points="8.859,19.698 11.989,22.284 11.989,17.112 			"/>
			<path fill="#F5F5F5" d="M20.481,13.398c-1.593,1.882-2.614,3.184-3.12,3.978c-0.685,1.077-1.214,1.272-1.393,1.284l-4.741-0.028
				v2.197h4.41c0.599,0.087,2.105,0.037,3.578-2.274c0.306-0.481,1.065-1.521,2.942-3.739L20.481,13.398z"/>
		</g>
	</g>
</g>
<g>
	<path fill="#FFFFFF" d="M7.281,37.405v-7.926h4.96v0.936H8.254v2.455h3.451v0.935H8.254v3.601H7.281z"/>
	<path fill="#FFFFFF" d="M13.14,35.329l0.947-0.086c0.07,0.498,0.233,0.872,0.489,1.122s0.564,0.375,0.926,0.375
		c0.435,0,0.802-0.176,1.103-0.53c0.302-0.353,0.452-0.822,0.452-1.406c0-0.555-0.146-0.993-0.435-1.313s-0.668-0.481-1.136-0.481
		c-0.291,0-0.554,0.071-0.787,0.214c-0.234,0.142-0.418,0.327-0.552,0.554L13.3,33.658l0.712-4.071h3.656v0.93h-2.934l-0.396,2.13
		c0.441-0.332,0.904-0.498,1.39-0.498c0.642,0,1.184,0.24,1.625,0.719c0.441,0.479,0.662,1.096,0.662,1.849
		c0,0.717-0.194,1.337-0.582,1.86c-0.472,0.642-1.115,0.962-1.931,0.962c-0.669,0-1.215-0.202-1.638-0.605
		C13.44,36.531,13.199,35.996,13.14,35.329z"/>
	<path fill="#FFFFFF" d="M18.853,33.496c0-0.937,0.089-1.691,0.268-2.263s0.445-1.012,0.798-1.322s0.797-0.465,1.331-0.465
		c0.395,0,0.741,0.085,1.039,0.257c0.297,0.171,0.543,0.418,0.737,0.741c0.193,0.322,0.346,0.715,0.456,1.178
		c0.11,0.463,0.165,1.088,0.165,1.874c0,0.93-0.088,1.681-0.266,2.251c-0.177,0.571-0.442,1.013-0.795,1.325
		c-0.353,0.312-0.798,0.468-1.337,0.468c-0.708,0-1.266-0.274-1.67-0.822C19.095,36.059,18.853,34.985,18.853,33.496z M19.78,33.496
		c0,1.301,0.141,2.167,0.424,2.598c0.282,0.431,0.631,0.646,1.045,0.646c0.415,0,0.764-0.216,1.046-0.649
		c0.283-0.432,0.424-1.297,0.424-2.595c0-1.305-0.141-2.171-0.424-2.601c-0.282-0.429-0.634-0.643-1.056-0.643
		c-0.414,0-0.745,0.189-0.993,0.567C19.936,31.303,19.78,32.195,19.78,33.496z"/>
	<path fill="#FFFFFF" d="M24.565,33.496c0-0.937,0.089-1.691,0.268-2.263s0.445-1.012,0.798-1.322s0.797-0.465,1.331-0.465
		c0.395,0,0.741,0.085,1.039,0.257c0.297,0.171,0.543,0.418,0.737,0.741c0.193,0.322,0.346,0.715,0.456,1.178
		c0.11,0.463,0.165,1.088,0.165,1.874c0,0.93-0.088,1.681-0.266,2.251c-0.177,0.571-0.442,1.013-0.795,1.325
		c-0.353,0.312-0.798,0.468-1.337,0.468c-0.708,0-1.266-0.274-1.67-0.822C24.808,36.059,24.565,34.985,24.565,33.496z
		 M25.493,33.496c0,1.301,0.141,2.167,0.424,2.598c0.282,0.431,0.631,0.646,1.045,0.646c0.415,0,0.764-0.216,1.046-0.649
		c0.283-0.432,0.424-1.297,0.424-2.595c0-1.305-0.141-2.171-0.424-2.601c-0.282-0.429-0.634-0.643-1.056-0.643
		c-0.414,0-0.745,0.189-0.993,0.567C25.648,31.303,25.493,32.195,25.493,33.496z"/>
	<path fill="#FFFFFF" d="M30.278,33.496c0-0.937,0.089-1.691,0.268-2.263s0.445-1.012,0.798-1.322s0.797-0.465,1.331-0.465
		c0.395,0,0.741,0.085,1.039,0.257c0.297,0.171,0.543,0.418,0.737,0.741c0.193,0.322,0.346,0.715,0.456,1.178
		c0.11,0.463,0.165,1.088,0.165,1.874c0,0.93-0.088,1.681-0.266,2.251c-0.177,0.571-0.442,1.013-0.795,1.325
		c-0.353,0.312-0.798,0.468-1.337,0.468c-0.708,0-1.266-0.274-1.67-0.822C30.521,36.059,30.278,34.985,30.278,33.496z
		 M31.206,33.496c0,1.301,0.141,2.167,0.424,2.598c0.282,0.431,0.631,0.646,1.045,0.646c0.415,0,0.764-0.216,1.046-0.649
		c0.283-0.432,0.424-1.297,0.424-2.595c0-1.305-0.141-2.171-0.424-2.601c-0.282-0.429-0.634-0.643-1.056-0.643
		c-0.414,0-0.745,0.189-0.993,0.567C31.361,31.303,31.206,32.195,31.206,33.496z"/>
</g>
<g>
	<path fill="#FFFFFF" d="M15.442,22.871h0.95v2.747c0,0.436,0.012,0.719,0.035,0.848c0.041,0.208,0.138,0.375,0.291,0.5
		c0.152,0.126,0.362,0.188,0.627,0.188c0.27,0,0.474-0.059,0.61-0.178c0.137-0.119,0.219-0.265,0.247-0.438
		c0.027-0.173,0.042-0.46,0.042-0.861v-2.806h0.95v2.664c0,0.609-0.026,1.039-0.077,1.291c-0.052,0.251-0.146,0.464-0.284,0.637
		c-0.139,0.173-0.323,0.311-0.554,0.414c-0.231,0.103-0.533,0.154-0.905,0.154c-0.449,0-0.79-0.056-1.022-0.168
		c-0.232-0.112-0.416-0.257-0.551-0.436s-0.224-0.366-0.267-0.563c-0.062-0.291-0.093-0.72-0.093-1.287V22.871z"/>
	<path fill="#FFFFFF" d="M21.766,27.943v-1.021H19.84v-0.852l2.041-3.221h0.758v3.218h0.584v0.855h-0.584v1.021H21.766z
		 M21.766,26.067v-1.733l-1.082,1.733H21.766z"/>
	<path fill="#FFFFFF" d="M25.178,22.85c0.456,0,0.813,0.175,1.069,0.526c0.306,0.415,0.459,1.104,0.459,2.065
		c0,0.959-0.154,1.649-0.463,2.069c-0.254,0.346-0.609,0.519-1.065,0.519c-0.458,0-0.827-0.189-1.107-0.569
		c-0.28-0.38-0.42-1.056-0.42-2.029c0-0.955,0.153-1.643,0.462-2.063C24.367,23.023,24.722,22.85,25.178,22.85z M25.178,23.656
		c-0.109,0-0.206,0.038-0.292,0.113c-0.086,0.075-0.151,0.209-0.199,0.403c-0.062,0.251-0.093,0.675-0.093,1.27
		s0.027,1.004,0.083,1.227s0.126,0.371,0.211,0.444c0.084,0.074,0.181,0.111,0.29,0.111s0.207-0.038,0.292-0.112
		c0.086-0.075,0.152-0.209,0.199-0.403c0.063-0.249,0.093-0.671,0.093-1.266s-0.027-1.004-0.083-1.227s-0.126-0.372-0.21-0.446
		C25.384,23.693,25.287,23.656,25.178,23.656z"/>
</g>
</svg>
