<?xml version="1.0" encoding="utf-8"?>
<!-- Generator: Adobe Illustrator 18.0.0, SVG Export Plug-In . SVG Version: 6.00 Build 0)  -->
<!DOCTYPE svg PUBLIC "-//W3C//DTD SVG 1.1//EN" "http://www.w3.org/Graphics/SVG/1.1/DTD/svg11.dtd">
<svg version="1.1" id="图层_1" xmlns="http://www.w3.org/2000/svg" xmlns:xlink="http://www.w3.org/1999/xlink" x="0px" y="0px"
	 width="48px" height="48px" viewBox="0 0 48 48" enable-background="new 0 0 48 48" xml:space="preserve">
<g>
	<g>
		<path fill="#FFFFFF" d="M3.614,46.877c-1.374,0-2.491-1.117-2.491-2.491V3.614c0-1.374,1.117-2.491,2.491-2.491h40.771
			c1.374,0,2.491,1.118,2.491,2.491v40.771c0,1.374-1.117,2.491-2.491,2.491H3.614z"/>
		<path fill="#AFAFAF" d="M44.386,1.746c1.03,0,1.868,0.838,1.868,1.868v40.772c0,1.03-0.838,1.868-1.868,1.868H3.614
			c-1.03,0-1.868-0.838-1.868-1.868V3.614c0-1.03,0.838-1.868,1.868-1.868H44.386 M44.386,0.5H3.614C1.894,0.5,0.5,1.894,0.5,3.614
			v40.772c0,1.72,1.394,3.114,3.114,3.114h40.772c1.72,0,3.114-1.394,3.114-3.114V3.614C47.5,1.894,46.106,0.5,44.386,0.5
			L44.386,0.5z"/>
	</g>
	<g>
		<linearGradient id="SVGID_1_" gradientUnits="userSpaceOnUse" x1="23.9993" y1="44.8147" x2="23.9993" y2="3.1849">
			<stop  offset="0" style="stop-color:#FF1F30"/>
			<stop  offset="1" style="stop-color:#C3020F"/>
		</linearGradient>
		<path fill="url(#SVGID_1_)" d="M3.614,44.815c-0.236,0-0.429-0.193-0.429-0.429V3.614c0-0.236,0.193-0.429,0.429-0.429h40.773
			c0.236,0,0.428,0.193,0.428,0.429v40.771c0,0.236-0.192,0.429-0.428,0.429H3.614z"/>
	</g>
	<g>
		<g>
			<g>
				<polygon fill="#F5F5F5" points="9.684,10.538 13.374,7.488 13.374,13.587 				"/>
				<path fill="#F5F5F5" d="M23.388,17.966c-1.879-2.219-3.082-3.754-3.678-4.69c-0.808-1.27-1.431-1.5-1.642-1.514l-5.59,0.033
					V9.203h5.2c0.706-0.103,2.482-0.043,4.219,2.681c0.361,0.567,1.256,1.794,3.469,4.408L23.388,17.966z"/>
			</g>
			<g>
				<polygon fill="#F5F5F5" points="38.315,22.548 34.624,25.597 34.624,19.498 				"/>
				<path fill="#F5F5F5" d="M24.611,15.12c1.879,2.219,3.082,3.754,3.678,4.69c0.808,1.27,1.431,1.5,1.642,1.514l5.59-0.033v2.591
					h-5.2c-0.706,0.103-2.482,0.043-4.219-2.681c-0.361-0.567-1.256-1.794-3.469-4.408L24.611,15.12z"/>
			</g>
		</g>
		<g>
			<g>
				<polygon fill="#F5F5F5" points="38.315,10.538 34.624,7.488 34.624,13.587 				"/>
				<path fill="#F5F5F5" d="M24.611,17.966c1.879-2.219,3.082-3.754,3.678-4.69c0.808-1.27,1.431-1.5,1.642-1.514l5.59,0.033V9.203
					h-5.2c-0.706-0.103-2.482-0.043-4.219,2.681c-0.361,0.567-1.256,1.794-3.469,4.408L24.611,17.966z"/>
			</g>
			<g>
				<polygon fill="#F5F5F5" points="9.684,22.548 13.374,25.597 13.374,19.498 				"/>
				<path fill="#F5F5F5" d="M23.388,15.12c-1.879,2.219-3.082,3.754-3.678,4.69c-0.808,1.27-1.431,1.5-1.642,1.514l-5.59-0.033
					v2.591h5.2c0.706,0.103,2.482,0.043,4.219-2.681c0.361-0.567,1.256-1.794,3.469-4.408L23.388,15.12z"/>
			</g>
		</g>
	</g>
	<g>
		<path fill="#FFFFFF" d="M7.821,43.341v-9.346h5.849v1.103H8.969v2.895h4.068v1.103H8.969v4.245H7.821z"/>
		<path fill="#FFFFFF" d="M14.728,40.893l1.118-0.101c0.083,0.587,0.275,1.027,0.576,1.322c0.303,0.295,0.667,0.442,1.092,0.442
			c0.513,0,0.946-0.207,1.301-0.624c0.355-0.416,0.533-0.969,0.533-1.657c0-0.656-0.17-1.172-0.511-1.55
			c-0.342-0.378-0.788-0.567-1.341-0.567c-0.342,0-0.653,0.083-0.928,0.25c-0.276,0.169-0.493,0.387-0.651,0.654l-0.998-0.14
			l0.839-4.801h4.311v1.097h-3.459l-0.467,2.511c0.519-0.39,1.066-0.585,1.637-0.585c0.757,0,1.396,0.283,1.917,0.848
			s0.78,1.292,0.78,2.179c0,0.846-0.229,1.577-0.687,2.193c-0.556,0.757-1.315,1.135-2.276,1.135c-0.789,0-1.433-0.238-1.931-0.714
			C15.084,42.31,14.8,41.679,14.728,40.893z"/>
		<path fill="#FFFFFF" d="M21.464,38.732c0-1.104,0.106-1.994,0.316-2.668c0.212-0.674,0.525-1.193,0.941-1.559
			c0.415-0.366,0.938-0.548,1.57-0.548c0.465,0,0.872,0.101,1.224,0.303c0.35,0.203,0.64,0.493,0.869,0.874
			c0.229,0.381,0.409,0.843,0.538,1.39c0.131,0.545,0.195,1.282,0.195,2.209c0,1.097-0.104,1.981-0.313,2.655
			c-0.209,0.673-0.521,1.193-0.937,1.562c-0.416,0.367-0.941,0.551-1.576,0.551c-0.836,0-1.493-0.323-1.969-0.969
			C21.75,41.753,21.464,40.487,21.464,38.732z M22.559,38.732c0,1.534,0.166,2.556,0.499,3.062c0.333,0.508,0.745,0.762,1.233,0.762
			c0.488,0,0.9-0.255,1.233-0.765c0.333-0.51,0.499-1.53,0.499-3.059c0-1.539-0.166-2.56-0.499-3.066
			c-0.333-0.507-0.748-0.759-1.246-0.759c-0.488,0-0.879,0.223-1.17,0.67C22.742,36.145,22.559,37.197,22.559,38.732z"/>
		<path fill="#FFFFFF" d="M28.201,38.732c0-1.104,0.106-1.994,0.316-2.668c0.212-0.674,0.525-1.193,0.941-1.559
			c0.415-0.366,0.938-0.548,1.57-0.548c0.465,0,0.872,0.101,1.224,0.303c0.35,0.203,0.64,0.493,0.869,0.874
			c0.229,0.381,0.409,0.843,0.538,1.39c0.131,0.545,0.195,1.282,0.195,2.209c0,1.097-0.104,1.981-0.313,2.655
			c-0.209,0.673-0.521,1.193-0.937,1.562c-0.416,0.367-0.941,0.551-1.576,0.551c-0.836,0-1.493-0.323-1.969-0.969
			C28.486,41.753,28.201,40.487,28.201,38.732z M29.296,38.732c0,1.534,0.166,2.556,0.499,3.062
			c0.333,0.508,0.745,0.762,1.233,0.762s0.9-0.255,1.233-0.765c0.333-0.51,0.499-1.53,0.499-3.059c0-1.539-0.166-2.56-0.499-3.066
			c-0.333-0.507-0.748-0.759-1.246-0.759c-0.488,0-0.879,0.223-1.17,0.67C29.478,36.145,29.296,37.197,29.296,38.732z"/>
		<path fill="#FFFFFF" d="M34.937,38.732c0-1.104,0.106-1.994,0.316-2.668c0.212-0.674,0.525-1.193,0.941-1.559
			c0.415-0.366,0.938-0.548,1.57-0.548c0.465,0,0.872,0.101,1.224,0.303c0.35,0.203,0.64,0.493,0.869,0.874
			c0.229,0.381,0.409,0.843,0.538,1.39c0.131,0.545,0.195,1.282,0.195,2.209c0,1.097-0.104,1.981-0.313,2.655
			c-0.209,0.673-0.521,1.193-0.937,1.562c-0.416,0.367-0.941,0.551-1.576,0.551c-0.836,0-1.493-0.323-1.969-0.969
			C35.222,41.753,34.937,40.487,34.937,38.732z M36.032,38.732c0,1.534,0.166,2.556,0.499,3.062
			c0.333,0.508,0.745,0.762,1.233,0.762s0.9-0.255,1.233-0.765c0.333-0.51,0.499-1.53,0.499-3.059c0-1.539-0.166-2.56-0.499-3.066
			c-0.333-0.507-0.748-0.759-1.246-0.759c-0.488,0-0.879,0.223-1.17,0.67C36.215,36.145,36.032,37.197,36.032,38.732z"/>
	</g>
	<g>
		<path fill="#FFFFFF" d="M17.442,26.202h1.121v3.241c0,0.515,0.014,0.848,0.041,1.001c0.048,0.244,0.163,0.441,0.342,0.588
			c0.181,0.149,0.427,0.223,0.74,0.223c0.318,0,0.558-0.069,0.72-0.21c0.161-0.14,0.258-0.312,0.292-0.516
			c0.032-0.204,0.049-0.544,0.049-1.017v-3.31h1.12v3.142c0,0.719-0.029,1.226-0.091,1.524c-0.06,0.296-0.172,0.547-0.335,0.751
			c-0.163,0.203-0.381,0.366-0.653,0.487c-0.273,0.121-0.63,0.181-1.069,0.181c-0.53,0-0.931-0.066-1.206-0.197
			c-0.273-0.132-0.49-0.304-0.648-0.515c-0.16-0.212-0.264-0.432-0.315-0.663c-0.074-0.342-0.111-0.849-0.111-1.519V26.202z"/>
		<path fill="#FFFFFF" d="M24.902,32.186v-1.204H22.63v-1.004l2.408-3.8h0.892v3.795h0.69v1.009h-0.69v1.204H24.902z M24.902,29.973
			v-2.044l-1.276,2.044H24.902z"/>
		<path fill="#FFFFFF" d="M28.925,26.178c0.539,0,0.958,0.207,1.261,0.62c0.361,0.49,0.542,1.302,0.542,2.436
			s-0.181,1.946-0.545,2.442c-0.301,0.409-0.719,0.611-1.258,0.611c-0.539,0-0.975-0.223-1.305-0.671
			c-0.33-0.447-0.496-1.246-0.496-2.393c0-1.127,0.181-1.938,0.545-2.433C27.97,26.382,28.388,26.178,28.925,26.178z M28.925,27.128
			c-0.127,0-0.243,0.045-0.344,0.134c-0.101,0.088-0.18,0.246-0.235,0.475c-0.072,0.296-0.109,0.796-0.109,1.497
			c0,0.703,0.032,1.186,0.098,1.448s0.147,0.438,0.247,0.524c0.1,0.088,0.215,0.131,0.342,0.131c0.129,0,0.244-0.045,0.346-0.132
			c0.101-0.089,0.178-0.247,0.235-0.476c0.072-0.293,0.109-0.791,0.109-1.494c0-0.702-0.032-1.184-0.098-1.447
			c-0.066-0.261-0.149-0.438-0.247-0.525C29.17,27.173,29.054,27.128,28.925,27.128z"/>
	</g>
</g>
</svg>
