<?xml version="1.0" encoding="utf-8"?>
<!-- Generator: Adobe Illustrator 18.0.0, SVG Export Plug-In . SVG Version: 6.00 Build 0)  -->
<!DOCTYPE svg PUBLIC "-//W3C//DTD SVG 1.1//EN" "http://www.w3.org/Graphics/SVG/1.1/DTD/svg11.dtd">
<svg version="1.1" id="图层_1" xmlns="http://www.w3.org/2000/svg" xmlns:xlink="http://www.w3.org/1999/xlink" x="0px" y="0px"
	 width="32px" height="32px" viewBox="0 0 32 32" enable-background="new 0 0 32 32" xml:space="preserve">
<g>
	<path fill="#FFFFFF" d="M3.038,30.52c-0.874,0-1.584-0.71-1.584-1.583V3.012c0-0.874,0.71-1.584,1.584-1.584h25.925
		c0.874,0,1.584,0.711,1.584,1.584v25.925c0,0.873-0.71,1.583-1.584,1.583H3.038z"/>
	<path fill="#AFAFAF" d="M28.962,1.824c0.655,0,1.188,0.533,1.188,1.188v25.924c0,0.655-0.533,1.188-1.188,1.188H3.038
		c-0.655,0-1.188-0.533-1.188-1.188V3.012c0-0.655,0.533-1.188,1.188-1.188H28.962 M28.962,1.031H3.038
		c-1.094,0-1.98,0.887-1.98,1.98v25.924c0,1.094,0.887,1.98,1.98,1.98h25.924c1.094,0,1.98-0.887,1.98-1.98V3.012
		C30.942,1.918,30.056,1.031,28.962,1.031L28.962,1.031z"/>
</g>
<g>
	<linearGradient id="SVGID_1_" gradientUnits="userSpaceOnUse" x1="15.9996" y1="29.2088" x2="15.9996" y2="2.7387">
		<stop  offset="0" style="stop-color:#F1E821"/>
		<stop  offset="1" style="stop-color:#D6B900"/>
	</linearGradient>
	<path fill="url(#SVGID_1_)" d="M3.038,29.209c-0.15,0-0.273-0.123-0.273-0.273V3.012c0-0.15,0.123-0.273,0.273-0.273h25.925
		c0.15,0,0.272,0.123,0.272,0.273v25.924c0,0.15-0.122,0.273-0.272,0.273H3.038z"/>
</g>
<g>
	<g>
		<g>
			<polygon fill="#A37C00" points="6.897,7.414 9.244,5.475 9.244,9.353 			"/>
			<path fill="#A37C00" d="M15.611,12.137c-1.195-1.411-1.96-2.387-2.339-2.982c-0.514-0.808-0.91-0.953-1.044-0.963L8.673,8.213
				V6.565h3.306c0.449-0.065,1.578-0.028,2.682,1.705c0.23,0.361,0.798,1.141,2.206,2.803L15.611,12.137z"/>
		</g>
		<g>
			<polygon fill="#A37C00" points="25.102,15.05 22.755,16.989 22.755,13.112 			"/>
			<path fill="#A37C00" d="M16.388,10.327c1.195,1.411,1.96,2.387,2.339,2.982c0.514,0.808,0.91,0.953,1.044,0.963l3.554-0.021
				v1.647H20.02c-0.449,0.065-1.578,0.028-2.682-1.705c-0.23-0.361-0.798-1.141-2.206-2.803L16.388,10.327z"/>
		</g>
	</g>
	<g>
		<g>
			<polygon fill="#A37C00" points="25.102,7.414 22.755,5.475 22.755,9.353 			"/>
			<path fill="#A37C00" d="M16.388,12.137c1.195-1.411,1.96-2.387,2.339-2.982c0.514-0.808,0.91-0.953,1.044-0.963l3.554,0.021
				V6.565H20.02C19.57,6.5,18.441,6.538,17.337,8.27c-0.23,0.361-0.798,1.141-2.206,2.803L16.388,12.137z"/>
		</g>
		<g>
			<polygon fill="#A37C00" points="6.897,15.05 9.244,16.989 9.244,13.112 			"/>
			<path fill="#A37C00" d="M15.611,10.327c-1.195,1.411-1.96,2.387-2.339,2.982c-0.514,0.808-0.91,0.953-1.044,0.963l-3.554-0.021
				v1.647h3.306c0.449,0.065,1.578,0.028,2.682-1.705c0.23-0.361,0.798-1.141,2.206-2.803L15.611,10.327z"/>
		</g>
	</g>
</g>
<g>
	<path fill="#A37C00" d="M6.267,28.273v-5.942h3.719v0.701H6.996v1.841h2.587v0.701H6.996v2.699H6.267z"/>
	<path fill="#A37C00" d="M10.659,26.717l0.71-0.064c0.053,0.373,0.175,0.653,0.367,0.841s0.423,0.281,0.694,0.281
		c0.326,0,0.602-0.132,0.827-0.396s0.338-0.616,0.338-1.054c0-0.417-0.108-0.745-0.325-0.985s-0.5-0.36-0.852-0.36
		c-0.218,0-0.415,0.053-0.59,0.159c-0.176,0.107-0.313,0.246-0.414,0.416l-0.636-0.089l0.534-3.053h2.741v0.697h-2.2l-0.297,1.597
		c0.331-0.248,0.678-0.372,1.042-0.372c0.481,0,0.888,0.18,1.219,0.539c0.331,0.359,0.496,0.821,0.496,1.386
		c0,0.538-0.146,1.003-0.436,1.395c-0.354,0.481-0.836,0.722-1.448,0.722c-0.501,0-0.911-0.151-1.228-0.454
		C10.885,27.618,10.704,27.217,10.659,26.717z"/>
	<path fill="#A37C00" d="M14.942,25.343c0-0.702,0.067-1.268,0.201-1.696c0.134-0.429,0.333-0.759,0.598-0.991
		s0.597-0.349,0.999-0.349c0.296,0,0.555,0.064,0.778,0.192c0.223,0.129,0.407,0.313,0.553,0.556s0.259,0.536,0.342,0.884
		c0.083,0.347,0.124,0.815,0.124,1.404c0,0.697-0.066,1.26-0.199,1.688c-0.133,0.428-0.332,0.759-0.596,0.993
		c-0.265,0.233-0.599,0.351-1.002,0.351c-0.532,0-0.949-0.205-1.252-0.616C15.124,27.264,14.942,26.459,14.942,25.343z
		 M15.637,25.343c0,0.976,0.106,1.625,0.318,1.947c0.212,0.323,0.473,0.484,0.784,0.484c0.311,0,0.572-0.162,0.784-0.486
		c0.212-0.324,0.318-0.973,0.318-1.945c0-0.979-0.106-1.628-0.318-1.949c-0.211-0.322-0.476-0.482-0.792-0.482
		c-0.311,0-0.559,0.142-0.744,0.426C15.754,23.698,15.637,24.367,15.637,25.343z"/>
	<path fill="#A37C00" d="M19.225,25.343c0-0.702,0.067-1.268,0.201-1.696c0.134-0.429,0.333-0.759,0.598-0.991
		s0.597-0.349,0.999-0.349c0.296,0,0.555,0.064,0.778,0.192c0.223,0.129,0.407,0.313,0.553,0.556s0.259,0.536,0.342,0.884
		c0.083,0.347,0.124,0.815,0.124,1.404c0,0.697-0.066,1.26-0.199,1.688c-0.133,0.428-0.332,0.759-0.596,0.993
		c-0.265,0.233-0.599,0.351-1.002,0.351c-0.532,0-0.949-0.205-1.252-0.616C19.407,27.264,19.225,26.459,19.225,25.343z
		 M19.92,25.343c0,0.976,0.106,1.625,0.318,1.947c0.212,0.323,0.473,0.484,0.784,0.484c0.311,0,0.572-0.162,0.784-0.486
		c0.212-0.324,0.318-0.973,0.318-1.945c0-0.979-0.106-1.628-0.318-1.949c-0.211-0.322-0.476-0.482-0.792-0.482
		c-0.311,0-0.559,0.142-0.744,0.426C20.037,23.698,19.92,24.367,19.92,25.343z"/>
	<path fill="#A37C00" d="M23.508,25.343c0-0.702,0.067-1.268,0.201-1.696c0.134-0.429,0.333-0.759,0.598-0.991
		s0.597-0.349,0.999-0.349c0.296,0,0.555,0.064,0.778,0.192c0.223,0.129,0.407,0.313,0.553,0.556s0.259,0.536,0.342,0.884
		c0.083,0.347,0.124,0.815,0.124,1.404c0,0.697-0.066,1.26-0.199,1.688c-0.133,0.428-0.332,0.759-0.596,0.993
		c-0.265,0.233-0.599,0.351-1.002,0.351c-0.532,0-0.949-0.205-1.252-0.616C23.69,27.264,23.508,26.459,23.508,25.343z
		 M24.204,25.343c0,0.976,0.106,1.625,0.318,1.947c0.212,0.323,0.473,0.484,0.784,0.484c0.311,0,0.572-0.162,0.784-0.486
		c0.212-0.324,0.318-0.973,0.318-1.945c0-0.979-0.106-1.628-0.318-1.949c-0.211-0.322-0.476-0.482-0.792-0.482
		c-0.311,0-0.559,0.142-0.744,0.426C24.32,23.698,24.204,24.367,24.204,25.343z"/>
</g>
<g>
	<path fill="#A37C00" d="M12.384,17.374h0.712v2.061c0,0.327,0.009,0.539,0.026,0.636c0.031,0.156,0.104,0.281,0.218,0.375
		c0.115,0.095,0.271,0.142,0.471,0.142c0.202,0,0.354-0.044,0.457-0.134c0.103-0.089,0.165-0.198,0.186-0.328
		s0.031-0.346,0.031-0.646v-2.104h0.713v1.998c0,0.457-0.02,0.78-0.058,0.969s-0.109,0.348-0.213,0.478
		c-0.104,0.129-0.242,0.232-0.416,0.31s-0.399,0.115-0.679,0.115c-0.337,0-0.593-0.042-0.767-0.125
		c-0.174-0.084-0.312-0.193-0.413-0.327c-0.101-0.135-0.168-0.274-0.2-0.422c-0.047-0.219-0.07-0.54-0.07-0.966V17.374z"/>
	<path fill="#A37C00" d="M17.127,21.179v-0.766h-1.445v-0.639l1.531-2.416h0.568v2.413h0.438v0.642h-0.438v0.766H17.127z
		 M17.127,19.771v-1.3l-0.812,1.3H17.127z"/>
	<path fill="#A37C00" d="M19.686,17.358c0.342,0,0.609,0.132,0.802,0.395c0.229,0.312,0.344,0.828,0.344,1.549
		c0,0.72-0.116,1.237-0.347,1.553c-0.191,0.26-0.458,0.389-0.799,0.389c-0.343,0-0.621-0.142-0.831-0.427
		c-0.21-0.284-0.315-0.791-0.315-1.521c0-0.717,0.116-1.232,0.347-1.547C19.078,17.488,19.344,17.358,19.686,17.358z M19.686,17.963
		c-0.082,0-0.155,0.028-0.219,0.085c-0.064,0.056-0.114,0.156-0.149,0.302c-0.047,0.188-0.07,0.506-0.07,0.952
		c0,0.447,0.021,0.754,0.063,0.921c0.042,0.167,0.094,0.278,0.158,0.333c0.063,0.056,0.136,0.083,0.218,0.083
		s0.155-0.028,0.219-0.084c0.064-0.057,0.114-0.157,0.149-0.303c0.047-0.187,0.07-0.503,0.07-0.95c0-0.446-0.021-0.753-0.063-0.92
		c-0.042-0.166-0.094-0.278-0.158-0.334C19.84,17.991,19.768,17.963,19.686,17.963z"/>
</g>
</svg>
