<?xml version="1.0" encoding="utf-8"?>
<!-- Generator: Adobe Illustrator 18.0.0, SVG Export Plug-In . SVG Version: 6.00 Build 0)  -->
<!DOCTYPE svg PUBLIC "-//W3C//DTD SVG 1.1//EN" "http://www.w3.org/Graphics/SVG/1.1/DTD/svg11.dtd">
<svg version="1.1" id="图层_1" xmlns="http://www.w3.org/2000/svg" xmlns:xlink="http://www.w3.org/1999/xlink" x="0px" y="0px"
	 width="48px" height="48px" viewBox="0 0 48 48" enable-background="new 0 0 48 48" xml:space="preserve">
<g>
	<g>
		<path fill="#FFFFFF" d="M3.614,46.877c-1.374,0-2.491-1.117-2.491-2.491V3.614c0-1.374,1.118-2.491,2.491-2.491h40.771
			c1.374,0,2.491,1.118,2.491,2.491v40.771c0,1.374-1.118,2.491-2.491,2.491H3.614z"/>
		<path fill="#AFAFAF" d="M44.386,1.746c1.03,0,1.868,0.838,1.868,1.868v40.772c0,1.03-0.838,1.868-1.868,1.868H3.614
			c-1.03,0-1.869-0.838-1.869-1.868V3.614c0-1.03,0.838-1.868,1.869-1.868H44.386 M44.386,0.5H3.614C1.894,0.5,0.5,1.894,0.5,3.614
			v40.772c0,1.72,1.394,3.114,3.114,3.114h40.772c1.72,0,3.114-1.394,3.114-3.114V3.614C47.5,1.894,46.106,0.5,44.386,0.5
			L44.386,0.5z"/>
	</g>
	<g>
		<linearGradient id="SVGID_1_" gradientUnits="userSpaceOnUse" x1="23.9993" y1="44.8148" x2="23.9993" y2="3.1849">
			<stop  offset="0" style="stop-color:#F1E821"/>
			<stop  offset="1" style="stop-color:#D6B900"/>
		</linearGradient>
		<path fill="url(#SVGID_1_)" d="M3.614,44.815c-0.236,0-0.429-0.193-0.429-0.429V3.614c0-0.236,0.193-0.429,0.429-0.429h40.773
			c0.236,0,0.428,0.193,0.428,0.429v40.771c0,0.236-0.192,0.429-0.428,0.429H3.614z"/>
	</g>
	<g>
		<g>
			<g>
				<polygon fill="#A37C00" points="9.684,10.538 13.374,7.488 13.374,13.587 				"/>
				<path fill="#A37C00" d="M23.388,17.966c-1.879-2.219-3.082-3.754-3.678-4.69c-0.808-1.27-1.431-1.5-1.642-1.514l-5.59,0.033
					V9.203h5.2c0.706-0.103,2.482-0.043,4.219,2.681c0.361,0.567,1.256,1.794,3.469,4.408L23.388,17.966z"/>
			</g>
			<g>
				<polygon fill="#A37C00" points="38.315,22.548 34.624,25.597 34.624,19.498 				"/>
				<path fill="#A37C00" d="M24.611,15.12c1.879,2.219,3.082,3.754,3.678,4.69c0.808,1.27,1.431,1.5,1.642,1.514l5.59-0.033v2.591
					h-5.2c-0.706,0.103-2.482,0.043-4.219-2.681c-0.361-0.567-1.256-1.794-3.469-4.408L24.611,15.12z"/>
			</g>
		</g>
		<g>
			<g>
				<polygon fill="#A37C00" points="38.315,10.538 34.624,7.488 34.624,13.587 				"/>
				<path fill="#A37C00" d="M24.611,17.966c1.879-2.219,3.082-3.754,3.678-4.69c0.808-1.27,1.431-1.5,1.642-1.514l5.59,0.033V9.203
					h-5.2c-0.706-0.103-2.482-0.043-4.219,2.681c-0.361,0.567-1.256,1.794-3.469,4.408L24.611,17.966z"/>
			</g>
			<g>
				<polygon fill="#A37C00" points="9.684,22.548 13.374,25.597 13.374,19.498 				"/>
				<path fill="#A37C00" d="M23.388,15.12c-1.879,2.219-3.082,3.754-3.678,4.69c-0.808,1.27-1.431,1.5-1.642,1.514l-5.59-0.033
					v2.591h5.2c0.706,0.103,2.482,0.043,4.219-2.681c0.361-0.567,1.256-1.794,3.469-4.408L23.388,15.12z"/>
			</g>
		</g>
	</g>
	<g>
		<path fill="#A37C00" d="M8.692,43.344v-9.346h5.849v1.103H9.839v2.895h4.068v1.103H9.839v4.245H8.692z"/>
		<path fill="#A37C00" d="M15.6,40.896l1.117-0.101c0.083,0.587,0.275,1.027,0.577,1.322c0.302,0.295,0.665,0.442,1.091,0.442
			c0.512,0,0.946-0.207,1.301-0.624c0.355-0.416,0.532-0.969,0.532-1.657c0-0.656-0.17-1.172-0.511-1.55s-0.787-0.567-1.339-0.567
			c-0.343,0-0.653,0.083-0.928,0.25c-0.276,0.169-0.493,0.387-0.65,0.654l-1-0.14l0.84-4.801h4.311v1.097h-3.46l-0.468,2.511
			c0.521-0.39,1.067-0.585,1.638-0.585c0.757,0,1.396,0.283,1.917,0.848c0.52,0.565,0.78,1.292,0.78,2.179
			c0,0.846-0.229,1.577-0.686,2.193c-0.556,0.757-1.315,1.135-2.277,1.135c-0.789,0-1.432-0.238-1.931-0.714
			C15.955,42.313,15.67,41.682,15.6,40.896z"/>
		<path fill="#A37C00" d="M22.336,38.735c0-1.104,0.105-1.994,0.316-2.668c0.21-0.674,0.524-1.193,0.94-1.559
			s0.939-0.548,1.57-0.548c0.465,0,0.873,0.101,1.224,0.303c0.351,0.203,0.64,0.493,0.869,0.874c0.229,0.381,0.408,0.843,0.538,1.39
			c0.13,0.545,0.195,1.282,0.195,2.209c0,1.097-0.104,1.981-0.313,2.655c-0.209,0.673-0.521,1.193-0.938,1.562
			c-0.416,0.367-0.941,0.551-1.576,0.551c-0.836,0-1.493-0.323-1.97-0.969C22.622,41.756,22.336,40.49,22.336,38.735z
			 M23.429,38.735c0,1.534,0.167,2.556,0.5,3.062c0.333,0.508,0.744,0.762,1.233,0.762c0.488,0,0.9-0.255,1.233-0.765
			c0.333-0.51,0.5-1.53,0.5-3.059c0-1.539-0.167-2.56-0.5-3.066c-0.333-0.507-0.748-0.759-1.245-0.759
			c-0.488,0-0.879,0.223-1.17,0.67C23.613,36.148,23.429,37.2,23.429,38.735z"/>
		<path fill="#A37C00" d="M29.072,38.735c0-1.104,0.105-1.994,0.316-2.668c0.21-0.674,0.524-1.193,0.94-1.559
			s0.939-0.548,1.57-0.548c0.465,0,0.873,0.101,1.224,0.303c0.351,0.203,0.64,0.493,0.869,0.874c0.229,0.381,0.408,0.843,0.538,1.39
			c0.13,0.545,0.195,1.282,0.195,2.209c0,1.097-0.104,1.981-0.313,2.655c-0.209,0.673-0.521,1.193-0.938,1.562
			c-0.416,0.367-0.941,0.551-1.576,0.551c-0.836,0-1.493-0.323-1.97-0.969C29.358,41.756,29.072,40.49,29.072,38.735z
			 M30.166,38.735c0,1.534,0.167,2.556,0.5,3.062c0.333,0.508,0.744,0.762,1.233,0.762c0.488,0,0.9-0.255,1.233-0.765
			c0.333-0.51,0.5-1.53,0.5-3.059c0-1.539-0.167-2.56-0.5-3.066c-0.333-0.507-0.748-0.759-1.245-0.759
			c-0.488,0-0.879,0.223-1.17,0.67C30.349,36.148,30.166,37.2,30.166,38.735z"/>
		<path fill="#A37C00" d="M35.808,38.735c0-1.104,0.105-1.994,0.316-2.668c0.21-0.674,0.524-1.193,0.94-1.559
			c0.416-0.366,0.939-0.548,1.57-0.548c0.465,0,0.873,0.101,1.224,0.303c0.351,0.203,0.64,0.493,0.869,0.874
			c0.229,0.381,0.408,0.843,0.538,1.39c0.13,0.545,0.195,1.282,0.195,2.209c0,1.097-0.104,1.981-0.313,2.655
			c-0.209,0.673-0.521,1.193-0.938,1.562c-0.416,0.367-0.941,0.551-1.576,0.551c-0.836,0-1.493-0.323-1.97-0.969
			C36.094,41.756,35.808,40.49,35.808,38.735z M36.902,38.735c0,1.534,0.167,2.556,0.5,3.062c0.333,0.508,0.744,0.762,1.233,0.762
			c0.488,0,0.9-0.255,1.233-0.765c0.333-0.51,0.5-1.53,0.5-3.059c0-1.539-0.167-2.56-0.5-3.066
			c-0.333-0.507-0.748-0.759-1.245-0.759c-0.488,0-0.879,0.223-1.17,0.67C37.085,36.148,36.902,37.2,36.902,38.735z"/>
	</g>
	<g>
		<path fill="#A37C00" d="M18.314,26.202h1.12v3.241c0,0.515,0.014,0.848,0.041,1c0.048,0.246,0.163,0.442,0.343,0.59
			c0.18,0.149,0.427,0.223,0.74,0.223c0.318,0,0.558-0.069,0.719-0.21c0.162-0.14,0.259-0.312,0.292-0.516
			c0.033-0.204,0.049-0.544,0.049-1.017v-3.31h1.121v3.142c0,0.719-0.031,1.227-0.091,1.524c-0.061,0.296-0.172,0.547-0.335,0.751
			c-0.163,0.203-0.381,0.366-0.654,0.487c-0.273,0.121-0.628,0.181-1.067,0.181c-0.53,0-0.932-0.066-1.206-0.197
			c-0.274-0.132-0.491-0.304-0.65-0.515c-0.159-0.212-0.264-0.432-0.314-0.663c-0.074-0.344-0.11-0.849-0.11-1.519V26.202z"/>
		<path fill="#A37C00" d="M25.772,32.186v-1.204H23.5v-1.004l2.408-3.8h0.894v3.795h0.689v1.009h-0.689v1.204H25.772z
			 M25.772,29.973v-2.044l-1.276,2.044H25.772z"/>
		<path fill="#A37C00" d="M29.797,26.178c0.538,0,0.958,0.207,1.261,0.62c0.361,0.49,0.541,1.302,0.541,2.436
			c0,1.132-0.182,1.946-0.545,2.442c-0.3,0.409-0.72,0.611-1.257,0.611c-0.54,0-0.976-0.223-1.306-0.671
			c-0.331-0.447-0.496-1.244-0.496-2.393c0-1.127,0.182-1.938,0.545-2.433C28.84,26.382,29.26,26.178,29.797,26.178z M29.797,27.128
			c-0.129,0-0.243,0.045-0.345,0.134c-0.101,0.088-0.179,0.246-0.234,0.475c-0.074,0.296-0.11,0.796-0.11,1.497
			c0,0.703,0.032,1.186,0.098,1.448c0.065,0.263,0.148,0.438,0.248,0.524c0.1,0.088,0.213,0.131,0.342,0.131
			s0.243-0.045,0.345-0.132c0.101-0.089,0.179-0.247,0.234-0.476c0.074-0.293,0.11-0.791,0.11-1.494
			c0-0.702-0.032-1.184-0.098-1.447c-0.065-0.261-0.148-0.438-0.248-0.525C30.04,27.173,29.926,27.128,29.797,27.128z"/>
	</g>
</g>
</svg>
