<?xml version="1.0" encoding="utf-8"?>
<!-- Generator: Adobe Illustrator 18.0.0, SVG Export Plug-In . SVG Version: 6.00 Build 0)  -->
<!DOCTYPE svg PUBLIC "-//W3C//DTD SVG 1.1//EN" "http://www.w3.org/Graphics/SVG/1.1/DTD/svg11.dtd">
<svg version="1.1" id="图层_1" xmlns="http://www.w3.org/2000/svg" xmlns:xlink="http://www.w3.org/1999/xlink" x="0px" y="0px"
	 width="42px" height="42px" viewBox="0 0 42 42" enable-background="new 0 0 42 42" xml:space="preserve">
<g>
	<g>
		<path fill="#FFFFFF" d="M3.65,40.47c-1.169,0-2.12-0.951-2.12-2.12V3.65c0-1.169,0.951-2.12,2.12-2.12H38.35
			c1.169,0,2.12,0.951,2.12,2.12V38.35c0,1.169-0.951,2.12-2.12,2.12H3.65z"/>
		<path fill="#AFAFAF" d="M38.35,2.06c0.877,0,1.59,0.713,1.59,1.59V38.35c0,0.877-0.713,1.59-1.59,1.59H3.65
			c-0.877,0-1.59-0.713-1.59-1.59V3.65c0-0.877,0.713-1.59,1.59-1.59H38.35 M38.35,1H3.65C2.187,1,1,2.187,1,3.65V38.35
			C1,39.813,2.187,41,3.65,41H38.35c1.464,0,2.65-1.187,2.65-2.65V3.65C41,2.187,39.813,1,38.35,1L38.35,1z"/>
	</g>
	<g>
		<linearGradient id="SVGID_1_" gradientUnits="userSpaceOnUse" x1="20.9994" y1="38.7147" x2="20.9994" y2="3.285">
			<stop  offset="0" style="stop-color:#F1E821"/>
			<stop  offset="1" style="stop-color:#D6B900"/>
		</linearGradient>
		<path fill="url(#SVGID_1_)" d="M3.65,38.715c-0.201,0-0.366-0.165-0.366-0.366V3.651c0-0.201,0.165-0.366,0.366-0.366h34.7
			c0.201,0,0.364,0.165,0.364,0.366v34.699c0,0.201-0.163,0.366-0.364,0.366H3.65z"/>
	</g>
	<g>
		<g>
			<g>
				<polygon fill="#A37C00" points="8.816,9.543 11.957,6.948 11.957,12.138 				"/>
				<path fill="#A37C00" d="M20.479,15.864c-1.599-1.888-2.623-3.195-3.131-3.992c-0.687-1.081-1.218-1.276-1.398-1.289
					l-4.757,0.028V8.407h4.425c0.601-0.088,2.113-0.037,3.59,2.282c0.308,0.483,1.069,1.527,2.952,3.752L20.479,15.864z"/>
			</g>
			<g>
				<polygon fill="#A37C00" points="33.183,19.764 30.042,22.359 30.042,17.169 				"/>
				<path fill="#A37C00" d="M21.52,13.442c1.599,1.888,2.623,3.195,3.131,3.992c0.687,1.081,1.218,1.276,1.398,1.289l4.757-0.028
					V20.9H26.38c-0.601,0.088-2.113,0.037-3.59-2.282c-0.308-0.483-1.069-1.527-2.952-3.752L21.52,13.442z"/>
			</g>
		</g>
		<g>
			<g>
				<polygon fill="#A37C00" points="33.183,9.543 30.042,6.948 30.042,12.138 				"/>
				<path fill="#A37C00" d="M21.52,15.864c1.599-1.888,2.623-3.195,3.131-3.992c0.687-1.081,1.218-1.276,1.398-1.289l4.757,0.028
					V8.407H26.38c-0.601-0.088-2.113-0.037-3.59,2.282c-0.308,0.483-1.069,1.527-2.952,3.752L21.52,15.864z"/>
			</g>
			<g>
				<polygon fill="#A37C00" points="8.816,19.764 11.957,22.359 11.957,17.169 				"/>
				<path fill="#A37C00" d="M20.479,13.442c-1.599,1.888-2.623,3.195-3.131,3.992c-0.687,1.081-1.218,1.276-1.398,1.289
					l-4.757-0.028V20.9h4.425c0.601,0.088,2.113,0.037,3.59-2.282c0.308-0.483,1.069-1.527,2.952-3.752L20.479,13.442z"/>
			</g>
		</g>
	</g>
	<g>
		<path fill="#A37C00" d="M7.972,37.463v-7.954h4.977v0.939H8.948v2.464h3.463v0.939H8.948v3.613H7.972z"/>
		<path fill="#A37C00" d="M13.851,35.379l0.951-0.086c0.071,0.499,0.234,0.874,0.491,1.125s0.566,0.376,0.929,0.376
			c0.436,0,0.805-0.176,1.107-0.531s0.453-0.825,0.453-1.41c0-0.558-0.145-0.997-0.435-1.319c-0.29-0.322-0.67-0.482-1.14-0.482
			c-0.292,0-0.556,0.071-0.79,0.213c-0.235,0.144-0.42,0.329-0.554,0.557l-0.851-0.119l0.715-4.086h3.669v0.933h-2.944l-0.398,2.137
			c0.443-0.332,0.908-0.498,1.394-0.498c0.644,0,1.188,0.241,1.631,0.722c0.442,0.481,0.664,1.099,0.664,1.855
			c0,0.72-0.195,1.342-0.584,1.867c-0.473,0.644-1.119,0.966-1.938,0.966c-0.671,0-1.219-0.203-1.644-0.608
			C14.153,36.586,13.911,36.048,13.851,35.379z"/>
		<path fill="#A37C00" d="M19.584,33.54c0-0.94,0.09-1.697,0.269-2.27c0.179-0.574,0.446-1.016,0.8-1.327
			c0.354-0.311,0.799-0.467,1.337-0.467c0.396,0,0.743,0.086,1.042,0.257c0.299,0.173,0.545,0.42,0.74,0.744
			c0.195,0.324,0.347,0.718,0.458,1.183c0.11,0.464,0.166,1.091,0.166,1.88c0,0.933-0.089,1.686-0.267,2.26
			c-0.178,0.573-0.444,1.016-0.798,1.329c-0.354,0.312-0.801,0.469-1.341,0.469c-0.712,0-1.271-0.274-1.676-0.825
			C19.827,36.111,19.584,35.034,19.584,33.54z M20.514,33.54c0,1.306,0.142,2.175,0.425,2.606c0.284,0.433,0.633,0.648,1.05,0.648
			c0.416,0,0.766-0.217,1.049-0.651c0.284-0.434,0.425-1.302,0.425-2.604c0-1.31-0.142-2.179-0.425-2.609
			c-0.283-0.431-0.637-0.646-1.059-0.646c-0.416,0-0.748,0.19-0.996,0.57C20.671,31.339,20.514,32.234,20.514,33.54z"/>
		<path fill="#A37C00" d="M25.317,33.54c0-0.94,0.09-1.697,0.269-2.27c0.179-0.574,0.446-1.016,0.8-1.327
			c0.354-0.311,0.799-0.467,1.337-0.467c0.396,0,0.743,0.086,1.042,0.257c0.299,0.173,0.545,0.42,0.74,0.744
			c0.195,0.324,0.347,0.718,0.458,1.183c0.11,0.464,0.166,1.091,0.166,1.88c0,0.933-0.089,1.686-0.267,2.26
			c-0.178,0.573-0.444,1.016-0.798,1.329c-0.354,0.312-0.801,0.469-1.341,0.469c-0.712,0-1.271-0.274-1.676-0.825
			C25.56,36.111,25.317,35.034,25.317,33.54z M26.247,33.54c0,1.306,0.142,2.175,0.425,2.606c0.284,0.433,0.633,0.648,1.05,0.648
			c0.416,0,0.766-0.217,1.049-0.651c0.284-0.434,0.425-1.302,0.425-2.604c0-1.31-0.142-2.179-0.425-2.609
			c-0.283-0.431-0.637-0.646-1.059-0.646c-0.416,0-0.748,0.19-0.996,0.57C26.404,31.339,26.247,32.234,26.247,33.54z"/>
		<path fill="#A37C00" d="M31.049,33.54c0-0.94,0.09-1.697,0.269-2.27c0.179-0.574,0.446-1.016,0.8-1.327
			c0.354-0.311,0.799-0.467,1.337-0.467c0.396,0,0.743,0.086,1.042,0.257c0.299,0.173,0.545,0.42,0.74,0.744
			c0.195,0.324,0.347,0.718,0.458,1.183c0.11,0.464,0.166,1.091,0.166,1.88c0,0.933-0.089,1.686-0.267,2.26
			c-0.178,0.573-0.444,1.016-0.798,1.329c-0.354,0.312-0.801,0.469-1.341,0.469c-0.712,0-1.271-0.274-1.676-0.825
			C31.292,36.111,31.049,35.034,31.049,33.54z M31.98,33.54c0,1.306,0.142,2.175,0.425,2.606c0.284,0.433,0.633,0.648,1.05,0.648
			c0.416,0,0.766-0.217,1.049-0.651c0.284-0.434,0.425-1.302,0.425-2.604c0-1.31-0.142-2.179-0.425-2.609
			c-0.283-0.431-0.637-0.646-1.059-0.646c-0.416,0-0.748,0.19-0.996,0.57C32.136,31.339,31.98,32.234,31.98,33.54z"/>
	</g>
	<g>
		<path fill="#A37C00" d="M15.946,23.715h0.864v2.498c0,0.395,0.011,0.652,0.032,0.771c0.037,0.188,0.125,0.34,0.265,0.455
			c0.139,0.114,0.329,0.17,0.571,0.17c0.245,0,0.43-0.053,0.554-0.161c0.125-0.109,0.199-0.242,0.225-0.399
			c0.025-0.157,0.038-0.418,0.038-0.783v-2.551h0.864v2.422c0,0.553-0.024,0.945-0.07,1.173c-0.047,0.228-0.133,0.421-0.258,0.579
			c-0.125,0.157-0.294,0.283-0.504,0.375c-0.21,0.094-0.484,0.141-0.823,0.141c-0.408,0-0.719-0.051-0.929-0.153
			c-0.211-0.102-0.378-0.234-0.501-0.397c-0.123-0.162-0.204-0.333-0.242-0.511c-0.057-0.264-0.085-0.655-0.085-1.17V23.715z"/>
		<path fill="#A37C00" d="M22.866,24.844l-0.794,0.094c-0.02-0.176-0.07-0.305-0.152-0.389c-0.082-0.084-0.188-0.127-0.318-0.127
			c-0.173,0-0.32,0.084-0.439,0.252c-0.12,0.168-0.195,0.517-0.226,1.048c0.204-0.26,0.458-0.391,0.762-0.391
			c0.342,0,0.636,0.141,0.88,0.423c0.244,0.281,0.366,0.643,0.366,1.088c0,0.472-0.128,0.85-0.385,1.135s-0.587,0.429-0.989,0.429
			c-0.432,0-0.787-0.181-1.065-0.543c-0.278-0.361-0.417-0.954-0.417-1.778c0-0.845,0.145-1.455,0.435-1.828
			c0.289-0.374,0.666-0.56,1.129-0.56c0.325,0,0.594,0.097,0.807,0.294C22.672,24.186,22.807,24.47,22.866,24.844z M21.007,26.772
			c0,0.286,0.062,0.509,0.184,0.665c0.123,0.156,0.262,0.234,0.42,0.234c0.152,0,0.278-0.064,0.379-0.193
			c0.101-0.128,0.152-0.337,0.152-0.629c0-0.3-0.054-0.52-0.163-0.659s-0.245-0.208-0.408-0.208c-0.158,0-0.291,0.066-0.4,0.199
			C21.061,26.315,21.007,26.512,21.007,26.772z"/>
		<path fill="#A37C00" d="M24.798,23.696c0.414,0,0.738,0.159,0.971,0.478c0.278,0.376,0.418,1.003,0.418,1.878
			c0,0.872-0.14,1.5-0.42,1.881c-0.231,0.315-0.555,0.472-0.969,0.472c-0.416,0-0.752-0.173-1.007-0.517
			c-0.255-0.346-0.382-0.96-0.382-1.846c0-0.868,0.14-1.493,0.42-1.875C24.06,23.852,24.383,23.696,24.798,23.696z M24.798,24.428
			c-0.099,0-0.188,0.034-0.266,0.102c-0.078,0.069-0.138,0.191-0.181,0.367c-0.057,0.228-0.085,0.613-0.085,1.154
			c0,0.541,0.025,0.913,0.076,1.115c0.05,0.202,0.114,0.337,0.191,0.404c0.077,0.067,0.165,0.102,0.264,0.102
			c0.099,0,0.188-0.034,0.266-0.103c0.077-0.067,0.139-0.191,0.181-0.366c0.057-0.227,0.084-0.611,0.084-1.152
			c0-0.541-0.025-0.913-0.076-1.115s-0.115-0.337-0.191-0.406C24.984,24.463,24.897,24.428,24.798,24.428z"/>
	</g>
</g>
</svg>
