<?xml version="1.0" encoding="utf-8"?>
<!-- Generator: Adobe Illustrator 18.0.0, SVG Export Plug-In . SVG Version: 6.00 Build 0)  -->
<!DOCTYPE svg PUBLIC "-//W3C//DTD SVG 1.1//EN" "http://www.w3.org/Graphics/SVG/1.1/DTD/svg11.dtd">
<svg version="1.1" id="图层_1" xmlns="http://www.w3.org/2000/svg" xmlns:xlink="http://www.w3.org/1999/xlink" x="0px" y="0px"
	 width="48px" height="48px" viewBox="0 0 48 48" enable-background="new 0 0 48 48" xml:space="preserve">
<g>
	<path fill="#FFFFFF" d="M3.609,46.882c-1.374,0-2.492-1.118-2.492-2.492V3.609c0-1.374,1.118-2.492,2.492-2.492h40.781
		c1.374,0,2.492,1.118,2.492,2.492v40.781c0,1.374-1.118,2.492-2.492,2.492H3.609z"/>
	<path fill="#AFAFAF" d="M44.391,1.74c1.031,0,1.869,0.838,1.869,1.869v40.781c0,1.031-0.838,1.869-1.869,1.869H3.609
		c-1.031,0-1.869-0.838-1.869-1.869V3.609c0-1.031,0.838-1.869,1.869-1.869H44.391 M44.391,0.494H3.609
		c-1.72,0-3.115,1.395-3.115,3.115v40.781c0,1.72,1.395,3.115,3.115,3.115h40.781c1.72,0,3.115-1.395,3.115-3.115V3.609
		C47.506,1.889,46.111,0.494,44.391,0.494L44.391,0.494z"/>
</g>
<g>
	<linearGradient id="SVGID_1_" gradientUnits="userSpaceOnUse" x1="23.9993" y1="44.8197" x2="23.9993" y2="3.18">
		<stop  offset="0" style="stop-color:#00AEF9"/>
		<stop  offset="1" style="stop-color:#0092E1"/>
	</linearGradient>
	<path fill="url(#SVGID_1_)" d="M3.609,44.82c-0.236,0-0.43-0.193-0.43-0.43V3.61c0-0.236,0.193-0.43,0.43-0.43h40.782
		c0.236,0,0.428,0.193,0.428,0.43V44.39c0,0.236-0.192,0.43-0.428,0.43H3.609z"/>
</g>
<g>
	<g>
		<g>
			<polygon fill="#F5F5F5" points="9.68,10.535 13.372,7.484 13.372,13.585 			"/>
			<path fill="#F5F5F5" d="M23.388,17.964c-1.879-2.219-3.083-3.755-3.679-4.691c-0.808-1.27-1.431-1.5-1.643-1.514l-5.591,0.033
				V9.2h5.201c0.707-0.103,2.483-0.043,4.22,2.682c0.361,0.567,1.256,1.794,3.47,4.409L23.388,17.964z"/>
		</g>
		<g>
			<polygon fill="#F5F5F5" points="38.318,22.547 34.627,25.598 34.627,19.497 			"/>
			<path fill="#F5F5F5" d="M24.611,15.118c1.879,2.219,3.083,3.755,3.679,4.691c0.808,1.27,1.431,1.5,1.643,1.514l5.591-0.033v2.591
				h-5.201c-0.707,0.103-2.483,0.043-4.22-2.682c-0.361-0.567-1.256-1.794-3.47-4.409L24.611,15.118z"/>
		</g>
	</g>
	<g>
		<g>
			<polygon fill="#F5F5F5" points="38.318,10.535 34.627,7.484 34.627,13.585 			"/>
			<path fill="#F5F5F5" d="M24.611,17.964c1.879-2.219,3.083-3.755,3.679-4.691c0.808-1.27,1.431-1.5,1.643-1.514l5.591,0.033V9.2
				h-5.201c-0.707-0.103-2.483-0.043-4.22,2.682c-0.361,0.567-1.256,1.794-3.47,4.409L24.611,17.964z"/>
		</g>
		<g>
			<polygon fill="#F5F5F5" points="9.68,22.547 13.372,25.598 13.372,19.497 			"/>
			<path fill="#F5F5F5" d="M23.388,15.118c-1.879,2.219-3.083,3.755-3.679,4.691c-0.808,1.27-1.431,1.5-1.643,1.514l-5.591-0.033
				v2.591h5.201c0.707,0.103,2.483,0.043,4.22-2.682c0.361-0.567,1.256-1.794,3.47-4.409L23.388,15.118z"/>
		</g>
	</g>
</g>
<g>
	<path fill="#FFFFFF" d="M7.819,43.431v-9.347h5.851v1.103H8.966v2.895h4.071v1.103H8.966v4.247H7.819z"/>
	<path fill="#FFFFFF" d="M14.728,40.982l1.118-0.102c0.083,0.587,0.276,1.028,0.577,1.323c0.301,0.296,0.665,0.444,1.092,0.444
		c0.513,0,0.946-0.209,1.301-0.625c0.355-0.417,0.533-0.97,0.533-1.658c0-0.655-0.17-1.172-0.511-1.549
		c-0.341-0.379-0.788-0.567-1.341-0.567c-0.342,0-0.653,0.084-0.929,0.252c-0.275,0.167-0.493,0.385-0.65,0.653l-1-0.141l0.84-4.801
		h4.312v1.096h-3.461l-0.467,2.512c0.521-0.391,1.067-0.587,1.639-0.587c0.757,0,1.396,0.283,1.916,0.848
		c0.521,0.565,0.782,1.292,0.782,2.181c0,0.845-0.229,1.577-0.686,2.193c-0.556,0.757-1.316,1.136-2.277,1.136
		c-0.789,0-1.433-0.238-1.932-0.714S14.8,41.769,14.728,40.982z"/>
	<path fill="#FFFFFF" d="M21.465,38.821c0-1.105,0.106-1.995,0.318-2.668c0.21-0.674,0.524-1.194,0.94-1.559
		c0.416-0.365,0.94-0.548,1.571-0.548c0.465,0,0.872,0.101,1.224,0.303c0.352,0.202,0.64,0.494,0.869,0.874
		c0.229,0.381,0.408,0.844,0.539,1.39c0.131,0.547,0.195,1.283,0.195,2.21c0,1.096-0.104,1.982-0.313,2.656
		c-0.209,0.673-0.522,1.194-0.938,1.562s-0.941,0.552-1.576,0.552c-0.837,0-1.493-0.323-1.97-0.97
		C21.752,41.843,21.465,40.576,21.465,38.821z M22.56,38.821c0,1.535,0.167,2.556,0.501,3.064c0.333,0.508,0.743,0.762,1.233,0.762
		c0.488,0,0.9-0.256,1.233-0.766s0.499-1.53,0.499-3.061c0-1.539-0.166-2.561-0.499-3.067c-0.333-0.506-0.748-0.759-1.245-0.759
		c-0.488,0-0.88,0.223-1.172,0.67C22.742,36.234,22.56,37.286,22.56,38.821z"/>
	<path fill="#FFFFFF" d="M28.203,38.821c0-1.105,0.106-1.995,0.318-2.668c0.21-0.674,0.524-1.194,0.94-1.559s0.94-0.548,1.571-0.548
		c0.465,0,0.872,0.101,1.224,0.303c0.352,0.202,0.64,0.494,0.869,0.874c0.229,0.381,0.408,0.844,0.539,1.39
		c0.131,0.547,0.195,1.283,0.195,2.21c0,1.096-0.104,1.982-0.313,2.656c-0.209,0.673-0.522,1.194-0.938,1.562
		s-0.941,0.552-1.576,0.552c-0.837,0-1.493-0.323-1.97-0.97C28.49,41.843,28.203,40.576,28.203,38.821z M29.298,38.821
		c0,1.535,0.167,2.556,0.501,3.064c0.333,0.508,0.743,0.762,1.233,0.762c0.488,0,0.9-0.256,1.233-0.766
		c0.333-0.51,0.499-1.53,0.499-3.061c0-1.539-0.166-2.561-0.499-3.067c-0.333-0.506-0.748-0.759-1.245-0.759
		c-0.488,0-0.88,0.223-1.172,0.67C29.481,36.234,29.298,37.286,29.298,38.821z"/>
	<path fill="#FFFFFF" d="M34.94,38.821c0-1.105,0.106-1.995,0.318-2.668c0.21-0.674,0.524-1.194,0.94-1.559s0.94-0.548,1.571-0.548
		c0.465,0,0.872,0.101,1.224,0.303c0.352,0.202,0.64,0.494,0.869,0.874c0.229,0.381,0.408,0.844,0.539,1.39
		c0.131,0.547,0.195,1.283,0.195,2.21c0,1.096-0.104,1.982-0.313,2.656c-0.209,0.673-0.522,1.194-0.938,1.562
		s-0.941,0.552-1.576,0.552c-0.837,0-1.493-0.323-1.97-0.97C35.227,41.843,34.94,40.576,34.94,38.821z M36.035,38.821
		c0,1.535,0.167,2.556,0.501,3.064c0.333,0.508,0.743,0.762,1.233,0.762c0.488,0,0.9-0.256,1.233-0.766s0.499-1.53,0.499-3.061
		c0-1.539-0.166-2.561-0.499-3.067c-0.333-0.506-0.748-0.759-1.245-0.759c-0.488,0-0.88,0.223-1.172,0.67
		C36.218,36.234,36.035,37.286,36.035,38.821z"/>
</g>
<g>
	<path fill="#FFFFFF" d="M18.063,27.189h1.015v2.935c0,0.466,0.013,0.768,0.038,0.906c0.044,0.222,0.146,0.4,0.311,0.534
		c0.163,0.134,0.387,0.201,0.67,0.201c0.288,0,0.506-0.063,0.651-0.19c0.146-0.127,0.234-0.283,0.265-0.467
		c0.029-0.185,0.044-0.492,0.044-0.92v-2.998h1.016v2.846c0,0.65-0.027,1.11-0.083,1.378c-0.055,0.269-0.155,0.495-0.303,0.68
		c-0.147,0.185-0.345,0.332-0.592,0.441c-0.247,0.11-0.569,0.165-0.967,0.165c-0.48,0-0.844-0.06-1.092-0.179
		s-0.444-0.275-0.589-0.466c-0.144-0.191-0.238-0.391-0.284-0.601c-0.066-0.311-0.1-0.769-0.1-1.375V27.189z"/>
	<path fill="#FFFFFF" d="M26.192,28.517l-0.933,0.111c-0.022-0.207-0.082-0.36-0.179-0.458c-0.096-0.099-0.22-0.148-0.373-0.148
		c-0.204,0-0.376,0.099-0.517,0.296s-0.229,0.607-0.266,1.23c0.24-0.305,0.538-0.458,0.896-0.458c0.402,0,0.746,0.165,1.033,0.495
		s0.431,0.756,0.431,1.279c0,0.555-0.151,1-0.453,1.334S25.144,32.7,24.67,32.7c-0.508,0-0.925-0.212-1.251-0.638
		c-0.327-0.425-0.491-1.122-0.491-2.09c0-0.993,0.171-1.709,0.512-2.147c0.34-0.438,0.782-0.658,1.326-0.658
		c0.382,0,0.698,0.115,0.948,0.345C25.965,27.743,26.124,28.078,26.192,28.517z M24.008,30.782c0,0.337,0.072,0.598,0.217,0.782
		c0.144,0.184,0.309,0.275,0.493,0.275c0.179,0,0.327-0.075,0.446-0.226c0.118-0.15,0.178-0.397,0.178-0.739
		c0-0.353-0.063-0.61-0.191-0.774c-0.128-0.164-0.288-0.246-0.48-0.246c-0.185,0-0.342,0.078-0.47,0.234
		C24.072,30.246,24.008,30.477,24.008,30.782z"/>
	<path fill="#FFFFFF" d="M28.462,27.167c0.487,0,0.868,0.187,1.142,0.562c0.327,0.444,0.491,1.179,0.491,2.207
		c0,1.025-0.165,1.762-0.494,2.21c-0.272,0.37-0.651,0.554-1.139,0.554c-0.489,0-0.883-0.203-1.183-0.608s-0.449-1.128-0.449-2.167
		c0-1.021,0.164-1.754,0.494-2.203C27.596,27.352,27.976,27.167,28.462,27.167z M28.462,28.028c-0.116,0-0.221,0.04-0.312,0.12
		c-0.092,0.08-0.162,0.224-0.213,0.431c-0.066,0.269-0.1,0.721-0.1,1.356s0.03,1.073,0.09,1.311
		c0.059,0.238,0.134,0.396,0.225,0.475c0.09,0.079,0.193,0.119,0.31,0.119c0.117,0,0.221-0.04,0.313-0.12
		c0.091-0.08,0.162-0.224,0.212-0.431c0.066-0.266,0.1-0.717,0.1-1.353s-0.029-1.072-0.089-1.31s-0.135-0.397-0.225-0.477
		S28.579,28.028,28.462,28.028z"/>
</g>
</svg>
