<?xml version="1.0" encoding="utf-8"?>
<!-- Generator: Adobe Illustrator 18.0.0, SVG Export Plug-In . SVG Version: 6.00 Build 0)  -->
<!DOCTYPE svg PUBLIC "-//W3C//DTD SVG 1.1//EN" "http://www.w3.org/Graphics/SVG/1.1/DTD/svg11.dtd">
<svg version="1.1" id="图层_1" xmlns="http://www.w3.org/2000/svg" xmlns:xlink="http://www.w3.org/1999/xlink" x="0px" y="0px"
	 width="48px" height="48px" viewBox="0 0 48 48" enable-background="new 0 0 48 48" xml:space="preserve">
<g>
	<g>
		<path fill="#FFFFFF" d="M3.609,46.882c-1.374,0-2.492-1.118-2.492-2.492V3.609c0-1.374,1.118-2.492,2.492-2.492h40.781
			c1.374,0,2.492,1.118,2.492,2.492v40.781c0,1.374-1.118,2.492-2.492,2.492H3.609z"/>
		<path fill="#AFAFAF" d="M44.391,1.74c1.031,0,1.869,0.838,1.869,1.869v40.781c0,1.031-0.838,1.869-1.869,1.869H3.609
			c-1.031,0-1.869-0.838-1.869-1.869V3.609c0-1.031,0.838-1.869,1.869-1.869H44.391 M44.391,0.494H3.609
			c-1.72,0-3.115,1.395-3.115,3.115v40.781c0,1.72,1.395,3.115,3.115,3.115h40.781c1.72,0,3.115-1.395,3.115-3.115V3.609
			C47.506,1.889,46.111,0.494,44.391,0.494L44.391,0.494z"/>
	</g>
	<g>
		<linearGradient id="SVGID_1_" gradientUnits="userSpaceOnUse" x1="23.9993" y1="44.8197" x2="23.9993" y2="3.18">
			<stop  offset="0" style="stop-color:#00AEF9"/>
			<stop  offset="1" style="stop-color:#0092E1"/>
		</linearGradient>
		<path fill="url(#SVGID_1_)" d="M3.609,44.82c-0.236,0-0.43-0.193-0.43-0.43V3.61c0-0.236,0.193-0.43,0.43-0.43h40.782
			c0.236,0,0.428,0.193,0.428,0.43V44.39c0,0.236-0.192,0.43-0.428,0.43H3.609z"/>
	</g>
	<g>
		<g>
			<g>
				<polygon fill="#F5F5F5" points="9.68,10.535 13.372,7.484 13.372,13.585 				"/>
				<path fill="#F5F5F5" d="M23.388,17.964c-1.879-2.219-3.083-3.755-3.679-4.691c-0.808-1.27-1.431-1.5-1.643-1.514l-5.591,0.033
					V9.2h5.201c0.707-0.103,2.483-0.043,4.22,2.682c0.361,0.567,1.256,1.794,3.47,4.409L23.388,17.964z"/>
			</g>
			<g>
				<polygon fill="#F5F5F5" points="38.318,22.547 34.627,25.598 34.627,19.497 				"/>
				<path fill="#F5F5F5" d="M24.611,15.118c1.879,2.219,3.083,3.755,3.679,4.691c0.808,1.27,1.431,1.5,1.643,1.514l5.591-0.033
					v2.591h-5.201c-0.707,0.103-2.483,0.043-4.22-2.682c-0.361-0.567-1.256-1.794-3.47-4.409L24.611,15.118z"/>
			</g>
		</g>
		<g>
			<g>
				<polygon fill="#F5F5F5" points="38.318,10.535 34.627,7.484 34.627,13.585 				"/>
				<path fill="#F5F5F5" d="M24.611,17.964c1.879-2.219,3.083-3.755,3.679-4.691c0.808-1.27,1.431-1.5,1.643-1.514l5.591,0.033V9.2
					h-5.201c-0.707-0.103-2.483-0.043-4.22,2.682c-0.361,0.567-1.256,1.794-3.47,4.409L24.611,17.964z"/>
			</g>
			<g>
				<polygon fill="#F5F5F5" points="9.68,22.547 13.372,25.598 13.372,19.497 				"/>
				<path fill="#F5F5F5" d="M23.388,15.118c-1.879,2.219-3.083,3.755-3.679,4.691c-0.808,1.27-1.431,1.5-1.643,1.514l-5.591-0.033
					v2.591h5.201c0.707,0.103,2.483,0.043,4.22-2.682c0.361-0.567,1.256-1.794,3.47-4.409L23.388,15.118z"/>
			</g>
		</g>
	</g>
	<g>
		<path fill="#FFFFFF" d="M7.819,43.431v-9.347h5.851v1.103H8.966v2.895h4.071v1.103H8.966v4.247H7.819z"/>
		<path fill="#FFFFFF" d="M14.728,40.982l1.118-0.102c0.083,0.587,0.276,1.028,0.577,1.323c0.301,0.296,0.665,0.444,1.092,0.444
			c0.513,0,0.946-0.209,1.301-0.625c0.355-0.417,0.533-0.97,0.533-1.658c0-0.655-0.17-1.172-0.511-1.549
			c-0.341-0.379-0.788-0.567-1.341-0.567c-0.342,0-0.653,0.084-0.929,0.252c-0.275,0.167-0.493,0.385-0.65,0.653l-1-0.141
			l0.84-4.801h4.312v1.096h-3.461l-0.467,2.512c0.521-0.391,1.067-0.587,1.639-0.587c0.757,0,1.396,0.283,1.916,0.848
			c0.521,0.565,0.782,1.292,0.782,2.181c0,0.845-0.229,1.577-0.686,2.193c-0.556,0.757-1.316,1.136-2.277,1.136
			c-0.789,0-1.433-0.238-1.932-0.714C15.084,42.4,14.8,41.769,14.728,40.982z"/>
		<path fill="#FFFFFF" d="M21.465,38.821c0-1.105,0.106-1.995,0.318-2.668c0.21-0.674,0.524-1.194,0.94-1.559
			c0.416-0.365,0.94-0.548,1.571-0.548c0.465,0,0.872,0.101,1.224,0.303c0.352,0.202,0.64,0.494,0.869,0.874
			c0.229,0.381,0.408,0.844,0.539,1.39c0.131,0.547,0.195,1.283,0.195,2.21c0,1.096-0.104,1.982-0.313,2.656
			c-0.209,0.673-0.522,1.194-0.938,1.562c-0.416,0.368-0.941,0.552-1.576,0.552c-0.837,0-1.493-0.323-1.97-0.97
			C21.752,41.843,21.465,40.576,21.465,38.821z M22.56,38.821c0,1.535,0.167,2.556,0.501,3.064c0.333,0.508,0.743,0.762,1.233,0.762
			c0.488,0,0.9-0.256,1.233-0.766s0.499-1.53,0.499-3.061c0-1.539-0.166-2.561-0.499-3.067c-0.333-0.506-0.748-0.759-1.245-0.759
			c-0.488,0-0.88,0.223-1.172,0.67C22.742,36.234,22.56,37.286,22.56,38.821z"/>
		<path fill="#FFFFFF" d="M28.202,38.821c0-1.105,0.106-1.995,0.318-2.668c0.21-0.674,0.524-1.194,0.94-1.559
			c0.416-0.365,0.94-0.548,1.571-0.548c0.465,0,0.872,0.101,1.224,0.303c0.352,0.202,0.64,0.494,0.869,0.874
			c0.229,0.381,0.408,0.844,0.539,1.39c0.131,0.547,0.195,1.283,0.195,2.21c0,1.096-0.104,1.982-0.313,2.656
			c-0.209,0.673-0.522,1.194-0.938,1.562c-0.416,0.368-0.941,0.552-1.576,0.552c-0.837,0-1.493-0.323-1.97-0.97
			C28.489,41.843,28.202,40.576,28.202,38.821z M29.296,38.821c0,1.535,0.167,2.556,0.501,3.064
			c0.333,0.508,0.743,0.762,1.233,0.762c0.488,0,0.9-0.256,1.233-0.766c0.333-0.51,0.499-1.53,0.499-3.061
			c0-1.539-0.166-2.561-0.499-3.067c-0.333-0.506-0.748-0.759-1.245-0.759c-0.488,0-0.88,0.223-1.172,0.67
			C29.479,36.234,29.296,37.286,29.296,38.821z"/>
		<path fill="#FFFFFF" d="M34.938,38.821c0-1.105,0.106-1.995,0.318-2.668c0.21-0.674,0.524-1.194,0.94-1.559
			c0.416-0.365,0.94-0.548,1.571-0.548c0.465,0,0.872,0.101,1.224,0.303c0.352,0.202,0.64,0.494,0.869,0.874
			c0.229,0.381,0.408,0.844,0.539,1.39c0.131,0.547,0.195,1.283,0.195,2.21c0,1.096-0.104,1.982-0.313,2.656
			c-0.209,0.673-0.522,1.194-0.938,1.562c-0.416,0.368-0.941,0.552-1.576,0.552c-0.837,0-1.493-0.323-1.97-0.97
			C35.226,41.843,34.938,40.576,34.938,38.821z M36.033,38.821c0,1.535,0.167,2.556,0.501,3.064
			c0.333,0.508,0.743,0.762,1.233,0.762c0.488,0,0.9-0.256,1.233-0.766c0.333-0.51,0.499-1.53,0.499-3.061
			c0-1.539-0.166-2.561-0.499-3.067c-0.333-0.506-0.748-0.759-1.245-0.759c-0.488,0-0.88,0.223-1.172,0.67
			C36.216,36.234,36.033,37.286,36.033,38.821z"/>
	</g>
	<g>
		<path fill="#FFFFFF" d="M17.444,26.289h1.121v3.24c0,0.514,0.014,0.847,0.041,1c0.048,0.245,0.163,0.441,0.342,0.59
			c0.181,0.148,0.427,0.222,0.74,0.222c0.318,0,0.557-0.07,0.72-0.21c0.161-0.141,0.258-0.313,0.292-0.517
			c0.032-0.204,0.049-0.543,0.049-1.016v-3.309h1.119v3.142c0,0.718-0.029,1.225-0.091,1.522c-0.06,0.297-0.172,0.547-0.335,0.751
			c-0.163,0.204-0.381,0.367-0.653,0.488c-0.273,0.121-0.63,0.182-1.069,0.182c-0.53,0-0.931-0.066-1.205-0.198
			c-0.273-0.132-0.49-0.303-0.648-0.514c-0.16-0.21-0.264-0.432-0.315-0.663c-0.074-0.343-0.111-0.849-0.111-1.518V26.289z"/>
		<path fill="#FFFFFF" d="M24.903,32.271v-1.204h-2.271v-1.004l2.408-3.799h0.892v3.795h0.69v1.008h-0.69v1.204H24.903z
			 M24.903,30.059v-2.044l-1.276,2.044H24.903z"/>
		<path fill="#FFFFFF" d="M28.926,26.265c0.539,0,0.958,0.207,1.261,0.62c0.361,0.489,0.542,1.301,0.542,2.436
			c0,1.132-0.181,1.946-0.545,2.441c-0.301,0.408-0.719,0.612-1.258,0.612s-0.975-0.224-1.305-0.671
			c-0.33-0.448-0.496-1.245-0.496-2.393c0-1.126,0.181-1.937,0.545-2.432C27.971,26.468,28.389,26.265,28.926,26.265z
			 M28.926,27.215c-0.127,0-0.243,0.045-0.344,0.133c-0.101,0.088-0.18,0.246-0.235,0.475c-0.072,0.296-0.109,0.795-0.109,1.497
			c0,0.703,0.032,1.185,0.098,1.447c0.066,0.262,0.147,0.437,0.247,0.524c0.1,0.088,0.215,0.131,0.342,0.131
			c0.129,0,0.244-0.045,0.346-0.133s0.178-0.247,0.235-0.475c0.072-0.294,0.109-0.792,0.109-1.494c0-0.702-0.032-1.184-0.098-1.447
			c-0.066-0.262-0.149-0.438-0.247-0.526C29.171,27.26,29.055,27.215,28.926,27.215z"/>
	</g>
</g>
</svg>
