<?xml version="1.0" encoding="utf-8"?>
<!-- Generator: Adobe Illustrator 18.0.0, SVG Export Plug-In . SVG Version: 6.00 Build 0)  -->
<!DOCTYPE svg PUBLIC "-//W3C//DTD SVG 1.1//EN" "http://www.w3.org/Graphics/SVG/1.1/DTD/svg11.dtd">
<svg version="1.1" id="图层_1" xmlns="http://www.w3.org/2000/svg" xmlns:xlink="http://www.w3.org/1999/xlink" x="0px" y="0px"
	 width="48px" height="48px" viewBox="0 0 48 48" enable-background="new 0 0 48 48" xml:space="preserve">
<g>
	<path fill="#FFFFFF" d="M3.614,46.877c-1.374,0-2.491-1.118-2.491-2.491V3.614c0-1.374,1.118-2.491,2.491-2.491h40.771
		c1.374,0,2.491,1.118,2.491,2.491v40.771c0,1.374-1.118,2.491-2.491,2.491H3.614z"/>
	<path fill="#AFAFAF" d="M44.386,1.746c1.03,0,1.868,0.838,1.868,1.869v40.772c0,1.03-0.838,1.868-1.868,1.868H3.614
		c-1.03,0-1.869-0.838-1.869-1.868V3.614c0-1.03,0.838-1.869,1.869-1.869H44.386 M44.386,0.5H3.614C1.894,0.5,0.5,1.894,0.5,3.614
		v40.772c0,1.72,1.394,3.114,3.114,3.114h40.772c1.72,0,3.114-1.394,3.114-3.114V3.614C47.5,1.894,46.106,0.5,44.386,0.5L44.386,0.5
		z"/>
</g>
<g>
	<path fill="#C4C4C4" d="M3.614,44.815c-0.236,0-0.429-0.193-0.429-0.429V3.614c0-0.236,0.193-0.429,0.429-0.429h40.773
		c0.236,0,0.428,0.193,0.428,0.429v40.771c0,0.236-0.192,0.429-0.428,0.429H3.614z"/>
</g>
<g>
	<g>
		<g>
			<polygon fill="#F5F5F5" points="9.684,10.538 13.374,7.488 13.374,13.587 			"/>
			<path fill="#F5F5F5" d="M23.388,17.966c-1.879-2.219-3.082-3.754-3.678-4.69c-0.808-1.27-1.431-1.5-1.642-1.514l-5.59,0.033
				V9.203h5.2c0.706-0.103,2.482-0.043,4.219,2.681c0.361,0.567,1.256,1.794,3.469,4.408L23.388,17.966z"/>
		</g>
		<g>
			<polygon fill="#F5F5F5" points="38.315,22.548 34.624,25.597 34.624,19.498 			"/>
			<path fill="#F5F5F5" d="M24.611,15.12c1.879,2.219,3.082,3.754,3.678,4.69c0.808,1.27,1.431,1.5,1.642,1.514l5.59-0.033v2.591
				h-5.2c-0.706,0.103-2.482,0.043-4.219-2.681c-0.361-0.567-1.256-1.794-3.469-4.408L24.611,15.12z"/>
		</g>
	</g>
	<g>
		<g>
			<polygon fill="#F5F5F5" points="38.315,10.538 34.624,7.488 34.624,13.587 			"/>
			<path fill="#F5F5F5" d="M24.611,17.966c1.879-2.219,3.082-3.754,3.678-4.69c0.808-1.27,1.431-1.5,1.642-1.514l5.59,0.033V9.203
				h-5.2c-0.706-0.103-2.482-0.043-4.219,2.681c-0.361,0.567-1.256,1.794-3.469,4.408L24.611,17.966z"/>
		</g>
		<g>
			<polygon fill="#F5F5F5" points="9.684,22.548 13.374,25.597 13.374,19.498 			"/>
			<path fill="#F5F5F5" d="M23.388,15.12c-1.879,2.219-3.082,3.754-3.678,4.69c-0.808,1.27-1.431,1.5-1.642,1.514l-5.59-0.033v2.591
				h5.2c0.706,0.103,2.482,0.043,4.219-2.681c0.361-0.567,1.256-1.794,3.469-4.408L23.388,15.12z"/>
		</g>
	</g>
</g>
<g>
	<path fill="#FFFFFF" d="M7.823,43.426V34.08h5.848v1.103H8.97v2.894h4.068v1.103H8.97v4.245H7.823z"/>
	<path fill="#FFFFFF" d="M14.729,40.978l1.118-0.102c0.083,0.587,0.275,1.027,0.577,1.323c0.301,0.295,0.665,0.443,1.091,0.443
		c0.512,0,0.946-0.208,1.301-0.625c0.354-0.416,0.531-0.969,0.531-1.657c0-0.654-0.17-1.17-0.511-1.549
		c-0.341-0.379-0.787-0.567-1.34-0.567c-0.343,0-0.652,0.083-0.928,0.251c-0.275,0.168-0.492,0.386-0.651,0.653l-0.999-0.14
		l0.839-4.8h4.312v1.096h-3.46l-0.468,2.512c0.521-0.391,1.067-0.587,1.639-0.587c0.757,0,1.395,0.283,1.916,0.848
		c0.52,0.566,0.78,1.293,0.78,2.181c0,0.846-0.229,1.577-0.685,2.193c-0.557,0.756-1.316,1.134-2.277,1.134
		c-0.789,0-1.432-0.237-1.932-0.714C15.086,42.395,14.801,41.764,14.729,40.978z"/>
	<path fill="#FFFFFF" d="M21.465,38.817c0-1.105,0.107-1.994,0.317-2.668c0.212-0.674,0.525-1.193,0.941-1.559
		s0.938-0.548,1.569-0.548c0.466,0,0.874,0.101,1.225,0.303c0.351,0.202,0.641,0.493,0.869,0.874c0.229,0.38,0.407,0.843,0.538,1.39
		c0.13,0.546,0.194,1.282,0.194,2.209c0,1.096-0.104,1.981-0.312,2.655c-0.21,0.674-0.522,1.195-0.938,1.562
		c-0.416,0.368-0.941,0.551-1.576,0.551c-0.835,0-1.491-0.322-1.969-0.969C21.752,41.838,21.465,40.572,21.465,38.817z
		 M22.561,38.817c0,1.534,0.166,2.555,0.499,3.063c0.332,0.508,0.744,0.761,1.232,0.761c0.489,0,0.901-0.255,1.234-0.764
		c0.334-0.51,0.499-1.53,0.499-3.06c0-1.539-0.166-2.561-0.499-3.067c-0.332-0.506-0.748-0.759-1.245-0.759
		c-0.488,0-0.879,0.223-1.17,0.669C22.743,36.231,22.561,37.283,22.561,38.817z"/>
	<path fill="#FFFFFF" d="M28.201,38.817c0-1.105,0.107-1.994,0.317-2.668c0.212-0.674,0.525-1.193,0.941-1.559
		c0.416-0.366,0.938-0.548,1.569-0.548c0.466,0,0.874,0.101,1.225,0.303c0.351,0.202,0.641,0.493,0.869,0.874
		c0.229,0.38,0.407,0.843,0.538,1.39c0.13,0.546,0.194,1.282,0.194,2.209c0,1.096-0.104,1.981-0.312,2.655
		c-0.21,0.674-0.522,1.195-0.938,1.562c-0.416,0.368-0.941,0.551-1.576,0.551c-0.835,0-1.491-0.322-1.969-0.969
		C28.488,41.838,28.201,40.572,28.201,38.817z M29.297,38.817c0,1.534,0.166,2.555,0.499,3.063c0.332,0.508,0.744,0.761,1.232,0.761
		c0.489,0,0.901-0.255,1.234-0.764c0.334-0.51,0.499-1.53,0.499-3.06c0-1.539-0.166-2.561-0.499-3.067
		c-0.332-0.506-0.748-0.759-1.245-0.759c-0.488,0-0.879,0.223-1.17,0.669C29.48,36.231,29.297,37.283,29.297,38.817z"/>
	<path fill="#FFFFFF" d="M34.938,38.817c0-1.105,0.105-1.994,0.317-2.668c0.21-0.674,0.524-1.193,0.94-1.559s0.94-0.548,1.57-0.548
		c0.465,0,0.874,0.101,1.223,0.303c0.351,0.202,0.642,0.493,0.869,0.874c0.229,0.38,0.409,0.843,0.538,1.39
		c0.131,0.546,0.196,1.282,0.196,2.209c0,1.096-0.105,1.981-0.314,2.655s-0.521,1.195-0.937,1.562
		c-0.416,0.368-0.941,0.551-1.576,0.551c-0.836,0-1.493-0.322-1.969-0.969C35.224,41.838,34.938,40.572,34.938,38.817z
		 M36.032,38.817c0,1.534,0.167,2.555,0.499,3.063c0.334,0.508,0.744,0.761,1.234,0.761s0.9-0.255,1.234-0.764
		c0.332-0.51,0.499-1.53,0.499-3.06c0-1.539-0.167-2.561-0.499-3.067c-0.334-0.506-0.748-0.759-1.245-0.759
		c-0.489,0-0.879,0.223-1.172,0.669C36.214,36.231,36.032,37.283,36.032,38.817z"/>
</g>
<g>
	<path fill="#FFFFFF" d="M18.401,27.006h0.957v2.767c0,0.439,0.012,0.724,0.036,0.854c0.041,0.209,0.138,0.377,0.292,0.503
		s0.365,0.19,0.632,0.19c0.271,0,0.476-0.06,0.614-0.18c0.138-0.12,0.221-0.267,0.249-0.441c0.028-0.174,0.042-0.463,0.042-0.868
		v-2.826h0.957v2.684c0,0.613-0.026,1.046-0.078,1.3c-0.052,0.253-0.147,0.467-0.286,0.641c-0.139,0.174-0.325,0.313-0.558,0.417
		c-0.232,0.103-0.537,0.155-0.912,0.155c-0.453,0-0.796-0.056-1.03-0.169c-0.234-0.112-0.418-0.259-0.554-0.439
		s-0.225-0.369-0.269-0.566c-0.063-0.292-0.094-0.725-0.094-1.296V27.006z"/>
	<path fill="#FFFFFF" d="M26.066,28.257l-0.879,0.105c-0.021-0.195-0.078-0.339-0.168-0.432c-0.09-0.093-0.208-0.14-0.353-0.14
		c-0.192,0-0.354,0.093-0.486,0.279c-0.133,0.186-0.216,0.573-0.25,1.161c0.226-0.288,0.507-0.432,0.844-0.432
		c0.379,0,0.704,0.155,0.975,0.467s0.406,0.713,0.406,1.206c0,0.523-0.142,0.942-0.427,1.258s-0.65,0.474-1.096,0.474
		c-0.478,0-0.872-0.2-1.18-0.601c-0.308-0.4-0.462-1.058-0.462-1.971c0-0.936,0.161-1.611,0.482-2.024
		c0.321-0.414,0.738-0.621,1.251-0.621c0.36,0,0.658,0.109,0.894,0.326C25.851,27.529,26.001,27.844,26.066,28.257z M24.007,30.394
		c0,0.318,0.068,0.564,0.204,0.737c0.136,0.173,0.291,0.26,0.465,0.26c0.168,0,0.308-0.071,0.42-0.213
		c0.112-0.142,0.168-0.374,0.168-0.697c0-0.333-0.06-0.576-0.181-0.73c-0.121-0.155-0.271-0.232-0.453-0.232
		c-0.174,0-0.322,0.074-0.443,0.221C24.067,29.888,24.007,30.105,24.007,30.394z"/>
	<path fill="#FFFFFF" d="M28.206,26.985c0.459,0,0.818,0.177,1.077,0.53c0.308,0.418,0.462,1.112,0.462,2.081
		c0,0.966-0.155,1.661-0.466,2.084c-0.256,0.349-0.614,0.522-1.073,0.522c-0.461,0-0.833-0.191-1.115-0.573
		c-0.283-0.382-0.424-1.063-0.424-2.043c0-0.962,0.155-1.654,0.466-2.077C27.389,27.16,27.747,26.985,28.206,26.985z M28.206,27.797
		c-0.11,0-0.208,0.038-0.294,0.113c-0.086,0.076-0.153,0.211-0.2,0.406c-0.063,0.253-0.094,0.679-0.094,1.279
		s0.028,1.011,0.084,1.235s0.126,0.374,0.212,0.448c0.085,0.074,0.183,0.112,0.292,0.112s0.208-0.038,0.294-0.113
		c0.086-0.076,0.153-0.211,0.201-0.406c0.063-0.251,0.094-0.676,0.094-1.275s-0.028-1.011-0.084-1.235s-0.126-0.374-0.212-0.45
		C28.414,27.835,28.316,27.797,28.206,27.797z"/>
</g>
</svg>
