<?xml version="1.0" encoding="utf-8"?>
<!-- Generator: Adobe Illustrator 18.0.0, SVG Export Plug-In . SVG Version: 6.00 Build 0)  -->
<!DOCTYPE svg PUBLIC "-//W3C//DTD SVG 1.1//EN" "http://www.w3.org/Graphics/SVG/1.1/DTD/svg11.dtd">
<svg version="1.1" id="图层_1" xmlns="http://www.w3.org/2000/svg" xmlns:xlink="http://www.w3.org/1999/xlink" x="0px" y="0px"
	 width="48px" height="48px" viewBox="0 0 48 48" enable-background="new 0 0 48 48" xml:space="preserve">
<g>
	<g>
		<path fill="#FFFFFF" d="M3.614,46.877c-1.374,0-2.491-1.118-2.491-2.491V3.614c0-1.374,1.118-2.491,2.491-2.491h40.771
			c1.374,0,2.491,1.118,2.491,2.491v40.771c0,1.374-1.117,2.491-2.491,2.491H3.614z"/>
		<path fill="#AFAFAF" d="M44.386,1.746c1.03,0,1.868,0.838,1.868,1.869v40.772c0,1.03-0.838,1.868-1.868,1.868H3.614
			c-1.03,0-1.868-0.838-1.868-1.868V3.614c0-1.03,0.838-1.869,1.868-1.869H44.386 M44.386,0.5H3.614C1.894,0.5,0.5,1.894,0.5,3.614
			v40.772c0,1.72,1.394,3.114,3.114,3.114h40.772c1.72,0,3.114-1.394,3.114-3.114V3.614C47.5,1.894,46.106,0.5,44.386,0.5
			L44.386,0.5z"/>
	</g>
	<g>
		<linearGradient id="SVGID_1_" gradientUnits="userSpaceOnUse" x1="23.9993" y1="44.8148" x2="23.9993" y2="3.1849">
			<stop  offset="0" style="stop-color:#2CA539"/>
			<stop  offset="1" style="stop-color:#009117"/>
		</linearGradient>
		<path fill="url(#SVGID_1_)" d="M3.614,44.815c-0.236,0-0.429-0.193-0.429-0.429V3.614c0-0.236,0.193-0.429,0.429-0.429h40.773
			c0.236,0,0.428,0.193,0.428,0.429v40.771c0,0.236-0.192,0.429-0.428,0.429H3.614z"/>
	</g>
	<g>
		<g>
			<g>
				<polygon fill="#F5F5F5" points="9.684,10.538 13.374,7.488 13.374,13.587 				"/>
				<path fill="#F5F5F5" d="M23.388,17.966c-1.879-2.219-3.082-3.754-3.678-4.69c-0.808-1.27-1.431-1.5-1.642-1.514l-5.59,0.033
					V9.203h5.2c0.706-0.103,2.482-0.043,4.219,2.681c0.361,0.567,1.256,1.794,3.469,4.408L23.388,17.966z"/>
			</g>
			<g>
				<polygon fill="#F5F5F5" points="38.315,22.548 34.624,25.597 34.624,19.498 				"/>
				<path fill="#F5F5F5" d="M24.611,15.12c1.879,2.219,3.082,3.754,3.678,4.69c0.808,1.27,1.431,1.5,1.642,1.514l5.59-0.033v2.591
					h-5.2c-0.706,0.103-2.482,0.043-4.219-2.681c-0.361-0.567-1.256-1.794-3.469-4.408L24.611,15.12z"/>
			</g>
		</g>
		<g>
			<g>
				<polygon fill="#F5F5F5" points="38.315,10.538 34.624,7.488 34.624,13.587 				"/>
				<path fill="#F5F5F5" d="M24.611,17.966c1.879-2.219,3.082-3.754,3.678-4.69c0.808-1.27,1.431-1.5,1.642-1.514l5.59,0.033V9.203
					h-5.2c-0.706-0.103-2.482-0.043-4.219,2.681c-0.361,0.567-1.256,1.794-3.469,4.408L24.611,17.966z"/>
			</g>
			<g>
				<polygon fill="#F5F5F5" points="9.684,22.548 13.374,25.597 13.374,19.498 				"/>
				<path fill="#F5F5F5" d="M23.388,15.12c-1.879,2.219-3.082,3.754-3.678,4.69c-0.808,1.27-1.431,1.5-1.642,1.514l-5.59-0.033
					v2.591h5.2c0.706,0.103,2.482,0.043,4.219-2.681c0.361-0.567,1.256-1.794,3.469-4.408L23.388,15.12z"/>
			</g>
		</g>
	</g>
	<g>
		<path fill="#FFFFFF" d="M7.823,43.425V34.08h5.849v1.103H8.97v2.894h4.068v1.103H8.97v4.245H7.823z"/>
		<path fill="#FFFFFF" d="M14.73,40.978l1.118-0.102c0.083,0.587,0.275,1.027,0.576,1.323c0.302,0.295,0.665,0.443,1.091,0.443
			c0.512,0,0.946-0.208,1.301-0.625c0.355-0.416,0.532-0.969,0.532-1.657c0-0.654-0.171-1.17-0.511-1.549
			c-0.341-0.379-0.788-0.567-1.34-0.567c-0.343,0-0.652,0.083-0.928,0.251c-0.276,0.168-0.493,0.386-0.651,0.653l-1-0.14l0.84-4.8
			h4.312v1.096h-3.459l-0.468,2.512c0.521-0.391,1.067-0.587,1.639-0.587c0.757,0,1.395,0.283,1.916,0.848
			c0.52,0.566,0.781,1.292,0.781,2.181c0,0.846-0.229,1.577-0.686,2.193c-0.556,0.756-1.315,1.134-2.277,1.134
			c-0.789,0-1.432-0.237-1.931-0.714C15.086,42.395,14.801,41.764,14.73,40.978z"/>
		<path fill="#FFFFFF" d="M21.466,38.817c0-1.105,0.106-1.994,0.317-2.668s0.525-1.193,0.941-1.559
			c0.416-0.366,0.939-0.548,1.57-0.548c0.466,0,0.874,0.101,1.224,0.303c0.351,0.202,0.642,0.493,0.869,0.873
			c0.229,0.381,0.409,0.844,0.538,1.39c0.13,0.546,0.196,1.282,0.196,2.209c0,1.096-0.104,1.981-0.314,2.655
			s-0.521,1.195-0.938,1.562c-0.415,0.368-0.941,0.551-1.575,0.551c-0.836,0-1.492-0.322-1.969-0.969
			C21.752,41.838,21.466,40.572,21.466,38.817z M22.561,38.817c0,1.534,0.166,2.555,0.499,3.063s0.744,0.761,1.233,0.761
			c0.489,0,0.9-0.255,1.233-0.764c0.334-0.51,0.501-1.53,0.501-3.06c0-1.539-0.167-2.561-0.501-3.067
			c-0.332-0.506-0.748-0.759-1.244-0.759c-0.489,0-0.879,0.223-1.171,0.669C22.743,36.23,22.561,37.282,22.561,38.817z"/>
		<path fill="#FFFFFF" d="M28.201,38.817c0-1.105,0.105-1.994,0.317-2.668s0.524-1.193,0.94-1.559
			c0.416-0.366,0.94-0.548,1.57-0.548c0.465,0,0.874,0.101,1.225,0.303c0.351,0.202,0.641,0.493,0.869,0.873
			c0.229,0.381,0.407,0.844,0.538,1.39c0.13,0.546,0.194,1.282,0.194,2.209c0,1.096-0.104,1.981-0.314,2.655
			c-0.209,0.674-0.521,1.195-0.937,1.562c-0.416,0.368-0.941,0.551-1.576,0.551c-0.836,0-1.493-0.322-1.969-0.969
			C28.488,41.838,28.201,40.572,28.201,38.817z M29.295,38.817c0,1.534,0.167,2.555,0.501,3.063
			c0.332,0.508,0.744,0.761,1.232,0.761c0.489,0,0.9-0.255,1.234-0.764c0.332-0.51,0.499-1.53,0.499-3.06
			c0-1.539-0.167-2.561-0.499-3.067c-0.334-0.506-0.748-0.759-1.245-0.759c-0.489,0-0.879,0.223-1.172,0.669
			C29.48,36.23,29.295,37.282,29.295,38.817z"/>
		<path fill="#FFFFFF" d="M34.938,38.817c0-1.105,0.105-1.994,0.317-2.668c0.212-0.674,0.524-1.193,0.94-1.559
			c0.416-0.366,0.94-0.548,1.57-0.548c0.465,0,0.874,0.101,1.225,0.303c0.351,0.202,0.641,0.493,0.869,0.873
			c0.229,0.381,0.407,0.844,0.538,1.39c0.13,0.546,0.194,1.282,0.194,2.209c0,1.096-0.104,1.981-0.314,2.655
			c-0.209,0.674-0.521,1.195-0.937,1.562c-0.416,0.368-0.941,0.551-1.576,0.551c-0.836,0-1.493-0.322-1.969-0.969
			C35.224,41.838,34.938,40.572,34.938,38.817z M36.032,38.817c0,1.534,0.167,2.555,0.501,3.063
			c0.332,0.508,0.744,0.761,1.232,0.761c0.489,0,0.9-0.255,1.234-0.764c0.332-0.51,0.499-1.53,0.499-3.06
			c0-1.539-0.167-2.561-0.499-3.067c-0.334-0.506-0.748-0.759-1.245-0.759c-0.489,0-0.879,0.223-1.172,0.669
			C36.216,36.23,36.032,37.282,36.032,38.817z"/>
	</g>
	<g>
		<path fill="#FFFFFF" d="M17.855,26.662h1.05v3.037c0,0.481,0.013,0.794,0.039,0.937c0.045,0.23,0.153,0.414,0.322,0.553
			c0.169,0.139,0.4,0.208,0.694,0.208c0.298,0,0.522-0.065,0.674-0.196c0.152-0.132,0.243-0.293,0.273-0.484
			c0.031-0.191,0.046-0.509,0.046-0.952v-3.102h1.051v2.945c0,0.673-0.029,1.149-0.086,1.426c-0.057,0.279-0.161,0.513-0.314,0.704
			c-0.153,0.191-0.357,0.344-0.612,0.457c-0.255,0.114-0.589,0.171-1,0.171c-0.497,0-0.874-0.062-1.13-0.186
			c-0.257-0.124-0.46-0.284-0.609-0.482c-0.149-0.197-0.248-0.404-0.294-0.621c-0.069-0.322-0.103-0.796-0.103-1.423V26.662z"/>
		<path fill="#FFFFFF" d="M24.846,32.269v-1.128h-2.13V30.2l2.257-3.561h0.838v3.557h0.646v0.945h-0.646v1.128H24.846z
			 M24.846,30.196V28.28l-1.196,1.916H24.846z"/>
		<path fill="#FFFFFF" d="M28.617,26.639c0.504,0,0.898,0.194,1.182,0.581c0.338,0.458,0.508,1.22,0.508,2.283
			c0,1.061-0.17,1.824-0.511,2.288c-0.281,0.382-0.675,0.574-1.179,0.574c-0.505,0-0.914-0.21-1.223-0.629
			c-0.311-0.42-0.465-1.167-0.465-2.243c0-1.056,0.17-1.816,0.511-2.28C27.721,26.83,28.114,26.639,28.617,26.639z M28.617,27.53
			c-0.121,0-0.227,0.042-0.322,0.125s-0.168,0.231-0.22,0.445c-0.069,0.278-0.102,0.746-0.102,1.403c0,0.659,0.03,1.11,0.092,1.357
			c0.06,0.245,0.138,0.409,0.232,0.491c0.094,0.082,0.2,0.123,0.321,0.123c0.121,0,0.229-0.042,0.324-0.125
			c0.094-0.083,0.168-0.232,0.22-0.445c0.069-0.276,0.102-0.742,0.102-1.4c0-0.658-0.03-1.11-0.092-1.356
			c-0.062-0.245-0.14-0.41-0.232-0.493C28.845,27.572,28.738,27.53,28.617,27.53z"/>
	</g>
</g>
</svg>
