<?xml version="1.0" encoding="utf-8"?>
<!-- Generator: Adobe Illustrator 18.0.0, SVG Export Plug-In . SVG Version: 6.00 Build 0)  -->
<!DOCTYPE svg PUBLIC "-//W3C//DTD SVG 1.1//EN" "http://www.w3.org/Graphics/SVG/1.1/DTD/svg11.dtd">
<svg version="1.1" id="图层_1" xmlns="http://www.w3.org/2000/svg" xmlns:xlink="http://www.w3.org/1999/xlink" x="0px" y="0px"
	 width="32px" height="32px" viewBox="0 0 32 32" enable-background="new 0 0 32 32" xml:space="preserve">
<g>
	<path fill="#FFFFFF" d="M2.169,31.465c-0.933,0-1.69-0.758-1.69-1.69V2.113c0-0.932,0.758-1.691,1.69-1.691h27.662
		c0.933,0,1.69,0.759,1.69,1.691v27.662c0,0.932-0.758,1.69-1.69,1.69H2.169z"/>
	<path fill="#AFAFAF" d="M29.831,0.845c0.699,0,1.268,0.569,1.268,1.268v27.662c0,0.699-0.569,1.268-1.268,1.268H2.169
		c-0.699,0-1.268-0.569-1.268-1.268V2.113c0-0.699,0.569-1.268,1.268-1.268H29.831 M29.831,0H2.169C1.002,0,0.056,0.946,0.056,2.113
		v27.662c0,1.167,0.946,2.113,2.113,2.113h27.662c1.167,0,2.113-0.946,2.113-2.113V2.113C31.944,0.946,30.998,0,29.831,0L29.831,0z"
		/>
</g>
<g>
	<linearGradient id="SVGID_1_" gradientUnits="userSpaceOnUse" x1="15.9995" y1="30.0658" x2="15.9995" y2="1.8213">
		<stop  offset="0" style="stop-color:#00AEF9"/>
		<stop  offset="1" style="stop-color:#0092E1"/>
	</linearGradient>
	<path fill="url(#SVGID_1_)" d="M2.169,30.066c-0.16,0-0.291-0.131-0.291-0.291V2.113c0-0.16,0.131-0.291,0.291-0.291h27.663
		c0.16,0,0.29,0.131,0.29,0.291v27.662c0,0.16-0.13,0.291-0.29,0.291H2.169z"/>
</g>
<g>
	<g>
		<g>
			<polygon fill="#F5F5F5" points="6.287,6.81 8.791,4.741 8.791,8.879 			"/>
			<path fill="#F5F5F5" d="M15.585,11.85c-1.275-1.505-2.091-2.547-2.496-3.182c-0.548-0.862-0.971-1.017-1.114-1.027L8.182,7.662
				V5.905h3.528c0.479-0.07,1.684-0.029,2.862,1.819c0.245,0.385,0.852,1.217,2.354,2.991L15.585,11.85z"/>
		</g>
		<g>
			<polygon fill="#F5F5F5" points="25.712,14.958 23.208,17.027 23.208,12.889 			"/>
			<path fill="#F5F5F5" d="M16.414,9.919c1.275,1.505,2.091,2.547,2.496,3.182c0.548,0.862,0.971,1.017,1.114,1.027l3.793-0.022
				v1.758h-3.528c-0.479,0.07-1.684,0.029-2.862-1.819c-0.245-0.385-0.852-1.217-2.354-2.991L16.414,9.919z"/>
		</g>
	</g>
	<g>
		<g>
			<polygon fill="#F5F5F5" points="25.712,6.81 23.208,4.741 23.208,8.879 			"/>
			<path fill="#F5F5F5" d="M16.414,11.85c1.275-1.505,2.091-2.547,2.496-3.182c0.548-0.862,0.971-1.017,1.114-1.027l3.793,0.022
				V5.905h-3.528c-0.479-0.07-1.684-0.029-2.862,1.819c-0.245,0.385-0.852,1.217-2.354,2.991L16.414,11.85z"/>
		</g>
		<g>
			<polygon fill="#F5F5F5" points="6.287,14.958 8.791,17.027 8.791,12.889 			"/>
			<path fill="#F5F5F5" d="M15.585,9.919c-1.275,1.505-2.091,2.547-2.496,3.182c-0.548,0.862-0.971,1.017-1.114,1.027l-3.793-0.022
				v1.758h3.528c0.479,0.07,1.684,0.029,2.862-1.819c0.245-0.385,0.852-1.217,2.354-2.991L15.585,9.919z"/>
		</g>
	</g>
</g>
<g>
	<path fill="#FFFFFF" d="M5.024,29.125v-6.34h3.969v0.748h-3.19v1.963h2.761v0.749H5.803v2.88H5.024z"/>
	<path fill="#FFFFFF" d="M9.711,27.464l0.759-0.069c0.056,0.398,0.187,0.697,0.391,0.897c0.205,0.2,0.452,0.3,0.74,0.3
		c0.348,0,0.643-0.141,0.883-0.424c0.241-0.282,0.361-0.657,0.361-1.125c0-0.444-0.115-0.794-0.347-1.051s-0.534-0.385-0.909-0.385
		c-0.232,0-0.442,0.057-0.63,0.171c-0.188,0.114-0.334,0.261-0.441,0.443L9.84,26.127l0.569-3.257h2.925v0.744h-2.347l-0.317,1.704
		c0.354-0.265,0.724-0.398,1.111-0.398c0.514,0,0.947,0.192,1.301,0.575c0.353,0.384,0.529,0.877,0.529,1.479
		c0,0.574-0.155,1.07-0.466,1.488c-0.377,0.513-0.892,0.77-1.545,0.77c-0.534,0-0.972-0.161-1.31-0.484
		C9.952,28.425,9.76,27.997,9.711,27.464z"/>
	<path fill="#FFFFFF" d="M14.281,25.998c0-0.75,0.071-1.353,0.215-1.81s0.355-0.81,0.638-1.058s0.638-0.372,1.065-0.372
		c0.315,0,0.593,0.069,0.831,0.206c0.237,0.137,0.435,0.334,0.59,0.593c0.155,0.258,0.276,0.572,0.365,0.943
		c0.088,0.37,0.132,0.87,0.132,1.499c0,0.744-0.07,1.344-0.213,1.801c-0.142,0.457-0.354,0.811-0.636,1.06
		c-0.282,0.25-0.639,0.374-1.069,0.374c-0.567,0-1.013-0.219-1.336-0.657C14.476,28.047,14.281,27.188,14.281,25.998z
		 M15.023,25.998c0,1.041,0.113,1.733,0.34,2.078c0.226,0.345,0.505,0.517,0.836,0.517c0.332,0,0.61-0.173,0.837-0.519
		c0.226-0.346,0.339-1.038,0.339-2.076c0-1.044-0.113-1.737-0.339-2.081c-0.227-0.343-0.508-0.515-0.845-0.515
		c-0.332,0-0.597,0.151-0.795,0.454C15.148,24.243,15.023,24.957,15.023,25.998z"/>
	<path fill="#FFFFFF" d="M18.852,25.998c0-0.75,0.071-1.353,0.215-1.81s0.355-0.81,0.638-1.058s0.638-0.372,1.065-0.372
		c0.315,0,0.593,0.069,0.831,0.206c0.237,0.137,0.435,0.334,0.59,0.593c0.155,0.258,0.276,0.572,0.365,0.943
		c0.088,0.37,0.132,0.87,0.132,1.499c0,0.744-0.07,1.344-0.213,1.801c-0.142,0.457-0.354,0.811-0.636,1.06
		c-0.282,0.25-0.639,0.374-1.069,0.374c-0.567,0-1.013-0.219-1.336-0.657C19.046,28.047,18.852,27.188,18.852,25.998z
		 M19.594,25.998c0,1.041,0.113,1.733,0.34,2.078c0.226,0.345,0.505,0.517,0.836,0.517c0.332,0,0.61-0.173,0.837-0.519
		c0.226-0.346,0.339-1.038,0.339-2.076c0-1.044-0.113-1.737-0.339-2.081c-0.227-0.343-0.508-0.515-0.845-0.515
		c-0.332,0-0.597,0.151-0.795,0.454C19.719,24.243,19.594,24.957,19.594,25.998z"/>
	<path fill="#FFFFFF" d="M23.421,25.998c0-0.75,0.071-1.353,0.215-1.81s0.355-0.81,0.638-1.058s0.638-0.372,1.065-0.372
		c0.315,0,0.593,0.069,0.831,0.206c0.237,0.137,0.435,0.334,0.59,0.593c0.155,0.258,0.276,0.572,0.365,0.943
		c0.088,0.37,0.132,0.87,0.132,1.499c0,0.744-0.07,1.344-0.213,1.801c-0.142,0.457-0.354,0.811-0.636,1.06
		c-0.282,0.25-0.639,0.374-1.069,0.374c-0.567,0-1.013-0.219-1.336-0.657C23.615,28.047,23.421,27.188,23.421,25.998z
		 M24.163,25.998c0,1.041,0.113,1.733,0.34,2.078c0.226,0.345,0.505,0.517,0.836,0.517c0.332,0,0.61-0.173,0.837-0.519
		c0.226-0.346,0.339-1.038,0.339-2.076c0-1.044-0.113-1.737-0.339-2.081c-0.227-0.343-0.508-0.515-0.845-0.515
		c-0.332,0-0.597,0.151-0.795,0.454C24.288,24.243,24.163,24.957,24.163,25.998z"/>
</g>
<g>
	<path fill="#FFFFFF" d="M12.095,20.22l0.467,0.127c-0.098,0.414-0.273,0.729-0.528,0.946c-0.254,0.217-0.565,0.326-0.933,0.326
		c-0.381,0-0.689-0.083-0.928-0.25s-0.42-0.409-0.544-0.725c-0.125-0.317-0.188-0.657-0.188-1.02c0-0.396,0.07-0.742,0.211-1.037
		s0.341-0.519,0.6-0.672c0.259-0.153,0.545-0.229,0.855-0.229c0.354,0,0.65,0.097,0.892,0.291c0.24,0.194,0.408,0.466,0.503,0.817
		l-0.46,0.117c-0.082-0.276-0.201-0.478-0.356-0.604s-0.352-0.189-0.587-0.189c-0.271,0-0.498,0.07-0.681,0.21
		c-0.182,0.14-0.311,0.328-0.384,0.564c-0.074,0.236-0.111,0.479-0.111,0.73c0,0.323,0.044,0.606,0.132,0.847
		c0.087,0.241,0.224,0.421,0.408,0.541c0.185,0.119,0.384,0.179,0.6,0.179c0.261,0,0.482-0.082,0.664-0.244
		S12.03,20.541,12.095,20.22z"/>
	<path fill="#FFFFFF" d="M12.995,19.701c0-0.631,0.157-1.125,0.472-1.483s0.721-0.536,1.219-0.536c0.325,0,0.619,0.083,0.881,0.251
		s0.461,0.402,0.599,0.702c0.137,0.3,0.205,0.641,0.205,1.021c0,0.386-0.072,0.731-0.217,1.036
		c-0.144,0.304-0.349,0.535-0.613,0.691s-0.551,0.235-0.857,0.235c-0.332,0-0.629-0.086-0.891-0.26
		c-0.262-0.173-0.46-0.409-0.595-0.708S12.995,20.035,12.995,19.701z M13.477,19.709c0,0.458,0.114,0.82,0.343,1.083
		c0.229,0.264,0.516,0.396,0.861,0.396c0.352,0,0.641-0.133,0.867-0.4c0.228-0.266,0.341-0.645,0.341-1.134
		c0-0.31-0.048-0.58-0.146-0.811c-0.097-0.231-0.239-0.41-0.426-0.537c-0.188-0.127-0.397-0.191-0.63-0.191
		c-0.33,0-0.615,0.123-0.854,0.367C13.596,18.728,13.477,19.137,13.477,19.709z"/>
	<path fill="#FFFFFF" d="M17.87,21.554v-3.355h-1.163V17.75h2.798v0.449h-1.168v3.355H17.87z"/>
	<path fill="#FFFFFF" d="M19.984,21.554V17.75h1.331c0.234,0,0.413,0.012,0.537,0.036c0.173,0.031,0.318,0.09,0.436,0.178
		s0.211,0.21,0.282,0.367c0.072,0.158,0.107,0.331,0.107,0.519c0,0.324-0.096,0.597-0.286,0.821
		c-0.191,0.224-0.536,0.336-1.035,0.336h-0.905v1.547H19.984z M20.451,19.559h0.912c0.302,0,0.516-0.061,0.643-0.182
		s0.19-0.292,0.19-0.511c0-0.159-0.037-0.295-0.112-0.409c-0.074-0.113-0.173-0.188-0.295-0.225
		c-0.078-0.022-0.224-0.034-0.436-0.034h-0.902V19.559z"/>
</g>
</svg>
