<?xml version="1.0" encoding="utf-8"?>
<!-- Generator: Adobe Illustrator 18.0.0, SVG Export Plug-In . SVG Version: 6.00 Build 0)  -->
<!DOCTYPE svg PUBLIC "-//W3C//DTD SVG 1.1//EN" "http://www.w3.org/Graphics/SVG/1.1/DTD/svg11.dtd">
<svg version="1.1" id="图层_1" xmlns="http://www.w3.org/2000/svg" xmlns:xlink="http://www.w3.org/1999/xlink" x="0px" y="0px"
	 width="48px" height="48px" viewBox="0 0 48 48" enable-background="new 0 0 48 48" xml:space="preserve">
<g>
	<path fill="#FFFFFF" d="M3.649,46.798c-1.371,0-2.486-1.115-2.486-2.487V3.61c0-1.372,1.115-2.487,2.486-2.487h40.701
		c1.371,0,2.486,1.116,2.486,2.487v40.7c0,1.372-1.115,2.487-2.486,2.487H3.649z"/>
	<path fill="#AFAFAF" d="M44.35,1.745c1.029,0,1.865,0.837,1.865,1.865v40.701c0,1.029-0.837,1.865-1.865,1.865H3.65
		c-1.029,0-1.865-0.837-1.865-1.865V3.61c0-1.028,0.837-1.865,1.865-1.865H44.35 M44.35,0.501H3.65
		c-1.717,0-3.109,1.392-3.109,3.109v40.701c0,1.717,1.392,3.109,3.109,3.109H44.35c1.717,0,3.109-1.392,3.109-3.109V3.61
		C47.459,1.893,46.067,0.501,44.35,0.501L44.35,0.501z"/>
</g>
<g>
	<linearGradient id="SVGID_1_" gradientUnits="userSpaceOnUse" x1="23.9993" y1="44.7392" x2="23.9993" y2="3.1817">
		<stop  offset="0" style="stop-color:#FF1F30"/>
		<stop  offset="1" style="stop-color:#C3020F"/>
	</linearGradient>
	<path fill="url(#SVGID_1_)" d="M3.649,44.739c-0.236,0-0.429-0.193-0.429-0.429V3.61c0-0.236,0.193-0.429,0.429-0.429h40.702
		c0.236,0,0.427,0.193,0.427,0.429v40.7c0,0.236-0.191,0.429-0.427,0.429H3.649z"/>
</g>
<g>
	<g>
		<g>
			<polygon fill="#F5F5F5" points="9.709,10.522 13.393,7.478 13.393,13.566 			"/>
			<path fill="#F5F5F5" d="M23.389,17.937c-1.876-2.215-3.077-3.748-3.672-4.682c-0.806-1.268-1.428-1.497-1.639-1.511l-5.58,0.032
				V9.19h5.191c0.705-0.103,2.478-0.043,4.211,2.676c0.361,0.566,1.253,1.791,3.463,4.401L23.389,17.937z"/>
		</g>
		<g>
			<polygon fill="#F5F5F5" points="38.29,22.511 34.606,25.555 34.606,19.467 			"/>
			<path fill="#F5F5F5" d="M24.61,15.096c1.876,2.215,3.077,3.748,3.672,4.682c0.806,1.268,1.428,1.497,1.639,1.511l5.58-0.032
				v2.586h-5.191c-0.705,0.103-2.478,0.043-4.211-2.676c-0.361-0.566-1.253-1.791-3.463-4.401L24.61,15.096z"/>
		</g>
	</g>
	<g>
		<g>
			<polygon fill="#F5F5F5" points="38.29,10.522 34.606,7.478 34.606,13.566 			"/>
			<path fill="#F5F5F5" d="M24.61,17.937c1.876-2.215,3.077-3.748,3.672-4.682c0.806-1.268,1.428-1.497,1.639-1.511l5.58,0.032V9.19
				h-5.191c-0.705-0.103-2.478-0.043-4.211,2.676c-0.361,0.566-1.253,1.791-3.463,4.401L24.61,17.937z"/>
		</g>
		<g>
			<polygon fill="#F5F5F5" points="9.709,22.511 13.393,25.555 13.393,19.467 			"/>
			<path fill="#F5F5F5" d="M23.389,15.096c-1.876,2.215-3.077,3.748-3.672,4.682c-0.806,1.268-1.428,1.497-1.639,1.511l-5.58-0.032
				v2.586h5.191c0.705,0.103,2.478,0.043,4.211-2.676c0.361-0.566,1.253-1.791,3.463-4.401L23.389,15.096z"/>
		</g>
	</g>
</g>
<g>
	<path fill="#FFFFFF" d="M7.849,43.268v-9.329h5.838v1.101H8.993v2.89h4.063v1.101H8.993v4.238H7.849z"/>
	<path fill="#FFFFFF" d="M20.258,36.223l-1.057,0.09c-0.095-0.45-0.229-0.776-0.401-0.98c-0.287-0.326-0.642-0.49-1.063-0.49
		c-0.339,0-0.636,0.103-0.892,0.306c-0.335,0.263-0.599,0.647-0.791,1.152c-0.193,0.505-0.293,1.224-0.301,2.157
		c0.256-0.42,0.568-0.732,0.938-0.936c0.37-0.204,0.758-0.306,1.163-0.306c0.708,0,1.312,0.281,1.81,0.843
		c0.497,0.563,0.746,1.289,0.746,2.18c0,0.586-0.117,1.13-0.351,1.633c-0.234,0.502-0.557,0.888-0.966,1.154
		c-0.409,0.268-0.873,0.401-1.393,0.401c-0.886,0-1.608-0.352-2.167-1.054s-0.839-1.858-0.839-3.471c0-1.804,0.31-3.114,0.928-3.933
		c0.539-0.713,1.265-1.069,2.178-1.069c0.682,0,1.239,0.206,1.674,0.617S20.172,35.497,20.258,36.223z M15.919,40.245
		c0,0.395,0.077,0.771,0.233,1.133c0.155,0.36,0.372,0.635,0.652,0.823c0.279,0.189,0.572,0.283,0.879,0.283
		c0.449,0,0.835-0.194,1.157-0.585c0.323-0.391,0.484-0.921,0.484-1.591c0-0.645-0.159-1.153-0.479-1.524
		c-0.318-0.371-0.72-0.557-1.204-0.557c-0.48,0-0.888,0.186-1.222,0.557C16.086,39.155,15.919,39.643,15.919,40.245z"/>
	<path fill="#FFFFFF" d="M21.469,38.667c0-1.104,0.105-1.991,0.315-2.663c0.211-0.673,0.523-1.191,0.938-1.557
		c0.416-0.364,0.938-0.547,1.568-0.547c0.464,0,0.871,0.101,1.222,0.302c0.351,0.202,0.64,0.492,0.868,0.872
		c0.228,0.38,0.407,0.843,0.537,1.388s0.194,1.28,0.194,2.205c0,1.094-0.104,1.978-0.313,2.65c-0.209,0.672-0.521,1.192-0.936,1.559
		c-0.416,0.367-0.94,0.551-1.573,0.551c-0.835,0-1.49-0.322-1.967-0.968C21.754,41.683,21.469,40.419,21.469,38.667z M22.561,38.667
		c0,1.531,0.166,2.551,0.499,3.058s0.743,0.76,1.231,0.76c0.487,0,0.897-0.254,1.23-0.763c0.333-0.51,0.499-1.527,0.499-3.055
		c0-1.536-0.166-2.557-0.499-3.062s-0.747-0.757-1.243-0.757c-0.487,0-0.877,0.223-1.169,0.668
		C22.744,36.085,22.561,37.135,22.561,38.667z"/>
	<path fill="#FFFFFF" d="M28.193,38.667c0-1.104,0.105-1.991,0.315-2.663c0.211-0.673,0.523-1.191,0.938-1.557
		c0.416-0.364,0.938-0.547,1.568-0.547c0.464,0,0.871,0.101,1.222,0.302c0.351,0.202,0.64,0.492,0.868,0.872
		c0.228,0.38,0.407,0.843,0.537,1.388s0.194,1.28,0.194,2.205c0,1.094-0.104,1.978-0.313,2.65c-0.209,0.672-0.521,1.192-0.936,1.559
		c-0.416,0.367-0.94,0.551-1.573,0.551c-0.835,0-1.49-0.322-1.967-0.968C28.479,41.683,28.193,40.419,28.193,38.667z M29.285,38.667
		c0,1.531,0.166,2.551,0.499,3.058s0.743,0.76,1.231,0.76c0.487,0,0.897-0.254,1.23-0.763c0.333-0.51,0.499-1.527,0.499-3.055
		c0-1.536-0.166-2.557-0.499-3.062s-0.747-0.757-1.243-0.757c-0.487,0-0.877,0.223-1.169,0.668
		C29.469,36.085,29.285,37.135,29.285,38.667z"/>
	<path fill="#FFFFFF" d="M34.918,38.667c0-1.104,0.105-1.991,0.315-2.663c0.211-0.673,0.523-1.191,0.938-1.557
		c0.416-0.364,0.938-0.547,1.568-0.547c0.464,0,0.871,0.101,1.222,0.302c0.351,0.202,0.64,0.492,0.868,0.872
		c0.228,0.38,0.407,0.843,0.537,1.388s0.194,1.28,0.194,2.205c0,1.094-0.104,1.978-0.313,2.65c-0.209,0.672-0.521,1.192-0.936,1.559
		c-0.416,0.367-0.94,0.551-1.573,0.551c-0.835,0-1.49-0.322-1.967-0.968C35.203,41.683,34.918,40.419,34.918,38.667z M36.01,38.667
		c0,1.531,0.166,2.551,0.499,3.058s0.743,0.76,1.231,0.76c0.487,0,0.897-0.254,1.23-0.763c0.333-0.51,0.499-1.527,0.499-3.055
		c0-1.536-0.166-2.557-0.499-3.062s-0.747-0.757-1.243-0.757c-0.487,0-0.877,0.223-1.169,0.668
		C36.193,36.085,36.01,37.135,36.01,38.667z"/>
</g>
<g>
	<path fill="#FFFFFF" d="M17.865,26.534h1.049v3.032c0,0.48,0.013,0.793,0.039,0.935c0.045,0.229,0.151,0.413,0.32,0.552
		c0.169,0.14,0.399,0.209,0.692,0.209c0.298,0,0.522-0.066,0.673-0.197c0.151-0.131,0.242-0.292,0.273-0.482
		c0.03-0.191,0.046-0.508,0.046-0.951v-3.097h1.048v2.94c0,0.672-0.028,1.146-0.085,1.424s-0.161,0.512-0.313,0.703
		c-0.152,0.19-0.355,0.343-0.61,0.456c-0.256,0.113-0.588,0.17-0.999,0.17c-0.496,0-0.872-0.062-1.128-0.186
		c-0.257-0.123-0.459-0.283-0.608-0.481c-0.148-0.196-0.246-0.403-0.294-0.62c-0.068-0.32-0.103-0.794-0.103-1.42V26.534z"/>
	<path fill="#FFFFFF" d="M22.856,30.646l0.964-0.126c0.03,0.265,0.113,0.467,0.248,0.607c0.135,0.14,0.297,0.21,0.488,0.21
		c0.206,0,0.379-0.084,0.52-0.252s0.211-0.395,0.211-0.68c0-0.271-0.067-0.483-0.202-0.642s-0.299-0.237-0.492-0.237
		c-0.128,0-0.28,0.027-0.457,0.081l0.109-0.875c0.27,0.008,0.475-0.055,0.616-0.188s0.213-0.312,0.213-0.533
		c0-0.188-0.052-0.338-0.156-0.45c-0.104-0.112-0.242-0.168-0.414-0.168c-0.17,0-0.315,0.063-0.436,0.19
		c-0.121,0.128-0.194,0.313-0.22,0.558l-0.918-0.168c0.064-0.338,0.16-0.608,0.289-0.812c0.129-0.202,0.309-0.361,0.538-0.477
		c0.23-0.116,0.488-0.174,0.774-0.174c0.489,0,0.881,0.168,1.176,0.504c0.243,0.274,0.365,0.585,0.365,0.932
		c0,0.491-0.249,0.883-0.748,1.176c0.298,0.068,0.536,0.223,0.714,0.462c0.179,0.239,0.268,0.528,0.268,0.867
		c0,0.491-0.166,0.91-0.499,1.256c-0.333,0.347-0.748,0.52-1.243,0.52c-0.471,0-0.86-0.146-1.169-0.438
		C23.086,31.499,22.906,31.117,22.856,30.646z"/>
	<path fill="#FFFFFF" d="M28.608,26.512c0.504,0,0.896,0.193,1.18,0.58c0.338,0.458,0.507,1.218,0.507,2.279
		c0,1.06-0.17,1.82-0.51,2.283c-0.281,0.382-0.673,0.573-1.177,0.573c-0.505,0-0.912-0.21-1.222-0.628
		c-0.31-0.419-0.464-1.166-0.464-2.24c0-1.054,0.17-1.812,0.51-2.275C27.714,26.702,28.105,26.512,28.608,26.512z M28.608,27.401
		c-0.12,0-0.228,0.041-0.322,0.124c-0.094,0.082-0.167,0.23-0.219,0.444c-0.069,0.277-0.104,0.745-0.104,1.401
		c0,0.657,0.031,1.108,0.093,1.354c0.061,0.246,0.139,0.409,0.231,0.491c0.094,0.081,0.2,0.122,0.32,0.122
		c0.121,0,0.229-0.042,0.323-0.124c0.094-0.083,0.167-0.231,0.219-0.445c0.069-0.274,0.104-0.74,0.104-1.397
		c0-0.656-0.031-1.107-0.093-1.354c-0.062-0.245-0.139-0.41-0.231-0.492C28.836,27.442,28.729,27.401,28.608,27.401z"/>
</g>
</svg>
