<?xml version="1.0" encoding="utf-8"?>
<!-- Generator: Adobe Illustrator 18.0.0, SVG Export Plug-In . SVG Version: 6.00 Build 0)  -->
<!DOCTYPE svg PUBLIC "-//W3C//DTD SVG 1.1//EN" "http://www.w3.org/Graphics/SVG/1.1/DTD/svg11.dtd">
<svg version="1.1" id="图层_1" xmlns="http://www.w3.org/2000/svg" xmlns:xlink="http://www.w3.org/1999/xlink" x="0px" y="0px"
	 width="36px" height="36px" viewBox="0 0 36 36" enable-background="new 0 0 36 36" xml:space="preserve">
<g>
	<g>
		<path fill="#FFFFFF" d="M2.412,35.463c-1.05,0-1.905-0.854-1.905-1.904V2.382c0-1.05,0.855-1.905,1.905-1.905h31.176
			c1.051,0,1.905,0.854,1.905,1.905v31.177c0,1.05-0.854,1.904-1.905,1.904H2.412z"/>
		<path fill="#AFAFAF" d="M33.588,0.953c0.788,0,1.429,0.641,1.429,1.429v31.176c0,0.788-0.641,1.429-1.429,1.429H2.412
			c-0.788,0-1.429-0.641-1.429-1.429V2.382c0-0.788,0.641-1.429,1.429-1.429H33.588 M33.588,0.001H2.412
			c-1.315,0-2.381,1.066-2.381,2.381v31.176c0,1.315,1.066,2.381,2.381,2.381h31.176c1.315,0,2.381-1.066,2.381-2.381V2.382
			C35.969,1.067,34.903,0.001,33.588,0.001L33.588,0.001z"/>
	</g>
	<g>
		<linearGradient id="SVGID_1_" gradientUnits="userSpaceOnUse" x1="17.9995" y1="33.8862" x2="17.9995" y2="2.0538">
			<stop  offset="0" style="stop-color:#FF7F01"/>
			<stop  offset="1" style="stop-color:#F05800"/>
		</linearGradient>
		<path fill="url(#SVGID_1_)" d="M2.412,33.886c-0.18,0-0.328-0.148-0.328-0.328V2.382c0-0.18,0.148-0.328,0.328-0.328h31.177
			c0.18,0,0.327,0.148,0.327,0.328v31.176c0,0.18-0.147,0.328-0.327,0.328H2.412z"/>
	</g>
	<g>
		<g>
			<g>
				<polygon fill="#F5F5F5" points="7.053,7.676 9.875,5.344 9.875,10.008 				"/>
				<path fill="#F5F5F5" d="M17.532,13.356c-1.437-1.696-2.357-2.871-2.813-3.586c-0.618-0.971-1.094-1.147-1.256-1.158L9.189,8.637
					V6.656h3.976c0.54-0.079,1.898-0.033,3.226,2.05c0.276,0.434,0.96,1.372,2.652,3.371L17.532,13.356z"/>
			</g>
			<g>
				<polygon fill="#F5F5F5" points="28.946,16.86 26.124,19.191 26.124,14.528 				"/>
				<path fill="#F5F5F5" d="M18.467,11.18c1.437,1.696,2.357,2.871,2.813,3.586c0.618,0.971,1.094,1.147,1.256,1.158l4.274-0.025
					v1.981h-3.976c-0.54,0.079-1.898,0.033-3.226-2.05c-0.276-0.434-0.96-1.372-2.652-3.371L18.467,11.18z"/>
			</g>
		</g>
		<g>
			<g>
				<polygon fill="#F5F5F5" points="28.946,7.676 26.124,5.344 26.124,10.008 				"/>
				<path fill="#F5F5F5" d="M18.467,13.356c1.437-1.696,2.357-2.871,2.813-3.586c0.618-0.971,1.094-1.147,1.256-1.158l4.274,0.025
					V6.656h-3.976c-0.54-0.079-1.898-0.033-3.226,2.05c-0.276,0.434-0.96,1.372-2.652,3.371L18.467,13.356z"/>
			</g>
			<g>
				<polygon fill="#F5F5F5" points="7.053,16.86 9.875,19.191 9.875,14.528 				"/>
				<path fill="#F5F5F5" d="M17.532,11.18c-1.437,1.696-2.357,2.871-2.813,3.586c-0.618,0.971-1.094,1.147-1.256,1.158l-4.274-0.025
					v1.981h3.976c0.54,0.079,1.898,0.033,3.226-2.05c0.276-0.434,0.96-1.372,2.652-3.371L17.532,11.18z"/>
			</g>
		</g>
	</g>
	<text transform="matrix(0.9277 0 0 1 4.8693 32.7584)" fill="#FFFFFF" font-family="'ArialMT'" font-size="9.983">F6000</text>
	<text transform="matrix(0.9277 0 0 1 10.5978 24.2292)"><tspan x="0" y="0" fill="#FFFFFF" font-family="'Arial-BoldMT'" font-size="5.9898">U</tspan><tspan x="4.325" y="0" fill="#FFFFFF" font-family="'Arial-BoldMT'" font-size="6.3538">60A</tspan></text>
</g>
</svg>
