<?xml version="1.0" encoding="utf-8"?>
<!-- Generator: Adobe Illustrator 18.0.0, SVG Export Plug-In . SVG Version: 6.00 Build 0)  -->
<!DOCTYPE svg PUBLIC "-//W3C//DTD SVG 1.1//EN" "http://www.w3.org/Graphics/SVG/1.1/DTD/svg11.dtd">
<svg version="1.1" id="图层_1" xmlns="http://www.w3.org/2000/svg" xmlns:xlink="http://www.w3.org/1999/xlink" x="0px" y="0px"
	 width="34.878px" height="34.878px" viewBox="0 0 34.878 34.878" enable-background="new 0 0 34.878 34.878" xml:space="preserve">
<g>
	<g>
		<path fill="#FFFFFF" d="M1.879,34.898c-1.048,0-1.901-0.853-1.901-1.901V1.877c0-1.048,0.853-1.901,1.901-1.901h31.119
			c1.048,0,1.901,0.853,1.901,1.901v31.119c0,1.048-0.853,1.901-1.901,1.901H1.879z"/>
		<path fill="#AFAFAF" d="M32.999,0.451c0.786,0,1.426,0.64,1.426,1.426v31.119c0,0.786-0.64,1.426-1.426,1.426H1.879
			c-0.786,0-1.426-0.64-1.426-1.426V1.877c0-0.786,0.64-1.426,1.426-1.426H32.999 M32.999-0.5H1.879
			c-1.313,0-2.377,1.064-2.377,2.377v31.119c0,1.313,1.064,2.377,2.377,2.377h31.119c1.313,0,2.377-1.064,2.377-2.377V1.877
			C35.375,0.564,34.311-0.5,32.999-0.5L32.999-0.5z"/>
	</g>
	<g>
		<path fill="#C4C4C4" d="M1.879,33.324c-0.18,0-0.328-0.148-0.328-0.328V1.877c0-0.18,0.148-0.328,0.328-0.328h31.12
			c0.18,0,0.327,0.148,0.327,0.328v31.119c0,0.18-0.146,0.328-0.327,0.328H1.879z"/>
	</g>
	<g>
		<g>
			<g>
				<polygon fill="#F5F5F5" points="6.512,7.162 9.329,4.834 9.329,9.489 				"/>
				<path fill="#F5F5F5" d="M16.972,12.831c-1.434-1.693-2.353-2.866-2.808-3.58c-0.616-0.969-1.092-1.145-1.253-1.156L8.644,8.12
					V6.143h3.969c0.539-0.079,1.895-0.033,3.22,2.046c0.276,0.433,0.958,1.369,2.648,3.365L16.972,12.831z"/>
			</g>
			<g>
				<polygon fill="#F5F5F5" points="28.365,16.328 25.548,18.656 25.548,14.001 				"/>
				<path fill="#F5F5F5" d="M17.905,10.659c1.434,1.693,2.353,2.866,2.808,3.58c0.616,0.969,1.092,1.145,1.253,1.156l4.267-0.025
					v1.977h-3.969c-0.539,0.079-1.895,0.033-3.22-2.046c-0.276-0.433-0.958-1.369-2.648-3.365L17.905,10.659z"/>
			</g>
		</g>
		<g>
			<g>
				<polygon fill="#F5F5F5" points="28.365,7.162 25.548,4.834 25.548,9.489 				"/>
				<path fill="#F5F5F5" d="M17.905,12.831c1.434-1.693,2.353-2.866,2.808-3.58c0.616-0.969,1.092-1.145,1.253-1.156l4.267,0.025
					V6.143h-3.969c-0.539-0.079-1.895-0.033-3.22,2.046c-0.276,0.433-0.958,1.369-2.648,3.365L17.905,12.831z"/>
			</g>
			<g>
				<polygon fill="#F5F5F5" points="6.512,16.328 9.329,18.656 9.329,14.001 				"/>
				<path fill="#F5F5F5" d="M16.972,10.659c-1.434,1.693-2.353,2.866-2.808,3.58c-0.616,0.969-1.092,1.145-1.253,1.156L8.644,15.37
					v1.977h3.969c0.539,0.079,1.895,0.033,3.22-2.046c0.276-0.433,0.958-1.369,2.648-3.365L16.972,10.659z"/>
			</g>
		</g>
	</g>
	<text transform="matrix(0.9277 0 0 1 4.3321 32.2646)" fill="#FFFFFF" font-family="'ArialMT'" font-size="9.9648">F6000</text>
	<text transform="matrix(0.9277 0 0 1 10.3594 23.75)" fill="#FFFFFF" font-family="'Arial-BoldMT'" font-size="5.9789">U60A</text>
</g>
</svg>
