<?xml version="1.0" encoding="utf-8"?>
<!-- Generator: Adobe Illustrator 18.0.0, SVG Export Plug-In . SVG Version: 6.00 Build 0)  -->
<!DOCTYPE svg PUBLIC "-//W3C//DTD SVG 1.1//EN" "http://www.w3.org/Graphics/SVG/1.1/DTD/svg11.dtd">
<svg version="1.1" id="图层_1" xmlns="http://www.w3.org/2000/svg" xmlns:xlink="http://www.w3.org/1999/xlink" x="0px" y="0px"
	 width="42px" height="42px" viewBox="0 0 42 42" enable-background="new 0 0 42 42" xml:space="preserve">
<g>
	<path fill="#FFFFFF" d="M3.681,40.399c-1.167,0-2.116-0.949-2.116-2.116V3.645c0-1.167,0.949-2.117,2.116-2.117h34.639
		c1.167,0,2.116,0.95,2.116,2.117v34.638c0,1.167-0.949,2.116-2.116,2.116H3.681z"/>
	<path fill="#AFAFAF" d="M38.319,2.058c0.875,0,1.587,0.712,1.587,1.587v34.638c0,0.875-0.712,1.587-1.587,1.587H3.681
		c-0.875,0-1.587-0.712-1.587-1.587V3.645c0-0.875,0.712-1.587,1.587-1.587H38.319 M38.319,0.999H3.681
		c-1.461,0-2.646,1.185-2.646,2.646v34.638c0,1.461,1.185,2.646,2.646,2.646h34.638c1.461,0,2.646-1.185,2.646-2.646V3.645
		C40.965,2.184,39.78,0.999,38.319,0.999L38.319,0.999z"/>
</g>
<g>
	<linearGradient id="SVGID_1_" gradientUnits="userSpaceOnUse" x1="20.9994" y1="38.6477" x2="20.9994" y2="3.2802">
		<stop  offset="0" style="stop-color:#F1E821"/>
		<stop  offset="1" style="stop-color:#D6B900"/>
	</linearGradient>
	<path fill="url(#SVGID_1_)" d="M3.681,38.648c-0.201,0-0.365-0.164-0.365-0.365V3.645c0-0.201,0.164-0.365,0.365-0.365H38.32
		c0.201,0,0.363,0.164,0.363,0.365v34.638c0,0.201-0.163,0.365-0.363,0.365H3.681z"/>
</g>
<g>
	<g>
		<g>
			<polygon fill="#A37C00" points="8.837,9.527 11.973,6.936 11.973,12.118 			"/>
			<path fill="#A37C00" d="M20.48,15.838c-1.596-1.885-2.619-3.19-3.125-3.985c-0.686-1.079-1.216-1.274-1.395-1.286l-4.749,0.028
				V8.393h4.417c0.6-0.087,2.109-0.037,3.584,2.278c0.307,0.482,1.067,1.524,2.947,3.745L20.48,15.838z"/>
		</g>
		<g>
			<polygon fill="#A37C00" points="33.161,19.73 30.026,22.321 30.026,17.14 			"/>
			<path fill="#A37C00" d="M21.519,13.42c1.596,1.885,2.619,3.19,3.125,3.985c0.686,1.079,1.216,1.274,1.395,1.286l4.749-0.028
				v2.201h-4.417c-0.6,0.087-2.109,0.037-3.584-2.278c-0.307-0.482-1.067-1.524-2.947-3.745L21.519,13.42z"/>
		</g>
	</g>
	<g>
		<g>
			<polygon fill="#A37C00" points="33.161,9.527 30.026,6.936 30.026,12.118 			"/>
			<path fill="#A37C00" d="M21.519,15.838c1.596-1.885,2.619-3.19,3.125-3.985c0.686-1.079,1.216-1.274,1.395-1.286l4.749,0.028
				V8.393h-4.417c-0.6-0.087-2.109-0.037-3.584,2.278c-0.307,0.482-1.067,1.524-2.947,3.745L21.519,15.838z"/>
		</g>
		<g>
			<polygon fill="#A37C00" points="8.837,19.73 11.973,22.321 11.973,17.14 			"/>
			<path fill="#A37C00" d="M20.48,13.42c-1.596,1.885-2.619,3.19-3.125,3.985c-0.686,1.079-1.216,1.274-1.395,1.286l-4.749-0.028
				v2.201h4.417c0.6,0.087,2.109,0.037,3.584-2.278c0.307-0.482,1.067-1.524,2.947-3.745L20.48,13.42z"/>
		</g>
	</g>
</g>
<g>
	<path fill="#A37C00" d="M7.996,37.399V29.46h4.969v0.937H8.97v2.459h3.457v0.937H8.97v3.607H7.996z"/>
	<path fill="#A37C00" d="M18.557,31.404l-0.899,0.075c-0.08-0.382-0.194-0.66-0.341-0.834c-0.245-0.277-0.546-0.417-0.904-0.417
		c-0.289,0-0.541,0.087-0.759,0.261c-0.285,0.224-0.509,0.55-0.673,0.979s-0.25,1.042-0.256,1.836
		c0.218-0.357,0.484-0.622,0.799-0.796c0.315-0.173,0.645-0.26,0.99-0.26c0.603,0,1.116,0.239,1.54,0.718s0.636,1.097,0.636,1.854
		c0,0.498-0.1,0.962-0.299,1.39c-0.2,0.428-0.473,0.755-0.822,0.982c-0.348,0.228-0.744,0.342-1.186,0.342
		c-0.754,0-1.369-0.299-1.844-0.896s-0.713-1.582-0.713-2.954c0-1.535,0.263-2.65,0.789-3.348c0.459-0.606,1.077-0.909,1.854-0.909
		c0.579,0,1.054,0.175,1.424,0.525C18.261,30.303,18.483,30.787,18.557,31.404z M14.864,34.827c0,0.336,0.066,0.657,0.199,0.964
		s0.317,0.541,0.555,0.701c0.238,0.161,0.487,0.241,0.749,0.241c0.382,0,0.71-0.166,0.985-0.498
		c0.274-0.332,0.412-0.784,0.412-1.354c0-0.549-0.136-0.98-0.407-1.297c-0.271-0.315-0.613-0.474-1.025-0.474
		c-0.409,0-0.755,0.158-1.04,0.474C15.006,33.9,14.864,34.314,14.864,34.827z"/>
	<path fill="#A37C00" d="M19.587,33.483c0-0.938,0.089-1.693,0.269-2.267c0.179-0.571,0.445-1.013,0.799-1.323
		s0.798-0.466,1.334-0.466c0.396,0,0.742,0.085,1.04,0.257c0.298,0.172,0.544,0.419,0.739,0.742s0.347,0.717,0.457,1.181
		s0.166,1.089,0.166,1.876c0,0.932-0.089,1.684-0.267,2.256c-0.177,0.572-0.443,1.015-0.796,1.327
		c-0.353,0.313-0.799,0.469-1.339,0.469c-0.71,0-1.268-0.274-1.673-0.823C19.83,36.051,19.587,34.975,19.587,33.483z M20.516,33.483
		c0,1.304,0.142,2.171,0.425,2.603c0.283,0.432,0.632,0.647,1.047,0.647s0.765-0.217,1.048-0.65c0.283-0.433,0.424-1.3,0.424-2.6
		c0-1.307-0.142-2.175-0.424-2.604c-0.283-0.43-0.636-0.645-1.058-0.645c-0.416,0-0.747,0.189-0.995,0.568
		C20.672,31.287,20.516,32.181,20.516,33.483z"/>
	<path fill="#A37C00" d="M25.31,33.483c0-0.938,0.089-1.693,0.269-2.267c0.179-0.571,0.445-1.013,0.799-1.323
		s0.798-0.466,1.334-0.466c0.396,0,0.742,0.085,1.04,0.257c0.298,0.172,0.544,0.419,0.739,0.742s0.347,0.717,0.457,1.181
		s0.166,1.089,0.166,1.876c0,0.932-0.089,1.684-0.267,2.256c-0.177,0.572-0.443,1.015-0.796,1.327
		c-0.353,0.313-0.799,0.469-1.339,0.469c-0.71,0-1.268-0.274-1.673-0.823C25.552,36.051,25.31,34.975,25.31,33.483z M26.239,33.483
		c0,1.304,0.142,2.171,0.425,2.603c0.283,0.432,0.632,0.647,1.047,0.647s0.765-0.217,1.048-0.65c0.283-0.433,0.424-1.3,0.424-2.6
		c0-1.307-0.142-2.175-0.424-2.604c-0.283-0.43-0.636-0.645-1.058-0.645c-0.416,0-0.747,0.189-0.995,0.568
		C26.395,31.287,26.239,32.181,26.239,33.483z"/>
	<path fill="#A37C00" d="M31.032,33.483c0-0.938,0.089-1.693,0.269-2.267c0.179-0.571,0.445-1.013,0.799-1.323
		s0.798-0.466,1.334-0.466c0.396,0,0.742,0.085,1.04,0.257c0.298,0.172,0.544,0.419,0.739,0.742s0.347,0.717,0.457,1.181
		s0.166,1.089,0.166,1.876c0,0.932-0.089,1.684-0.267,2.256c-0.177,0.572-0.443,1.015-0.796,1.327
		c-0.353,0.313-0.799,0.469-1.339,0.469c-0.71,0-1.268-0.274-1.673-0.823C31.275,36.051,31.032,34.975,31.032,33.483z
		 M31.961,33.483c0,1.304,0.142,2.171,0.425,2.603c0.283,0.432,0.632,0.647,1.047,0.647s0.765-0.217,1.048-0.65
		c0.283-0.433,0.424-1.3,0.424-2.6c0-1.307-0.142-2.175-0.424-2.604c-0.283-0.43-0.636-0.645-1.058-0.645
		c-0.416,0-0.747,0.189-0.995,0.568C32.117,31.287,31.961,32.181,31.961,33.483z"/>
</g>
<g>
	<path fill="#A37C00" d="M15.367,22.841h0.95v2.748c0,0.436,0.012,0.718,0.035,0.848c0.041,0.208,0.138,0.374,0.291,0.5
		s0.362,0.188,0.628,0.188c0.27,0,0.473-0.059,0.609-0.178c0.137-0.119,0.219-0.265,0.247-0.438c0.028-0.173,0.042-0.46,0.042-0.861
		v-2.806h0.951v2.664c0,0.609-0.026,1.039-0.077,1.29c-0.051,0.252-0.146,0.464-0.284,0.637c-0.138,0.173-0.323,0.311-0.554,0.413
		C17.973,27.949,17.672,28,17.299,28c-0.449,0-0.79-0.056-1.022-0.168c-0.232-0.112-0.416-0.257-0.551-0.436
		c-0.135-0.178-0.224-0.366-0.266-0.562c-0.063-0.291-0.093-0.72-0.093-1.287V22.841z"/>
	<path fill="#A37C00" d="M22.23,27.914h-0.902v-3.664c-0.33,0.332-0.718,0.578-1.165,0.737v-0.882
		c0.235-0.083,0.491-0.241,0.767-0.473c0.276-0.232,0.466-0.502,0.568-0.811h0.732V27.914z"/>
	<path fill="#A37C00" d="M25.103,22.82c0.456,0,0.813,0.175,1.069,0.526c0.306,0.415,0.46,1.104,0.46,2.065
		c0,0.96-0.154,1.65-0.462,2.07C25.916,27.827,25.559,28,25.103,28c-0.457,0-0.827-0.19-1.107-0.569
		c-0.281-0.38-0.421-1.056-0.421-2.029c0-0.955,0.154-1.643,0.462-2.063C24.292,22.993,24.647,22.82,25.103,22.82z M25.103,23.626
		c-0.109,0-0.206,0.038-0.292,0.113c-0.086,0.075-0.152,0.209-0.199,0.403c-0.063,0.251-0.092,0.675-0.092,1.27
		c0,0.596,0.027,1.005,0.083,1.227c0.055,0.222,0.125,0.37,0.21,0.444c0.085,0.074,0.181,0.111,0.29,0.111s0.207-0.038,0.293-0.113
		c0.085-0.075,0.152-0.21,0.199-0.403c0.063-0.249,0.092-0.671,0.092-1.267c0-0.595-0.027-1.004-0.083-1.227
		c-0.056-0.222-0.126-0.371-0.21-0.446C25.309,23.664,25.213,23.626,25.103,23.626z"/>
</g>
</svg>
