<?xml version="1.0" encoding="utf-8"?>
<!-- Generator: Adobe Illustrator 18.0.0, SVG Export Plug-In . SVG Version: 6.00 Build 0)  -->
<!DOCTYPE svg PUBLIC "-//W3C//DTD SVG 1.1//EN" "http://www.w3.org/Graphics/SVG/1.1/DTD/svg11.dtd">
<svg version="1.1" id="图层_1" xmlns="http://www.w3.org/2000/svg" xmlns:xlink="http://www.w3.org/1999/xlink" x="0px" y="0px"
	 width="42px" height="42px" viewBox="0 0 42 42" enable-background="new 0 0 42 42" xml:space="preserve">
<g>
	<path fill="#FFFFFF" d="M3.681,40.399c-1.167,0-2.117-0.949-2.117-2.116V3.646c0-1.168,0.949-2.117,2.117-2.117h34.638
		c1.167,0,2.117,0.949,2.117,2.117v34.638c0,1.167-0.949,2.116-2.117,2.116H3.681z"/>
	<path fill="#AFAFAF" d="M38.319,2.058c0.875,0,1.587,0.712,1.587,1.587v34.638c0,0.875-0.712,1.587-1.587,1.587H3.681
		c-0.875,0-1.587-0.712-1.587-1.587V3.645c0-0.875,0.712-1.587,1.587-1.587H38.319 M38.319,0.999H3.681
		c-1.461,0-2.646,1.185-2.646,2.646v34.638c0,1.461,1.184,2.646,2.646,2.646h34.638c1.461,0,2.646-1.185,2.646-2.646V3.645
		C40.965,2.184,39.78,0.999,38.319,0.999L38.319,0.999z"/>
</g>
<g>
	<linearGradient id="SVGID_1_" gradientUnits="userSpaceOnUse" x1="20.9994" y1="38.6474" x2="20.9994" y2="3.2804">
		<stop  offset="0" style="stop-color:#76797A"/>
		<stop  offset="1" style="stop-color:#5F6263"/>
	</linearGradient>
	<path fill="url(#SVGID_1_)" d="M3.681,38.647c-0.201,0-0.365-0.164-0.365-0.365V3.645c0-0.201,0.164-0.365,0.365-0.365h34.639
		c0.201,0,0.363,0.164,0.363,0.365v34.637c0,0.201-0.163,0.365-0.363,0.365H3.681z"/>
</g>
<g>
	<g>
		<g>
			<polygon fill="#F5F5F5" points="8.838,9.527 11.973,6.936 11.973,12.118 			"/>
			<path fill="#F5F5F5" d="M20.48,15.838c-1.596-1.885-2.619-3.19-3.125-3.985c-0.686-1.079-1.216-1.274-1.395-1.286l-4.749,0.028
				V8.393h4.417c0.6-0.087,2.109-0.037,3.584,2.278c0.307,0.482,1.067,1.524,2.947,3.745L20.48,15.838z"/>
		</g>
		<g>
			<polygon fill="#F5F5F5" points="33.161,19.73 30.026,22.321 30.026,17.14 			"/>
			<path fill="#F5F5F5" d="M21.519,13.42c1.596,1.885,2.619,3.19,3.125,3.985c0.686,1.079,1.216,1.274,1.395,1.286l4.749-0.028
				v2.201h-4.417c-0.6,0.087-2.109,0.037-3.584-2.278c-0.307-0.482-1.067-1.524-2.947-3.745L21.519,13.42z"/>
		</g>
	</g>
	<g>
		<g>
			<polygon fill="#F5F5F5" points="33.161,9.527 30.026,6.936 30.026,12.118 			"/>
			<path fill="#F5F5F5" d="M21.519,15.838c1.596-1.885,2.619-3.19,3.125-3.985c0.686-1.079,1.216-1.274,1.395-1.286l4.749,0.028
				V8.393h-4.417c-0.6-0.087-2.109-0.037-3.584,2.278c-0.307,0.482-1.067,1.524-2.947,3.745L21.519,15.838z"/>
		</g>
		<g>
			<polygon fill="#F5F5F5" points="8.838,19.73 11.973,22.321 11.973,17.14 			"/>
			<path fill="#F5F5F5" d="M20.48,13.42c-1.596,1.885-2.619,3.19-3.125,3.985c-0.686,1.079-1.216,1.274-1.395,1.286l-4.749-0.028
				v2.201h4.417c0.6,0.087,2.109,0.037,3.584-2.278c0.307-0.482,1.067-1.524,2.947-3.745L20.48,13.42z"/>
		</g>
	</g>
</g>
<g>
	<path fill="#FFFFFF" d="M7.256,37.399V29.46h4.969v0.937H8.231v2.459h3.457v0.938H8.231v3.606H7.256z"/>
	<path fill="#FFFFFF" d="M17.817,31.404l-0.899,0.076c-0.08-0.383-0.194-0.661-0.341-0.835c-0.245-0.277-0.546-0.417-0.905-0.417
		c-0.288,0-0.541,0.087-0.758,0.261c-0.285,0.224-0.509,0.55-0.673,0.979s-0.25,1.042-0.256,1.836
		c0.218-0.357,0.484-0.622,0.799-0.796c0.315-0.173,0.645-0.26,0.99-0.26c0.603,0,1.116,0.239,1.54,0.718s0.636,1.097,0.636,1.854
		c0,0.498-0.1,0.962-0.299,1.39s-0.473,0.755-0.821,0.982s-0.744,0.342-1.186,0.342c-0.754,0-1.369-0.299-1.844-0.896
		s-0.713-1.582-0.713-2.954c0-1.535,0.263-2.65,0.789-3.348c0.459-0.606,1.077-0.909,1.854-0.909c0.579,0,1.054,0.175,1.424,0.525
		C17.521,30.303,17.743,30.787,17.817,31.404z M14.124,34.827c0,0.336,0.066,0.657,0.199,0.964s0.317,0.541,0.555,0.701
		c0.238,0.161,0.487,0.241,0.749,0.241c0.382,0,0.71-0.166,0.985-0.498c0.274-0.332,0.412-0.784,0.412-1.354
		c0-0.549-0.135-0.98-0.407-1.297c-0.271-0.315-0.613-0.474-1.025-0.474c-0.409,0-0.755,0.158-1.04,0.474
		C14.267,33.9,14.124,34.314,14.124,34.827z"/>
	<path fill="#FFFFFF" d="M18.847,33.483c0-0.938,0.089-1.693,0.269-2.266s0.445-1.014,0.799-1.324s0.798-0.466,1.334-0.466
		c0.395,0,0.742,0.086,1.04,0.257c0.298,0.172,0.544,0.419,0.739,0.742c0.194,0.323,0.347,0.717,0.457,1.181
		s0.166,1.089,0.166,1.876c0,0.932-0.089,1.684-0.267,2.256s-0.443,1.015-0.796,1.327s-0.8,0.469-1.339,0.469
		c-0.71,0-1.268-0.274-1.673-0.823C19.09,36.051,18.847,34.975,18.847,33.483z M19.776,33.483c0,1.304,0.142,2.171,0.425,2.603
		c0.283,0.432,0.632,0.647,1.047,0.647s0.765-0.217,1.047-0.65c0.283-0.433,0.425-1.3,0.425-2.6c0-1.307-0.142-2.175-0.425-2.604
		c-0.283-0.43-0.635-0.645-1.058-0.645c-0.415,0-0.747,0.189-0.995,0.568C19.932,31.287,19.776,32.181,19.776,33.483z"/>
	<path fill="#FFFFFF" d="M24.57,33.483c0-0.938,0.089-1.693,0.269-2.266s0.445-1.014,0.799-1.324s0.798-0.466,1.334-0.466
		c0.395,0,0.742,0.086,1.04,0.257c0.298,0.172,0.544,0.419,0.739,0.742c0.194,0.323,0.347,0.717,0.457,1.181
		s0.166,1.089,0.166,1.876c0,0.932-0.089,1.684-0.267,2.256s-0.443,1.015-0.796,1.327s-0.8,0.469-1.339,0.469
		c-0.71,0-1.268-0.274-1.673-0.823C24.813,36.051,24.57,34.975,24.57,33.483z M25.499,33.483c0,1.304,0.142,2.171,0.425,2.603
		c0.283,0.432,0.632,0.647,1.047,0.647s0.765-0.217,1.047-0.65c0.283-0.433,0.425-1.3,0.425-2.6c0-1.307-0.142-2.175-0.425-2.604
		c-0.283-0.43-0.635-0.645-1.058-0.645c-0.415,0-0.747,0.189-0.995,0.568C25.655,31.287,25.499,32.181,25.499,33.483z"/>
	<path fill="#FFFFFF" d="M30.292,33.483c0-0.938,0.089-1.693,0.269-2.266s0.445-1.014,0.799-1.324s0.798-0.466,1.334-0.466
		c0.395,0,0.742,0.086,1.04,0.257c0.298,0.172,0.544,0.419,0.739,0.742c0.194,0.323,0.347,0.717,0.457,1.181
		s0.166,1.089,0.166,1.876c0,0.932-0.089,1.684-0.267,2.256s-0.443,1.015-0.796,1.327s-0.8,0.469-1.339,0.469
		c-0.71,0-1.268-0.274-1.673-0.823C30.535,36.051,30.292,34.975,30.292,33.483z M31.222,33.483c0,1.304,0.142,2.171,0.425,2.603
		c0.283,0.432,0.632,0.647,1.047,0.647s0.765-0.217,1.047-0.65c0.283-0.433,0.425-1.3,0.425-2.6c0-1.307-0.142-2.175-0.425-2.604
		c-0.283-0.43-0.635-0.645-1.058-0.645c-0.415,0-0.747,0.189-0.995,0.568C31.377,31.287,31.222,32.181,31.222,33.483z"/>
</g>
<g>
	<path fill="#FFFFFF" d="M15.781,23.155h0.892v2.58c0,0.409,0.011,0.675,0.033,0.796c0.038,0.195,0.129,0.352,0.273,0.47
		c0.144,0.118,0.34,0.177,0.589,0.177c0.253,0,0.444-0.056,0.573-0.167c0.128-0.111,0.206-0.249,0.232-0.411
		c0.026-0.162,0.039-0.432,0.039-0.809v-2.636h0.893v2.502c0,0.572-0.024,0.976-0.072,1.212c-0.048,0.236-0.137,0.436-0.267,0.598
		c-0.129,0.163-0.303,0.292-0.52,0.389c-0.217,0.097-0.5,0.145-0.85,0.145c-0.422,0-0.742-0.053-0.96-0.157
		c-0.218-0.105-0.391-0.242-0.517-0.409c-0.126-0.168-0.21-0.345-0.25-0.528c-0.059-0.273-0.087-0.676-0.087-1.209V23.155z"/>
	<path fill="#FFFFFF" d="M20.028,26.655l0.82-0.107c0.026,0.226,0.096,0.397,0.211,0.517c0.114,0.119,0.253,0.179,0.416,0.179
		c0.175,0,0.322-0.071,0.441-0.215c0.12-0.143,0.18-0.336,0.18-0.578c0-0.229-0.058-0.411-0.172-0.546
		c-0.115-0.135-0.254-0.201-0.419-0.201c-0.109,0-0.238,0.022-0.389,0.068l0.094-0.744c0.229,0.006,0.404-0.048,0.524-0.161
		c0.121-0.114,0.181-0.265,0.181-0.453c0-0.16-0.044-0.288-0.132-0.384c-0.089-0.096-0.206-0.143-0.353-0.143
		c-0.145,0-0.268,0.054-0.371,0.162s-0.165,0.267-0.187,0.475l-0.781-0.144c0.054-0.288,0.136-0.518,0.246-0.69
		c0.109-0.172,0.262-0.308,0.458-0.406c0.196-0.098,0.416-0.147,0.659-0.147c0.416,0,0.75,0.143,1,0.429
		c0.207,0.234,0.311,0.498,0.311,0.793c0,0.418-0.212,0.752-0.636,1.001c0.253,0.059,0.456,0.189,0.607,0.394
		c0.151,0.203,0.228,0.449,0.228,0.737c0,0.418-0.142,0.774-0.425,1.069C22.256,27.853,21.903,28,21.481,28
		c-0.4,0-0.731-0.124-0.995-0.372S20.071,27.056,20.028,26.655z"/>
	<path fill="#FFFFFF" d="M24.924,23.136c0.428,0,0.763,0.165,1.004,0.494c0.287,0.39,0.431,1.036,0.431,1.939
		c0,0.901-0.145,1.549-0.434,1.943c-0.239,0.325-0.573,0.487-1,0.487c-0.43,0-0.777-0.178-1.04-0.534
		c-0.264-0.356-0.395-0.992-0.395-1.906c0-0.896,0.145-1.542,0.434-1.937C24.163,23.298,24.496,23.136,24.924,23.136z
		 M24.924,23.893c-0.103,0-0.194,0.035-0.274,0.105c-0.081,0.071-0.143,0.197-0.187,0.379c-0.058,0.236-0.087,0.634-0.087,1.192
		c0,0.56,0.026,0.943,0.079,1.152c0.052,0.209,0.118,0.348,0.197,0.417c0.079,0.069,0.17,0.104,0.273,0.104s0.194-0.035,0.274-0.105
		c0.081-0.07,0.143-0.197,0.187-0.379c0.059-0.233,0.087-0.63,0.087-1.189c0-0.559-0.026-0.942-0.078-1.151s-0.118-0.349-0.198-0.42
		C25.118,23.928,25.027,23.893,24.924,23.893z"/>
</g>
</svg>
