<?xml version="1.0" encoding="utf-8"?>
<!-- Generator: Adobe Illustrator 18.0.0, SVG Export Plug-In . SVG Version: 6.00 Build 0)  -->
<!DOCTYPE svg PUBLIC "-//W3C//DTD SVG 1.1//EN" "http://www.w3.org/Graphics/SVG/1.1/DTD/svg11.dtd">
<svg version="1.1" id="图层_1" xmlns="http://www.w3.org/2000/svg" xmlns:xlink="http://www.w3.org/1999/xlink" x="0px" y="0px"
	 width="48px" height="48px" viewBox="0 0 48 48" enable-background="new 0 0 48 48" xml:space="preserve">
<g>
	<path fill="#FFFFFF" d="M3.685,46.716c-1.368,0-2.481-1.114-2.481-2.482V3.604c0-1.369,1.113-2.483,2.481-2.483h40.631
		c1.368,0,2.481,1.114,2.481,2.483v40.63c0,1.369-1.113,2.482-2.481,2.482H3.685z"/>
	<path fill="#AFAFAF" d="M44.315,1.741c1.027,0,1.862,0.835,1.862,1.862v40.63c0,1.027-0.835,1.862-1.862,1.862H3.685
		c-1.027,0-1.862-0.835-1.862-1.862V3.603c0-1.027,0.835-1.862,1.862-1.862H44.315 M44.315,0.5H3.685
		c-1.714,0-3.103,1.389-3.103,3.103v40.63c0,1.714,1.389,3.103,3.103,3.103h40.63c1.714,0,3.103-1.389,3.103-3.103V3.603
		C47.418,1.889,46.029,0.5,44.315,0.5L44.315,0.5z"/>
</g>
<g>
	<linearGradient id="SVGID_1_" gradientUnits="userSpaceOnUse" x1="23.9993" y1="44.6607" x2="23.9993" y2="3.1756">
		<stop  offset="0" style="stop-color:#00AEF9"/>
		<stop  offset="1" style="stop-color:#0092E1"/>
	</linearGradient>
	<path fill="url(#SVGID_1_)" d="M3.685,44.661c-0.235,0-0.428-0.193-0.428-0.428V3.604c0-0.235,0.193-0.428,0.428-0.428h40.631
		c0.235,0,0.426,0.193,0.426,0.428v40.629c0,0.235-0.191,0.428-0.426,0.428H3.685z"/>
</g>
<g>
	<g>
		<g>
			<polygon fill="#F5F5F5" points="9.734,10.503 13.411,7.464 13.411,13.542 			"/>
			<path fill="#F5F5F5" d="M23.39,17.905c-1.872-2.211-3.072-3.741-3.666-4.674c-0.805-1.266-1.426-1.494-1.637-1.509l-5.57,0.032
				V9.173h5.182c0.704-0.103,2.474-0.043,4.204,2.672c0.36,0.565,1.251,1.788,3.457,4.393L23.39,17.905z"/>
		</g>
		<g>
			<polygon fill="#F5F5F5" points="38.265,22.471 34.587,25.51 34.587,19.432 			"/>
			<path fill="#F5F5F5" d="M24.609,15.069c1.872,2.211,3.072,3.741,3.666,4.674c0.805,1.266,1.426,1.494,1.637,1.509l5.57-0.032
				v2.582H30.3c-0.704,0.103-2.474,0.043-4.204-2.672c-0.36-0.565-1.251-1.788-3.457-4.393L24.609,15.069z"/>
		</g>
	</g>
	<g>
		<g>
			<polygon fill="#F5F5F5" points="38.265,10.503 34.587,7.464 34.587,13.542 			"/>
			<path fill="#F5F5F5" d="M24.609,17.905c1.872-2.211,3.072-3.741,3.666-4.674c0.805-1.266,1.426-1.494,1.637-1.509l5.57,0.032
				V9.173H30.3c-0.704-0.103-2.474-0.043-4.204,2.672c-0.36,0.565-1.251,1.788-3.457,4.393L24.609,17.905z"/>
		</g>
		<g>
			<polygon fill="#F5F5F5" points="9.734,22.471 13.411,25.51 13.411,19.432 			"/>
			<path fill="#F5F5F5" d="M23.39,15.069c-1.872,2.211-3.072,3.741-3.666,4.674c-0.805,1.266-1.426,1.494-1.637,1.509l-5.57-0.032
				v2.582h5.182c0.704,0.103,2.474,0.043,4.204-2.672c0.36-0.565,1.251-1.788,3.457-4.393L23.39,15.069z"/>
		</g>
	</g>
</g>
<g>
	<path fill="#FFFFFF" d="M7.879,43.275v-9.313h5.828v1.099H9.022v2.884h4.055v1.099H9.022v4.231H7.879z"/>
	<path fill="#FFFFFF" d="M20.267,36.243l-1.055,0.089c-0.094-0.449-0.228-0.775-0.4-0.979c-0.287-0.326-0.641-0.489-1.061-0.489
		c-0.338,0-0.635,0.102-0.891,0.305c-0.334,0.263-0.597,0.646-0.789,1.15s-0.293,1.222-0.301,2.153
		c0.255-0.419,0.567-0.73,0.937-0.934c0.37-0.204,0.757-0.305,1.161-0.305c0.707,0,1.31,0.281,1.807,0.842
		c0.497,0.562,0.745,1.287,0.745,2.176c0,0.584-0.116,1.127-0.351,1.629c-0.233,0.502-0.555,0.886-0.963,1.153
		c-0.409,0.267-0.873,0.4-1.392,0.4c-0.884,0-1.604-0.35-2.162-1.051c-0.559-0.701-0.837-1.856-0.837-3.465
		c0-1.8,0.308-3.108,0.925-3.926c0.538-0.711,1.264-1.067,2.175-1.067c0.68,0,1.236,0.206,1.671,0.616
		C19.92,34.951,20.181,35.519,20.267,36.243z M15.936,40.258c0,0.394,0.077,0.771,0.232,1.131s0.372,0.634,0.651,0.823
		s0.571,0.283,0.878,0.283c0.448,0,0.833-0.195,1.155-0.584s0.483-0.919,0.483-1.588c0-0.644-0.159-1.151-0.478-1.521
		s-0.719-0.556-1.202-0.556c-0.479,0-0.886,0.185-1.22,0.556S15.936,39.657,15.936,40.258z"/>
	<path fill="#FFFFFF" d="M21.476,38.683c0-1.101,0.105-1.987,0.315-2.659s0.522-1.189,0.937-1.553
		c0.415-0.364,0.937-0.546,1.565-0.546c0.463,0,0.87,0.101,1.22,0.302s0.639,0.491,0.866,0.87c0.228,0.379,0.406,0.841,0.536,1.385
		c0.13,0.544,0.194,1.278,0.194,2.201c0,1.092-0.104,1.975-0.313,2.646c-0.208,0.671-0.52,1.19-0.934,1.557
		c-0.415,0.366-0.938,0.549-1.57,0.549c-0.833,0-1.487-0.322-1.963-0.965C21.761,41.693,21.476,40.432,21.476,38.683z
		 M22.565,38.683c0,1.529,0.166,2.546,0.498,3.052c0.332,0.506,0.742,0.759,1.229,0.759c0.486,0,0.896-0.254,1.229-0.762
		c0.332-0.508,0.498-1.525,0.498-3.049c0-1.533-0.166-2.552-0.498-3.056s-0.746-0.756-1.24-0.756c-0.487,0-0.877,0.222-1.167,0.667
		C22.748,36.105,22.565,37.154,22.565,38.683z"/>
	<path fill="#FFFFFF" d="M28.188,38.683c0-1.101,0.105-1.987,0.315-2.659s0.522-1.189,0.937-1.553
		c0.415-0.364,0.937-0.546,1.565-0.546c0.463,0,0.87,0.101,1.22,0.302s0.639,0.491,0.866,0.87c0.228,0.379,0.406,0.841,0.536,1.385
		c0.13,0.544,0.194,1.278,0.194,2.201c0,1.092-0.104,1.975-0.313,2.646c-0.208,0.671-0.52,1.19-0.934,1.557
		c-0.415,0.366-0.938,0.549-1.57,0.549c-0.833,0-1.487-0.322-1.963-0.965C28.474,41.693,28.188,40.432,28.188,38.683z
		 M29.278,38.683c0,1.529,0.166,2.546,0.498,3.052c0.332,0.506,0.742,0.759,1.229,0.759c0.486,0,0.896-0.254,1.229-0.762
		c0.332-0.508,0.498-1.525,0.498-3.049c0-1.533-0.166-2.552-0.498-3.056s-0.746-0.756-1.24-0.756c-0.487,0-0.877,0.222-1.167,0.667
		C29.461,36.105,29.278,37.154,29.278,38.683z"/>
	<path fill="#FFFFFF" d="M34.901,38.683c0-1.101,0.105-1.987,0.315-2.659s0.522-1.189,0.937-1.553
		c0.415-0.364,0.937-0.546,1.565-0.546c0.463,0,0.87,0.101,1.22,0.302s0.639,0.491,0.866,0.87c0.228,0.379,0.406,0.841,0.536,1.385
		c0.13,0.544,0.194,1.278,0.194,2.201c0,1.092-0.104,1.975-0.313,2.646c-0.208,0.671-0.52,1.19-0.934,1.557
		c-0.415,0.366-0.938,0.549-1.57,0.549c-0.833,0-1.487-0.322-1.963-0.965C35.187,41.693,34.901,40.432,34.901,38.683z
		 M35.991,38.683c0,1.529,0.166,2.546,0.498,3.052c0.332,0.506,0.742,0.759,1.229,0.759c0.486,0,0.896-0.254,1.229-0.762
		c0.332-0.508,0.498-1.525,0.498-3.049c0-1.533-0.166-2.552-0.498-3.056s-0.746-0.756-1.24-0.756c-0.487,0-0.877,0.222-1.167,0.667
		C36.174,36.105,35.991,37.154,35.991,38.683z"/>
</g>
<g>
	<path fill="#FFFFFF" d="M15.276,26.571h1.047v3.026c0,0.48,0.013,0.792,0.039,0.934c0.045,0.229,0.151,0.412,0.32,0.551
		c0.168,0.138,0.398,0.208,0.69,0.208c0.298,0,0.521-0.065,0.672-0.196c0.151-0.131,0.242-0.292,0.272-0.482
		c0.031-0.191,0.046-0.507,0.046-0.949v-3.091h1.047v2.935c0,0.671-0.028,1.145-0.085,1.422c-0.057,0.277-0.161,0.511-0.313,0.701
		c-0.152,0.19-0.355,0.342-0.61,0.456c-0.255,0.113-0.587,0.169-0.997,0.169c-0.495,0-0.87-0.062-1.126-0.185
		c-0.256-0.124-0.458-0.284-0.606-0.48s-0.246-0.403-0.294-0.62c-0.068-0.32-0.103-0.792-0.103-1.417V26.571z"/>
	<path fill="#FFFFFF" d="M23.66,27.94l-0.962,0.114c-0.023-0.213-0.085-0.371-0.184-0.473s-0.228-0.152-0.386-0.152
		c-0.21,0-0.387,0.102-0.532,0.305c-0.145,0.204-0.236,0.626-0.273,1.27c0.247-0.315,0.555-0.473,0.923-0.473
		c0.415,0,0.77,0.17,1.065,0.511c0.296,0.34,0.444,0.78,0.444,1.319c0,0.571-0.155,1.03-0.467,1.376
		c-0.312,0.345-0.711,0.518-1.199,0.518c-0.522,0-0.953-0.219-1.29-0.657c-0.337-0.438-0.506-1.157-0.506-2.156
		c0-1.024,0.176-1.762,0.527-2.214c0.351-0.452,0.807-0.679,1.368-0.679c0.394,0,0.72,0.119,0.978,0.356
		C23.425,27.143,23.59,27.487,23.66,27.94z M21.408,30.276c0,0.348,0.074,0.617,0.223,0.806s0.318,0.284,0.509,0.284
		c0.184,0,0.337-0.077,0.46-0.232c0.122-0.155,0.184-0.409,0.184-0.762c0-0.363-0.065-0.629-0.198-0.798
		c-0.132-0.169-0.297-0.254-0.495-0.254c-0.19,0-0.352,0.081-0.484,0.242C21.474,29.723,21.408,29.961,21.408,30.276z"/>
	<path fill="#FFFFFF" d="M26.001,26.548c0.502,0,0.895,0.193,1.178,0.58c0.337,0.458,0.505,1.216,0.505,2.275
		c0,1.057-0.169,1.817-0.509,2.279c-0.28,0.381-0.672,0.572-1.174,0.572c-0.505,0-0.911-0.209-1.22-0.627
		c-0.31-0.418-0.464-1.163-0.464-2.235c0-1.052,0.17-1.809,0.51-2.272C25.107,26.739,25.499,26.548,26.001,26.548z M26.001,27.437
		c-0.12,0-0.228,0.042-0.322,0.124c-0.094,0.083-0.167,0.23-0.219,0.444c-0.068,0.277-0.103,0.744-0.103,1.399
		c0,0.656,0.03,1.106,0.092,1.351c0.062,0.246,0.139,0.409,0.231,0.49c0.094,0.081,0.2,0.122,0.32,0.122s0.228-0.041,0.321-0.124
		c0.095-0.083,0.168-0.231,0.22-0.444c0.068-0.274,0.103-0.739,0.103-1.395c0-0.655-0.03-1.106-0.092-1.351
		s-0.139-0.409-0.231-0.492C26.228,27.478,26.121,27.437,26.001,27.437z"/>
	<path fill="#FFFFFF" d="M33.242,32.159h-1.139l-0.452-1.269h-2.072l-0.428,1.269h-1.11l2.02-5.588h1.106L33.242,32.159z
		 M31.315,29.948l-0.714-2.073l-0.7,2.073H31.315z"/>
</g>
</svg>
