<?xml version="1.0" encoding="utf-8"?>
<!-- Generator: Adobe Illustrator 18.0.0, SVG Export Plug-In . SVG Version: 6.00 Build 0)  -->
<!DOCTYPE svg PUBLIC "-//W3C//DTD SVG 1.1//EN" "http://www.w3.org/Graphics/SVG/1.1/DTD/svg11.dtd">
<svg version="1.1" id="图层_1" xmlns="http://www.w3.org/2000/svg" xmlns:xlink="http://www.w3.org/1999/xlink" x="0px" y="0px"
	 width="36px" height="36px" viewBox="0 0 36 36" enable-background="new 0 0 36 36" xml:space="preserve">
<g>
	<g>
		<path fill="#FFFFFF" d="M2.413,35.459c-1.05,0-1.905-0.854-1.905-1.904V2.381c0-1.05,0.854-1.904,1.905-1.904h31.174
			c1.05,0,1.905,0.854,1.905,1.904v31.174c0,1.05-0.854,1.904-1.905,1.904H2.413z"/>
		<path fill="#AFAFAF" d="M33.587,0.952c0.788,0,1.429,0.641,1.429,1.429v31.174c0,0.788-0.641,1.429-1.429,1.429H2.413
			c-0.788,0-1.429-0.641-1.429-1.429V2.381c0-0.788,0.641-1.429,1.429-1.429H33.587 M33.587,0H2.413
			C1.098,0,0.032,1.066,0.032,2.381v31.174c0,1.315,1.066,2.381,2.381,2.381h31.174c1.315,0,2.381-1.066,2.381-2.381V2.381
			C35.968,1.066,34.902,0,33.587,0L33.587,0z"/>
	</g>
	<g>
		<linearGradient id="SVGID_1_" gradientUnits="userSpaceOnUse" x1="17.9995" y1="33.8827" x2="17.9995" y2="2.0527">
			<stop  offset="0" style="stop-color:#76797A"/>
			<stop  offset="1" style="stop-color:#5F6263"/>
		</linearGradient>
		<path fill="url(#SVGID_1_)" d="M2.413,33.883c-0.18,0-0.328-0.148-0.328-0.328V2.381c0-0.18,0.148-0.328,0.328-0.328h31.175
			c0.18,0,0.327,0.148,0.327,0.328v31.173c0,0.18-0.147,0.328-0.327,0.328H2.413z"/>
	</g>
	<g>
		<g>
			<g>
				<polygon fill="#F5F5F5" points="7.054,7.675 9.876,5.343 9.876,10.006 				"/>
				<path fill="#F5F5F5" d="M17.532,13.354c-1.437-1.696-2.357-2.871-2.813-3.586c-0.617-0.971-1.094-1.147-1.256-1.158L9.19,8.635
					V6.654h3.976c0.54-0.079,1.898-0.033,3.226,2.05c0.276,0.434,0.96,1.372,2.652,3.371L17.532,13.354z"/>
			</g>
			<g>
				<polygon fill="#F5F5F5" points="28.945,16.857 26.123,19.189 26.123,14.526 				"/>
				<path fill="#F5F5F5" d="M18.467,11.178c1.437,1.696,2.357,2.871,2.813,3.586c0.617,0.971,1.094,1.147,1.256,1.158l4.274-0.025
					v1.981h-3.976c-0.54,0.079-1.898,0.033-3.226-2.05c-0.276-0.434-0.96-1.372-2.652-3.371L18.467,11.178z"/>
			</g>
		</g>
		<g>
			<g>
				<polygon fill="#F5F5F5" points="28.945,7.675 26.123,5.343 26.123,10.006 				"/>
				<path fill="#F5F5F5" d="M18.467,13.354c1.437-1.696,2.357-2.871,2.813-3.586c0.617-0.971,1.094-1.147,1.256-1.158l4.274,0.025
					V6.654h-3.976c-0.54-0.079-1.898-0.033-3.226,2.05c-0.276,0.434-0.96,1.372-2.652,3.371L18.467,13.354z"/>
			</g>
			<g>
				<polygon fill="#F5F5F5" points="7.054,16.857 9.876,19.189 9.876,14.526 				"/>
				<path fill="#F5F5F5" d="M17.532,11.178c-1.437,1.696-2.357,2.871-2.813,3.586c-0.617,0.971-1.094,1.147-1.256,1.158L9.19,15.897
					v1.981h3.976c0.54,0.079,1.898,0.033,3.226-2.05c0.276-0.434,0.96-1.372,2.652-3.371L17.532,11.178z"/>
			</g>
		</g>
	</g>
	<text transform="matrix(0.9277 0 0 1 4.871 32.7589)" fill="#FFFFFF" font-family="'ArialMT'" font-size="9.9822">F6000</text>
	<text transform="matrix(0.9277 0 0 1 10.6 24.2267)"><tspan x="0" y="0" fill="#FFFFFF" font-family="'Arial-BoldMT'" font-size="5.9893">U</tspan><tspan x="4.325" y="0" fill="#FFFFFF" font-family="'Arial-BoldMT'" font-size="6.3534">60A</tspan></text>
</g>
</svg>
