<?xml version="1.0" encoding="utf-8"?>
<!-- Generator: Adobe Illustrator 18.0.0, SVG Export Plug-In . SVG Version: 6.00 Build 0)  -->
<!DOCTYPE svg PUBLIC "-//W3C//DTD SVG 1.1//EN" "http://www.w3.org/Graphics/SVG/1.1/DTD/svg11.dtd">
<svg version="1.1" id="图层_1" xmlns="http://www.w3.org/2000/svg" xmlns:xlink="http://www.w3.org/1999/xlink" x="0px" y="0px"
	 width="36px" height="36px" viewBox="0 0 36 36" enable-background="new 0 0 36 36" xml:space="preserve">
<g>
	<g>
		<path fill="#FFFFFF" d="M2.413,35.461c-1.05,0-1.905-0.854-1.905-1.905V2.382c0-1.05,0.855-1.905,1.905-1.905h31.174
			c1.05,0,1.905,0.855,1.905,1.905v31.174c0,1.051-0.855,1.905-1.905,1.905H2.413z"/>
		<path fill="#AFAFAF" d="M33.587,0.953c0.788,0,1.429,0.641,1.429,1.429v31.174c0,0.788-0.641,1.429-1.429,1.429H2.413
			c-0.788,0-1.429-0.641-1.429-1.429V2.382c0-0.788,0.641-1.429,1.429-1.429H33.587 M33.587,0.001H2.413
			c-1.315,0-2.381,1.066-2.381,2.381v31.174c0,1.315,1.066,2.381,2.381,2.381h31.174c1.315,0,2.381-1.066,2.381-2.381V2.382
			C35.968,1.067,34.902,0.001,33.587,0.001L33.587,0.001z"/>
	</g>
	<g>
		<linearGradient id="SVGID_1_" gradientUnits="userSpaceOnUse" x1="17.9995" y1="33.8839" x2="17.9995" y2="2.0534">
			<stop  offset="0" style="stop-color:#F1E821"/>
			<stop  offset="1" style="stop-color:#D6B900"/>
		</linearGradient>
		<path fill="url(#SVGID_1_)" d="M2.413,33.884c-0.18,0-0.328-0.148-0.328-0.328V2.382c0-0.18,0.148-0.328,0.328-0.328h31.175
			c0.18,0,0.327,0.148,0.327,0.328v31.174c0,0.18-0.147,0.328-0.327,0.328H2.413z"/>
	</g>
	<g>
		<g>
			<g>
				<polygon fill="#A37C00" points="7.054,7.675 9.876,5.344 9.876,10.007 				"/>
				<path fill="#A37C00" d="M17.532,13.355c-1.437-1.696-2.357-2.871-2.813-3.586c-0.617-0.971-1.094-1.147-1.256-1.158L9.19,8.636
					V6.655h3.976c0.54-0.079,1.898-0.033,3.226,2.05c0.276,0.434,0.96,1.372,2.652,3.371L17.532,13.355z"/>
			</g>
			<g>
				<polygon fill="#A37C00" points="28.945,16.858 26.123,19.19 26.123,14.527 				"/>
				<path fill="#A37C00" d="M18.467,11.179c1.437,1.696,2.357,2.871,2.813,3.586c0.617,0.971,1.094,1.147,1.256,1.158l4.274-0.025
					v1.981h-3.976c-0.54,0.079-1.898,0.033-3.226-2.05c-0.276-0.434-0.96-1.372-2.652-3.371L18.467,11.179z"/>
			</g>
		</g>
		<g>
			<g>
				<polygon fill="#A37C00" points="28.945,7.675 26.123,5.344 26.123,10.007 				"/>
				<path fill="#A37C00" d="M18.467,13.355c1.437-1.696,2.357-2.871,2.813-3.586c0.617-0.971,1.094-1.147,1.256-1.158l4.274,0.025
					V6.655h-3.976c-0.54-0.079-1.898-0.033-3.226,2.05c-0.276,0.434-0.96,1.372-2.652,3.371L18.467,13.355z"/>
			</g>
			<g>
				<polygon fill="#A37C00" points="7.054,16.858 9.876,19.19 9.876,14.527 				"/>
				<path fill="#A37C00" d="M17.532,11.179c-1.437,1.696-2.357,2.871-2.813,3.586c-0.617,0.971-1.094,1.147-1.256,1.158L9.19,15.898
					v1.981h3.976c0.54,0.079,1.898,0.033,3.226-2.05c0.276-0.434,0.96-1.372,2.652-3.371L17.532,11.179z"/>
			</g>
		</g>
	</g>
	<text transform="matrix(0.9277 0 0 1 5.5363 32.7582)" fill="#A37C00" font-family="'ArialMT'" font-size="9.9824">F6000</text>
	<text transform="matrix(0.9277 0 0 1 10.9079 24.227)" fill="#A37C00" font-family="'Arial-BoldMT'" font-size="5.9894">U60A</text>
</g>
</svg>
