<?xml version="1.0" encoding="utf-8"?>
<!-- Generator: Adobe Illustrator 18.0.0, SVG Export Plug-In . SVG Version: 6.00 Build 0)  -->
<!DOCTYPE svg PUBLIC "-//W3C//DTD SVG 1.1//EN" "http://www.w3.org/Graphics/SVG/1.1/DTD/svg11.dtd">
<svg version="1.1" id="图层_1" xmlns="http://www.w3.org/2000/svg" xmlns:xlink="http://www.w3.org/1999/xlink" x="0px" y="0px"
	 width="48px" height="48px" viewBox="0 0 48 48" enable-background="new 0 0 48 48" xml:space="preserve">
<g>
	<path fill="#FFFFFF" d="M3.686,46.714c-1.369,0-2.483-1.114-2.483-2.483V3.603c0-1.369,1.114-2.482,2.483-2.482h40.628
		c1.369,0,2.483,1.114,2.483,2.482v40.628c0,1.369-1.114,2.483-2.483,2.483H3.686z"/>
	<path fill="#AFAFAF" d="M44.314,1.741c1.027,0,1.862,0.835,1.862,1.862v40.628c0,1.027-0.835,1.862-1.862,1.862H3.686
		c-1.027,0-1.862-0.835-1.862-1.862V3.603c0-1.027,0.835-1.862,1.862-1.862H44.314 M44.314,0.5H3.686
		c-1.714,0-3.103,1.389-3.103,3.103v40.628c0,1.714,1.389,3.103,3.103,3.103h40.628c1.714,0,3.103-1.389,3.103-3.103V3.603
		C47.417,1.889,46.028,0.5,44.314,0.5L44.314,0.5z"/>
</g>
<g>
	<path fill="#C4C4C4" d="M3.686,44.659c-0.235,0-0.428-0.193-0.428-0.428V3.603c0-0.235,0.193-0.428,0.428-0.428h40.629
		c0.235,0,0.426,0.193,0.426,0.428v40.628c0,0.235-0.191,0.428-0.426,0.428H3.686z"/>
</g>
<g>
	<g>
		<g>
			<polygon fill="#F5F5F5" points="9.734,10.502 13.412,7.464 13.412,13.541 			"/>
			<path fill="#F5F5F5" d="M23.39,17.904c-1.872-2.211-3.071-3.741-3.666-4.674c-0.805-1.266-1.426-1.494-1.637-1.509l-5.57,0.032
				V9.173h5.181c0.704-0.103,2.474-0.043,4.204,2.672c0.36,0.565,1.251,1.788,3.457,4.393L23.39,17.904z"/>
		</g>
		<g>
			<polygon fill="#F5F5F5" points="38.264,22.47 34.587,25.509 34.587,19.432 			"/>
			<path fill="#F5F5F5" d="M24.609,15.068c1.872,2.211,3.071,3.741,3.666,4.674c0.805,1.266,1.426,1.494,1.637,1.509l5.57-0.032
				V23.8h-5.181c-0.704,0.103-2.474,0.043-4.204-2.672c-0.36-0.565-1.251-1.788-3.457-4.393L24.609,15.068z"/>
		</g>
	</g>
	<g>
		<g>
			<polygon fill="#F5F5F5" points="38.264,10.502 34.587,7.464 34.587,13.541 			"/>
			<path fill="#F5F5F5" d="M24.609,17.904c1.872-2.211,3.071-3.741,3.666-4.674c0.805-1.266,1.426-1.494,1.637-1.509l5.57,0.032
				V9.173h-5.181c-0.704-0.103-2.474-0.043-4.204,2.672c-0.36,0.565-1.251,1.788-3.457,4.393L24.609,17.904z"/>
		</g>
		<g>
			<polygon fill="#F5F5F5" points="9.734,22.47 13.412,25.509 13.412,19.432 			"/>
			<path fill="#F5F5F5" d="M23.39,15.068c-1.872,2.211-3.071,3.741-3.666,4.674c-0.805,1.266-1.426,1.494-1.637,1.509l-5.57-0.032
				V23.8h5.181c0.704,0.103,2.474,0.043,4.204-2.672c0.36-0.565,1.251-1.788,3.457-4.393L23.39,15.068z"/>
		</g>
	</g>
</g>
<g>
	<path fill="#FFFFFF" d="M7.878,43.276v-9.313h5.828v1.099H9.021v2.884h4.055v1.099H9.021v4.23H7.878z"/>
	<path fill="#FFFFFF" d="M20.265,36.244l-1.055,0.089c-0.094-0.449-0.228-0.775-0.401-0.978c-0.287-0.326-0.64-0.489-1.061-0.489
		c-0.338,0-0.635,0.102-0.89,0.305c-0.334,0.263-0.598,0.646-0.79,1.149c-0.192,0.504-0.292,1.222-0.3,2.154
		c0.255-0.419,0.567-0.73,0.937-0.934c0.369-0.203,0.756-0.305,1.161-0.305c0.708,0,1.31,0.28,1.807,0.842
		c0.497,0.561,0.745,1.286,0.745,2.175c0,0.584-0.117,1.128-0.351,1.629c-0.234,0.502-0.555,0.886-0.963,1.153
		c-0.409,0.267-0.872,0.4-1.391,0.4c-0.884,0-1.605-0.35-2.163-1.051c-0.558-0.701-0.837-1.856-0.837-3.465
		c0-1.8,0.309-3.108,0.925-3.926c0.538-0.711,1.263-1.067,2.175-1.067c0.68,0,1.236,0.206,1.67,0.616S20.178,35.52,20.265,36.244z
		 M15.934,40.258c0,0.394,0.077,0.771,0.232,1.131s0.373,0.634,0.651,0.823s0.572,0.283,0.878,0.283
		c0.448,0,0.833-0.195,1.155-0.584s0.483-0.919,0.483-1.588c0-0.644-0.159-1.151-0.478-1.521s-0.719-0.556-1.202-0.556
		c-0.479,0-0.886,0.186-1.22,0.556C16.101,39.171,15.934,39.657,15.934,40.258z"/>
	<path fill="#FFFFFF" d="M21.473,38.683c0-1.101,0.105-1.987,0.315-2.659c0.21-0.671,0.522-1.188,0.937-1.553
		c0.414-0.364,0.936-0.546,1.564-0.546c0.463,0,0.87,0.101,1.22,0.302s0.639,0.491,0.866,0.87c0.228,0.379,0.407,0.841,0.537,1.385
		c0.129,0.544,0.194,1.278,0.194,2.201c0,1.093-0.104,1.975-0.313,2.646c-0.208,0.671-0.52,1.19-0.934,1.556
		s-0.938,0.549-1.57,0.549c-0.833,0-1.487-0.322-1.962-0.965C21.758,41.694,21.473,40.432,21.473,38.683z M22.563,38.683
		c0,1.529,0.166,2.546,0.498,3.052c0.332,0.506,0.741,0.759,1.229,0.759s0.896-0.254,1.229-0.762
		c0.332-0.508,0.498-1.525,0.498-3.049c0-1.533-0.166-2.551-0.498-3.056c-0.332-0.504-0.745-0.756-1.24-0.756
		c-0.487,0-0.876,0.223-1.167,0.667C22.746,36.106,22.563,37.154,22.563,38.683z"/>
	<path fill="#FFFFFF" d="M28.186,38.683c0-1.101,0.105-1.987,0.315-2.659c0.21-0.671,0.522-1.188,0.937-1.553
		c0.414-0.364,0.936-0.546,1.564-0.546c0.463,0,0.87,0.101,1.22,0.302s0.639,0.491,0.866,0.87c0.228,0.379,0.407,0.841,0.537,1.385
		c0.129,0.544,0.194,1.278,0.194,2.201c0,1.093-0.104,1.975-0.313,2.646c-0.208,0.671-0.52,1.19-0.934,1.556
		s-0.938,0.549-1.57,0.549c-0.833,0-1.487-0.322-1.962-0.965C28.47,41.694,28.186,40.432,28.186,38.683z M29.276,38.683
		c0,1.529,0.166,2.546,0.498,3.052c0.332,0.506,0.741,0.759,1.229,0.759s0.896-0.254,1.229-0.762
		c0.332-0.508,0.498-1.525,0.498-3.049c0-1.533-0.166-2.551-0.498-3.056c-0.332-0.504-0.745-0.756-1.24-0.756
		c-0.487,0-0.876,0.223-1.167,0.667C29.458,36.106,29.276,37.154,29.276,38.683z"/>
	<path fill="#FFFFFF" d="M34.898,38.683c0-1.101,0.105-1.987,0.315-2.659c0.21-0.671,0.522-1.188,0.937-1.553
		c0.414-0.364,0.936-0.546,1.564-0.546c0.463,0,0.87,0.101,1.22,0.302s0.639,0.491,0.866,0.87c0.228,0.379,0.407,0.841,0.537,1.385
		c0.129,0.544,0.194,1.278,0.194,2.201c0,1.093-0.104,1.975-0.313,2.646c-0.208,0.671-0.52,1.19-0.934,1.556
		s-0.938,0.549-1.57,0.549c-0.833,0-1.487-0.322-1.962-0.965C35.183,41.694,34.898,40.432,34.898,38.683z M35.988,38.683
		c0,1.529,0.166,2.546,0.498,3.052c0.332,0.506,0.741,0.759,1.229,0.759s0.896-0.254,1.229-0.762
		c0.332-0.508,0.498-1.525,0.498-3.049c0-1.533-0.166-2.551-0.498-3.056c-0.332-0.504-0.745-0.756-1.24-0.756
		c-0.487,0-0.876,0.223-1.167,0.667C36.171,36.106,35.988,37.154,35.988,38.683z"/>
</g>
<g>
	<path fill="#FFFFFF" d="M17.877,26.572h1.046v3.026c0,0.48,0.013,0.792,0.039,0.934c0.044,0.229,0.151,0.412,0.32,0.551
		s0.399,0.208,0.691,0.208c0.297,0,0.521-0.065,0.672-0.196c0.15-0.131,0.241-0.292,0.272-0.482s0.046-0.507,0.046-0.949v-3.091
		h1.047v2.935c0,0.671-0.028,1.145-0.085,1.422s-0.161,0.511-0.313,0.701c-0.152,0.19-0.355,0.342-0.61,0.456
		c-0.254,0.113-0.587,0.169-0.997,0.169c-0.495,0-0.871-0.062-1.126-0.185c-0.255-0.124-0.458-0.284-0.606-0.48
		c-0.149-0.197-0.247-0.403-0.293-0.619c-0.069-0.32-0.103-0.793-0.103-1.418V26.572z"/>
	<path fill="#FFFFFF" d="M22.859,30.677l0.961-0.126c0.031,0.264,0.113,0.466,0.248,0.606s0.297,0.209,0.488,0.209
		c0.205,0,0.377-0.083,0.518-0.251c0.141-0.167,0.21-0.394,0.21-0.678c0-0.27-0.067-0.483-0.201-0.641
		c-0.135-0.157-0.298-0.236-0.492-0.236c-0.127,0-0.279,0.027-0.456,0.08l0.109-0.873c0.269,0.007,0.474-0.055,0.615-0.189
		c0.142-0.133,0.212-0.311,0.212-0.531c0-0.188-0.052-0.338-0.156-0.45c-0.104-0.111-0.242-0.167-0.414-0.167
		c-0.17,0-0.315,0.063-0.435,0.19c-0.12,0.127-0.193,0.313-0.219,0.557l-0.916-0.168c0.063-0.338,0.16-0.608,0.288-0.81
		c0.128-0.202,0.308-0.361,0.538-0.477c0.229-0.116,0.487-0.173,0.772-0.173c0.488,0,0.879,0.167,1.174,0.503
		c0.243,0.274,0.364,0.584,0.364,0.93c0,0.49-0.249,0.882-0.746,1.174c0.297,0.069,0.535,0.222,0.712,0.461
		c0.178,0.239,0.267,0.527,0.267,0.865c0,0.491-0.167,0.909-0.499,1.254c-0.333,0.345-0.746,0.518-1.241,0.518
		c-0.469,0-0.858-0.146-1.167-0.437C23.088,31.528,22.909,31.147,22.859,30.677z"/>
	<path fill="#FFFFFF" d="M28.602,26.549c0.502,0,0.895,0.193,1.177,0.579c0.337,0.458,0.506,1.216,0.506,2.275
		c0,1.057-0.17,1.817-0.509,2.279c-0.281,0.381-0.672,0.572-1.174,0.572c-0.504,0-0.911-0.209-1.22-0.627
		c-0.309-0.418-0.463-1.163-0.463-2.235c0-1.052,0.169-1.809,0.509-2.271C27.708,26.74,28.099,26.549,28.602,26.549z M28.602,27.438
		c-0.12,0-0.228,0.041-0.322,0.124s-0.167,0.231-0.219,0.444c-0.068,0.277-0.103,0.743-0.103,1.398c0,0.656,0.03,1.106,0.092,1.352
		c0.062,0.245,0.139,0.408,0.231,0.49c0.093,0.081,0.2,0.122,0.32,0.122s0.228-0.041,0.322-0.124s0.167-0.231,0.219-0.444
		c0.068-0.274,0.103-0.739,0.103-1.395c0-0.655-0.031-1.105-0.092-1.351c-0.061-0.245-0.138-0.409-0.231-0.492
		S28.722,27.438,28.602,27.438z"/>
</g>
</svg>
