<?xml version="1.0" encoding="utf-8"?>
<!-- Generator: Adobe Illustrator 18.0.0, SVG Export Plug-In . SVG Version: 6.00 Build 0)  -->
<!DOCTYPE svg PUBLIC "-//W3C//DTD SVG 1.1//EN" "http://www.w3.org/Graphics/SVG/1.1/DTD/svg11.dtd">
<svg version="1.1" id="图层_1" xmlns="http://www.w3.org/2000/svg" xmlns:xlink="http://www.w3.org/1999/xlink" x="0px" y="0px"
	 width="42px" height="42px" viewBox="0 0 42 42" enable-background="new 0 0 42 42" xml:space="preserve">
<g>
	<path fill="#FFFFFF" d="M3.711,40.332c-1.165,0-2.113-0.948-2.113-2.113V3.642c0-1.165,0.948-2.113,2.113-2.113h34.578
		c1.165,0,2.112,0.948,2.112,2.113v34.578c0,1.165-0.947,2.113-2.112,2.113H3.711z"/>
	<path fill="#AFAFAF" d="M38.289,2.057c0.874,0,1.585,0.711,1.585,1.585v34.577c0,0.874-0.711,1.585-1.585,1.585H3.711
		c-0.874,0-1.585-0.711-1.585-1.585V3.642c0-0.874,0.711-1.585,1.585-1.585H38.289 M38.289,1.001H3.711
		c-1.459,0-2.641,1.182-2.641,2.641v34.577c0,1.459,1.182,2.641,2.641,2.641h34.577c1.459,0,2.641-1.182,2.641-2.641V3.642
		C40.93,2.183,39.747,1.001,38.289,1.001L38.289,1.001z"/>
</g>
<g>
	<linearGradient id="SVGID_1_" gradientUnits="userSpaceOnUse" x1="20.9994" y1="38.5829" x2="20.9994" y2="3.2776">
		<stop  offset="0" style="stop-color:#2CA539"/>
		<stop  offset="1" style="stop-color:#009117"/>
	</linearGradient>
	<path fill="url(#SVGID_1_)" d="M3.711,38.583c-0.2,0-0.364-0.164-0.364-0.364V3.642c0-0.2,0.164-0.364,0.364-0.364h34.578
		c0.2,0,0.363,0.164,0.363,0.364v34.577c0,0.2-0.163,0.364-0.363,0.364H3.711z"/>
</g>
<g>
	<g>
		<g>
			<polygon fill="#F5F5F5" points="8.859,9.513 11.989,6.927 11.989,12.099 			"/>
			<path fill="#F5F5F5" d="M20.481,15.813c-1.594-1.882-2.614-3.184-3.12-3.978c-0.685-1.077-1.214-1.272-1.393-1.284l-4.741,0.028
				V8.382h4.41c0.599-0.087,2.105-0.037,3.578,2.274c0.306,0.481,1.065,1.521,2.942,3.739L20.481,15.813z"/>
		</g>
		<g>
			<polygon fill="#F5F5F5" points="33.14,19.699 30.01,22.285 30.01,17.113 			"/>
			<path fill="#F5F5F5" d="M21.518,13.399c1.594,1.882,2.614,3.184,3.12,3.978c0.685,1.077,1.214,1.272,1.393,1.284l4.741-0.028
				v2.197h-4.41c-0.599,0.087-2.105,0.037-3.578-2.274c-0.306-0.481-1.065-1.521-2.942-3.739L21.518,13.399z"/>
		</g>
	</g>
	<g>
		<g>
			<polygon fill="#F5F5F5" points="33.14,9.513 30.01,6.927 30.01,12.099 			"/>
			<path fill="#F5F5F5" d="M21.518,15.813c1.594-1.882,2.614-3.184,3.12-3.978c0.685-1.077,1.214-1.272,1.393-1.284l4.741,0.028
				V8.382h-4.41c-0.599-0.087-2.105-0.037-3.578,2.274c-0.306,0.481-1.065,1.521-2.942,3.739L21.518,15.813z"/>
		</g>
		<g>
			<polygon fill="#F5F5F5" points="8.859,19.699 11.989,22.285 11.989,17.113 			"/>
			<path fill="#F5F5F5" d="M20.481,13.399c-1.594,1.882-2.614,3.184-3.12,3.978c-0.685,1.077-1.214,1.272-1.393,1.284l-4.741-0.028
				v2.197h4.41c0.599,0.087,2.105,0.037,3.578-2.274c0.306-0.481,1.065-1.521,2.942-3.739L20.481,13.399z"/>
		</g>
	</g>
</g>
<g>
	<path fill="#FFFFFF" d="M7.28,37.404v-7.926h4.96v0.936H8.253v2.455h3.451v0.935H8.253v3.601H7.28z"/>
	<path fill="#FFFFFF" d="M17.823,31.419l-0.898,0.076c-0.08-0.382-0.194-0.66-0.341-0.833c-0.244-0.277-0.545-0.416-0.903-0.416
		c-0.288,0-0.54,0.086-0.757,0.259c-0.284,0.224-0.508,0.55-0.672,0.979c-0.164,0.429-0.249,1.04-0.255,1.833
		c0.217-0.357,0.483-0.622,0.797-0.795c0.314-0.173,0.644-0.26,0.988-0.26c0.602,0,1.114,0.239,1.538,0.716
		c0.423,0.478,0.634,1.095,0.634,1.852c0,0.497-0.1,0.959-0.298,1.387c-0.199,0.427-0.473,0.754-0.82,0.981
		s-0.742,0.341-1.184,0.341c-0.752,0-1.366-0.298-1.841-0.895c-0.475-0.596-0.712-1.579-0.712-2.949
		c0-1.532,0.262-2.646,0.788-3.341c0.458-0.605,1.075-0.908,1.851-0.908c0.578,0,1.052,0.175,1.422,0.524
		C17.527,30.32,17.749,30.803,17.823,31.419z M14.136,34.836c0,0.335,0.066,0.656,0.198,0.962c0.132,0.306,0.317,0.54,0.554,0.7
		c0.237,0.161,0.486,0.241,0.747,0.241c0.381,0,0.709-0.166,0.983-0.497c0.274-0.332,0.411-0.782,0.411-1.352
		c0-0.547-0.135-0.979-0.406-1.294s-0.612-0.473-1.023-0.473c-0.408,0-0.754,0.158-1.038,0.473S14.136,34.325,14.136,34.836z"/>
	<path fill="#FFFFFF" d="M18.851,33.496c0-0.937,0.089-1.691,0.269-2.263c0.179-0.571,0.444-1.012,0.797-1.322
		c0.353-0.31,0.796-0.465,1.332-0.465c0.395,0,0.741,0.085,1.038,0.257c0.298,0.171,0.544,0.418,0.737,0.741
		c0.193,0.322,0.346,0.715,0.457,1.178c0.109,0.463,0.164,1.088,0.164,1.874c0,0.93-0.088,1.681-0.266,2.251
		c-0.176,0.571-0.441,1.013-0.795,1.325c-0.352,0.312-0.798,0.468-1.336,0.468c-0.709,0-1.266-0.274-1.67-0.822
		C19.093,36.058,18.851,34.984,18.851,33.496z M19.778,33.496c0,1.301,0.142,2.167,0.424,2.598c0.283,0.431,0.631,0.646,1.046,0.646
		s0.764-0.216,1.046-0.649c0.282-0.432,0.423-1.297,0.423-2.595c0-1.305-0.141-2.171-0.423-2.601
		c-0.282-0.429-0.635-0.643-1.056-0.643c-0.415,0-0.746,0.189-0.993,0.567C19.934,31.302,19.778,32.194,19.778,33.496z"/>
	<path fill="#FFFFFF" d="M24.563,33.496c0-0.937,0.089-1.691,0.268-2.263s0.445-1.012,0.798-1.322s0.797-0.465,1.331-0.465
		c0.395,0,0.741,0.085,1.039,0.257c0.297,0.171,0.543,0.418,0.737,0.741c0.193,0.322,0.346,0.715,0.456,1.178
		c0.11,0.463,0.165,1.088,0.165,1.874c0,0.93-0.088,1.681-0.266,2.251c-0.177,0.571-0.442,1.013-0.795,1.325
		c-0.353,0.312-0.798,0.468-1.337,0.468c-0.708,0-1.266-0.274-1.67-0.822C24.806,36.058,24.563,34.984,24.563,33.496z
		 M25.491,33.496c0,1.301,0.141,2.167,0.424,2.598c0.282,0.431,0.631,0.646,1.045,0.646c0.415,0,0.764-0.216,1.046-0.649
		c0.283-0.432,0.424-1.297,0.424-2.595c0-1.305-0.141-2.171-0.424-2.601c-0.282-0.429-0.634-0.643-1.056-0.643
		c-0.414,0-0.745,0.189-0.993,0.567C25.646,31.302,25.491,32.194,25.491,33.496z"/>
	<path fill="#FFFFFF" d="M30.276,33.496c0-0.937,0.089-1.691,0.268-2.263s0.445-1.012,0.798-1.322s0.797-0.465,1.331-0.465
		c0.395,0,0.741,0.085,1.039,0.257c0.297,0.171,0.543,0.418,0.737,0.741c0.193,0.322,0.346,0.715,0.456,1.178
		c0.11,0.463,0.165,1.088,0.165,1.874c0,0.93-0.088,1.681-0.266,2.251c-0.177,0.571-0.442,1.013-0.795,1.325
		c-0.353,0.312-0.798,0.468-1.337,0.468c-0.708,0-1.266-0.274-1.67-0.822C30.519,36.058,30.276,34.984,30.276,33.496z
		 M31.204,33.496c0,1.301,0.141,2.167,0.424,2.598c0.282,0.431,0.631,0.646,1.045,0.646c0.415,0,0.764-0.216,1.046-0.649
		c0.283-0.432,0.424-1.297,0.424-2.595c0-1.305-0.141-2.171-0.424-2.601c-0.282-0.429-0.634-0.643-1.056-0.643
		c-0.414,0-0.745,0.189-0.993,0.567C31.359,31.302,31.204,32.194,31.204,33.496z"/>
</g>
<g>
	<path fill="#FFFFFF" d="M13.577,23.187h0.891v2.576c0,0.409,0.011,0.673,0.033,0.794c0.038,0.195,0.129,0.351,0.272,0.469
		c0.143,0.118,0.339,0.177,0.588,0.177c0.252,0,0.443-0.056,0.572-0.167c0.128-0.111,0.206-0.248,0.231-0.41
		c0.026-0.162,0.039-0.432,0.039-0.808v-2.631h0.891v2.498c0,0.571-0.024,0.975-0.072,1.21c-0.048,0.236-0.137,0.435-0.267,0.597
		c-0.129,0.162-0.302,0.291-0.519,0.387s-0.5,0.145-0.849,0.145c-0.421,0-0.741-0.052-0.958-0.157s-0.39-0.241-0.516-0.409
		s-0.209-0.343-0.25-0.527c-0.059-0.272-0.087-0.674-0.087-1.207V23.187z"/>
	<path fill="#FFFFFF" d="M20.711,24.352l-0.818,0.097c-0.02-0.182-0.072-0.315-0.156-0.402c-0.084-0.086-0.194-0.129-0.328-0.129
		c-0.179,0-0.33,0.086-0.453,0.259c-0.123,0.173-0.201,0.533-0.233,1.08c0.21-0.268,0.472-0.402,0.785-0.402
		c0.353,0,0.656,0.145,0.907,0.435c0.252,0.29,0.379,0.664,0.379,1.122c0,0.487-0.133,0.877-0.398,1.171
		c-0.264,0.294-0.604,0.441-1.02,0.441c-0.445,0-0.812-0.187-1.099-0.56c-0.287-0.373-0.43-0.984-0.43-1.834
		c0-0.871,0.149-1.5,0.448-1.884c0.299-0.385,0.688-0.578,1.165-0.578c0.335,0,0.613,0.101,0.832,0.303
		C20.512,23.673,20.651,23.967,20.711,24.352z M18.795,26.34c0,0.296,0.063,0.525,0.189,0.686s0.271,0.242,0.433,0.242
		c0.157,0,0.287-0.066,0.392-0.198c0.104-0.132,0.156-0.348,0.156-0.649c0-0.309-0.057-0.536-0.168-0.679
		c-0.113-0.144-0.253-0.216-0.422-0.216c-0.163,0-0.3,0.068-0.412,0.206C18.851,25.869,18.795,26.072,18.795,26.34z"/>
	<path fill="#FFFFFF" d="M22.703,23.167c0.427,0,0.761,0.165,1.002,0.493c0.287,0.389,0.431,1.035,0.431,1.937
		c0,0.899-0.145,1.546-0.434,1.94c-0.239,0.324-0.572,0.486-0.999,0.486c-0.43,0-0.775-0.178-1.038-0.534
		c-0.263-0.355-0.395-0.99-0.395-1.902c0-0.896,0.145-1.54,0.434-1.933C21.943,23.33,22.275,23.167,22.703,23.167z M22.703,23.923
		c-0.103,0-0.193,0.035-0.274,0.105c-0.08,0.07-0.142,0.196-0.187,0.378c-0.058,0.236-0.087,0.632-0.087,1.19
		s0.026,0.941,0.078,1.15s0.118,0.348,0.197,0.417c0.079,0.069,0.17,0.104,0.272,0.104s0.193-0.035,0.273-0.105
		s0.143-0.196,0.187-0.378c0.059-0.233,0.088-0.629,0.088-1.187s-0.026-0.941-0.078-1.15c-0.053-0.208-0.118-0.348-0.197-0.418
		S22.806,23.923,22.703,23.923z"/>
	<path fill="#FFFFFF" d="M28.866,27.942h-0.969l-0.386-1.08h-1.764l-0.363,1.08h-0.945l1.719-4.755H27.1L28.866,27.942z
		 M27.226,26.061l-0.607-1.765l-0.596,1.765H27.226z"/>
</g>
</svg>
