<?xml version="1.0" encoding="utf-8"?>
<!-- Generator: Adobe Illustrator 18.0.0, SVG Export Plug-In . SVG Version: 6.00 Build 0)  -->
<!DOCTYPE svg PUBLIC "-//W3C//DTD SVG 1.1//EN" "http://www.w3.org/Graphics/SVG/1.1/DTD/svg11.dtd">
<svg version="1.1" id="图层_1" xmlns="http://www.w3.org/2000/svg" xmlns:xlink="http://www.w3.org/1999/xlink" x="0px" y="0px"
	 width="36px" height="36px" viewBox="0 0 36 36" enable-background="new 0 0 36 36" xml:space="preserve">
<g>
	<g>
		<path fill="#FFFFFF" d="M2.44,35.397c-1.048,0-1.901-0.853-1.901-1.901V2.377c0-1.048,0.853-1.901,1.901-1.901H33.56
			c1.048,0,1.901,0.853,1.901,1.901v31.119c0,1.048-0.853,1.901-1.901,1.901H2.44z"/>
		<path fill="#AFAFAF" d="M33.56,0.951c0.786,0,1.426,0.64,1.426,1.426v31.119c0,0.786-0.64,1.426-1.426,1.426H2.44
			c-0.786,0-1.426-0.64-1.426-1.426V2.377c0-0.786,0.64-1.426,1.426-1.426H33.56 M33.56,0H2.44C1.128,0,0.063,1.064,0.063,2.377
			v31.119c0,1.313,1.064,2.377,2.377,2.377H33.56c1.313,0,2.377-1.064,2.377-2.377V2.377C35.937,1.064,34.872,0,33.56,0L33.56,0z"/>
	</g>
	<g>
		<path fill="#C4C4C4" d="M2.44,33.824c-0.18,0-0.328-0.148-0.328-0.328V2.377c0-0.18,0.148-0.328,0.328-0.328h31.12
			c0.18,0,0.327,0.148,0.327,0.328v31.119c0,0.18-0.146,0.328-0.327,0.328H2.44z"/>
	</g>
	<g>
		<g>
			<g>
				<polygon fill="#F5F5F5" points="7.073,7.661 9.89,5.334 9.89,9.989 				"/>
				<path fill="#F5F5F5" d="M17.533,13.331c-1.434-1.693-2.353-2.866-2.808-3.58c-0.616-0.969-1.092-1.145-1.253-1.156L9.205,8.62
					V6.643h3.969c0.539-0.079,1.895-0.033,3.22,2.046c0.276,0.433,0.958,1.369,2.648,3.365L17.533,13.331z"/>
			</g>
			<g>
				<polygon fill="#F5F5F5" points="28.926,16.828 26.109,19.156 26.109,14.501 				"/>
				<path fill="#F5F5F5" d="M18.466,11.159c1.434,1.693,2.353,2.866,2.808,3.58c0.616,0.969,1.092,1.145,1.253,1.156l4.267-0.025
					v1.977h-3.969c-0.539,0.079-1.895,0.033-3.22-2.046c-0.276-0.433-0.958-1.369-2.648-3.365L18.466,11.159z"/>
			</g>
		</g>
		<g>
			<g>
				<polygon fill="#F5F5F5" points="28.926,7.661 26.109,5.334 26.109,9.989 				"/>
				<path fill="#F5F5F5" d="M18.466,13.331c1.434-1.693,2.353-2.866,2.808-3.58c0.616-0.969,1.092-1.145,1.253-1.156l4.267,0.025
					V6.643h-3.969c-0.539-0.079-1.895-0.033-3.22,2.046c-0.276,0.433-0.958,1.369-2.648,3.365L18.466,13.331z"/>
			</g>
			<g>
				<polygon fill="#F5F5F5" points="7.073,16.828 9.89,19.156 9.89,14.501 				"/>
				<path fill="#F5F5F5" d="M17.533,11.159c-1.434,1.693-2.353,2.866-2.808,3.58c-0.616,0.969-1.092,1.145-1.253,1.156l-4.267-0.025
					v1.977h3.969c0.539,0.079,1.895,0.033,3.22-2.046c0.276-0.433,0.958-1.369,2.648-3.365L17.533,11.159z"/>
			</g>
		</g>
	</g>
	<text transform="matrix(0.9277 0 0 1 4.8933 32.7643)" fill="#FFFFFF" font-family="'ArialMT'" font-size="9.9648">F6000</text>
	<text transform="matrix(0.9277 0 0 1 10.9206 24.2497)" fill="#FFFFFF" font-family="'Arial-BoldMT'" font-size="5.9789">U60A</text>
</g>
</svg>
