<?xml version="1.0" encoding="utf-8"?>
<!-- Generator: Adobe Illustrator 18.0.0, SVG Export Plug-In . SVG Version: 6.00 Build 0)  -->
<!DOCTYPE svg PUBLIC "-//W3C//DTD SVG 1.1//EN" "http://www.w3.org/Graphics/SVG/1.1/DTD/svg11.dtd">
<svg version="1.1" id="图层_1" xmlns="http://www.w3.org/2000/svg" xmlns:xlink="http://www.w3.org/1999/xlink" x="0px" y="0px"
	 width="42px" height="42px" viewBox="0 0 42 42" enable-background="new 0 0 42 42" xml:space="preserve">
<g>
	<path fill="#FFFFFF" d="M3.681,40.401c-1.167,0-2.116-0.949-2.116-2.116V3.646c0-1.167,0.949-2.116,2.116-2.116h34.639
		c1.167,0,2.116,0.949,2.116,2.116v34.639c0,1.167-0.949,2.116-2.116,2.116H3.681z"/>
	<path fill="#AFAFAF" d="M38.319,2.059c0.875,0,1.587,0.712,1.587,1.587v34.639c0,0.875-0.712,1.587-1.587,1.587H3.681
		c-0.875,0-1.587-0.712-1.587-1.587V3.647c0-0.875,0.712-1.587,1.587-1.587H38.319 M38.319,1.001H3.681
		c-1.461,0-2.646,1.185-2.646,2.646v34.639c0,1.461,1.185,2.646,2.646,2.646h34.639c1.461,0,2.646-1.185,2.646-2.646V3.647
		C40.965,2.186,39.78,1.001,38.319,1.001L38.319,1.001z"/>
</g>
<g>
	<linearGradient id="SVGID_1_" gradientUnits="userSpaceOnUse" x1="20.9994" y1="38.6497" x2="20.9994" y2="3.282">
		<stop  offset="0" style="stop-color:#FF7F01"/>
		<stop  offset="1" style="stop-color:#F05800"/>
	</linearGradient>
	<path fill="url(#SVGID_1_)" d="M3.68,38.65c-0.201,0-0.365-0.164-0.365-0.365V3.647c0-0.201,0.164-0.365,0.365-0.365H38.32
		c0.201,0,0.363,0.164,0.363,0.365v34.638c0,0.201-0.163,0.365-0.363,0.365H3.68z"/>
</g>
<g>
	<g>
		<g>
			<polygon fill="#F5F5F5" points="8.837,9.529 11.973,6.938 11.973,12.119 			"/>
			<path fill="#F5F5F5" d="M20.48,15.839c-1.596-1.885-2.619-3.19-3.125-3.985c-0.686-1.079-1.216-1.274-1.395-1.286l-4.749,0.028
				V8.395h4.418c0.6-0.087,2.109-0.037,3.584,2.278c0.307,0.482,1.067,1.524,2.947,3.745L20.48,15.839z"/>
		</g>
		<g>
			<polygon fill="#F5F5F5" points="33.161,19.732 30.026,22.323 30.026,17.142 			"/>
			<path fill="#F5F5F5" d="M21.519,13.422c1.596,1.885,2.619,3.19,3.125,3.985c0.686,1.079,1.216,1.274,1.395,1.286l4.749-0.028
				v2.201h-4.418c-0.6,0.087-2.109,0.037-3.584-2.278c-0.307-0.482-1.067-1.524-2.947-3.745L21.519,13.422z"/>
		</g>
	</g>
	<g>
		<g>
			<polygon fill="#F5F5F5" points="33.161,9.529 30.026,6.938 30.026,12.119 			"/>
			<path fill="#F5F5F5" d="M21.519,15.839c1.596-1.885,2.619-3.19,3.125-3.985c0.686-1.079,1.216-1.274,1.395-1.286l4.749,0.028
				V8.395h-4.418c-0.6-0.087-2.109-0.037-3.584,2.278c-0.307,0.482-1.067,1.524-2.947,3.745L21.519,15.839z"/>
		</g>
		<g>
			<polygon fill="#F5F5F5" points="8.837,19.732 11.973,22.323 11.973,17.142 			"/>
			<path fill="#F5F5F5" d="M20.48,13.422c-1.596,1.885-2.619,3.19-3.125,3.985c-0.686,1.079-1.216,1.274-1.395,1.286l-4.749-0.028
				v2.201h4.418c0.6,0.087,2.109,0.037,3.584-2.278c0.307-0.482,1.067-1.524,2.947-3.745L20.48,13.422z"/>
		</g>
	</g>
</g>
<g>
	<path fill="#FFFFFF" d="M7.255,37.397v-7.939h4.969v0.937H8.23v2.459h3.457v0.937H8.23v3.607H7.255z"/>
	<path fill="#FFFFFF" d="M17.816,31.402l-0.899,0.075c-0.08-0.382-0.194-0.66-0.341-0.834c-0.245-0.277-0.546-0.417-0.904-0.417
		c-0.288,0-0.541,0.087-0.759,0.261c-0.285,0.224-0.509,0.55-0.673,0.979s-0.25,1.042-0.256,1.836
		c0.218-0.357,0.484-0.622,0.799-0.796c0.315-0.173,0.645-0.26,0.99-0.26c0.603,0,1.116,0.239,1.54,0.718s0.636,1.097,0.636,1.854
		c0,0.498-0.1,0.962-0.299,1.39c-0.2,0.428-0.473,0.755-0.822,0.982c-0.348,0.228-0.744,0.342-1.186,0.342
		c-0.754,0-1.369-0.299-1.844-0.896s-0.713-1.582-0.713-2.954c0-1.535,0.263-2.65,0.789-3.348c0.459-0.606,1.077-0.909,1.854-0.909
		c0.579,0,1.054,0.175,1.424,0.524C17.521,30.301,17.743,30.785,17.816,31.402z M14.124,34.825c0,0.336,0.066,0.657,0.199,0.964
		s0.317,0.541,0.555,0.701c0.238,0.161,0.487,0.241,0.749,0.241c0.382,0,0.71-0.166,0.985-0.498
		c0.274-0.332,0.412-0.784,0.412-1.354c0-0.549-0.136-0.98-0.407-1.297s-0.613-0.474-1.025-0.474c-0.409,0-0.755,0.157-1.04,0.474
		S14.124,34.313,14.124,34.825z"/>
	<path fill="#FFFFFF" d="M18.847,33.481c0-0.938,0.089-1.694,0.269-2.267s0.445-1.014,0.799-1.324
		c0.354-0.31,0.798-0.465,1.334-0.465c0.396,0,0.742,0.085,1.04,0.257s0.544,0.419,0.739,0.742c0.193,0.323,0.346,0.717,0.457,1.181
		c0.109,0.464,0.166,1.089,0.166,1.876c0,0.932-0.09,1.684-0.268,2.256s-0.441,1.015-0.795,1.327s-0.8,0.469-1.34,0.469
		c-0.71,0-1.268-0.274-1.673-0.823C19.089,36.049,18.847,34.973,18.847,33.481z M19.776,33.481c0,1.304,0.142,2.171,0.425,2.603
		c0.283,0.432,0.632,0.647,1.047,0.647c0.416,0,0.765-0.217,1.048-0.65c0.282-0.433,0.425-1.3,0.425-2.6
		c0-1.307-0.143-2.175-0.425-2.604c-0.283-0.43-0.636-0.645-1.058-0.645c-0.416,0-0.747,0.189-0.995,0.568
		C19.932,31.285,19.776,32.179,19.776,33.481z"/>
	<path fill="#FFFFFF" d="M24.569,33.481c0-0.938,0.09-1.694,0.27-2.267c0.179-0.572,0.445-1.014,0.799-1.324
		c0.353-0.31,0.798-0.465,1.334-0.465c0.395,0,0.741,0.085,1.04,0.257c0.298,0.172,0.544,0.419,0.738,0.742s0.347,0.717,0.457,1.181
		s0.166,1.089,0.166,1.876c0,0.932-0.089,1.684-0.267,2.256s-0.442,1.015-0.796,1.327s-0.8,0.469-1.339,0.469
		c-0.711,0-1.269-0.274-1.674-0.823C24.813,36.049,24.569,34.973,24.569,33.481z M25.499,33.481c0,1.304,0.142,2.171,0.425,2.603
		s0.632,0.647,1.048,0.647c0.415,0,0.764-0.217,1.047-0.65c0.283-0.433,0.425-1.3,0.425-2.6c0-1.307-0.142-2.175-0.425-2.604
		s-0.636-0.645-1.058-0.645c-0.415,0-0.747,0.189-0.994,0.568C25.655,31.285,25.499,32.179,25.499,33.481z"/>
	<path fill="#FFFFFF" d="M30.292,33.481c0-0.938,0.09-1.694,0.27-2.267c0.179-0.572,0.445-1.014,0.799-1.324
		c0.353-0.31,0.798-0.465,1.334-0.465c0.395,0,0.741,0.085,1.04,0.257c0.298,0.172,0.544,0.419,0.738,0.742s0.347,0.717,0.457,1.181
		s0.166,1.089,0.166,1.876c0,0.932-0.089,1.684-0.267,2.256s-0.442,1.015-0.796,1.327s-0.8,0.469-1.339,0.469
		c-0.711,0-1.269-0.274-1.674-0.823C30.535,36.049,30.292,34.973,30.292,33.481z M31.222,33.481c0,1.304,0.142,2.171,0.425,2.603
		s0.632,0.647,1.048,0.647c0.415,0,0.764-0.217,1.047-0.65c0.283-0.433,0.425-1.3,0.425-2.6c0-1.307-0.142-2.175-0.425-2.604
		s-0.636-0.645-1.058-0.645c-0.415,0-0.747,0.189-0.994,0.568C31.378,31.285,31.222,32.179,31.222,33.481z"/>
</g>
<g>
	<path fill="#FFFFFF" d="M13.574,23.156h0.892v2.58c0,0.409,0.011,0.675,0.033,0.796c0.038,0.195,0.129,0.352,0.273,0.47
		c0.144,0.118,0.34,0.177,0.589,0.177c0.253,0,0.444-0.056,0.573-0.167c0.128-0.111,0.206-0.249,0.232-0.411
		c0.026-0.162,0.039-0.433,0.039-0.81v-2.635h0.893v2.502c0,0.572-0.024,0.976-0.072,1.212c-0.048,0.236-0.137,0.436-0.267,0.598
		c-0.129,0.163-0.303,0.292-0.52,0.389c-0.217,0.097-0.5,0.145-0.85,0.145c-0.422,0-0.742-0.053-0.96-0.157
		c-0.218-0.105-0.391-0.242-0.517-0.409c-0.126-0.168-0.21-0.345-0.25-0.528c-0.059-0.273-0.087-0.676-0.087-1.209V23.156z"/>
	<path fill="#FFFFFF" d="M20.716,24.329l-0.819,0.098c-0.021-0.182-0.072-0.316-0.156-0.402c-0.084-0.087-0.194-0.13-0.328-0.13
		c-0.179,0-0.33,0.086-0.453,0.26c-0.123,0.173-0.201,0.533-0.233,1.08c0.21-0.269,0.472-0.402,0.785-0.402
		c0.353,0,0.656,0.145,0.908,0.435s0.377,0.664,0.377,1.122c0,0.486-0.133,0.877-0.396,1.171c-0.266,0.294-0.605,0.441-1.021,0.441
		c-0.445,0-0.812-0.187-1.099-0.56c-0.287-0.373-0.43-0.984-0.43-1.834c0-0.872,0.149-1.5,0.448-1.885
		c0.299-0.385,0.688-0.577,1.165-0.577c0.334,0,0.612,0.101,0.833,0.303C20.515,23.65,20.656,23.944,20.716,24.329z M18.799,26.317
		c0,0.297,0.063,0.525,0.189,0.687s0.271,0.241,0.433,0.241c0.157,0,0.287-0.065,0.391-0.198c0.105-0.132,0.157-0.348,0.157-0.648
		c0-0.309-0.056-0.535-0.169-0.68c-0.112-0.144-0.252-0.216-0.421-0.216c-0.163,0-0.3,0.069-0.412,0.206
		C18.854,25.847,18.799,26.05,18.799,26.317z"/>
	<path fill="#FFFFFF" d="M22.707,23.146c0.427,0,0.761,0.164,1.002,0.492c0.287,0.39,0.431,1.035,0.431,1.937
		c0,0.9-0.145,1.547-0.434,1.94c-0.239,0.324-0.572,0.486-0.999,0.486c-0.43,0-0.775-0.178-1.038-0.533
		c-0.263-0.356-0.395-0.99-0.395-1.902c0-0.896,0.145-1.54,0.434-1.934C21.947,23.308,22.279,23.146,22.707,23.146z M22.707,23.901
		c-0.103,0-0.193,0.035-0.274,0.104c-0.08,0.07-0.143,0.196-0.187,0.378c-0.058,0.236-0.087,0.633-0.087,1.19
		c0,0.559,0.026,0.941,0.078,1.15s0.118,0.348,0.197,0.417s0.17,0.104,0.272,0.104S22.9,27.21,22.98,27.14s0.143-0.196,0.187-0.378
		c0.059-0.233,0.088-0.629,0.088-1.188c0-0.558-0.026-0.94-0.078-1.149c-0.053-0.209-0.118-0.349-0.197-0.419
		C22.899,23.937,22.81,23.901,22.707,23.901z"/>
	<path fill="#FFFFFF" d="M28.87,27.92h-0.969l-0.386-1.08h-1.764l-0.363,1.08h-0.945l1.719-4.755h0.941L28.87,27.92z M27.229,26.038
		l-0.607-1.764l-0.596,1.764H27.229z"/>
</g>
</svg>
