<?xml version="1.0" encoding="utf-8"?>
<!-- Generator: Adobe Illustrator 18.0.0, SVG Export Plug-In . SVG Version: 6.00 Build 0)  -->
<!DOCTYPE svg PUBLIC "-//W3C//DTD SVG 1.1//EN" "http://www.w3.org/Graphics/SVG/1.1/DTD/svg11.dtd">
<svg version="1.1" id="图层_1" xmlns="http://www.w3.org/2000/svg" xmlns:xlink="http://www.w3.org/1999/xlink" x="0px" y="0px"
	 width="42px" height="42px" viewBox="0 0 42 42" enable-background="new 0 0 42 42" xml:space="preserve">
<g>
	<path fill="#FFFFFF" d="M3.711,40.332c-1.165,0-2.113-0.948-2.113-2.113V3.641c0-1.165,0.948-2.113,2.113-2.113h34.577
		c1.165,0,2.113,0.948,2.113,2.113v34.578c0,1.165-0.948,2.113-2.113,2.113H3.711z"/>
	<path fill="#AFAFAF" d="M38.289,2.057c0.874,0,1.585,0.711,1.585,1.585v34.578c0,0.874-0.711,1.585-1.585,1.585H3.711
		c-0.874,0-1.585-0.711-1.585-1.585V3.641c0-0.874,0.711-1.585,1.585-1.585H38.289 M38.289,1H3.711C2.253,1,1.07,2.183,1.07,3.641
		v34.578c0,1.459,1.182,2.641,2.641,2.641h34.578c1.459,0,2.641-1.182,2.641-2.641V3.641C40.93,2.183,39.747,1,38.289,1L38.289,1z"
		/>
</g>
<g>
	<path fill="#C4C4C4" d="M3.711,38.583c-0.2,0-0.364-0.164-0.364-0.364V3.641c0-0.2,0.164-0.364,0.364-0.364h34.578
		c0.2,0,0.363,0.164,0.363,0.364v34.577c0,0.2-0.163,0.364-0.363,0.364H3.711z"/>
</g>
<g>
	<g>
		<g>
			<polygon fill="#F5F5F5" points="8.859,9.513 11.989,6.927 11.989,12.099 			"/>
			<path fill="#F5F5F5" d="M20.481,15.812c-1.594-1.882-2.614-3.184-3.12-3.978c-0.685-1.077-1.214-1.272-1.393-1.284l-4.741,0.028
				V8.381h4.41c0.599-0.087,2.105-0.037,3.578,2.274c0.306,0.481,1.065,1.521,2.942,3.739L20.481,15.812z"/>
		</g>
		<g>
			<polygon fill="#F5F5F5" points="33.14,19.698 30.01,22.285 30.01,17.112 			"/>
			<path fill="#F5F5F5" d="M21.518,13.399c1.594,1.882,2.614,3.184,3.12,3.978c0.685,1.077,1.214,1.272,1.393,1.284l4.741-0.028
				v2.197h-4.41c-0.599,0.087-2.105,0.037-3.578-2.274c-0.306-0.481-1.065-1.521-2.942-3.739L21.518,13.399z"/>
		</g>
	</g>
	<g>
		<g>
			<polygon fill="#F5F5F5" points="33.14,9.513 30.01,6.927 30.01,12.099 			"/>
			<path fill="#F5F5F5" d="M21.518,15.812c1.594-1.882,2.614-3.184,3.12-3.978c0.685-1.077,1.214-1.272,1.393-1.284l4.741,0.028
				V8.381h-4.41c-0.599-0.087-2.105-0.037-3.578,2.274c-0.306,0.481-1.065,1.521-2.942,3.739L21.518,15.812z"/>
		</g>
		<g>
			<polygon fill="#F5F5F5" points="8.859,19.698 11.989,22.285 11.989,17.112 			"/>
			<path fill="#F5F5F5" d="M20.481,13.399c-1.594,1.882-2.614,3.184-3.12,3.978c-0.685,1.077-1.214,1.272-1.393,1.284l-4.741-0.028
				v2.197h4.41c0.599,0.087,2.105,0.037,3.578-2.274c0.306-0.481,1.065-1.521,2.942-3.739L20.481,13.399z"/>
		</g>
	</g>
</g>
<g>
	<path fill="#FFFFFF" d="M7.28,37.405v-7.926h4.96v0.936H8.252v2.454h3.451v0.936H8.252v3.601H7.28z"/>
	<path fill="#FFFFFF" d="M17.822,31.42l-0.898,0.076c-0.08-0.382-0.194-0.66-0.341-0.833c-0.244-0.277-0.545-0.417-0.903-0.417
		c-0.288,0-0.54,0.087-0.757,0.26c-0.284,0.224-0.508,0.55-0.672,0.979c-0.164,0.429-0.249,1.04-0.255,1.833
		c0.217-0.356,0.483-0.622,0.797-0.794c0.314-0.173,0.644-0.26,0.988-0.26c0.602,0,1.114,0.239,1.538,0.716
		c0.423,0.478,0.634,1.095,0.634,1.852c0,0.497-0.1,0.959-0.298,1.387c-0.199,0.427-0.473,0.754-0.82,0.981
		s-0.742,0.341-1.184,0.341c-0.752,0-1.366-0.298-1.84-0.895c-0.475-0.596-0.712-1.579-0.712-2.949c0-1.532,0.262-2.646,0.788-3.341
		c0.458-0.605,1.075-0.908,1.851-0.908c0.578,0,1.052,0.175,1.422,0.524C17.527,30.321,17.749,30.804,17.822,31.42z M14.136,34.837
		c0,0.335,0.066,0.656,0.198,0.962c0.132,0.306,0.317,0.54,0.554,0.7c0.237,0.161,0.486,0.241,0.747,0.241
		c0.381,0,0.709-0.166,0.983-0.498c0.274-0.332,0.411-0.782,0.411-1.352c0-0.547-0.135-0.979-0.406-1.294s-0.612-0.473-1.023-0.473
		c-0.408,0-0.754,0.158-1.039,0.473S14.136,34.325,14.136,34.837z"/>
	<path fill="#FFFFFF" d="M18.85,33.496c0-0.937,0.089-1.691,0.269-2.263c0.179-0.571,0.444-1.012,0.797-1.322
		c0.353-0.31,0.796-0.465,1.332-0.465c0.395,0,0.741,0.085,1.038,0.257c0.298,0.171,0.543,0.418,0.737,0.741
		c0.194,0.322,0.346,0.715,0.457,1.178c0.11,0.463,0.166,1.088,0.166,1.874c0,0.93-0.089,1.681-0.266,2.251
		c-0.177,0.571-0.442,1.013-0.795,1.325c-0.353,0.312-0.798,0.468-1.336,0.468c-0.709,0-1.266-0.274-1.67-0.822
		C19.093,36.059,18.85,34.984,18.85,33.496z M19.778,33.496c0,1.301,0.142,2.167,0.424,2.598c0.283,0.431,0.631,0.646,1.046,0.646
		s0.763-0.216,1.046-0.649c0.282-0.432,0.424-1.297,0.424-2.595c0-1.305-0.142-2.171-0.424-2.601
		c-0.283-0.429-0.635-0.643-1.056-0.643c-0.415,0-0.746,0.189-0.993,0.567C19.934,31.303,19.778,32.195,19.778,33.496z"/>
	<path fill="#FFFFFF" d="M24.563,33.496c0-0.937,0.089-1.691,0.269-2.263c0.179-0.571,0.444-1.012,0.797-1.322
		c0.353-0.31,0.796-0.465,1.332-0.465c0.395,0,0.741,0.085,1.038,0.257c0.298,0.171,0.543,0.418,0.737,0.741
		c0.194,0.322,0.346,0.715,0.457,1.178c0.11,0.463,0.166,1.088,0.166,1.874c0,0.93-0.089,1.681-0.266,2.251
		c-0.177,0.571-0.442,1.013-0.795,1.325c-0.353,0.312-0.798,0.468-1.336,0.468c-0.709,0-1.266-0.274-1.67-0.822
		C24.805,36.059,24.563,34.984,24.563,33.496z M25.49,33.496c0,1.301,0.142,2.167,0.424,2.598c0.283,0.431,0.631,0.646,1.046,0.646
		s0.763-0.216,1.046-0.649c0.282-0.432,0.424-1.297,0.424-2.595c0-1.305-0.142-2.171-0.424-2.601
		c-0.283-0.429-0.635-0.643-1.056-0.643c-0.415,0-0.746,0.189-0.993,0.567C25.646,31.303,25.49,32.195,25.49,33.496z"/>
	<path fill="#FFFFFF" d="M30.275,33.496c0-0.937,0.089-1.691,0.269-2.263c0.179-0.571,0.444-1.012,0.797-1.322
		c0.353-0.31,0.796-0.465,1.332-0.465c0.395,0,0.741,0.085,1.038,0.257c0.298,0.171,0.543,0.418,0.737,0.741
		c0.194,0.322,0.346,0.715,0.457,1.178c0.11,0.463,0.166,1.088,0.166,1.874c0,0.93-0.089,1.681-0.266,2.251
		c-0.177,0.571-0.442,1.013-0.795,1.325c-0.353,0.312-0.798,0.468-1.336,0.468c-0.709,0-1.266-0.274-1.67-0.822
		C30.518,36.059,30.275,34.984,30.275,33.496z M31.203,33.496c0,1.301,0.142,2.167,0.424,2.598c0.283,0.431,0.631,0.646,1.046,0.646
		s0.763-0.216,1.046-0.649c0.282-0.432,0.424-1.297,0.424-2.595c0-1.305-0.142-2.171-0.424-2.601
		c-0.283-0.429-0.635-0.643-1.056-0.643c-0.415,0-0.746,0.189-0.993,0.567C31.358,31.303,31.203,32.195,31.203,33.496z"/>
</g>
<g>
	<path fill="#FFFFFF" d="M15.367,22.871h0.95v2.748c0,0.436,0.012,0.718,0.035,0.848c0.041,0.208,0.138,0.374,0.291,0.5
		c0.153,0.126,0.362,0.188,0.628,0.188c0.27,0,0.473-0.059,0.609-0.178c0.137-0.119,0.219-0.265,0.247-0.438
		c0.028-0.173,0.042-0.46,0.042-0.861v-2.806h0.951v2.664c0,0.609-0.026,1.039-0.077,1.29c-0.051,0.252-0.146,0.464-0.284,0.637
		c-0.138,0.173-0.323,0.311-0.554,0.413c-0.231,0.103-0.533,0.154-0.905,0.154c-0.449,0-0.79-0.056-1.022-0.168
		c-0.232-0.112-0.416-0.257-0.551-0.436c-0.135-0.178-0.224-0.366-0.266-0.562c-0.063-0.291-0.093-0.72-0.093-1.287V22.871z"/>
	<path fill="#FFFFFF" d="M22.23,27.943h-0.902v-3.664c-0.33,0.332-0.718,0.578-1.165,0.737v-0.882
		c0.235-0.083,0.491-0.241,0.767-0.473c0.276-0.232,0.466-0.502,0.568-0.811h0.732V27.943z"/>
	<path fill="#FFFFFF" d="M25.103,22.85c0.456,0,0.813,0.175,1.069,0.526c0.306,0.415,0.46,1.104,0.46,2.065
		c0,0.96-0.154,1.65-0.462,2.07c-0.254,0.346-0.611,0.519-1.066,0.519c-0.457,0-0.827-0.19-1.107-0.569
		c-0.281-0.38-0.421-1.056-0.421-2.029c0-0.955,0.154-1.643,0.462-2.063C24.292,23.022,24.647,22.85,25.103,22.85z M25.103,23.656
		c-0.109,0-0.206,0.038-0.292,0.113c-0.086,0.075-0.152,0.209-0.199,0.403c-0.063,0.251-0.092,0.675-0.092,1.27
		c0,0.596,0.027,1.005,0.083,1.227c0.055,0.222,0.125,0.37,0.21,0.444c0.085,0.074,0.181,0.111,0.29,0.111
		c0.109,0,0.207-0.038,0.293-0.113c0.085-0.075,0.152-0.21,0.199-0.403c0.063-0.249,0.092-0.671,0.092-1.267
		c0-0.595-0.027-1.004-0.083-1.227c-0.056-0.222-0.126-0.371-0.21-0.446C25.309,23.693,25.213,23.656,25.103,23.656z"/>
</g>
</svg>
