<?xml version="1.0" encoding="utf-8"?>
<!-- Generator: Adobe Illustrator 18.0.0, SVG Export Plug-In . SVG Version: 6.00 Build 0)  -->
<!DOCTYPE svg PUBLIC "-//W3C//DTD SVG 1.1//EN" "http://www.w3.org/Graphics/SVG/1.1/DTD/svg11.dtd">
<svg version="1.1" id="图层_1" xmlns="http://www.w3.org/2000/svg" xmlns:xlink="http://www.w3.org/1999/xlink" x="0px" y="0px"
	 width="36px" height="36px" viewBox="0 0 36 36" enable-background="new 0 0 36 36" xml:space="preserve">
<g>
	<path fill="#FFFFFF" d="M2.846,34.975c-1.021,0-1.852-0.831-1.852-1.853V2.814c0-1.021,0.831-1.853,1.852-1.853h30.308
		c1.021,0,1.852,0.831,1.852,1.853v30.308c0,1.021-0.831,1.853-1.852,1.853H2.846z"/>
	<path fill="#AFAFAF" d="M33.154,1.425c0.766,0,1.389,0.623,1.389,1.389v30.308c0,0.766-0.623,1.389-1.389,1.389H2.846
		c-0.766,0-1.389-0.623-1.389-1.389V2.814c0-0.766,0.623-1.389,1.389-1.389H33.154 M33.154,0.499H2.846
		c-1.279,0-2.315,1.036-2.315,2.315v30.308c0,1.279,1.036,2.315,2.315,2.315h30.308c1.279,0,2.315-1.036,2.315-2.315V2.814
		C35.469,1.536,34.432,0.499,33.154,0.499L33.154,0.499z"/>
</g>
<g>
	<linearGradient id="SVGID_1_" gradientUnits="userSpaceOnUse" x1="17.9995" y1="33.441" x2="17.9995" y2="2.4952">
		<stop  offset="0" style="stop-color:#76797A"/>
		<stop  offset="1" style="stop-color:#5F6263"/>
	</linearGradient>
	<path fill="url(#SVGID_1_)" d="M2.846,33.441c-0.175,0-0.319-0.144-0.319-0.319V2.814c0-0.175,0.144-0.319,0.319-0.319h30.309
		c0.175,0,0.318,0.144,0.318,0.319v30.307c0,0.175-0.143,0.319-0.318,0.319H2.846z"/>
</g>
<g>
	<g>
		<g>
			<polygon fill="#F5F5F5" points="7.358,7.961 10.101,5.694 10.101,10.228 			"/>
			<path fill="#F5F5F5" d="M17.545,13.483c-1.397-1.649-2.291-2.791-2.734-3.486c-0.6-0.944-1.064-1.115-1.221-1.125L9.434,8.895
				V6.969H13.3c0.525-0.077,1.845-0.032,3.136,1.993c0.269,0.422,0.933,1.334,2.579,3.277L17.545,13.483z"/>
		</g>
		<g>
			<polygon fill="#F5F5F5" points="28.641,16.889 25.898,19.155 25.898,14.622 			"/>
			<path fill="#F5F5F5" d="M18.454,11.367c1.397,1.649,2.291,2.791,2.734,3.486c0.6,0.944,1.064,1.115,1.221,1.125l4.155-0.024
				v1.926h-3.865c-0.525,0.077-1.845,0.032-3.136-1.993c-0.269-0.422-0.933-1.334-2.579-3.277L18.454,11.367z"/>
		</g>
	</g>
	<g>
		<g>
			<polygon fill="#F5F5F5" points="28.641,7.961 25.898,5.694 25.898,10.228 			"/>
			<path fill="#F5F5F5" d="M18.454,13.483c1.397-1.649,2.291-2.791,2.734-3.486c0.6-0.944,1.064-1.115,1.221-1.125l4.155,0.024
				V6.969h-3.865c-0.525-0.077-1.845-0.032-3.136,1.993c-0.269,0.422-0.933,1.334-2.579,3.277L18.454,13.483z"/>
		</g>
		<g>
			<polygon fill="#F5F5F5" points="7.358,16.889 10.101,19.155 10.101,14.622 			"/>
			<path fill="#F5F5F5" d="M17.545,11.367c-1.397,1.649-2.291,2.791-2.734,3.486c-0.6,0.944-1.064,1.115-1.221,1.125l-4.155-0.024
				v1.926H13.3c0.525,0.077,1.845,0.032,3.136-1.993c0.269-0.422,0.933-1.334,2.579-3.277L17.545,11.367z"/>
		</g>
	</g>
</g>
<g>
	<path fill="#FFFFFF" d="M5.974,32.35v-6.947h4.348v0.82H6.827v2.151h3.025v0.819H6.827v3.156H5.974z"/>
	<path fill="#FFFFFF" d="M15.214,27.104l-0.787,0.066c-0.07-0.335-0.17-0.578-0.299-0.729c-0.214-0.243-0.478-0.365-0.792-0.365
		c-0.252,0-0.473,0.076-0.664,0.228c-0.249,0.196-0.445,0.482-0.589,0.858s-0.218,0.911-0.224,1.606
		c0.19-0.313,0.423-0.546,0.699-0.697c0.276-0.151,0.564-0.228,0.866-0.228c0.527,0,0.977,0.21,1.348,0.628
		c0.371,0.419,0.556,0.96,0.556,1.623c0,0.437-0.087,0.842-0.262,1.216s-0.414,0.661-0.719,0.86
		c-0.305,0.198-0.651,0.298-1.038,0.298c-0.66,0-1.197-0.261-1.613-0.784c-0.417-0.522-0.625-1.384-0.625-2.585
		c0-1.343,0.23-2.318,0.69-2.929c0.401-0.53,0.942-0.796,1.622-0.796c0.507,0,0.922,0.153,1.246,0.46
		C14.956,26.141,15.15,26.563,15.214,27.104z M11.983,30.099c0,0.294,0.058,0.575,0.174,0.844c0.116,0.269,0.277,0.473,0.485,0.613
		c0.208,0.141,0.427,0.211,0.655,0.211c0.334,0,0.621-0.146,0.862-0.436c0.24-0.291,0.36-0.686,0.36-1.185
		c0-0.48-0.119-0.858-0.356-1.136c-0.238-0.276-0.537-0.414-0.897-0.414c-0.357,0-0.661,0.138-0.91,0.414
		C12.108,29.288,11.983,29.65,11.983,30.099z"/>
	<path fill="#FFFFFF" d="M16.116,28.924c0-0.821,0.079-1.482,0.235-1.983s0.39-0.887,0.699-1.159
		c0.309-0.271,0.698-0.407,1.167-0.407c0.346,0,0.649,0.075,0.91,0.226c0.261,0.149,0.476,0.366,0.646,0.648
		c0.17,0.283,0.303,0.628,0.4,1.033c0.097,0.406,0.146,0.953,0.146,1.643c0,0.814-0.078,1.473-0.233,1.974
		c-0.155,0.5-0.388,0.888-0.697,1.161c-0.309,0.272-0.7,0.409-1.171,0.409c-0.622,0-1.109-0.239-1.464-0.72
		C16.328,31.17,16.116,30.229,16.116,28.924z M16.929,28.924c0,1.141,0.124,1.899,0.372,2.276c0.248,0.378,0.553,0.566,0.917,0.566
		s0.669-0.189,0.917-0.568s0.372-1.138,0.372-2.274c0-1.144-0.124-1.903-0.372-2.279s-0.556-0.564-0.925-0.564
		c-0.363,0-0.654,0.166-0.871,0.498C17.065,27.001,16.929,27.783,16.929,28.924z"/>
	<path fill="#FFFFFF" d="M21.123,28.924c0-0.821,0.079-1.482,0.235-1.983s0.39-0.887,0.699-1.159
		c0.309-0.271,0.698-0.407,1.167-0.407c0.346,0,0.649,0.075,0.91,0.226c0.261,0.149,0.476,0.366,0.646,0.648
		c0.17,0.283,0.303,0.628,0.4,1.033c0.097,0.406,0.146,0.953,0.146,1.643c0,0.814-0.078,1.473-0.233,1.974
		c-0.155,0.5-0.388,0.888-0.697,1.161c-0.309,0.272-0.7,0.409-1.171,0.409c-0.622,0-1.109-0.239-1.464-0.72
		C21.335,31.17,21.123,30.229,21.123,28.924z M21.937,28.924c0,1.141,0.124,1.899,0.372,2.276c0.248,0.378,0.553,0.566,0.917,0.566
		s0.669-0.189,0.917-0.568s0.372-1.138,0.372-2.274c0-1.144-0.124-1.903-0.372-2.279s-0.556-0.564-0.925-0.564
		c-0.363,0-0.654,0.166-0.871,0.498C22.073,27.001,21.937,27.783,21.937,28.924z"/>
	<path fill="#FFFFFF" d="M26.13,28.924c0-0.821,0.079-1.482,0.235-1.983s0.39-0.887,0.699-1.159
		c0.309-0.271,0.698-0.407,1.167-0.407c0.346,0,0.649,0.075,0.91,0.226c0.261,0.149,0.476,0.366,0.646,0.648
		c0.17,0.283,0.303,0.628,0.4,1.033c0.097,0.406,0.146,0.953,0.146,1.643c0,0.814-0.078,1.473-0.233,1.974
		c-0.155,0.5-0.388,0.888-0.697,1.161c-0.309,0.272-0.7,0.409-1.171,0.409c-0.622,0-1.109-0.239-1.464-0.72
		C26.343,31.17,26.13,30.229,26.13,28.924z M26.944,28.924c0,1.141,0.124,1.899,0.372,2.276c0.248,0.378,0.553,0.566,0.917,0.566
		s0.669-0.189,0.917-0.568s0.372-1.138,0.372-2.274c0-1.144-0.124-1.903-0.372-2.279s-0.556-0.564-0.925-0.564
		c-0.363,0-0.654,0.166-0.871,0.498C27.08,27.001,26.944,27.783,26.944,28.924z"/>
</g>
<g>
	<path fill="#FFFFFF" d="M13.433,19.886h0.781v2.257c0,0.358,0.01,0.591,0.029,0.697c0.033,0.17,0.113,0.308,0.238,0.411
		c0.126,0.103,0.298,0.154,0.516,0.154c0.222,0,0.389-0.049,0.501-0.146c0.112-0.098,0.18-0.217,0.203-0.359
		s0.034-0.378,0.034-0.708v-2.306h0.781v2.189c0,0.5-0.021,0.854-0.063,1.061c-0.042,0.206-0.12,0.381-0.233,0.522
		c-0.113,0.143-0.265,0.256-0.455,0.34c-0.189,0.085-0.438,0.127-0.744,0.127c-0.369,0-0.649-0.046-0.84-0.138
		c-0.191-0.093-0.342-0.212-0.453-0.358c-0.111-0.147-0.184-0.301-0.219-0.462c-0.051-0.239-0.077-0.592-0.077-1.058V19.886z"/>
	<path fill="#FFFFFF" d="M17.149,22.947l0.717-0.094c0.023,0.197,0.084,0.349,0.185,0.452c0.101,0.104,0.222,0.156,0.364,0.156
		c0.153,0,0.282-0.063,0.386-0.188c0.105-0.125,0.157-0.294,0.157-0.506c0-0.201-0.05-0.36-0.15-0.478s-0.223-0.177-0.367-0.177
		c-0.095,0-0.208,0.021-0.34,0.061l0.082-0.651c0.2,0.006,0.353-0.041,0.458-0.141c0.106-0.1,0.159-0.232,0.159-0.396
		c0-0.141-0.039-0.253-0.116-0.336c-0.078-0.083-0.18-0.125-0.309-0.125c-0.126,0-0.235,0.047-0.325,0.142
		c-0.089,0.096-0.144,0.233-0.163,0.416l-0.684-0.126c0.048-0.252,0.119-0.453,0.215-0.604c0.096-0.151,0.229-0.27,0.401-0.355
		c0.171-0.087,0.363-0.13,0.576-0.13c0.364,0,0.656,0.125,0.876,0.376c0.181,0.204,0.271,0.436,0.271,0.693
		c0,0.366-0.186,0.658-0.557,0.876c0.222,0.051,0.399,0.166,0.532,0.344c0.133,0.179,0.199,0.394,0.199,0.646
		c0,0.366-0.124,0.678-0.372,0.936s-0.557,0.387-0.926,0.387c-0.35,0-0.64-0.108-0.871-0.326
		C17.32,23.582,17.187,23.299,17.149,22.947z"/>
	<path fill="#FFFFFF" d="M21.433,19.868c0.375,0,0.667,0.145,0.878,0.433c0.251,0.341,0.377,0.907,0.377,1.697
		c0,0.788-0.126,1.355-0.38,1.7c-0.209,0.284-0.501,0.427-0.875,0.427c-0.376,0-0.68-0.156-0.91-0.468s-0.345-0.868-0.345-1.668
		c0-0.784,0.126-1.35,0.379-1.694C20.767,20.011,21.059,19.868,21.433,19.868z M21.433,20.531c-0.09,0-0.17,0.03-0.24,0.092
		s-0.125,0.172-0.164,0.331c-0.051,0.207-0.076,0.555-0.076,1.044s0.023,0.825,0.068,1.008c0.046,0.183,0.104,0.305,0.173,0.365
		s0.149,0.091,0.239,0.091s0.169-0.03,0.24-0.092c0.07-0.062,0.125-0.172,0.163-0.331c0.051-0.205,0.077-0.552,0.077-1.041
		s-0.023-0.825-0.068-1.008c-0.046-0.183-0.104-0.306-0.173-0.367S21.523,20.531,21.433,20.531z"/>
</g>
</svg>
