<?xml version="1.0" encoding="utf-8"?>
<!-- Generator: Adobe Illustrator 18.0.0, SVG Export Plug-In . SVG Version: 6.00 Build 0)  -->
<!DOCTYPE svg PUBLIC "-//W3C//DTD SVG 1.1//EN" "http://www.w3.org/Graphics/SVG/1.1/DTD/svg11.dtd">
<svg version="1.1" id="图层_1" xmlns="http://www.w3.org/2000/svg" xmlns:xlink="http://www.w3.org/1999/xlink" x="0px" y="0px"
	 width="42px" height="42px" viewBox="0 0 42 42" enable-background="new 0 0 42 42" xml:space="preserve">
<g>
	<path fill="#FFFFFF" d="M3.681,40.4c-1.167,0-2.117-0.949-2.117-2.116V3.646c0-1.167,0.949-2.116,2.117-2.116h34.638
		c1.167,0,2.117,0.949,2.117,2.116v34.639c0,1.167-0.949,2.116-2.117,2.116H3.681z"/>
	<path fill="#AFAFAF" d="M38.319,2.058c0.875,0,1.587,0.712,1.587,1.587v34.638c0,0.875-0.712,1.587-1.587,1.587H3.681
		c-0.875,0-1.587-0.712-1.587-1.587V3.646c0-0.875,0.712-1.587,1.587-1.587H38.319 M38.319,1H3.681C2.22,1,1.035,2.185,1.035,3.646
		v34.638c0,1.461,1.185,2.646,2.646,2.646h34.638c1.461,0,2.646-1.184,2.646-2.646V3.646C40.965,2.185,39.78,1,38.319,1L38.319,1z"
		/>
</g>
<g>
	<linearGradient id="SVGID_1_" gradientUnits="userSpaceOnUse" x1="20.9994" y1="38.6483" x2="20.9994" y2="3.281">
		<stop  offset="0" style="stop-color:#F1E821"/>
		<stop  offset="1" style="stop-color:#D6B900"/>
	</linearGradient>
	<path fill="url(#SVGID_1_)" d="M3.681,38.648c-0.201,0-0.365-0.164-0.365-0.365V3.646c0-0.201,0.164-0.365,0.365-0.365H38.32
		c0.201,0,0.363,0.164,0.363,0.365v34.637c0,0.201-0.163,0.365-0.363,0.365H3.681z"/>
</g>
<g>
	<g>
		<g>
			<polygon fill="#A37C00" points="8.837,9.528 11.973,6.937 11.973,12.118 			"/>
			<path fill="#A37C00" d="M20.48,15.838c-1.596-1.885-2.619-3.19-3.125-3.985c-0.686-1.079-1.216-1.274-1.395-1.286l-4.749,0.028
				V8.394h4.417c0.6-0.087,2.109-0.037,3.584,2.278c0.307,0.482,1.067,1.524,2.947,3.745L20.48,15.838z"/>
		</g>
		<g>
			<polygon fill="#A37C00" points="33.161,19.731 30.026,22.322 30.026,17.14 			"/>
			<path fill="#A37C00" d="M21.519,13.421c1.596,1.885,2.619,3.19,3.125,3.985c0.686,1.079,1.216,1.274,1.395,1.286l4.749-0.028
				v2.201h-4.417c-0.6,0.087-2.109,0.037-3.584-2.278c-0.307-0.482-1.067-1.524-2.947-3.745L21.519,13.421z"/>
		</g>
	</g>
	<g>
		<g>
			<polygon fill="#A37C00" points="33.161,9.528 30.026,6.937 30.026,12.118 			"/>
			<path fill="#A37C00" d="M21.519,15.838c1.596-1.885,2.619-3.19,3.125-3.985c0.686-1.079,1.216-1.274,1.395-1.286l4.749,0.028
				V8.394h-4.417c-0.6-0.087-2.109-0.037-3.584,2.278c-0.307,0.482-1.067,1.524-2.947,3.745L21.519,15.838z"/>
		</g>
		<g>
			<polygon fill="#A37C00" points="8.837,19.731 11.973,22.322 11.973,17.14 			"/>
			<path fill="#A37C00" d="M20.48,13.421c-1.596,1.885-2.619,3.19-3.125,3.985c-0.686,1.079-1.216,1.274-1.395,1.286l-4.749-0.028
				v2.201h4.417c0.6,0.087,2.109,0.037,3.584-2.278c0.307-0.482,1.067-1.524,2.947-3.745L20.48,13.421z"/>
		</g>
	</g>
</g>
<g>
	<path fill="#A37C00" d="M7.996,37.398v-7.939h4.969v0.937H8.971v2.459h3.457v0.938H8.971v3.606H7.996z"/>
	<path fill="#A37C00" d="M18.557,31.403l-0.899,0.075c-0.08-0.382-0.194-0.66-0.341-0.834c-0.245-0.277-0.546-0.417-0.904-0.417
		c-0.289,0-0.541,0.087-0.759,0.261c-0.285,0.224-0.509,0.55-0.673,0.979s-0.25,1.042-0.256,1.836
		c0.218-0.357,0.484-0.622,0.799-0.796c0.315-0.173,0.645-0.26,0.99-0.26c0.603,0,1.116,0.239,1.54,0.718s0.636,1.097,0.636,1.854
		c0,0.498-0.1,0.962-0.299,1.39c-0.2,0.428-0.473,0.755-0.822,0.982c-0.348,0.228-0.744,0.342-1.186,0.342
		c-0.754,0-1.369-0.299-1.844-0.896s-0.713-1.582-0.713-2.954c0-1.535,0.263-2.65,0.789-3.348c0.459-0.606,1.077-0.909,1.854-0.909
		c0.579,0,1.054,0.175,1.424,0.525C18.261,30.302,18.483,30.786,18.557,31.403z M14.864,34.826c0,0.336,0.066,0.657,0.199,0.964
		s0.317,0.541,0.555,0.701c0.238,0.161,0.487,0.241,0.749,0.241c0.382,0,0.71-0.166,0.985-0.498
		c0.274-0.332,0.412-0.784,0.412-1.354c0-0.549-0.135-0.98-0.407-1.297c-0.271-0.315-0.613-0.474-1.025-0.474
		c-0.409,0-0.755,0.158-1.04,0.474C15.006,33.899,14.864,34.313,14.864,34.826z"/>
	<path fill="#A37C00" d="M19.587,33.482c0-0.938,0.089-1.693,0.269-2.266s0.445-1.014,0.799-1.324s0.798-0.466,1.334-0.466
		c0.395,0,0.742,0.085,1.04,0.257s0.544,0.419,0.739,0.742c0.194,0.323,0.347,0.717,0.457,1.181s0.166,1.089,0.166,1.876
		c0,0.932-0.089,1.684-0.267,2.256c-0.177,0.572-0.443,1.015-0.796,1.327c-0.353,0.313-0.8,0.469-1.339,0.469
		c-0.71,0-1.268-0.274-1.673-0.823C19.83,36.05,19.587,34.974,19.587,33.482z M20.516,33.482c0,1.304,0.142,2.171,0.425,2.603
		c0.283,0.432,0.632,0.647,1.047,0.647s0.765-0.217,1.048-0.65c0.283-0.433,0.424-1.3,0.424-2.6c0-1.307-0.142-2.175-0.424-2.604
		c-0.283-0.43-0.636-0.645-1.058-0.645c-0.416,0-0.747,0.189-0.995,0.568C20.672,31.286,20.516,32.18,20.516,33.482z"/>
	<path fill="#A37C00" d="M25.31,33.482c0-0.938,0.089-1.693,0.269-2.266s0.445-1.014,0.799-1.324s0.798-0.466,1.334-0.466
		c0.395,0,0.742,0.085,1.04,0.257s0.544,0.419,0.739,0.742c0.194,0.323,0.347,0.717,0.457,1.181s0.166,1.089,0.166,1.876
		c0,0.932-0.089,1.684-0.267,2.256c-0.177,0.572-0.443,1.015-0.796,1.327c-0.353,0.313-0.8,0.469-1.339,0.469
		c-0.71,0-1.268-0.274-1.673-0.823C25.552,36.05,25.31,34.974,25.31,33.482z M26.239,33.482c0,1.304,0.142,2.171,0.425,2.603
		c0.283,0.432,0.632,0.647,1.047,0.647s0.765-0.217,1.048-0.65c0.283-0.433,0.424-1.3,0.424-2.6c0-1.307-0.142-2.175-0.424-2.604
		c-0.283-0.43-0.636-0.645-1.058-0.645c-0.416,0-0.747,0.189-0.995,0.568C26.395,31.286,26.239,32.18,26.239,33.482z"/>
	<path fill="#A37C00" d="M31.032,33.482c0-0.938,0.089-1.693,0.269-2.266s0.445-1.014,0.799-1.324s0.798-0.466,1.334-0.466
		c0.395,0,0.742,0.085,1.04,0.257s0.544,0.419,0.739,0.742c0.194,0.323,0.347,0.717,0.457,1.181s0.166,1.089,0.166,1.876
		c0,0.932-0.089,1.684-0.267,2.256c-0.177,0.572-0.443,1.015-0.796,1.327c-0.353,0.313-0.8,0.469-1.339,0.469
		c-0.71,0-1.268-0.274-1.673-0.823C31.275,36.05,31.032,34.974,31.032,33.482z M31.961,33.482c0,1.304,0.142,2.171,0.425,2.603
		c0.283,0.432,0.632,0.647,1.047,0.647s0.765-0.217,1.048-0.65c0.283-0.433,0.424-1.3,0.424-2.6c0-1.307-0.142-2.175-0.424-2.604
		c-0.283-0.43-0.636-0.645-1.058-0.645c-0.416,0-0.747,0.189-0.995,0.568C32.117,31.286,31.961,32.18,31.961,33.482z"/>
</g>
<g>
	<path fill="#A37C00" d="M13.574,23.156h0.892v2.58c0,0.409,0.011,0.675,0.033,0.796c0.038,0.195,0.129,0.352,0.273,0.47
		c0.144,0.118,0.34,0.177,0.589,0.177c0.253,0,0.444-0.056,0.573-0.167c0.128-0.111,0.206-0.249,0.232-0.411
		s0.039-0.432,0.039-0.809v-2.636h0.893v2.502c0,0.572-0.024,0.976-0.072,1.212c-0.048,0.236-0.137,0.436-0.267,0.598
		c-0.129,0.163-0.303,0.292-0.52,0.389c-0.217,0.097-0.5,0.145-0.85,0.145c-0.422,0-0.742-0.053-0.96-0.157
		c-0.218-0.105-0.391-0.242-0.517-0.409c-0.126-0.168-0.21-0.345-0.25-0.528c-0.059-0.273-0.087-0.676-0.087-1.209V23.156z"/>
	<path fill="#A37C00" d="M20.715,24.329l-0.818,0.098c-0.02-0.182-0.072-0.316-0.156-0.402c-0.084-0.087-0.194-0.13-0.328-0.13
		c-0.179,0-0.33,0.086-0.453,0.26c-0.123,0.173-0.201,0.533-0.233,1.08c0.21-0.269,0.472-0.402,0.785-0.402
		c0.353,0,0.656,0.145,0.907,0.435c0.252,0.29,0.378,0.664,0.378,1.122c0,0.486-0.132,0.877-0.397,1.171
		c-0.265,0.294-0.605,0.441-1.02,0.441c-0.445,0-0.812-0.187-1.099-0.56c-0.287-0.373-0.43-0.984-0.43-1.834
		c0-0.872,0.149-1.5,0.448-1.885c0.299-0.385,0.688-0.577,1.165-0.577c0.335,0,0.612,0.101,0.832,0.303
		C20.515,23.65,20.655,23.944,20.715,24.329z M18.799,26.317c0,0.297,0.063,0.525,0.189,0.687s0.271,0.241,0.433,0.241
		c0.157,0,0.287-0.065,0.391-0.198c0.104-0.132,0.157-0.348,0.157-0.648c0-0.309-0.056-0.535-0.168-0.68
		c-0.112-0.144-0.253-0.216-0.421-0.216c-0.163,0-0.3,0.069-0.412,0.206C18.854,25.847,18.799,26.05,18.799,26.317z"/>
	<path fill="#A37C00" d="M22.708,23.146c0.427,0,0.761,0.164,1.002,0.492c0.287,0.39,0.43,1.035,0.43,1.937
		c0,0.9-0.145,1.547-0.433,1.94c-0.239,0.324-0.572,0.486-0.999,0.486c-0.43,0-0.775-0.178-1.039-0.533
		c-0.263-0.356-0.394-0.99-0.394-1.902c0-0.896,0.145-1.54,0.433-1.934C21.947,23.308,22.28,23.146,22.708,23.146z M22.708,23.901
		c-0.103,0-0.194,0.035-0.274,0.104c-0.081,0.07-0.143,0.196-0.187,0.378c-0.059,0.236-0.087,0.633-0.087,1.19
		c0,0.559,0.026,0.941,0.078,1.15s0.118,0.348,0.197,0.417c0.079,0.069,0.17,0.104,0.272,0.104c0.102,0,0.193-0.035,0.273-0.105
		c0.081-0.07,0.143-0.196,0.187-0.378c0.058-0.233,0.087-0.629,0.087-1.188c0-0.558-0.026-0.94-0.078-1.149
		s-0.118-0.349-0.197-0.419C22.901,23.937,22.81,23.901,22.708,23.901z"/>
	<path fill="#A37C00" d="M28.871,27.92h-0.969l-0.385-1.08h-1.763l-0.364,1.08h-0.945l1.718-4.755h0.942L28.871,27.92z
		 M27.231,26.038l-0.608-1.764l-0.596,1.764H27.231z"/>
</g>
</svg>
