<?xml version="1.0" encoding="utf-8"?>
<!-- Generator: Adobe Illustrator 18.0.0, SVG Export Plug-In . SVG Version: 6.00 Build 0)  -->
<!DOCTYPE svg PUBLIC "-//W3C//DTD SVG 1.1//EN" "http://www.w3.org/Graphics/SVG/1.1/DTD/svg11.dtd">
<svg version="1.1" id="图层_1" xmlns="http://www.w3.org/2000/svg" xmlns:xlink="http://www.w3.org/1999/xlink" x="0px" y="0px"
	 width="48px" height="48px" viewBox="0 0 48 48" enable-background="new 0 0 48 48" xml:space="preserve">
<g>
	<path fill="#FFFFFF" d="M3.65,46.796c-1.371,0-2.487-1.115-2.487-2.487V3.609c0-1.372,1.116-2.487,2.487-2.487h40.7
		c1.371,0,2.487,1.116,2.487,2.487v40.699c0,1.372-1.116,2.487-2.487,2.487H3.65z"/>
	<path fill="#AFAFAF" d="M44.35,1.744c1.028,0,1.865,0.837,1.865,1.865v40.7c0,1.028-0.837,1.865-1.865,1.865H3.65
		c-1.028,0-1.865-0.837-1.865-1.865v-40.7c0-1.028,0.837-1.865,1.865-1.865H44.35 M44.35,0.501H3.65
		c-1.717,0-3.109,1.392-3.109,3.109v40.7c0,1.717,1.392,3.109,3.109,3.109h40.7c1.717,0,3.109-1.392,3.109-3.109v-40.7
		C47.459,1.892,46.067,0.501,44.35,0.501L44.35,0.501z"/>
</g>
<g>
	<linearGradient id="SVGID_1_" gradientUnits="userSpaceOnUse" x1="23.9993" y1="44.7373" x2="23.9993" y2="3.1807">
		<stop  offset="0" style="stop-color:#F1E821"/>
		<stop  offset="1" style="stop-color:#D6B900"/>
	</linearGradient>
	<path fill="url(#SVGID_1_)" d="M3.65,44.737c-0.236,0-0.429-0.193-0.429-0.429V3.609c0-0.236,0.193-0.429,0.429-0.429h40.701
		c0.236,0,0.427,0.193,0.427,0.429v40.699c0,0.236-0.191,0.429-0.427,0.429H3.65z"/>
</g>
<g>
	<g>
		<g>
			<polygon fill="#A37C00" points="9.709,10.521 13.393,7.477 13.393,13.565 			"/>
			<path fill="#A37C00" d="M23.389,17.935c-1.876-2.215-3.077-3.748-3.672-4.682c-0.806-1.268-1.428-1.497-1.639-1.511l-5.58,0.032
				V9.188h5.191c0.705-0.103,2.478-0.043,4.211,2.676c0.361,0.566,1.253,1.791,3.463,4.401L23.389,17.935z"/>
		</g>
		<g>
			<polygon fill="#A37C00" points="38.29,22.509 34.606,25.554 34.606,19.465 			"/>
			<path fill="#A37C00" d="M24.61,15.095c1.876,2.215,3.077,3.748,3.672,4.682c0.806,1.268,1.428,1.497,1.639,1.511l5.58-0.032
				v2.586h-5.191c-0.705,0.103-2.478,0.043-4.211-2.676c-0.361-0.566-1.253-1.791-3.463-4.401L24.61,15.095z"/>
		</g>
	</g>
	<g>
		<g>
			<polygon fill="#A37C00" points="38.29,10.521 34.606,7.477 34.606,13.565 			"/>
			<path fill="#A37C00" d="M24.61,17.935c1.876-2.215,3.077-3.748,3.672-4.682c0.806-1.268,1.428-1.497,1.639-1.511l5.58,0.032
				V9.188h-5.191c-0.705-0.103-2.478-0.043-4.211,2.676c-0.361,0.566-1.253,1.791-3.463,4.401L24.61,17.935z"/>
		</g>
		<g>
			<polygon fill="#A37C00" points="9.709,22.509 13.393,25.554 13.393,19.465 			"/>
			<path fill="#A37C00" d="M23.389,15.095c-1.876,2.215-3.077,3.748-3.672,4.682c-0.806,1.268-1.428,1.497-1.639,1.511l-5.58-0.032
				v2.586h5.191c0.705,0.103,2.478,0.043,4.211-2.676c0.361-0.566,1.253-1.791,3.463-4.401L23.389,15.095z"/>
		</g>
	</g>
</g>
<g>
	<path fill="#A37C00" d="M8.72,43.268v-9.329h5.839v1.101H9.866v2.89h4.062v1.101H9.866v4.238H8.72z"/>
	<path fill="#A37C00" d="M21.129,36.223l-1.057,0.09c-0.094-0.45-0.229-0.776-0.401-0.98c-0.288-0.326-0.642-0.49-1.063-0.49
		c-0.339,0-0.636,0.103-0.892,0.306c-0.334,0.264-0.598,0.647-0.791,1.152s-0.293,1.224-0.301,2.157
		c0.256-0.42,0.569-0.732,0.939-0.936c0.37-0.204,0.757-0.306,1.163-0.306c0.708,0,1.312,0.281,1.81,0.843
		c0.498,0.563,0.747,1.289,0.747,2.18c0,0.586-0.117,1.13-0.352,1.633c-0.234,0.502-0.556,0.888-0.965,1.154
		c-0.409,0.268-0.874,0.401-1.393,0.401c-0.886,0-1.608-0.352-2.167-1.054c-0.559-0.701-0.838-1.858-0.838-3.471
		c0-1.803,0.309-3.114,0.927-3.933c0.539-0.713,1.265-1.069,2.179-1.069c0.681,0,1.238,0.206,1.673,0.617
		C20.782,34.93,21.043,35.498,21.129,36.223z M16.791,40.245c0,0.395,0.078,0.771,0.233,1.133c0.156,0.36,0.373,0.635,0.652,0.824
		c0.279,0.188,0.573,0.282,0.88,0.282c0.449,0,0.834-0.194,1.157-0.585s0.484-0.921,0.484-1.591c0-0.645-0.16-1.153-0.478-1.524
		c-0.319-0.371-0.72-0.557-1.205-0.557c-0.48,0-0.888,0.186-1.222,0.557S16.791,39.643,16.791,40.245z"/>
	<path fill="#A37C00" d="M22.34,38.667c0-1.104,0.105-1.991,0.316-2.663c0.21-0.673,0.523-1.191,0.938-1.557
		c0.415-0.364,0.938-0.547,1.567-0.547c0.464,0,0.872,0.101,1.222,0.303c0.35,0.201,0.639,0.492,0.868,0.871
		c0.228,0.38,0.407,0.843,0.537,1.388s0.195,1.28,0.195,2.205c0,1.095-0.104,1.978-0.313,2.65c-0.208,0.672-0.521,1.192-0.936,1.559
		c-0.415,0.367-0.939,0.551-1.573,0.551c-0.834,0-1.49-0.322-1.966-0.968C22.625,41.683,22.34,40.419,22.34,38.667z M23.432,38.667
		c0,1.531,0.167,2.551,0.499,3.058s0.743,0.76,1.231,0.76c0.488,0,0.898-0.254,1.231-0.763c0.333-0.51,0.499-1.527,0.499-3.055
		c0-1.536-0.166-2.557-0.499-3.062s-0.747-0.757-1.243-0.757c-0.488,0-0.878,0.223-1.169,0.668
		C23.615,36.085,23.432,37.136,23.432,38.667z"/>
	<path fill="#A37C00" d="M29.064,38.667c0-1.104,0.105-1.991,0.316-2.663c0.21-0.673,0.523-1.191,0.938-1.557
		c0.415-0.364,0.938-0.547,1.567-0.547c0.464,0,0.872,0.101,1.222,0.303c0.35,0.201,0.639,0.492,0.868,0.871
		c0.228,0.38,0.407,0.843,0.537,1.388s0.195,1.28,0.195,2.205c0,1.095-0.104,1.978-0.313,2.65c-0.208,0.672-0.521,1.192-0.936,1.559
		c-0.415,0.367-0.939,0.551-1.573,0.551c-0.834,0-1.49-0.322-1.966-0.968C29.349,41.683,29.064,40.419,29.064,38.667z
		 M30.156,38.667c0,1.531,0.167,2.551,0.499,3.058s0.743,0.76,1.231,0.76c0.488,0,0.898-0.254,1.231-0.763
		c0.333-0.51,0.499-1.527,0.499-3.055c0-1.536-0.166-2.557-0.499-3.062s-0.747-0.757-1.243-0.757c-0.488,0-0.878,0.223-1.169,0.668
		C30.339,36.085,30.156,37.136,30.156,38.667z"/>
	<path fill="#A37C00" d="M35.788,38.667c0-1.104,0.105-1.991,0.316-2.663c0.21-0.673,0.523-1.191,0.938-1.557
		c0.415-0.364,0.938-0.547,1.567-0.547c0.464,0,0.872,0.101,1.222,0.303c0.35,0.201,0.639,0.492,0.868,0.871
		c0.228,0.38,0.407,0.843,0.537,1.388s0.195,1.28,0.195,2.205c0,1.095-0.104,1.978-0.313,2.65c-0.208,0.672-0.521,1.192-0.936,1.559
		c-0.415,0.367-0.939,0.551-1.573,0.551c-0.834,0-1.49-0.322-1.966-0.968C36.073,41.683,35.788,40.419,35.788,38.667z M36.88,38.667
		c0,1.531,0.167,2.551,0.499,3.058s0.743,0.76,1.231,0.76c0.488,0,0.898-0.254,1.231-0.763c0.333-0.51,0.499-1.527,0.499-3.055
		c0-1.536-0.166-2.557-0.499-3.062s-0.747-0.757-1.243-0.757c-0.488,0-0.878,0.223-1.169,0.668
		C37.063,36.085,36.88,37.136,36.88,38.667z"/>
</g>
<g>
	<path fill="#A37C00" d="M17.868,26.533h1.049v3.032c0,0.48,0.013,0.793,0.039,0.936c0.045,0.229,0.152,0.412,0.321,0.551
		c0.169,0.14,0.399,0.209,0.692,0.209c0.298,0,0.522-0.066,0.673-0.197c0.151-0.131,0.242-0.292,0.273-0.482
		c0.031-0.191,0.046-0.508,0.046-0.951v-3.097h1.049v2.94c0,0.672-0.028,1.146-0.085,1.424c-0.057,0.277-0.162,0.512-0.313,0.703
		c-0.152,0.19-0.356,0.343-0.611,0.456s-0.588,0.17-0.999,0.17c-0.496,0-0.872-0.062-1.128-0.186
		c-0.256-0.123-0.458-0.283-0.607-0.481c-0.149-0.196-0.247-0.403-0.294-0.62c-0.069-0.32-0.103-0.794-0.103-1.42V26.533z"/>
	<path fill="#A37C00" d="M22.859,30.646l0.963-0.126c0.031,0.265,0.113,0.467,0.248,0.607c0.134,0.14,0.297,0.21,0.489,0.21
		c0.205,0,0.378-0.084,0.519-0.252c0.141-0.168,0.211-0.395,0.211-0.68c0-0.27-0.067-0.483-0.202-0.642
		c-0.135-0.158-0.299-0.236-0.493-0.236c-0.127,0-0.28,0.026-0.457,0.08l0.11-0.875c0.27,0.008,0.475-0.055,0.616-0.188
		c0.142-0.134,0.213-0.312,0.213-0.533c0-0.188-0.052-0.338-0.156-0.45c-0.104-0.112-0.242-0.168-0.415-0.168
		c-0.17,0-0.315,0.063-0.436,0.19c-0.121,0.128-0.194,0.313-0.22,0.558l-0.917-0.168c0.063-0.338,0.16-0.608,0.289-0.812
		c0.129-0.202,0.308-0.361,0.539-0.477c0.23-0.116,0.488-0.174,0.774-0.174c0.489,0,0.881,0.168,1.176,0.504
		c0.243,0.274,0.365,0.585,0.365,0.932c0,0.491-0.249,0.883-0.747,1.176c0.297,0.068,0.535,0.223,0.714,0.462
		c0.178,0.239,0.267,0.528,0.267,0.867c0,0.491-0.167,0.91-0.5,1.256c-0.333,0.347-0.747,0.52-1.243,0.52
		c-0.47,0-0.859-0.146-1.169-0.438C23.088,31.498,22.909,31.116,22.859,30.646z"/>
	<path fill="#A37C00" d="M28.612,26.511c0.503,0,0.896,0.193,1.18,0.58c0.337,0.458,0.506,1.218,0.506,2.279
		c0,1.06-0.17,1.82-0.51,2.283c-0.281,0.382-0.673,0.573-1.176,0.573c-0.505,0-0.913-0.21-1.222-0.628
		c-0.309-0.419-0.464-1.166-0.464-2.239c0-1.055,0.17-1.813,0.51-2.276C27.717,26.701,28.109,26.511,28.612,26.511z M28.612,27.4
		c-0.121,0-0.228,0.041-0.322,0.124c-0.095,0.083-0.168,0.23-0.22,0.444c-0.068,0.277-0.103,0.745-0.103,1.401
		c0,0.657,0.03,1.108,0.092,1.354c0.062,0.246,0.139,0.409,0.232,0.491c0.093,0.081,0.2,0.122,0.321,0.122s0.228-0.042,0.322-0.124
		c0.094-0.083,0.167-0.231,0.22-0.445c0.068-0.274,0.103-0.74,0.103-1.397c0-0.656-0.031-1.107-0.092-1.354
		c-0.062-0.245-0.139-0.409-0.232-0.492S28.732,27.4,28.612,27.4z"/>
</g>
</svg>
