<?xml version="1.0" encoding="utf-8"?>
<!-- Generator: Adobe Illustrator 18.0.0, SVG Export Plug-In . SVG Version: 6.00 Build 0)  -->
<!DOCTYPE svg PUBLIC "-//W3C//DTD SVG 1.1//EN" "http://www.w3.org/Graphics/SVG/1.1/DTD/svg11.dtd">
<svg version="1.1" id="图层_1" xmlns="http://www.w3.org/2000/svg" xmlns:xlink="http://www.w3.org/1999/xlink" x="0px" y="0px"
	 width="42px" height="42px" viewBox="0 0 42 42" enable-background="new 0 0 42 42" xml:space="preserve">
<g>
	<path fill="#FFFFFF" d="M3.711,40.333c-1.165,0-2.113-0.948-2.113-2.113V3.641c0-1.165,0.948-2.113,2.113-2.113h34.578
		c1.165,0,2.113,0.948,2.113,2.113V38.22c0,1.165-0.948,2.113-2.113,2.113H3.711z"/>
	<path fill="#AFAFAF" d="M38.289,2.056c0.874,0,1.585,0.711,1.585,1.585V38.22c0,0.874-0.711,1.585-1.585,1.585H3.711
		c-0.874,0-1.585-0.711-1.585-1.585V3.641c0-0.874,0.711-1.585,1.585-1.585H38.289 M38.289,1H3.711C2.252,1,1.07,2.182,1.07,3.641
		V38.22c0,1.459,1.182,2.641,2.641,2.641h34.579c1.459,0,2.641-1.182,2.641-2.641V3.641C40.93,2.182,39.748,1,38.289,1L38.289,1z"/>
</g>
<g>
	<linearGradient id="SVGID_1_" gradientUnits="userSpaceOnUse" x1="20.9994" y1="38.5835" x2="20.9994" y2="3.2771">
		<stop  offset="0" style="stop-color:#00AEF9"/>
		<stop  offset="1" style="stop-color:#0092E1"/>
	</linearGradient>
	<path fill="url(#SVGID_1_)" d="M3.71,38.583c-0.2,0-0.364-0.164-0.364-0.364V3.641c0-0.2,0.164-0.364,0.364-0.364H38.29
		c0.2,0,0.363,0.164,0.363,0.364v34.578c0,0.2-0.163,0.364-0.363,0.364H3.71z"/>
</g>
<g>
	<g>
		<g>
			<polygon fill="#F5F5F5" points="8.858,9.513 11.988,6.927 11.988,12.099 			"/>
			<path fill="#F5F5F5" d="M20.481,15.813c-1.594-1.882-2.614-3.184-3.12-3.978c-0.685-1.077-1.214-1.272-1.393-1.284l-4.741,0.028
				V8.381h4.41c0.599-0.087,2.105-0.037,3.578,2.274c0.306,0.481,1.065,1.522,2.942,3.739L20.481,15.813z"/>
		</g>
		<g>
			<polygon fill="#F5F5F5" points="33.14,19.699 30.01,22.285 30.01,17.113 			"/>
			<path fill="#F5F5F5" d="M21.518,13.399c1.594,1.882,2.614,3.184,3.12,3.978c0.685,1.077,1.214,1.272,1.393,1.284l4.741-0.028
				v2.197h-4.41c-0.599,0.087-2.105,0.037-3.578-2.274c-0.306-0.481-1.065-1.522-2.942-3.739L21.518,13.399z"/>
		</g>
	</g>
	<g>
		<g>
			<polygon fill="#F5F5F5" points="33.14,9.513 30.01,6.927 30.01,12.099 			"/>
			<path fill="#F5F5F5" d="M21.518,15.813c1.594-1.882,2.614-3.184,3.12-3.978c0.685-1.077,1.214-1.272,1.393-1.284l4.741,0.028
				V8.381h-4.41c-0.599-0.087-2.105-0.037-3.578,2.274c-0.306,0.481-1.065,1.522-2.942,3.739L21.518,15.813z"/>
		</g>
		<g>
			<polygon fill="#F5F5F5" points="8.858,19.699 11.988,22.285 11.988,17.113 			"/>
			<path fill="#F5F5F5" d="M20.481,13.399c-1.594,1.882-2.614,3.184-3.12,3.978c-0.685,1.077-1.214,1.272-1.393,1.284l-4.741-0.028
				v2.197h4.41c0.599,0.087,2.105,0.037,3.578-2.274c0.306-0.481,1.065-1.522,2.942-3.739L20.481,13.399z"/>
		</g>
	</g>
</g>
<g>
	<path fill="#FFFFFF" d="M7.28,37.405v-7.926h4.96v0.935H8.253v2.455h3.451v0.936H8.253v3.601H7.28z"/>
	<path fill="#FFFFFF" d="M17.823,31.42l-0.898,0.076c-0.08-0.382-0.193-0.66-0.341-0.833c-0.244-0.278-0.545-0.417-0.902-0.417
		c-0.288,0-0.54,0.086-0.758,0.26c-0.284,0.223-0.509,0.549-0.672,0.979c-0.164,0.429-0.249,1.04-0.256,1.833
		c0.217-0.357,0.483-0.622,0.797-0.794c0.314-0.173,0.645-0.26,0.988-0.26c0.603,0,1.114,0.239,1.537,0.716
		c0.424,0.478,0.635,1.095,0.635,1.852c0,0.497-0.1,0.959-0.298,1.387c-0.199,0.427-0.473,0.754-0.82,0.981
		s-0.742,0.341-1.184,0.341c-0.753,0-1.366-0.298-1.841-0.895c-0.475-0.596-0.713-1.58-0.713-2.949c0-1.532,0.263-2.646,0.788-3.341
		c0.458-0.606,1.075-0.909,1.851-0.909c0.578,0,1.053,0.175,1.422,0.524S17.749,30.804,17.823,31.42z M14.137,34.837
		c0,0.335,0.065,0.656,0.198,0.962c0.132,0.307,0.316,0.54,0.554,0.7c0.237,0.161,0.486,0.241,0.747,0.241
		c0.382,0,0.709-0.166,0.983-0.498c0.274-0.332,0.411-0.782,0.411-1.352c0-0.548-0.136-0.979-0.406-1.295
		c-0.271-0.315-0.612-0.473-1.023-0.473c-0.407,0-0.754,0.158-1.038,0.473C14.278,33.911,14.137,34.325,14.137,34.837z"/>
	<path fill="#FFFFFF" d="M18.852,33.496c0-0.938,0.089-1.691,0.268-2.263s0.445-1.012,0.798-1.322s0.797-0.465,1.332-0.465
		c0.395,0,0.74,0.086,1.038,0.257c0.297,0.171,0.543,0.418,0.737,0.741c0.193,0.323,0.346,0.716,0.456,1.179
		c0.11,0.463,0.166,1.087,0.166,1.874c0,0.93-0.089,1.68-0.267,2.251c-0.177,0.571-0.441,1.013-0.795,1.325
		c-0.353,0.312-0.798,0.468-1.336,0.468c-0.709,0-1.266-0.274-1.671-0.822C19.094,36.059,18.852,34.984,18.852,33.496z
		 M19.779,33.496c0,1.301,0.141,2.167,0.424,2.598c0.282,0.431,0.631,0.646,1.046,0.646c0.414,0,0.763-0.216,1.045-0.649
		c0.283-0.432,0.424-1.297,0.424-2.595c0-1.305-0.141-2.172-0.424-2.601c-0.282-0.429-0.634-0.644-1.056-0.644
		c-0.414,0-0.745,0.189-0.993,0.568C19.935,31.303,19.779,32.195,19.779,33.496z"/>
	<path fill="#FFFFFF" d="M24.564,33.496c0-0.938,0.089-1.691,0.268-2.263s0.445-1.012,0.798-1.322s0.797-0.465,1.332-0.465
		c0.395,0,0.74,0.086,1.038,0.257c0.297,0.171,0.543,0.418,0.737,0.741c0.193,0.323,0.346,0.716,0.456,1.179
		c0.11,0.463,0.166,1.087,0.166,1.874c0,0.93-0.089,1.68-0.267,2.251c-0.177,0.571-0.441,1.013-0.795,1.325
		c-0.353,0.312-0.798,0.468-1.336,0.468c-0.709,0-1.266-0.274-1.671-0.822C24.807,36.059,24.564,34.984,24.564,33.496z
		 M25.492,33.496c0,1.301,0.141,2.167,0.424,2.598c0.282,0.431,0.631,0.646,1.046,0.646c0.414,0,0.763-0.216,1.045-0.649
		c0.283-0.432,0.424-1.297,0.424-2.595c0-1.305-0.141-2.172-0.424-2.601c-0.282-0.429-0.634-0.644-1.056-0.644
		c-0.414,0-0.745,0.189-0.993,0.568C25.647,31.303,25.492,32.195,25.492,33.496z"/>
	<path fill="#FFFFFF" d="M30.277,33.496c0-0.938,0.089-1.691,0.268-2.263s0.445-1.012,0.798-1.322s0.797-0.465,1.332-0.465
		c0.395,0,0.74,0.086,1.038,0.257c0.297,0.171,0.543,0.418,0.737,0.741c0.193,0.323,0.346,0.716,0.456,1.179
		c0.11,0.463,0.166,1.087,0.166,1.874c0,0.93-0.089,1.68-0.267,2.251c-0.177,0.571-0.441,1.013-0.795,1.325
		c-0.353,0.312-0.798,0.468-1.336,0.468c-0.709,0-1.266-0.274-1.671-0.822C30.52,36.059,30.277,34.984,30.277,33.496z
		 M31.205,33.496c0,1.301,0.141,2.167,0.424,2.598c0.282,0.431,0.631,0.646,1.046,0.646c0.414,0,0.763-0.216,1.045-0.649
		c0.283-0.432,0.424-1.297,0.424-2.595c0-1.305-0.141-2.172-0.424-2.601c-0.282-0.429-0.634-0.644-1.056-0.644
		c-0.414,0-0.745,0.189-0.993,0.568C31.36,31.303,31.205,32.195,31.205,33.496z"/>
</g>
<g>
	<path fill="#FFFFFF" d="M13.576,23.188h0.891v2.576c0,0.409,0.011,0.673,0.033,0.794c0.038,0.195,0.129,0.351,0.272,0.469
		c0.144,0.118,0.34,0.177,0.588,0.177c0.253,0,0.443-0.056,0.572-0.167c0.128-0.111,0.205-0.248,0.231-0.41s0.039-0.432,0.039-0.808
		v-2.631h0.891v2.498c0,0.571-0.023,0.974-0.072,1.21c-0.048,0.236-0.137,0.435-0.266,0.597c-0.13,0.162-0.303,0.291-0.52,0.387
		s-0.499,0.145-0.849,0.145c-0.421,0-0.74-0.052-0.958-0.157s-0.39-0.241-0.517-0.409c-0.126-0.167-0.21-0.343-0.25-0.527
		c-0.058-0.272-0.087-0.675-0.087-1.207V23.188z"/>
	<path fill="#FFFFFF" d="M20.712,24.353l-0.818,0.097c-0.021-0.182-0.072-0.316-0.157-0.402c-0.084-0.086-0.193-0.13-0.328-0.13
		c-0.178,0-0.329,0.087-0.452,0.26c-0.124,0.173-0.201,0.533-0.233,1.08c0.211-0.268,0.473-0.402,0.785-0.402
		c0.354,0,0.655,0.145,0.907,0.435c0.252,0.29,0.378,0.664,0.378,1.122c0,0.487-0.133,0.877-0.397,1.171
		c-0.265,0.294-0.604,0.441-1.02,0.441c-0.446,0-0.812-0.187-1.099-0.56s-0.431-0.984-0.431-1.834c0-0.872,0.149-1.5,0.448-1.885
		c0.299-0.385,0.688-0.577,1.165-0.577c0.335,0,0.612,0.101,0.832,0.303S20.651,23.968,20.712,24.353z M18.795,26.341
		c0,0.296,0.063,0.525,0.189,0.686s0.271,0.242,0.434,0.242c0.156,0,0.286-0.066,0.391-0.198s0.157-0.348,0.157-0.649
		c0-0.309-0.057-0.536-0.169-0.68c-0.112-0.144-0.253-0.215-0.421-0.215c-0.163,0-0.301,0.068-0.413,0.206
		C18.851,25.871,18.795,26.073,18.795,26.341z"/>
	<path fill="#FFFFFF" d="M22.704,23.169c0.427,0,0.762,0.164,1.002,0.493c0.287,0.389,0.431,1.035,0.431,1.937
		c0,0.899-0.145,1.546-0.434,1.94c-0.239,0.324-0.572,0.486-0.999,0.486c-0.43,0-0.775-0.178-1.038-0.534
		c-0.263-0.355-0.395-0.99-0.395-1.902c0-0.896,0.145-1.54,0.434-1.934C21.943,23.331,22.276,23.169,22.704,23.169z M22.704,23.925
		c-0.103,0-0.193,0.035-0.274,0.105c-0.08,0.07-0.142,0.196-0.187,0.378c-0.058,0.235-0.087,0.632-0.087,1.19
		c0,0.558,0.026,0.941,0.078,1.15c0.053,0.208,0.118,0.348,0.197,0.417c0.079,0.069,0.17,0.104,0.272,0.104s0.193-0.035,0.273-0.105
		s0.143-0.196,0.187-0.378c0.059-0.233,0.088-0.629,0.088-1.187c0-0.558-0.026-0.941-0.078-1.15
		c-0.053-0.209-0.118-0.348-0.197-0.418S22.807,23.925,22.704,23.925z"/>
	<path fill="#FFFFFF" d="M28.867,27.944h-0.969l-0.386-1.08H25.75l-0.364,1.08H24.44l1.719-4.755h0.941L28.867,27.944z
		 M27.228,26.063l-0.608-1.765l-0.596,1.765H27.228z"/>
</g>
</svg>
