<?xml version="1.0" encoding="utf-8"?>
<!-- Generator: Adobe Illustrator 18.0.0, SVG Export Plug-In . SVG Version: 6.00 Build 0)  -->
<!DOCTYPE svg PUBLIC "-//W3C//DTD SVG 1.1//EN" "http://www.w3.org/Graphics/SVG/1.1/DTD/svg11.dtd">
<svg version="1.1" id="图层_1" xmlns="http://www.w3.org/2000/svg" xmlns:xlink="http://www.w3.org/1999/xlink" x="0px" y="0px"
	 width="36px" height="36px" viewBox="0 0 36 36" enable-background="new 0 0 36 36" xml:space="preserve">
<g>
	<path fill="#FFFFFF" d="M2.846,34.976c-1.021,0-1.852-0.831-1.852-1.853V2.815c0-1.021,0.831-1.852,1.852-1.852h30.309
		c1.021,0,1.852,0.831,1.852,1.852v30.308c0,1.021-0.831,1.853-1.852,1.853H2.846z"/>
	<path fill="#AFAFAF" d="M33.154,1.426c0.766,0,1.389,0.623,1.389,1.389v30.308c0,0.766-0.623,1.389-1.389,1.389H2.846
		c-0.766,0-1.389-0.623-1.389-1.389V2.815c0-0.766,0.623-1.389,1.389-1.389H33.154 M33.154,0.5H2.846
		c-1.279,0-2.315,1.036-2.315,2.315v30.308c0,1.279,1.036,2.315,2.315,2.315h30.308c1.279,0,2.315-1.036,2.315-2.315V2.815
		C35.469,1.537,34.433,0.5,33.154,0.5L33.154,0.5z"/>
</g>
<g>
	<linearGradient id="SVGID_1_" gradientUnits="userSpaceOnUse" x1="17.9995" y1="33.4422" x2="17.9995" y2="2.4959">
		<stop  offset="0" style="stop-color:#F1E821"/>
		<stop  offset="1" style="stop-color:#D6B900"/>
	</linearGradient>
	<path fill="url(#SVGID_1_)" d="M2.846,33.442c-0.175,0-0.319-0.144-0.319-0.319V2.815c0-0.175,0.144-0.319,0.319-0.319h30.309
		c0.175,0,0.318,0.144,0.318,0.319v30.308c0,0.175-0.143,0.319-0.318,0.319H2.846z"/>
</g>
<g>
	<g>
		<g>
			<polygon fill="#A37C00" points="7.358,7.962 10.101,5.695 10.101,10.229 			"/>
			<path fill="#A37C00" d="M17.545,13.483c-1.397-1.649-2.291-2.791-2.734-3.487c-0.6-0.944-1.064-1.115-1.221-1.125L9.434,8.896
				V6.97H13.3c0.525-0.077,1.845-0.032,3.136,1.993c0.269,0.422,0.933,1.334,2.579,3.277L17.545,13.483z"/>
		</g>
		<g>
			<polygon fill="#A37C00" points="28.641,16.89 25.898,19.157 25.898,14.623 			"/>
			<path fill="#A37C00" d="M18.454,11.368c1.397,1.649,2.291,2.791,2.734,3.487c0.6,0.944,1.064,1.115,1.221,1.125l4.155-0.024
				v1.926h-3.865c-0.525,0.077-1.845,0.032-3.136-1.993c-0.269-0.422-0.933-1.334-2.579-3.277L18.454,11.368z"/>
		</g>
	</g>
	<g>
		<g>
			<polygon fill="#A37C00" points="28.641,7.962 25.898,5.695 25.898,10.229 			"/>
			<path fill="#A37C00" d="M18.454,13.483c1.397-1.649,2.291-2.791,2.734-3.487c0.6-0.944,1.064-1.115,1.221-1.125l4.155,0.024V6.97
				h-3.865c-0.525-0.077-1.845-0.032-3.136,1.993c-0.269,0.422-0.933,1.334-2.579,3.277L18.454,13.483z"/>
		</g>
		<g>
			<polygon fill="#A37C00" points="7.358,16.89 10.101,19.157 10.101,14.623 			"/>
			<path fill="#A37C00" d="M17.545,11.368c-1.397,1.649-2.291,2.791-2.734,3.487c-0.6,0.944-1.064,1.115-1.221,1.125l-4.155-0.024
				v1.926H13.3c0.525,0.077,1.845,0.032,3.136-1.993c0.269-0.422,0.933-1.334,2.579-3.277L17.545,11.368z"/>
		</g>
	</g>
</g>
<g>
	<path fill="#A37C00" d="M6.622,32.349v-6.947h4.348v0.82H7.474v2.151h3.025v0.819H7.474v3.156H6.622z"/>
	<path fill="#A37C00" d="M15.862,27.103l-0.787,0.066c-0.07-0.335-0.17-0.578-0.299-0.729c-0.214-0.243-0.478-0.365-0.792-0.365
		c-0.252,0-0.473,0.076-0.664,0.228c-0.25,0.196-0.446,0.482-0.589,0.857c-0.144,0.376-0.218,0.912-0.224,1.606
		c0.19-0.313,0.423-0.545,0.699-0.696c0.276-0.151,0.564-0.228,0.866-0.228c0.528,0,0.977,0.21,1.348,0.628
		c0.371,0.419,0.556,0.96,0.556,1.623c0,0.437-0.087,0.842-0.262,1.216s-0.414,0.661-0.719,0.86
		c-0.305,0.198-0.651,0.298-1.038,0.298c-0.659,0-1.197-0.261-1.613-0.784c-0.417-0.522-0.625-1.384-0.625-2.585
		c0-1.343,0.23-2.318,0.69-2.929c0.401-0.53,0.942-0.796,1.622-0.796c0.507,0,0.922,0.153,1.247,0.46
		C15.604,26.14,15.797,26.563,15.862,27.103z M12.631,30.098c0,0.294,0.058,0.575,0.174,0.844c0.116,0.269,0.277,0.473,0.486,0.613
		c0.208,0.141,0.426,0.211,0.655,0.211c0.334,0,0.621-0.146,0.862-0.436c0.24-0.291,0.36-0.686,0.36-1.185
		c0-0.48-0.119-0.859-0.356-1.136s-0.537-0.414-0.897-0.414c-0.357,0-0.661,0.138-0.91,0.414S12.631,29.649,12.631,30.098z"/>
	<path fill="#A37C00" d="M16.763,28.923c0-0.821,0.079-1.482,0.235-1.983s0.39-0.887,0.699-1.159
		c0.309-0.271,0.698-0.407,1.167-0.407c0.346,0,0.649,0.075,0.91,0.226c0.261,0.149,0.476,0.366,0.646,0.648
		c0.17,0.283,0.303,0.628,0.4,1.033c0.097,0.406,0.145,0.953,0.145,1.643c0,0.814-0.078,1.473-0.233,1.974
		c-0.155,0.5-0.387,0.888-0.697,1.161c-0.309,0.272-0.7,0.409-1.171,0.409c-0.622,0-1.109-0.239-1.464-0.72
		C16.976,31.169,16.763,30.228,16.763,28.923z M17.577,28.923c0,1.14,0.124,1.899,0.372,2.276c0.248,0.378,0.553,0.566,0.917,0.566
		s0.669-0.189,0.917-0.568s0.372-1.138,0.372-2.274c0-1.144-0.124-1.903-0.372-2.279s-0.556-0.564-0.925-0.564
		c-0.363,0-0.654,0.166-0.871,0.498C17.713,27,17.577,27.782,17.577,28.923z"/>
	<path fill="#A37C00" d="M21.771,28.923c0-0.821,0.079-1.482,0.235-1.983s0.39-0.887,0.699-1.159
		c0.309-0.271,0.698-0.407,1.167-0.407c0.346,0,0.649,0.075,0.91,0.226c0.261,0.149,0.476,0.366,0.646,0.648
		c0.17,0.283,0.303,0.628,0.4,1.033c0.097,0.406,0.145,0.953,0.145,1.643c0,0.814-0.078,1.473-0.233,1.974
		c-0.155,0.5-0.387,0.888-0.697,1.161c-0.309,0.272-0.7,0.409-1.171,0.409c-0.622,0-1.109-0.239-1.464-0.72
		C21.983,31.169,21.771,30.228,21.771,28.923z M22.584,28.923c0,1.14,0.124,1.899,0.372,2.276c0.248,0.378,0.553,0.566,0.917,0.566
		s0.669-0.189,0.917-0.568s0.372-1.138,0.372-2.274c0-1.144-0.124-1.903-0.372-2.279s-0.556-0.564-0.925-0.564
		c-0.363,0-0.654,0.166-0.871,0.498C22.72,27,22.584,27.782,22.584,28.923z"/>
	<path fill="#A37C00" d="M26.778,28.923c0-0.821,0.079-1.482,0.235-1.983s0.39-0.887,0.699-1.159
		c0.309-0.271,0.698-0.407,1.167-0.407c0.346,0,0.649,0.075,0.91,0.226c0.261,0.149,0.476,0.366,0.646,0.648
		c0.17,0.283,0.303,0.628,0.4,1.033c0.097,0.406,0.145,0.953,0.145,1.643c0,0.814-0.078,1.473-0.233,1.974
		c-0.155,0.5-0.387,0.888-0.697,1.161c-0.309,0.272-0.7,0.409-1.171,0.409c-0.622,0-1.109-0.239-1.464-0.72
		C26.99,31.169,26.778,30.228,26.778,28.923z M27.591,28.923c0,1.14,0.124,1.899,0.372,2.276c0.248,0.378,0.553,0.566,0.917,0.566
		s0.669-0.189,0.917-0.568s0.372-1.138,0.372-2.274c0-1.144-0.124-1.903-0.372-2.279s-0.556-0.564-0.925-0.564
		c-0.363,0-0.654,0.166-0.871,0.498C27.728,27,27.591,27.782,27.591,28.923z"/>
</g>
<g>
	<path fill="#A37C00" d="M13.434,19.886h0.781v2.257c0,0.358,0.01,0.591,0.029,0.697c0.033,0.17,0.113,0.308,0.238,0.41
		c0.126,0.104,0.298,0.155,0.516,0.155c0.221,0,0.388-0.049,0.501-0.146c0.112-0.098,0.18-0.218,0.203-0.359
		c0.023-0.143,0.034-0.378,0.034-0.708v-2.306h0.781v2.189c0,0.5-0.021,0.854-0.063,1.061c-0.042,0.206-0.12,0.381-0.234,0.522
		c-0.113,0.143-0.265,0.256-0.455,0.34c-0.19,0.085-0.438,0.127-0.744,0.127c-0.369,0-0.649-0.046-0.84-0.138
		c-0.191-0.093-0.342-0.212-0.453-0.358c-0.111-0.147-0.184-0.301-0.219-0.462c-0.051-0.239-0.077-0.592-0.077-1.058V19.886z"/>
	<path fill="#A37C00" d="M18.63,24.054v-0.839h-1.583v-0.699l1.678-2.647h0.623v2.645h0.48v0.702h-0.48v0.839H18.63z M18.63,22.513
		v-1.425l-0.889,1.425H18.63z"/>
	<path fill="#A37C00" d="M21.434,19.868c0.375,0,0.667,0.145,0.878,0.433c0.251,0.341,0.377,0.907,0.377,1.697
		c0,0.788-0.126,1.355-0.38,1.7c-0.209,0.284-0.501,0.427-0.875,0.427c-0.376,0-0.68-0.156-0.91-0.468s-0.345-0.868-0.345-1.668
		c0-0.784,0.126-1.35,0.379-1.694C20.768,20.011,21.06,19.868,21.434,19.868z M21.434,20.531c-0.09,0-0.17,0.03-0.24,0.092
		s-0.125,0.172-0.164,0.331c-0.051,0.207-0.076,0.555-0.076,1.044s0.023,0.825,0.068,1.008c0.046,0.183,0.104,0.305,0.173,0.365
		s0.149,0.091,0.239,0.091s0.169-0.03,0.24-0.092c0.07-0.062,0.125-0.172,0.163-0.331c0.051-0.205,0.077-0.552,0.077-1.041
		s-0.023-0.825-0.068-1.008c-0.046-0.183-0.104-0.306-0.173-0.367S21.524,20.531,21.434,20.531z"/>
</g>
</svg>
