<?xml version="1.0" encoding="utf-8"?>
<!-- Generator: Adobe Illustrator 18.0.0, SVG Export Plug-In . SVG Version: 6.00 Build 0)  -->
<!DOCTYPE svg PUBLIC "-//W3C//DTD SVG 1.1//EN" "http://www.w3.org/Graphics/SVG/1.1/DTD/svg11.dtd">
<svg version="1.1" id="图层_1" xmlns="http://www.w3.org/2000/svg" xmlns:xlink="http://www.w3.org/1999/xlink" x="0px" y="0px"
	 width="42px" height="42px" viewBox="0 0 42 42" enable-background="new 0 0 42 42" xml:space="preserve">
<g>
	<path fill="#FFFFFF" d="M3.681,40.4c-1.167,0-2.117-0.949-2.117-2.116V3.646c0-1.167,0.949-2.116,2.117-2.116h34.638
		c1.167,0,2.117,0.949,2.117,2.116v34.639c0,1.167-0.949,2.116-2.117,2.116H3.681z"/>
	<path fill="#AFAFAF" d="M38.319,2.058c0.875,0,1.587,0.712,1.587,1.587v34.638c0,0.875-0.712,1.587-1.587,1.587H3.681
		c-0.875,0-1.587-0.712-1.587-1.587V3.646c0-0.875,0.712-1.587,1.587-1.587H38.319 M38.319,1H3.681C2.22,1,1.035,2.185,1.035,3.646
		v34.638c0,1.461,1.185,2.646,2.646,2.646h34.638c1.461,0,2.646-1.184,2.646-2.646V3.646C40.965,2.185,39.78,1,38.319,1L38.319,1z"
		/>
</g>
<g>
	<linearGradient id="SVGID_1_" gradientUnits="userSpaceOnUse" x1="20.9994" y1="38.6483" x2="20.9994" y2="3.281">
		<stop  offset="0" style="stop-color:#F1E821"/>
		<stop  offset="1" style="stop-color:#D6B900"/>
	</linearGradient>
	<path fill="url(#SVGID_1_)" d="M3.681,38.648c-0.201,0-0.365-0.164-0.365-0.365V3.646c0-0.201,0.164-0.365,0.365-0.365H38.32
		c0.201,0,0.363,0.164,0.363,0.365v34.637c0,0.201-0.163,0.365-0.363,0.365H3.681z"/>
</g>
<g>
	<g>
		<g>
			<polygon fill="#A37C00" points="8.837,9.528 11.973,6.937 11.973,12.118 			"/>
			<path fill="#A37C00" d="M20.48,15.838c-1.596-1.885-2.619-3.19-3.125-3.985c-0.686-1.079-1.216-1.274-1.395-1.286l-4.749,0.028
				V8.394h4.417c0.6-0.087,2.109-0.037,3.584,2.278c0.307,0.482,1.067,1.524,2.947,3.745L20.48,15.838z"/>
		</g>
		<g>
			<polygon fill="#A37C00" points="33.161,19.731 30.026,22.322 30.026,17.14 			"/>
			<path fill="#A37C00" d="M21.519,13.421c1.596,1.885,2.619,3.19,3.125,3.985c0.686,1.079,1.216,1.274,1.395,1.286l4.749-0.028
				v2.201h-4.417c-0.6,0.087-2.109,0.037-3.584-2.278c-0.307-0.482-1.067-1.524-2.947-3.745L21.519,13.421z"/>
		</g>
	</g>
	<g>
		<g>
			<polygon fill="#A37C00" points="33.161,9.528 30.026,6.937 30.026,12.118 			"/>
			<path fill="#A37C00" d="M21.519,15.838c1.596-1.885,2.619-3.19,3.125-3.985c0.686-1.079,1.216-1.274,1.395-1.286l4.749,0.028
				V8.394h-4.417c-0.6-0.087-2.109-0.037-3.584,2.278c-0.307,0.482-1.067,1.524-2.947,3.745L21.519,15.838z"/>
		</g>
		<g>
			<polygon fill="#A37C00" points="8.837,19.731 11.973,22.322 11.973,17.14 			"/>
			<path fill="#A37C00" d="M20.48,13.421c-1.596,1.885-2.619,3.19-3.125,3.985c-0.686,1.079-1.216,1.274-1.395,1.286l-4.749-0.028
				v2.201h4.417c0.6,0.087,2.109,0.037,3.584-2.278c0.307-0.482,1.067-1.524,2.947-3.745L20.48,13.421z"/>
		</g>
	</g>
</g>
<g>
	<path fill="#A37C00" d="M7.996,37.398v-7.939h4.969v0.937H8.971v2.459h3.457v0.938H8.971v3.606H7.996z"/>
	<path fill="#A37C00" d="M18.557,31.403l-0.899,0.075c-0.08-0.382-0.194-0.66-0.341-0.834c-0.245-0.277-0.546-0.417-0.904-0.417
		c-0.289,0-0.541,0.087-0.759,0.261c-0.285,0.224-0.509,0.55-0.673,0.979s-0.25,1.042-0.256,1.836
		c0.218-0.357,0.484-0.622,0.799-0.796c0.315-0.173,0.645-0.26,0.99-0.26c0.603,0,1.116,0.239,1.54,0.718s0.636,1.097,0.636,1.854
		c0,0.498-0.1,0.962-0.299,1.39c-0.2,0.428-0.473,0.755-0.822,0.982c-0.348,0.228-0.744,0.342-1.186,0.342
		c-0.754,0-1.369-0.299-1.844-0.896s-0.713-1.582-0.713-2.954c0-1.535,0.263-2.65,0.789-3.348c0.459-0.606,1.077-0.909,1.854-0.909
		c0.579,0,1.054,0.175,1.424,0.525C18.261,30.302,18.483,30.786,18.557,31.403z M14.864,34.826c0,0.336,0.066,0.657,0.199,0.964
		s0.317,0.541,0.555,0.701c0.238,0.161,0.487,0.241,0.749,0.241c0.382,0,0.71-0.166,0.985-0.498
		c0.274-0.332,0.412-0.784,0.412-1.354c0-0.549-0.135-0.98-0.407-1.297c-0.271-0.315-0.613-0.474-1.025-0.474
		c-0.409,0-0.755,0.158-1.04,0.474C15.006,33.899,14.864,34.313,14.864,34.826z"/>
	<path fill="#A37C00" d="M19.587,33.482c0-0.938,0.089-1.693,0.269-2.266s0.445-1.014,0.799-1.324s0.798-0.466,1.334-0.466
		c0.395,0,0.742,0.085,1.04,0.257s0.544,0.419,0.739,0.742c0.194,0.323,0.347,0.717,0.457,1.181s0.166,1.089,0.166,1.876
		c0,0.932-0.089,1.684-0.267,2.256c-0.177,0.572-0.443,1.015-0.796,1.327c-0.353,0.313-0.8,0.469-1.339,0.469
		c-0.71,0-1.268-0.274-1.673-0.823C19.83,36.05,19.587,34.974,19.587,33.482z M20.516,33.482c0,1.304,0.142,2.171,0.425,2.603
		c0.283,0.432,0.632,0.647,1.047,0.647s0.765-0.217,1.048-0.65c0.283-0.433,0.424-1.3,0.424-2.6c0-1.307-0.142-2.175-0.424-2.604
		c-0.283-0.43-0.636-0.645-1.058-0.645c-0.416,0-0.747,0.189-0.995,0.568C20.672,31.286,20.516,32.18,20.516,33.482z"/>
	<path fill="#A37C00" d="M25.31,33.482c0-0.938,0.089-1.693,0.269-2.266s0.445-1.014,0.799-1.324s0.798-0.466,1.334-0.466
		c0.395,0,0.742,0.085,1.04,0.257s0.544,0.419,0.739,0.742c0.194,0.323,0.347,0.717,0.457,1.181s0.166,1.089,0.166,1.876
		c0,0.932-0.089,1.684-0.267,2.256c-0.177,0.572-0.443,1.015-0.796,1.327c-0.353,0.313-0.8,0.469-1.339,0.469
		c-0.71,0-1.268-0.274-1.673-0.823C25.552,36.05,25.31,34.974,25.31,33.482z M26.239,33.482c0,1.304,0.142,2.171,0.425,2.603
		c0.283,0.432,0.632,0.647,1.047,0.647s0.765-0.217,1.048-0.65c0.283-0.433,0.424-1.3,0.424-2.6c0-1.307-0.142-2.175-0.424-2.604
		c-0.283-0.43-0.636-0.645-1.058-0.645c-0.416,0-0.747,0.189-0.995,0.568C26.395,31.286,26.239,32.18,26.239,33.482z"/>
	<path fill="#A37C00" d="M31.032,33.482c0-0.938,0.089-1.693,0.269-2.266s0.445-1.014,0.799-1.324s0.798-0.466,1.334-0.466
		c0.395,0,0.742,0.085,1.04,0.257s0.544,0.419,0.739,0.742c0.194,0.323,0.347,0.717,0.457,1.181s0.166,1.089,0.166,1.876
		c0,0.932-0.089,1.684-0.267,2.256c-0.177,0.572-0.443,1.015-0.796,1.327c-0.353,0.313-0.8,0.469-1.339,0.469
		c-0.71,0-1.268-0.274-1.673-0.823C31.275,36.05,31.032,34.974,31.032,33.482z M31.961,33.482c0,1.304,0.142,2.171,0.425,2.603
		c0.283,0.432,0.632,0.647,1.047,0.647s0.765-0.217,1.048-0.65c0.283-0.433,0.424-1.3,0.424-2.6c0-1.307-0.142-2.175-0.424-2.604
		c-0.283-0.43-0.636-0.645-1.058-0.645c-0.416,0-0.747,0.189-0.995,0.568C32.117,31.286,31.961,32.18,31.961,33.482z"/>
</g>
<g>
	<path fill="#A37C00" d="M15.782,23.156h0.892v2.58c0,0.409,0.011,0.675,0.033,0.796c0.038,0.195,0.129,0.352,0.273,0.47
		c0.144,0.118,0.34,0.177,0.589,0.177c0.253,0,0.444-0.056,0.573-0.167c0.128-0.111,0.206-0.249,0.232-0.411
		s0.039-0.432,0.039-0.809v-2.636h0.893v2.502c0,0.572-0.024,0.976-0.072,1.212c-0.048,0.236-0.137,0.436-0.267,0.598
		c-0.129,0.163-0.303,0.292-0.52,0.389c-0.217,0.097-0.5,0.145-0.85,0.145c-0.422,0-0.742-0.053-0.96-0.157
		c-0.218-0.105-0.391-0.242-0.517-0.409c-0.126-0.168-0.21-0.345-0.25-0.528c-0.059-0.273-0.087-0.676-0.087-1.209V23.156z"/>
	<path fill="#A37C00" d="M22.92,27.072v0.848h-2.969c0.032-0.32,0.128-0.624,0.29-0.911c0.161-0.287,0.478-0.668,0.952-1.143
		c0.382-0.384,0.616-0.644,0.703-0.78c0.117-0.188,0.175-0.374,0.175-0.559c0-0.203-0.051-0.36-0.152-0.47s-0.242-0.164-0.42-0.164
		c-0.177,0-0.317,0.058-0.422,0.173c-0.104,0.114-0.165,0.305-0.181,0.571l-0.844-0.091c0.05-0.503,0.208-0.863,0.473-1.082
		s0.597-0.328,0.995-0.328c0.436,0,0.779,0.127,1.028,0.38c0.249,0.254,0.374,0.569,0.374,0.946c0,0.214-0.036,0.418-0.107,0.612
		c-0.071,0.193-0.185,0.396-0.339,0.609c-0.103,0.141-0.287,0.343-0.555,0.607c-0.267,0.265-0.437,0.439-0.508,0.526
		s-0.129,0.171-0.173,0.254H22.92z"/>
	<path fill="#A37C00" d="M24.925,23.137c0.428,0,0.763,0.165,1.004,0.494c0.287,0.39,0.431,1.036,0.431,1.939
		c0,0.901-0.145,1.549-0.434,1.943c-0.239,0.325-0.573,0.487-1,0.487c-0.43,0-0.777-0.178-1.04-0.534
		c-0.264-0.356-0.395-0.992-0.395-1.906c0-0.896,0.145-1.542,0.434-1.937C24.163,23.299,24.497,23.137,24.925,23.137z
		 M24.925,23.894c-0.103,0-0.194,0.035-0.274,0.105c-0.081,0.071-0.143,0.197-0.187,0.379c-0.058,0.236-0.087,0.634-0.087,1.192
		c0,0.56,0.026,0.943,0.079,1.152c0.052,0.209,0.118,0.348,0.197,0.417s0.17,0.104,0.273,0.104s0.194-0.035,0.274-0.105
		c0.08-0.07,0.143-0.197,0.187-0.379c0.059-0.233,0.087-0.63,0.087-1.189c0-0.559-0.026-0.942-0.078-1.151s-0.118-0.349-0.198-0.42
		C25.118,23.929,25.027,23.894,24.925,23.894z"/>
</g>
</svg>
