<?xml version="1.0" encoding="utf-8"?>
<!-- Generator: Adobe Illustrator 18.0.0, SVG Export Plug-In . SVG Version: 6.00 Build 0)  -->
<!DOCTYPE svg PUBLIC "-//W3C//DTD SVG 1.1//EN" "http://www.w3.org/Graphics/SVG/1.1/DTD/svg11.dtd">
<svg version="1.1" id="图层_1" xmlns="http://www.w3.org/2000/svg" xmlns:xlink="http://www.w3.org/1999/xlink" x="0px" y="0px"
	 width="36px" height="36px" viewBox="0 0 36 36" enable-background="new 0 0 36 36" xml:space="preserve">
<g>
	<path fill="#FFFFFF" d="M2.872,34.915c-1.02,0-1.849-0.829-1.849-1.849V2.811c0-1.019,0.829-1.848,1.849-1.848h30.256
		c1.02,0,1.849,0.829,1.849,1.848v30.255c0,1.02-0.829,1.849-1.849,1.849H2.872z"/>
	<path fill="#AFAFAF" d="M33.128,1.424c0.765,0,1.387,0.622,1.387,1.387v30.255c0,0.765-0.622,1.387-1.387,1.387H2.872
		c-0.765,0-1.387-0.622-1.387-1.387V2.811c0-0.765,0.622-1.387,1.387-1.387H33.128 M33.128,0.5H2.872
		c-1.276,0-2.311,1.035-2.311,2.311v30.255c0,1.276,1.035,2.311,2.311,2.311h30.255c1.276,0,2.311-1.035,2.311-2.311V2.811
		C35.439,1.534,34.404,0.5,33.128,0.5L33.128,0.5z"/>
</g>
<g>
	<linearGradient id="SVGID_1_" gradientUnits="userSpaceOnUse" x1="17.9995" y1="33.3844" x2="17.9995" y2="2.4922">
		<stop  offset="0" style="stop-color:#00AEF9"/>
		<stop  offset="1" style="stop-color:#0092E1"/>
	</linearGradient>
	<path fill="url(#SVGID_1_)" d="M2.872,33.384c-0.175,0-0.319-0.144-0.319-0.319V2.811c0-0.175,0.144-0.319,0.319-0.319h30.256
		c0.175,0,0.317,0.144,0.317,0.319v30.255c0,0.175-0.142,0.319-0.317,0.319H2.872z"/>
</g>
<g>
	<g>
		<g>
			<polygon fill="#F5F5F5" points="7.376,7.948 10.115,5.686 10.115,10.211 			"/>
			<path fill="#F5F5F5" d="M17.546,13.461c-1.394-1.646-2.287-2.786-2.73-3.48c-0.599-0.943-1.062-1.113-1.219-1.124L9.449,8.881
				V6.958h3.859c0.524-0.076,1.842-0.032,3.131,1.99c0.268,0.421,0.932,1.331,2.574,3.271L17.546,13.461z"/>
		</g>
		<g>
			<polygon fill="#F5F5F5" points="28.623,16.861 25.884,19.124 25.884,14.598 			"/>
			<path fill="#F5F5F5" d="M18.453,11.349c1.394,1.646,2.287,2.786,2.73,3.48c0.599,0.943,1.062,1.113,1.219,1.124l4.148-0.024
				v1.923h-3.859c-0.524,0.076-1.842,0.032-3.131-1.99c-0.268-0.421-0.932-1.331-2.574-3.271L18.453,11.349z"/>
		</g>
	</g>
	<g>
		<g>
			<polygon fill="#F5F5F5" points="28.623,7.948 25.884,5.686 25.884,10.211 			"/>
			<path fill="#F5F5F5" d="M18.453,13.461c1.394-1.646,2.287-2.786,2.73-3.48c0.599-0.943,1.062-1.113,1.219-1.124l4.148,0.024
				V6.958h-3.859c-0.524-0.076-1.842-0.032-3.131,1.99c-0.268,0.421-0.932,1.331-2.574,3.271L18.453,13.461z"/>
		</g>
		<g>
			<polygon fill="#F5F5F5" points="7.376,16.861 10.115,19.124 10.115,14.598 			"/>
			<path fill="#F5F5F5" d="M17.546,11.349c-1.394,1.646-2.287,2.786-2.73,3.48c-0.599,0.943-1.062,1.113-1.219,1.124l-4.148-0.024
				v1.923h3.859c0.524,0.076,1.842,0.032,3.131-1.99c0.268-0.421,0.932-1.331,2.574-3.271L17.546,11.349z"/>
		</g>
	</g>
</g>
<g>
	<path fill="#FFFFFF" d="M5.996,32.354v-6.935h4.34v0.818H6.848v2.148h3.02v0.818h-3.02v3.15H5.996z"/>
	<path fill="#FFFFFF" d="M15.221,27.117l-0.785,0.066c-0.07-0.334-0.17-0.577-0.299-0.729c-0.213-0.243-0.477-0.364-0.79-0.364
		c-0.251,0-0.472,0.076-0.662,0.227c-0.249,0.196-0.445,0.481-0.588,0.856c-0.144,0.375-0.219,0.91-0.225,1.604
		c0.19-0.313,0.423-0.544,0.698-0.695s0.563-0.227,0.864-0.227c0.527,0,0.976,0.209,1.346,0.626c0.37,0.418,0.555,0.958,0.555,1.62
		c0,0.436-0.087,0.84-0.261,1.213c-0.175,0.374-0.413,0.66-0.718,0.859s-0.649,0.298-1.036,0.298c-0.658,0-1.194-0.261-1.61-0.783
		c-0.415-0.522-0.623-1.382-0.623-2.581c0-1.34,0.229-2.315,0.689-2.923c0.4-0.53,0.94-0.795,1.619-0.795
		c0.506,0,0.921,0.153,1.244,0.459C14.963,26.155,15.156,26.578,15.221,27.117z M11.995,30.107c0,0.293,0.058,0.574,0.174,0.842
		c0.115,0.268,0.277,0.472,0.484,0.612c0.208,0.141,0.426,0.21,0.654,0.21c0.333,0,0.62-0.145,0.86-0.435
		c0.239-0.29,0.359-0.684,0.359-1.183c0-0.479-0.118-0.857-0.355-1.133c-0.236-0.276-0.535-0.414-0.896-0.414
		c-0.356,0-0.659,0.138-0.908,0.414C12.12,29.297,11.995,29.659,11.995,30.107z"/>
	<path fill="#FFFFFF" d="M16.12,28.934c0-0.82,0.078-1.479,0.234-1.979c0.157-0.5,0.39-0.885,0.698-1.157
		c0.309-0.271,0.697-0.407,1.165-0.407c0.346,0,0.648,0.075,0.908,0.225c0.261,0.15,0.476,0.366,0.646,0.648
		s0.303,0.626,0.399,1.031s0.145,0.952,0.145,1.639c0,0.814-0.077,1.471-0.232,1.971c-0.155,0.5-0.387,0.886-0.695,1.159
		c-0.309,0.273-0.699,0.409-1.17,0.409c-0.62,0-1.107-0.24-1.461-0.719C16.332,31.176,16.12,30.236,16.12,28.934z M16.932,28.934
		c0,1.139,0.124,1.896,0.371,2.273s0.553,0.565,0.915,0.565c0.363,0,0.668-0.189,0.915-0.567s0.371-1.135,0.371-2.271
		c0-1.142-0.124-1.9-0.371-2.275c-0.247-0.375-0.555-0.563-0.924-0.563c-0.362,0-0.652,0.166-0.869,0.497
		C17.068,27.015,16.932,27.795,16.932,28.934z"/>
	<path fill="#FFFFFF" d="M21.119,28.934c0-0.82,0.078-1.479,0.234-1.979c0.157-0.5,0.39-0.885,0.698-1.157
		c0.309-0.271,0.697-0.407,1.165-0.407c0.346,0,0.648,0.075,0.908,0.225c0.261,0.15,0.476,0.366,0.646,0.648
		s0.303,0.626,0.399,1.031s0.145,0.952,0.145,1.639c0,0.814-0.077,1.471-0.232,1.971c-0.155,0.5-0.387,0.886-0.695,1.159
		c-0.309,0.273-0.699,0.409-1.17,0.409c-0.62,0-1.107-0.24-1.461-0.719C21.331,31.176,21.119,30.236,21.119,28.934z M21.931,28.934
		c0,1.139,0.124,1.896,0.371,2.273s0.553,0.565,0.915,0.565c0.363,0,0.668-0.189,0.915-0.567s0.371-1.135,0.371-2.271
		c0-1.142-0.124-1.9-0.371-2.275c-0.247-0.375-0.555-0.563-0.924-0.563c-0.362,0-0.652,0.166-0.869,0.497
		C22.067,27.015,21.931,27.795,21.931,28.934z"/>
	<path fill="#FFFFFF" d="M26.117,28.934c0-0.82,0.078-1.479,0.234-1.979c0.157-0.5,0.39-0.885,0.698-1.157
		c0.309-0.271,0.697-0.407,1.165-0.407c0.346,0,0.648,0.075,0.908,0.225c0.261,0.15,0.476,0.366,0.646,0.648
		s0.303,0.626,0.399,1.031s0.145,0.952,0.145,1.639c0,0.814-0.077,1.471-0.232,1.971c-0.155,0.5-0.387,0.886-0.695,1.159
		c-0.309,0.273-0.699,0.409-1.17,0.409c-0.62,0-1.107-0.24-1.461-0.719C26.329,31.176,26.117,30.236,26.117,28.934z M26.929,28.934
		c0,1.139,0.124,1.896,0.371,2.273s0.553,0.565,0.915,0.565c0.363,0,0.668-0.189,0.915-0.567s0.371-1.135,0.371-2.271
		c0-1.142-0.124-1.9-0.371-2.275c-0.247-0.375-0.555-0.563-0.924-0.563c-0.362,0-0.652,0.166-0.869,0.497
		C27.065,27.015,26.929,27.795,26.929,28.934z"/>
</g>
<g>
	<path fill="#FFFFFF" d="M13.44,19.914h0.779v2.254c0,0.357,0.01,0.589,0.029,0.695c0.033,0.17,0.113,0.307,0.238,0.41
		c0.126,0.103,0.297,0.155,0.515,0.155c0.222,0,0.389-0.049,0.501-0.146c0.112-0.097,0.18-0.217,0.202-0.359
		c0.023-0.142,0.034-0.377,0.034-0.707v-2.302h0.779v2.186c0,0.5-0.021,0.853-0.063,1.059c-0.042,0.207-0.12,0.38-0.233,0.522
		s-0.265,0.255-0.454,0.339c-0.189,0.084-0.438,0.126-0.742,0.126c-0.369,0-0.648-0.046-0.839-0.138s-0.341-0.211-0.452-0.357
		c-0.11-0.146-0.184-0.3-0.218-0.461c-0.052-0.238-0.077-0.59-0.077-1.056V19.914z"/>
	<path fill="#FFFFFF" d="M18.628,24.075v-0.837h-1.58v-0.698l1.675-2.643h0.622v2.64h0.479v0.701h-0.479v0.837H18.628z
		 M18.628,22.536v-1.422l-0.887,1.422H18.628z"/>
	<path fill="#FFFFFF" d="M21.427,19.896c0.374,0,0.667,0.144,0.877,0.432c0.251,0.341,0.377,0.905,0.377,1.694
		c0,0.787-0.127,1.353-0.379,1.697c-0.209,0.284-0.501,0.426-0.875,0.426c-0.375,0-0.678-0.155-0.908-0.467
		c-0.229-0.311-0.345-0.866-0.345-1.665c0-0.783,0.126-1.347,0.379-1.692C20.762,20.039,21.053,19.896,21.427,19.896z
		 M21.427,20.558c-0.089,0-0.169,0.031-0.239,0.092s-0.125,0.171-0.163,0.331c-0.051,0.206-0.076,0.553-0.076,1.042
		s0.022,0.824,0.068,1.006c0.045,0.183,0.103,0.304,0.172,0.365s0.149,0.091,0.238,0.091c0.09,0,0.17-0.031,0.24-0.092
		s0.124-0.172,0.163-0.331c0.051-0.205,0.076-0.551,0.076-1.039s-0.022-0.823-0.068-1.006s-0.104-0.305-0.173-0.366
		S21.517,20.558,21.427,20.558z"/>
</g>
</svg>
