<?xml version="1.0" encoding="utf-8"?>
<!-- Generator: Adobe Illustrator 18.0.0, SVG Export Plug-In . SVG Version: 6.00 Build 0)  -->
<!DOCTYPE svg PUBLIC "-//W3C//DTD SVG 1.1//EN" "http://www.w3.org/Graphics/SVG/1.1/DTD/svg11.dtd">
<svg version="1.1" id="图层_1" xmlns="http://www.w3.org/2000/svg" xmlns:xlink="http://www.w3.org/1999/xlink" x="0px" y="0px"
	 width="42px" height="42px" viewBox="0 0 42 42" enable-background="new 0 0 42 42" xml:space="preserve">
<g>
	<path fill="#FFFFFF" d="M3.68,40.402c-1.167,0-2.117-0.949-2.117-2.116V3.646c0-1.167,0.95-2.117,2.117-2.117H38.32
		c1.167,0,2.116,0.95,2.116,2.117v34.641c0,1.167-0.949,2.116-2.116,2.116H3.68z"/>
	<path fill="#AFAFAF" d="M38.32,2.058c0.875,0,1.588,0.712,1.588,1.588v34.641c0,0.875-0.712,1.588-1.588,1.588H3.68
		c-0.875,0-1.588-0.712-1.588-1.588V3.646c0-0.875,0.712-1.588,1.588-1.588H38.32 M38.32,1H3.68C2.218,1,1.034,2.184,1.034,3.646
		v34.641c0,1.461,1.185,2.646,2.646,2.646H38.32c1.461,0,2.646-1.185,2.646-2.646V3.646C40.966,2.184,39.782,1,38.32,1L38.32,1z"/>
</g>
<g>
	<linearGradient id="SVGID_1_" gradientUnits="userSpaceOnUse" x1="20.9994" y1="38.6505" x2="20.9994" y2="3.2808">
		<stop  offset="0" style="stop-color:#FF7F01"/>
		<stop  offset="1" style="stop-color:#F05800"/>
	</linearGradient>
	<path fill="url(#SVGID_1_)" d="M3.679,38.651c-0.201,0-0.365-0.164-0.365-0.365V3.646c0-0.201,0.164-0.365,0.365-0.365h34.641
		c0.201,0,0.363,0.164,0.363,0.365v34.64c0,0.201-0.163,0.365-0.363,0.365H3.679z"/>
</g>
<g>
	<g>
		<g>
			<polygon fill="#F5F5F5" points="8.837,9.528 11.972,6.937 11.972,12.119 			"/>
			<path fill="#F5F5F5" d="M20.48,15.839c-1.596-1.885-2.619-3.19-3.125-3.985c-0.686-1.079-1.216-1.274-1.395-1.286l-4.749,0.028
				V8.394h4.418c0.6-0.087,2.109-0.037,3.584,2.278c0.307,0.482,1.067,1.524,2.947,3.745L20.48,15.839z"/>
		</g>
		<g>
			<polygon fill="#F5F5F5" points="33.162,19.732 30.027,22.323 30.027,17.141 			"/>
			<path fill="#F5F5F5" d="M21.519,13.421c1.596,1.885,2.619,3.19,3.125,3.985c0.686,1.079,1.216,1.274,1.395,1.286l4.749-0.028
				v2.201h-4.418c-0.6,0.087-2.109,0.037-3.584-2.278c-0.307-0.482-1.067-1.524-2.947-3.745L21.519,13.421z"/>
		</g>
	</g>
	<g>
		<g>
			<polygon fill="#F5F5F5" points="33.162,9.528 30.027,6.937 30.027,12.119 			"/>
			<path fill="#F5F5F5" d="M21.519,15.839c1.596-1.885,2.619-3.19,3.125-3.985c0.686-1.079,1.216-1.274,1.395-1.286l4.749,0.028
				V8.394h-4.418c-0.6-0.087-2.109-0.037-3.584,2.278c-0.307,0.482-1.067,1.524-2.947,3.745L21.519,15.839z"/>
		</g>
		<g>
			<polygon fill="#F5F5F5" points="8.837,19.732 11.972,22.323 11.972,17.141 			"/>
			<path fill="#F5F5F5" d="M20.48,13.421c-1.596,1.885-2.619,3.19-3.125,3.985c-0.686,1.079-1.216,1.274-1.395,1.286l-4.749-0.028
				v2.201h4.418c0.6,0.087,2.109,0.037,3.584-2.278c0.307-0.482,1.067-1.524,2.947-3.745L20.48,13.421z"/>
		</g>
	</g>
</g>
<g>
	<path fill="#FFFFFF" d="M7.255,37.398v-7.94h4.969v0.938H8.229v2.459h3.457v0.937H8.229v3.607H7.255z"/>
	<path fill="#FFFFFF" d="M17.816,31.402l-0.899,0.076c-0.081-0.383-0.194-0.661-0.342-0.834c-0.245-0.278-0.546-0.417-0.904-0.417
		c-0.288,0-0.541,0.087-0.759,0.26c-0.285,0.224-0.509,0.551-0.673,0.98s-0.25,1.042-0.256,1.836
		c0.218-0.357,0.484-0.623,0.799-0.796c0.314-0.174,0.645-0.26,0.99-0.26c0.603,0,1.116,0.239,1.54,0.717
		c0.424,0.479,0.636,1.098,0.636,1.855c0,0.498-0.1,0.961-0.299,1.39c-0.199,0.428-0.473,0.755-0.821,0.982
		c-0.349,0.228-0.744,0.342-1.186,0.342c-0.753,0-1.368-0.299-1.844-0.896c-0.476-0.598-0.714-1.583-0.714-2.955
		c0-1.534,0.263-2.65,0.789-3.347c0.459-0.606,1.077-0.91,1.854-0.91c0.58,0,1.054,0.175,1.424,0.525S17.743,30.785,17.816,31.402z
		 M14.123,34.826c0,0.335,0.066,0.657,0.199,0.964s0.317,0.541,0.555,0.701c0.238,0.161,0.487,0.241,0.749,0.241
		c0.382,0,0.71-0.166,0.985-0.498c0.275-0.333,0.412-0.784,0.412-1.354c0-0.549-0.136-0.981-0.407-1.297
		c-0.271-0.316-0.613-0.475-1.025-0.475c-0.409,0-0.755,0.158-1.04,0.475C14.266,33.898,14.123,34.313,14.123,34.826z"/>
	<path fill="#FFFFFF" d="M18.847,33.482c0-0.938,0.089-1.694,0.269-2.267s0.446-1.014,0.799-1.324
		c0.354-0.311,0.798-0.466,1.334-0.466c0.395,0,0.742,0.086,1.041,0.258c0.297,0.171,0.543,0.418,0.738,0.741
		c0.193,0.323,0.346,0.717,0.457,1.181c0.111,0.465,0.166,1.09,0.166,1.877c0,0.932-0.09,1.684-0.268,2.256
		c-0.176,0.572-0.441,1.015-0.795,1.327s-0.8,0.469-1.339,0.469c-0.71,0-1.268-0.274-1.673-0.823
		C19.089,36.05,18.847,34.974,18.847,33.482z M19.776,33.482c0,1.304,0.142,2.171,0.425,2.603s0.632,0.647,1.048,0.647
		c0.415,0,0.764-0.217,1.047-0.65c0.282-0.433,0.425-1.3,0.425-2.6c0-1.307-0.143-2.176-0.425-2.605
		c-0.283-0.43-0.636-0.645-1.058-0.645c-0.416,0-0.747,0.19-0.995,0.569C19.932,31.285,19.776,32.179,19.776,33.482z"/>
	<path fill="#FFFFFF" d="M24.569,33.482c0-0.938,0.09-1.694,0.27-2.267c0.179-0.572,0.445-1.014,0.799-1.324
		s0.798-0.466,1.334-0.466c0.395,0,0.741,0.086,1.04,0.258c0.298,0.171,0.544,0.418,0.738,0.741s0.347,0.717,0.457,1.181
		c0.111,0.465,0.166,1.09,0.166,1.877c0,0.932-0.089,1.684-0.267,2.256c-0.177,0.572-0.442,1.015-0.796,1.327
		s-0.8,0.469-1.339,0.469c-0.71,0-1.269-0.274-1.674-0.823C24.813,36.05,24.569,34.974,24.569,33.482z M25.499,33.482
		c0,1.304,0.142,2.171,0.425,2.603s0.632,0.647,1.048,0.647c0.415,0,0.765-0.217,1.048-0.65c0.282-0.433,0.424-1.3,0.424-2.6
		c0-1.307-0.142-2.176-0.424-2.605c-0.283-0.43-0.636-0.645-1.059-0.645c-0.415,0-0.746,0.19-0.994,0.569
		C25.655,31.285,25.499,32.179,25.499,33.482z"/>
	<path fill="#FFFFFF" d="M30.292,33.482c0-0.938,0.09-1.694,0.27-2.267c0.179-0.572,0.445-1.014,0.799-1.324
		s0.798-0.466,1.334-0.466c0.395,0,0.741,0.086,1.04,0.258c0.298,0.171,0.544,0.418,0.738,0.741s0.347,0.717,0.457,1.181
		c0.111,0.465,0.166,1.09,0.166,1.877c0,0.932-0.089,1.684-0.267,2.256c-0.177,0.572-0.442,1.015-0.796,1.327
		s-0.8,0.469-1.339,0.469c-0.71,0-1.269-0.274-1.674-0.823C30.535,36.05,30.292,34.974,30.292,33.482z M31.222,33.482
		c0,1.304,0.142,2.171,0.425,2.603s0.632,0.647,1.048,0.647c0.415,0,0.765-0.217,1.048-0.65c0.282-0.433,0.424-1.3,0.424-2.6
		c0-1.307-0.142-2.176-0.424-2.605c-0.283-0.43-0.636-0.645-1.059-0.645c-0.415,0-0.746,0.19-0.994,0.569
		C31.378,31.285,31.222,32.179,31.222,33.482z"/>
</g>
<g>
	<path fill="#FFFFFF" d="M15.367,22.841h0.95v2.748c0,0.436,0.012,0.718,0.035,0.848c0.041,0.208,0.138,0.374,0.291,0.5
		c0.153,0.126,0.362,0.188,0.628,0.188c0.27,0,0.473-0.059,0.609-0.178c0.137-0.119,0.219-0.265,0.247-0.438s0.042-0.46,0.042-0.861
		v-2.806h0.951v2.664c0,0.609-0.026,1.039-0.077,1.29c-0.051,0.252-0.146,0.464-0.284,0.637c-0.138,0.173-0.323,0.311-0.554,0.413
		c-0.231,0.103-0.533,0.154-0.905,0.154c-0.449,0-0.79-0.056-1.022-0.168c-0.232-0.112-0.416-0.257-0.551-0.436
		c-0.135-0.178-0.224-0.366-0.266-0.562c-0.063-0.291-0.093-0.72-0.093-1.287V22.841z"/>
	<path fill="#FFFFFF" d="M22.23,27.914h-0.902V24.25c-0.33,0.332-0.718,0.578-1.165,0.737v-0.882
		c0.235-0.083,0.491-0.241,0.767-0.473s0.466-0.502,0.568-0.811h0.732V27.914z"/>
	<path fill="#FFFFFF" d="M25.103,22.821c0.456,0,0.813,0.175,1.069,0.526c0.306,0.415,0.46,1.104,0.46,2.065
		c0,0.96-0.154,1.65-0.462,2.07c-0.254,0.346-0.611,0.519-1.066,0.519c-0.457,0-0.827-0.19-1.107-0.569
		c-0.281-0.38-0.421-1.056-0.421-2.029c0-0.955,0.154-1.643,0.462-2.063C24.292,22.993,24.647,22.821,25.103,22.821z M25.103,23.627
		c-0.109,0-0.206,0.038-0.292,0.113s-0.152,0.209-0.199,0.403c-0.063,0.251-0.092,0.675-0.092,1.27c0,0.596,0.027,1.005,0.083,1.227
		c0.055,0.222,0.125,0.37,0.21,0.444c0.085,0.074,0.181,0.111,0.29,0.111c0.109,0,0.207-0.038,0.293-0.113
		c0.085-0.075,0.152-0.21,0.199-0.403c0.063-0.249,0.092-0.671,0.092-1.267c0-0.595-0.027-1.004-0.083-1.227
		c-0.056-0.222-0.126-0.371-0.21-0.446C25.309,23.664,25.213,23.627,25.103,23.627z"/>
</g>
</svg>
