<?xml version="1.0" encoding="utf-8"?>
<!-- Generator: Adobe Illustrator 18.0.0, SVG Export Plug-In . SVG Version: 6.00 Build 0)  -->
<!DOCTYPE svg PUBLIC "-//W3C//DTD SVG 1.1//EN" "http://www.w3.org/Graphics/SVG/1.1/DTD/svg11.dtd">
<svg version="1.1" id="图层_1" xmlns="http://www.w3.org/2000/svg" xmlns:xlink="http://www.w3.org/1999/xlink" x="0px" y="0px"
	 width="16px" height="16px" viewBox="0 0 16 16" enable-background="new 0 0 16 16" xml:space="preserve">
<g>
	<path fill="#FFFFFF" d="M1.085,15.732c-0.466,0-0.846-0.379-0.846-0.845V1.057c0-0.466,0.38-0.845,0.846-0.845h13.83
		c0.466,0,0.846,0.379,0.846,0.845v13.831c0,0.466-0.38,0.845-0.846,0.845H1.085z"/>
	<path fill="#AFAFAF" d="M14.915,0.423c0.349,0,0.634,0.284,0.634,0.634v13.83c0,0.349-0.284,0.634-0.634,0.634H1.085
		c-0.349,0-0.634-0.284-0.634-0.634V1.057c0-0.349,0.284-0.634,0.634-0.634H14.915 M14.915,0.001H1.085
		c-0.583,0-1.056,0.473-1.056,1.056v13.83c0,0.583,0.473,1.056,1.056,1.056h13.83c0.583,0,1.056-0.473,1.056-1.056V1.057
		C15.972,0.474,15.499,0.001,14.915,0.001L14.915,0.001z"/>
</g>
<g>
	<linearGradient id="SVGID_1_" gradientUnits="userSpaceOnUse" x1="7.9998" y1="15.033" x2="7.9998" y2="0.9115">
		<stop  offset="0" style="stop-color:#00AEF9"/>
		<stop  offset="1" style="stop-color:#0092E1"/>
	</linearGradient>
	<path fill="url(#SVGID_1_)" d="M1.085,15.033c-0.08,0-0.146-0.066-0.146-0.146V1.057c0-0.08,0.066-0.146,0.146-0.146h13.831
		c0.08,0,0.145,0.066,0.145,0.146v13.83c0,0.08-0.065,0.146-0.145,0.146H1.085z"/>
</g>
<g>
	<g>
		<g>
			<polygon fill="#F5F5F5" points="2,5.455 3.547,4.177 3.547,6.733 			"/>
			<path fill="#F5F5F5" d="M7.743,8.569c-0.788-0.93-1.292-1.574-1.542-1.966c-0.338-0.532-0.6-0.629-0.688-0.635L3.171,5.982V4.896
				H5.35C5.646,4.853,6.39,4.878,7.118,6.02c0.151,0.238,0.526,0.752,1.454,1.848L7.743,8.569z"/>
		</g>
		<g>
			<polygon fill="#F5F5F5" points="14,10.489 12.453,11.767 12.453,9.211 			"/>
			<path fill="#F5F5F5" d="M8.256,7.376c0.788,0.93,1.292,1.574,1.542,1.966c0.338,0.532,0.6,0.629,0.688,0.635l2.343-0.014v1.086
				H10.65c-0.296,0.043-1.04,0.018-1.768-1.124C8.73,9.687,8.355,9.173,7.428,8.077L8.256,7.376z"/>
		</g>
	</g>
	<g>
		<g>
			<polygon fill="#F5F5F5" points="14,5.455 12.453,4.177 12.453,6.733 			"/>
			<path fill="#F5F5F5" d="M8.256,8.569c0.788-0.93,1.292-1.574,1.542-1.966c0.338-0.532,0.6-0.629,0.688-0.635l2.343,0.014V4.896
				H10.65c-0.296-0.043-1.04-0.018-1.768,1.124C8.73,6.258,8.355,6.772,7.428,7.867L8.256,8.569z"/>
		</g>
		<g>
			<polygon fill="#F5F5F5" points="2,10.489 3.547,11.767 3.547,9.211 			"/>
			<path fill="#F5F5F5" d="M7.743,7.376c-0.788,0.93-1.292,1.574-1.542,1.966c-0.338,0.532-0.6,0.629-0.688,0.635L3.171,9.963v1.086
				H5.35c0.296,0.043,1.04,0.018,1.768-1.124c0.151-0.238,0.526-0.752,1.454-1.848L7.743,7.376z"/>
		</g>
	</g>
</g>
</svg>
