<?xml version="1.0" encoding="utf-8"?>
<!-- Generator: Adobe Illustrator 18.0.0, SVG Export Plug-In . SVG Version: 6.00 Build 0)  -->
<!DOCTYPE svg PUBLIC "-//W3C//DTD SVG 1.1//EN" "http://www.w3.org/Graphics/SVG/1.1/DTD/svg11.dtd">
<svg version="1.1" id="图层_1" xmlns="http://www.w3.org/2000/svg" xmlns:xlink="http://www.w3.org/1999/xlink" x="0px" y="0px"
	 width="16px" height="16px" viewBox="0 0 16 16" enable-background="new 0 0 16 16" xml:space="preserve">
<g>
	<path fill="#FFFFFF" d="M1.073,15.76c-0.467,0-0.847-0.38-0.847-0.847V1.059c0-0.467,0.38-0.847,0.847-0.847h13.854
		c0.467,0,0.847,0.38,0.847,0.847v13.854c0,0.467-0.38,0.847-0.847,0.847H1.073z"/>
	<path fill="#AFAFAF" d="M14.927,0.424c0.35,0,0.635,0.285,0.635,0.635v13.855c0,0.35-0.285,0.635-0.635,0.635H1.073
		c-0.35,0-0.635-0.285-0.635-0.635V1.059c0-0.35,0.285-0.635,0.635-0.635H14.927 M14.927,0.001H1.073
		c-0.584,0-1.058,0.474-1.058,1.058v13.855c0,0.584,0.474,1.058,1.058,1.058h13.855c0.584,0,1.058-0.474,1.058-1.058V1.059
		C15.986,0.474,15.512,0.001,14.927,0.001L14.927,0.001z"/>
</g>
<g>
	<linearGradient id="SVGID_1_" gradientUnits="userSpaceOnUse" x1="7.9998" y1="15.0591" x2="7.9998" y2="0.9129">
		<stop  offset="0" style="stop-color:#F1E821"/>
		<stop  offset="1" style="stop-color:#D6B900"/>
	</linearGradient>
	<path fill="url(#SVGID_1_)" d="M1.073,15.059c-0.08,0-0.146-0.066-0.146-0.146V1.059c0-0.08,0.066-0.146,0.146-0.146h13.855
		c0.08,0,0.145,0.066,0.145,0.146v13.854c0,0.08-0.065,0.146-0.145,0.146H1.073z"/>
</g>
<g>
	<g>
		<g>
			<polygon fill="#A37C00" points="2,5.47 3.547,4.192 3.547,6.748 			"/>
			<path fill="#A37C00" d="M7.743,8.583C6.956,7.653,6.452,7.01,6.202,6.617c-0.338-0.532-0.6-0.629-0.688-0.635L3.171,5.996V4.911
				H5.35c0.296-0.043,1.04-0.018,1.768,1.124c0.151,0.238,0.526,0.752,1.454,1.848L7.743,8.583z"/>
		</g>
		<g>
			<polygon fill="#A37C00" points="14,10.504 12.453,11.782 12.453,9.226 			"/>
			<path fill="#A37C00" d="M8.256,7.39c0.788,0.93,1.292,1.574,1.542,1.966c0.338,0.532,0.6,0.629,0.688,0.635l2.343-0.014v1.086
				H10.65c-0.296,0.043-1.04,0.018-1.768-1.124C8.73,9.701,8.355,9.187,7.428,8.092L8.256,7.39z"/>
		</g>
	</g>
	<g>
		<g>
			<polygon fill="#A37C00" points="14,5.47 12.453,4.192 12.453,6.748 			"/>
			<path fill="#A37C00" d="M8.256,8.583c0.788-0.93,1.292-1.574,1.542-1.966c0.338-0.532,0.6-0.629,0.688-0.635l2.343,0.014V4.911
				H10.65c-0.296-0.043-1.04-0.018-1.768,1.124C8.73,6.272,8.355,6.786,7.428,7.882L8.256,8.583z"/>
		</g>
		<g>
			<polygon fill="#A37C00" points="2,10.504 3.547,11.782 3.547,9.226 			"/>
			<path fill="#A37C00" d="M7.743,7.39C6.956,8.32,6.452,8.964,6.202,9.356c-0.338,0.532-0.6,0.629-0.688,0.635L3.171,9.977v1.086
				H5.35c0.296,0.043,1.04,0.018,1.768-1.124c0.151-0.238,0.526-0.752,1.454-1.848L7.743,7.39z"/>
		</g>
	</g>
</g>
</svg>
