<?xml version="1.0" encoding="utf-8"?>
<!-- Generator: Adobe Illustrator 18.0.0, SVG Export Plug-In . SVG Version: 6.00 Build 0)  -->
<!DOCTYPE svg PUBLIC "-//W3C//DTD SVG 1.1//EN" "http://www.w3.org/Graphics/SVG/1.1/DTD/svg11.dtd">
<svg version="1.1" id="图层_1" xmlns="http://www.w3.org/2000/svg" xmlns:xlink="http://www.w3.org/1999/xlink" x="0px" y="0px"
	 width="36px" height="36px" viewBox="0 0 36 36" enable-background="new 0 0 36 36" xml:space="preserve">
<g>
	<path fill="#FFFFFF" d="M2.845,34.978c-1.021,0-1.852-0.831-1.852-1.853V2.815c0-1.021,0.831-1.852,1.852-1.852h30.311
		c1.021,0,1.852,0.831,1.852,1.852v30.31c0,1.021-0.831,1.853-1.852,1.853H2.845z"/>
	<path fill="#AFAFAF" d="M33.155,1.426c0.766,0,1.389,0.623,1.389,1.389v30.31c0,0.766-0.623,1.389-1.389,1.389H2.845
		c-0.766,0-1.389-0.623-1.389-1.389V2.815c0-0.766,0.623-1.389,1.389-1.389H33.155 M33.155,0.5H2.845
		C1.566,0.5,0.53,1.537,0.53,2.815v30.31c0,1.279,1.037,2.315,2.315,2.315h30.31c1.279,0,2.315-1.037,2.315-2.315V2.815
		C35.47,1.537,34.434,0.5,33.155,0.5L33.155,0.5z"/>
</g>
<g>
	<linearGradient id="SVGID_1_" gradientUnits="userSpaceOnUse" x1="17.9995" y1="33.4442" x2="17.9995" y2="2.496">
		<stop  offset="0" style="stop-color:#FF7F01"/>
		<stop  offset="1" style="stop-color:#F05800"/>
	</linearGradient>
	<path fill="url(#SVGID_1_)" d="M2.845,33.444c-0.175,0-0.319-0.144-0.319-0.319V2.815c0-0.175,0.144-0.319,0.319-0.319h30.311
		c0.175,0,0.318,0.144,0.318,0.319v30.31c0,0.175-0.143,0.319-0.318,0.319H2.845z"/>
</g>
<g>
	<g>
		<g>
			<polygon fill="#F5F5F5" points="7.357,7.962 10.101,5.695 10.101,10.229 			"/>
			<path fill="#F5F5F5" d="M17.545,13.484c-1.397-1.649-2.291-2.791-2.735-3.487c-0.6-0.944-1.064-1.115-1.221-1.126L9.434,8.896
				V6.97h3.866c0.525-0.077,1.845-0.032,3.136,1.993c0.269,0.422,0.933,1.334,2.579,3.277L17.545,13.484z"/>
		</g>
		<g>
			<polygon fill="#F5F5F5" points="28.642,16.891 25.898,19.158 25.898,14.624 			"/>
			<path fill="#F5F5F5" d="M18.454,11.369c1.397,1.649,2.291,2.791,2.735,3.487c0.6,0.944,1.064,1.115,1.221,1.126l4.156-0.024
				v1.926H22.7c-0.525,0.077-1.845,0.032-3.136-1.993c-0.269-0.422-0.933-1.334-2.579-3.277L18.454,11.369z"/>
		</g>
	</g>
	<g>
		<g>
			<polygon fill="#F5F5F5" points="28.642,7.962 25.898,5.695 25.898,10.229 			"/>
			<path fill="#F5F5F5" d="M18.454,13.484c1.397-1.649,2.291-2.791,2.735-3.487c0.6-0.944,1.064-1.115,1.221-1.126l4.156,0.024V6.97
				H22.7c-0.525-0.077-1.845-0.032-3.136,1.993c-0.269,0.422-0.933,1.334-2.579,3.277L18.454,13.484z"/>
		</g>
		<g>
			<polygon fill="#F5F5F5" points="7.357,16.891 10.101,19.158 10.101,14.624 			"/>
			<path fill="#F5F5F5" d="M17.545,11.369c-1.397,1.649-2.291,2.791-2.735,3.487c-0.6,0.944-1.064,1.115-1.221,1.126l-4.156-0.024
				v1.926h3.866c0.525,0.077,1.845,0.032,3.136-1.993c0.269-0.422,0.933-1.334,2.579-3.277L17.545,11.369z"/>
		</g>
	</g>
</g>
<g>
	<path fill="#FFFFFF" d="M5.973,32.349v-6.947h4.348v0.819H6.825v2.151H9.85v0.82H6.825v3.156H5.973z"/>
	<path fill="#FFFFFF" d="M15.214,27.103l-0.787,0.066c-0.07-0.335-0.17-0.578-0.299-0.729c-0.214-0.244-0.478-0.365-0.792-0.365
		c-0.252,0-0.473,0.075-0.664,0.228c-0.249,0.195-0.446,0.481-0.589,0.857s-0.218,0.912-0.224,1.606
		c0.19-0.313,0.423-0.545,0.699-0.696c0.275-0.151,0.564-0.228,0.866-0.228c0.528,0,0.977,0.209,1.348,0.628
		c0.371,0.419,0.556,0.96,0.556,1.623c0,0.437-0.087,0.841-0.262,1.216c-0.174,0.374-0.414,0.661-0.719,0.86
		c-0.305,0.198-0.65,0.298-1.038,0.298c-0.659,0-1.197-0.261-1.613-0.784c-0.417-0.522-0.625-1.385-0.625-2.585
		c0-1.343,0.23-2.319,0.69-2.929c0.401-0.531,0.942-0.796,1.622-0.796c0.507,0,0.923,0.153,1.247,0.459
		C14.955,26.139,15.149,26.563,15.214,27.103z M11.982,30.098c0,0.294,0.058,0.575,0.174,0.844s0.277,0.473,0.486,0.613
		c0.208,0.141,0.426,0.211,0.655,0.211c0.334,0,0.622-0.146,0.862-0.436c0.24-0.291,0.36-0.686,0.36-1.186
		c0-0.479-0.119-0.858-0.356-1.135s-0.536-0.414-0.897-0.414c-0.357,0-0.661,0.138-0.91,0.414
		C12.107,29.286,11.982,29.649,11.982,30.098z"/>
	<path fill="#FFFFFF" d="M16.115,28.922c0-0.821,0.079-1.482,0.235-1.983c0.157-0.5,0.39-0.887,0.699-1.158
		c0.309-0.271,0.698-0.407,1.167-0.407c0.347,0,0.649,0.075,0.911,0.225c0.26,0.15,0.475,0.366,0.645,0.649s0.305,0.627,0.4,1.033
		c0.098,0.406,0.146,0.953,0.146,1.642c0,0.815-0.078,1.474-0.234,1.975c-0.154,0.5-0.387,0.888-0.697,1.161
		c-0.309,0.272-0.699,0.409-1.171,0.409c-0.621,0-1.109-0.24-1.464-0.72C16.328,31.169,16.115,30.228,16.115,28.922z M16.929,28.922
		c0,1.141,0.124,1.9,0.372,2.277c0.248,0.378,0.553,0.566,0.917,0.566c0.364,0,0.669-0.189,0.917-0.568s0.371-1.138,0.371-2.275
		c0-1.144-0.123-1.903-0.371-2.279s-0.557-0.563-0.926-0.563c-0.363,0-0.653,0.166-0.871,0.497
		C17.065,27,16.929,27.782,16.929,28.922z"/>
	<path fill="#FFFFFF" d="M21.123,28.922c0-0.821,0.078-1.482,0.235-1.983c0.156-0.5,0.39-0.887,0.698-1.158
		c0.31-0.271,0.698-0.407,1.168-0.407c0.346,0,0.648,0.075,0.91,0.225c0.261,0.15,0.476,0.366,0.646,0.649s0.304,0.627,0.4,1.033
		s0.146,0.953,0.146,1.642c0,0.815-0.078,1.474-0.233,1.975c-0.155,0.5-0.388,0.888-0.697,1.161
		c-0.309,0.272-0.699,0.409-1.171,0.409c-0.622,0-1.109-0.24-1.465-0.72C21.335,31.169,21.123,30.228,21.123,28.922z M21.937,28.922
		c0,1.141,0.123,1.9,0.371,2.277c0.248,0.378,0.553,0.566,0.917,0.566c0.363,0,0.669-0.189,0.916-0.568
		c0.248-0.379,0.372-1.138,0.372-2.275c0-1.144-0.124-1.903-0.372-2.279c-0.247-0.376-0.556-0.563-0.925-0.563
		c-0.364,0-0.654,0.166-0.871,0.497C22.072,27,21.937,27.782,21.937,28.922z"/>
	<path fill="#FFFFFF" d="M26.131,28.922c0-0.821,0.078-1.482,0.235-1.983c0.156-0.5,0.39-0.887,0.698-1.158
		c0.31-0.271,0.698-0.407,1.168-0.407c0.346,0,0.648,0.075,0.91,0.225c0.261,0.15,0.476,0.366,0.646,0.649s0.304,0.627,0.4,1.033
		s0.146,0.953,0.146,1.642c0,0.815-0.078,1.474-0.233,1.975c-0.155,0.5-0.388,0.888-0.697,1.161
		c-0.309,0.272-0.699,0.409-1.171,0.409c-0.622,0-1.109-0.24-1.465-0.72C26.343,31.169,26.131,30.228,26.131,28.922z M26.944,28.922
		c0,1.141,0.123,1.9,0.371,2.277c0.248,0.378,0.553,0.566,0.917,0.566c0.363,0,0.669-0.189,0.916-0.568
		c0.248-0.379,0.372-1.138,0.372-2.275c0-1.144-0.124-1.903-0.372-2.279c-0.247-0.376-0.556-0.563-0.925-0.563
		c-0.364,0-0.654,0.166-0.871,0.497C27.08,27,26.944,27.782,26.944,28.922z"/>
</g>
<g>
	<path fill="#FFFFFF" d="M13.431,19.887h0.781v2.258c0,0.358,0.01,0.591,0.029,0.697c0.033,0.17,0.113,0.308,0.239,0.41
		c0.125,0.104,0.297,0.155,0.516,0.155c0.222,0,0.389-0.049,0.501-0.146c0.113-0.098,0.18-0.218,0.203-0.359
		c0.023-0.143,0.034-0.378,0.034-0.708v-2.307h0.781v2.189c0,0.501-0.021,0.854-0.063,1.062c-0.042,0.206-0.12,0.381-0.233,0.522
		c-0.113,0.143-0.265,0.256-0.455,0.34c-0.19,0.085-0.438,0.127-0.744,0.127c-0.369,0-0.649-0.046-0.84-0.138
		c-0.191-0.093-0.342-0.212-0.453-0.358c-0.111-0.147-0.184-0.301-0.219-0.462c-0.051-0.239-0.077-0.592-0.077-1.059V19.887z"/>
	<path fill="#FFFFFF" d="M18.628,24.056v-0.839h-1.583v-0.699l1.678-2.647h0.622v2.645h0.48v0.702h-0.48v0.839H18.628z
		 M18.628,22.515V21.09l-0.889,1.425H18.628z"/>
	<path fill="#FFFFFF" d="M21.432,19.87c0.375,0,0.667,0.145,0.879,0.433c0.251,0.341,0.377,0.906,0.377,1.697
		c0,0.788-0.127,1.355-0.38,1.7c-0.209,0.284-0.501,0.427-0.876,0.427c-0.376,0-0.68-0.156-0.91-0.468s-0.346-0.868-0.346-1.668
		c0-0.785,0.127-1.35,0.38-1.694C20.766,20.013,21.058,19.87,21.432,19.87z M21.432,20.532c-0.09,0-0.17,0.031-0.24,0.093
		s-0.125,0.172-0.163,0.331c-0.051,0.207-0.077,0.555-0.077,1.044s0.023,0.825,0.069,1.008c0.045,0.183,0.103,0.305,0.173,0.365
		c0.069,0.061,0.148,0.091,0.238,0.091s0.17-0.03,0.24-0.092s0.125-0.172,0.163-0.331c0.052-0.205,0.077-0.552,0.077-1.041
		s-0.023-0.825-0.069-1.008c-0.045-0.184-0.103-0.306-0.172-0.367C21.601,20.563,21.521,20.532,21.432,20.532z"/>
</g>
</svg>
