<?xml version="1.0" encoding="utf-8"?>
<!-- Generator: Adobe Illustrator 18.0.0, SVG Export Plug-In . SVG Version: 6.00 Build 0)  -->
<!DOCTYPE svg PUBLIC "-//W3C//DTD SVG 1.1//EN" "http://www.w3.org/Graphics/SVG/1.1/DTD/svg11.dtd">
<svg version="1.1" id="图层_1" xmlns="http://www.w3.org/2000/svg" xmlns:xlink="http://www.w3.org/1999/xlink" x="0px" y="0px"
	 width="48px" height="48px" viewBox="0 0 48 48" enable-background="new 0 0 48 48" xml:space="preserve">
<g>
	<path fill="#FFFFFF" d="M3.65,46.795c-1.372,0-2.487-1.115-2.487-2.486v-40.7c0-1.371,1.116-2.486,2.487-2.486H44.35
		c1.372,0,2.487,1.115,2.487,2.486v40.7c0,1.371-1.116,2.486-2.487,2.486H3.65z"/>
	<path fill="#AFAFAF" d="M44.35,1.744c1.028,0,1.865,0.837,1.865,1.865v40.699c0,1.028-0.837,1.865-1.865,1.865H3.65
		c-1.028,0-1.865-0.837-1.865-1.865V3.609c0-1.028,0.837-1.865,1.865-1.865H44.35 M44.35,0.5H3.65c-1.717,0-3.109,1.392-3.109,3.109
		v40.699c0,1.717,1.392,3.109,3.109,3.109H44.35c1.717,0,3.109-1.392,3.109-3.109V3.609C47.458,1.892,46.067,0.5,44.35,0.5
		L44.35,0.5z"/>
</g>
<g>
	<linearGradient id="SVGID_1_" gradientUnits="userSpaceOnUse" x1="23.9993" y1="44.7364" x2="23.9993" y2="3.1803">
		<stop  offset="0" style="stop-color:#76797A"/>
		<stop  offset="1" style="stop-color:#5F6263"/>
	</linearGradient>
	<path fill="url(#SVGID_1_)" d="M3.65,44.736c-0.236,0-0.429-0.193-0.429-0.429V3.609c0-0.236,0.193-0.429,0.429-0.429h40.7
		c0.236,0,0.427,0.193,0.427,0.429v40.699c0,0.236-0.191,0.429-0.427,0.429H3.65z"/>
</g>
<g>
	<g>
		<g>
			<polygon fill="#F5F5F5" points="9.709,10.52 13.393,7.476 13.393,13.564 			"/>
			<path fill="#F5F5F5" d="M23.389,17.935c-1.876-2.215-3.077-3.748-3.672-4.682c-0.806-1.268-1.428-1.497-1.639-1.511l-5.58,0.032
				V9.188h5.19c0.705-0.103,2.478-0.043,4.211,2.676c0.361,0.566,1.253,1.791,3.463,4.401L23.389,17.935z"/>
		</g>
		<g>
			<polygon fill="#F5F5F5" points="38.289,22.509 34.605,25.553 34.605,19.465 			"/>
			<path fill="#F5F5F5" d="M24.61,15.094c1.876,2.215,3.077,3.748,3.672,4.682c0.806,1.268,1.428,1.497,1.639,1.511l5.58-0.032
				v2.586h-5.19c-0.705,0.103-2.478,0.043-4.211-2.676c-0.361-0.566-1.253-1.791-3.463-4.401L24.61,15.094z"/>
		</g>
	</g>
	<g>
		<g>
			<polygon fill="#F5F5F5" points="38.289,10.52 34.605,7.476 34.605,13.564 			"/>
			<path fill="#F5F5F5" d="M24.61,17.935c1.876-2.215,3.077-3.748,3.672-4.682c0.806-1.268,1.428-1.497,1.639-1.511l5.58,0.032
				V9.188h-5.19c-0.705-0.103-2.478-0.043-4.211,2.676c-0.361,0.566-1.253,1.791-3.463,4.401L24.61,17.935z"/>
		</g>
		<g>
			<polygon fill="#F5F5F5" points="9.709,22.509 13.393,25.553 13.393,19.465 			"/>
			<path fill="#F5F5F5" d="M23.389,15.094c-1.876,2.215-3.077,3.748-3.672,4.682c-0.806,1.268-1.428,1.497-1.639,1.511l-5.58-0.032
				v2.586h5.19c0.705,0.103,2.478,0.043,4.211-2.676c0.361-0.566,1.253-1.791,3.463-4.401L23.389,15.094z"/>
		</g>
	</g>
</g>
<g>
	<path fill="#FFFFFF" d="M7.851,43.269v-9.329h5.838v1.102H8.997v2.889h4.062v1.101H8.997v4.238H7.851z"/>
	<path fill="#FFFFFF" d="M20.26,36.225l-1.057,0.089c-0.095-0.45-0.229-0.776-0.401-0.98c-0.288-0.326-0.642-0.489-1.063-0.489
		c-0.338,0-0.635,0.102-0.891,0.305c-0.334,0.264-0.598,0.647-0.791,1.152s-0.293,1.224-0.301,2.157
		c0.256-0.42,0.569-0.732,0.938-0.936c0.37-0.204,0.758-0.306,1.163-0.306c0.708,0,1.312,0.281,1.81,0.843
		c0.498,0.563,0.747,1.289,0.747,2.18c0,0.586-0.117,1.13-0.351,1.633c-0.234,0.502-0.556,0.888-0.965,1.154
		c-0.409,0.268-0.874,0.401-1.393,0.401c-0.886,0-1.608-0.352-2.167-1.054c-0.559-0.701-0.838-1.858-0.838-3.471
		c0-1.803,0.309-3.114,0.927-3.933c0.539-0.713,1.265-1.069,2.178-1.069c0.681,0,1.239,0.206,1.674,0.617
		C19.913,34.931,20.174,35.499,20.26,36.225z M15.921,40.246c0,0.395,0.078,0.772,0.233,1.133c0.156,0.36,0.373,0.635,0.652,0.824
		c0.279,0.188,0.573,0.283,0.88,0.283c0.449,0,0.834-0.195,1.157-0.586s0.484-0.921,0.484-1.591c0-0.645-0.16-1.152-0.479-1.524
		c-0.318-0.371-0.72-0.557-1.204-0.557c-0.48,0-0.888,0.186-1.222,0.557C16.088,39.157,15.921,39.644,15.921,40.246z"/>
	<path fill="#FFFFFF" d="M21.471,38.668c0-1.104,0.105-1.991,0.316-2.663c0.21-0.673,0.523-1.191,0.938-1.556
		c0.415-0.365,0.938-0.548,1.567-0.548c0.464,0,0.872,0.101,1.222,0.303c0.35,0.201,0.639,0.492,0.868,0.871
		c0.228,0.38,0.407,0.843,0.537,1.388s0.195,1.28,0.195,2.205c0,1.095-0.104,1.978-0.313,2.65c-0.208,0.672-0.521,1.192-0.936,1.559
		c-0.416,0.367-0.94,0.551-1.573,0.551c-0.834,0-1.49-0.322-1.966-0.968C21.756,41.684,21.471,40.42,21.471,38.668z M22.563,38.668
		c0,1.531,0.167,2.551,0.499,3.058s0.743,0.761,1.231,0.761c0.488,0,0.898-0.255,1.231-0.764c0.333-0.51,0.499-1.527,0.499-3.055
		c0-1.536-0.166-2.556-0.499-3.062c-0.333-0.504-0.747-0.757-1.243-0.757c-0.488,0-0.878,0.223-1.169,0.668
		C22.746,36.086,22.563,37.137,22.563,38.668z"/>
	<path fill="#FFFFFF" d="M28.195,38.668c0-1.104,0.105-1.991,0.316-2.663c0.21-0.673,0.523-1.191,0.938-1.556
		c0.415-0.365,0.938-0.548,1.567-0.548c0.464,0,0.872,0.101,1.222,0.303c0.35,0.201,0.639,0.492,0.868,0.871
		c0.228,0.38,0.407,0.843,0.537,1.388s0.195,1.28,0.195,2.205c0,1.095-0.104,1.978-0.313,2.65c-0.208,0.672-0.521,1.192-0.936,1.559
		c-0.416,0.367-0.94,0.551-1.573,0.551c-0.834,0-1.49-0.322-1.966-0.968C28.48,41.684,28.195,40.42,28.195,38.668z M29.287,38.668
		c0,1.531,0.167,2.551,0.499,3.058s0.743,0.761,1.231,0.761c0.488,0,0.898-0.255,1.231-0.764c0.333-0.51,0.499-1.527,0.499-3.055
		c0-1.536-0.166-2.556-0.499-3.062c-0.333-0.504-0.747-0.757-1.243-0.757c-0.488,0-0.878,0.223-1.169,0.668
		C29.47,36.086,29.287,37.137,29.287,38.668z"/>
	<path fill="#FFFFFF" d="M34.919,38.668c0-1.104,0.105-1.991,0.316-2.663c0.21-0.673,0.523-1.191,0.938-1.556
		c0.415-0.365,0.938-0.548,1.567-0.548c0.464,0,0.872,0.101,1.222,0.303c0.35,0.201,0.639,0.492,0.868,0.871
		c0.228,0.38,0.407,0.843,0.537,1.388s0.195,1.28,0.195,2.205c0,1.095-0.104,1.978-0.313,2.65c-0.208,0.672-0.521,1.192-0.936,1.559
		c-0.416,0.367-0.94,0.551-1.573,0.551c-0.834,0-1.49-0.322-1.966-0.968C35.204,41.684,34.919,40.42,34.919,38.668z M36.011,38.668
		c0,1.531,0.167,2.551,0.499,3.058s0.743,0.761,1.231,0.761c0.488,0,0.898-0.255,1.231-0.764c0.333-0.51,0.499-1.527,0.499-3.055
		c0-1.536-0.166-2.556-0.499-3.062c-0.333-0.504-0.747-0.757-1.243-0.757c-0.488,0-0.878,0.223-1.169,0.668
		C36.194,36.086,36.011,37.137,36.011,38.668z"/>
</g>
<g>
	<path fill="#FFFFFF" d="M17.867,26.532h1.049v3.032c0,0.48,0.013,0.793,0.039,0.936c0.045,0.229,0.152,0.412,0.321,0.552
		c0.169,0.139,0.399,0.208,0.692,0.208c0.297,0,0.522-0.065,0.673-0.197c0.151-0.131,0.242-0.292,0.273-0.482
		c0.031-0.191,0.046-0.508,0.046-0.951v-3.097h1.048v2.94c0,0.672-0.028,1.146-0.085,1.424s-0.161,0.512-0.313,0.703
		c-0.152,0.19-0.356,0.343-0.611,0.456s-0.588,0.17-0.999,0.17c-0.496,0-0.872-0.062-1.128-0.186
		c-0.256-0.123-0.458-0.283-0.607-0.481c-0.149-0.196-0.247-0.403-0.294-0.62c-0.069-0.32-0.103-0.794-0.103-1.42V26.532z"/>
	<path fill="#FFFFFF" d="M24.845,32.13v-1.126H22.72v-0.939l2.252-3.555h0.836v3.551h0.645v0.943h-0.645v1.126H24.845z
		 M24.845,30.061v-1.913l-1.193,1.913H24.845z"/>
	<path fill="#FFFFFF" d="M28.61,26.51c0.503,0,0.896,0.193,1.179,0.58c0.338,0.458,0.507,1.218,0.507,2.279
		c0,1.06-0.17,1.82-0.51,2.283c-0.281,0.382-0.673,0.573-1.176,0.573c-0.505,0-0.913-0.21-1.222-0.628
		c-0.309-0.419-0.464-1.165-0.464-2.239c0-1.055,0.17-1.813,0.51-2.276C27.715,26.7,28.107,26.51,28.61,26.51z M28.61,27.399
		c-0.121,0-0.228,0.041-0.322,0.124c-0.095,0.083-0.168,0.23-0.22,0.444c-0.068,0.278-0.103,0.745-0.103,1.401
		c0,0.657,0.03,1.108,0.092,1.354c0.062,0.246,0.139,0.409,0.232,0.491c0.093,0.081,0.2,0.122,0.321,0.122
		c0.12,0,0.228-0.042,0.322-0.124c0.094-0.083,0.167-0.231,0.22-0.445c0.068-0.274,0.103-0.74,0.103-1.397
		c0-0.656-0.031-1.107-0.092-1.354c-0.061-0.245-0.139-0.409-0.232-0.492S28.73,27.399,28.61,27.399z"/>
</g>
</svg>
