<?xml version="1.0" encoding="utf-8"?>
<!-- Generator: Adobe Illustrator 18.0.0, SVG Export Plug-In . SVG Version: 6.00 Build 0)  -->
<!DOCTYPE svg PUBLIC "-//W3C//DTD SVG 1.1//EN" "http://www.w3.org/Graphics/SVG/1.1/DTD/svg11.dtd">
<svg version="1.1" id="图层_1" xmlns="http://www.w3.org/2000/svg" xmlns:xlink="http://www.w3.org/1999/xlink" x="0px" y="0px"
	 width="32px" height="32px" viewBox="0 0 32 32" enable-background="new 0 0 32 32" xml:space="preserve">
<g>
	<path fill="#AAAAAA" d="M21.538,6H10.462c-4.604,0-8.337,3.733-8.337,8.337v3.326c0,4.604,3.733,8.337,8.337,8.337h11.076
		c4.604,0,8.337-3.733,8.337-8.337v-3.326C29.875,9.733,26.142,6,21.538,6L21.538,6z"/>
	<path fill="#ECECEC" d="M21.538,6.75c4.184,0,7.587,3.404,7.587,7.587v3.326c0,4.184-3.404,7.587-7.587,7.587H10.462
		c-4.184,0-7.587-3.404-7.587-7.587v-3.326c0-4.184,3.404-7.587,7.587-7.587H21.538"/>
	<rect x="9.968" y="6.731" fill="#AAAAAA" width="0.846" height="18.62"/>
	<rect x="21.937" y="6.731" fill="#AAAAAA" width="0.846" height="18.62"/>
</g>
</svg>
