<?xml version="1.0" encoding="utf-8"?>
<!-- Generator: Adobe Illustrator 18.0.0, SVG Export Plug-In . SVG Version: 6.00 Build 0)  -->
<!DOCTYPE svg PUBLIC "-//W3C//DTD SVG 1.1//EN" "http://www.w3.org/Graphics/SVG/1.1/DTD/svg11.dtd">
<svg version="1.1" id="图层_1" xmlns="http://www.w3.org/2000/svg" xmlns:xlink="http://www.w3.org/1999/xlink" x="0px" y="0px"
	 width="42px" height="42px" viewBox="0 0 42 42" enable-background="new 0 0 42 42" xml:space="preserve">
<path fill="none" stroke="#C6C6C6" stroke-width="1.1401" stroke-miterlimit="10" d="M1.047,38.517V3.483
	C1.047,2.112,2.159,1,3.531,1h34.939c1.371,0,2.483,1.112,2.483,2.483v35.034c0,1.371-1.111,2.483-2.483,2.483H3.531
	C2.159,41,1.047,39.888,1.047,38.517z"/>
<linearGradient id="SVGID_1_" gradientUnits="userSpaceOnUse" x1="21" y1="39.0998" x2="21" y2="2.7101">
	<stop  offset="0" style="stop-color:#00AEF9"/>
	<stop  offset="1" style="stop-color:#0092E1"/>
</linearGradient>
<path fill="url(#SVGID_1_)" d="M37.722,39.1H4.278c-0.84,0-1.52-0.681-1.52-1.52V4.23c0-0.84,0.681-1.52,1.52-1.52h33.444
	c0.84,0,1.52,0.681,1.52,1.52V37.58C39.242,38.419,38.562,39.1,37.722,39.1z"/>
<g>
	<path fill="#FFFFFF" d="M5.221,35.672v-9.66h3.881v1.396H6.709v2.532h1.725v1.396H6.709v4.335H5.221z"/>
	<path fill="#FFFFFF" d="M9.102,26.012h1.422l0.662,5.726c0.031,0.289,0.055,0.557,0.07,0.802s0.023,0.483,0.023,0.715v0.187
		c0.004-0.124,0.014-0.3,0.027-0.527c0.039-0.766,0.07-1.223,0.092-1.369l0.742-5.532h1.27l0.795,5.719
		c0.031,0.223,0.057,0.477,0.074,0.762s0.025,0.602,0.025,0.948c0-0.062,0.006-0.155,0.014-0.28c0.041-0.811,0.076-1.35,0.107-1.616
		l0.615-5.532h1.408l-1.502,9.66h-1.25l-0.814-5.604c-0.031-0.219-0.057-0.475-0.074-0.769s-0.027-0.61-0.027-0.948
		c-0.025,0.525-0.049,0.946-0.068,1.263c-0.021,0.315-0.037,0.527-0.051,0.634l-0.795,5.425h-1.242L9.102,26.012z"/>
	<path fill="#FFFFFF" d="M16.477,28.177v-0.976c0.383-0.134,0.711-0.298,0.982-0.494s0.496-0.428,0.674-0.695h0.996v9.66h-1.477
		v-7.495H16.477z"/>
	<path fill="#FFFFFF" d="M25.148,33.233c0,0.842-0.195,1.493-0.588,1.954s-0.945,0.691-1.656,0.691c-0.723,0-1.271-0.229-1.65-0.688
		c-0.379-0.459-0.568-1.125-0.568-1.998v-4.95c0-0.762,0.201-1.358,0.605-1.79c0.402-0.432,0.957-0.648,1.666-0.648
		c0.668,0,1.201,0.224,1.598,0.672c0.395,0.447,0.594,1.05,0.594,1.807v0.301h-1.463v-0.628c0-0.228-0.072-0.412-0.215-0.555
		s-0.326-0.214-0.553-0.214c-0.225,0-0.408,0.07-0.553,0.211c-0.145,0.14-0.217,0.321-0.217,0.544v2.379
		c0.188-0.196,0.398-0.348,0.635-0.454c0.236-0.107,0.48-0.161,0.734-0.161c0.518,0,0.918,0.164,1.203,0.491s0.428,0.79,0.428,1.387
		V33.233z M22.148,31.61v1.997c0,0.272,0.074,0.49,0.221,0.655s0.338,0.247,0.574,0.247c0.227,0,0.408-0.08,0.541-0.24
		c0.135-0.161,0.201-0.381,0.201-0.662V31.73c0-0.236-0.059-0.42-0.174-0.551c-0.115-0.132-0.273-0.197-0.475-0.197
		c-0.164,0-0.324,0.055-0.477,0.164C22.406,31.255,22.27,31.41,22.148,31.61z"/>
	<path fill="#FFFFFF" d="M26.197,28.243c0-0.762,0.199-1.358,0.598-1.79s0.951-0.648,1.66-0.648c0.672,0,1.205,0.223,1.6,0.668
		s0.592,1.049,0.592,1.811v4.95c0,0.847-0.195,1.499-0.582,1.958c-0.387,0.458-0.938,0.688-1.65,0.688
		c-0.721,0-1.271-0.229-1.65-0.688c-0.379-0.459-0.566-1.125-0.566-1.998V28.243z M27.58,33.607c0,0.272,0.074,0.49,0.227,0.655
		c0.15,0.165,0.352,0.247,0.602,0.247c0.238,0,0.426-0.08,0.564-0.24c0.141-0.161,0.213-0.381,0.217-0.662v-5.651
		c0-0.228-0.074-0.412-0.223-0.555s-0.344-0.214-0.586-0.214c-0.232,0-0.424,0.071-0.574,0.214
		c-0.152,0.143-0.227,0.323-0.227,0.541V33.607z"/>
	<path fill="#FFFFFF" d="M31.748,28.243c0-0.762,0.199-1.358,0.598-1.79s0.953-0.648,1.66-0.648c0.672,0,1.207,0.223,1.6,0.668
		c0.395,0.445,0.592,1.049,0.592,1.811v4.95c0,0.847-0.193,1.499-0.58,1.958c-0.389,0.458-0.939,0.688-1.65,0.688
		c-0.723,0-1.271-0.229-1.65-0.688c-0.379-0.459-0.568-1.125-0.568-1.998V28.243z M33.131,33.607c0,0.272,0.076,0.49,0.227,0.655
		s0.352,0.247,0.604,0.247c0.236,0,0.424-0.08,0.564-0.24c0.139-0.161,0.211-0.381,0.215-0.662v-5.651
		c0-0.228-0.074-0.412-0.223-0.555s-0.344-0.214-0.586-0.214c-0.23,0-0.424,0.071-0.574,0.214s-0.227,0.323-0.227,0.541V33.607z"/>
</g>
<g>
	<polygon fill="#FFFFFF" points="29.98,5.295 33.472,8.179 33.472,16.228 29.98,19.112 	"/>
	<polygon fill="#FFFFFF" points="12.02,19.112 8.528,16.228 8.528,8.179 12.02,5.295 	"/>
	<g>
		<polygon fill="#FFFFFF" points="16.713,19.016 14.222,16.425 16.713,13.834 		"/>
		<polygon fill="#FFFFFF" points="25.287,19.016 27.778,16.425 25.287,13.834 		"/>
		<rect x="16.086" y="15.345" fill="#FFFFFF" width="10.167" height="2.16"/>
	</g>
	<g>
		<polygon fill="#FFFFFF" points="16.713,11.052 14.222,8.461 16.713,5.87 		"/>
		<polygon fill="#FFFFFF" points="25.287,11.052 27.778,8.461 25.287,5.87 		"/>
		<rect x="16.086" y="7.381" fill="#FFFFFF" width="10.167" height="2.16"/>
	</g>
</g>
</svg>
