<?xml version="1.0" encoding="utf-8"?>
<!-- Generator: Adobe Illustrator 18.0.0, SVG Export Plug-In . SVG Version: 6.00 Build 0)  -->
<!DOCTYPE svg PUBLIC "-//W3C//DTD SVG 1.1//EN" "http://www.w3.org/Graphics/SVG/1.1/DTD/svg11.dtd">
<svg version="1.1" id="图层_1" xmlns="http://www.w3.org/2000/svg" xmlns:xlink="http://www.w3.org/1999/xlink" x="0px" y="0px"
	 width="42px" height="42px" viewBox="0 0 42 42" enable-background="new 0 0 42 42" xml:space="preserve">
<path fill="none" stroke="#C6C6C6" stroke-width="1.1401" stroke-miterlimit="10" d="M1.047,38.517V3.483
	C1.047,2.112,2.159,1,3.531,1h34.939c1.371,0,2.483,1.112,2.483,2.483v35.034c0,1.371-1.111,2.483-2.483,2.483H3.531
	C2.159,41,1.047,39.888,1.047,38.517z"/>
<linearGradient id="SVGID_1_" gradientUnits="userSpaceOnUse" x1="21.095" y1="39.0998" x2="21.095" y2="2.7101">
	<stop  offset="0" style="stop-color:#76797A"/>
	<stop  offset="1" style="stop-color:#5F6263"/>
</linearGradient>
<path fill="url(#SVGID_1_)" d="M37.817,39.1H4.373c-0.84,0-1.52-0.681-1.52-1.52V4.23c0-0.84,0.681-1.52,1.52-1.52h33.444
	c0.84,0,1.52,0.681,1.52,1.52V37.58C39.337,38.419,38.657,39.1,37.817,39.1z"/>
<g>
	<polygon fill="#D5D6D6" points="29.98,5.295 33.472,8.179 33.472,16.228 29.98,19.112 	"/>
	<polygon fill="#D5D6D6" points="12.02,19.112 8.528,16.228 8.528,8.179 12.02,5.295 	"/>
	<g>
		<polygon fill="#D5D6D6" points="16.713,19.016 14.222,16.425 16.713,13.834 		"/>
		<polygon fill="#D5D6D6" points="25.287,19.016 27.778,16.425 25.287,13.834 		"/>
		<rect x="16.086" y="15.345" fill="#D5D6D6" width="10.167" height="2.16"/>
	</g>
	<g>
		<polygon fill="#D5D6D6" points="16.713,11.052 14.222,8.461 16.713,5.87 		"/>
		<polygon fill="#D5D6D6" points="25.287,11.052 27.778,8.461 25.287,5.87 		"/>
		<rect x="16.086" y="7.381" fill="#D5D6D6" width="10.167" height="2.16"/>
	</g>
</g>
<g>
	<path fill="#FFFFFF" d="M5.315,35.67v-9.66h3.882v1.396H6.805v2.532h1.724v1.396H6.805v4.336H5.315z"/>
	<path fill="#FFFFFF" d="M9.196,26.01h1.423l0.662,5.726c0.031,0.289,0.054,0.557,0.07,0.802c0.015,0.244,0.023,0.483,0.023,0.715
		v0.187c0.004-0.124,0.014-0.301,0.027-0.527c0.04-0.767,0.071-1.223,0.094-1.37l0.741-5.531h1.27l0.795,5.719
		c0.031,0.223,0.056,0.477,0.074,0.762c0.018,0.285,0.026,0.601,0.026,0.948c0-0.063,0.004-0.155,0.014-0.28
		c0.04-0.811,0.076-1.35,0.107-1.617l0.614-5.531h1.41l-1.503,9.66h-1.25l-0.815-5.605c-0.031-0.218-0.056-0.474-0.073-0.768
		c-0.018-0.294-0.027-0.61-0.027-0.949c-0.027,0.526-0.05,0.947-0.07,1.263c-0.02,0.316-0.037,0.528-0.05,0.635l-0.795,5.425H10.72
		L9.196,26.01z"/>
	<path fill="#FFFFFF" d="M16.572,28.175v-0.976c0.383-0.134,0.71-0.299,0.982-0.494c0.272-0.196,0.497-0.428,0.675-0.695h0.996v9.66
		h-1.477v-7.495H16.572z"/>
	<path fill="#FFFFFF" d="M25.243,33.231c0,0.842-0.196,1.493-0.588,1.954c-0.392,0.461-0.944,0.691-1.657,0.691
		c-0.722,0-1.272-0.229-1.65-0.688c-0.378-0.458-0.568-1.124-0.568-1.997v-4.95c0-0.762,0.202-1.358,0.605-1.79
		c0.403-0.433,0.958-0.648,1.667-0.648c0.668,0,1.2,0.224,1.597,0.672c0.396,0.447,0.595,1.05,0.595,1.807v0.301H23.78v-0.628
		c0-0.228-0.071-0.412-0.213-0.555c-0.143-0.143-0.328-0.214-0.555-0.214c-0.223,0-0.406,0.07-0.551,0.211
		c-0.145,0.14-0.217,0.321-0.217,0.544v2.378c0.187-0.195,0.398-0.347,0.634-0.454c0.236-0.106,0.481-0.16,0.735-0.16
		c0.517,0,0.917,0.164,1.203,0.491s0.428,0.789,0.428,1.386V33.231z M22.244,31.608v1.997c0,0.271,0.073,0.49,0.22,0.655
		c0.147,0.164,0.338,0.247,0.575,0.247c0.227,0,0.407-0.08,0.541-0.241c0.134-0.16,0.2-0.381,0.2-0.661v-1.877
		c0-0.236-0.058-0.42-0.173-0.551c-0.116-0.132-0.274-0.197-0.475-0.197c-0.165,0-0.324,0.055-0.478,0.163
		C22.5,31.253,22.364,31.408,22.244,31.608z"/>
	<path fill="#FFFFFF" d="M26.292,28.241c0-0.762,0.199-1.358,0.598-1.79c0.398-0.433,0.952-0.648,1.66-0.648
		c0.672,0,1.206,0.223,1.6,0.668c0.395,0.445,0.591,1.049,0.591,1.811v4.95c0,0.847-0.193,1.499-0.581,1.957
		c-0.388,0.459-0.938,0.688-1.65,0.688c-0.722,0-1.272-0.229-1.65-0.688c-0.378-0.458-0.568-1.124-0.568-1.997V28.241z
		 M27.675,33.605c0,0.271,0.076,0.49,0.227,0.655c0.151,0.164,0.352,0.247,0.603,0.247c0.237,0,0.425-0.08,0.564-0.241
		c0.14-0.16,0.211-0.381,0.216-0.661v-5.651c0-0.228-0.075-0.412-0.223-0.555c-0.149-0.143-0.344-0.214-0.585-0.214
		c-0.232,0-0.424,0.071-0.575,0.214s-0.227,0.323-0.227,0.541V33.605z"/>
	<path fill="#FFFFFF" d="M31.843,28.241c0-0.762,0.199-1.358,0.598-1.79c0.398-0.433,0.952-0.648,1.66-0.648
		c0.672,0,1.206,0.223,1.6,0.668c0.395,0.445,0.591,1.049,0.591,1.811v4.95c0,0.847-0.193,1.499-0.581,1.957
		c-0.388,0.459-0.938,0.688-1.65,0.688c-0.722,0-1.272-0.229-1.65-0.688c-0.378-0.458-0.568-1.124-0.568-1.997V28.241z
		 M33.226,33.605c0,0.271,0.076,0.49,0.227,0.655c0.151,0.164,0.352,0.247,0.603,0.247c0.237,0,0.425-0.08,0.564-0.241
		c0.14-0.16,0.211-0.381,0.216-0.661v-5.651c0-0.228-0.075-0.412-0.223-0.555c-0.149-0.143-0.344-0.214-0.585-0.214
		c-0.232,0-0.424,0.071-0.575,0.214s-0.227,0.323-0.227,0.541V33.605z"/>
</g>
</svg>
