<?xml version="1.0" encoding="utf-8"?>
<!-- Generator: Adobe Illustrator 18.0.0, SVG Export Plug-In . SVG Version: 6.00 Build 0)  -->
<!DOCTYPE svg PUBLIC "-//W3C//DTD SVG 1.1//EN" "http://www.w3.org/Graphics/SVG/1.1/DTD/svg11.dtd">
<svg version="1.1" id="图层_1" xmlns="http://www.w3.org/2000/svg" xmlns:xlink="http://www.w3.org/1999/xlink" x="0px" y="0px"
	 width="36px" height="36px" viewBox="0 0 36 36" enable-background="new 0 0 36 36" xml:space="preserve">
<g>
	<path fill="#FFFFFF" d="M2.386,35.523c-1.053,0-1.908-0.856-1.908-1.908V2.385c0-1.052,0.855-1.908,1.908-1.908h31.229
		c1.053,0,1.908,0.856,1.908,1.908v31.229c0,1.052-0.855,1.908-1.908,1.908H2.386z"/>
	<path fill="#AFAFAF" d="M33.615,0.954c0.789,0,1.431,0.642,1.431,1.431v31.229c0,0.789-0.642,1.431-1.431,1.431H2.385
		c-0.789,0-1.431-0.642-1.431-1.431V2.385c0-0.789,0.642-1.431,1.431-1.431H33.615 M33.615,0H2.385C1.068,0,0,1.068,0,2.385v31.229
		C0,34.932,1.068,36,2.385,36h31.229C34.932,36,36,34.932,36,33.615V2.385C36,1.068,34.932,0,33.615,0L33.615,0z"/>
</g>
<g>
	<linearGradient id="SVGID_1_" gradientUnits="userSpaceOnUse" x1="17.9995" y1="33.9432" x2="17.9995" y2="2.0565">
		<stop  offset="0" style="stop-color:#00AEF9"/>
		<stop  offset="1" style="stop-color:#0092E1"/>
	</linearGradient>
	<path fill="url(#SVGID_1_)" d="M2.385,33.943c-0.181,0-0.329-0.148-0.329-0.329V2.385c0-0.181,0.148-0.329,0.329-0.329h31.23
		c0.181,0,0.328,0.148,0.328,0.329v31.229c0,0.181-0.147,0.329-0.328,0.329H2.385z"/>
</g>
<g>
	<path fill="#FFFFFF" d="M5.254,31.045v-7.363h4.607v0.869H6.157v2.28h3.206v0.869H6.157v3.345H5.254z"/>
	<path fill="#FFFFFF" d="M15.909,28.464l0.904,0.246c-0.189,0.8-0.53,1.411-1.022,1.831c-0.492,0.42-1.095,0.63-1.806,0.63
		c-0.736,0-1.335-0.162-1.796-0.484c-0.462-0.323-0.813-0.791-1.054-1.404c-0.24-0.613-0.36-1.271-0.36-1.974
		c0-0.767,0.136-1.436,0.407-2.006s0.658-1.004,1.16-1.301s1.054-0.444,1.656-0.444c0.684,0,1.258,0.188,1.725,0.563
		c0.466,0.375,0.79,0.902,0.974,1.582l-0.891,0.226c-0.158-0.536-0.388-0.926-0.689-1.17c-0.301-0.244-0.68-0.367-1.137-0.367
		c-0.524,0-0.964,0.136-1.316,0.407c-0.353,0.271-0.6,0.635-0.743,1.092c-0.143,0.457-0.214,0.928-0.214,1.414
		c0,0.626,0.084,1.173,0.254,1.64c0.169,0.467,0.433,0.816,0.79,1.047c0.356,0.231,0.743,0.347,1.16,0.347
		c0.506,0,0.935-0.158,1.285-0.472C15.548,29.55,15.785,29.083,15.909,28.464z"/>
	<path fill="#FFFFFF" d="M20.274,31.045v-1.763h-2.963v-0.829l3.117-4.771h0.685v4.771h0.923v0.829h-0.923v1.763H20.274z
		 M20.274,28.454v-3.32l-2.138,3.32H20.274z"/>
	<path fill="#FFFFFF" d="M22.894,27.414c0-0.87,0.083-1.571,0.249-2.102s0.413-0.94,0.74-1.228c0.328-0.288,0.74-0.432,1.237-0.432
		c0.366,0,0.688,0.08,0.965,0.239s0.505,0.389,0.685,0.688c0.181,0.3,0.321,0.665,0.424,1.095c0.103,0.431,0.154,1.011,0.154,1.74
		c0,0.864-0.083,1.562-0.247,2.092c-0.165,0.531-0.411,0.941-0.738,1.23c-0.328,0.29-0.742,0.435-1.242,0.435
		c-0.658,0-1.176-0.254-1.552-0.763C23.118,29.795,22.894,28.797,22.894,27.414z M23.755,27.414c0,1.209,0.132,2.013,0.394,2.414
		c0.263,0.4,0.587,0.6,0.972,0.6s0.709-0.201,0.972-0.603c0.263-0.402,0.394-1.206,0.394-2.411c0-1.212-0.131-2.017-0.394-2.416
		s-0.59-0.598-0.98-0.598c-0.386,0-0.693,0.176-0.923,0.527C23.899,25.377,23.755,26.206,23.755,27.414z"/>
	<path fill="#FFFFFF" d="M28.201,27.414c0-0.87,0.083-1.571,0.249-2.102s0.413-0.94,0.74-1.228c0.328-0.288,0.74-0.432,1.237-0.432
		c0.366,0,0.688,0.08,0.965,0.239s0.505,0.389,0.685,0.688c0.181,0.3,0.321,0.665,0.424,1.095c0.103,0.431,0.154,1.011,0.154,1.74
		c0,0.864-0.083,1.562-0.247,2.092c-0.165,0.531-0.411,0.941-0.738,1.23c-0.328,0.29-0.742,0.435-1.242,0.435
		c-0.658,0-1.176-0.254-1.552-0.763C28.426,29.795,28.201,28.797,28.201,27.414z M29.063,27.414c0,1.209,0.132,2.013,0.394,2.414
		c0.263,0.4,0.587,0.6,0.972,0.6s0.709-0.201,0.972-0.603c0.263-0.402,0.394-1.206,0.394-2.411c0-1.212-0.131-2.017-0.394-2.416
		s-0.59-0.598-0.98-0.598c-0.386,0-0.693,0.176-0.923,0.527C29.207,25.377,29.063,26.206,29.063,27.414z"/>
</g>
<g>
	<g>
		<g>
			<polygon fill="#F5F5F5" points="7.034,7.688 9.861,5.353 9.861,10.024 			"/>
			<path fill="#F5F5F5" d="M17.531,13.378c-1.439-1.699-2.361-2.876-2.818-3.592c-0.619-0.973-1.096-1.149-1.258-1.16L9.174,8.651
				V6.666h3.983c0.541-0.079,1.901-0.033,3.231,2.054c0.277,0.435,0.962,1.374,2.657,3.377L17.531,13.378z"/>
		</g>
		<g>
			<polygon fill="#F5F5F5" points="28.965,16.888 26.138,19.223 26.138,14.552 			"/>
			<path fill="#F5F5F5" d="M18.468,11.198c1.439,1.699,2.361,2.876,2.818,3.592c0.619,0.973,1.096,1.149,1.258,1.16l4.282-0.025
				v1.984h-3.983c-0.541,0.079-1.901,0.033-3.231-2.054c-0.277-0.435-0.962-1.374-2.657-3.377L18.468,11.198z"/>
		</g>
	</g>
	<g>
		<g>
			<polygon fill="#F5F5F5" points="28.965,7.688 26.138,5.353 26.138,10.024 			"/>
			<path fill="#F5F5F5" d="M18.468,13.378c1.439-1.699,2.361-2.876,2.818-3.592c0.619-0.973,1.096-1.149,1.258-1.16l4.282,0.025
				V6.666h-3.983c-0.541-0.079-1.901-0.033-3.231,2.054c-0.277,0.435-0.962,1.374-2.657,3.377L18.468,13.378z"/>
		</g>
		<g>
			<polygon fill="#F5F5F5" points="7.034,16.888 9.861,19.223 9.861,14.552 			"/>
			<path fill="#F5F5F5" d="M17.531,11.198c-1.439,1.699-2.361,2.876-2.818,3.592c-0.619,0.973-1.096,1.149-1.258,1.16l-4.282-0.025
				v1.984h3.983c0.541,0.079,1.901,0.033,3.231-2.054c0.277-0.435,0.962-1.374,2.657-3.377L17.531,11.198z"/>
		</g>
	</g>
</g>
</svg>
