<?xml version="1.0" encoding="utf-8"?>
<!-- Generator: Adobe Illustrator 18.0.0, SVG Export Plug-In . SVG Version: 6.00 Build 0)  -->
<!DOCTYPE svg PUBLIC "-//W3C//DTD SVG 1.1//EN" "http://www.w3.org/Graphics/SVG/1.1/DTD/svg11.dtd">
<svg version="1.1" id="图层_1" xmlns="http://www.w3.org/2000/svg" xmlns:xlink="http://www.w3.org/1999/xlink" x="0px" y="0px"
	 width="42px" height="42px" viewBox="0 0 42 42" enable-background="new 0 0 42 42" xml:space="preserve">
<g>
	<path fill="#FFFFFF" d="M3.65,40.47c-1.169,0-2.12-0.951-2.12-2.12V3.65c0-1.169,0.951-2.12,2.12-2.12H38.35
		c1.169,0,2.12,0.951,2.12,2.12V38.35c0,1.169-0.951,2.12-2.12,2.12H3.65z"/>
	<path fill="#AFAFAF" d="M38.35,2.06c0.877,0,1.59,0.713,1.59,1.59V38.35c0,0.877-0.713,1.59-1.59,1.59H3.65
		c-0.877,0-1.59-0.713-1.59-1.59V3.65c0-0.877,0.713-1.59,1.59-1.59H38.35 M38.35,1H3.65C2.187,1,1,2.187,1,3.65V38.35
		C1,39.813,2.187,41,3.65,41H38.35c1.464,0,2.65-1.187,2.65-2.65V3.65C41,2.187,39.813,1,38.35,1L38.35,1z"/>
</g>
<g>
	<linearGradient id="SVGID_1_" gradientUnits="userSpaceOnUse" x1="20.9994" y1="38.7147" x2="20.9994" y2="3.285">
		<stop  offset="0" style="stop-color:#2CA539"/>
		<stop  offset="1" style="stop-color:#009117"/>
	</linearGradient>
	<path fill="url(#SVGID_1_)" d="M3.65,38.715c-0.201,0-0.366-0.165-0.366-0.366V3.651c0-0.201,0.165-0.366,0.366-0.366h34.7
		c0.201,0,0.364,0.165,0.364,0.366v34.699c0,0.201-0.163,0.366-0.364,0.366H3.65z"/>
</g>
<g>
	<g>
		<g>
			<polygon fill="#F5F5F5" points="8.816,9.543 11.957,6.948 11.957,12.138 			"/>
			<path fill="#F5F5F5" d="M20.479,15.864c-1.599-1.888-2.623-3.195-3.131-3.992c-0.687-1.081-1.218-1.276-1.398-1.289l-4.757,0.028
				V8.407h4.425c0.601-0.088,2.113-0.037,3.59,2.282c0.308,0.483,1.069,1.527,2.952,3.752L20.479,15.864z"/>
		</g>
		<g>
			<polygon fill="#F5F5F5" points="33.183,19.764 30.042,22.359 30.042,17.169 			"/>
			<path fill="#F5F5F5" d="M21.52,13.442c1.599,1.888,2.623,3.195,3.131,3.992c0.687,1.081,1.218,1.276,1.398,1.289l4.757-0.028
				V20.9H26.38c-0.601,0.088-2.113,0.037-3.59-2.282c-0.308-0.483-1.069-1.527-2.952-3.752L21.52,13.442z"/>
		</g>
	</g>
	<g>
		<g>
			<polygon fill="#F5F5F5" points="33.183,9.543 30.042,6.948 30.042,12.138 			"/>
			<path fill="#F5F5F5" d="M21.52,15.864c1.599-1.888,2.623-3.195,3.131-3.992c0.687-1.081,1.218-1.276,1.398-1.289l4.757,0.028
				V8.407H26.38c-0.601-0.088-2.113-0.037-3.59,2.282c-0.308,0.483-1.069,1.527-2.952,3.752L21.52,15.864z"/>
		</g>
		<g>
			<polygon fill="#F5F5F5" points="8.816,19.764 11.957,22.359 11.957,17.169 			"/>
			<path fill="#F5F5F5" d="M20.479,13.442c-1.599,1.888-2.623,3.195-3.131,3.992c-0.687,1.081-1.218,1.276-1.398,1.289l-4.757-0.028
				V20.9h4.425c0.601,0.088,2.113,0.037,3.59-2.282c0.308-0.483,1.069-1.527,2.952-3.752L20.479,13.442z"/>
		</g>
	</g>
</g>
<g>
	<path fill="#FFFFFF" d="M8.255,35.497v-8.181h4.608v0.965H9.159v2.533h3.206v0.966H9.159v3.716H8.255z"/>
	<path fill="#FFFFFF" d="M13.697,33.354l0.881-0.089c0.065,0.513,0.216,0.899,0.454,1.158c0.238,0.259,0.524,0.388,0.86,0.388
		c0.404,0,0.746-0.182,1.025-0.547c0.28-0.364,0.419-0.848,0.419-1.451c0-0.573-0.134-1.025-0.403-1.356
		c-0.269-0.331-0.621-0.497-1.056-0.497c-0.27,0-0.514,0.073-0.731,0.22s-0.388,0.337-0.513,0.572l-0.787-0.123l0.662-4.202h3.396
		v0.96h-2.726l-0.368,2.199c0.41-0.342,0.84-0.514,1.291-0.514c0.597,0,1.1,0.248,1.51,0.742c0.41,0.495,0.615,1.131,0.615,1.909
		c0,0.74-0.18,1.38-0.541,1.919c-0.438,0.663-1.036,0.994-1.794,0.994c-0.622,0-1.128-0.208-1.521-0.625
		C13.978,34.595,13.753,34.042,13.697,33.354z"/>
	<path fill="#FFFFFF" d="M19.004,31.462c0-0.967,0.083-1.746,0.25-2.335c0.166-0.589,0.413-1.044,0.741-1.364s0.74-0.48,1.237-0.48
		c0.366,0,0.688,0.088,0.964,0.265c0.275,0.177,0.504,0.432,0.684,0.765c0.182,0.333,0.322,0.738,0.426,1.216
		c0.102,0.478,0.152,1.123,0.152,1.934c0,0.96-0.082,1.735-0.246,2.324c-0.164,0.59-0.412,1.045-0.738,1.367
		c-0.328,0.322-0.742,0.483-1.242,0.483c-0.659,0-1.176-0.283-1.552-0.848C19.229,34.107,19.004,32.999,19.004,31.462z
		 M19.867,31.462c0,1.343,0.131,2.237,0.394,2.682c0.262,0.444,0.586,0.667,0.972,0.667c0.385,0,0.709-0.223,0.97-0.669
		c0.264-0.446,0.395-1.339,0.395-2.679c0-1.347-0.131-2.241-0.395-2.684c-0.261-0.443-0.588-0.664-0.979-0.664
		c-0.385,0-0.693,0.195-0.923,0.586C20.011,29.199,19.867,30.12,19.867,31.462z"/>
	<path fill="#FFFFFF" d="M24.312,31.462c0-0.967,0.083-1.746,0.249-2.335c0.166-0.589,0.413-1.044,0.741-1.364
		c0.327-0.32,0.739-0.48,1.236-0.48c0.367,0,0.688,0.088,0.965,0.265s0.505,0.432,0.685,0.765c0.181,0.333,0.322,0.738,0.425,1.216
		s0.153,1.123,0.153,1.934c0,0.96-0.082,1.735-0.247,2.324c-0.164,0.59-0.411,1.045-0.738,1.367
		c-0.328,0.322-0.742,0.483-1.242,0.483c-0.658,0-1.176-0.283-1.552-0.848C24.536,34.107,24.312,32.999,24.312,31.462z
		 M25.173,31.462c0,1.343,0.132,2.237,0.394,2.682c0.263,0.444,0.587,0.667,0.972,0.667c0.386,0,0.709-0.223,0.972-0.669
		s0.394-1.339,0.394-2.679c0-1.347-0.131-2.241-0.394-2.684s-0.589-0.664-0.98-0.664c-0.386,0-0.693,0.195-0.923,0.586
		C25.317,29.199,25.173,30.12,25.173,31.462z"/>
	<path fill="#FFFFFF" d="M29.619,31.462c0-0.967,0.083-1.746,0.249-2.335c0.166-0.589,0.413-1.044,0.741-1.364
		c0.327-0.32,0.739-0.48,1.236-0.48c0.367,0,0.688,0.088,0.965,0.265s0.505,0.432,0.685,0.765c0.181,0.333,0.322,0.738,0.425,1.216
		s0.153,1.123,0.153,1.934c0,0.96-0.082,1.735-0.247,2.324c-0.164,0.59-0.411,1.045-0.738,1.367
		c-0.328,0.322-0.742,0.483-1.242,0.483c-0.658,0-1.176-0.283-1.552-0.848C29.844,34.107,29.619,32.999,29.619,31.462z
		 M30.48,31.462c0,1.343,0.132,2.237,0.394,2.682c0.263,0.444,0.587,0.667,0.972,0.667c0.386,0,0.709-0.223,0.972-0.669
		s0.394-1.339,0.394-2.679c0-1.347-0.131-2.241-0.394-2.684s-0.589-0.664-0.98-0.664c-0.386,0-0.693,0.195-0.923,0.586
		C30.625,29.199,30.48,30.12,30.48,31.462z"/>
</g>
</svg>
