<?xml version="1.0" encoding="utf-8"?>
<!-- Generator: Adobe Illustrator 18.0.0, SVG Export Plug-In . SVG Version: 6.00 Build 0)  -->
<!DOCTYPE svg PUBLIC "-//W3C//DTD SVG 1.1//EN" "http://www.w3.org/Graphics/SVG/1.1/DTD/svg11.dtd">
<svg version="1.1" id="图层_1" xmlns="http://www.w3.org/2000/svg" xmlns:xlink="http://www.w3.org/1999/xlink" x="0px" y="0px"
	 width="36px" height="36px" viewBox="0 0 36 36" enable-background="new 0 0 36 36" xml:space="preserve">
<g>
	<path fill="#FFFFFF" d="M2.385,35.522c-1.052,0-1.908-0.855-1.908-1.908V2.385c0-1.052,0.856-1.908,1.908-1.908h31.229
		c1.052,0,1.908,0.856,1.908,1.908v31.229c0,1.053-0.856,1.908-1.908,1.908H2.385z"/>
	<path fill="#AFAFAF" d="M33.615,0.954c0.789,0,1.431,0.642,1.431,1.431v31.229c0,0.789-0.642,1.431-1.431,1.431H2.385
		c-0.789,0-1.431-0.642-1.431-1.431V2.385c0-0.789,0.642-1.431,1.431-1.431H33.615 M33.615,0H2.385C1.068,0,0,1.068,0,2.385v31.229
		C0,34.932,1.068,36,2.385,36h31.229C34.932,36,36,34.932,36,33.615V2.385C36,1.068,34.932,0,33.615,0L33.615,0z"/>
</g>
<g>
	<linearGradient id="SVGID_1_" gradientUnits="userSpaceOnUse" x1="17.9995" y1="33.9432" x2="17.9995" y2="2.0565">
		<stop  offset="0" style="stop-color:#F1E821"/>
		<stop  offset="1" style="stop-color:#D6B900"/>
	</linearGradient>
	<path fill="url(#SVGID_1_)" d="M2.385,33.943c-0.181,0-0.329-0.148-0.329-0.329V2.385c0-0.181,0.148-0.329,0.329-0.329h31.23
		c0.181,0,0.328,0.148,0.328,0.329v31.229c0,0.181-0.147,0.329-0.328,0.329H2.385z"/>
</g>
<g>
	<path fill="#A37C00" d="M4.275,31.046v-7.362h4.414v0.868H5.141v2.28h3.071v0.869H5.141v3.345H4.275z"/>
	<path fill="#A37C00" d="M14.482,28.465l0.866,0.246c-0.182,0.8-0.508,1.41-0.98,1.83s-1.048,0.631-1.729,0.631
		c-0.705,0-1.279-0.162-1.72-0.485c-0.442-0.323-0.778-0.791-1.009-1.403c-0.231-0.613-0.346-1.271-0.346-1.974
		c0-0.767,0.13-1.436,0.391-2.007c0.26-0.57,0.631-1.004,1.111-1.301c0.48-0.296,1.009-0.444,1.587-0.444
		c0.654,0,1.205,0.188,1.651,0.563s0.757,0.902,0.933,1.582l-0.853,0.226c-0.151-0.535-0.372-0.926-0.661-1.17
		s-0.651-0.366-1.089-0.366c-0.503,0-0.923,0.136-1.261,0.406c-0.338,0.271-0.575,0.636-0.712,1.093s-0.206,0.928-0.206,1.414
		c0,0.626,0.081,1.172,0.244,1.64c0.162,0.467,0.414,0.815,0.756,1.047s0.712,0.347,1.111,0.347c0.485,0,0.896-0.157,1.232-0.473
		C14.136,29.551,14.364,29.084,14.482,28.465z"/>
	<path fill="#A37C00" d="M16.107,27.46c0-1.222,0.263-2.179,0.788-2.87s1.203-1.037,2.033-1.037c0.543,0,1.034,0.162,1.47,0.487
		c0.437,0.324,0.77,0.777,0.999,1.358s0.343,1.239,0.343,1.977c0,0.746-0.121,1.414-0.361,2.004
		c-0.241,0.589-0.583,1.035-1.024,1.338s-0.919,0.455-1.43,0.455c-0.555,0-1.05-0.168-1.486-0.503s-0.768-0.792-0.992-1.371
		C16.22,28.719,16.107,28.106,16.107,27.46z M16.911,27.475c0,0.888,0.191,1.587,0.572,2.098c0.382,0.51,0.86,0.766,1.437,0.766
		c0.586,0,1.069-0.258,1.448-0.773c0.379-0.516,0.569-1.247,0.569-2.195c0-0.599-0.081-1.122-0.243-1.569
		c-0.162-0.446-0.399-0.793-0.711-1.039s-0.663-0.369-1.051-0.369c-0.552,0-1.026,0.236-1.424,0.71
		C17.11,25.576,16.911,26.367,16.911,27.475z"/>
	<path fill="#A37C00" d="M24.243,31.046v-6.494h-1.94v-0.868h4.668v0.868h-1.948v6.494H24.243z"/>
	<path fill="#A37C00" d="M27.77,31.046v-7.362h2.222c0.391,0,0.689,0.023,0.896,0.07c0.29,0.06,0.532,0.175,0.727,0.344
		c0.196,0.169,0.353,0.406,0.472,0.711s0.179,0.639,0.179,1.004c0,0.626-0.159,1.156-0.478,1.59s-0.895,0.65-1.728,0.65h-1.51v2.993
		H27.77z M28.549,27.184h1.522c0.503,0,0.861-0.117,1.073-0.352c0.211-0.234,0.317-0.564,0.317-0.989
		c0-0.308-0.063-0.571-0.187-0.791s-0.289-0.364-0.492-0.435c-0.131-0.043-0.374-0.065-0.727-0.065h-1.506V27.184z"/>
</g>
<g>
	<g>
		<g>
			<polygon fill="#A37C00" points="7.034,7.688 9.861,5.353 9.861,10.024 			"/>
			<path fill="#A37C00" d="M17.531,13.378c-1.439-1.699-2.361-2.876-2.818-3.592c-0.619-0.973-1.096-1.149-1.258-1.16L9.174,8.651
				V6.666h3.983c0.541-0.079,1.901-0.033,3.231,2.054c0.277,0.435,0.962,1.374,2.657,3.377L17.531,13.378z"/>
		</g>
		<g>
			<polygon fill="#A37C00" points="28.965,16.888 26.138,19.223 26.138,14.552 			"/>
			<path fill="#A37C00" d="M18.468,11.198c1.439,1.699,2.361,2.876,2.818,3.592c0.619,0.973,1.096,1.149,1.258,1.16l4.282-0.025
				v1.984h-3.983c-0.541,0.079-1.901,0.033-3.231-2.054c-0.277-0.435-0.962-1.374-2.657-3.377L18.468,11.198z"/>
		</g>
	</g>
	<g>
		<g>
			<polygon fill="#A37C00" points="28.965,7.688 26.138,5.353 26.138,10.024 			"/>
			<path fill="#A37C00" d="M18.468,13.378c1.439-1.699,2.361-2.876,2.818-3.592c0.619-0.973,1.096-1.149,1.258-1.16l4.282,0.025
				V6.666h-3.983c-0.541-0.079-1.901-0.033-3.231,2.054c-0.277,0.435-0.962,1.374-2.657,3.377L18.468,13.378z"/>
		</g>
		<g>
			<polygon fill="#A37C00" points="7.034,16.888 9.861,19.223 9.861,14.552 			"/>
			<path fill="#A37C00" d="M17.531,11.198c-1.439,1.699-2.361,2.876-2.818,3.592c-0.619,0.973-1.096,1.149-1.258,1.16l-4.282-0.025
				v1.984h3.983c0.541,0.079,1.901,0.033,3.231-2.054c0.277-0.435,0.962-1.374,2.657-3.377L17.531,11.198z"/>
		</g>
	</g>
</g>
</svg>
