<?xml version="1.0" encoding="utf-8"?>
<!-- Generator: Adobe Illustrator 18.0.0, SVG Export Plug-In . SVG Version: 6.00 Build 0)  -->
<!DOCTYPE svg PUBLIC "-//W3C//DTD SVG 1.1//EN" "http://www.w3.org/Graphics/SVG/1.1/DTD/svg11.dtd">
<svg version="1.1" id="图层_1" xmlns="http://www.w3.org/2000/svg" xmlns:xlink="http://www.w3.org/1999/xlink" x="0px" y="0px"
	 width="42px" height="42px" viewBox="0 0 42 42" enable-background="new 0 0 42 42" xml:space="preserve">
<g>
	<path fill="#FFFFFF" d="M3.65,40.47c-1.169,0-2.12-0.951-2.12-2.12V3.65c0-1.169,0.951-2.12,2.12-2.12H38.35
		c1.169,0,2.12,0.951,2.12,2.12V38.35c0,1.169-0.951,2.12-2.12,2.12H3.65z"/>
	<path fill="#AFAFAF" d="M38.35,2.06c0.877,0,1.59,0.713,1.59,1.59V38.35c0,0.877-0.713,1.59-1.59,1.59H3.65
		c-0.877,0-1.59-0.713-1.59-1.59V3.65c0-0.877,0.713-1.59,1.59-1.59H38.35 M38.35,1H3.65C2.187,1,1,2.187,1,3.65V38.35
		C1,39.813,2.187,41,3.65,41H38.35c1.464,0,2.65-1.187,2.65-2.65V3.65C41,2.187,39.813,1,38.35,1L38.35,1z"/>
</g>
<g>
	<linearGradient id="SVGID_1_" gradientUnits="userSpaceOnUse" x1="20.9994" y1="38.7147" x2="20.9994" y2="3.285">
		<stop  offset="0" style="stop-color:#FF1F30"/>
		<stop  offset="1" style="stop-color:#C3020F"/>
	</linearGradient>
	<path fill="url(#SVGID_1_)" d="M3.65,38.715c-0.201,0-0.366-0.165-0.366-0.366V3.651c0-0.201,0.165-0.366,0.366-0.366h34.7
		c0.201,0,0.364,0.165,0.364,0.366v34.699c0,0.201-0.163,0.366-0.364,0.366H3.65z"/>
</g>
<g>
	<g>
		<g>
			<polygon fill="#F5F5F5" points="8.816,9.543 11.957,6.948 11.957,12.138 			"/>
			<path fill="#F5F5F5" d="M20.479,15.864c-1.599-1.888-2.623-3.195-3.131-3.992c-0.687-1.081-1.218-1.276-1.398-1.289l-4.757,0.028
				V8.407h4.425c0.601-0.088,2.113-0.037,3.59,2.282c0.308,0.483,1.069,1.527,2.952,3.752L20.479,15.864z"/>
		</g>
		<g>
			<polygon fill="#F5F5F5" points="33.183,19.764 30.042,22.359 30.042,17.169 			"/>
			<path fill="#F5F5F5" d="M21.52,13.442c1.599,1.888,2.623,3.195,3.131,3.992c0.687,1.081,1.218,1.276,1.398,1.289l4.757-0.028
				V20.9H26.38c-0.601,0.088-2.113,0.037-3.59-2.282c-0.308-0.483-1.069-1.527-2.952-3.752L21.52,13.442z"/>
		</g>
	</g>
	<g>
		<g>
			<polygon fill="#F5F5F5" points="33.183,9.543 30.042,6.948 30.042,12.138 			"/>
			<path fill="#F5F5F5" d="M21.52,15.864c1.599-1.888,2.623-3.195,3.131-3.992c0.687-1.081,1.218-1.276,1.398-1.289l4.757,0.028
				V8.407H26.38c-0.601-0.088-2.113-0.037-3.59,2.282c-0.308,0.483-1.069,1.527-2.952,3.752L21.52,15.864z"/>
		</g>
		<g>
			<polygon fill="#F5F5F5" points="8.816,19.764 11.957,22.359 11.957,17.169 			"/>
			<path fill="#F5F5F5" d="M20.479,13.442c-1.599,1.888-2.623,3.195-3.131,3.992c-0.687,1.081-1.218,1.276-1.398,1.289l-4.757-0.028
				V20.9h4.425c0.601,0.088,2.113,0.037,3.59-2.282c0.308-0.483,1.069-1.527,2.952-3.752L20.479,13.442z"/>
		</g>
	</g>
</g>
<g>
	<path fill="#FFFFFF" d="M8.255,35.494v-8.181h4.608v0.965H9.158v2.534h3.206v0.965H9.158v3.717H8.255z"/>
	<path fill="#FFFFFF" d="M18.049,29.316l-0.834,0.078c-0.074-0.394-0.181-0.681-0.316-0.859c-0.228-0.286-0.507-0.43-0.839-0.43
		c-0.268,0-0.502,0.09-0.704,0.269c-0.264,0.23-0.472,0.567-0.624,1.01s-0.231,1.073-0.238,1.892
		c0.202-0.368,0.449-0.642,0.741-0.82s0.598-0.268,0.918-0.268c0.56,0,1.035,0.246,1.429,0.739c0.393,0.493,0.589,1.13,0.589,1.911
		c0,0.514-0.093,0.99-0.277,1.432c-0.185,0.44-0.438,0.778-0.762,1.013s-0.689,0.352-1.1,0.352c-0.699,0-1.269-0.308-1.71-0.924
		c-0.441-0.615-0.662-1.63-0.662-3.044c0-1.581,0.244-2.73,0.732-3.448c0.425-0.625,0.998-0.938,1.719-0.938
		c0.537,0,0.978,0.18,1.321,0.541C17.774,28.182,17.98,28.681,18.049,29.316z M14.624,32.844c0,0.346,0.062,0.677,0.185,0.993
		c0.122,0.316,0.294,0.557,0.515,0.723c0.221,0.165,0.452,0.248,0.694,0.248c0.354,0,0.658-0.171,0.913-0.514
		c0.255-0.342,0.382-0.807,0.382-1.395c0-0.565-0.126-1.011-0.377-1.337c-0.252-0.325-0.568-0.488-0.951-0.488
		c-0.379,0-0.7,0.163-0.964,0.488C14.756,31.889,14.624,32.315,14.624,32.844z"/>
	<path fill="#FFFFFF" d="M19.005,31.46c0-0.968,0.083-1.746,0.249-2.336s0.413-1.044,0.741-1.364
		c0.327-0.32,0.739-0.479,1.236-0.479c0.367,0,0.688,0.088,0.965,0.265s0.505,0.432,0.685,0.765
		c0.181,0.333,0.322,0.738,0.425,1.217c0.103,0.478,0.153,1.122,0.153,1.934c0,0.959-0.082,1.734-0.247,2.324
		c-0.164,0.589-0.411,1.045-0.738,1.367c-0.328,0.321-0.742,0.482-1.242,0.482c-0.658,0-1.176-0.283-1.552-0.849
		C19.229,34.104,19.005,32.996,19.005,31.46z M19.866,31.46c0,1.343,0.132,2.236,0.394,2.681c0.263,0.445,0.587,0.667,0.972,0.667
		c0.386,0,0.709-0.223,0.972-0.67c0.263-0.446,0.394-1.339,0.394-2.678c0-1.347-0.131-2.242-0.394-2.685s-0.589-0.664-0.98-0.664
		c-0.386,0-0.693,0.195-0.923,0.586C20.011,29.196,19.866,30.116,19.866,31.46z"/>
	<path fill="#FFFFFF" d="M24.312,31.46c0-0.968,0.083-1.746,0.249-2.336s0.413-1.044,0.741-1.364
		c0.327-0.32,0.739-0.479,1.236-0.479c0.367,0,0.688,0.088,0.965,0.265s0.505,0.432,0.685,0.765
		c0.181,0.333,0.322,0.738,0.425,1.217c0.103,0.478,0.153,1.122,0.153,1.934c0,0.959-0.082,1.734-0.247,2.324
		c-0.164,0.589-0.411,1.045-0.738,1.367c-0.328,0.321-0.742,0.482-1.242,0.482c-0.658,0-1.176-0.283-1.552-0.849
		C24.536,34.104,24.312,32.996,24.312,31.46z M25.173,31.46c0,1.343,0.132,2.236,0.394,2.681c0.263,0.445,0.587,0.667,0.972,0.667
		c0.386,0,0.709-0.223,0.972-0.67c0.263-0.446,0.394-1.339,0.394-2.678c0-1.347-0.131-2.242-0.394-2.685s-0.589-0.664-0.98-0.664
		c-0.386,0-0.693,0.195-0.923,0.586C25.317,29.196,25.173,30.116,25.173,31.46z"/>
	<path fill="#FFFFFF" d="M29.619,31.46c0-0.968,0.083-1.746,0.249-2.336s0.413-1.044,0.741-1.364
		c0.327-0.32,0.739-0.479,1.236-0.479c0.367,0,0.688,0.088,0.965,0.265s0.505,0.432,0.685,0.765
		c0.181,0.333,0.322,0.738,0.425,1.217c0.103,0.478,0.153,1.122,0.153,1.934c0,0.959-0.082,1.734-0.247,2.324
		c-0.164,0.589-0.411,1.045-0.738,1.367c-0.328,0.321-0.742,0.482-1.242,0.482c-0.658,0-1.176-0.283-1.552-0.849
		C29.844,34.104,29.619,32.996,29.619,31.46z M30.48,31.46c0,1.343,0.132,2.236,0.394,2.681c0.263,0.445,0.587,0.667,0.972,0.667
		c0.386,0,0.709-0.223,0.972-0.67c0.263-0.446,0.394-1.339,0.394-2.678c0-1.347-0.131-2.242-0.394-2.685s-0.589-0.664-0.98-0.664
		c-0.386,0-0.693,0.195-0.923,0.586C30.625,29.196,30.48,30.116,30.48,31.46z"/>
</g>
</svg>
