<?xml version="1.0" encoding="utf-8"?>
<!-- Generator: Adobe Illustrator 18.0.0, SVG Export Plug-In . SVG Version: 6.00 Build 0)  -->
<!DOCTYPE svg PUBLIC "-//W3C//DTD SVG 1.1//EN" "http://www.w3.org/Graphics/SVG/1.1/DTD/svg11.dtd">
<svg version="1.1" id="图层_1" xmlns="http://www.w3.org/2000/svg" xmlns:xlink="http://www.w3.org/1999/xlink" x="0px" y="0px"
	 width="36px" height="36px" viewBox="0 0 36 36" enable-background="new 0 0 36 36" xml:space="preserve">
<g>
	<path fill="#FFFFFF" d="M2.386,35.522c-1.053,0-1.908-0.855-1.908-1.908V2.385c0-1.052,0.855-1.908,1.908-1.908h31.229
		c1.053,0,1.908,0.856,1.908,1.908v31.229c0,1.053-0.855,1.908-1.908,1.908H2.386z"/>
	<path fill="#AFAFAF" d="M33.615,0.954c0.789,0,1.431,0.642,1.431,1.431v31.229c0,0.789-0.642,1.431-1.431,1.431H2.385
		c-0.789,0-1.431-0.642-1.431-1.431V2.385c0-0.789,0.642-1.431,1.431-1.431H33.615 M33.615,0H2.385C1.068,0,0,1.068,0,2.385v31.229
		C0,34.932,1.068,36,2.385,36h31.229C34.932,36,36,34.932,36,33.615V2.385C36,1.068,34.932,0,33.615,0L33.615,0z"/>
</g>
<g>
	<linearGradient id="SVGID_1_" gradientUnits="userSpaceOnUse" x1="17.9995" y1="33.9432" x2="17.9995" y2="2.0565">
		<stop  offset="0" style="stop-color:#FF1F30"/>
		<stop  offset="1" style="stop-color:#C3020F"/>
	</linearGradient>
	<path fill="url(#SVGID_1_)" d="M2.385,33.943c-0.181,0-0.329-0.148-0.329-0.329V2.385c0-0.181,0.148-0.329,0.329-0.329h31.23
		c0.181,0,0.328,0.148,0.328,0.329v31.229c0,0.181-0.147,0.329-0.328,0.329H2.385z"/>
</g>
<g>
	<g>
		<g>
			<polygon fill="#F5F5F5" points="7.034,7.688 9.861,5.353 9.861,10.024 			"/>
			<path fill="#F5F5F5" d="M17.531,13.378c-1.439-1.699-2.361-2.876-2.818-3.592c-0.619-0.973-1.096-1.149-1.258-1.16L9.174,8.651
				V6.666h3.983c0.541-0.079,1.901-0.033,3.231,2.054c0.277,0.435,0.962,1.374,2.657,3.377L17.531,13.378z"/>
		</g>
		<g>
			<polygon fill="#F5F5F5" points="28.965,16.888 26.138,19.223 26.138,14.552 			"/>
			<path fill="#F5F5F5" d="M18.468,11.198c1.439,1.699,2.361,2.876,2.818,3.592c0.619,0.973,1.096,1.149,1.258,1.16l4.282-0.025
				v1.984h-3.983c-0.541,0.079-1.901,0.033-3.231-2.054c-0.277-0.435-0.962-1.374-2.657-3.377L18.468,11.198z"/>
		</g>
	</g>
	<g>
		<g>
			<polygon fill="#F5F5F5" points="28.965,7.688 26.138,5.353 26.138,10.024 			"/>
			<path fill="#F5F5F5" d="M18.468,13.378c1.439-1.699,2.361-2.876,2.818-3.592c0.619-0.973,1.096-1.149,1.258-1.16l4.282,0.025
				V6.666h-3.983c-0.541-0.079-1.901-0.033-3.231,2.054c-0.277,0.435-0.962,1.374-2.657,3.377L18.468,13.378z"/>
		</g>
		<g>
			<polygon fill="#F5F5F5" points="7.034,16.888 9.861,19.223 9.861,14.552 			"/>
			<path fill="#F5F5F5" d="M17.531,11.198c-1.439,1.699-2.361,2.876-2.818,3.592c-0.619,0.973-1.096,1.149-1.258,1.16l-4.282-0.025
				v1.984h3.983c0.541,0.079,1.901,0.033,3.231-2.054c0.277-0.435,0.962-1.374,2.657-3.377L17.531,11.198z"/>
		</g>
	</g>
</g>
<g>
	<path fill="#FFFFFF" d="M4.228,31.044v-7.362h4.147v0.868H5.042v2.28h2.885v0.869H5.042v3.345H4.228z"/>
	<path fill="#FFFFFF" d="M13.818,28.463l0.813,0.246c-0.17,0.8-0.477,1.41-0.92,1.83s-0.985,0.631-1.625,0.631
		c-0.663,0-1.202-0.162-1.617-0.485s-0.73-0.791-0.947-1.403c-0.217-0.613-0.325-1.271-0.325-1.974c0-0.767,0.122-1.436,0.367-2.007
		c0.244-0.57,0.593-1.004,1.044-1.301c0.451-0.296,0.948-0.444,1.491-0.444c0.614,0,1.132,0.188,1.552,0.563
		c0.419,0.375,0.711,0.902,0.876,1.582l-0.801,0.226c-0.143-0.535-0.35-0.926-0.621-1.17c-0.271-0.244-0.612-0.366-1.023-0.366
		c-0.472,0-0.867,0.136-1.185,0.406c-0.317,0.271-0.54,0.636-0.669,1.093c-0.128,0.457-0.192,0.928-0.192,1.414
		c0,0.626,0.076,1.172,0.229,1.64c0.152,0.467,0.39,0.815,0.711,1.047s0.669,0.347,1.044,0.347c0.456,0,0.842-0.157,1.157-0.473
		C13.493,29.549,13.707,29.082,13.818,28.463z"/>
	<path fill="#FFFFFF" d="M15.387,27.458c0-1.222,0.274-2.179,0.822-2.87s1.255-1.037,2.122-1.037c0.567,0,1.079,0.162,1.534,0.487
		c0.456,0.324,0.804,0.777,1.043,1.358c0.238,0.581,0.358,1.239,0.358,1.977c0,0.746-0.126,1.414-0.378,2.004
		c-0.251,0.589-0.607,1.035-1.069,1.338c-0.461,0.303-0.959,0.455-1.493,0.455c-0.578,0-1.096-0.168-1.551-0.503
		c-0.456-0.335-0.802-0.792-1.036-1.371C15.504,28.717,15.387,28.104,15.387,27.458z M16.226,27.473
		c0,0.888,0.199,1.587,0.598,2.098c0.398,0.51,0.898,0.766,1.499,0.766c0.612,0,1.116-0.258,1.512-0.773s0.594-1.247,0.594-2.195
		c0-0.599-0.085-1.122-0.254-1.569c-0.169-0.446-0.417-0.793-0.742-1.039c-0.326-0.246-0.691-0.369-1.097-0.369
		c-0.576,0-1.071,0.236-1.486,0.71C16.434,25.574,16.226,26.365,16.226,27.473z"/>
	<path fill="#FFFFFF" d="M23.879,31.044V24.55h-2.025v-0.868h4.873v0.868h-2.034v6.494H23.879z"/>
	<path fill="#FFFFFF" d="M27.561,31.044v-7.362h2.319c0.408,0,0.72,0.023,0.936,0.07c0.302,0.06,0.555,0.175,0.759,0.344
		s0.368,0.406,0.493,0.711c0.124,0.305,0.187,0.639,0.187,1.004c0,0.626-0.167,1.156-0.499,1.59c-0.333,0.434-0.934,0.65-1.804,0.65
		h-1.576v2.993H27.561z M28.375,27.182h1.589c0.525,0,0.899-0.117,1.12-0.352s0.331-0.564,0.331-0.989
		c0-0.308-0.065-0.571-0.195-0.791s-0.301-0.364-0.514-0.435c-0.137-0.043-0.39-0.065-0.759-0.065h-1.572V27.182z"/>
</g>
</svg>
