<?xml version="1.0" encoding="utf-8"?>
<!-- Generator: Adobe Illustrator 18.0.0, SVG Export Plug-In . SVG Version: 6.00 Build 0)  -->
<!DOCTYPE svg PUBLIC "-//W3C//DTD SVG 1.1//EN" "http://www.w3.org/Graphics/SVG/1.1/DTD/svg11.dtd">
<svg version="1.1" id="图层_1" xmlns="http://www.w3.org/2000/svg" xmlns:xlink="http://www.w3.org/1999/xlink" x="0px" y="0px"
	 width="36px" height="36px" viewBox="0 0 36 36" enable-background="new 0 0 36 36" xml:space="preserve">
<g>
	<path fill="#FFFFFF" d="M2.385,35.523c-1.052,0-1.908-0.856-1.908-1.908V2.385c0-1.052,0.856-1.908,1.908-1.908h31.229
		c1.052,0,1.908,0.856,1.908,1.908v31.229c0,1.052-0.856,1.908-1.908,1.908H2.385z"/>
	<path fill="#AFAFAF" d="M33.615,0.954c0.789,0,1.431,0.642,1.431,1.431v31.229c0,0.789-0.642,1.431-1.431,1.431H2.385
		c-0.789,0-1.431-0.642-1.431-1.431V2.385c0-0.789,0.642-1.431,1.431-1.431H33.615 M33.615,0H2.385C1.068,0,0,1.068,0,2.385v31.229
		C0,34.932,1.068,36,2.385,36h31.229C34.932,36,36,34.932,36,33.615V2.385C36,1.068,34.932,0,33.615,0L33.615,0z"/>
</g>
<g>
	<path fill="#C4C4C4" d="M2.385,33.943c-0.181,0-0.329-0.148-0.329-0.329V2.385c0-0.181,0.148-0.329,0.329-0.329h31.23
		c0.181,0,0.328,0.148,0.328,0.329v31.229c0,0.181-0.147,0.329-0.328,0.329H2.385z"/>
</g>
<g>
	<path fill="#FFFFFF" d="M5.253,31.045v-7.363h4.608v0.869H6.157v2.28h3.206v0.869H6.157v3.345H5.253z"/>
	<path fill="#FFFFFF" d="M10.7,29.102l0.838-0.12c0.096,0.512,0.26,0.881,0.492,1.107c0.231,0.226,0.513,0.339,0.846,0.339
		c0.395,0,0.728-0.147,1-0.442c0.271-0.295,0.408-0.66,0.408-1.095c0-0.415-0.126-0.757-0.377-1.027
		c-0.252-0.27-0.572-0.404-0.96-0.404c-0.158,0-0.356,0.034-0.592,0.101l0.093-0.793c0.056,0.006,0.101,0.01,0.135,0.01
		c0.357,0,0.679-0.101,0.964-0.301s0.429-0.511,0.429-0.929c0-0.332-0.104-0.606-0.313-0.824c-0.208-0.217-0.477-0.326-0.806-0.326
		c-0.326,0-0.598,0.11-0.815,0.332c-0.218,0.221-0.357,0.552-0.419,0.994l-0.839-0.161c0.103-0.606,0.335-1.076,0.699-1.409
		c0.363-0.333,0.815-0.5,1.355-0.5c0.373,0,0.716,0.086,1.03,0.259c0.314,0.172,0.554,0.408,0.72,0.706
		c0.166,0.298,0.249,0.615,0.249,0.949c0,0.318-0.079,0.608-0.238,0.869c-0.158,0.261-0.393,0.469-0.703,0.623
		c0.403,0.101,0.717,0.309,0.941,0.625s0.335,0.712,0.335,1.188c0,0.643-0.217,1.188-0.652,1.635
		c-0.435,0.447-0.984,0.67-1.649,0.67c-0.6,0-1.097-0.192-1.493-0.577C10.982,30.213,10.756,29.714,10.7,29.102z"/>
	<path fill="#FFFFFF" d="M16.002,27.414c0-0.87,0.083-1.571,0.25-2.102c0.166-0.531,0.413-0.94,0.741-1.228s0.74-0.432,1.237-0.432
		c0.367,0,0.688,0.08,0.964,0.239c0.277,0.159,0.505,0.389,0.685,0.688c0.18,0.3,0.322,0.665,0.424,1.095
		c0.103,0.431,0.154,1.011,0.154,1.74c0,0.864-0.082,1.562-0.247,2.092c-0.165,0.531-0.411,0.941-0.739,1.23
		c-0.328,0.29-0.742,0.435-1.242,0.435c-0.658,0-1.176-0.254-1.551-0.763C16.228,29.795,16.002,28.797,16.002,27.414z
		 M16.864,27.414c0,1.209,0.131,2.013,0.394,2.414c0.262,0.4,0.586,0.6,0.971,0.6s0.709-0.201,0.972-0.603
		c0.262-0.402,0.394-1.206,0.394-2.411c0-1.212-0.131-2.017-0.394-2.416c-0.263-0.398-0.589-0.598-0.981-0.598
		c-0.385,0-0.693,0.176-0.922,0.527C17.009,25.377,16.864,26.206,16.864,27.414z"/>
	<path fill="#FFFFFF" d="M21.309,27.414c0-0.87,0.083-1.571,0.25-2.102c0.166-0.531,0.413-0.94,0.741-1.228s0.74-0.432,1.237-0.432
		c0.367,0,0.688,0.08,0.964,0.239c0.277,0.159,0.505,0.389,0.685,0.688c0.18,0.3,0.322,0.665,0.424,1.095
		c0.103,0.431,0.154,1.011,0.154,1.74c0,0.864-0.082,1.562-0.247,2.092c-0.165,0.531-0.411,0.941-0.739,1.23
		c-0.328,0.29-0.742,0.435-1.242,0.435c-0.658,0-1.176-0.254-1.551-0.763C21.534,29.795,21.309,28.797,21.309,27.414z
		 M22.171,27.414c0,1.209,0.131,2.013,0.394,2.414c0.262,0.4,0.586,0.6,0.971,0.6s0.709-0.201,0.972-0.603
		c0.262-0.402,0.394-1.206,0.394-2.411c0-1.212-0.131-2.017-0.394-2.416c-0.263-0.398-0.589-0.598-0.981-0.598
		c-0.385,0-0.693,0.176-0.922,0.527C22.315,25.377,22.171,26.206,22.171,27.414z"/>
	<path fill="#FFFFFF" d="M26.616,27.414c0-0.87,0.083-1.571,0.25-2.102c0.166-0.531,0.413-0.94,0.741-1.228s0.74-0.432,1.237-0.432
		c0.367,0,0.688,0.08,0.964,0.239c0.277,0.159,0.505,0.389,0.685,0.688c0.18,0.3,0.322,0.665,0.424,1.095
		c0.103,0.431,0.154,1.011,0.154,1.74c0,0.864-0.082,1.562-0.247,2.092c-0.165,0.531-0.411,0.941-0.739,1.23
		c-0.328,0.29-0.742,0.435-1.242,0.435c-0.658,0-1.176-0.254-1.551-0.763C26.841,29.795,26.616,28.797,26.616,27.414z
		 M27.478,27.414c0,1.209,0.131,2.013,0.394,2.414c0.262,0.4,0.586,0.6,0.971,0.6s0.709-0.201,0.972-0.603
		c0.262-0.402,0.394-1.206,0.394-2.411c0-1.212-0.131-2.017-0.394-2.416c-0.263-0.398-0.589-0.598-0.981-0.598
		c-0.385,0-0.693,0.176-0.922,0.527C27.623,25.377,27.478,26.206,27.478,27.414z"/>
</g>
<g>
	<g>
		<g>
			<polygon fill="#F5F5F5" points="7.034,7.688 9.861,5.353 9.861,10.024 			"/>
			<path fill="#F5F5F5" d="M17.531,13.378c-1.439-1.699-2.361-2.876-2.818-3.592c-0.619-0.973-1.096-1.149-1.258-1.16L9.174,8.651
				V6.666h3.983c0.541-0.079,1.901-0.033,3.231,2.054c0.277,0.435,0.962,1.374,2.657,3.377L17.531,13.378z"/>
		</g>
		<g>
			<polygon fill="#F5F5F5" points="28.965,16.888 26.138,19.223 26.138,14.552 			"/>
			<path fill="#F5F5F5" d="M18.468,11.198c1.439,1.699,2.361,2.876,2.818,3.592c0.619,0.973,1.096,1.149,1.258,1.16l4.282-0.025
				v1.984h-3.983c-0.541,0.079-1.901,0.033-3.231-2.054c-0.277-0.435-0.962-1.374-2.657-3.377L18.468,11.198z"/>
		</g>
	</g>
	<g>
		<g>
			<polygon fill="#F5F5F5" points="28.965,7.688 26.138,5.353 26.138,10.024 			"/>
			<path fill="#F5F5F5" d="M18.468,13.378c1.439-1.699,2.361-2.876,2.818-3.592c0.619-0.973,1.096-1.149,1.258-1.16l4.282,0.025
				V6.666h-3.983c-0.541-0.079-1.901-0.033-3.231,2.054c-0.277,0.435-0.962,1.374-2.657,3.377L18.468,13.378z"/>
		</g>
		<g>
			<polygon fill="#F5F5F5" points="7.034,16.888 9.861,19.223 9.861,14.552 			"/>
			<path fill="#F5F5F5" d="M17.531,11.198c-1.439,1.699-2.361,2.876-2.818,3.592c-0.619,0.973-1.096,1.149-1.258,1.16l-4.282-0.025
				v1.984h3.983c0.541,0.079,1.901,0.033,3.231-2.054c0.277-0.435,0.962-1.374,2.657-3.377L17.531,11.198z"/>
		</g>
	</g>
</g>
</svg>
