<?xml version="1.0" encoding="utf-8"?>
<!-- Generator: Adobe Illustrator 18.0.0, SVG Export Plug-In . SVG Version: 6.00 Build 0)  -->
<!DOCTYPE svg PUBLIC "-//W3C//DTD SVG 1.1//EN" "http://www.w3.org/Graphics/SVG/1.1/DTD/svg11.dtd">
<svg version="1.1" id="图层_1" xmlns="http://www.w3.org/2000/svg" xmlns:xlink="http://www.w3.org/1999/xlink" x="0px" y="0px"
	 width="42px" height="42px" viewBox="0 0 42 42" enable-background="new 0 0 42 42" xml:space="preserve">
<path fill="none" stroke="#C6C6C6" stroke-width="1.1401" stroke-miterlimit="10" d="M1.047,38.517V3.483
	C1.047,2.112,2.159,1,3.531,1h34.939c1.371,0,2.483,1.112,2.483,2.483v35.034c0,1.371-1.111,2.483-2.483,2.483H3.531
	C2.159,41,1.047,39.888,1.047,38.517z"/>
<linearGradient id="SVGID_1_" gradientUnits="userSpaceOnUse" x1="21.095" y1="39.0998" x2="21.095" y2="2.7101">
	<stop  offset="0" style="stop-color:#2CA539"/>
	<stop  offset="1" style="stop-color:#009117"/>
</linearGradient>
<path fill="url(#SVGID_1_)" d="M37.817,39.1H4.373c-0.84,0-1.52-0.681-1.52-1.52V4.23c0-0.84,0.681-1.52,1.52-1.52h33.444
	c0.84,0,1.52,0.681,1.52,1.52V37.58C39.337,38.419,38.657,39.1,37.817,39.1z"/>
<g>
	<path fill="#FFFFFF" d="M6.274,35.672v-9.66h3.882v1.396H7.764v2.532h1.724v1.396H7.764v4.335H6.274z"/>
	<path fill="#FFFFFF" d="M10.155,26.012h1.423l0.662,5.726c0.031,0.289,0.054,0.557,0.07,0.802c0.015,0.245,0.023,0.483,0.023,0.715
		v0.187c0.004-0.124,0.014-0.3,0.027-0.527c0.04-0.766,0.071-1.223,0.094-1.369l0.741-5.532h1.27l0.795,5.719
		c0.031,0.223,0.056,0.477,0.074,0.762c0.018,0.285,0.026,0.602,0.026,0.948c0-0.062,0.004-0.155,0.014-0.28
		c0.04-0.811,0.076-1.35,0.107-1.616l0.614-5.532h1.41l-1.503,9.66h-1.25l-0.815-5.604c-0.031-0.219-0.056-0.475-0.073-0.769
		c-0.018-0.294-0.027-0.61-0.027-0.948c-0.027,0.525-0.05,0.946-0.07,1.263c-0.02,0.315-0.037,0.527-0.05,0.634l-0.795,5.425h-1.242
		L10.155,26.012z"/>
	<path fill="#FFFFFF" d="M17.531,28.177v-0.976c0.383-0.134,0.71-0.298,0.982-0.494c0.272-0.196,0.497-0.428,0.675-0.695h0.996v9.66
		h-1.477v-7.495H17.531z"/>
	<path fill="#FFFFFF" d="M26.201,33.233c0,0.842-0.195,1.493-0.588,1.954c-0.391,0.461-0.943,0.691-1.656,0.691
		c-0.721,0-1.271-0.229-1.65-0.688c-0.378-0.459-0.567-1.125-0.567-1.998v-4.95c0-0.762,0.202-1.358,0.604-1.79
		c0.402-0.432,0.959-0.648,1.668-0.648c0.668,0,1.199,0.224,1.596,0.672c0.396,0.447,0.594,1.05,0.594,1.807v0.301h-1.463v-0.628
		c0-0.228-0.07-0.412-0.213-0.555s-0.328-0.214-0.555-0.214c-0.223,0-0.406,0.07-0.551,0.211c-0.145,0.14-0.217,0.321-0.217,0.544
		v2.379c0.186-0.196,0.398-0.348,0.635-0.454c0.234-0.107,0.48-0.161,0.734-0.161c0.516,0,0.918,0.164,1.203,0.491
		c0.283,0.327,0.426,0.79,0.426,1.387V33.233z M23.203,31.61v1.997c0,0.272,0.072,0.49,0.221,0.655
		c0.146,0.165,0.338,0.247,0.574,0.247c0.227,0,0.406-0.08,0.541-0.24c0.133-0.161,0.199-0.381,0.199-0.662V31.73
		c0-0.236-0.057-0.42-0.174-0.551c-0.115-0.132-0.273-0.197-0.473-0.197c-0.166,0-0.324,0.055-0.479,0.164
		C23.459,31.255,23.322,31.41,23.203,31.61z"/>
	<path fill="#FFFFFF" d="M27.251,28.243c0-0.762,0.199-1.358,0.598-1.79s0.952-0.648,1.66-0.648c0.672,0,1.206,0.223,1.6,0.668
		c0.395,0.445,0.592,1.049,0.592,1.811v4.95c0,0.847-0.194,1.499-0.581,1.958c-0.388,0.458-0.938,0.688-1.65,0.688
		c-0.722,0-1.271-0.229-1.65-0.688c-0.379-0.459-0.567-1.125-0.567-1.998V28.243z M28.634,33.607c0,0.272,0.075,0.49,0.227,0.655
		c0.15,0.165,0.352,0.247,0.603,0.247c0.237,0,0.425-0.08,0.564-0.24c0.14-0.161,0.212-0.381,0.216-0.662v-5.651
		c0-0.228-0.074-0.412-0.223-0.555s-0.344-0.214-0.586-0.214c-0.231,0-0.424,0.071-0.574,0.214
		c-0.151,0.143-0.227,0.323-0.227,0.541V33.607z"/>
	<path fill="#FFFFFF" d="M32.803,28.243c0-0.762,0.199-1.358,0.598-1.79s0.952-0.648,1.66-0.648c0.672,0,1.206,0.223,1.6,0.668
		c0.395,0.445,0.592,1.049,0.592,1.811v4.95c0,0.847-0.194,1.499-0.581,1.958c-0.388,0.458-0.938,0.688-1.65,0.688
		c-0.722,0-1.271-0.229-1.65-0.688c-0.379-0.459-0.567-1.125-0.567-1.998V28.243z M34.186,33.607c0,0.272,0.075,0.49,0.227,0.655
		c0.15,0.165,0.352,0.247,0.603,0.247c0.237,0,0.425-0.08,0.564-0.24c0.14-0.161,0.212-0.381,0.216-0.662v-5.651
		c0-0.228-0.074-0.412-0.223-0.555s-0.344-0.214-0.586-0.214c-0.231,0-0.424,0.071-0.574,0.214
		c-0.151,0.143-0.227,0.323-0.227,0.541V33.607z"/>
</g>
<g>
	<polygon fill="#FFFFFF" points="29.98,5.295 33.472,8.179 33.472,16.228 29.98,19.112 	"/>
	<polygon fill="#FFFFFF" points="12.02,19.112 8.528,16.228 8.528,8.179 12.02,5.295 	"/>
	<g>
		<polygon fill="#FFFFFF" points="16.713,19.016 14.222,16.425 16.713,13.834 		"/>
		<polygon fill="#FFFFFF" points="25.287,19.016 27.778,16.425 25.287,13.834 		"/>
		<rect x="16.086" y="15.345" fill="#FFFFFF" width="10.167" height="2.16"/>
	</g>
	<g>
		<polygon fill="#FFFFFF" points="16.713,11.052 14.222,8.461 16.713,5.87 		"/>
		<polygon fill="#FFFFFF" points="25.287,11.052 27.778,8.461 25.287,5.87 		"/>
		<rect x="16.086" y="7.381" fill="#FFFFFF" width="10.167" height="2.16"/>
	</g>
</g>
</svg>
