<?xml version="1.0" encoding="utf-8"?>
<!-- Generator: Adobe Illustrator 18.0.0, SVG Export Plug-In . SVG Version: 6.00 Build 0)  -->
<!DOCTYPE svg PUBLIC "-//W3C//DTD SVG 1.1//EN" "http://www.w3.org/Graphics/SVG/1.1/DTD/svg11.dtd">
<svg version="1.1" id="图层_1" xmlns="http://www.w3.org/2000/svg" xmlns:xlink="http://www.w3.org/1999/xlink" x="0px" y="0px"
	 width="36px" height="36px" viewBox="0 0 36 36" enable-background="new 0 0 36 36" xml:space="preserve">
<g>
	<path fill="#FFFFFF" d="M2.385,35.523c-1.052,0-1.908-0.856-1.908-1.908V2.385c0-1.052,0.856-1.908,1.908-1.908h31.229
		c1.052,0,1.908,0.856,1.908,1.908v31.229c0,1.052-0.856,1.908-1.908,1.908H2.385z"/>
	<path fill="#AFAFAF" d="M33.615,0.954c0.789,0,1.431,0.642,1.431,1.431v31.229c0,0.789-0.642,1.431-1.431,1.431H2.385
		c-0.789,0-1.431-0.642-1.431-1.431V2.385c0-0.789,0.642-1.431,1.431-1.431H33.615 M33.615,0H2.385C1.068,0,0,1.068,0,2.385v31.229
		C0,34.932,1.068,36,2.385,36h31.229C34.932,36,36,34.932,36,33.615V2.385C36,1.068,34.932,0,33.615,0L33.615,0z"/>
</g>
<g>
	<path fill="#C4C4C4" d="M2.385,33.943c-0.181,0-0.329-0.148-0.329-0.329V2.385c0-0.181,0.148-0.329,0.329-0.329h31.23
		c0.181,0,0.328,0.148,0.328,0.329v31.229c0,0.181-0.147,0.329-0.328,0.329H2.385z"/>
</g>
<g>
	<path fill="#FFFFFF" d="M5.253,31.045v-7.363h4.608v0.869H6.157v2.28h3.206v0.869H6.157v3.345H5.253z"/>
	<path fill="#FFFFFF" d="M15.909,28.464l0.904,0.246c-0.189,0.8-0.53,1.411-1.023,1.831c-0.492,0.42-1.094,0.63-1.805,0.63
		c-0.736,0-1.335-0.162-1.796-0.484c-0.461-0.323-0.812-0.791-1.053-1.404s-0.361-1.271-0.361-1.974
		c0-0.767,0.136-1.436,0.408-2.006c0.272-0.571,0.659-1.004,1.16-1.301c0.502-0.296,1.054-0.444,1.656-0.444
		c0.684,0,1.258,0.188,1.724,0.563s0.791,0.902,0.974,1.582l-0.89,0.226c-0.159-0.536-0.388-0.926-0.689-1.17
		c-0.302-0.244-0.681-0.367-1.137-0.367c-0.525,0-0.963,0.136-1.316,0.407c-0.353,0.271-0.601,0.635-0.743,1.092
		c-0.143,0.457-0.214,0.928-0.214,1.414c0,0.626,0.084,1.173,0.254,1.64c0.169,0.467,0.433,0.816,0.79,1.047
		c0.357,0.231,0.744,0.347,1.16,0.347c0.506,0,0.935-0.158,1.286-0.472C15.547,29.55,15.785,29.083,15.909,28.464z"/>
	<path fill="#FFFFFF" d="M20.275,31.045v-1.763h-2.963v-0.829l3.117-4.771h0.685v4.771h0.923v0.829h-0.923v1.763H20.275z
		 M20.275,28.454v-3.32l-2.139,3.32H20.275z"/>
	<path fill="#FFFFFF" d="M22.894,27.414c0-0.87,0.083-1.571,0.25-2.102c0.166-0.531,0.413-0.94,0.741-1.228s0.74-0.432,1.237-0.432
		c0.367,0,0.688,0.08,0.964,0.239c0.277,0.159,0.505,0.389,0.685,0.688c0.18,0.3,0.322,0.665,0.424,1.095
		c0.103,0.431,0.154,1.011,0.154,1.74c0,0.864-0.082,1.562-0.247,2.092c-0.165,0.531-0.411,0.941-0.739,1.23
		c-0.328,0.29-0.742,0.435-1.242,0.435c-0.658,0-1.176-0.254-1.551-0.763C23.119,29.795,22.894,28.797,22.894,27.414z
		 M23.755,27.414c0,1.209,0.131,2.013,0.394,2.414c0.262,0.4,0.586,0.6,0.971,0.6s0.709-0.201,0.972-0.603
		c0.262-0.402,0.394-1.206,0.394-2.411c0-1.212-0.131-2.017-0.394-2.416c-0.263-0.398-0.589-0.598-0.981-0.598
		c-0.385,0-0.693,0.176-0.922,0.527C23.9,25.377,23.755,26.206,23.755,27.414z"/>
	<path fill="#FFFFFF" d="M28.2,27.414c0-0.87,0.083-1.571,0.25-2.102c0.166-0.531,0.413-0.94,0.741-1.228s0.74-0.432,1.237-0.432
		c0.367,0,0.688,0.08,0.964,0.239c0.277,0.159,0.505,0.389,0.685,0.688c0.18,0.3,0.322,0.665,0.424,1.095
		c0.103,0.431,0.154,1.011,0.154,1.74c0,0.864-0.082,1.562-0.247,2.092c-0.165,0.531-0.411,0.941-0.739,1.23
		c-0.328,0.29-0.742,0.435-1.242,0.435c-0.658,0-1.176-0.254-1.551-0.763C28.425,29.795,28.2,28.797,28.2,27.414z M29.062,27.414
		c0,1.209,0.131,2.013,0.394,2.414c0.262,0.4,0.586,0.6,0.971,0.6s0.709-0.201,0.972-0.603c0.262-0.402,0.394-1.206,0.394-2.411
		c0-1.212-0.131-2.017-0.394-2.416c-0.263-0.398-0.589-0.598-0.981-0.598c-0.385,0-0.693,0.176-0.922,0.527
		C29.207,25.377,29.062,26.206,29.062,27.414z"/>
</g>
<g>
	<g>
		<g>
			<polygon fill="#F5F5F5" points="7.034,7.688 9.861,5.353 9.861,10.024 			"/>
			<path fill="#F5F5F5" d="M17.531,13.378c-1.439-1.699-2.361-2.876-2.818-3.592c-0.619-0.973-1.096-1.149-1.258-1.16L9.174,8.651
				V6.666h3.983c0.541-0.079,1.901-0.033,3.231,2.054c0.277,0.435,0.962,1.374,2.657,3.377L17.531,13.378z"/>
		</g>
		<g>
			<polygon fill="#F5F5F5" points="28.965,16.888 26.138,19.223 26.138,14.552 			"/>
			<path fill="#F5F5F5" d="M18.468,11.198c1.439,1.699,2.361,2.876,2.818,3.592c0.619,0.973,1.096,1.149,1.258,1.16l4.282-0.025
				v1.984h-3.983c-0.541,0.079-1.901,0.033-3.231-2.054c-0.277-0.435-0.962-1.374-2.657-3.377L18.468,11.198z"/>
		</g>
	</g>
	<g>
		<g>
			<polygon fill="#F5F5F5" points="28.965,7.688 26.138,5.353 26.138,10.024 			"/>
			<path fill="#F5F5F5" d="M18.468,13.378c1.439-1.699,2.361-2.876,2.818-3.592c0.619-0.973,1.096-1.149,1.258-1.16l4.282,0.025
				V6.666h-3.983c-0.541-0.079-1.901-0.033-3.231,2.054c-0.277,0.435-0.962,1.374-2.657,3.377L18.468,13.378z"/>
		</g>
		<g>
			<polygon fill="#F5F5F5" points="7.034,16.888 9.861,19.223 9.861,14.552 			"/>
			<path fill="#F5F5F5" d="M17.531,11.198c-1.439,1.699-2.361,2.876-2.818,3.592c-0.619,0.973-1.096,1.149-1.258,1.16l-4.282-0.025
				v1.984h3.983c0.541,0.079,1.901,0.033,3.231-2.054c0.277-0.435,0.962-1.374,2.657-3.377L17.531,11.198z"/>
		</g>
	</g>
</g>
</svg>
