<?xml version="1.0" encoding="utf-8"?>
<!-- Generator: Adobe Illustrator 18.0.0, SVG Export Plug-In . SVG Version: 6.00 Build 0)  -->
<!DOCTYPE svg PUBLIC "-//W3C//DTD SVG 1.1//EN" "http://www.w3.org/Graphics/SVG/1.1/DTD/svg11.dtd">
<svg version="1.1" id="图层_1" xmlns="http://www.w3.org/2000/svg" xmlns:xlink="http://www.w3.org/1999/xlink" x="0px" y="0px"
	 width="42px" height="42px" viewBox="0 0 42 42" enable-background="new 0 0 42 42" xml:space="preserve">
<path fill="none" stroke="#C6C6C6" stroke-width="1.1401" stroke-miterlimit="10" d="M1.047,38.517V3.483
	C1.047,2.112,2.159,1,3.531,1h34.939c1.371,0,2.483,1.112,2.483,2.483v35.034c0,1.371-1.111,2.483-2.483,2.483H3.531
	C2.159,41,1.047,39.888,1.047,38.517z"/>
<linearGradient id="SVGID_1_" gradientUnits="userSpaceOnUse" x1="21.095" y1="39.0998" x2="21.095" y2="2.7101">
	<stop  offset="0" style="stop-color:#2CA539"/>
	<stop  offset="1" style="stop-color:#009117"/>
</linearGradient>
<path fill="url(#SVGID_1_)" d="M37.817,39.1H4.373c-0.84,0-1.52-0.681-1.52-1.52V4.23c0-0.84,0.681-1.52,1.52-1.52h33.444
	c0.84,0,1.52,0.681,1.52,1.52V37.58C39.337,38.419,38.657,39.1,37.817,39.1z"/>
<g>
	<path fill="#FFFFFF" d="M7.508,35.672l2.635-7.158h0.978l2.808,7.158h-1.034l-0.8-2.168H9.226l-0.754,2.168H7.508z M9.487,32.732
		h2.325l-0.716-1.982c-0.218-0.602-0.381-1.097-0.486-1.484c-0.088,0.459-0.211,0.915-0.37,1.367L9.487,32.732z"/>
	<path fill="#FFFFFF" d="M14.345,33.372l0.856-0.078c0.04,0.358,0.135,0.652,0.282,0.882c0.148,0.229,0.379,0.415,0.69,0.557
		c0.313,0.142,0.663,0.212,1.053,0.212c0.347,0,0.652-0.054,0.918-0.161c0.265-0.107,0.462-0.255,0.592-0.441
		c0.129-0.188,0.194-0.392,0.194-0.613c0-0.225-0.063-0.421-0.188-0.588c-0.125-0.168-0.331-0.309-0.618-0.423
		c-0.184-0.074-0.591-0.191-1.221-0.349c-0.631-0.158-1.072-0.307-1.324-0.447c-0.328-0.179-0.572-0.401-0.732-0.666
		c-0.161-0.266-0.241-0.563-0.241-0.892c0-0.361,0.099-0.699,0.295-1.013c0.196-0.314,0.483-0.553,0.861-0.716
		c0.377-0.162,0.797-0.244,1.259-0.244c0.508,0,0.957,0.086,1.345,0.257c0.389,0.171,0.688,0.422,0.896,0.754
		s0.321,0.708,0.337,1.128l-0.87,0.068c-0.047-0.452-0.205-0.794-0.476-1.025c-0.27-0.23-0.668-0.347-1.195-0.347
		c-0.549,0-0.949,0.105-1.2,0.315s-0.377,0.463-0.377,0.759c0,0.258,0.089,0.469,0.267,0.635c0.175,0.166,0.631,0.336,1.369,0.511
		c0.737,0.174,1.244,0.326,1.519,0.456c0.399,0.192,0.694,0.436,0.884,0.73c0.19,0.294,0.286,0.634,0.286,1.018
		c0,0.381-0.104,0.74-0.313,1.077s-0.51,0.599-0.901,0.786c-0.392,0.187-0.832,0.28-1.321,0.28c-0.621,0-1.142-0.094-1.562-0.283
		c-0.419-0.188-0.748-0.473-0.987-0.852C14.482,34.279,14.356,33.851,14.345,33.372z"/>
	<path fill="#FFFFFF" d="M20.77,32.186c0-1.188,0.306-2.118,0.917-2.79c0.611-0.673,1.401-1.009,2.368-1.009
		c0.633,0,1.203,0.158,1.713,0.474c0.508,0.316,0.896,0.756,1.162,1.321c0.268,0.564,0.4,1.205,0.4,1.921
		c0,0.727-0.141,1.376-0.422,1.948c-0.279,0.573-0.678,1.007-1.193,1.302c-0.514,0.294-1.068,0.441-1.664,0.441
		c-0.646,0-1.225-0.162-1.732-0.488c-0.508-0.325-0.894-0.77-1.155-1.333C20.9,33.41,20.77,32.814,20.77,32.186z M21.706,32.2
		c0,0.863,0.222,1.542,0.667,2.039c0.443,0.496,1.002,0.744,1.672,0.744c0.684,0,1.246-0.25,1.688-0.752
		c0.441-0.501,0.662-1.212,0.662-2.134c0-0.582-0.094-1.091-0.283-1.525s-0.465-0.771-0.828-1.011s-0.771-0.359-1.225-0.359
		c-0.643,0-1.195,0.23-1.658,0.691C21.938,30.354,21.706,31.123,21.706,32.2z"/>
	<path fill="#FFFFFF" d="M28.491,35.672v-7.158h0.931l3.604,5.62v-5.62h0.87v7.158h-0.931l-3.604-5.625v5.625H28.491z"/>
</g>
<g opacity="0.9">
	<g>
		<polygon fill="#FFFFFF" points="12.722,13.141 10.232,10.55 12.722,7.959 		"/>
		<polygon fill="#FFFFFF" points="29.278,13.141 31.768,10.55 29.278,7.959 		"/>
		<rect x="12.096" y="9.969" fill="#FFFFFF" width="17.958" height="1.163"/>
	</g>
	<path fill="#FFFFFF" d="M21.21,6.346c2.318,0,4.204,1.886,4.204,4.204s-1.886,4.204-4.204,4.204s-4.204-1.886-4.204-4.204
		S18.892,6.346,21.21,6.346 M21.21,4.635c-3.267,0-5.915,2.648-5.915,5.915s2.648,5.915,5.915,5.915s5.915-2.648,5.915-5.915
		S24.476,4.635,21.21,4.635L21.21,4.635z"/>
	<rect x="20.07" y="16.344" fill="#FFFFFF" width="2.28" height="4.181"/>
	<rect x="18.419" y="18.245" fill="#FFFFFF" width="5.582" height="1.14"/>
</g>
</svg>
