<?xml version="1.0" encoding="utf-8"?>
<!-- Generator: Adobe Illustrator 18.0.0, SVG Export Plug-In . SVG Version: 6.00 Build 0)  -->
<!DOCTYPE svg PUBLIC "-//W3C//DTD SVG 1.1//EN" "http://www.w3.org/Graphics/SVG/1.1/DTD/svg11.dtd">
<svg version="1.1" id="图层_1" xmlns="http://www.w3.org/2000/svg" xmlns:xlink="http://www.w3.org/1999/xlink" x="0px" y="0px"
	 width="36px" height="36px" viewBox="0 0 36 36" enable-background="new 0 0 36 36" xml:space="preserve">
<g>
	<path fill="#FFFFFF" d="M2.385,35.522c-1.052,0-1.908-0.855-1.908-1.908V2.385c0-1.052,0.856-1.908,1.908-1.908h31.229
		c1.052,0,1.908,0.856,1.908,1.908v31.229c0,1.053-0.856,1.908-1.908,1.908H2.385z"/>
	<path fill="#AFAFAF" d="M33.615,0.954c0.789,0,1.431,0.642,1.431,1.431v31.229c0,0.789-0.642,1.431-1.431,1.431H2.385
		c-0.789,0-1.431-0.642-1.431-1.431V2.385c0-0.789,0.642-1.431,1.431-1.431H33.615 M33.615,0H2.385C1.068,0,0,1.068,0,2.385v31.229
		C0,34.932,1.068,36,2.385,36h31.229C34.932,36,36,34.932,36,33.615V2.385C36,1.068,34.932,0,33.615,0L33.615,0z"/>
</g>
<g>
	<linearGradient id="SVGID_1_" gradientUnits="userSpaceOnUse" x1="17.9995" y1="33.9432" x2="17.9995" y2="2.0565">
		<stop  offset="0" style="stop-color:#F1E821"/>
		<stop  offset="1" style="stop-color:#D6B900"/>
	</linearGradient>
	<path fill="url(#SVGID_1_)" d="M2.385,33.943c-0.181,0-0.329-0.148-0.329-0.329V2.385c0-0.181,0.148-0.329,0.329-0.329h31.23
		c0.181,0,0.328,0.148,0.328,0.329v31.229c0,0.181-0.147,0.329-0.328,0.329H2.385z"/>
</g>
<g>
	<path fill="#A37C00" d="M5.253,31.046v-7.362h4.608v0.868H6.157v2.28h3.206v0.869H6.157v3.345H5.253z"/>
	<path fill="#A37C00" d="M15.047,25.486l-0.834,0.07c-0.074-0.355-0.18-0.613-0.316-0.773c-0.227-0.258-0.506-0.387-0.839-0.387
		c-0.267,0-0.501,0.08-0.704,0.241c-0.264,0.207-0.472,0.511-0.625,0.909c-0.152,0.398-0.231,0.966-0.237,1.702
		c0.202-0.331,0.449-0.577,0.741-0.738s0.598-0.241,0.918-0.241c0.559,0,1.035,0.222,1.428,0.666c0.393,0.443,0.59,1.017,0.59,1.72
		c0,0.462-0.093,0.892-0.277,1.288c-0.185,0.396-0.439,0.701-0.762,0.912c-0.323,0.211-0.69,0.316-1.1,0.316
		c-0.699,0-1.269-0.277-1.71-0.832c-0.441-0.554-0.662-1.467-0.662-2.739c0-1.423,0.244-2.458,0.731-3.104
		c0.425-0.563,0.999-0.844,1.719-0.844c0.537,0,0.978,0.162,1.321,0.487C14.773,24.465,14.979,24.914,15.047,25.486z M11.623,28.66
		c0,0.312,0.062,0.609,0.184,0.895c0.123,0.284,0.294,0.501,0.515,0.65c0.221,0.148,0.452,0.223,0.694,0.223
		c0.354,0,0.659-0.153,0.913-0.462c0.255-0.308,0.382-0.727,0.382-1.255c0-0.51-0.126-0.91-0.377-1.203s-0.568-0.439-0.951-0.439
		c-0.379,0-0.7,0.146-0.964,0.439S11.623,28.185,11.623,28.66z"/>
	<path fill="#A37C00" d="M16.002,27.415c0-0.871,0.083-1.571,0.25-2.103c0.166-0.53,0.413-0.939,0.741-1.228s0.74-0.432,1.237-0.432
		c0.367,0,0.688,0.079,0.964,0.238c0.277,0.159,0.505,0.389,0.685,0.688c0.18,0.299,0.322,0.664,0.424,1.095
		c0.103,0.43,0.154,1.01,0.154,1.74c0,0.863-0.082,1.561-0.247,2.092c-0.165,0.53-0.411,0.94-0.739,1.23
		c-0.328,0.289-0.742,0.435-1.242,0.435c-0.658,0-1.176-0.255-1.551-0.764C16.228,29.795,16.002,28.798,16.002,27.415z
		 M16.864,27.415c0,1.208,0.131,2.013,0.394,2.413c0.262,0.4,0.586,0.6,0.971,0.6s0.709-0.2,0.972-0.603
		c0.262-0.401,0.394-1.205,0.394-2.41c0-1.212-0.131-2.018-0.394-2.416c-0.263-0.398-0.589-0.598-0.981-0.598
		c-0.385,0-0.693,0.176-0.922,0.527C17.009,25.377,16.864,26.206,16.864,27.415z"/>
	<path fill="#A37C00" d="M21.309,27.415c0-0.871,0.083-1.571,0.25-2.103c0.166-0.53,0.413-0.939,0.741-1.228s0.74-0.432,1.237-0.432
		c0.367,0,0.688,0.079,0.964,0.238c0.277,0.159,0.505,0.389,0.685,0.688c0.18,0.299,0.322,0.664,0.424,1.095
		c0.103,0.43,0.154,1.01,0.154,1.74c0,0.863-0.082,1.561-0.247,2.092c-0.165,0.53-0.411,0.94-0.739,1.23
		c-0.328,0.289-0.742,0.435-1.242,0.435c-0.658,0-1.176-0.255-1.551-0.764C21.534,29.795,21.309,28.798,21.309,27.415z
		 M22.171,27.415c0,1.208,0.131,2.013,0.394,2.413c0.262,0.4,0.586,0.6,0.971,0.6s0.709-0.2,0.972-0.603
		c0.262-0.401,0.394-1.205,0.394-2.41c0-1.212-0.131-2.018-0.394-2.416c-0.263-0.398-0.589-0.598-0.981-0.598
		c-0.385,0-0.693,0.176-0.922,0.527C22.315,25.377,22.171,26.206,22.171,27.415z"/>
	<path fill="#A37C00" d="M26.616,27.415c0-0.871,0.083-1.571,0.25-2.103c0.166-0.53,0.413-0.939,0.741-1.228s0.74-0.432,1.237-0.432
		c0.367,0,0.688,0.079,0.964,0.238c0.277,0.159,0.505,0.389,0.685,0.688c0.18,0.299,0.322,0.664,0.424,1.095
		c0.103,0.43,0.154,1.01,0.154,1.74c0,0.863-0.082,1.561-0.247,2.092c-0.165,0.53-0.411,0.94-0.739,1.23
		c-0.328,0.289-0.742,0.435-1.242,0.435c-0.658,0-1.176-0.255-1.551-0.764C26.841,29.795,26.616,28.798,26.616,27.415z
		 M27.478,27.415c0,1.208,0.131,2.013,0.394,2.413c0.262,0.4,0.586,0.6,0.971,0.6s0.709-0.2,0.972-0.603
		c0.262-0.401,0.394-1.205,0.394-2.41c0-1.212-0.131-2.018-0.394-2.416c-0.263-0.398-0.589-0.598-0.981-0.598
		c-0.385,0-0.693,0.176-0.922,0.527C27.623,25.377,27.478,26.206,27.478,27.415z"/>
</g>
<g>
	<g>
		<g>
			<polygon fill="#A37C00" points="7.034,7.688 9.861,5.353 9.861,10.024 			"/>
			<path fill="#A37C00" d="M17.531,13.378c-1.439-1.699-2.361-2.876-2.818-3.592c-0.619-0.973-1.096-1.149-1.258-1.16L9.174,8.651
				V6.666h3.983c0.541-0.079,1.901-0.033,3.231,2.054c0.277,0.435,0.962,1.374,2.657,3.377L17.531,13.378z"/>
		</g>
		<g>
			<polygon fill="#A37C00" points="28.965,16.888 26.138,19.223 26.138,14.552 			"/>
			<path fill="#A37C00" d="M18.468,11.198c1.439,1.699,2.361,2.876,2.818,3.592c0.619,0.973,1.096,1.149,1.258,1.16l4.282-0.025
				v1.984h-3.983c-0.541,0.079-1.901,0.033-3.231-2.054c-0.277-0.435-0.962-1.374-2.657-3.377L18.468,11.198z"/>
		</g>
	</g>
	<g>
		<g>
			<polygon fill="#A37C00" points="28.965,7.688 26.138,5.353 26.138,10.024 			"/>
			<path fill="#A37C00" d="M18.468,13.378c1.439-1.699,2.361-2.876,2.818-3.592c0.619-0.973,1.096-1.149,1.258-1.16l4.282,0.025
				V6.666h-3.983c-0.541-0.079-1.901-0.033-3.231,2.054c-0.277,0.435-0.962,1.374-2.657,3.377L18.468,13.378z"/>
		</g>
		<g>
			<polygon fill="#A37C00" points="7.034,16.888 9.861,19.223 9.861,14.552 			"/>
			<path fill="#A37C00" d="M17.531,11.198c-1.439,1.699-2.361,2.876-2.818,3.592c-0.619,0.973-1.096,1.149-1.258,1.16l-4.282-0.025
				v1.984h3.983c0.541,0.079,1.901,0.033,3.231-2.054c0.277-0.435,0.962-1.374,2.657-3.377L17.531,11.198z"/>
		</g>
	</g>
</g>
</svg>
