<?xml version="1.0" encoding="utf-8"?>
<!-- Generator: Adobe Illustrator 18.0.0, SVG Export Plug-In . SVG Version: 6.00 Build 0)  -->
<!DOCTYPE svg PUBLIC "-//W3C//DTD SVG 1.1//EN" "http://www.w3.org/Graphics/SVG/1.1/DTD/svg11.dtd">
<svg version="1.1" id="图层_1" xmlns="http://www.w3.org/2000/svg" xmlns:xlink="http://www.w3.org/1999/xlink" x="0px" y="0px"
	 width="32px" height="32px" viewBox="0 0 32 32" enable-background="new 0 0 32 32" xml:space="preserve">
<g>
	<g>
		<path fill="#FFFFFF" d="M2.813,28.138c-0.8,0-1.452-0.65-1.452-1.451V5.314c0-0.801,0.651-1.452,1.452-1.452h26.373
			c0.8,0,1.452,0.651,1.452,1.452v21.373c0,0.801-0.651,1.451-1.452,1.451H2.813z"/>
		<path fill="#AFAFAF" d="M29.186,4.225c0.6,0,1.089,0.488,1.089,1.089v21.372c0,0.6-0.488,1.089-1.089,1.089H2.814
			c-0.6,0-1.089-0.488-1.089-1.089V5.314c0-0.6,0.488-1.089,1.089-1.089H29.186 M29.186,3.499H2.814
			c-1.002,0-1.815,0.812-1.815,1.815v21.372c0,1.002,0.812,1.815,1.815,1.815h26.373c1.002,0,1.815-0.812,1.815-1.815V5.314
			C31.001,4.312,30.189,3.499,29.186,3.499L29.186,3.499z"/>
	</g>
	<g>
		<linearGradient id="SVGID_1_" gradientUnits="userSpaceOnUse" x1="15.9996" y1="27.0724" x2="15.9996" y2="4.9273">
			<stop  offset="0" style="stop-color:#F1E821"/>
			<stop  offset="1" style="stop-color:#D6B900"/>
		</linearGradient>
		<path fill="url(#SVGID_1_)" d="M2.713,26.822V5.178c0-0.138,0.113-0.25,0.25-0.25h26.074c0.138,0,0.25,0.112,0.25,0.25v21.645
			c0,0.138-0.113,0.25-0.25,0.25H2.963C2.825,27.072,2.713,26.96,2.713,26.822z"/>
	</g>
	<text transform="matrix(0.9277 0 0 1 4.4903 25.8764)" fill="#A37C00" font-family="'ArialMT'" font-size="8.7506">F5000</text>
	<g>
		<g>
			<g>
				<polygon fill="#A37C00" points="7.067,8.053 9.37,6.15 9.37,9.956 				"/>
				<path fill="#A37C00" d="M15.618,12.688c-1.172-1.384-1.923-2.343-2.295-2.927c-0.504-0.793-0.893-0.936-1.025-0.945L8.81,8.837
					V7.22h3.245c0.441-0.064,1.549-0.027,2.632,1.673c0.225,0.354,0.784,1.119,2.165,2.751L15.618,12.688z"/>
			</g>
			<g>
				<polygon fill="#A37C00" points="24.932,15.547 22.63,17.45 22.63,13.644 				"/>
				<path fill="#A37C00" d="M16.381,10.912c1.172,1.384,1.923,2.343,2.295,2.927c0.504,0.793,0.893,0.936,1.025,0.945l3.488-0.02
					v1.617h-3.245c-0.441,0.064-1.549,0.027-2.632-1.673c-0.225-0.354-0.784-1.119-2.165-2.751L16.381,10.912z"/>
			</g>
		</g>
		<g>
			<g>
				<polygon fill="#A37C00" points="24.932,8.053 22.63,6.15 22.63,9.956 				"/>
				<path fill="#A37C00" d="M16.381,12.688c1.172-1.384,1.923-2.343,2.295-2.927c0.504-0.793,0.893-0.936,1.025-0.945l3.488,0.02
					V7.22h-3.245c-0.441-0.064-1.549-0.027-2.632,1.673c-0.225,0.354-0.784,1.119-2.165,2.751L16.381,12.688z"/>
			</g>
			<g>
				<polygon fill="#A37C00" points="7.067,15.547 9.37,17.45 9.37,13.644 				"/>
				<path fill="#A37C00" d="M15.618,10.912c-1.172,1.384-1.923,2.343-2.295,2.927c-0.504,0.793-0.893,0.936-1.025,0.945l-3.488-0.02
					v1.617h3.245c0.441,0.064,1.549,0.027,2.632-1.673c0.225-0.354,0.784-1.119,2.165-2.751L15.618,10.912z"/>
			</g>
		</g>
	</g>
</g>
</svg>
