<?xml version="1.0" encoding="utf-8"?>
<!-- Generator: Adobe Illustrator 18.0.0, SVG Export Plug-In . SVG Version: 6.00 Build 0)  -->
<!DOCTYPE svg PUBLIC "-//W3C//DTD SVG 1.1//EN" "http://www.w3.org/Graphics/SVG/1.1/DTD/svg11.dtd">
<svg version="1.1" id="图层_1" xmlns="http://www.w3.org/2000/svg" xmlns:xlink="http://www.w3.org/1999/xlink" x="0px" y="0px"
	 width="42px" height="42px" viewBox="0 0 42 42" enable-background="new 0 0 42 42" xml:space="preserve">
<g>
	<path fill="#FFFFFF" d="M3.65,40.47c-1.169,0-2.12-0.951-2.12-2.12V3.65c0-1.169,0.951-2.12,2.12-2.12H38.35
		c1.169,0,2.12,0.951,2.12,2.12V38.35c0,1.169-0.951,2.12-2.12,2.12H3.65z"/>
	<path fill="#AFAFAF" d="M38.35,2.06c0.877,0,1.59,0.713,1.59,1.59V38.35c0,0.877-0.713,1.59-1.59,1.59H3.65
		c-0.877,0-1.59-0.713-1.59-1.59V3.65c0-0.877,0.713-1.59,1.59-1.59H38.35 M38.35,1H3.65C2.187,1,1,2.187,1,3.65V38.35
		C1,39.813,2.187,41,3.65,41H38.35c1.464,0,2.65-1.187,2.65-2.65V3.65C41,2.187,39.813,1,38.35,1L38.35,1z"/>
</g>
<g>
	<linearGradient id="SVGID_1_" gradientUnits="userSpaceOnUse" x1="20.9994" y1="38.7147" x2="20.9994" y2="3.285">
		<stop  offset="0" style="stop-color:#76797A"/>
		<stop  offset="1" style="stop-color:#5F6263"/>
	</linearGradient>
	<path fill="url(#SVGID_1_)" d="M3.65,38.715c-0.201,0-0.366-0.165-0.366-0.366V3.651c0-0.201,0.165-0.366,0.366-0.366h34.7
		c0.201,0,0.364,0.165,0.364,0.366v34.699c0,0.201-0.163,0.366-0.364,0.366H3.65z"/>
</g>
<g>
	<g>
		<g>
			<polygon fill="#F5F5F5" points="8.816,9.543 11.957,6.948 11.957,12.138 			"/>
			<path fill="#F5F5F5" d="M20.479,15.864c-1.599-1.888-2.623-3.195-3.131-3.992c-0.687-1.081-1.218-1.276-1.398-1.289l-4.757,0.028
				V8.407h4.425c0.601-0.088,2.113-0.037,3.59,2.282c0.308,0.483,1.069,1.527,2.952,3.752L20.479,15.864z"/>
		</g>
		<g>
			<polygon fill="#F5F5F5" points="33.183,19.764 30.042,22.359 30.042,17.169 			"/>
			<path fill="#F5F5F5" d="M21.52,13.442c1.599,1.888,2.623,3.195,3.131,3.992c0.687,1.081,1.218,1.276,1.398,1.289l4.757-0.028
				V20.9H26.38c-0.601,0.088-2.113,0.037-3.59-2.282c-0.308-0.483-1.069-1.527-2.952-3.752L21.52,13.442z"/>
		</g>
	</g>
	<g>
		<g>
			<polygon fill="#F5F5F5" points="33.183,9.543 30.042,6.948 30.042,12.138 			"/>
			<path fill="#F5F5F5" d="M21.52,15.864c1.599-1.888,2.623-3.195,3.131-3.992c0.687-1.081,1.218-1.276,1.398-1.289l4.757,0.028
				V8.407H26.38c-0.601-0.088-2.113-0.037-3.59,2.282c-0.308,0.483-1.069,1.527-2.952,3.752L21.52,15.864z"/>
		</g>
		<g>
			<polygon fill="#F5F5F5" points="8.816,19.764 11.957,22.359 11.957,17.169 			"/>
			<path fill="#F5F5F5" d="M20.479,13.442c-1.599,1.888-2.623,3.195-3.131,3.992c-0.687,1.081-1.218,1.276-1.398,1.289l-4.757-0.028
				V20.9h4.425c0.601,0.088,2.113,0.037,3.59-2.282c0.308-0.483,1.069-1.527,2.952-3.752L20.479,13.442z"/>
		</g>
	</g>
</g>
<g>
	<path fill="#FFFFFF" d="M8.254,35.497v-8.181h4.608v0.965H9.158v2.534h3.206v0.965H9.158v3.717H8.254z"/>
	<path fill="#FFFFFF" d="M18.048,29.319l-0.834,0.078c-0.075-0.394-0.18-0.681-0.317-0.859c-0.227-0.286-0.506-0.43-0.839-0.43
		c-0.267,0-0.501,0.09-0.704,0.269c-0.264,0.23-0.472,0.567-0.624,1.01c-0.152,0.442-0.231,1.073-0.238,1.892
		c0.202-0.368,0.449-0.642,0.741-0.82s0.598-0.268,0.918-0.268c0.559,0,1.035,0.246,1.428,0.739s0.589,1.13,0.589,1.911
		c0,0.514-0.092,0.99-0.277,1.432c-0.185,0.44-0.438,0.778-0.762,1.013s-0.689,0.352-1.1,0.352c-0.699,0-1.269-0.308-1.71-0.924
		c-0.441-0.615-0.662-1.63-0.662-3.044c0-1.581,0.244-2.73,0.731-3.448c0.426-0.625,0.999-0.938,1.719-0.938
		c0.538,0,0.978,0.18,1.321,0.541C17.774,28.185,17.98,28.684,18.048,29.319z M14.624,32.847c0,0.346,0.062,0.677,0.184,0.993
		s0.294,0.557,0.515,0.723c0.22,0.165,0.452,0.248,0.694,0.248c0.354,0,0.659-0.171,0.914-0.514
		c0.254-0.342,0.382-0.807,0.382-1.395c0-0.565-0.125-1.011-0.377-1.337c-0.251-0.325-0.568-0.488-0.95-0.488
		c-0.379,0-0.701,0.163-0.965,0.488C14.756,31.892,14.624,32.318,14.624,32.847z"/>
	<path fill="#FFFFFF" d="M19.003,31.463c0-0.968,0.083-1.746,0.25-2.336c0.166-0.59,0.413-1.044,0.741-1.364s0.74-0.479,1.237-0.479
		c0.366,0,0.688,0.088,0.964,0.265s0.505,0.432,0.685,0.765s0.321,0.738,0.424,1.217c0.103,0.478,0.154,1.122,0.154,1.934
		c0,0.959-0.083,1.734-0.247,2.324c-0.165,0.589-0.411,1.045-0.738,1.367c-0.328,0.321-0.742,0.482-1.242,0.482
		c-0.659,0-1.176-0.283-1.552-0.849C19.229,34.107,19.003,32.999,19.003,31.463z M19.866,31.463c0,1.343,0.131,2.236,0.394,2.681
		c0.262,0.445,0.586,0.667,0.972,0.667c0.385,0,0.709-0.223,0.971-0.67c0.263-0.446,0.394-1.339,0.394-2.678
		c0-1.347-0.131-2.242-0.394-2.685c-0.262-0.442-0.589-0.664-0.98-0.664c-0.385,0-0.693,0.195-0.923,0.586
		C20.01,29.199,19.866,30.119,19.866,31.463z"/>
	<path fill="#FFFFFF" d="M24.311,31.463c0-0.968,0.083-1.746,0.25-2.336c0.166-0.59,0.413-1.044,0.741-1.364s0.74-0.479,1.237-0.479
		c0.366,0,0.688,0.088,0.964,0.265s0.505,0.432,0.685,0.765s0.321,0.738,0.424,1.217c0.103,0.478,0.154,1.122,0.154,1.934
		c0,0.959-0.083,1.734-0.247,2.324c-0.165,0.589-0.411,1.045-0.738,1.367c-0.328,0.321-0.742,0.482-1.242,0.482
		c-0.659,0-1.176-0.283-1.552-0.849C24.536,34.107,24.311,32.999,24.311,31.463z M25.173,31.463c0,1.343,0.131,2.236,0.394,2.681
		c0.262,0.445,0.586,0.667,0.972,0.667c0.385,0,0.709-0.223,0.971-0.67c0.263-0.446,0.394-1.339,0.394-2.678
		c0-1.347-0.131-2.242-0.394-2.685c-0.262-0.442-0.589-0.664-0.98-0.664c-0.385,0-0.693,0.195-0.923,0.586
		C25.317,29.199,25.173,30.119,25.173,31.463z"/>
	<path fill="#FFFFFF" d="M29.618,31.463c0-0.968,0.083-1.746,0.25-2.336c0.166-0.59,0.413-1.044,0.741-1.364s0.74-0.479,1.237-0.479
		c0.366,0,0.688,0.088,0.964,0.265s0.505,0.432,0.685,0.765s0.321,0.738,0.424,1.217c0.103,0.478,0.154,1.122,0.154,1.934
		c0,0.959-0.083,1.734-0.247,2.324c-0.165,0.589-0.411,1.045-0.738,1.367c-0.328,0.321-0.742,0.482-1.242,0.482
		c-0.659,0-1.176-0.283-1.552-0.849C29.843,34.107,29.618,32.999,29.618,31.463z M30.48,31.463c0,1.343,0.131,2.236,0.394,2.681
		c0.262,0.445,0.586,0.667,0.972,0.667c0.385,0,0.709-0.223,0.971-0.67c0.263-0.446,0.394-1.339,0.394-2.678
		c0-1.347-0.131-2.242-0.394-2.685c-0.262-0.442-0.589-0.664-0.98-0.664c-0.385,0-0.693,0.195-0.923,0.586
		C30.625,29.199,30.48,30.119,30.48,31.463z"/>
</g>
</svg>
