<?xml version="1.0" encoding="utf-8"?>
<!-- Generator: Adobe Illustrator 18.0.0, SVG Export Plug-In . SVG Version: 6.00 Build 0)  -->
<!DOCTYPE svg PUBLIC "-//W3C//DTD SVG 1.1//EN" "http://www.w3.org/Graphics/SVG/1.1/DTD/svg11.dtd">
<svg version="1.1" id="图层_1" xmlns="http://www.w3.org/2000/svg" xmlns:xlink="http://www.w3.org/1999/xlink" x="0px" y="0px"
	 width="32px" height="32px" viewBox="0 0 32 32" enable-background="new 0 0 32 32" xml:space="preserve">
<g>
	<g>
		<path fill="#FFFFFF" d="M2.814,28.137c-0.8,0-1.452-0.65-1.452-1.451V5.314c0-0.801,0.651-1.451,1.452-1.451h26.371
			c0.8,0,1.452,0.65,1.452,1.451v21.371c0,0.801-0.651,1.451-1.452,1.451H2.814z"/>
		<path fill="#AFAFAF" d="M29.185,4.226c0.6,0,1.089,0.488,1.089,1.089v21.371c0,0.6-0.488,1.089-1.089,1.089H2.815
			c-0.6,0-1.089-0.488-1.089-1.089V5.315c0-0.6,0.488-1.089,1.089-1.089H29.185 M29.185,3.5H2.815C1.812,3.5,1,4.313,1,5.315v21.371
			C1,27.688,1.812,28.5,2.815,28.5h26.371c1.002,0,1.815-0.812,1.815-1.815V5.315C31,4.313,30.188,3.5,29.185,3.5L29.185,3.5z"/>
	</g>
	<g>
		<linearGradient id="SVGID_1_" gradientUnits="userSpaceOnUse" x1="15.9996" y1="27.0718" x2="15.9996" y2="4.9282">
			<stop  offset="0" style="stop-color:#76797A"/>
			<stop  offset="1" style="stop-color:#5F6263"/>
		</linearGradient>
		<path fill="url(#SVGID_1_)" d="M2.713,26.822V5.178c0-0.138,0.113-0.25,0.25-0.25h26.072c0.138,0,0.25,0.112,0.25,0.25v21.643
			c0,0.138-0.113,0.25-0.25,0.25H2.964C2.826,27.072,2.713,26.959,2.713,26.822z"/>
	</g>
	<text transform="matrix(0.9277 0 0 1 4.4913 25.8763)" fill="#F5F5F5" font-family="'ArialMT'" font-size="8.75">F5000</text>
	<g>
		<g>
			<g>
				<polygon fill="#F5F5F5" points="7.067,8.054 9.37,6.151 9.37,9.956 				"/>
				<path fill="#F5F5F5" d="M15.618,12.688c-1.172-1.384-1.923-2.343-2.295-2.926c-0.504-0.792-0.893-0.936-1.025-0.945L8.81,8.838
					V7.221h3.244c0.441-0.064,1.549-0.027,2.632,1.673c0.225,0.354,0.783,1.119,2.164,2.751L15.618,12.688z"/>
			</g>
			<g>
				<polygon fill="#F5F5F5" points="24.932,15.547 22.629,17.45 22.629,13.645 				"/>
				<path fill="#F5F5F5" d="M16.381,10.913c1.172,1.384,1.923,2.343,2.295,2.926c0.504,0.792,0.893,0.936,1.025,0.945l3.488-0.02
					v1.617h-3.244c-0.441,0.064-1.549,0.027-2.632-1.673c-0.225-0.354-0.783-1.119-2.164-2.751L16.381,10.913z"/>
			</g>
		</g>
		<g>
			<g>
				<polygon fill="#F5F5F5" points="24.932,8.054 22.629,6.151 22.629,9.956 				"/>
				<path fill="#F5F5F5" d="M16.381,12.688c1.172-1.384,1.923-2.343,2.295-2.926c0.504-0.792,0.893-0.936,1.025-0.945l3.488,0.02
					V7.221h-3.244c-0.441-0.064-1.549-0.027-2.632,1.673c-0.225,0.354-0.783,1.119-2.164,2.751L16.381,12.688z"/>
			</g>
			<g>
				<polygon fill="#F5F5F5" points="7.067,15.547 9.37,17.45 9.37,13.645 				"/>
				<path fill="#F5F5F5" d="M15.618,10.913c-1.172,1.384-1.923,2.343-2.295,2.926c-0.504,0.792-0.893,0.936-1.025,0.945l-3.488-0.02
					v1.617h3.244c0.441,0.064,1.549,0.027,2.632-1.673c0.225-0.354,0.783-1.119,2.164-2.751L15.618,10.913z"/>
			</g>
		</g>
	</g>
</g>
</svg>
