<?xml version="1.0" encoding="utf-8"?>
<!-- Generator: Adobe Illustrator 18.0.0, SVG Export Plug-In . SVG Version: 6.00 Build 0)  -->
<!DOCTYPE svg PUBLIC "-//W3C//DTD SVG 1.1//EN" "http://www.w3.org/Graphics/SVG/1.1/DTD/svg11.dtd">
<svg version="1.1" id="图层_1" xmlns="http://www.w3.org/2000/svg" xmlns:xlink="http://www.w3.org/1999/xlink" x="0px" y="0px"
	 width="32px" height="32px" viewBox="0 0 32 32" enable-background="new 0 0 32 32" xml:space="preserve">
<g>
	<path fill="#FFFFFF" d="M2.988,30.65c-0.903,0-1.638-0.735-1.638-1.638V2.988c0-0.903,0.734-1.638,1.638-1.638h26.024
		c0.903,0,1.638,0.734,1.638,1.638v26.025c0,0.902-0.734,1.638-1.638,1.638H2.988z"/>
	<path fill="#AFAFAF" d="M29.012,1.7c0.71,0,1.288,0.578,1.288,1.288v26.024c0,0.71-0.578,1.288-1.288,1.288H2.988
		c-0.71,0-1.288-0.578-1.288-1.288V2.988C1.7,2.278,2.278,1.7,2.988,1.7H29.012 M29.012,1H2.988C1.89,1,1,1.89,1,2.988v26.024
		C1,30.11,1.89,31,2.988,31h26.024C30.11,31,31,30.11,31,29.012V2.988C31,1.89,30.11,1,29.012,1L29.012,1z"/>
</g>
<g>
	<linearGradient id="SVGID_1_" gradientUnits="userSpaceOnUse" x1="16.0001" y1="29.2862" x2="16.0001" y2="2.714">
		<stop  offset="0" style="stop-color:#F1E821"/>
		<stop  offset="1" style="stop-color:#D6B900"/>
	</linearGradient>
	<path fill="url(#SVGID_1_)" d="M2.988,29.286c-0.151,0-0.274-0.123-0.274-0.274V2.988c0-0.151,0.123-0.274,0.274-0.274h26.025
		c0.151,0,0.273,0.123,0.273,0.274v26.024c0,0.151-0.122,0.274-0.273,0.274H2.988z"/>
</g>
<g>
	<path fill="#A37C00" d="M16.094,24.75c-4.825,0-8.75-3.925-8.75-8.75s3.925-8.75,8.75-8.75s8.75,3.925,8.75,8.75
		S20.919,24.75,16.094,24.75z M16.094,10.45c-3.061,0-5.55,2.49-5.55,5.55c0,3.06,2.49,5.55,5.55,5.55c3.06,0,5.55-2.49,5.55-5.55
		C21.644,12.94,19.154,10.45,16.094,10.45z"/>
	<path fill="#FFFFFF" d="M16.094,9.95c3.336,0,6.05,2.714,6.05,6.05s-2.714,6.05-6.05,6.05c-3.336,0-6.05-2.714-6.05-6.05
		S12.758,9.95,16.094,9.95 M16.094,7.75c-4.556,0-8.25,3.694-8.25,8.25s3.694,8.25,8.25,8.25c4.556,0,8.25-3.694,8.25-8.25
		S20.651,7.75,16.094,7.75L16.094,7.75z"/>
	<g>
		<polygon fill="#FFFFFF" points="2.818,18.942 7.253,15.302 7.253,17.752 26.204,17.752 26.204,20.133 7.253,20.133 7.253,22.581 
					"/>
		<path fill="#A37C00" d="M7.003,15.831v2.17h18.952v1.881H7.003v2.17l-3.791-3.111L7.003,15.831 M7.503,14.774l-0.817,0.671
			l-3.791,3.111l-0.471,0.387l0.471,0.387l3.791,3.111l0.817,0.671v-1.057v-1.67h18.452h0.5v-0.5v-1.881v-0.5h-0.5H7.503v-1.67
			V14.774L7.503,14.774z"/>
	</g>
	<g>
		<polygon fill="#FFFFFF" points="24.748,14.102 5.796,14.102 5.796,11.721 24.748,11.721 24.748,9.272 29.182,12.912 
			24.748,16.551 		"/>
		<path fill="#A37C00" d="M24.998,9.801l3.791,3.111l-3.791,3.111v-2.17H6.046v-1.881h18.952V9.801 M24.498,8.744v1.057v1.67H6.046
			h-0.5v0.5v1.881v0.5h0.5h18.452v1.67v1.057l0.817-0.671l3.791-3.111l0.471-0.387l-0.471-0.387l-3.791-3.111L24.498,8.744
			L24.498,8.744z"/>
	</g>
</g>
</svg>
