<?xml version="1.0" encoding="utf-8"?>
<!-- Generator: Adobe Illustrator 18.0.0, SVG Export Plug-In . SVG Version: 6.00 Build 0)  -->
<!DOCTYPE svg PUBLIC "-//W3C//DTD SVG 1.1//EN" "http://www.w3.org/Graphics/SVG/1.1/DTD/svg11.dtd">
<svg version="1.1" id="图层_1" xmlns="http://www.w3.org/2000/svg" xmlns:xlink="http://www.w3.org/1999/xlink" x="0px" y="0px"
	 width="32px" height="32px" viewBox="0 0 32 32" enable-background="new 0 0 32 32" xml:space="preserve">
<g>
	<path fill="#FFFFFF" d="M2.988,30.65c-0.903,0-1.638-0.734-1.638-1.638V2.988c0-0.903,0.734-1.638,1.638-1.638h26.025
		c0.902,0,1.638,0.734,1.638,1.638v26.024c0,0.903-0.735,1.638-1.638,1.638H2.988z"/>
	<path fill="#AFAFAF" d="M29.012,1.7c0.71,0,1.288,0.578,1.288,1.288v26.024c0,0.71-0.578,1.288-1.288,1.288H2.988
		c-0.71,0-1.288-0.578-1.288-1.288V2.988C1.7,2.278,2.278,1.7,2.988,1.7H29.012 M29.012,1H2.988C1.89,1,1,1.89,1,2.988v26.024
		C1,30.11,1.89,31,2.988,31h26.024C30.11,31,31,30.11,31,29.012V2.988C31,1.89,30.11,1,29.012,1L29.012,1z"/>
</g>
<g>
	<linearGradient id="SVGID_1_" gradientUnits="userSpaceOnUse" x1="16.0001" y1="29.2862" x2="16.0001" y2="2.714">
		<stop  offset="0" style="stop-color:#2CA539"/>
		<stop  offset="1" style="stop-color:#009117"/>
	</linearGradient>
	<path fill="url(#SVGID_1_)" d="M2.988,29.286c-0.151,0-0.274-0.123-0.274-0.274V2.988c0-0.151,0.123-0.274,0.274-0.274h26.025
		c0.151,0,0.273,0.123,0.273,0.274v26.024c0,0.151-0.122,0.274-0.273,0.274H2.988z"/>
</g>
<g>
	<path fill="#FFFFFF" d="M16.094,9.95c3.336,0,6.05,2.714,6.05,6.05s-2.714,6.05-6.05,6.05c-3.336,0-6.05-2.714-6.05-6.05
		S12.758,9.95,16.094,9.95 M16.094,7.75c-4.556,0-8.25,3.694-8.25,8.25s3.694,8.25,8.25,8.25c4.556,0,8.25-3.694,8.25-8.25
		S20.651,7.75,16.094,7.75L16.094,7.75z"/>
	<g>
		<polygon fill="#FFFFFF" points="3.212,18.942 7.003,22.053 7.003,15.832 		"/>
		<rect x="6.314" y="18.002" fill="#FFFFFF" width="19.64" height="1.881"/>
	</g>
	<g>
		<polygon fill="#FFFFFF" points="28.788,12.912 24.998,16.023 24.998,9.801 		"/>
		<rect x="6.046" y="11.971" fill="#FFFFFF" width="19.64" height="1.881"/>
	</g>
</g>
</svg>
