<?xml version="1.0" encoding="utf-8"?>
<!-- Generator: Adobe Illustrator 18.0.0, SVG Export Plug-In . SVG Version: 6.00 Build 0)  -->
<!DOCTYPE svg PUBLIC "-//W3C//DTD SVG 1.1//EN" "http://www.w3.org/Graphics/SVG/1.1/DTD/svg11.dtd">
<svg version="1.1" id="图层_1" xmlns="http://www.w3.org/2000/svg" xmlns:xlink="http://www.w3.org/1999/xlink" x="0px" y="0px"
	 width="36px" height="36px" viewBox="0 0 36 36" enable-background="new 0 0 36 36" xml:space="preserve">
<path fill="#FFFFFF" stroke="#C6C6C6" stroke-width="0.9976" stroke-miterlimit="10" d="M0.541,33.327V2.673
	c0-1.2,0.973-2.173,2.173-2.173h30.572c1.2,0,2.173,0.973,2.173,2.173v30.655c0,1.2-0.973,2.172-2.172,2.172H2.714
	C1.514,35.5,0.541,34.527,0.541,33.327z"/>
<path fill="#BABABA" d="M32.632,33.837H3.368c-0.735,0-1.33-0.596-1.33-1.33V3.327c0-0.735,0.596-1.33,1.33-1.33h29.264
	c0.735,0,1.33,0.596,1.33,1.33v29.181C33.962,33.242,33.367,33.837,32.632,33.837z"/>
<g>
	<path fill="#FFFFFF" d="M11.348,30.836H5.841v-0.994l2.63-2.625c0.725-0.725,1.21-1.299,1.456-1.722s0.368-0.86,0.368-1.313
		c0-0.514-0.144-0.909-0.433-1.184c-0.288-0.275-0.705-0.412-1.251-0.412c-0.807,0-1.576,0.343-2.309,1.029v-1.163
		c0.713-0.55,1.543-0.824,2.49-0.824c0.814,0,1.457,0.22,1.929,0.661s0.708,1.033,0.708,1.777c0,0.561-0.151,1.112-0.453,1.651
		c-0.302,0.54-0.874,1.227-1.716,2.061l-2.063,2.017v0.023h4.15V30.836z"/>
	<path fill="#FFFFFF" d="M12.938,30.234c0-0.21,0.072-0.388,0.216-0.532c0.144-0.145,0.323-0.216,0.538-0.216
		c0.218,0,0.399,0.073,0.543,0.219c0.144,0.146,0.216,0.322,0.216,0.529c0,0.203-0.072,0.377-0.216,0.523
		c-0.144,0.146-0.327,0.219-0.549,0.219c-0.214,0-0.393-0.073-0.535-0.219C13.009,30.611,12.938,30.437,12.938,30.234z"/>
	<path fill="#FFFFFF" d="M16.159,29.445c0.608,0.397,1.241,0.596,1.9,0.596c0.624,0,1.126-0.174,1.508-0.523
		c0.382-0.349,0.573-0.812,0.573-1.388c0-0.581-0.194-1.031-0.582-1.35c-0.388-0.32-0.95-0.479-1.686-0.479
		c-0.355,0-0.832,0.027-1.432,0.082v-4.601h4.454v1.011h-3.391v2.561c0.339-0.02,0.594-0.029,0.766-0.029
		c0.955,0,1.699,0.242,2.233,0.725c0.534,0.483,0.801,1.15,0.801,2c0,0.876-0.287,1.586-0.859,2.127
		c-0.573,0.542-1.364,0.813-2.373,0.813c-0.846,0-1.483-0.125-1.912-0.374V29.445z"/>
	<path fill="#FFFFFF" d="M30.159,30.216c-0.904,0.515-1.925,0.771-3.063,0.771c-1.31,0-2.365-0.414-3.166-1.242
		s-1.201-1.934-1.201-3.317c0-1.399,0.442-2.548,1.327-3.449c0.884-0.9,2.019-1.35,3.402-1.35c0.978,0,1.806,0.156,2.484,0.468
		v1.262c-0.725-0.456-1.588-0.684-2.589-0.684c-0.986,0-1.799,0.337-2.438,1.011c-0.64,0.674-0.959,1.563-0.959,2.666
		c0,1.134,0.294,2.017,0.883,2.648s1.383,0.947,2.385,0.947c0.69,0,1.276-0.132,1.76-0.397v-2.449H27.02v-1.035h3.139V30.216z"/>
</g>
<g opacity="0.9">
	<g>
		<polygon fill="#FFFFFF" points="10.757,11.124 8.578,8.856 10.757,6.589 		"/>
		<polygon fill="#FFFFFF" points="25.243,11.124 27.422,8.856 25.243,6.589 		"/>
		<rect x="10.209" y="8.348" fill="#FFFFFF" width="15.713" height="1.017"/>
	</g>
	<path fill="#FFFFFF" d="M18.184,5.178c2.028,0,3.679,1.65,3.679,3.679s-1.65,3.679-3.679,3.679s-3.679-1.65-3.679-3.679
		S16.155,5.178,18.184,5.178 M18.184,3.681c-2.858,0-5.175,2.317-5.175,5.175s2.317,5.175,5.175,5.175s5.175-2.317,5.175-5.175
		S21.042,3.681,18.184,3.681L18.184,3.681z"/>
	<rect x="17.186" y="13.926" fill="#FFFFFF" width="1.995" height="3.658"/>
	<rect x="15.742" y="15.589" fill="#FFFFFF" width="4.884" height="0.998"/>
</g>
</svg>
