<?xml version="1.0" encoding="utf-8"?>
<!-- Generator: Adobe Illustrator 18.0.0, SVG Export Plug-In . SVG Version: 6.00 Build 0)  -->
<!DOCTYPE svg PUBLIC "-//W3C//DTD SVG 1.1//EN" "http://www.w3.org/Graphics/SVG/1.1/DTD/svg11.dtd">
<svg version="1.1" id="图层_1" xmlns="http://www.w3.org/2000/svg" xmlns:xlink="http://www.w3.org/1999/xlink" x="0px" y="0px"
	 width="32px" height="32px" viewBox="0 0 32 32" enable-background="new 0 0 32 32" xml:space="preserve">
<path fill="none" stroke="#C6C6C6" stroke-width="0.7759" stroke-miterlimit="10" d="M0.5,26.233V5.767
	c0-0.933,0.757-1.69,1.69-1.69h27.62c0.933,0,1.69,0.757,1.69,1.69v20.467c0,0.933-0.756,1.689-1.689,1.689H2.19
	C1.257,27.923,0.5,27.167,0.5,26.233z"/>
<path fill="#BABABA" d="M29.211,26.79H2.937c-0.571,0-1.035-0.463-1.035-1.035V6.131c0-0.571,0.463-1.035,1.035-1.035h26.274
	c0.571,0,1.035,0.463,1.035,1.035v19.625C30.245,26.327,29.782,26.79,29.211,26.79z"/>
<g>
	<path fill="#FFFFFF" d="M10.187,25.247H6.568v-0.688h1.415v-4.793l-1.451,0.42v-0.733l2.246-0.652v5.759h1.41V25.247z"/>
	<path fill="#FFFFFF" d="M15.082,25.247h-3.619v-0.688h1.415v-4.793l-1.451,0.42v-0.733l2.246-0.652v5.759h1.41V25.247z"/>
	<path fill="#FFFFFF" d="M15.958,22.214c0-1.114,0.185-1.957,0.555-2.528c0.369-0.572,0.904-0.858,1.605-0.858
		c1.336,0,2.005,1.079,2.005,3.236c0,1.065-0.188,1.879-0.564,2.443c-0.376,0.564-0.904,0.846-1.583,0.846
		c-0.641,0-1.138-0.268-1.49-0.803C16.134,24.015,15.958,23.236,15.958,22.214z M16.773,22.178c0,1.676,0.425,2.515,1.275,2.515
		c0.837,0,1.255-0.852,1.255-2.555c0-1.763-0.411-2.645-1.231-2.645C17.206,19.492,16.773,20.388,16.773,22.178z"/>
	<path fill="#FFFFFF" d="M21.296,25.247v-6.313h1.854c0.554,0,0.997,0.132,1.329,0.397c0.331,0.265,0.497,0.616,0.497,1.053
		c0,0.348-0.099,0.655-0.295,0.921c-0.197,0.267-0.468,0.455-0.813,0.566v0.017c0.429,0.049,0.772,0.211,1.029,0.487
		s0.385,0.625,0.385,1.049c0,0.543-0.195,0.983-0.585,1.318c-0.39,0.336-0.889,0.503-1.498,0.503H21.296z M22.111,19.647v1.977
		h0.742c0.394,0,0.703-0.096,0.927-0.287s0.336-0.457,0.336-0.797c0-0.595-0.397-0.893-1.19-0.893H22.111z M22.111,22.333v2.2h0.979
		c0.426,0,0.756-0.098,0.988-0.295c0.232-0.197,0.349-0.471,0.349-0.821c0-0.723-0.49-1.084-1.471-1.084H22.111z"/>
</g>
<g opacity="0.9">
	<g>
		<polygon fill="#FFFFFF" points="11.097,11.696 9.599,10.138 11.097,8.58 		"/>
		<polygon fill="#FFFFFF" points="21.051,11.696 22.548,10.138 21.051,8.58 		"/>
		<rect x="10.72" y="9.788" fill="#FFFFFF" width="10.797" height="0.699"/>
	</g>
	<path fill="#FFFFFF" d="M16.2,7.61c1.394,0,2.528,1.134,2.528,2.528s-1.134,2.528-2.528,2.528c-1.394,0-2.528-1.134-2.528-2.528
		S14.806,7.61,16.2,7.61 M16.2,6.582c-1.964,0-3.556,1.592-3.556,3.556s1.592,3.556,3.556,3.556s3.556-1.592,3.556-3.556
		S18.164,6.582,16.2,6.582L16.2,6.582z"/>
	<rect x="15.514" y="13.622" fill="#FFFFFF" width="1.371" height="2.514"/>
	<rect x="14.522" y="14.764" fill="#FFFFFF" width="3.356" height="0.686"/>
</g>
</svg>
