<?xml version="1.0" encoding="utf-8"?>
<!-- Generator: Adobe Illustrator 18.0.0, SVG Export Plug-In . SVG Version: 6.00 Build 0)  -->
<!DOCTYPE svg PUBLIC "-//W3C//DTD SVG 1.1//EN" "http://www.w3.org/Graphics/SVG/1.1/DTD/svg11.dtd">
<svg version="1.1" id="图层_1" xmlns="http://www.w3.org/2000/svg" xmlns:xlink="http://www.w3.org/1999/xlink" x="0px" y="0px"
	 width="36px" height="36px" viewBox="0 0 36 36" enable-background="new 0 0 36 36" xml:space="preserve">
<path fill="#FFFFFF" stroke="#C6C6C6" stroke-width="0.9976" stroke-miterlimit="10" d="M0.541,33.327V2.673
	c0-1.2,0.973-2.173,2.173-2.173h30.572c1.2,0,2.173,0.973,2.173,2.173v30.655c0,1.2-0.973,2.172-2.172,2.172H2.714
	C1.514,35.5,0.541,34.527,0.541,33.327z"/>
<linearGradient id="SVGID_1_" gradientUnits="userSpaceOnUse" x1="18.0831" y1="33.8373" x2="18.0831" y2="1.9963">
	<stop  offset="0" style="stop-color:#FF7F01"/>
	<stop  offset="1" style="stop-color:#F05800"/>
</linearGradient>
<path fill="url(#SVGID_1_)" d="M32.715,33.837H3.451c-0.735,0-1.33-0.596-1.33-1.33V3.327c0-0.735,0.596-1.33,1.33-1.33h29.264
	c0.735,0,1.33,0.596,1.33,1.33v29.181C34.045,33.242,33.45,33.837,32.715,33.837z"/>
<g>
	<path fill="#FFFFFF" d="M11.431,30.835H5.925v-0.994l2.63-2.624c0.725-0.725,1.21-1.299,1.456-1.722s0.368-0.86,0.368-1.313
		c0-0.515-0.144-0.909-0.433-1.184c-0.288-0.274-0.705-0.412-1.251-0.412c-0.807,0-1.576,0.343-2.309,1.029v-1.164
		c0.713-0.549,1.543-0.824,2.49-0.824c0.814,0,1.457,0.221,1.929,0.661s0.708,1.032,0.708,1.776c0,0.562-0.151,1.112-0.453,1.651
		c-0.302,0.54-0.874,1.228-1.716,2.061l-2.063,2.018v0.022h4.15V30.835z"/>
	<path fill="#FFFFFF" d="M13.022,30.232c0-0.21,0.072-0.388,0.216-0.531c0.144-0.145,0.323-0.217,0.538-0.217
		c0.218,0,0.399,0.073,0.543,0.22c0.144,0.146,0.216,0.322,0.216,0.528c0,0.203-0.072,0.378-0.216,0.523
		c-0.144,0.146-0.327,0.22-0.549,0.22c-0.214,0-0.393-0.073-0.535-0.22C13.092,30.61,13.022,30.436,13.022,30.232z"/>
	<path fill="#FFFFFF" d="M16.242,29.443c0.608,0.397,1.241,0.597,1.9,0.597c0.624,0,1.126-0.175,1.508-0.523
		s0.573-0.812,0.573-1.388c0-0.581-0.194-1.031-0.582-1.351s-0.95-0.479-1.686-0.479c-0.355,0-0.832,0.027-1.432,0.082V21.78h4.454
		v1.012h-3.39v2.56c0.339-0.02,0.594-0.029,0.766-0.029c0.955,0,1.699,0.242,2.233,0.726c0.534,0.483,0.8,1.149,0.8,1.999
		c0,0.877-0.286,1.586-0.859,2.128c-0.573,0.541-1.364,0.813-2.373,0.813c-0.846,0-1.483-0.125-1.912-0.374V29.443z"/>
	<path fill="#FFFFFF" d="M30.241,30.216c-0.903,0.514-1.925,0.771-3.063,0.771c-1.31,0-2.364-0.414-3.165-1.242
		s-1.201-1.935-1.201-3.317c0-1.399,0.441-2.549,1.326-3.449s2.019-1.351,3.402-1.351c0.979,0,1.807,0.156,2.484,0.468v1.263
		c-0.725-0.456-1.588-0.684-2.59-0.684c-0.985,0-1.798,0.337-2.438,1.011c-0.639,0.675-0.958,1.563-0.958,2.666
		c0,1.134,0.294,2.017,0.882,2.647c0.589,0.632,1.384,0.947,2.386,0.947c0.689,0,1.275-0.132,1.759-0.397V27.1h-1.964v-1.034h3.139
		V30.216z"/>
</g>
<g opacity="0.9">
	<g>
		<polygon fill="#FFFFFF" points="10.757,11.124 8.578,8.856 10.757,6.589 		"/>
		<polygon fill="#FFFFFF" points="25.243,11.124 27.422,8.856 25.243,6.589 		"/>
		<rect x="10.209" y="8.348" fill="#FFFFFF" width="15.713" height="1.017"/>
	</g>
	<path fill="#FFFFFF" d="M18.184,5.178c2.028,0,3.679,1.65,3.679,3.679s-1.65,3.679-3.679,3.679s-3.679-1.65-3.679-3.679
		S16.155,5.178,18.184,5.178 M18.184,3.681c-2.858,0-5.175,2.317-5.175,5.175s2.317,5.175,5.175,5.175s5.175-2.317,5.175-5.175
		S21.042,3.681,18.184,3.681L18.184,3.681z"/>
	<rect x="17.186" y="13.926" fill="#FFFFFF" width="1.995" height="3.658"/>
	<rect x="15.742" y="15.589" fill="#FFFFFF" width="4.884" height="0.998"/>
</g>
</svg>
