<?xml version="1.0" encoding="utf-8"?>
<!-- Generator: Adobe Illustrator 18.0.0, SVG Export Plug-In . SVG Version: 6.00 Build 0)  -->
<!DOCTYPE svg PUBLIC "-//W3C//DTD SVG 1.1//EN" "http://www.w3.org/Graphics/SVG/1.1/DTD/svg11.dtd">
<svg version="1.1" id="图层_1" xmlns="http://www.w3.org/2000/svg" xmlns:xlink="http://www.w3.org/1999/xlink" x="0px" y="0px"
	 width="32px" height="32px" viewBox="0 0 32 32" enable-background="new 0 0 32 32" xml:space="preserve">
<path fill="none" stroke="#C6C6C6" stroke-width="0.7759" stroke-miterlimit="10" d="M0.5,26.233V5.767
	c0-0.933,0.757-1.69,1.69-1.69h27.62c0.933,0,1.69,0.757,1.69,1.69v20.467c0,0.933-0.756,1.689-1.689,1.689H2.19
	C1.257,27.923,0.5,27.167,0.5,26.233z"/>
<linearGradient id="SVGID_1_" gradientUnits="userSpaceOnUse" x1="16.0738" y1="26.7903" x2="16.0738" y2="5.0964">
	<stop  offset="0" style="stop-color:#FF7F01"/>
	<stop  offset="1" style="stop-color:#F05800"/>
</linearGradient>
<path fill="url(#SVGID_1_)" d="M29.211,26.79H2.937c-0.571,0-1.035-0.463-1.035-1.035V6.131c0-0.571,0.463-1.035,1.035-1.035h26.274
	c0.571,0,1.035,0.463,1.035,1.035v19.625C30.245,26.327,29.782,26.79,29.211,26.79z"/>
<g>
	<path fill="#FFFFFF" d="M10.186,25.246H6.566v-0.688h1.415v-4.793l-1.451,0.42v-0.733l2.246-0.652v5.759h1.41V25.246z"/>
	<path fill="#FFFFFF" d="M15.08,25.246h-3.619v-0.688h1.415v-4.793l-1.451,0.42v-0.733l2.246-0.652v5.759h1.41V25.246z"/>
	<path fill="#FFFFFF" d="M15.956,22.214c0-1.113,0.185-1.956,0.555-2.528c0.369-0.572,0.904-0.858,1.604-0.858
		c1.338,0,2.006,1.079,2.006,3.236c0,1.064-0.188,1.879-0.564,2.443c-0.377,0.563-0.904,0.845-1.584,0.845
		c-0.641,0-1.137-0.267-1.489-0.803C16.132,24.014,15.956,23.235,15.956,22.214z M16.771,22.178c0,1.676,0.425,2.514,1.275,2.514
		c0.836,0,1.256-0.852,1.256-2.555c0-1.764-0.41-2.645-1.23-2.645C17.204,19.492,16.771,20.387,16.771,22.178z"/>
	<path fill="#FFFFFF" d="M21.295,25.246v-6.313h1.854c0.555,0,0.997,0.133,1.329,0.397c0.331,0.265,0.497,0.616,0.497,1.054
		c0,0.348-0.099,0.654-0.296,0.921c-0.196,0.266-0.468,0.455-0.813,0.566v0.016c0.429,0.049,0.772,0.212,1.029,0.487
		c0.256,0.275,0.385,0.626,0.385,1.05c0,0.543-0.195,0.982-0.585,1.318c-0.39,0.335-0.889,0.503-1.498,0.503H21.295z M22.109,19.646
		v1.977h0.742c0.394,0,0.703-0.096,0.927-0.287c0.225-0.191,0.336-0.457,0.336-0.797c0-0.595-0.396-0.893-1.189-0.893H22.109z
		 M22.109,22.332v2.201h0.979c0.427,0,0.756-0.099,0.988-0.296s0.349-0.471,0.349-0.821c0-0.723-0.491-1.084-1.472-1.084H22.109z"/>
</g>
<g opacity="0.9">
	<g>
		<polygon fill="#FFFFFF" points="11.097,11.696 9.599,10.138 11.097,8.58 		"/>
		<polygon fill="#FFFFFF" points="21.051,11.696 22.548,10.138 21.051,8.58 		"/>
		<rect x="10.72" y="9.788" fill="#FFFFFF" width="10.797" height="0.699"/>
	</g>
	<path fill="#FFFFFF" d="M16.2,7.61c1.394,0,2.528,1.134,2.528,2.528s-1.134,2.528-2.528,2.528c-1.394,0-2.528-1.134-2.528-2.528
		S14.806,7.61,16.2,7.61 M16.2,6.582c-1.964,0-3.556,1.592-3.556,3.556s1.592,3.556,3.556,3.556s3.556-1.592,3.556-3.556
		S18.164,6.582,16.2,6.582L16.2,6.582z"/>
	<rect x="15.514" y="13.622" fill="#FFFFFF" width="1.371" height="2.514"/>
	<rect x="14.522" y="14.764" fill="#FFFFFF" width="3.356" height="0.686"/>
</g>
</svg>
