<?xml version="1.0" encoding="utf-8"?>
<!-- Generator: Adobe Illustrator 18.0.0, SVG Export Plug-In . SVG Version: 6.00 Build 0)  -->
<!DOCTYPE svg PUBLIC "-//W3C//DTD SVG 1.1//EN" "http://www.w3.org/Graphics/SVG/1.1/DTD/svg11.dtd">
<svg version="1.1" id="图层_1" xmlns="http://www.w3.org/2000/svg" xmlns:xlink="http://www.w3.org/1999/xlink" x="0px" y="0px"
	 width="36px" height="36px" viewBox="0 0 36 36" enable-background="new 0 0 36 36" xml:space="preserve">
<g>
	<path fill="#00AEF9" d="M27.843,10.815c-0.596-0.14-1.188-0.23-1.771-0.271c-1.26-3.085-4.771-5.308-8.914-5.308
		c-4.462,0-8.191,2.578-9.163,6.035C3.97,12.094,1,14.908,1,18.263c0,2.485,1.629,4.677,4.11,5.981
		c0.46,3.661,4.372,6.52,9.132,6.52c2.704,0,5.128-0.929,6.808-2.397c2.998,0.552,8.928-0.543,10.105-4.514
		c1.869-0.858,3.251-2.335,3.696-4.223C35.734,15.882,32.597,11.935,27.843,10.815z"/>
	<circle fill="#FFFFFF" cx="21.867" cy="23.235" r="2.749"/>
	<circle fill="#FFFFFF" cx="13.836" cy="14.152" r="2.414"/>
	<circle fill="#FFFFFF" cx="10.011" cy="23.904" r="1.936"/>
	<circle fill="#FFFFFF" cx="25.07" cy="14.63" r="1.936"/>
	<rect x="15.724" y="13.937" fill="#FFFFFF" width="7.737" height="0.73"/>
	<rect x="11.661" y="23.45" fill="#FFFFFF" width="7.737" height="0.73"/>
	
		<rect x="13.477" y="18.526" transform="matrix(0.657 0.7539 -0.7539 0.657 20.1916 -6.5973)" fill="#FFFFFF" width="7.737" height="0.73"/>
	
		<rect x="19.787" y="18.526" transform="matrix(-0.3787 0.9255 -0.9255 -0.3787 50.0987 4.1507)" fill="#FFFFFF" width="7.737" height="0.73"/>
	
		<rect x="8.314" y="19.195" transform="matrix(-0.2783 0.9605 -0.9605 -0.2783 34.3611 13.303)" fill="#FFFFFF" width="7.737" height="0.73"/>
</g>
</svg>
