<?xml version="1.0" encoding="utf-8"?>
<!-- Generator: Adobe Illustrator 18.0.0, SVG Export Plug-In . SVG Version: 6.00 Build 0)  -->
<!DOCTYPE svg PUBLIC "-//W3C//DTD SVG 1.1//EN" "http://www.w3.org/Graphics/SVG/1.1/DTD/svg11.dtd">
<svg version="1.1" id="图层_1" xmlns="http://www.w3.org/2000/svg" xmlns:xlink="http://www.w3.org/1999/xlink" x="0px" y="0px"
	 width="36px" height="36px" viewBox="0 0 36 36" enable-background="new 0 0 36 36" xml:space="preserve">
<g>
	<polygon fill="#009BDD" points="36,29.184 0,29.184 0,13.508 7.838,6.816 28.162,6.816 36,13.508 	"/>
	<g>
		<path fill="#FFFFFF" d="M33.763,15.012v3.935H2.073v-3.935H33.763 M34.939,13.837H0.898v6.286h34.041V13.837L34.939,13.837z"/>
		<rect x="2.857" y="15.959" fill="#FFFFFF" width="11.51" height="2.204"/>
		<rect x="20.531" y="15.959" fill="#FFFFFF" width="1.014" height="2.205"/>
		<rect x="22.588" y="15.959" fill="#FFFFFF" width="1.014" height="2.205"/>
		<rect x="24.645" y="15.959" fill="#FFFFFF" width="1.014" height="2.205"/>
		<rect x="26.702" y="15.959" fill="#FFFFFF" width="1.014" height="2.205"/>
		<rect x="28.759" y="15.959" fill="#FFFFFF" width="1.014" height="2.205"/>
		<rect x="30.816" y="15.959" fill="#FFFFFF" width="1.014" height="2.205"/>
	</g>
	<g>
		<path fill="#FFFFFF" d="M33.763,23.339v3.935H2.073v-3.935H33.763 M34.939,22.163H0.898v6.286h34.041V22.163L34.939,22.163z"/>
		<rect x="2.857" y="24.286" fill="#FFFFFF" width="11.51" height="2.204"/>
		<rect x="20.531" y="24.286" fill="#FFFFFF" width="1.014" height="2.205"/>
		<rect x="22.588" y="24.286" fill="#FFFFFF" width="1.014" height="2.205"/>
		<rect x="24.645" y="24.286" fill="#FFFFFF" width="1.014" height="2.205"/>
		<rect x="26.702" y="24.286" fill="#FFFFFF" width="1.014" height="2.205"/>
		<rect x="28.759" y="24.286" fill="#FFFFFF" width="1.014" height="2.205"/>
		<rect x="30.816" y="24.286" fill="#FFFFFF" width="1.014" height="2.205"/>
	</g>
</g>
</svg>
