<?xml version="1.0" encoding="utf-8"?>
<!-- Generator: Adobe Illustrator 18.0.0, SVG Export Plug-In . SVG Version: 6.00 Build 0)  -->
<!DOCTYPE svg PUBLIC "-//W3C//DTD SVG 1.1//EN" "http://www.w3.org/Graphics/SVG/1.1/DTD/svg11.dtd">
<svg version="1.1" id="图层_1" xmlns="http://www.w3.org/2000/svg" xmlns:xlink="http://www.w3.org/1999/xlink" x="0px" y="0px"
	 width="36px" height="36px" viewBox="0 0 36 36" enable-background="new 0 0 36 36" xml:space="preserve">
<g>
	<path fill="#FFFFFF" d="M2.136,25.015V3.469C2.136,2.658,2.793,2,3.604,2h28.977c0.811,0,1.469,0.658,1.469,1.469v21.546
		c0,0.811-0.658,1.469-1.469,1.469H3.604C2.793,26.484,2.136,25.826,2.136,25.015z"/>
	<path fill="#8F8F8F" d="M32.581,3.106c0.2,0,0.363,0.163,0.363,0.363v21.546c0,0.2-0.163,0.363-0.363,0.363H3.604
		c-0.2,0-0.363-0.163-0.363-0.363V3.469c0-0.2,0.163-0.363,0.363-0.363H32.581 M32.581,2H3.604C2.793,2,2.136,2.658,2.136,3.469
		v21.546c0,0.811,0.658,1.469,1.469,1.469h28.977c0.811,0,1.469-0.658,1.469-1.469V3.469C34.05,2.658,33.392,2,32.581,2L32.581,2z"
		/>
	<radialGradient id="SVGID_1_" cx="6.3288" cy="6.2802" r="20.5884" gradientUnits="userSpaceOnUse">
		<stop  offset="0" style="stop-color:#FFFFFF"/>
		<stop  offset="1" style="stop-color:#CAD8EE"/>
	</radialGradient>
	<path fill="url(#SVGID_1_)" d="M30.617,24.537H5.568c-0.821,0-1.486-0.665-1.486-1.486V5.432c0-0.821,0.665-1.486,1.486-1.486
		h25.049c0.821,0,1.486,0.665,1.486,1.486v17.619C32.103,23.872,31.438,24.537,30.617,24.537z"/>
	<path fill="#8F8F8F" d="M30.617,5.052c0.209,0,0.38,0.17,0.38,0.38v17.619c0,0.209-0.17,0.38-0.38,0.38H5.568
		c-0.209,0-0.38-0.17-0.38-0.38V5.432c0-0.209,0.17-0.38,0.38-0.38H30.617 M30.617,3.946H5.568c-0.821,0-1.486,0.665-1.486,1.486
		v17.619c0,0.821,0.665,1.486,1.486,1.486h25.049c0.821,0,1.486-0.665,1.486-1.486V5.432C32.103,4.611,31.438,3.946,30.617,3.946
		L30.617,3.946z"/>
	<path fill="#8F8F8F" d="M30.359,27.535v0.097v1.071h1.071h0.192v0.097v1.071h1.071h0.306v1.158v1.071h1.033v0.831H18.365h-0.731
		H1.969v-0.831h1.033v-1.071V29.87h0.306h1.071v-1.071v-0.097H4.57h1.071v-1.071v-0.097h11.994h0.731H30.359 M31.43,26.464H18.365
		h-0.731H4.57v1.168H3.308v1.168H1.931v2.229H0.898V34h16.737h0.731h16.737v-2.972h-1.033v-2.229h-1.377v-1.168H31.43V26.464
		L31.43,26.464z"/>
	<rect x="4.322" y="28.726" fill="#AFAFAF" width="27.328" height="1.081"/>
	<rect x="5.682" y="27.606" fill="#FFFFFF" width="24.726" height="1.081"/>
	<rect x="2.958" y="29.808" fill="#E2E2E2" width="28.679" height="1.217"/>
	<rect x="1.943" y="30.959" fill="#EDEDED" width="32.038" height="1.217"/>
	<rect x="1.917" y="32.041" fill="#CACACA" width="32.017" height="0.867"/>
</g>
</svg>
