<?xml version="1.0" encoding="utf-8"?>
<!-- Generator: Adobe Illustrator 18.0.0, SVG Export Plug-In . SVG Version: 6.00 Build 0)  -->
<!DOCTYPE svg PUBLIC "-//W3C//DTD SVG 1.1//EN" "http://www.w3.org/Graphics/SVG/1.1/DTD/svg11.dtd">
<svg version="1.1" id="图层_1" xmlns="http://www.w3.org/2000/svg" xmlns:xlink="http://www.w3.org/1999/xlink" x="0px" y="0px"
	 width="36px" height="36px" viewBox="0 0 36 36" enable-background="new 0 0 36 36" xml:space="preserve">
<path fill="#FFFFFF" stroke="#C6C6C6" stroke-width="0.9976" stroke-miterlimit="10" d="M0.541,33.327V2.673
	c0-1.2,0.973-2.173,2.173-2.173h30.572c1.2,0,2.173,0.973,2.173,2.173v30.655c0,1.2-0.973,2.172-2.172,2.172H2.714
	C1.514,35.5,0.541,34.527,0.541,33.327z"/>
<linearGradient id="SVGID_1_" gradientUnits="userSpaceOnUse" x1="18.0831" y1="33.8373" x2="18.0831" y2="1.9963">
	<stop  offset="0" style="stop-color:#76797A"/>
	<stop  offset="1" style="stop-color:#5F6263"/>
</linearGradient>
<path fill="url(#SVGID_1_)" d="M32.715,33.837H3.451c-0.735,0-1.33-0.596-1.33-1.33V3.327c0-0.735,0.596-1.33,1.33-1.33h29.264
	c0.735,0,1.33,0.596,1.33,1.33v29.181C34.045,33.242,33.45,33.837,32.715,33.837z"/>
<g>
	<path fill="#D5D6D6" d="M13.248,30.838h-5.19V29.85h2.028v-6.874l-2.081,0.603v-1.053l3.221-0.935v8.259h2.022V30.838z"/>
	<path fill="#D5D6D6" d="M14.504,26.489c0-1.598,0.265-2.808,0.795-3.628c0.53-0.82,1.297-1.23,2.303-1.23
		c1.917,0,2.876,1.548,2.876,4.642c0,1.527-0.27,2.696-0.81,3.505c-0.54,0.809-1.297,1.213-2.271,1.213
		c-0.919,0-1.632-0.384-2.136-1.152C14.757,29.07,14.504,27.954,14.504,26.489z M15.674,26.437c0,2.404,0.61,3.606,1.83,3.606
		c1.2,0,1.8-1.222,1.8-3.665c0-2.529-0.588-3.794-1.765-3.794C16.295,22.584,15.674,23.868,15.674,26.437z"/>
	<path fill="#D5D6D6" d="M29.007,30.219c-0.904,0.514-1.925,0.771-3.063,0.771c-1.31,0-2.365-0.414-3.166-1.242
		s-1.201-1.935-1.201-3.317c0-1.399,0.442-2.549,1.327-3.449c0.884-0.9,2.019-1.351,3.402-1.351c0.978,0,1.806,0.156,2.484,0.468
		v1.263c-0.725-0.456-1.588-0.684-2.589-0.684c-0.986,0-1.799,0.337-2.438,1.011c-0.639,0.675-0.959,1.563-0.959,2.666
		c0,1.134,0.294,2.017,0.883,2.647c0.588,0.632,1.383,0.947,2.385,0.947c0.69,0,1.276-0.132,1.76-0.397v-2.449h-1.964v-1.034h3.139
		V30.219z"/>
</g>
<g>
	<g>
		<polygon fill="#D5D6D6" points="10.757,11.124 8.578,8.856 10.757,6.589 		"/>
		<polygon fill="#D5D6D6" points="25.243,11.124 27.422,8.856 25.243,6.589 		"/>
		<rect x="10.209" y="8.348" fill="#D5D6D6" width="15.713" height="1.017"/>
	</g>
	<path fill="#D5D6D6" d="M18.184,5.178c2.028,0,3.679,1.65,3.679,3.679s-1.65,3.679-3.679,3.679s-3.679-1.65-3.679-3.679
		S16.155,5.178,18.184,5.178 M18.184,3.681c-2.858,0-5.175,2.317-5.175,5.175s2.317,5.175,5.175,5.175s5.175-2.317,5.175-5.175
		S21.042,3.681,18.184,3.681L18.184,3.681z"/>
	<rect x="17.186" y="13.926" fill="#D5D6D6" width="1.995" height="3.658"/>
	<rect x="15.742" y="15.589" fill="#D5D6D6" width="4.884" height="0.998"/>
</g>
</svg>
