<?xml version="1.0" encoding="utf-8"?>
<!-- Generator: Adobe Illustrator 18.0.0, SVG Export Plug-In . SVG Version: 6.00 Build 0)  -->
<!DOCTYPE svg PUBLIC "-//W3C//DTD SVG 1.1//EN" "http://www.w3.org/Graphics/SVG/1.1/DTD/svg11.dtd">
<svg version="1.1" id="图层_1" xmlns="http://www.w3.org/2000/svg" xmlns:xlink="http://www.w3.org/1999/xlink" x="0px" y="0px"
	 width="36px" height="36px" viewBox="0 0 36 36" enable-background="new 0 0 36 36" xml:space="preserve">
<path fill="#FFFFFF" stroke="#C6C6C6" stroke-width="0.9976" stroke-miterlimit="10" d="M0.541,33.327V2.673
	c0-1.2,0.973-2.173,2.173-2.173h30.572c1.2,0,2.173,0.973,2.173,2.173v30.655c0,1.2-0.973,2.172-2.172,2.172H2.714
	C1.514,35.5,0.541,34.527,0.541,33.327z"/>
<linearGradient id="SVGID_1_" gradientUnits="userSpaceOnUse" x1="18.0831" y1="33.8373" x2="18.0831" y2="1.9963">
	<stop  offset="0" style="stop-color:#00AEF9"/>
	<stop  offset="1" style="stop-color:#0092E1"/>
</linearGradient>
<path fill="url(#SVGID_1_)" d="M32.715,33.837H3.451c-0.735,0-1.33-0.596-1.33-1.33V3.327c0-0.735,0.596-1.33,1.33-1.33h29.264
	c0.735,0,1.33,0.596,1.33,1.33v29.181C34.045,33.242,33.45,33.837,32.715,33.837z"/>
<g>
	<path fill="#FFFFFF" d="M13.246,30.836H8.055v-0.988h2.028v-6.875l-2.081,0.602v-1.052l3.222-0.935v8.26h2.022V30.836z"/>
	<path fill="#FFFFFF" d="M14.503,26.487c0-1.598,0.265-2.807,0.795-3.627c0.529-0.82,1.298-1.23,2.303-1.23
		c1.918,0,2.876,1.547,2.876,4.641c0,1.528-0.27,2.696-0.81,3.504s-1.297,1.213-2.271,1.213c-0.92,0-1.632-0.384-2.137-1.151
		S14.503,27.952,14.503,26.487z M15.672,26.434c0,2.405,0.609,3.607,1.829,3.607c1.2,0,1.801-1.222,1.801-3.665
		c0-2.529-0.589-3.794-1.766-3.794C16.293,22.582,15.672,23.866,15.672,26.434z"/>
	<path fill="#FFFFFF" d="M29.005,30.216c-0.903,0.515-1.925,0.771-3.063,0.771c-1.31,0-2.364-0.414-3.165-1.242
		s-1.201-1.934-1.201-3.317c0-1.399,0.441-2.548,1.326-3.449c0.885-0.9,2.019-1.35,3.402-1.35c0.979,0,1.807,0.156,2.484,0.468
		v1.262c-0.725-0.456-1.588-0.684-2.59-0.684c-0.985,0-1.798,0.337-2.438,1.011c-0.639,0.674-0.958,1.563-0.958,2.666
		c0,1.134,0.294,2.017,0.882,2.648c0.589,0.631,1.384,0.947,2.386,0.947c0.689,0,1.276-0.132,1.759-0.397v-2.449h-1.964v-1.035
		h3.139V30.216z"/>
</g>
<g opacity="0.9">
	<g>
		<polygon fill="#FFFFFF" points="10.757,11.124 8.578,8.856 10.757,6.589 		"/>
		<polygon fill="#FFFFFF" points="25.243,11.124 27.422,8.856 25.243,6.589 		"/>
		<rect x="10.209" y="8.348" fill="#FFFFFF" width="15.713" height="1.017"/>
	</g>
	<path fill="#FFFFFF" d="M18.184,5.178c2.028,0,3.679,1.65,3.679,3.679s-1.65,3.679-3.679,3.679s-3.679-1.65-3.679-3.679
		S16.155,5.178,18.184,5.178 M18.184,3.681c-2.858,0-5.175,2.317-5.175,5.175s2.317,5.175,5.175,5.175s5.175-2.317,5.175-5.175
		S21.042,3.681,18.184,3.681L18.184,3.681z"/>
	<rect x="17.186" y="13.926" fill="#FFFFFF" width="1.995" height="3.658"/>
	<rect x="15.742" y="15.589" fill="#FFFFFF" width="4.884" height="0.998"/>
</g>
</svg>
