<?xml version="1.0" encoding="utf-8"?>
<!-- Generator: Adobe Illustrator 18.0.0, SVG Export Plug-In . SVG Version: 6.00 Build 0)  -->
<!DOCTYPE svg PUBLIC "-//W3C//DTD SVG 1.1//EN" "http://www.w3.org/Graphics/SVG/1.1/DTD/svg11.dtd">
<svg version="1.1" id="图层_1" xmlns="http://www.w3.org/2000/svg" xmlns:xlink="http://www.w3.org/1999/xlink" x="0px" y="0px"
	 width="32px" height="32px" viewBox="0 0 32 32" enable-background="new 0 0 32 32" xml:space="preserve">
<g>
	<g>
		<path fill="#FFFFFF" d="M2.988,30.603c-0.877,0-1.59-0.713-1.59-1.59V2.988c0-0.877,0.713-1.59,1.59-1.59h26.024
			c0.877,0,1.59,0.713,1.59,1.59v26.025c0,0.877-0.713,1.59-1.59,1.59H2.988z"/>
		<path fill="#AFAFAF" d="M29.012,1.795c0.658,0,1.193,0.535,1.193,1.193v26.024c0,0.658-0.535,1.193-1.193,1.193H2.988
			c-0.658,0-1.193-0.535-1.193-1.193V2.988c0-0.658,0.535-1.193,1.193-1.193H29.012 M29.012,1H2.988C1.89,1,1,1.89,1,2.988v26.024
			C1,30.11,1.89,31,2.988,31h26.024C30.11,31,31,30.11,31,29.012V2.988C31,1.89,30.11,1,29.012,1L29.012,1z"/>
	</g>
	<g>
		<linearGradient id="SVGID_1_" gradientUnits="userSpaceOnUse" x1="16" y1="29.2861" x2="16" y2="2.7139">
			<stop  offset="0" style="stop-color:#F1E821"/>
			<stop  offset="0.0442" style="stop-color:#ECDF1B"/>
			<stop  offset="0.1602" style="stop-color:#E2CE0F"/>
			<stop  offset="0.3029" style="stop-color:#DBC206"/>
			<stop  offset="0.499" style="stop-color:#D7BB01"/>
			<stop  offset="1" style="stop-color:#D6B900"/>
		</linearGradient>
		<path fill="url(#SVGID_1_)" d="M2.988,29.286c-0.151,0-0.274-0.123-0.274-0.274V2.988c0-0.151,0.123-0.274,0.274-0.274h26.025
			c0.151,0,0.273,0.123,0.273,0.274v26.024c0,0.151-0.122,0.274-0.273,0.274H2.988z"/>
	</g>
	<g>
		<g>
			<polygon fill="#FFFFFF" points="8.127,13.566 5.313,11.072 8.127,8.578 			"/>
			<polygon fill="#FFFFFF" points="11.109,13.566 13.923,11.072 11.109,8.578 			"/>
			<rect x="7.39" y="10.536" fill="#FFFFFF" width="4.087" height="1.072"/>
			<path fill="#FFFFFF" d="M14.079,7.502v7.08H5.123v-7.08H14.079 M14.961,6.619H4.241v8.844h10.721V6.619L14.961,6.619z"/>
		</g>
		<g>
			<polygon fill="#FFFFFF" points="19.92,13.566 17.106,11.072 19.92,8.578 			"/>
			<polygon fill="#FFFFFF" points="23.906,13.566 26.721,11.072 23.906,8.578 			"/>
			<rect x="19.786" y="10.536" fill="#FFFFFF" width="4.288" height="1.072"/>
			<path fill="#FFFFFF" d="M26.877,7.502v7.08h-9.961v-7.08H26.877 M27.759,6.619H16.034v8.844h11.726V6.619L27.759,6.619z"/>
		</g>
		<g>
			<polygon fill="#FFFFFF" points="8.127,23.483 5.313,20.988 8.127,18.494 			"/>
			<polygon fill="#FFFFFF" points="11.109,23.483 13.923,20.988 11.109,18.494 			"/>
			<rect x="7.39" y="20.452" fill="#FFFFFF" width="4.087" height="1.072"/>
			<path fill="#FFFFFF" d="M14.079,17.419v7.08H5.123v-7.08H14.079 M14.961,16.536H4.241v8.844h10.721V16.536L14.961,16.536z"/>
		</g>
		<g>
			<polygon fill="#FFFFFF" points="19.92,23.483 17.106,20.988 19.92,18.494 			"/>
			<polygon fill="#FFFFFF" points="23.906,23.483 26.721,20.988 23.906,18.494 			"/>
			<rect x="19.786" y="20.452" fill="#FFFFFF" width="4.288" height="1.072"/>
			<path fill="#FFFFFF" d="M26.877,17.419v7.08h-9.961v-7.08H26.877 M27.759,16.536H16.034v8.844h11.726V16.536L27.759,16.536z"/>
		</g>
	</g>
</g>
</svg>
