<?xml version="1.0" encoding="utf-8"?>
<!-- Generator: Adobe Illustrator 18.0.0, SVG Export Plug-In . SVG Version: 6.00 Build 0)  -->
<!DOCTYPE svg PUBLIC "-//W3C//DTD SVG 1.1//EN" "http://www.w3.org/Graphics/SVG/1.1/DTD/svg11.dtd">
<svg version="1.1" id="图层_1" xmlns="http://www.w3.org/2000/svg" xmlns:xlink="http://www.w3.org/1999/xlink" x="0px" y="0px"
	 width="32px" height="32px" viewBox="0 0 32 32" enable-background="new 0 0 32 32" xml:space="preserve">
<g>
	<g>
		<path fill="#FFFFFF" d="M3.421,30.115c-0.848,0-1.537-0.689-1.537-1.537V3.421c0-0.848,0.689-1.537,1.537-1.537h25.157
			c0.848,0,1.537,0.689,1.537,1.537v25.157c0,0.848-0.689,1.537-1.537,1.537H3.421z"/>
		<path fill="#AFAFAF" d="M28.578,2.269c0.636,0,1.153,0.517,1.153,1.153v25.157c0,0.636-0.517,1.153-1.153,1.153H3.422
			c-0.636,0-1.153-0.517-1.153-1.153V3.422c0-0.636,0.517-1.153,1.153-1.153H28.578 M28.578,1.5H3.422C2.36,1.5,1.5,2.36,1.5,3.422
			v25.157c0,1.061,0.86,1.922,1.922,1.922h25.157c1.061,0,1.922-0.86,1.922-1.922V3.422C30.5,2.36,29.64,1.5,28.578,1.5L28.578,1.5z
			"/>
	</g>
	<g>
		<linearGradient id="SVGID_1_" gradientUnits="userSpaceOnUse" x1="16" y1="28.8433" x2="16" y2="3.1567">
			<stop  offset="0" style="stop-color:#FF7F01"/>
			<stop  offset="1" style="stop-color:#F05800"/>
		</linearGradient>
		<path fill="url(#SVGID_1_)" d="M3.422,28.843c-0.146,0-0.265-0.119-0.265-0.265V3.422c0-0.146,0.119-0.265,0.265-0.265h25.158
			c0.146,0,0.264,0.119,0.264,0.265v25.157c0,0.146-0.118,0.265-0.264,0.265H3.422z"/>
	</g>
	<g>
		<polygon fill="#FFFFFF" points="20.919,9.283 23.844,11.699 23.844,9.841 27.703,9.841 27.703,8.803 23.844,8.803 23.844,6.866 		
			"/>
		<polygon fill="#FFFFFF" points="21.897,16.077 24.822,18.494 24.822,16.635 28.681,16.635 28.681,15.598 24.822,15.598 
			24.822,13.661 		"/>
		<polygon fill="#FFFFFF" points="20.971,22.717 23.896,25.134 23.896,23.275 27.755,23.275 27.755,22.238 23.896,22.238 
			23.896,20.301 		"/>
		<g>
			<polygon fill="#FFFFFF" points="11.341,9.139 13.422,9.139 19.363,15.176 21.444,15.176 13.422,7.025 11.341,7.025 3.319,15.176 
				5.4,15.176 			"/>
		</g>
		<g>
			<g>
				<path fill="#FFFFFF" d="M13.422,9.911h-2.081l-5.634,5.725v2.427h0.009v5.128h5.221v-4.736h2.882v4.736h5.228v-5.128h0.043
					v-2.392L13.422,9.911z M11.921,15.583h-0.906v-3.683h0.906V15.583z M13.826,15.583h-0.906v-3.683h0.906V15.583z"/>
			</g>
		</g>
		<polygon fill="#FFFFFF" points="18.062,10.952 18.903,10.952 18.903,7.251 16.459,7.251 16.459,9.323 		"/>
	</g>
</g>
</svg>
