<?xml version="1.0" encoding="utf-8"?>
<!-- Generator: Adobe Illustrator 18.0.0, SVG Export Plug-In . SVG Version: 6.00 Build 0)  -->
<!DOCTYPE svg PUBLIC "-//W3C//DTD SVG 1.1//EN" "http://www.w3.org/Graphics/SVG/1.1/DTD/svg11.dtd">
<svg version="1.1" id="图层_1" xmlns="http://www.w3.org/2000/svg" xmlns:xlink="http://www.w3.org/1999/xlink" x="0px" y="0px"
	 width="32px" height="32px" viewBox="0 0 32 32" enable-background="new 0 0 32 32" xml:space="preserve">
<g>
	<g>
		<g>
			<g>
				<rect x="1.788" y="20.879" fill="#FF7400" width="28.424" height="9.121"/>
			</g>
			<g>
				<g>
					<rect x="15.045" y="15.258" fill="#FF7400" width="0.848" height="5.621"/>
					<rect x="17.909" y="15.258" fill="#FF7400" width="0.848" height="5.621"/>
				</g>
				<rect x="15.947" y="13.136" fill="#FF7400" width="1.909" height="2.015"/>
			</g>
		</g>
		<g>
			<path fill="#FF7400" d="M12.51,14.803l-1.228-0.336c0.79-2.89,3.05-4.831,5.623-4.831c2.562,0,4.817,1.93,5.614,4.804
				l-1.225,0.341c-0.643-2.316-2.406-3.872-4.389-3.872C14.914,10.909,13.148,12.474,12.51,14.803z"/>
			<path fill="#FF7400" d="M8.935,14.143l-1.238-0.291c1.107-4.73,4.895-8.034,9.207-8.034c4.302,0,8.086,3.292,9.202,8.008
				l-1.238,0.293c-0.981-4.139-4.254-7.029-7.964-7.029C13.185,7.091,9.908,9.991,8.935,14.143z"/>
			<path fill="#FF7400" d="M5.33,13.488l-1.245-0.266C5.503,6.615,10.774,2,16.904,2c6.118,0,11.387,4.604,12.813,11.196
				l-1.243,0.268c-1.299-6.001-6.057-10.192-11.57-10.192C11.379,3.273,6.62,7.474,5.33,13.488z"/>
		</g>
	</g>
	<polygon fill="#FFCD98" points="28.939,22.152 2.848,22.152 2.848,28.727 28.939,28.727 28.939,22.152 	"/>
	<linearGradient id="SVGID_1_" gradientUnits="userSpaceOnUse" x1="15.8939" y1="23.4242" x2="15.8939" y2="28.7273">
		<stop  offset="0" style="stop-color:#FF7F01"/>
		<stop  offset="1" style="stop-color:#F05800"/>
	</linearGradient>
	<polyline fill="url(#SVGID_1_)" points="27.667,23.424 27.667,28.727 4.121,28.727 4.121,23.424 27.667,23.424 	"/>
	<rect x="15.874" y="15.258" fill="#FFFFFF" width="2.055" height="5.621"/>
	<rect x="15.874" y="16.106" fill="#FFBA45" width="2.055" height="4.773"/>
</g>
</svg>
