<?xml version="1.0" encoding="utf-8"?>
<!-- Generator: Adobe Illustrator 18.0.0, SVG Export Plug-In . SVG Version: 6.00 Build 0)  -->
<!DOCTYPE svg PUBLIC "-//W3C//DTD SVG 1.1//EN" "http://www.w3.org/Graphics/SVG/1.1/DTD/svg11.dtd">
<svg version="1.1" id="图层_1" xmlns="http://www.w3.org/2000/svg" xmlns:xlink="http://www.w3.org/1999/xlink" x="0px" y="0px"
	 width="32px" height="32px" viewBox="0 0 32 32" enable-background="new 0 0 32 32" xml:space="preserve">
<g>
	<polygon fill="#C63E00" points="25.063,5.5 7.063,5.5 7.063,10.563 3.063,10.563 3.063,26.5 28.938,26.5 28.938,10.563 
		25.063,10.563 25.063,5.5 	"/>
	<polyline fill="#FF7F17" points="24.214,6.348 24.214,10.563 24.214,11.411 25.063,11.411 28.089,11.411 28.089,25.652 
		3.911,25.652 3.911,11.411 7.063,11.411 7.911,11.411 7.911,10.563 7.911,6.348 24.214,6.348 	"/>
	<g>
		<rect x="6.938" y="18.563" fill="#FFCD98" width="1" height="4"/>
		<rect x="12" y="18.563" fill="#FFCD98" width="1" height="4"/>
		<rect x="16.938" y="18.563" fill="#FFCD98" width="1" height="4"/>
		<rect x="22.938" y="18.563" fill="#FFCD98" width="1" height="4"/>
	</g>
	<g>
		<rect x="8" y="18.563" fill="#C63E00" width="2" height="4"/>
		<rect x="13.063" y="18.563" fill="#C63E00" width="2" height="4"/>
		<rect x="18" y="18.563" fill="#C63E00" width="2" height="4"/>
		<rect x="24" y="18.563" fill="#C63E00" width="2" height="4"/>
	</g>
</g>
</svg>
