<?xml version="1.0" encoding="utf-8"?>
<!-- Generator: Adobe Illustrator 18.0.0, SVG Export Plug-In . SVG Version: 6.00 Build 0)  -->
<!DOCTYPE svg PUBLIC "-//W3C//DTD SVG 1.1//EN" "http://www.w3.org/Graphics/SVG/1.1/DTD/svg11.dtd">
<svg version="1.1" id="图层_1" xmlns="http://www.w3.org/2000/svg" xmlns:xlink="http://www.w3.org/1999/xlink" x="0px" y="0px"
	 width="32px" height="32px" viewBox="0 0 32 32" enable-background="new 0 0 32 32" xml:space="preserve">
<g>
	<polygon fill="#C3EB91" points="29.96,13.09 29.301,12.543 29.301,12.51 29.261,12.51 16,1.5 2.039,13.09 2.827,13.09 2.827,30.5 
		29.301,30.5 29.301,13.09 	"/>
	<path fill="#008D00" d="M29.96,13.09l-0.66-0.548V12.51h-0.04L16,1.5L2.039,13.09h0.787V30.5h26.474V13.09H29.96z M12.941,29.429
		v-8.254h5.989v8.254H12.941z M28.282,29.482h-8.318v-9.341h-8.057v9.341H3.845V13.106h24.437V29.482z M16,2.83l11.126,9.238H4.873
		L16,2.83z"/>
</g>
</svg>
