<?xml version="1.0" encoding="utf-8"?>
<!-- Generator: Adobe Illustrator 18.0.0, SVG Export Plug-In . SVG Version: 6.00 Build 0)  -->
<!DOCTYPE svg PUBLIC "-//W3C//DTD SVG 1.1//EN" "http://www.w3.org/Graphics/SVG/1.1/DTD/svg11.dtd">
<svg version="1.1" id="图层_1" xmlns="http://www.w3.org/2000/svg" xmlns:xlink="http://www.w3.org/1999/xlink" x="0px" y="0px"
	 width="32px" height="32px" viewBox="0 0 32 32" enable-background="new 0 0 32 32" xml:space="preserve">
<g>
	<polygon fill="#FFFF57" points="29.147,13.26 28.526,12.744 28.526,12.713 28.488,12.713 16,2.345 2.853,13.26 3.594,13.26 
		3.594,29.655 28.526,29.655 28.526,13.26 	"/>
	<path fill="#7A6700" d="M29.147,13.26l-0.621-0.516v-0.031h-0.038L16,2.345L2.853,13.26h0.742v16.395h24.932V13.26H29.147z
		 M13.12,28.646v-7.773h5.64v7.773H13.12z M27.567,28.696h-7.833v-8.797h-7.588v8.797H4.553V13.275h23.014V28.696z M16,3.597
		l10.478,8.699H5.522L16,3.597z"/>
</g>
</svg>
