<?xml version="1.0" encoding="utf-8"?>
<!-- Generator: Adobe Illustrator 18.0.0, SVG Export Plug-In . SVG Version: 6.00 Build 0)  -->
<!DOCTYPE svg PUBLIC "-//W3C//DTD SVG 1.1//EN" "http://www.w3.org/Graphics/SVG/1.1/DTD/svg11.dtd">
<svg version="1.1" id="图层_1" xmlns="http://www.w3.org/2000/svg" xmlns:xlink="http://www.w3.org/1999/xlink" x="0px" y="0px"
	 width="32px" height="32px" viewBox="0 0 32 32" enable-background="new 0 0 32 32" xml:space="preserve">
<g>
	<g>
		<path fill="#FFFFFF" d="M2.046,30.603c-0.357,0-0.648-0.291-0.648-0.648V2.046c0-0.357,0.291-0.648,0.648-0.648h27.908
			c0.357,0,0.648,0.291,0.648,0.648v27.908c0,0.357-0.291,0.648-0.648,0.648H2.046z"/>
		<path fill="#AFAFAF" d="M29.954,1.795c0.138,0,0.251,0.113,0.251,0.251v27.908c0,0.138-0.113,0.251-0.251,0.251H2.046
			c-0.138,0-0.251-0.113-0.251-0.251V2.046c0-0.138,0.113-0.251,0.251-0.251H29.954 M29.954,1H2.046C1.468,1,1,1.468,1,2.046v27.908
			C1,30.532,1.468,31,2.046,31h27.908C30.532,31,31,30.532,31,29.954V2.046C31,1.468,30.532,1,29.954,1L29.954,1z"/>
	</g>
	<g>
		<path fill="#5D6061" d="M2.988,29.286c-0.151,0-0.274-0.123-0.274-0.274V2.988c0-0.151,0.123-0.274,0.274-0.274h26.025
			c0.151,0,0.273,0.123,0.273,0.274v26.024c0,0.151-0.122,0.274-0.273,0.274H2.988z"/>
	</g>
	<g>
		<g>
			<path fill="#D2D2D2" d="M26.131,14.906v9.137h-20.2v-9.137H26.131 M27.031,14.006h-22v10.938h22V14.006L27.031,14.006z"/>
			<rect x="8.093" y="14.756" fill="#D2D2D2" width="0.938" height="9.313"/>
			<rect x="10.031" y="14.756" fill="#D2D2D2" width="0.938" height="9.313"/>
			<rect x="14.031" y="14.756" fill="#D2D2D2" width="0.938" height="9.313"/>
			<rect x="15.968" y="14.756" fill="#D2D2D2" width="0.938" height="9.313"/>
			<rect x="20.031" y="14.756" fill="#D2D2D2" width="0.938" height="9.313"/>
			<rect x="21.968" y="14.756" fill="#D2D2D2" width="0.938" height="9.313"/>
		</g>
		<g>
			<rect x="7.281" y="9.006" fill="#D2D2D2" width="17.313" height="1"/>
			<rect x="14.531" y="8.038" fill="#D2D2D2" width="2.813" height="2.938"/>
			<polygon fill="#D2D2D2" points="9.028,11.957 4.783,9.506 9.028,7.056 			"/>
			<polygon fill="#D2D2D2" points="22.971,11.957 27.216,9.506 22.971,7.056 			"/>
		</g>
	</g>
</g>
</svg>
