<?xml version="1.0" encoding="utf-8"?>
<!-- Generator: Adobe Illustrator 18.0.0, SVG Export Plug-In . SVG Version: 6.00 Build 0)  -->
<!DOCTYPE svg PUBLIC "-//W3C//DTD SVG 1.1//EN" "http://www.w3.org/Graphics/SVG/1.1/DTD/svg11.dtd">
<svg version="1.1" id="图层_1" xmlns="http://www.w3.org/2000/svg" xmlns:xlink="http://www.w3.org/1999/xlink" x="0px" y="0px"
	 width="32px" height="32px" viewBox="0 0 32 32" enable-background="new 0 0 32 32" xml:space="preserve">
<g>
	<polygon fill="#008D00" points="22.385,1 8.007,1 4.861,6.493 26.24,6.493 22.352,1 	"/>
	<polyline fill="#62C35E" points="22.007,2.13 24.814,6.403 6.287,6.403 8.573,2.13 22.007,2.13 	"/>
	<polygon fill="#008D00" points="26.298,6.469 25.325,6.469 5.793,6.469 4.819,6.469 4.819,7.443 4.819,30.026 4.819,31 5.793,31 
		25.325,31 26.298,31 26.298,30.026 26.298,7.443 26.298,6.469 	"/>
	<polyline fill="#62C35E" points="25.325,7.443 25.325,30.026 5.793,30.026 5.793,7.443 25.325,7.443 	"/>
	<rect x="6.878" y="9.511" fill="#00AA00" width="17.362" height="18.447"/>
	<g>
		<rect x="9.014" y="11.071" fill="#DBDBDB" width="13.089" height="1.221"/>
		<rect x="9.014" y="16.564" fill="#DBDBDB" width="13.089" height="1.221"/>
		<rect x="9.014" y="21.99" fill="#DBDBDB" width="13.089" height="1.221"/>
	</g>
	<g>
		<rect x="9.014" y="12.224" fill="#008D00" width="13.089" height="3.255"/>
		<rect x="9.014" y="17.717" fill="#008D00" width="13.089" height="3.255"/>
		<rect x="9.014" y="23.143" fill="#008D00" width="13.089" height="3.255"/>
	</g>
</g>
</svg>
