<?xml version="1.0" encoding="utf-8"?>
<!-- Generator: Adobe Illustrator 18.0.0, SVG Export Plug-In . SVG Version: 6.00 Build 0)  -->
<!DOCTYPE svg PUBLIC "-//W3C//DTD SVG 1.1//EN" "http://www.w3.org/Graphics/SVG/1.1/DTD/svg11.dtd">
<svg version="1.1" id="图层_1" xmlns="http://www.w3.org/2000/svg" xmlns:xlink="http://www.w3.org/1999/xlink" x="0px" y="0px"
	 width="32px" height="32px" viewBox="0 0 32 32" enable-background="new 0 0 32 32" xml:space="preserve">
<g>
	<polygon fill="#0066D0" points="30.044,6 1.956,6 1.956,26 30.044,26 30.044,6 	"/>
	<polyline fill="#54E0F8" points="29.04,7.003 29.04,24.997 2.959,24.997 2.959,7.003 29.04,7.003 	"/>
	<g>
		<path fill="#0066D0" d="M15.059,9.95v1.066h-3.072V9.95H15.059 M16.062,8.947h-5.078v3.072h5.078V8.947L16.062,8.947z"/>
		<path fill="#0066D0" d="M24.087,9.95v1.066h-4.075V9.95H24.087 M25.091,8.947h-6.082v3.072h6.082V8.947L25.091,8.947z"/>
		<path fill="#0066D0" d="M24.087,19.918v1.066h-4.075v-1.066H24.087 M25.091,18.915h-6.082v3.072h6.082V18.915L25.091,18.915z"/>
		<path fill="#0066D0" d="M15.059,19.918v1.066h-3.072v-1.066H15.059 M16.062,18.915h-5.078v3.072h5.078V18.915L16.062,18.915z"/>
		<rect x="6.031" y="10.013" fill="#0066D0" width="0.94" height="11.975"/>
		<rect x="2.708" y="15.028" fill="#0066D0" width="25.392" height="1.003"/>
	</g>
</g>
</svg>
