<?xml version="1.0" encoding="utf-8"?>
<!-- Generator: Adobe Illustrator 18.0.0, SVG Export Plug-In . SVG Version: 6.00 Build 0)  -->
<!DOCTYPE svg PUBLIC "-//W3C//DTD SVG 1.1//EN" "http://www.w3.org/Graphics/SVG/1.1/DTD/svg11.dtd">
<svg version="1.1" id="图层_1" xmlns="http://www.w3.org/2000/svg" xmlns:xlink="http://www.w3.org/1999/xlink" x="0px" y="0px"
	 width="32px" height="32px" viewBox="0 0 32 32" enable-background="new 0 0 32 32" xml:space="preserve">
<g>
	<g>
		<path fill="#FFFFFF" d="M2.988,30.603c-0.877,0-1.59-0.713-1.59-1.59V2.987c0-0.877,0.713-1.59,1.59-1.59h26.024
			c0.877,0,1.59,0.713,1.59,1.59v26.025c0,0.877-0.713,1.59-1.59,1.59H2.988z"/>
		<path fill="#AFAFAF" d="M29.012,1.795c0.658,0,1.193,0.535,1.193,1.193v26.024c0,0.658-0.535,1.193-1.193,1.193H2.988
			c-0.658,0-1.193-0.535-1.193-1.193V2.988c0-0.658,0.535-1.193,1.193-1.193H29.012 M29.012,1H2.988C1.89,1,1,1.89,1,2.988v26.024
			C1,30.11,1.89,31,2.988,31h26.024C30.11,31,31,30.11,31,29.012V2.988C31,1.89,30.11,1,29.012,1L29.012,1z"/>
	</g>
	<g>
		<linearGradient id="SVGID_1_" gradientUnits="userSpaceOnUse" x1="16" y1="29.2861" x2="16" y2="2.7139">
			<stop  offset="0" style="stop-color:#76797A"/>
			<stop  offset="1" style="stop-color:#5F6263"/>
		</linearGradient>
		<path fill="url(#SVGID_1_)" d="M2.988,29.286c-0.151,0-0.274-0.123-0.274-0.274V2.988c0-0.151,0.123-0.274,0.274-0.274h26.025
			c0.151,0,0.273,0.123,0.273,0.274v26.024c0,0.151-0.122,0.274-0.273,0.274H2.988z"/>
	</g>
	<g>
		<path fill="#C7C8C8" d="M24.875,19.506v4.083h-18v-4.083H24.875 M26.875,17.506h-22v8.083h22V17.506L26.875,17.506z"/>
		<rect x="7.375" y="11.506" fill="#C7C8C8" width="16.917" height="2"/>
		<polygon fill="#C7C8C8" points="7.969,15.581 4.447,12.506 7.969,9.43 		"/>
		<polygon fill="#C7C8C8" points="24.031,15.581 27.553,12.506 24.031,9.43 		"/>
		<polygon fill="#C7C8C8" points="18.909,8.6 15.833,5.078 12.758,8.6 		"/>
	</g>
</g>
</svg>
