<?xml version="1.0" encoding="utf-8"?>
<!-- Generator: Adobe Illustrator 18.0.0, SVG Export Plug-In . SVG Version: 6.00 Build 0)  -->
<!DOCTYPE svg PUBLIC "-//W3C//DTD SVG 1.1//EN" "http://www.w3.org/Graphics/SVG/1.1/DTD/svg11.dtd">
<svg version="1.1" id="图层_1" xmlns="http://www.w3.org/2000/svg" xmlns:xlink="http://www.w3.org/1999/xlink" x="0px" y="0px"
	 width="32px" height="32px" viewBox="0 0 32 32" enable-background="new 0 0 32 32" xml:space="preserve">
<g>
	<path fill="#FFFFFF" d="M2.988,30.603c-0.877,0-1.59-0.713-1.59-1.59V2.987c0-0.877,0.713-1.59,1.59-1.59h26.024
		c0.877,0,1.59,0.713,1.59,1.59v26.025c0,0.877-0.713,1.59-1.59,1.59H2.988z"/>
	<path fill="#AFAFAF" d="M29.012,1.795c0.658,0,1.193,0.535,1.193,1.193v26.024c0,0.658-0.535,1.193-1.193,1.193H2.988
		c-0.658,0-1.193-0.535-1.193-1.193V2.988c0-0.658,0.535-1.193,1.193-1.193H29.012 M29.012,1H2.988C1.89,1,1,1.89,1,2.988v26.024
		C1,30.11,1.89,31,2.988,31h26.024C30.11,31,31,30.11,31,29.012V2.988C31,1.89,30.11,1,29.012,1L29.012,1z"/>
</g>
<g>
	<linearGradient id="SVGID_1_" gradientUnits="userSpaceOnUse" x1="16" y1="29.2861" x2="16" y2="2.7139">
		<stop  offset="0" style="stop-color:#76797A"/>
		<stop  offset="1" style="stop-color:#5F6263"/>
	</linearGradient>
	<path fill="url(#SVGID_1_)" d="M2.988,29.286c-0.151,0-0.274-0.123-0.274-0.274V2.988c0-0.151,0.123-0.274,0.274-0.274h26.025
		c0.151,0,0.273,0.123,0.273,0.274v26.024c0,0.151-0.122,0.274-0.273,0.274H2.988z"/>
</g>
<g>
	<g>
		<rect x="12.042" y="5.5" fill="#FFFFFF" width="2" height="21"/>
		<rect x="18.042" y="5.5" fill="#FFFFFF" width="2" height="21"/>
		<path fill="#FFFFFF" d="M23.042,8.417V23.5H8.958V8.417H23.042 M24.042,7.417H7.958V24.5h16.083V7.417L24.042,7.417z"/>
	</g>
	<rect x="5.75" y="14.5" fill="#FFFFFF" width="20.5" height="0.917"/>
	<g>
		<polygon fill="#FFFFFF" points="6.485,17.452 3.203,14.958 6.485,12.465 		"/>
		<polygon fill="#FFFFFF" points="25.515,17.452 28.797,14.958 25.515,12.465 		"/>
	</g>
</g>
</svg>
